<?xml version="1.0" encoding="UTF-8" standalone="no"?>
<!-- Created with Inkscape (http://www.inkscape.org/) -->

<svg
   xmlns:ns1="http://www.iki.fi/pav/software/textext/"
   xmlns:dc="http://purl.org/dc/elements/1.1/"
   xmlns:cc="http://creativecommons.org/ns#"
   xmlns:rdf="http://www.w3.org/1999/02/22-rdf-syntax-ns#"
   xmlns:svg="http://www.w3.org/2000/svg"
   xmlns="http://www.w3.org/2000/svg"
   xmlns:sodipodi="http://sodipodi.sourceforge.net/DTD/sodipodi-0.dtd"
   xmlns:inkscape="http://www.inkscape.org/namespaces/inkscape"
   width="210mm"
   height="297mm"
   viewBox="0 0 210 297"
   version="1.1"
   id="svg8"
   inkscape:version="0.92.4 5da689c313, 2019-01-14"
   sodipodi:docname="al_combined.svg">
  <defs
     id="defs2">
    <marker
       inkscape:stockid="Arrow2Send"
       orient="auto"
       refY="0"
       refX="0"
       id="marker11378"
       style="overflow:visible"
       inkscape:isstock="true">
      <path
         inkscape:connector-curvature="0"
         id="path11376"
         style="fill:#000000;fill-opacity:1;fill-rule:evenodd;stroke:#000000;stroke-width:0.625;stroke-linejoin:round;stroke-opacity:1"
         d="M 8.7185878,4.0337352 -2.2072895,0.01601326 8.7185884,-4.0017078 c -1.7454984,2.3720609 -1.7354408,5.6174519 -6e-7,8.035443 z"
         transform="matrix(-0.3,0,0,-0.3,0.69,0)" />
    </marker>
    <marker
       inkscape:stockid="Arrow2Send"
       orient="auto"
       refY="0"
       refX="0"
       id="marker11323"
       style="overflow:visible"
       inkscape:isstock="true">
      <path
         inkscape:connector-curvature="0"
         id="path11321"
         style="fill:#000000;fill-opacity:1;fill-rule:evenodd;stroke:#000000;stroke-width:0.625;stroke-linejoin:round;stroke-opacity:1"
         d="M 8.7185878,4.0337352 -2.2072895,0.01601326 8.7185884,-4.0017078 c -1.7454984,2.3720609 -1.7354408,5.6174519 -6e-7,8.035443 z"
         transform="matrix(-0.3,0,0,-0.3,0.69,0)" />
    </marker>
    <marker
       inkscape:stockid="Arrow2Send"
       orient="auto"
       refY="0"
       refX="0"
       id="marker8086"
       style="overflow:visible"
       inkscape:isstock="true">
      <path
         inkscape:connector-curvature="0"
         id="path8084"
         style="fill:#000000;fill-opacity:1;fill-rule:evenodd;stroke:#000000;stroke-width:0.625;stroke-linejoin:round;stroke-opacity:1"
         d="M 8.7185878,4.0337352 -2.2072895,0.01601326 8.7185884,-4.0017078 c -1.7454984,2.3720609 -1.7354408,5.6174519 -6e-7,8.035443 z"
         transform="matrix(-0.3,0,0,-0.3,0.69,0)" />
    </marker>
    <marker
       inkscape:stockid="Arrow2Sstart"
       orient="auto"
       refY="0.0"
       refX="0.0"
       id="Arrow2Sstart"
       style="overflow:visible"
       inkscape:isstock="true">
      <path
         id="path5342"
         style="fill-rule:evenodd;stroke-width:0.625;stroke-linejoin:round;stroke:#000000;stroke-opacity:1;fill:#000000;fill-opacity:1"
         d="M 8.7185878,4.0337352 L -2.2072895,0.016013256 L 8.7185884,-4.0017078 C 6.9730900,-1.6296469 6.9831476,1.6157441 8.7185878,4.0337352 z "
         transform="scale(0.3) translate(-2.3,0)" />
    </marker>
    <marker
       inkscape:stockid="Arrow2Mstart"
       orient="auto"
       refY="0.0"
       refX="0.0"
       id="Arrow2Mstart"
       style="overflow:visible"
       inkscape:isstock="true">
      <path
         id="path5336"
         style="fill-rule:evenodd;stroke-width:0.625;stroke-linejoin:round;stroke:#000000;stroke-opacity:1;fill:#000000;fill-opacity:1"
         d="M 8.7185878,4.0337352 L -2.2072895,0.016013256 L 8.7185884,-4.0017078 C 6.9730900,-1.6296469 6.9831476,1.6157441 8.7185878,4.0337352 z "
         transform="scale(0.6) translate(0,0)" />
    </marker>
    <marker
       inkscape:stockid="Arrow1Sstart"
       orient="auto"
       refY="0.0"
       refX="0.0"
       id="marker5638"
       style="overflow:visible"
       inkscape:isstock="true">
      <path
         id="path5636"
         d="M 0.0,0.0 L 5.0,-5.0 L -12.5,0.0 L 5.0,5.0 L 0.0,0.0 z "
         style="fill-rule:evenodd;stroke:#000000;stroke-width:1pt;stroke-opacity:1;fill:#000000;fill-opacity:1"
         transform="scale(0.2) translate(6,0)" />
    </marker>
    <marker
       inkscape:stockid="Arrow1Sstart"
       orient="auto"
       refY="0.0"
       refX="0.0"
       id="Arrow1Sstart"
       style="overflow:visible"
       inkscape:isstock="true">
      <path
         id="path5324"
         d="M 0.0,0.0 L 5.0,-5.0 L -12.5,0.0 L 5.0,5.0 L 0.0,0.0 z "
         style="fill-rule:evenodd;stroke:#000000;stroke-width:1pt;stroke-opacity:1;fill:#000000;fill-opacity:1"
         transform="scale(0.2) translate(6,0)" />
    </marker>
    <marker
       inkscape:isstock="true"
       style="overflow:visible"
       id="marker5262"
       refX="0"
       refY="0"
       orient="auto"
       inkscape:stockid="Arrow2Send">
      <path
         transform="matrix(-0.3,0,0,-0.3,0.69,0)"
         d="M 8.7185878,4.0337352 -2.2072895,0.01601326 8.7185884,-4.0017078 c -1.7454984,2.3720609 -1.7354408,5.6174519 -6e-7,8.035443 z"
         style="fill:#000000;fill-opacity:1;fill-rule:evenodd;stroke:#000000;stroke-width:0.625;stroke-linejoin:round;stroke-opacity:1"
         id="path5260"
         inkscape:connector-curvature="0" />
    </marker>
    <marker
       inkscape:stockid="Arrow2Send"
       orient="auto"
       refY="0"
       refX="0"
       id="marker4445"
       style="overflow:visible"
       inkscape:isstock="true">
      <path
         inkscape:connector-curvature="0"
         id="path4443"
         style="fill:#000000;fill-opacity:1;fill-rule:evenodd;stroke:#000000;stroke-width:0.625;stroke-linejoin:round;stroke-opacity:1"
         d="M 8.7185878,4.0337352 -2.2072895,0.01601326 8.7185884,-4.0017078 c -1.7454984,2.3720609 -1.7354408,5.6174519 -6e-7,8.035443 z"
         transform="matrix(-0.3,0,0,-0.3,0.69,0)" />
    </marker>
    <marker
       inkscape:stockid="Arrow2Send"
       orient="auto"
       refY="0"
       refX="0"
       id="marker4379"
       style="overflow:visible"
       inkscape:isstock="true">
      <path
         inkscape:connector-curvature="0"
         id="path4377"
         style="fill:#000000;fill-opacity:1;fill-rule:evenodd;stroke:#000000;stroke-width:0.625;stroke-linejoin:round;stroke-opacity:1"
         d="M 8.7185878,4.0337352 -2.2072895,0.01601326 8.7185884,-4.0017078 c -1.7454984,2.3720609 -1.7354408,5.6174519 -6e-7,8.035443 z"
         transform="matrix(-0.3,0,0,-0.3,0.69,0)" />
    </marker>
    <marker
       inkscape:stockid="Arrow2Send"
       orient="auto"
       refY="0"
       refX="0"
       id="marker3448"
       style="overflow:visible"
       inkscape:isstock="true"
       inkscape:collect="always">
      <path
         inkscape:connector-curvature="0"
         id="path3446"
         style="fill:#000000;fill-opacity:1;fill-rule:evenodd;stroke:#000000;stroke-width:0.625;stroke-linejoin:round;stroke-opacity:1"
         d="M 8.7185878,4.0337352 -2.2072895,0.01601326 8.7185884,-4.0017078 c -1.7454984,2.3720609 -1.7354408,5.6174519 -6e-7,8.035443 z"
         transform="matrix(-0.3,0,0,-0.3,0.69,0)" />
    </marker>
    <marker
       inkscape:isstock="true"
       style="overflow:visible"
       id="marker4936"
       refX="0"
       refY="0"
       orient="auto"
       inkscape:stockid="Arrow2Send"
       inkscape:collect="always">
      <path
         transform="matrix(-0.3,0,0,-0.3,0.69,0)"
         d="M 8.7185878,4.0337352 -2.2072895,0.01601326 8.7185884,-4.0017078 c -1.7454984,2.3720609 -1.7354408,5.6174519 -6e-7,8.035443 z"
         style="fill:#000000;fill-opacity:1;fill-rule:evenodd;stroke:#000000;stroke-width:0.625;stroke-linejoin:round;stroke-opacity:1"
         id="path4934"
         inkscape:connector-curvature="0" />
    </marker>
    <marker
       inkscape:isstock="true"
       style="overflow:visible"
       id="marker3761-3"
       refX="0"
       refY="0"
       orient="auto"
       inkscape:stockid="Arrow2Send">
      <path
         transform="matrix(-0.3,0,0,-0.3,0.69,0)"
         d="M 8.7185878,4.0337352 -2.2072895,0.01601326 8.7185884,-4.0017078 c -1.7454984,2.3720609 -1.7354408,5.6174519 -6e-7,8.035443 z"
         style="fill:#000000;fill-opacity:1;fill-rule:evenodd;stroke:#000000;stroke-width:0.625;stroke-linejoin:round;stroke-opacity:1"
         id="path3759-6"
         inkscape:connector-curvature="0" />
    </marker>
  </defs>
  <sodipodi:namedview
     id="base"
     pagecolor="#ffffff"
     bordercolor="#666666"
     borderopacity="1.0"
     inkscape:pageopacity="0.0"
     inkscape:pageshadow="2"
     inkscape:zoom="1.1935547"
     inkscape:cx="328.14309"
     inkscape:cy="468.64186"
     inkscape:document-units="mm"
     inkscape:current-layer="layer1"
     showgrid="false"
     inkscape:snap-global="false"
     inkscape:window-width="1920"
     inkscape:window-height="1052"
     inkscape:window-x="0"
     inkscape:window-y="28"
     inkscape:window-maximized="1" />
  <metadata
     id="metadata5">
    <rdf:RDF>
      <cc:Work
         rdf:about="">
        <dc:format>image/svg+xml</dc:format>
        <dc:type
           rdf:resource="http://purl.org/dc/dcmitype/StillImage" />
        <dc:title></dc:title>
      </cc:Work>
    </rdf:RDF>
  </metadata>
  <g
     inkscape:label="Layer 1"
     inkscape:groupmode="layer"
     id="layer1">
    <g
       id="g1334"
       transform="matrix(2.2537827,0,0,2.2537827,10.17609,-162.6641)">
      <g
         transform="matrix(0.352778,0,0,0.352778,-27.366621,93.965548)"
         ns1:version="0.9.1"
         ns1:texconverter="pdflatex"
         ns1:pdfconverter="pdf2svg"
         ns1:text="NN"
         ns1:preamble="/home/tim/.config/inkscape/extensions/textext/default_packages.tex"
         ns1:scale="1.0"
         ns1:alignment="middle center"
         ns1:jacobian_sqrt="0.352778"
         id="g29">
        <g
           id="surface1">
          <g
             style="fill:#000000;fill-opacity:1"
             id="g26">
            <path
               inkscape:connector-curvature="0"
               style="stroke:none;stroke-width:0"
               d="M 2.3125,-6.671875 C 2.21875,-6.796875 2.21875,-6.8125 2.03125,-6.8125 H 0.328125 V -6.5 H 0.625 c 0.140625,0 0.34375,0.015625 0.484375,0.015625 0.234375,0.03125 0.25,0.046875 0.25,0.234375 v 5.203125 c 0,0.265625 0,0.734375 -1.03125,0.734375 V 0 C 0.671875,-0.015625 1.171875,-0.03125 1.5,-0.03125 c 0.328125,0 0.8125,0.015625 1.15625,0.03125 v -0.3125 c -1.015625,0 -1.015625,-0.46875 -1.015625,-0.734375 v -5.1875 c 0.046875,0.046875 0.046875,0.0625 0.09375,0.125 L 5.796875,-0.125 C 5.890625,-0.015625 5.90625,0 5.96875,0 6.109375,0 6.109375,-0.0625 6.109375,-0.265625 v -5.5 c 0,-0.265625 0,-0.734375 1.03125,-0.734375 v -0.3125 c -0.359375,0.015625 -0.84375,0.03125 -1.171875,0.03125 -0.328125,0 -0.8125,-0.015625 -1.15625,-0.03125 V -6.5 c 1.015625,0 1.015625,0.46875 1.015625,0.734375 V -1.5 Z m 0,0"
               transform="translate(148.712,134.765)"
               id="path22" />
            <path
               inkscape:connector-curvature="0"
               style="stroke:none;stroke-width:0"
               d="M 2.3125,-6.671875 C 2.21875,-6.796875 2.21875,-6.8125 2.03125,-6.8125 H 0.328125 V -6.5 H 0.625 c 0.140625,0 0.34375,0.015625 0.484375,0.015625 0.234375,0.03125 0.25,0.046875 0.25,0.234375 v 5.203125 c 0,0.265625 0,0.734375 -1.03125,0.734375 V 0 C 0.671875,-0.015625 1.171875,-0.03125 1.5,-0.03125 c 0.328125,0 0.8125,0.015625 1.15625,0.03125 v -0.3125 c -1.015625,0 -1.015625,-0.46875 -1.015625,-0.734375 v -5.1875 c 0.046875,0.046875 0.046875,0.0625 0.09375,0.125 L 5.796875,-0.125 C 5.890625,-0.015625 5.90625,0 5.96875,0 6.109375,0 6.109375,-0.0625 6.109375,-0.265625 v -5.5 c 0,-0.265625 0,-0.734375 1.03125,-0.734375 v -0.3125 c -0.359375,0.015625 -0.84375,0.03125 -1.171875,0.03125 -0.328125,0 -0.8125,-0.015625 -1.15625,-0.03125 V -6.5 c 1.015625,0 1.015625,0.46875 1.015625,0.734375 V -1.5 Z m 0,0"
               transform="translate(156.18395,134.765)"
               id="path24" />
          </g>
        </g>
      </g>
      <g
         transform="matrix(1,0,0,0.99998565,0,0.00194403)"
         id="g121">
        <g
           id="g115">
          <path
             inkscape:connector-curvature="0"
             id="path92"
             d="m 23.8125,136.83947 v 6.70219 H 31.75 v -6.61459 h -7.917521"
             style="fill:none;stroke:#000000;stroke-width:0.26458332px;stroke-linecap:butt;stroke-linejoin:miter;stroke-opacity:1"
             sodipodi:nodetypes="ccccc" />
          <path
             inkscape:connector-curvature="0"
             id="path94"
             d="m 23.774806,136.93365 1.360611,-1.32949 h 7.9375 v 6.61458 l -1.292488,1.35335"
             style="fill:none;stroke:#000000;stroke-width:0.26458332px;stroke-linecap:butt;stroke-linejoin:miter;stroke-opacity:1"
             sodipodi:nodetypes="ccccc" />
        </g>
        <path
           style="fill:none;stroke:#000000;stroke-width:0.26458332px;stroke-linecap:butt;stroke-linejoin:miter;stroke-opacity:1"
           d="m 31.75,136.92707 1.322916,-1.32291"
           id="path96"
           inkscape:connector-curvature="0" />
      </g>
    </g>
    <path
       style="fill:none;stroke:#000000;stroke-width:0.54435682px;stroke-linecap:butt;stroke-linejoin:miter;stroke-opacity:1;marker-end:url(#marker4936)"
       d="m 47.162589,153.37974 h 14.90782"
       id="path4924"
       inkscape:connector-curvature="0" />
    <g
       id="g3905"
       ns1:jacobian_sqrt="0.458611"
       inkscapeversion="0.92.4"
       ns1:alignment="middle center"
       ns1:scale="1.3"
       ns1:preamble="/home/tim/.config/inkscape/extensions/textext/default_packages.tex"
       ns1:text="$\\mathcal D$"
       ns1:pdfconverter="pdf2svg"
       ns1:texconverter="pdflatex"
       ns1:version="0.9.1"
       transform="matrix(0.458611,0,0,0.458611,23.490828,90.154473)">
      <g
         id="g3903">
        <g
           id="g3901"
           style="fill:#000000;fill-opacity:1">
          <path
             inkscape:connector-curvature="0"
             id="path3899"
             transform="translate(148.712,134.765)"
             d="m 2.03125,0 c 2.328125,0 5.609375,-1.78125 5.609375,-4.5 0,-0.890625 -0.421875,-1.4375 -0.90625,-1.75 C 5.875,-6.8125 4.953125,-6.8125 4,-6.8125 c -0.84375,0 -1.4375,0 -2.28125,0.359375 -1.3125,0.59375 -1.515625,1.421875 -1.515625,1.5 0,0.0625 0.046875,0.078125 0.109375,0.078125 0.15625,0 0.390625,-0.140625 0.46875,-0.1875 0.203125,-0.140625 0.234375,-0.203125 0.296875,-0.390625 0.140625,-0.40625 0.421875,-0.75 1.671875,-0.8125 -0.15625,2.09375 -0.671875,4 -1.359375,5.734375 -0.375,0.125 -0.609375,0.359375 -0.609375,0.46875 C 0.78125,-0.015625 0.78125,0 1,0 Z m 0.046875,-0.546875 c 1.140625,-2.78125 1.34375,-4.515625 1.484375,-5.71875 0.671875,0 3.21875,0 3.21875,2.203125 0,1.953125 -1.75,3.515625 -4.15625,3.515625 z m 0,0"
             style="stroke:none;stroke-width:0" />
        </g>
      </g>
    </g>
    <path
       inkscape:connector-curvature="0"
       id="path3444"
       d="M 86.349874,153.37974 H 100.86582"
       style="fill:none;stroke:#000000;stroke-width:0.54435682px;stroke-linecap:butt;stroke-linejoin:miter;stroke-opacity:1;marker-end:url(#marker3448)"
       sodipodi:nodetypes="cc" />
    <g
       id="g6341"
       transform="translate(13.093039,-16.928907)">
      <g
         id="g3747"
         transform="matrix(2.2537827,0,0,2.2537504,54.973881,-172.77537)">
        <g
           id="g3743">
          <path
             sodipodi:nodetypes="ccccc"
             style="fill:none;stroke:#000000;stroke-width:0.26458332px;stroke-linecap:butt;stroke-linejoin:miter;stroke-opacity:1"
             d="m 23.8125,136.83947 v 6.70219 H 31.75 v -6.61459 h -7.917521"
             id="path3739"
             inkscape:connector-curvature="0" />
          <path
             sodipodi:nodetypes="ccccc"
             style="fill:none;stroke:#000000;stroke-width:0.26458332px;stroke-linecap:butt;stroke-linejoin:miter;stroke-opacity:1"
             d="m 23.774806,136.93365 1.360611,-1.32949 h 7.9375 v 6.61458 l -1.292488,1.35335"
             id="path3741"
             inkscape:connector-curvature="0" />
        </g>
        <path
           inkscape:connector-curvature="0"
           id="path3745"
           d="m 31.75,136.92707 1.322916,-1.32291"
           style="fill:none;stroke:#000000;stroke-width:0.26458332px;stroke-linecap:butt;stroke-linejoin:miter;stroke-opacity:1" />
      </g>
      <g
         transform="matrix(0.795085,0,0,0.795085,-6.5049204,38.998165)"
         ns1:version="0.9.1"
         ns1:texconverter="pdflatex"
         ns1:pdfconverter="pdf2svg"
         ns1:text="DB"
         ns1:preamble="/home/tim/.config/inkscape/extensions/textext/default_packages.tex"
         ns1:scale="2.25378269053"
         ns1:alignment="middle center"
         inkscapeversion="0.92.4"
         ns1:jacobian_sqrt="0.795085"
         id="g4316">
        <g
           id="g4314">
          <g
             style="fill:#000000;fill-opacity:1"
             id="g4312">
            <path
               style="stroke:none;stroke-width:0"
               d="M 0.34375,-6.8125 V -6.5 h 0.25 c 0.765625,0 0.78125,0.109375 0.78125,0.46875 v 5.25 c 0,0.359375 -0.015625,0.46875 -0.78125,0.46875 h -0.25 V 0 H 4 C 5.671875,0 7.046875,-1.46875 7.046875,-3.34375 7.046875,-5.25 5.703125,-6.8125 4,-6.8125 Z m 2.375,6.5 C 2.25,-0.3125 2.234375,-0.375 2.234375,-0.703125 V -6.09375 C 2.234375,-6.4375 2.25,-6.5 2.71875,-6.5 h 1 c 0.625,0 1.3125,0.21875 1.8125,0.921875 0.4375,0.59375 0.515625,1.453125 0.515625,2.234375 0,1.09375 -0.1875,1.703125 -0.546875,2.1875 -0.203125,0.265625 -0.765625,0.84375 -1.765625,0.84375 z m 0,0"
               transform="translate(148.712,134.765)"
               id="path4308"
               inkscape:connector-curvature="0" />
            <path
               style="stroke:none;stroke-width:0"
               d="m 2.21875,-3.65625 v -2.4375 C 2.21875,-6.4375 2.234375,-6.5 2.703125,-6.5 H 3.9375 c 0.96875,0 1.3125,0.84375 1.3125,1.375 0,0.640625 -0.484375,1.46875 -1.59375,1.46875 z M 4.5625,-3.5625 C 5.53125,-3.75 6.21875,-4.390625 6.21875,-5.125 6.21875,-5.984375 5.296875,-6.8125 4,-6.8125 H 0.359375 V -6.5 H 0.59375 c 0.765625,0 0.796875,0.109375 0.796875,0.46875 v 5.25 c 0,0.359375 -0.03125,0.46875 -0.796875,0.46875 H 0.359375 V 0 h 3.90625 c 1.328125,0 2.21875,-0.890625 2.21875,-1.828125 0,-0.859375 -0.8125,-1.609375 -1.921875,-1.734375 z m -0.609375,3.25 h -1.25 c -0.46875,0 -0.484375,-0.0625 -0.484375,-0.390625 v -2.71875 h 1.875 C 5.078125,-3.421875 5.5,-2.5 5.5,-1.828125 5.5,-1.125 4.96875,-0.3125 3.953125,-0.3125 Z m 0,0"
               transform="translate(156.32243,134.765)"
               id="path4310"
               inkscape:connector-curvature="0" />
          </g>
        </g>
      </g>
    </g>
    <path
       style="opacity:1;vector-effect:none;fill:none;fill-opacity:1;stroke:#000000;stroke-width:0.54435682px;stroke-linecap:butt;stroke-linejoin:miter;stroke-miterlimit:4;stroke-dasharray:none;stroke-dashoffset:0;stroke-opacity:1;marker-start:url(#Arrow2Sstart);marker-end:url(#marker5262)"
       d="m 119.36235,125.72207 h -17.34626 v 27.65767 h 14.90782"
       id="path4325"
       inkscape:connector-curvature="0"
       sodipodi:nodetypes="cccc" />
    <g
       id="g6065"
       ns1:jacobian_sqrt="0.458611"
       inkscapeversion="0.92.4"
       ns1:alignment="middle center"
       ns1:scale="1.3"
       ns1:preamble="/home/tim/.config/inkscape/extensions/textext/default_packages.tex"
       ns1:text="$\\mathcal S$"
       ns1:pdfconverter="pdf2svg"
       ns1:texconverter="pdflatex"
       ns1:version="0.9.1"
       transform="matrix(0.458611,0,0,0.458611,39.534331,90.154473)">
      <g
         id="g6063">
        <g
           id="g6061"
           style="fill:#000000;fill-opacity:1">
          <path
             id="path6059"
             transform="translate(148.712,134.765)"
             d="m 1.140625,-2.1875 c 0.125,-0.046875 0.46875,-0.265625 0.46875,-0.40625 0,-0.0625 -0.046875,-0.0625 -0.109375,-0.0625 -0.34375,0 -1.328125,0.421875 -1.328125,1.421875 0,0.71875 0.8125,1.453125 2.03125,1.453125 1.625,0 3.515625,-1.125 3.515625,-2.484375 0,-0.9375 -1,-1.40625 -1.8125,-1.765625 C 3.203125,-4.34375 2.75,-4.75 2.75,-5.328125 2.75,-5.53125 2.84375,-5.921875 3.15625,-6.1875 3.453125,-6.453125 4,-6.484375 4.140625,-6.484375 c 0.109375,0 0.53125,0.015625 0.96875,0.203125 0.1875,0.09375 0.4375,0.203125 0.4375,0.640625 0,0.140625 0,0.1875 -0.03125,0.296875 C 5.5,-5.3125 5.5,-5.28125 5.5,-5.25 c 0,0.078125 0.046875,0.078125 0.09375,0.078125 0.125,0 0.375,-0.109375 0.5625,-0.265625 0.140625,-0.109375 0.25,-0.234375 0.25,-0.625 0,-0.484375 -0.265625,-0.625 -0.53125,-0.75 -0.46875,-0.21875 -0.9375,-0.21875 -1.0625,-0.21875 -1.3125,0 -2.90625,1 -2.90625,2.140625 0,0.828125 0.859375,1.234375 1.34375,1.4375 0.703125,0.328125 1.609375,0.78125 1.609375,1.625 0,0.65625 -0.484375,1.5 -2,1.5 -1.015625,0 -1.828125,-0.65625 -1.828125,-1.34375 0,-0.171875 0.046875,-0.359375 0.109375,-0.515625 z m 0,0"
             style="stroke:none;stroke-width:0"
             inkscape:connector-curvature="0" />
        </g>
      </g>
    </g>
    <g
       id="g6173"
       ns1:jacobian_sqrt="0.458611"
       inkscapeversion="0.92.4"
       ns1:alignment="middle center"
       ns1:scale="1.3"
       ns1:preamble="/home/tim/.config/inkscape/extensions/textext/default_packages.tex"
       ns1:text="$\\mathcal L_1, \\mathcal L_2$"
       ns1:pdfconverter="pdf2svg"
       ns1:texconverter="pdflatex"
       ns1:version="0.9.1"
       transform="matrix(0.458611,0,0,0.458611,34.973445,61.627466)">
      <g
         id="g6171">
        <g
           id="g6153"
           style="fill:#000000;fill-opacity:1">
          <path
             id="path6151"
             transform="translate(148.712,134.765)"
             d="M 1.796875,-0.921875 C 2.328125,-1.765625 2.5,-2.40625 2.625,-2.9375 2.984375,-4.3125 3.359375,-5.5 3.984375,-6.1875 4.09375,-6.3125 4.171875,-6.40625 4.5,-6.40625 c 0.6875,0 0.703125,0.6875 0.703125,0.828125 0,0.171875 -0.046875,0.3125 -0.046875,0.359375 0,0.078125 0.0625,0.078125 0.0625,0.078125 0.171875,0 0.4375,-0.109375 0.6875,-0.296875 0.171875,-0.140625 0.265625,-0.234375 0.265625,-0.640625 0,-0.546875 -0.28125,-0.953125 -0.84375,-0.953125 -0.3125,0 -1.1875,0.078125 -2.171875,1.0625 -0.796875,0.828125 -1.265625,2.625 -1.453125,3.359375 -0.171875,0.703125 -0.25,1 -0.5625,1.609375 -0.0625,0.109375 -0.328125,0.546875 -0.46875,0.6875 C 0.40625,-0.0625 0.3125,0.109375 0.3125,0.15625 c 0,0.015625 0.015625,0.0625 0.09375,0.0625 0.03125,0 0.234375,-0.046875 0.5,-0.203125 0.171875,-0.109375 0.1875,-0.125 0.421875,-0.359375 0.5,0 0.84375,0.09375 1.46875,0.28125 0.515625,0.125 1.015625,0.28125 1.53125,0.28125 0.8125,0 1.625,-0.609375 1.9375,-1.046875 C 6.46875,-1.09375 6.53125,-1.34375 6.53125,-1.375 c 0,-0.078125 -0.0625,-0.078125 -0.078125,-0.078125 -0.15625,0 -0.390625,0.125 -0.5625,0.234375 C 5.625,-1.046875 5.609375,-0.984375 5.546875,-0.8125 5.5,-0.65625 5.4375,-0.578125 5.390625,-0.515625 5.3125,-0.40625 5.296875,-0.40625 5.15625,-0.40625 4.671875,-0.40625 4.171875,-0.546875 3.515625,-0.734375 3.234375,-0.8125 2.6875,-0.96875 2.1875,-0.96875 c -0.125,0 -0.265625,0.015625 -0.390625,0.046875 z m 0,0"
             style="stroke:none;stroke-width:0"
             inkscape:connector-curvature="0" />
        </g>
        <g
           id="g6157"
           style="fill:#000000;fill-opacity:1">
          <path
             id="path6155"
             transform="translate(155.584,136.259)"
             d="m 2.328125,-4.4375 c 0,-0.1875 0,-0.1875 -0.203125,-0.1875 -0.453125,0.4375 -1.078125,0.4375 -1.359375,0.4375 v 0.25 c 0.15625,0 0.625,0 1,-0.1875 v 3.546875 c 0,0.234375 0,0.328125 -0.6875,0.328125 H 0.8125 V 0 c 0.125,0 0.984375,-0.03125 1.234375,-0.03125 0.21875,0 1.09375,0.03125 1.25,0.03125 V -0.25 H 3.03125 c -0.703125,0 -0.703125,-0.09375 -0.703125,-0.328125 z m 0,0"
             style="stroke:none;stroke-width:0"
             inkscape:connector-curvature="0" />
        </g>
        <g
           id="g6161"
           style="fill:#000000;fill-opacity:1">
          <path
             id="path6159"
             transform="translate(160.053,134.765)"
             d="m 2.03125,-0.015625 c 0,-0.65625 -0.25,-1.046875 -0.640625,-1.046875 -0.328125,0 -0.53125,0.25 -0.53125,0.53125 C 0.859375,-0.265625 1.0625,0 1.390625,0 1.5,0 1.640625,-0.046875 1.734375,-0.125 1.765625,-0.15625 1.78125,-0.15625 1.78125,-0.15625 c 0.015625,0 0.015625,0 0.015625,0.140625 0,0.75 -0.34375,1.34375 -0.671875,1.671875 -0.109375,0.109375 -0.109375,0.125 -0.109375,0.15625 0,0.078125 0.046875,0.109375 0.09375,0.109375 0.109375,0 0.921875,-0.765625 0.921875,-1.9375 z m 0,0"
             style="stroke:none;stroke-width:0"
             inkscape:connector-curvature="0" />
        </g>
        <g
           id="g6165"
           style="fill:#000000;fill-opacity:1">
          <path
             id="path6163"
             transform="translate(164.481,134.765)"
             d="M 1.796875,-0.921875 C 2.328125,-1.765625 2.5,-2.40625 2.625,-2.9375 2.984375,-4.3125 3.359375,-5.5 3.984375,-6.1875 4.09375,-6.3125 4.171875,-6.40625 4.5,-6.40625 c 0.6875,0 0.703125,0.6875 0.703125,0.828125 0,0.171875 -0.046875,0.3125 -0.046875,0.359375 0,0.078125 0.0625,0.078125 0.0625,0.078125 0.171875,0 0.4375,-0.109375 0.6875,-0.296875 0.171875,-0.140625 0.265625,-0.234375 0.265625,-0.640625 0,-0.546875 -0.28125,-0.953125 -0.84375,-0.953125 -0.3125,0 -1.1875,0.078125 -2.171875,1.0625 -0.796875,0.828125 -1.265625,2.625 -1.453125,3.359375 -0.171875,0.703125 -0.25,1 -0.5625,1.609375 -0.0625,0.109375 -0.328125,0.546875 -0.46875,0.6875 C 0.40625,-0.0625 0.3125,0.109375 0.3125,0.15625 c 0,0.015625 0.015625,0.0625 0.09375,0.0625 0.03125,0 0.234375,-0.046875 0.5,-0.203125 0.171875,-0.109375 0.1875,-0.125 0.421875,-0.359375 0.5,0 0.84375,0.09375 1.46875,0.28125 0.515625,0.125 1.015625,0.28125 1.53125,0.28125 0.8125,0 1.625,-0.609375 1.9375,-1.046875 C 6.46875,-1.09375 6.53125,-1.34375 6.53125,-1.375 c 0,-0.078125 -0.0625,-0.078125 -0.078125,-0.078125 -0.15625,0 -0.390625,0.125 -0.5625,0.234375 C 5.625,-1.046875 5.609375,-0.984375 5.546875,-0.8125 5.5,-0.65625 5.4375,-0.578125 5.390625,-0.515625 5.3125,-0.40625 5.296875,-0.40625 5.15625,-0.40625 4.671875,-0.40625 4.171875,-0.546875 3.515625,-0.734375 3.234375,-0.8125 2.6875,-0.96875 2.1875,-0.96875 c -0.125,0 -0.265625,0.015625 -0.390625,0.046875 z m 0,0"
             style="stroke:none;stroke-width:0"
             inkscape:connector-curvature="0" />
        </g>
        <g
           id="g6169"
           style="fill:#000000;fill-opacity:1">
          <path
             id="path6167"
             transform="translate(171.352,136.259)"
             d="M 3.515625,-1.265625 H 3.28125 c -0.015625,0.15625 -0.09375,0.5625 -0.1875,0.625 C 3.046875,-0.59375 2.515625,-0.59375 2.40625,-0.59375 H 1.125 c 0.734375,-0.640625 0.984375,-0.84375 1.390625,-1.171875 0.515625,-0.40625 1,-0.84375 1,-1.5 0,-0.84375 -0.734375,-1.359375 -1.625,-1.359375 -0.859375,0 -1.453125,0.609375 -1.453125,1.25 0,0.34375 0.296875,0.390625 0.375,0.390625 0.15625,0 0.359375,-0.125 0.359375,-0.375 0,-0.125 -0.046875,-0.375 -0.40625,-0.375 C 0.984375,-4.21875 1.453125,-4.375 1.78125,-4.375 c 0.703125,0 1.0625,0.546875 1.0625,1.109375 0,0.609375 -0.4375,1.078125 -0.65625,1.328125 L 0.515625,-0.265625 C 0.4375,-0.203125 0.4375,-0.1875 0.4375,0 h 2.875 z m 0,0"
             style="stroke:none;stroke-width:0"
             inkscape:connector-curvature="0" />
        </g>
      </g>
    </g>
    <g
       id="g6329"
       transform="translate(10.031945,-16.928907)">
      <g
         id="g2088"
         ns1:jacobian_sqrt="0.352778"
         ns1:alignment="middle center"
         ns1:scale="1.0"
         ns1:preamble="/home/tim/.config/inkscape/extensions/textext/default_packages.tex"
         ns1:text="SASA"
         ns1:pdfconverter="pdf2svg"
         ns1:texconverter="pdflatex"
         ns1:version="0.9.1"
         transform="matrix(0.79508495,0,0,0.79508495,-7.3729912,67.744661)">
        <g
           id="g2086"
           transform="translate(-0.49282055,-1.5000004)">
          <g
             id="g2084"
             style="fill:#000000;fill-opacity:1">
            <path
               id="path2076"
               d="m 152.19637,130.24945 -1.28125,-0.29688 c -0.625,-0.15625 -1,-0.6875 -1,-1.26562 0,-0.70313 0.53125,-1.3125 1.3125,-1.3125 1.65625,0 1.875,1.64062 1.9375,2.07812 0.0156,0.0625 0.0156,0.125 0.125,0.125 0.125,0 0.125,-0.0469 0.125,-0.23437 v -2 c 0,-0.17188 0,-0.25 -0.10937,-0.25 -0.0625,0 -0.0781,0.0156 -0.14063,0.14062 l -0.35937,0.5625 c -0.29688,-0.29687 -0.70313,-0.70312 -1.59375,-0.70312 -1.10938,0 -1.9375,0.875 -1.9375,1.9375 0,0.82812 0.53125,1.5625 1.29687,1.82812 0.10938,0.0312 0.625,0.15625 1.32813,0.32813 0.26562,0.0625 0.5625,0.14062 0.84375,0.5 0.20312,0.26562 0.3125,0.59375 0.3125,0.92187 0,0.70313 -0.5,1.42188 -1.34375,1.42188 -0.28125,0 -1.04688,-0.0469 -1.57813,-0.53125 -0.57812,-0.54688 -0.60937,-1.17188 -0.60937,-1.53125 -0.0156,-0.10938 -0.0937,-0.10938 -0.125,-0.10938 -0.125,0 -0.125,0.0781 -0.125,0.25 v 2 c 0,0.17188 0,0.23438 0.10937,0.23438 0.0625,0 0.0781,-0.0156 0.14063,-0.125 0,-0.0156 0.0312,-0.0469 0.35937,-0.57813 0.3125,0.34375 0.95313,0.70313 1.84375,0.70313 1.15625,0 1.95313,-0.96875 1.95313,-2.07813 0,-0.98437 -0.65625,-1.8125 -1.48438,-2.01562 z m 0,0"
               style="stroke:none;stroke-width:0"
               inkscape:connector-curvature="0" />
            <path
               id="path2078"
               d="m 158.21597,127.35101 c -0.0469,-0.125 -0.0781,-0.20312 -0.23437,-0.20312 -0.15625,0 -0.1875,0.0625 -0.23438,0.20312 l -2.0625,5.95313 c -0.1875,0.51562 -0.57812,0.67187 -1.125,0.67187 v 0.3125 c 0.23438,-0.0156 0.67188,-0.0312 1.01563,-0.0312 0.3125,0 0.82812,0.0156 1.15625,0.0312 v -0.3125 c -0.5,0 -0.75,-0.25 -0.75,-0.5 0,-0.0312 0.0156,-0.14062 0.0156,-0.15625 l 0.46875,-1.29687 h 2.45313 l 0.53125,1.51562 c 0.0156,0.0469 0.0312,0.10938 0.0312,0.14063 0,0.29687 -0.5625,0.29687 -0.82813,0.29687 v 0.3125 c 0.35938,-0.0312 1.0625,-0.0312 1.4375,-0.0312 0.42188,0 0.89063,0.0156 1.29688,0.0312 v -0.3125 h -0.17188 c -0.59375,0 -0.73437,-0.0625 -0.84375,-0.39062 z m -0.53125,1.10938 1.125,3.25 h -2.23437 z m 0,0"
               style="stroke:none;stroke-width:0"
               inkscape:connector-curvature="0" />
            <path
               id="path2080"
               d="m 165.20355,130.24945 -1.28125,-0.29688 c -0.625,-0.15625 -1,-0.6875 -1,-1.26562 0,-0.70313 0.53125,-1.3125 1.3125,-1.3125 1.65625,0 1.875,1.64062 1.9375,2.07812 0.0156,0.0625 0.0156,0.125 0.125,0.125 0.125,0 0.125,-0.0469 0.125,-0.23437 v -2 c 0,-0.17188 0,-0.25 -0.10938,-0.25 -0.0625,0 -0.0781,0.0156 -0.14062,0.14062 l -0.35938,0.5625 c -0.29687,-0.29687 -0.70312,-0.70312 -1.59375,-0.70312 -1.10937,0 -1.9375,0.875 -1.9375,1.9375 0,0.82812 0.53125,1.5625 1.29688,1.82812 0.10937,0.0312 0.625,0.15625 1.32812,0.32813 0.26563,0.0625 0.5625,0.14062 0.84375,0.5 0.20313,0.26562 0.3125,0.59375 0.3125,0.92187 0,0.70313 -0.5,1.42188 -1.34375,1.42188 -0.28125,0 -1.04687,-0.0469 -1.57812,-0.53125 -0.57813,-0.54688 -0.60938,-1.17188 -0.60938,-1.53125 -0.0156,-0.10938 -0.0937,-0.10938 -0.125,-0.10938 -0.125,0 -0.125,0.0781 -0.125,0.25 v 2 c 0,0.17188 0,0.23438 0.10938,0.23438 0.0625,0 0.0781,-0.0156 0.14062,-0.125 0,-0.0156 0.0312,-0.0469 0.35938,-0.57813 0.3125,0.34375 0.95312,0.70313 1.84375,0.70313 1.15625,0 1.95312,-0.96875 1.95312,-2.07813 0,-0.98437 -0.65625,-1.8125 -1.48437,-2.01562 z m 0,0"
               style="stroke:none;stroke-width:0"
               inkscape:connector-curvature="0" />
            <path
               id="path2082"
               d="m 171.22314,127.35101 c -0.0469,-0.125 -0.0781,-0.20312 -0.23437,-0.20312 -0.15625,0 -0.1875,0.0625 -0.23438,0.20312 l -2.0625,5.95313 c -0.1875,0.51562 -0.57812,0.67187 -1.125,0.67187 v 0.3125 c 0.23438,-0.0156 0.67188,-0.0312 1.01563,-0.0312 0.3125,0 0.82812,0.0156 1.15625,0.0312 v -0.3125 c -0.5,0 -0.75,-0.25 -0.75,-0.5 0,-0.0312 0.0156,-0.14062 0.0156,-0.15625 l 0.46875,-1.29687 h 2.45313 l 0.53125,1.51562 c 0.0156,0.0469 0.0312,0.10938 0.0312,0.14063 0,0.29687 -0.5625,0.29687 -0.82813,0.29687 v 0.3125 c 0.35938,-0.0312 1.0625,-0.0312 1.4375,-0.0312 0.42188,0 0.89063,0.0156 1.29688,0.0312 v -0.3125 h -0.17188 c -0.59375,0 -0.73437,-0.0625 -0.84375,-0.39062 z m -0.53125,1.10938 1.125,3.25 h -2.23437 z m 0,0"
               style="stroke:none;stroke-width:0"
               inkscape:connector-curvature="0" />
          </g>
        </g>
      </g>
      <g
         transform="matrix(2.2537827,0,0,2.2537504,54.973881,-145.73081)"
         id="g6219">
        <g
           id="g6215">
          <path
             inkscape:connector-curvature="0"
             id="path6211"
             d="m 23.8125,136.83947 v 6.70219 h 10.653906 v -6.61459 H 23.832479"
             style="fill:none;stroke:#000000;stroke-width:0.26458332px;stroke-linecap:butt;stroke-linejoin:miter;stroke-opacity:1"
             sodipodi:nodetypes="ccccc" />
          <path
             inkscape:connector-curvature="0"
             id="path6213"
             d="m 23.774806,136.93365 1.360611,-1.32949 h 10.653906 v 6.61458 l -1.292488,1.35335"
             style="fill:none;stroke:#000000;stroke-width:0.26458332px;stroke-linecap:butt;stroke-linejoin:miter;stroke-opacity:1"
             sodipodi:nodetypes="ccccc" />
        </g>
        <path
           style="fill:none;stroke:#000000;stroke-width:0.26458332px;stroke-linecap:butt;stroke-linejoin:miter;stroke-opacity:1"
           d="m 34.466407,136.92707 1.322916,-1.32291"
           id="path6217"
           inkscape:connector-curvature="0" />
      </g>
    </g>
    <path
       style="fill:none;stroke:#000000;stroke-width:0.54435682px;stroke-linecap:butt;stroke-linejoin:miter;stroke-opacity:1;marker-end:url(#marker11323);font-variant-east_asian:normal;opacity:1;vector-effect:none;fill-opacity:1;stroke-miterlimit:4;stroke-dasharray:none;stroke-dashoffset:0"
       d="m 132.16773,134.74647 0,6.7058"
       id="path3005"
       inkscape:connector-curvature="0"
       sodipodi:nodetypes="cc" />
    <g
       id="g3368"
       ns1:jacobian_sqrt="0.202132"
       inkscapeversion="0.92.4"
       ns1:alignment="middle center"
       ns1:scale="0.572972719387"
       ns1:preamble="/home/tim/.config/inkscape/extensions/textext/default_packages.tex"
       ns1:text="$\\hat{S}_1, \\hat{S}_2$"
       ns1:pdfconverter="pdf2svg"
       ns1:texconverter="pdflatex"
       ns1:version="0.9.1"
       transform="matrix(0.45556162,0,0,0.45556162,66.211047,79.022286)">
      <g
         id="g3366">
        <g
           id="g3340"
           style="fill:#000000;fill-opacity:1">
          <path
             id="path3338"
             transform="translate(150.394,132.246)"
             d="M 2.5,-6.921875 1.15625,-5.5625 1.328125,-5.390625 2.5,-6.40625 3.640625,-5.390625 3.8125,-5.5625 Z m 0,0"
             style="stroke:none;stroke-width:0"
             inkscape:connector-curvature="0" />
        </g>
        <g
           id="g3344"
           style="fill:#000000;fill-opacity:1">
          <path
             id="path3342"
             transform="translate(148.712,134.765)"
             d="m 6.4375,-6.921875 c 0,-0.03125 -0.03125,-0.109375 -0.125,-0.109375 -0.046875,0 -0.046875,0.015625 -0.171875,0.15625 L 5.65625,-6.3125 c -0.25,-0.46875 -0.765625,-0.71875 -1.421875,-0.71875 -1.265625,0 -2.453125,1.15625 -2.453125,2.359375 0,0.796875 0.515625,1.265625 1.03125,1.40625 l 1.0625,0.28125 c 0.375,0.09375 0.921875,0.25 0.921875,1.0625 0,0.890625 -0.8125,1.828125 -1.796875,1.828125 -0.640625,0 -1.75,-0.21875 -1.75,-1.453125 0,-0.234375 0.0625,-0.484375 0.0625,-0.53125 0.015625,-0.046875 0.015625,-0.0625 0.015625,-0.078125 0,-0.09375 -0.0625,-0.109375 -0.109375,-0.109375 -0.046875,0 -0.078125,0.015625 -0.109375,0.046875 -0.03125,0.03125 -0.59375,2.3125 -0.59375,2.34375 0,0.046875 0.046875,0.09375 0.109375,0.09375 0.046875,0 0.0625,-0.015625 0.1875,-0.15625 L 1.296875,-0.5 c 0.421875,0.578125 1.109375,0.71875 1.6875,0.71875 1.359375,0 2.53125,-1.328125 2.53125,-2.5625 0,-0.6875 -0.34375,-1.03125 -0.484375,-1.171875 C 4.796875,-3.734375 4.640625,-3.78125 3.765625,-4 3.53125,-4.0625 3.1875,-4.171875 3.09375,-4.1875 2.828125,-4.28125 2.484375,-4.5625 2.484375,-5.09375 c 0,-0.8125 0.796875,-1.65625 1.75,-1.65625 0.8125,0 1.421875,0.4375 1.421875,1.546875 0,0.3125 -0.03125,0.5 -0.03125,0.5625 0,0 0,0.09375 0.109375,0.09375 0.109375,0 0.125,-0.03125 0.15625,-0.203125 z m 0,0"
             style="stroke:none;stroke-width:0"
             inkscape:connector-curvature="0" />
        </g>
        <g
           id="g3348"
           style="fill:#000000;fill-opacity:1">
          <path
             id="path3346"
             transform="translate(154.821,136.259)"
             d="m 2.328125,-4.4375 c 0,-0.1875 0,-0.1875 -0.203125,-0.1875 -0.453125,0.4375 -1.078125,0.4375 -1.359375,0.4375 v 0.25 c 0.15625,0 0.625,0 1,-0.1875 v 3.546875 c 0,0.234375 0,0.328125 -0.6875,0.328125 H 0.8125 V 0 c 0.125,0 0.984375,-0.03125 1.234375,-0.03125 0.21875,0 1.09375,0.03125 1.25,0.03125 V -0.25 H 3.03125 c -0.703125,0 -0.703125,-0.09375 -0.703125,-0.328125 z m 0,0"
             style="stroke:none;stroke-width:0"
             inkscape:connector-curvature="0" />
        </g>
        <g
           id="g3352"
           style="fill:#000000;fill-opacity:1">
          <path
             id="path3350"
             transform="translate(159.291,134.765)"
             d="m 2.03125,-0.015625 c 0,-0.65625 -0.25,-1.046875 -0.640625,-1.046875 -0.328125,0 -0.53125,0.25 -0.53125,0.53125 C 0.859375,-0.265625 1.0625,0 1.390625,0 1.5,0 1.640625,-0.046875 1.734375,-0.125 1.765625,-0.15625 1.78125,-0.15625 1.78125,-0.15625 c 0.015625,0 0.015625,0 0.015625,0.140625 0,0.75 -0.34375,1.34375 -0.671875,1.671875 -0.109375,0.109375 -0.109375,0.125 -0.109375,0.15625 0,0.078125 0.046875,0.109375 0.09375,0.109375 0.109375,0 0.921875,-0.765625 0.921875,-1.9375 z m 0,0"
             style="stroke:none;stroke-width:0"
             inkscape:connector-curvature="0" />
        </g>
        <g
           id="g3356"
           style="fill:#000000;fill-opacity:1">
          <path
             id="path3354"
             transform="translate(165.4,132.246)"
             d="M 2.5,-6.921875 1.15625,-5.5625 1.328125,-5.390625 2.5,-6.40625 3.640625,-5.390625 3.8125,-5.5625 Z m 0,0"
             style="stroke:none;stroke-width:0"
             inkscape:connector-curvature="0" />
        </g>
        <g
           id="g3360"
           style="fill:#000000;fill-opacity:1">
          <path
             id="path3358"
             transform="translate(163.719,134.765)"
             d="m 6.4375,-6.921875 c 0,-0.03125 -0.03125,-0.109375 -0.125,-0.109375 -0.046875,0 -0.046875,0.015625 -0.171875,0.15625 L 5.65625,-6.3125 c -0.25,-0.46875 -0.765625,-0.71875 -1.421875,-0.71875 -1.265625,0 -2.453125,1.15625 -2.453125,2.359375 0,0.796875 0.515625,1.265625 1.03125,1.40625 l 1.0625,0.28125 c 0.375,0.09375 0.921875,0.25 0.921875,1.0625 0,0.890625 -0.8125,1.828125 -1.796875,1.828125 -0.640625,0 -1.75,-0.21875 -1.75,-1.453125 0,-0.234375 0.0625,-0.484375 0.0625,-0.53125 0.015625,-0.046875 0.015625,-0.0625 0.015625,-0.078125 0,-0.09375 -0.0625,-0.109375 -0.109375,-0.109375 -0.046875,0 -0.078125,0.015625 -0.109375,0.046875 -0.03125,0.03125 -0.59375,2.3125 -0.59375,2.34375 0,0.046875 0.046875,0.09375 0.109375,0.09375 0.046875,0 0.0625,-0.015625 0.1875,-0.15625 L 1.296875,-0.5 c 0.421875,0.578125 1.109375,0.71875 1.6875,0.71875 1.359375,0 2.53125,-1.328125 2.53125,-2.5625 0,-0.6875 -0.34375,-1.03125 -0.484375,-1.171875 C 4.796875,-3.734375 4.640625,-3.78125 3.765625,-4 3.53125,-4.0625 3.1875,-4.171875 3.09375,-4.1875 2.828125,-4.28125 2.484375,-4.5625 2.484375,-5.09375 c 0,-0.8125 0.796875,-1.65625 1.75,-1.65625 0.8125,0 1.421875,0.4375 1.421875,1.546875 0,0.3125 -0.03125,0.5 -0.03125,0.5625 0,0 0,0.09375 0.109375,0.09375 0.109375,0 0.125,-0.03125 0.15625,-0.203125 z m 0,0"
             style="stroke:none;stroke-width:0"
             inkscape:connector-curvature="0" />
        </g>
        <g
           id="g3364"
           style="fill:#000000;fill-opacity:1">
          <path
             id="path3362"
             transform="translate(169.828,136.259)"
             d="M 3.515625,-1.265625 H 3.28125 c -0.015625,0.15625 -0.09375,0.5625 -0.1875,0.625 C 3.046875,-0.59375 2.515625,-0.59375 2.40625,-0.59375 H 1.125 c 0.734375,-0.640625 0.984375,-0.84375 1.390625,-1.171875 0.515625,-0.40625 1,-0.84375 1,-1.5 0,-0.84375 -0.734375,-1.359375 -1.625,-1.359375 -0.859375,0 -1.453125,0.609375 -1.453125,1.25 0,0.34375 0.296875,0.390625 0.375,0.390625 0.15625,0 0.359375,-0.125 0.359375,-0.375 0,-0.125 -0.046875,-0.375 -0.40625,-0.375 C 0.984375,-4.21875 1.453125,-4.375 1.78125,-4.375 c 0.703125,0 1.0625,0.546875 1.0625,1.109375 0,0.609375 -0.4375,1.078125 -0.65625,1.328125 L 0.515625,-0.265625 C 0.4375,-0.203125 0.4375,-0.1875 0.4375,0 h 2.875 z m 0,0"
             style="stroke:none;stroke-width:0"
             inkscape:connector-curvature="0" />
        </g>
      </g>
    </g>
    <g
       id="g8066"
       ns1:jacobian_sqrt="0.458611"
       inkscapeversion="0.92.4"
       ns1:alignment="middle center"
       ns1:scale="1.3"
       ns1:preamble="/home/tim/.config/inkscape/extensions/textext/default_packages.tex"
       ns1:text="$I$"
       ns1:pdfconverter="pdf2svg"
       ns1:texconverter="pdflatex"
       ns1:version="0.9.1"
       transform="matrix(0.458611,0,0,0.458611,-14.405515,90.154473)">
      <g
         id="g8064">
        <g
           id="g8062"
           style="fill:#000000;fill-opacity:1">
          <path
             id="path8060"
             transform="translate(148.712,134.765)"
             d="M 3.734375,-6.046875 C 3.8125,-6.40625 3.84375,-6.5 4.640625,-6.5 c 0.234375,0 0.3125,0 0.3125,-0.1875 0,-0.125 -0.109375,-0.125 -0.140625,-0.125 -0.296875,0 -1.03125,0.03125 -1.328125,0.03125 -0.296875,0 -1.015625,-0.03125 -1.328125,-0.03125 -0.0625,0 -0.1875,0 -0.1875,0.203125 C 1.96875,-6.5 2.046875,-6.5 2.25,-6.5 c 0.40625,0 0.6875,0 0.6875,0.1875 0,0.046875 0,0.078125 -0.03125,0.15625 l -1.34375,5.375 c -0.09375,0.375 -0.109375,0.46875 -0.90625,0.46875 -0.234375,0 -0.3125,0 -0.3125,0.203125 C 0.34375,0 0.453125,0 0.484375,0 0.78125,0 1.5,-0.03125 1.796875,-0.03125 2.09375,-0.03125 2.828125,0 3.125,0 c 0.078125,0 0.203125,0 0.203125,-0.1875 0,-0.125 -0.078125,-0.125 -0.296875,-0.125 -0.1875,0 -0.234375,0 -0.421875,-0.015625 -0.21875,-0.015625 -0.25,-0.0625 -0.25,-0.171875 0,-0.078125 0.015625,-0.15625 0.03125,-0.234375 z m 0,0"
             style="stroke:none;stroke-width:0"
             inkscape:connector-curvature="0" />
        </g>
      </g>
    </g>
    <path
       inkscape:connector-curvature="0"
       id="path8074"
       d="m 147.23931,153.37974 h 14.9078"
       style="fill:none;stroke:#000000;stroke-width:0.54435682px;stroke-linecap:butt;stroke-linejoin:miter;stroke-opacity:1;marker-end:url(#marker11378);font-variant-east_asian:normal;opacity:1;vector-effect:none;fill-opacity:1;stroke-miterlimit:4;stroke-dasharray:none;stroke-dashoffset:0" />
    <g
       id="g10509"
       ns1:jacobian_sqrt="0.458611"
       inkscapeversion="0.92.4"
       ns1:alignment="middle center"
       ns1:scale="1.3"
       ns1:preamble="/home/tim/.config/inkscape/extensions/textext/default_packages.tex"
       ns1:text="$I\'$"
       ns1:pdfconverter="pdf2svg"
       ns1:texconverter="pdflatex"
       ns1:version="0.9.1"
       transform="matrix(0.458611,0,0,0.458611,85.147016,90.313643)">
      <g
         id="g10507">
        <g
           id="g10501"
           style="fill:#000000;fill-opacity:1">
          <path
             id="path10499"
             transform="translate(148.712,134.765)"
             d="M 3.734375,-6.046875 C 3.8125,-6.40625 3.84375,-6.5 4.640625,-6.5 c 0.234375,0 0.3125,0 0.3125,-0.1875 0,-0.125 -0.109375,-0.125 -0.140625,-0.125 -0.296875,0 -1.03125,0.03125 -1.328125,0.03125 -0.296875,0 -1.015625,-0.03125 -1.328125,-0.03125 -0.0625,0 -0.1875,0 -0.1875,0.203125 C 1.96875,-6.5 2.046875,-6.5 2.25,-6.5 c 0.40625,0 0.6875,0 0.6875,0.1875 0,0.046875 0,0.078125 -0.03125,0.15625 l -1.34375,5.375 c -0.09375,0.375 -0.109375,0.46875 -0.90625,0.46875 -0.234375,0 -0.3125,0 -0.3125,0.203125 C 0.34375,0 0.453125,0 0.484375,0 0.78125,0 1.5,-0.03125 1.796875,-0.03125 2.09375,-0.03125 2.828125,0 3.125,0 c 0.078125,0 0.203125,0 0.203125,-0.1875 0,-0.125 -0.078125,-0.125 -0.296875,-0.125 -0.1875,0 -0.234375,0 -0.421875,-0.015625 -0.21875,-0.015625 -0.25,-0.0625 -0.25,-0.171875 0,-0.078125 0.015625,-0.15625 0.03125,-0.234375 z m 0,0"
             style="stroke:none;stroke-width:0"
             inkscape:connector-curvature="0" />
        </g>
        <g
           id="g10505"
           style="fill:#000000;fill-opacity:1">
          <path
             id="path10503"
             transform="translate(153.873,131.149)"
             d="m 2.015625,-3.296875 c 0.0625,-0.109375 0.0625,-0.171875 0.0625,-0.21875 0,-0.21875 -0.1875,-0.375 -0.40625,-0.375 -0.265625,0 -0.34375,0.21875 -0.375,0.328125 L 0.375,-0.546875 c -0.015625,0.015625 -0.046875,0.09375 -0.046875,0.109375 0,0.078125 0.21875,0.15625 0.28125,0.15625 0.046875,0 0.046875,-0.015625 0.09375,-0.125 z m 0,0"
             style="stroke:none;stroke-width:0"
             inkscape:connector-curvature="0" />
        </g>
      </g>
    </g>
    <g
       id="g1464"
       transform="matrix(0.64817707,0,0,0.93379294,40.662829,1.707162)">
      <g
         transform="matrix(0.49242585,0,0,0.49242585,23.284768,107.60447)"
         style="fill:#000000;fill-opacity:1"
         id="g1877">
        <path
           inkscape:connector-curvature="0"
           style="stroke:none;stroke-width:0"
           d="m 4.578125,-0.921875 c 0,-0.21875 0,-0.28125 -0.125,-0.28125 -0.609375,0 -1.609375,-0.078125 -2.5,-0.515625 C 0.875,-2.265625 0.46875,-2.890625 0.21875,-3.28125 0.1875,-3.328125 0.125,-3.328125 0,-3.328125 c -0.234375,0 -0.234375,0.015625 -0.234375,0.25 V -2.90625 C 1.109375,-0.46875 3.359375,0 4.375,0 4.578125,0 4.578125,-0.015625 4.578125,-0.28125 Z m 0,0"
           transform="translate(148.712,138.949)"
           id="path1875" />
      </g>
      <path
         inkscape:connector-curvature="0"
         style="fill:#000000;fill-opacity:1;fill-rule:nonzero;stroke:none;stroke-width:0"
         d="m 98.722099,176.02666 h 39.738381 v -0.5886 H 98.722099 Z m 0,0"
         id="path1879" />
      <g
         transform="matrix(0.49242585,0,0,0.49242585,23.284768,107.60447)"
         style="fill:#000000;fill-opacity:1"
         id="g1885">
        <path
           inkscape:connector-curvature="0"
           style="stroke:none;stroke-width:0"
           d="M 4.71875,1.71875 C 3.375,-0.734375 1.125,-1.203125 0.109375,-1.203125 c -0.203125,0 -0.203125,0.015625 -0.203125,0.28125 v 0.640625 c 0,0.234375 0,0.28125 0.140625,0.28125 0.59375,0.015625 1.59375,0.09375 2.484375,0.53125 1.078125,0.53125 1.484375,1.15625 1.734375,1.546875 0.03125,0.0625 0.09375,0.0625 0.21875,0.0625 C 4.71875,2.140625 4.71875,2.125 4.71875,1.875 Z m 0,0"
           transform="translate(233.893,138.949)"
           id="path1881" />
        <path
           inkscape:connector-curvature="0"
           style="stroke:none;stroke-width:0"
           d="m 4.578125,-0.921875 c 0,-0.265625 0,-0.28125 -0.203125,-0.28125 -1.015625,0 -3.265625,0.484375 -4.609375,2.921875 V 1.875 c 0,0.25 0,0.265625 0.234375,0.265625 0.1875,0 0.203125,-0.015625 0.25,-0.09375 C 1.0625,0.75 2.4375,0.046875 4.46875,0 4.578125,0 4.578125,-0.0625 4.578125,-0.28125 Z m 0,0"
           transform="translate(238.37617,138.949)"
           id="path1883" />
      </g>
      <path
         inkscape:connector-curvature="0"
         style="fill:#000000;fill-opacity:1;fill-rule:nonzero;stroke:none;stroke-width:0"
         d="m 142.875,176.02666 h 39.73646 v -0.5886 H 142.875 Z m 0,0"
         id="path1887" />
      <g
         transform="matrix(0.49242585,0,0,0.49242585,23.284768,107.60447)"
         style="fill:#000000;fill-opacity:1"
         id="g1891">
        <path
           inkscape:connector-curvature="0"
           style="stroke:none;stroke-width:0"
           d="m 4.71875,-3.078125 c 0,-0.234375 0,-0.25 -0.234375,-0.25 -0.1875,0 -0.203125,0.015625 -0.25,0.078125 -0.8125,1.3125 -2.1875,2.015625 -4.21875,2.046875 -0.109375,0 -0.109375,0.078125 -0.109375,0.28125 v 0.640625 c 0,0.265625 0,0.28125 0.203125,0.28125 C 1.125,0 3.375,-0.484375 4.71875,-2.90625 Z m 0,0"
           transform="translate(323.557,138.949)"
           id="path1889" />
      </g>
    </g>
    <g
       transform="matrix(0.64817707,0,0,0.93379294,-18.118098,1.707162)"
       id="g10579">
      <g
         id="g10563"
         style="fill:#000000;fill-opacity:1"
         transform="matrix(0.49242585,0,0,0.49242585,23.284768,107.60447)">
        <path
           id="path10561"
           transform="translate(148.712,138.949)"
           d="m 4.578125,-0.921875 c 0,-0.21875 0,-0.28125 -0.125,-0.28125 -0.609375,0 -1.609375,-0.078125 -2.5,-0.515625 C 0.875,-2.265625 0.46875,-2.890625 0.21875,-3.28125 0.1875,-3.328125 0.125,-3.328125 0,-3.328125 c -0.234375,0 -0.234375,0.015625 -0.234375,0.25 V -2.90625 C 1.109375,-0.46875 3.359375,0 4.375,0 4.578125,0 4.578125,-0.015625 4.578125,-0.28125 Z m 0,0"
           style="stroke:none;stroke-width:0"
           inkscape:connector-curvature="0" />
      </g>
      <path
         id="path10565"
         d="m 98.722099,176.02666 h 39.738381 v -0.5886 H 98.722099 Z m 0,0"
         style="fill:#000000;fill-opacity:1;fill-rule:nonzero;stroke:none;stroke-width:0"
         inkscape:connector-curvature="0" />
      <g
         id="g10571"
         style="fill:#000000;fill-opacity:1"
         transform="matrix(0.49242585,0,0,0.49242585,23.284768,107.60447)">
        <path
           id="path10567"
           transform="translate(233.893,138.949)"
           d="M 4.71875,1.71875 C 3.375,-0.734375 1.125,-1.203125 0.109375,-1.203125 c -0.203125,0 -0.203125,0.015625 -0.203125,0.28125 v 0.640625 c 0,0.234375 0,0.28125 0.140625,0.28125 0.59375,0.015625 1.59375,0.09375 2.484375,0.53125 1.078125,0.53125 1.484375,1.15625 1.734375,1.546875 0.03125,0.0625 0.09375,0.0625 0.21875,0.0625 C 4.71875,2.140625 4.71875,2.125 4.71875,1.875 Z m 0,0"
           style="stroke:none;stroke-width:0"
           inkscape:connector-curvature="0" />
        <path
           id="path10569"
           transform="translate(238.37617,138.949)"
           d="m 4.578125,-0.921875 c 0,-0.265625 0,-0.28125 -0.203125,-0.28125 -1.015625,0 -3.265625,0.484375 -4.609375,2.921875 V 1.875 c 0,0.25 0,0.265625 0.234375,0.265625 0.1875,0 0.203125,-0.015625 0.25,-0.09375 C 1.0625,0.75 2.4375,0.046875 4.46875,0 4.578125,0 4.578125,-0.0625 4.578125,-0.28125 Z m 0,0"
           style="stroke:none;stroke-width:0"
           inkscape:connector-curvature="0" />
      </g>
      <path
         id="path10573"
         d="m 142.875,176.02666 h 39.73646 v -0.5886 H 142.875 Z m 0,0"
         style="fill:#000000;fill-opacity:1;fill-rule:nonzero;stroke:none;stroke-width:0"
         inkscape:connector-curvature="0" />
      <g
         id="g10577"
         style="fill:#000000;fill-opacity:1"
         transform="matrix(0.49242585,0,0,0.49242585,23.284768,107.60447)">
        <path
           id="path10575"
           transform="translate(323.557,138.949)"
           d="m 4.71875,-3.078125 c 0,-0.234375 0,-0.25 -0.234375,-0.25 -0.1875,0 -0.203125,0.015625 -0.25,0.078125 -0.8125,1.3125 -2.1875,2.015625 -4.21875,2.046875 -0.109375,0 -0.109375,0.078125 -0.109375,0.28125 v 0.640625 c 0,0.265625 0,0.28125 0.203125,0.28125 C 1.125,0 3.375,-0.484375 4.71875,-2.90625 Z m 0,0"
           style="stroke:none;stroke-width:0"
           inkscape:connector-curvature="0" />
      </g>
    </g>
    <g
       id="g10825"
       ns1:jacobian_sqrt="0.482979"
       inkscapeversion="0.92.4"
       ns1:alignment="middle center"
       ns1:scale="1.36907301475"
       ns1:preamble="/home/tim/.config/inkscape/extensions/textext/default_packages.tex"
       ns1:text="inverse model"
       ns1:pdfconverter="pdf2svg"
       ns1:texconverter="pdflatex"
       ns1:version="0.9.1"
       transform="matrix(0.482979,0,0,0.482979,-13.598441,107.21667)">
      <g
         id="g10823">
        <g
           id="g10793"
           style="fill:#000000;fill-opacity:1">
          <path
             id="path10789"
             transform="translate(148.712,134.765)"
             d="M 1.765625,-4.40625 0.375,-4.296875 v 0.3125 c 0.640625,0 0.734375,0.0625 0.734375,0.546875 V -0.75 c 0,0.4375 -0.109375,0.4375 -0.78125,0.4375 V 0 C 0.640625,-0.015625 1.1875,-0.03125 1.421875,-0.03125 1.78125,-0.03125 2.125,-0.015625 2.46875,0 v -0.3125 c -0.671875,0 -0.703125,-0.046875 -0.703125,-0.4375 z m 0.03125,-1.734375 c 0,-0.3125 -0.234375,-0.53125 -0.515625,-0.53125 -0.3125,0 -0.53125,0.265625 -0.53125,0.53125 0,0.265625 0.21875,0.53125 0.53125,0.53125 0.28125,0 0.515625,-0.21875 0.515625,-0.53125 z m 0,0"
             style="stroke:none;stroke-width:0"
             inkscape:connector-curvature="0" />
          <path
             id="path10791"
             transform="translate(151.47961,134.765)"
             d="M 1.09375,-3.421875 V -0.75 c 0,0.4375 -0.109375,0.4375 -0.78125,0.4375 V 0 c 0.359375,-0.015625 0.859375,-0.03125 1.140625,-0.03125 0.25,0 0.765625,0.015625 1.109375,0.03125 v -0.3125 c -0.671875,0 -0.78125,0 -0.78125,-0.4375 V -2.59375 C 1.78125,-3.625 2.5,-4.1875 3.125,-4.1875 c 0.640625,0 0.75,0.53125 0.75,1.109375 V -0.75 c 0,0.4375 -0.109375,0.4375 -0.78125,0.4375 V 0 c 0.34375,-0.015625 0.859375,-0.03125 1.125,-0.03125 0.25,0 0.78125,0.015625 1.109375,0.03125 v -0.3125 c -0.515625,0 -0.765625,0 -0.765625,-0.296875 v -1.90625 c 0,-0.859375 0,-1.15625 -0.3125,-1.515625 -0.140625,-0.171875 -0.46875,-0.375 -1.046875,-0.375 C 2.46875,-4.40625 2,-3.984375 1.71875,-3.359375 V -4.40625 L 0.3125,-4.296875 v 0.3125 c 0.703125,0 0.78125,0.0625 0.78125,0.5625 z m 0,0"
             style="stroke:none;stroke-width:0"
             inkscape:connector-curvature="0" />
        </g>
        <g
           id="g10797"
           style="fill:#000000;fill-opacity:1">
          <path
             id="path10795"
             transform="translate(156.73588,134.765)"
             d="M 4.140625,-3.3125 C 4.234375,-3.546875 4.40625,-3.984375 5.0625,-3.984375 v -0.3125 c -0.234375,0.015625 -0.515625,0.03125 -0.75,0.03125 -0.234375,0 -0.6875,-0.015625 -0.859375,-0.03125 v 0.3125 c 0.359375,0 0.46875,0.234375 0.46875,0.421875 0,0.09375 -0.015625,0.140625 -0.046875,0.25 L 2.84375,-0.78125 1.734375,-3.5625 c -0.0625,-0.125 -0.0625,-0.140625 -0.0625,-0.171875 0,-0.25 0.390625,-0.25 0.578125,-0.25 v -0.3125 c -0.3125,0.015625 -0.859375,0.03125 -1.09375,0.03125 -0.265625,0 -0.671875,-0.015625 -0.96875,-0.03125 v 0.3125 c 0.625,0 0.671875,0.0625 0.796875,0.359375 l 1.4375,3.546875 C 2.484375,0.0625 2.5,0.109375 2.625,0.109375 c 0.140625,0 0.171875,-0.09375 0.21875,-0.1875 z m 0,0"
             style="stroke:none;stroke-width:0"
             inkscape:connector-curvature="0" />
        </g>
        <g
           id="g10807"
           style="fill:#000000;fill-opacity:1">
          <path
             id="path10799"
             transform="translate(161.71519,134.765)"
             d="M 1.109375,-2.515625 C 1.171875,-4 2.015625,-4.25 2.359375,-4.25 c 1.015625,0 1.125,1.34375 1.125,1.734375 z m 0,0.21875 h 2.78125 c 0.21875,0 0.25,0 0.25,-0.21875 0,-0.984375 -0.546875,-1.953125 -1.78125,-1.953125 -1.15625,0 -2.078125,1.03125 -2.078125,2.28125 0,1.328125 1.046875,2.296875 2.1875,2.296875 C 3.6875,0.109375 4.140625,-1 4.140625,-1.1875 4.140625,-1.28125 4.0625,-1.3125 4,-1.3125 c -0.078125,0 -0.109375,0.0625 -0.125,0.140625 -0.34375,1.03125 -1.25,1.03125 -1.34375,1.03125 -0.5,0 -0.890625,-0.296875 -1.125,-0.671875 -0.296875,-0.46875 -0.296875,-1.125 -0.296875,-1.484375 z m 0,0"
             style="stroke:none;stroke-width:0"
             inkscape:connector-curvature="0" />
          <path
             id="path10801"
             transform="translate(166.14256,134.765)"
             d="M 1.671875,-3.3125 V -4.40625 L 0.28125,-4.296875 v 0.3125 c 0.703125,0 0.78125,0.0625 0.78125,0.5625 V -0.75 c 0,0.4375 -0.109375,0.4375 -0.78125,0.4375 V 0 c 0.390625,-0.015625 0.859375,-0.03125 1.140625,-0.03125 0.390625,0 0.859375,0 1.265625,0.03125 V -0.3125 H 2.46875 c -0.734375,0 -0.75,-0.109375 -0.75,-0.46875 V -2.3125 c 0,-0.984375 0.421875,-1.875 1.171875,-1.875 0.0625,0 0.09375,0 0.109375,0.015625 -0.03125,0 -0.234375,0.125 -0.234375,0.390625 0,0.265625 0.21875,0.421875 0.4375,0.421875 0.171875,0 0.421875,-0.125 0.421875,-0.4375 0,-0.3125 -0.3125,-0.609375 -0.734375,-0.609375 -0.734375,0 -1.09375,0.671875 -1.21875,1.09375 z m 0,0"
             style="stroke:none;stroke-width:0"
             inkscape:connector-curvature="0" />
          <path
             id="path10803"
             transform="translate(170.04491,134.765)"
             d="m 2.078125,-1.9375 c 0.21875,0.046875 1.03125,0.203125 1.03125,0.921875 0,0.5 -0.34375,0.90625 -1.125,0.90625 -0.84375,0 -1.203125,-0.5625 -1.390625,-1.421875 C 0.5625,-1.65625 0.5625,-1.6875 0.453125,-1.6875 c -0.125,0 -0.125,0.0625 -0.125,0.234375 V -0.125 c 0,0.171875 0,0.234375 0.109375,0.234375 0.046875,0 0.0625,-0.015625 0.25,-0.203125 0.015625,-0.015625 0.015625,-0.03125 0.203125,-0.21875 0.4375,0.40625 0.890625,0.421875 1.09375,0.421875 1.140625,0 1.609375,-0.671875 1.609375,-1.390625 0,-0.515625 -0.296875,-0.828125 -0.421875,-0.9375 C 2.84375,-2.546875 2.453125,-2.625 2.03125,-2.703125 1.46875,-2.8125 0.8125,-2.9375 0.8125,-3.515625 c 0,-0.359375 0.25,-0.765625 1.109375,-0.765625 1.09375,0 1.15625,0.90625 1.171875,1.203125 0,0.09375 0.09375,0.09375 0.109375,0.09375 0.140625,0 0.140625,-0.046875 0.140625,-0.234375 v -1.015625 c 0,-0.15625 0,-0.234375 -0.109375,-0.234375 -0.046875,0 -0.078125,0 -0.203125,0.125 -0.03125,0.03125 -0.125,0.125 -0.171875,0.15625 -0.375,-0.28125 -0.78125,-0.28125 -0.9375,-0.28125 -1.21875,0 -1.59375,0.671875 -1.59375,1.234375 0,0.34375 0.15625,0.625 0.421875,0.84375 0.328125,0.25 0.609375,0.3125 1.328125,0.453125 z m 0,0"
             style="stroke:none;stroke-width:0"
             inkscape:connector-curvature="0" />
          <path
             id="path10805"
             transform="translate(173.97416,134.765)"
             d="M 1.109375,-2.515625 C 1.171875,-4 2.015625,-4.25 2.359375,-4.25 c 1.015625,0 1.125,1.34375 1.125,1.734375 z m 0,0.21875 h 2.78125 c 0.21875,0 0.25,0 0.25,-0.21875 0,-0.984375 -0.546875,-1.953125 -1.78125,-1.953125 -1.15625,0 -2.078125,1.03125 -2.078125,2.28125 0,1.328125 1.046875,2.296875 2.1875,2.296875 C 3.6875,0.109375 4.140625,-1 4.140625,-1.1875 4.140625,-1.28125 4.0625,-1.3125 4,-1.3125 c -0.078125,0 -0.109375,0.0625 -0.125,0.140625 -0.34375,1.03125 -1.25,1.03125 -1.34375,1.03125 -0.5,0 -0.890625,-0.296875 -1.125,-0.671875 -0.296875,-0.46875 -0.296875,-1.125 -0.296875,-1.484375 z m 0,0"
             style="stroke:none;stroke-width:0"
             inkscape:connector-curvature="0" />
        </g>
        <g
           id="g10813"
           style="fill:#000000;fill-opacity:1">
          <path
             id="path10809"
             transform="translate(181.72905,134.765)"
             d="M 1.09375,-3.421875 V -0.75 c 0,0.4375 -0.109375,0.4375 -0.78125,0.4375 V 0 c 0.359375,-0.015625 0.859375,-0.03125 1.140625,-0.03125 0.25,0 0.765625,0.015625 1.109375,0.03125 v -0.3125 c -0.671875,0 -0.78125,0 -0.78125,-0.4375 V -2.59375 C 1.78125,-3.625 2.5,-4.1875 3.125,-4.1875 c 0.640625,0 0.75,0.53125 0.75,1.109375 V -0.75 c 0,0.4375 -0.109375,0.4375 -0.78125,0.4375 V 0 c 0.34375,-0.015625 0.859375,-0.03125 1.125,-0.03125 0.25,0 0.78125,0.015625 1.109375,0.03125 v -0.3125 c -0.65625,0 -0.765625,0 -0.765625,-0.4375 v -1.84375 c 0,-1.03125 0.703125,-1.59375 1.34375,-1.59375 0.625,0 0.734375,0.53125 0.734375,1.109375 V -0.75 c 0,0.4375 -0.109375,0.4375 -0.78125,0.4375 V 0 c 0.34375,-0.015625 0.859375,-0.03125 1.125,-0.03125 0.265625,0 0.78125,0.015625 1.125,0.03125 v -0.3125 c -0.515625,0 -0.765625,0 -0.78125,-0.296875 v -1.90625 c 0,-0.859375 0,-1.15625 -0.3125,-1.515625 -0.140625,-0.171875 -0.46875,-0.375 -1.046875,-0.375 -0.828125,0 -1.28125,0.59375 -1.4375,0.984375 C 4.390625,-4.296875 3.65625,-4.40625 3.203125,-4.40625 2.46875,-4.40625 2,-3.984375 1.71875,-3.359375 V -4.40625 L 0.3125,-4.296875 v 0.3125 c 0.703125,0 0.78125,0.0625 0.78125,0.5625 z m 0,0"
             style="stroke:none;stroke-width:0"
             inkscape:connector-curvature="0" />
          <path
             id="path10811"
             transform="translate(190.03089,134.765)"
             d="M 4.6875,-2.140625 C 4.6875,-3.40625 3.703125,-4.46875 2.5,-4.46875 c -1.25,0 -2.21875,1.09375 -2.21875,2.328125 0,1.296875 1.03125,2.25 2.203125,2.25 1.203125,0 2.203125,-0.984375 2.203125,-2.25 z m -2.1875,2 c -0.4375,0 -0.875,-0.203125 -1.140625,-0.671875 -0.25,-0.4375 -0.25,-1.046875 -0.25,-1.40625 0,-0.390625 0,-0.921875 0.234375,-1.359375 C 1.609375,-4.03125 2.078125,-4.25 2.484375,-4.25 c 0.4375,0 0.859375,0.21875 1.125,0.65625 0.265625,0.421875 0.265625,1 0.265625,1.375 0,0.359375 0,0.90625 -0.21875,1.34375 C 3.421875,-0.421875 2.984375,-0.140625 2.5,-0.140625 Z m 0,0"
             style="stroke:none;stroke-width:0"
             inkscape:connector-curvature="0" />
        </g>
        <g
           id="g10821"
           style="fill:#000000;fill-opacity:1">
          <path
             id="path10815"
             transform="translate(195.29114,134.765)"
             d="m 3.78125,-0.546875 v 0.65625 L 5.25,0 v -0.3125 c -0.6875,0 -0.78125,-0.0625 -0.78125,-0.5625 V -6.921875 L 3.046875,-6.8125 V -6.5 c 0.6875,0 0.765625,0.0625 0.765625,0.5625 v 2.15625 c -0.28125,-0.359375 -0.71875,-0.625 -1.25,-0.625 -1.171875,0 -2.21875,0.984375 -2.21875,2.265625 0,1.265625 0.96875,2.25 2.109375,2.25 0.640625,0 1.078125,-0.34375 1.328125,-0.65625 z m 0,-2.671875 v 2.046875 c 0,0.171875 0,0.1875 -0.109375,0.359375 C 3.375,-0.328125 2.9375,-0.109375 2.5,-0.109375 2.046875,-0.109375 1.6875,-0.375 1.453125,-0.75 1.203125,-1.15625 1.171875,-1.71875 1.171875,-2.140625 1.171875,-2.5 1.1875,-3.09375 1.46875,-3.546875 1.6875,-3.859375 2.0625,-4.1875 2.609375,-4.1875 c 0.34375,0 0.765625,0.15625 1.0625,0.59375 0.109375,0.171875 0.109375,0.1875 0.109375,0.375 z m 0,0"
             style="stroke:none;stroke-width:0"
             inkscape:connector-curvature="0" />
          <path
             id="path10817"
             transform="translate(200.82636,134.765)"
             d="M 1.109375,-2.515625 C 1.171875,-4 2.015625,-4.25 2.359375,-4.25 c 1.015625,0 1.125,1.34375 1.125,1.734375 z m 0,0.21875 h 2.78125 c 0.21875,0 0.25,0 0.25,-0.21875 0,-0.984375 -0.546875,-1.953125 -1.78125,-1.953125 -1.15625,0 -2.078125,1.03125 -2.078125,2.28125 0,1.328125 1.046875,2.296875 2.1875,2.296875 C 3.6875,0.109375 4.140625,-1 4.140625,-1.1875 4.140625,-1.28125 4.0625,-1.3125 4,-1.3125 c -0.078125,0 -0.109375,0.0625 -0.125,0.140625 -0.34375,1.03125 -1.25,1.03125 -1.34375,1.03125 -0.5,0 -0.890625,-0.296875 -1.125,-0.671875 -0.296875,-0.46875 -0.296875,-1.125 -0.296875,-1.484375 z m 0,0"
             style="stroke:none;stroke-width:0"
             inkscape:connector-curvature="0" />
          <path
             id="path10819"
             transform="translate(205.25374,134.765)"
             d="M 1.765625,-6.921875 0.328125,-6.8125 V -6.5 c 0.703125,0 0.78125,0.0625 0.78125,0.5625 V -0.75 c 0,0.4375 -0.109375,0.4375 -0.78125,0.4375 V 0 C 0.65625,-0.015625 1.1875,-0.03125 1.4375,-0.03125 c 0.25,0 0.734375,0.015625 1.109375,0.03125 v -0.3125 c -0.671875,0 -0.78125,0 -0.78125,-0.4375 z m 0,0"
             style="stroke:none;stroke-width:0"
             inkscape:connector-curvature="0" />
        </g>
      </g>
    </g>
    <g
       id="g11074"
       ns1:jacobian_sqrt="0.482979"
       inkscapeversion="0.92.4"
       ns1:alignment="middle center"
       ns1:scale="1.36907301475"
       ns1:preamble="/home/tim/.config/inkscape/extensions/textext/default_packages.tex"
       ns1:text="forward model"
       ns1:pdfconverter="pdf2svg"
       ns1:texconverter="pdflatex"
       ns1:version="0.9.1"
       transform="matrix(0.482979,0.000000,0.000000,0.482979,44.008411,107.243083)">
      <g
         id="g11072">
        <g
           id="g11046"
           style="fill:rgb(0%,0%,0%);fill-opacity:1;">
          <path
             id="path11038"
             transform="translate(148.712,134.765)"
             d="M 1.75 -4.296875 L 1.75 -5.453125 C 1.75 -6.328125 2.21875 -6.8125 2.65625 -6.8125 C 2.6875 -6.8125 2.84375 -6.8125 2.984375 -6.734375 C 2.875 -6.703125 2.6875 -6.5625 2.6875 -6.3125 C 2.6875 -6.09375 2.84375 -5.890625 3.125 -5.890625 C 3.40625 -5.890625 3.5625 -6.09375 3.5625 -6.328125 C 3.5625 -6.703125 3.1875 -7.03125 2.65625 -7.03125 C 1.96875 -7.03125 1.109375 -6.5 1.109375 -5.4375 L 1.109375 -4.296875 L 0.328125 -4.296875 L 0.328125 -3.984375 L 1.109375 -3.984375 L 1.109375 -0.75 C 1.109375 -0.3125 1 -0.3125 0.34375 -0.3125 L 0.34375 0 C 0.734375 -0.015625 1.203125 -0.03125 1.46875 -0.03125 C 1.875 -0.03125 2.34375 -0.03125 2.734375 0 L 2.734375 -0.3125 L 2.53125 -0.3125 C 1.796875 -0.3125 1.78125 -0.421875 1.78125 -0.78125 L 1.78125 -3.984375 L 2.90625 -3.984375 L 2.90625 -4.296875 Z M 1.75 -4.296875 "
             style="stroke:none;stroke-width:0" />
          <path
             id="path11040"
             transform="translate(151.756571,134.765)"
             d="M 4.6875 -2.140625 C 4.6875 -3.40625 3.703125 -4.46875 2.5 -4.46875 C 1.25 -4.46875 0.28125 -3.375 0.28125 -2.140625 C 0.28125 -0.84375 1.3125 0.109375 2.484375 0.109375 C 3.6875 0.109375 4.6875 -0.875 4.6875 -2.140625 Z M 2.5 -0.140625 C 2.0625 -0.140625 1.625 -0.34375 1.359375 -0.8125 C 1.109375 -1.25 1.109375 -1.859375 1.109375 -2.21875 C 1.109375 -2.609375 1.109375 -3.140625 1.34375 -3.578125 C 1.609375 -4.03125 2.078125 -4.25 2.484375 -4.25 C 2.921875 -4.25 3.34375 -4.03125 3.609375 -3.59375 C 3.875 -3.171875 3.875 -2.59375 3.875 -2.21875 C 3.875 -1.859375 3.875 -1.3125 3.65625 -0.875 C 3.421875 -0.421875 2.984375 -0.140625 2.5 -0.140625 Z M 2.5 -0.140625 "
             style="stroke:none;stroke-width:0" />
          <path
             id="path11042"
             transform="translate(156.737871,134.765)"
             d="M 1.671875 -3.3125 L 1.671875 -4.40625 L 0.28125 -4.296875 L 0.28125 -3.984375 C 0.984375 -3.984375 1.0625 -3.921875 1.0625 -3.421875 L 1.0625 -0.75 C 1.0625 -0.3125 0.953125 -0.3125 0.28125 -0.3125 L 0.28125 0 C 0.671875 -0.015625 1.140625 -0.03125 1.421875 -0.03125 C 1.8125 -0.03125 2.28125 -0.03125 2.6875 0 L 2.6875 -0.3125 L 2.46875 -0.3125 C 1.734375 -0.3125 1.71875 -0.421875 1.71875 -0.78125 L 1.71875 -2.3125 C 1.71875 -3.296875 2.140625 -4.1875 2.890625 -4.1875 C 2.953125 -4.1875 2.984375 -4.1875 3 -4.171875 C 2.96875 -4.171875 2.765625 -4.046875 2.765625 -3.78125 C 2.765625 -3.515625 2.984375 -3.359375 3.203125 -3.359375 C 3.375 -3.359375 3.625 -3.484375 3.625 -3.796875 C 3.625 -4.109375 3.3125 -4.40625 2.890625 -4.40625 C 2.15625 -4.40625 1.796875 -3.734375 1.671875 -3.3125 Z M 1.671875 -3.3125 "
             style="stroke:none;stroke-width:0" />
          <path
             id="path11044"
             transform="translate(160.640221,134.765)"
             d="M 6.171875 -3.34375 C 6.34375 -3.84375 6.65625 -3.984375 7.015625 -3.984375 L 7.015625 -4.296875 C 6.78125 -4.28125 6.5 -4.265625 6.28125 -4.265625 C 5.984375 -4.265625 5.546875 -4.28125 5.359375 -4.296875 L 5.359375 -3.984375 C 5.71875 -3.984375 5.9375 -3.796875 5.9375 -3.515625 C 5.9375 -3.453125 5.9375 -3.421875 5.875 -3.296875 L 4.96875 -0.75 L 3.984375 -3.53125 C 3.953125 -3.65625 3.9375 -3.671875 3.9375 -3.71875 C 3.9375 -3.984375 4.328125 -3.984375 4.53125 -3.984375 L 4.53125 -4.296875 C 4.234375 -4.28125 3.734375 -4.265625 3.484375 -4.265625 C 3.1875 -4.265625 2.90625 -4.28125 2.609375 -4.296875 L 2.609375 -3.984375 C 2.96875 -3.984375 3.125 -3.96875 3.234375 -3.84375 C 3.28125 -3.78125 3.390625 -3.484375 3.453125 -3.296875 L 2.609375 -0.875 L 1.65625 -3.53125 C 1.609375 -3.65625 1.609375 -3.671875 1.609375 -3.71875 C 1.609375 -3.984375 2 -3.984375 2.1875 -3.984375 L 2.1875 -4.296875 C 1.890625 -4.28125 1.328125 -4.265625 1.109375 -4.265625 C 1.0625 -4.265625 0.53125 -4.28125 0.171875 -4.296875 L 0.171875 -3.984375 C 0.671875 -3.984375 0.796875 -3.953125 0.921875 -3.640625 L 2.171875 -0.109375 C 2.21875 0.03125 2.25 0.109375 2.375 0.109375 C 2.515625 0.109375 2.53125 0.046875 2.578125 -0.09375 L 3.59375 -2.90625 L 4.609375 -0.078125 C 4.640625 0.03125 4.671875 0.109375 4.8125 0.109375 C 4.9375 0.109375 4.96875 0.015625 5 -0.078125 Z M 6.171875 -3.34375 "
             style="stroke:none;stroke-width:0" />
        </g>
        <g
           id="g11054"
           style="fill:rgb(0%,0%,0%);fill-opacity:1;">
          <path
             id="path11048"
             transform="translate(167.556258,134.765)"
             d="M 3.3125 -0.75 C 3.359375 -0.359375 3.625 0.0625 4.09375 0.0625 C 4.3125 0.0625 4.921875 -0.078125 4.921875 -0.890625 L 4.921875 -1.453125 L 4.671875 -1.453125 L 4.671875 -0.890625 C 4.671875 -0.3125 4.421875 -0.25 4.3125 -0.25 C 3.984375 -0.25 3.9375 -0.703125 3.9375 -0.75 L 3.9375 -2.734375 C 3.9375 -3.15625 3.9375 -3.546875 3.578125 -3.921875 C 3.1875 -4.3125 2.6875 -4.46875 2.21875 -4.46875 C 1.390625 -4.46875 0.703125 -4 0.703125 -3.34375 C 0.703125 -3.046875 0.90625 -2.875 1.171875 -2.875 C 1.453125 -2.875 1.625 -3.078125 1.625 -3.328125 C 1.625 -3.453125 1.578125 -3.78125 1.109375 -3.78125 C 1.390625 -4.140625 1.875 -4.25 2.1875 -4.25 C 2.6875 -4.25 3.25 -3.859375 3.25 -2.96875 L 3.25 -2.609375 C 2.734375 -2.578125 2.046875 -2.546875 1.421875 -2.25 C 0.671875 -1.90625 0.421875 -1.390625 0.421875 -0.953125 C 0.421875 -0.140625 1.390625 0.109375 2.015625 0.109375 C 2.671875 0.109375 3.125 -0.296875 3.3125 -0.75 Z M 3.25 -2.390625 L 3.25 -1.390625 C 3.25 -0.453125 2.53125 -0.109375 2.078125 -0.109375 C 1.59375 -0.109375 1.1875 -0.453125 1.1875 -0.953125 C 1.1875 -1.5 1.609375 -2.328125 3.25 -2.390625 Z M 3.25 -2.390625 "
             style="stroke:none;stroke-width:0" />
          <path
             id="path11050"
             transform="translate(172.537558,134.765)"
             d="M 1.671875 -3.3125 L 1.671875 -4.40625 L 0.28125 -4.296875 L 0.28125 -3.984375 C 0.984375 -3.984375 1.0625 -3.921875 1.0625 -3.421875 L 1.0625 -0.75 C 1.0625 -0.3125 0.953125 -0.3125 0.28125 -0.3125 L 0.28125 0 C 0.671875 -0.015625 1.140625 -0.03125 1.421875 -0.03125 C 1.8125 -0.03125 2.28125 -0.03125 2.6875 0 L 2.6875 -0.3125 L 2.46875 -0.3125 C 1.734375 -0.3125 1.71875 -0.421875 1.71875 -0.78125 L 1.71875 -2.3125 C 1.71875 -3.296875 2.140625 -4.1875 2.890625 -4.1875 C 2.953125 -4.1875 2.984375 -4.1875 3 -4.171875 C 2.96875 -4.171875 2.765625 -4.046875 2.765625 -3.78125 C 2.765625 -3.515625 2.984375 -3.359375 3.203125 -3.359375 C 3.375 -3.359375 3.625 -3.484375 3.625 -3.796875 C 3.625 -4.109375 3.3125 -4.40625 2.890625 -4.40625 C 2.15625 -4.40625 1.796875 -3.734375 1.671875 -3.3125 Z M 1.671875 -3.3125 "
             style="stroke:none;stroke-width:0" />
          <path
             id="path11052"
             transform="translate(176.439908,134.765)"
             d="M 3.78125 -0.546875 L 3.78125 0.109375 L 5.25 0 L 5.25 -0.3125 C 4.5625 -0.3125 4.46875 -0.375 4.46875 -0.875 L 4.46875 -6.921875 L 3.046875 -6.8125 L 3.046875 -6.5 C 3.734375 -6.5 3.8125 -6.4375 3.8125 -5.9375 L 3.8125 -3.78125 C 3.53125 -4.140625 3.09375 -4.40625 2.5625 -4.40625 C 1.390625 -4.40625 0.34375 -3.421875 0.34375 -2.140625 C 0.34375 -0.875 1.3125 0.109375 2.453125 0.109375 C 3.09375 0.109375 3.53125 -0.234375 3.78125 -0.546875 Z M 3.78125 -3.21875 L 3.78125 -1.171875 C 3.78125 -1 3.78125 -0.984375 3.671875 -0.8125 C 3.375 -0.328125 2.9375 -0.109375 2.5 -0.109375 C 2.046875 -0.109375 1.6875 -0.375 1.453125 -0.75 C 1.203125 -1.15625 1.171875 -1.71875 1.171875 -2.140625 C 1.171875 -2.5 1.1875 -3.09375 1.46875 -3.546875 C 1.6875 -3.859375 2.0625 -4.1875 2.609375 -4.1875 C 2.953125 -4.1875 3.375 -4.03125 3.671875 -3.59375 C 3.78125 -3.421875 3.78125 -3.40625 3.78125 -3.21875 Z M 3.78125 -3.21875 "
             style="stroke:none;stroke-width:0" />
        </g>
        <g
           id="g11058"
           style="fill:rgb(0%,0%,0%);fill-opacity:1;">
          <path
             id="path11056"
             transform="translate(185.292675,134.765)"
             d="M 1.09375 -3.421875 L 1.09375 -0.75 C 1.09375 -0.3125 0.984375 -0.3125 0.3125 -0.3125 L 0.3125 0 C 0.671875 -0.015625 1.171875 -0.03125 1.453125 -0.03125 C 1.703125 -0.03125 2.21875 -0.015625 2.5625 0 L 2.5625 -0.3125 C 1.890625 -0.3125 1.78125 -0.3125 1.78125 -0.75 L 1.78125 -2.59375 C 1.78125 -3.625 2.5 -4.1875 3.125 -4.1875 C 3.765625 -4.1875 3.875 -3.65625 3.875 -3.078125 L 3.875 -0.75 C 3.875 -0.3125 3.765625 -0.3125 3.09375 -0.3125 L 3.09375 0 C 3.4375 -0.015625 3.953125 -0.03125 4.21875 -0.03125 C 4.46875 -0.03125 5 -0.015625 5.328125 0 L 5.328125 -0.3125 C 4.671875 -0.3125 4.5625 -0.3125 4.5625 -0.75 L 4.5625 -2.59375 C 4.5625 -3.625 5.265625 -4.1875 5.90625 -4.1875 C 6.53125 -4.1875 6.640625 -3.65625 6.640625 -3.078125 L 6.640625 -0.75 C 6.640625 -0.3125 6.53125 -0.3125 5.859375 -0.3125 L 5.859375 0 C 6.203125 -0.015625 6.71875 -0.03125 6.984375 -0.03125 C 7.25 -0.03125 7.765625 -0.015625 8.109375 0 L 8.109375 -0.3125 C 7.59375 -0.3125 7.34375 -0.3125 7.328125 -0.609375 L 7.328125 -2.515625 C 7.328125 -3.375 7.328125 -3.671875 7.015625 -4.03125 C 6.875 -4.203125 6.546875 -4.40625 5.96875 -4.40625 C 5.140625 -4.40625 4.6875 -3.8125 4.53125 -3.421875 C 4.390625 -4.296875 3.65625 -4.40625 3.203125 -4.40625 C 2.46875 -4.40625 2 -3.984375 1.71875 -3.359375 L 1.71875 -4.40625 L 0.3125 -4.296875 L 0.3125 -3.984375 C 1.015625 -3.984375 1.09375 -3.921875 1.09375 -3.421875 Z M 1.09375 -3.421875 "
             style="stroke:none;stroke-width:0" />
        </g>
        <g
           id="g11062"
           style="fill:rgb(0%,0%,0%);fill-opacity:1;">
          <path
             id="path11060"
             transform="translate(193.604472,134.765)"
             d="M 4.6875 -2.140625 C 4.6875 -3.40625 3.703125 -4.46875 2.5 -4.46875 C 1.25 -4.46875 0.28125 -3.375 0.28125 -2.140625 C 0.28125 -0.84375 1.3125 0.109375 2.484375 0.109375 C 3.6875 0.109375 4.6875 -0.875 4.6875 -2.140625 Z M 2.5 -0.140625 C 2.0625 -0.140625 1.625 -0.34375 1.359375 -0.8125 C 1.109375 -1.25 1.109375 -1.859375 1.109375 -2.21875 C 1.109375 -2.609375 1.109375 -3.140625 1.34375 -3.578125 C 1.609375 -4.03125 2.078125 -4.25 2.484375 -4.25 C 2.921875 -4.25 3.34375 -4.03125 3.609375 -3.59375 C 3.875 -3.171875 3.875 -2.59375 3.875 -2.21875 C 3.875 -1.859375 3.875 -1.3125 3.65625 -0.875 C 3.421875 -0.421875 2.984375 -0.140625 2.5 -0.140625 Z M 2.5 -0.140625 "
             style="stroke:none;stroke-width:0" />
        </g>
        <g
           id="g11070"
           style="fill:rgb(0%,0%,0%);fill-opacity:1;">
          <path
             id="path11064"
             transform="translate(198.854762,134.765)"
             d="M 3.78125 -0.546875 L 3.78125 0.109375 L 5.25 0 L 5.25 -0.3125 C 4.5625 -0.3125 4.46875 -0.375 4.46875 -0.875 L 4.46875 -6.921875 L 3.046875 -6.8125 L 3.046875 -6.5 C 3.734375 -6.5 3.8125 -6.4375 3.8125 -5.9375 L 3.8125 -3.78125 C 3.53125 -4.140625 3.09375 -4.40625 2.5625 -4.40625 C 1.390625 -4.40625 0.34375 -3.421875 0.34375 -2.140625 C 0.34375 -0.875 1.3125 0.109375 2.453125 0.109375 C 3.09375 0.109375 3.53125 -0.234375 3.78125 -0.546875 Z M 3.78125 -3.21875 L 3.78125 -1.171875 C 3.78125 -1 3.78125 -0.984375 3.671875 -0.8125 C 3.375 -0.328125 2.9375 -0.109375 2.5 -0.109375 C 2.046875 -0.109375 1.6875 -0.375 1.453125 -0.75 C 1.203125 -1.15625 1.171875 -1.71875 1.171875 -2.140625 C 1.171875 -2.5 1.1875 -3.09375 1.46875 -3.546875 C 1.6875 -3.859375 2.0625 -4.1875 2.609375 -4.1875 C 2.953125 -4.1875 3.375 -4.03125 3.671875 -3.59375 C 3.78125 -3.421875 3.78125 -3.40625 3.78125 -3.21875 Z M 3.78125 -3.21875 "
             style="stroke:none;stroke-width:0" />
          <path
             id="path11066"
             transform="translate(204.389983,134.765)"
             d="M 1.109375 -2.515625 C 1.171875 -4 2.015625 -4.25 2.359375 -4.25 C 3.375 -4.25 3.484375 -2.90625 3.484375 -2.515625 Z M 1.109375 -2.296875 L 3.890625 -2.296875 C 4.109375 -2.296875 4.140625 -2.296875 4.140625 -2.515625 C 4.140625 -3.5 3.59375 -4.46875 2.359375 -4.46875 C 1.203125 -4.46875 0.28125 -3.4375 0.28125 -2.1875 C 0.28125 -0.859375 1.328125 0.109375 2.46875 0.109375 C 3.6875 0.109375 4.140625 -1 4.140625 -1.1875 C 4.140625 -1.28125 4.0625 -1.3125 4 -1.3125 C 3.921875 -1.3125 3.890625 -1.25 3.875 -1.171875 C 3.53125 -0.140625 2.625 -0.140625 2.53125 -0.140625 C 2.03125 -0.140625 1.640625 -0.4375 1.40625 -0.8125 C 1.109375 -1.28125 1.109375 -1.9375 1.109375 -2.296875 Z M 1.109375 -2.296875 "
             style="stroke:none;stroke-width:0" />
          <path
             id="path11068"
             transform="translate(208.817362,134.765)"
             d="M 1.765625 -6.921875 L 0.328125 -6.8125 L 0.328125 -6.5 C 1.03125 -6.5 1.109375 -6.4375 1.109375 -5.9375 L 1.109375 -0.75 C 1.109375 -0.3125 1 -0.3125 0.328125 -0.3125 L 0.328125 0 C 0.65625 -0.015625 1.1875 -0.03125 1.4375 -0.03125 C 1.6875 -0.03125 2.171875 -0.015625 2.546875 0 L 2.546875 -0.3125 C 1.875 -0.3125 1.765625 -0.3125 1.765625 -0.75 Z M 1.765625 -6.921875 "
             style="stroke:none;stroke-width:0" />
        </g>
      </g>
    </g>
  </g>
</svg>
