<?xml version="1.0" encoding="UTF-8" standalone="no"?>
<!-- Created with Inkscape (http://www.inkscape.org/) -->

<svg
   xmlns:ns1="http://www.iki.fi/pav/software/textext/"
   xmlns:dc="http://purl.org/dc/elements/1.1/"
   xmlns:cc="http://creativecommons.org/ns#"
   xmlns:rdf="http://www.w3.org/1999/02/22-rdf-syntax-ns#"
   xmlns:svg="http://www.w3.org/2000/svg"
   xmlns="http://www.w3.org/2000/svg"
   xmlns:sodipodi="http://sodipodi.sourceforge.net/DTD/sodipodi-0.dtd"
   xmlns:inkscape="http://www.inkscape.org/namespaces/inkscape"
   version="1.1"
   id="svg1804"
   xml:space="preserve"
   width="595.27557pt"
   height="841.88977pt"
   viewBox="0 0 793.7008 1122.5197"
   sodipodi:docname="al_combined1.svg"
   inkscape:version="0.92.4 5da689c313, 2019-01-14"><metadata
     id="metadata1810"><rdf:RDF><cc:Work
         rdf:about=""><dc:format>image/svg+xml</dc:format><dc:type
           rdf:resource="http://purl.org/dc/dcmitype/StillImage" /><dc:title></dc:title></cc:Work></rdf:RDF></metadata><defs
     id="defs1808"><clipPath
       clipPathUnits="userSpaceOnUse"
       id="clipPath1926"><path
         d="M 54,36 H 388.8 V 253.44 H 54 Z"
         id="path1924"
         inkscape:connector-curvature="0" /></clipPath><clipPath
       clipPathUnits="userSpaceOnUse"
       id="clipPath1936"><path
         d="M 54,36 H 388.8 V 253.44 H 54 Z"
         id="path1934"
         inkscape:connector-curvature="0" /></clipPath><clipPath
       clipPathUnits="userSpaceOnUse"
       id="clipPath2640"><path
         d="M 54,36 H 388.8 V 253.44 H 54 Z"
         id="path2638"
         inkscape:connector-curvature="0" /></clipPath><clipPath
       clipPathUnits="userSpaceOnUse"
       id="clipPath2630"><path
         d="M 54,36 H 388.8 V 253.44 H 54 Z"
         id="path2628"
         inkscape:connector-curvature="0" /></clipPath><clipPath
       clipPathUnits="userSpaceOnUse"
       id="clipPath1926-3"><path
         d="M 54,36 H 388.8 V 253.44 H 54 Z"
         id="path1924-6"
         inkscape:connector-curvature="0" /></clipPath><clipPath
       clipPathUnits="userSpaceOnUse"
       id="clipPath1936-7"><path
         d="M 54,36 H 388.8 V 253.44 H 54 Z"
         id="path1934-5"
         inkscape:connector-curvature="0" /></clipPath></defs><sodipodi:namedview
     pagecolor="#ffffff"
     bordercolor="#666666"
     borderopacity="1"
     objecttolerance="10"
     gridtolerance="10"
     guidetolerance="10"
     inkscape:pageopacity="0"
     inkscape:pageshadow="2"
     inkscape:window-width="1920"
     inkscape:window-height="1052"
     id="namedview1806"
     showgrid="false"
     units="pt"
     inkscape:zoom="1.5707346"
     inkscape:cx="400.34116"
     inkscape:cy="756.79363"
     inkscape:window-x="0"
     inkscape:window-y="28"
     inkscape:window-maximized="1"
     inkscape:current-layer="g1812" /><g
     id="g1812"
     inkscape:groupmode="layer"
     inkscape:label="al_combined1"
     transform="matrix(1.3333333,0,0,-1.3333333,0,1122.5197)"><g
       id="g3104"
       transform="matrix(0.64110932,0,0,0.64110928,-18.860907,503.26467)"><path
   inkscape:connector-curvature="0"
   id="path2530"
   style="fill:#ffffff;fill-opacity:1;fill-rule:nonzero;stroke:none;stroke-width:0.99999994"
   d="M 84.154625,55.728659 H 516.15462 V 343.72866 H 84.154625 Z" /><path
   inkscape:connector-curvature="0"
   id="path2532"
   style="fill:#ffffff;fill-opacity:1;fill-rule:nonzero;stroke:none;stroke-width:0.99999994"
   d="m 138.15462,91.728659 h 334.8 V 309.16866 h -334.8 z" /><path
   inkscape:connector-curvature="0"
   id="path2534"
   style="fill:#000000;fill-opacity:1;fill-rule:nonzero;stroke:#000000;stroke-width:0.79999995;stroke-linecap:butt;stroke-linejoin:round;stroke-miterlimit:10;stroke-dasharray:none;stroke-opacity:1"
   d="m 153.3728,91.728659 v -3.50001" /><text
   transform="scale(1,-1)"
   id="text2538"
   style="font-variant:normal;font-weight:normal;font-size:10px;font-family:'DejaVu Sans';-inkscape-font-specification:DejaVuSans;writing-mode:lr-tb;fill:#000000;fill-opacity:1;fill-rule:nonzero;stroke:none;stroke-width:0.99999994"
   x="145.41968"
   y="-77.134941"><tspan
     id="tspan2536"
     sodipodi:role="line"
     y="-77.134941"
     x="145.41968 151.77968 154.95967"
     style="stroke-width:0.99999994">0.4</tspan></text>




<path
   inkscape:connector-curvature="0"
   id="path2540"
   style="fill:#000000;fill-opacity:1;fill-rule:nonzero;stroke:#000000;stroke-width:0.79999995;stroke-linecap:butt;stroke-linejoin:round;stroke-miterlimit:10;stroke-dasharray:none;stroke-opacity:1"
   d="m 191.41826,91.728659 v -3.50001" /><text
   transform="scale(1,-1)"
   id="text2544"
   style="font-variant:normal;font-weight:normal;font-size:10px;font-family:'DejaVu Sans';-inkscape-font-specification:DejaVuSans;writing-mode:lr-tb;fill:#000000;fill-opacity:1;fill-rule:nonzero;stroke:none;stroke-width:0.99999994"
   x="183.46513"
   y="-77.134941"><tspan
     id="tspan2542"
     sodipodi:role="line"
     y="-77.134941"
     x="183.46513 189.82513 193.00513"
     style="stroke-width:0.99999994">0.5</tspan></text>




<path
   inkscape:connector-curvature="0"
   id="path2546"
   style="fill:#000000;fill-opacity:1;fill-rule:nonzero;stroke:#000000;stroke-width:0.79999995;stroke-linecap:butt;stroke-linejoin:round;stroke-miterlimit:10;stroke-dasharray:none;stroke-opacity:1"
   d="m 229.46371,91.728659 v -3.50001" /><text
   transform="scale(1,-1)"
   id="text2550"
   style="font-variant:normal;font-weight:normal;font-size:10px;font-family:'DejaVu Sans';-inkscape-font-specification:DejaVuSans;writing-mode:lr-tb;fill:#000000;fill-opacity:1;fill-rule:nonzero;stroke:none;stroke-width:0.99999994"
   x="221.51059"
   y="-77.134941"><tspan
     id="tspan2548"
     sodipodi:role="line"
     y="-77.134941"
     x="221.51059 227.87059 231.05058"
     style="stroke-width:0.99999994">0.6</tspan></text>




<path
   inkscape:connector-curvature="0"
   id="path2552"
   style="fill:#000000;fill-opacity:1;fill-rule:nonzero;stroke:#000000;stroke-width:0.79999995;stroke-linecap:butt;stroke-linejoin:round;stroke-miterlimit:10;stroke-dasharray:none;stroke-opacity:1"
   d="m 267.50916,91.728659 v -3.50001" /><text
   transform="scale(1,-1)"
   id="text2556"
   style="font-variant:normal;font-weight:normal;font-size:10px;font-family:'DejaVu Sans';-inkscape-font-specification:DejaVuSans;writing-mode:lr-tb;fill:#000000;fill-opacity:1;fill-rule:nonzero;stroke:none;stroke-width:0.99999994"
   x="259.55603"
   y="-77.134941"><tspan
     id="tspan2554"
     sodipodi:role="line"
     y="-77.134941"
     x="259.55603 265.91605 269.09604"
     style="stroke-width:0.99999994">0.7</tspan></text>




<path
   inkscape:connector-curvature="0"
   id="path2558"
   style="fill:#000000;fill-opacity:1;fill-rule:nonzero;stroke:#000000;stroke-width:0.79999995;stroke-linecap:butt;stroke-linejoin:round;stroke-miterlimit:10;stroke-dasharray:none;stroke-opacity:1"
   d="m 305.55462,91.728659 v -3.50001" /><text
   transform="scale(1,-1)"
   id="text2562"
   style="font-variant:normal;font-weight:normal;font-size:10px;font-family:'DejaVu Sans';-inkscape-font-specification:DejaVuSans;writing-mode:lr-tb;fill:#000000;fill-opacity:1;fill-rule:nonzero;stroke:none;stroke-width:0.99999994"
   x="297.6015"
   y="-77.134941"><tspan
     id="tspan2560"
     sodipodi:role="line"
     y="-77.134941"
     x="297.6015 303.96149 307.14151"
     style="stroke-width:0.99999994">0.8</tspan></text>




<path
   inkscape:connector-curvature="0"
   id="path2564"
   style="fill:#000000;fill-opacity:1;fill-rule:nonzero;stroke:#000000;stroke-width:0.79999995;stroke-linecap:butt;stroke-linejoin:round;stroke-miterlimit:10;stroke-dasharray:none;stroke-opacity:1"
   d="m 343.60007,91.728659 v -3.50001" /><text
   transform="scale(1,-1)"
   id="text2568"
   style="font-variant:normal;font-weight:normal;font-size:10px;font-family:'DejaVu Sans';-inkscape-font-specification:DejaVuSans;writing-mode:lr-tb;fill:#000000;fill-opacity:1;fill-rule:nonzero;stroke:none;stroke-width:0.99999994"
   x="335.64694"
   y="-77.134941"><tspan
     id="tspan2566"
     sodipodi:role="line"
     y="-77.134941"
     x="335.64694 342.00696 345.18695"
     style="stroke-width:0.99999994">0.9</tspan></text>




<path
   inkscape:connector-curvature="0"
   id="path2570"
   style="fill:#000000;fill-opacity:1;fill-rule:nonzero;stroke:#000000;stroke-width:0.79999995;stroke-linecap:butt;stroke-linejoin:round;stroke-miterlimit:10;stroke-dasharray:none;stroke-opacity:1"
   d="m 381.64553,91.728659 v -3.50001" /><text
   transform="scale(1,-1)"
   id="text2574"
   style="font-variant:normal;font-weight:normal;font-size:10px;font-family:'DejaVu Sans';-inkscape-font-specification:DejaVuSans;writing-mode:lr-tb;fill:#000000;fill-opacity:1;fill-rule:nonzero;stroke:none;stroke-width:0.99999994"
   x="373.69241"
   y="-77.134941"><tspan
     id="tspan2572"
     sodipodi:role="line"
     y="-77.134941"
     x="373.69241 380.0524 383.23239"
     style="stroke-width:0.99999994">1.0</tspan></text>




<path
   inkscape:connector-curvature="0"
   id="path2576"
   style="fill:#000000;fill-opacity:1;fill-rule:nonzero;stroke:#000000;stroke-width:0.79999995;stroke-linecap:butt;stroke-linejoin:round;stroke-miterlimit:10;stroke-dasharray:none;stroke-opacity:1"
   d="m 419.69098,91.728659 v -3.50001" /><text
   transform="scale(1,-1)"
   id="text2580"
   style="font-variant:normal;font-weight:normal;font-size:10px;font-family:'DejaVu Sans';-inkscape-font-specification:DejaVuSans;writing-mode:lr-tb;fill:#000000;fill-opacity:1;fill-rule:nonzero;stroke:none;stroke-width:0.99999994"
   x="411.73788"
   y="-77.134941"><tspan
     id="tspan2578"
     sodipodi:role="line"
     y="-77.134941"
     x="411.73788 418.09787 421.27789"
     style="stroke-width:0.99999994">1.1</tspan></text>




<path
   inkscape:connector-curvature="0"
   id="path2582"
   style="fill:#000000;fill-opacity:1;fill-rule:nonzero;stroke:#000000;stroke-width:0.79999995;stroke-linecap:butt;stroke-linejoin:round;stroke-miterlimit:10;stroke-dasharray:none;stroke-opacity:1"
   d="m 457.73644,91.728659 v -3.50001" /><text
   transform="scale(1,-1)"
   id="text2586"
   style="font-variant:normal;font-weight:normal;font-size:10px;font-family:'DejaVu Sans';-inkscape-font-specification:DejaVuSans;writing-mode:lr-tb;fill:#000000;fill-opacity:1;fill-rule:nonzero;stroke:none;stroke-width:0.99999994"
   x="449.78333"
   y="-77.134941"><tspan
     id="tspan2584"
     sodipodi:role="line"
     y="-77.134941"
     x="449.78333 456.14334 459.32333"
     style="stroke-width:0.99999994">1.2</tspan></text>




<path
   inkscape:connector-curvature="0"
   id="path2588"
   style="fill:#000000;fill-opacity:1;fill-rule:nonzero;stroke:#000000;stroke-width:0.79999995;stroke-linecap:butt;stroke-linejoin:round;stroke-miterlimit:10;stroke-dasharray:none;stroke-opacity:1"
   d="m 138.15462,96.626819 h -3.5" /><text
   transform="scale(1,-1)"
   id="text2592"
   style="font-variant:normal;font-weight:normal;font-size:10px;font-family:'DejaVu Sans';-inkscape-font-specification:DejaVuSans;writing-mode:lr-tb;fill:#000000;fill-opacity:1;fill-rule:nonzero;stroke:none;stroke-width:0.99999994"
   x="115.24837"
   y="-92.829948"><tspan
     id="tspan2590"
     sodipodi:role="line"
     y="-92.829948"
     x="115.24837 121.60837 124.78838"
     style="stroke-width:0.99999994">0.0</tspan></text>




<path
   inkscape:connector-curvature="0"
   id="path2594"
   style="fill:#000000;fill-opacity:1;fill-rule:nonzero;stroke:#000000;stroke-width:0.79999995;stroke-linecap:butt;stroke-linejoin:round;stroke-miterlimit:10;stroke-dasharray:none;stroke-opacity:1"
   d="m 138.15462,133.38708 h -3.5" /><text
   transform="scale(1,-1)"
   id="text2598"
   style="font-variant:normal;font-weight:normal;font-size:10px;font-family:'DejaVu Sans';-inkscape-font-specification:DejaVuSans;writing-mode:lr-tb;fill:#000000;fill-opacity:1;fill-rule:nonzero;stroke:none;stroke-width:0.99999994"
   x="115.24837"
   y="-129.59019"><tspan
     id="tspan2596"
     sodipodi:role="line"
     y="-129.59019"
     x="115.24837 121.60837 124.78838"
     style="stroke-width:0.99999994">0.1</tspan></text>




<path
   inkscape:connector-curvature="0"
   id="path2600"
   style="fill:#000000;fill-opacity:1;fill-rule:nonzero;stroke:#000000;stroke-width:0.79999995;stroke-linecap:butt;stroke-linejoin:round;stroke-miterlimit:10;stroke-dasharray:none;stroke-opacity:1"
   d="m 138.15462,170.14734 h -3.5" /><text
   transform="scale(1,-1)"
   id="text2604"
   style="font-variant:normal;font-weight:normal;font-size:10px;font-family:'DejaVu Sans';-inkscape-font-specification:DejaVuSans;writing-mode:lr-tb;fill:#000000;fill-opacity:1;fill-rule:nonzero;stroke:none;stroke-width:0.99999994"
   x="115.24837"
   y="-166.35045"><tspan
     id="tspan2602"
     sodipodi:role="line"
     y="-166.35045"
     x="115.24837 121.60837 124.78838"
     style="stroke-width:0.99999994">0.2</tspan></text>




<path
   inkscape:connector-curvature="0"
   id="path2606"
   style="fill:#000000;fill-opacity:1;fill-rule:nonzero;stroke:#000000;stroke-width:0.79999995;stroke-linecap:butt;stroke-linejoin:round;stroke-miterlimit:10;stroke-dasharray:none;stroke-opacity:1"
   d="m 138.15462,206.90759 h -3.5" /><text
   transform="scale(1,-1)"
   id="text2610"
   style="font-variant:normal;font-weight:normal;font-size:10px;font-family:'DejaVu Sans';-inkscape-font-specification:DejaVuSans;writing-mode:lr-tb;fill:#000000;fill-opacity:1;fill-rule:nonzero;stroke:none;stroke-width:0.99999994"
   x="115.24837"
   y="-203.1107"><tspan
     id="tspan2608"
     sodipodi:role="line"
     y="-203.1107"
     x="115.24837 121.60837 124.78838"
     style="stroke-width:0.99999994">0.3</tspan></text>




<path
   inkscape:connector-curvature="0"
   id="path2612"
   style="fill:#000000;fill-opacity:1;fill-rule:nonzero;stroke:#000000;stroke-width:0.79999995;stroke-linecap:butt;stroke-linejoin:round;stroke-miterlimit:10;stroke-dasharray:none;stroke-opacity:1"
   d="m 138.15462,243.66785 h -3.5" /><text
   transform="scale(1,-1)"
   id="text2616"
   style="font-variant:normal;font-weight:normal;font-size:10px;font-family:'DejaVu Sans';-inkscape-font-specification:DejaVuSans;writing-mode:lr-tb;fill:#000000;fill-opacity:1;fill-rule:nonzero;stroke:none;stroke-width:0.99999994"
   x="115.24837"
   y="-239.87096"><tspan
     id="tspan2614"
     sodipodi:role="line"
     y="-239.87096"
     x="115.24837 121.60837 124.78838"
     style="stroke-width:0.99999994">0.4</tspan></text>




<path
   inkscape:connector-curvature="0"
   id="path2618"
   style="fill:#000000;fill-opacity:1;fill-rule:nonzero;stroke:#000000;stroke-width:0.79999995;stroke-linecap:butt;stroke-linejoin:round;stroke-miterlimit:10;stroke-dasharray:none;stroke-opacity:1"
   d="m 138.15462,280.42811 h -3.5" /><text
   transform="scale(1,-1)"
   id="text2622"
   style="font-variant:normal;font-weight:normal;font-size:10px;font-family:'DejaVu Sans';-inkscape-font-specification:DejaVuSans;writing-mode:lr-tb;fill:#000000;fill-opacity:1;fill-rule:nonzero;stroke:none;stroke-width:0.99999994"
   x="115.24837"
   y="-276.63123"><tspan
     id="tspan2620"
     sodipodi:role="line"
     y="-276.63123"
     x="115.24837 121.60837 124.78838"
     style="stroke-width:0.99999994">0.5</tspan></text>




<g
   id="g2624"
   transform="translate(84.154625,55.728659)"><g
     clip-path="url(#clipPath2630)"
     id="g2626"><path
       inkscape:connector-curvature="0"
       id="path2632"
       style="fill:none;stroke:#1f77b4;stroke-width:1.5;stroke-linecap:square;stroke-linejoin:round;stroke-miterlimit:10;stroke-dasharray:none;stroke-opacity:1"
       d="m 69.218182,171.2244 1.914237,-10.12727 1.914236,-8.09266 1.914237,-5.75229 1.914237,-3.42104 1.914236,-1.38223 1.914237,0.19271 1.914237,1.26417 1.914236,1.91369 1.914237,2.30248 1.914237,2.60116 1.914237,2.89882 5.74271,9.46314 1.914236,2.58831 1.914237,1.86991 1.914241,0.98636 1.91423,0.006 1.91424,-1.02327 1.91424,-2.08151 1.91423,-3.15709 1.91424,-4.23593 1.91424,-5.27438 1.91423,-6.19655 1.91424,-6.91679 3.82847,-15.01415 5.74271,-22.67278 1.91424,-6.871485 1.91424,-6.069418 1.91423,-5.079633 1.91424,-4.155376 1.91424,-3.500794 1.91423,-3.123363 1.91424,-2.882 1.91424,-2.644823 1.91423,-2.362115 1.91424,-2.043853 1.91424,-1.716991 1.91423,-1.40417 1.91424,-1.12414 1.91424,-0.896316 1.91423,-0.727254 3.82848,-1.134021 7.65694,-1.975696 1.91424,-0.701889 1.91424,-0.859906 1.91423,-1.023346 3.82848,-2.420586 1.91423,-1.235598 1.91424,-1.0785 1.91424,-0.766545 1.91423,-0.282186 1.91424,0.378106 1.91424,1.185591 1.91423,2.110209 1.91424,2.987434 5.74271,10.810385 3.82847,7.841128 3.82848,8.077327 1.91423,3.721298 1.91424,3.430551 1.91424,3.14488 1.91423,2.885026 1.91424,2.658045 3.82847,4.766379 3.82848,4.221235 3.82847,3.84851 5.74271,5.31986 7.65695,6.65096 9.57118,8.20379 5.74271,5.2479 3.82848,3.75123 9.57118,9.90285 7.65695,8.19411 13.39965,14.38319 7.65695,7.92286 5.74271,5.71917 5.74271,5.38713 3.82847,3.36171 3.82848,3.03032 1.91423,1.30409 1.91424,1.13254 5.74271,2.95896 1.91424,1.29082 1.91423,1.62925 1.91424,1.94235 3.82847,4.41777 5.74271,6.68629 3.82848,4.09532 3.82847,3.78028 3.82847,3.51788 3.82848,3.2964 3.82847,3.08868 3.82847,2.88953 5.74271,4.00656 3.82848,2.49482 v 0" /></g></g><g
   id="g2634"
   transform="translate(84.154625,55.728659)"><g
     clip-path="url(#clipPath2640)"
     id="g2636"><path
       inkscape:connector-curvature="0"
       id="path2642"
       style="fill:none;stroke:#ff7f0e;stroke-width:1.5;stroke-linecap:square;stroke-linejoin:round;stroke-miterlimit:10;stroke-dasharray:none;stroke-opacity:1"
       d="m 69.218182,144.70885 1.914237,-5.30346 1.914236,-3.32034 1.914237,-1.54999 1.914237,0.0864 1.914236,1.61499 1.914237,3.03815 1.914237,4.55143 1.914236,9.6686 1.914237,1.49815 1.914237,6.12888 1.914237,4.72423 1.914236,3.47763 1.914237,2.53829 1.914237,1.65857 1.914236,0.79323 1.914237,-0.0524 1.914241,-0.85808 1.91423,-1.60039 1.91424,-2.2583 1.91424,-2.80669 1.91423,-3.16077 1.91424,-2.67729 1.91424,-3.25859 1.91423,-5.82806 11.48542,-37.33472 1.91424,-5.64029 1.91424,-5.20875 1.91423,-4.592183 1.91424,-3.866466 1.91424,-3.189804 1.91423,-2.710276 11.48542,-14.827699 1.91424,-1.992521 1.91424,-1.695659 1.91423,-1.408198 1.91424,-1.14811 1.91424,-0.927102 3.82847,-1.402785 3.82847,-1.291495 1.91424,-0.840154 1.91424,-1.075597 1.91423,-1.355432 1.91424,-1.636462 7.65695,-7.334521 1.91423,-1.362437 1.91424,-0.991145 1.91424,-0.610942 1.91423,-0.237742 1.91424,0.118406 1.91424,0.412967 3.82847,1.318976 1.91424,0.849407 1.91423,1.036734 1.91424,1.224964 3.82847,2.820677 3.82848,3.092807 5.74271,5.034222 7.65694,7.068061 11.48542,10.926259 7.65695,7.556012 5.74271,5.963468 5.74271,6.27604 7.65695,8.79147 9.57118,11.31147 28.71355,34.60874 5.74271,6.47241 5.74271,6.09047 3.82848,3.74316 3.82847,3.36502 9.57118,7.7591 3.82848,3.70341 11.48542,11.46695 5.74271,5.32318 3.82847,3.28039 5.74271,4.58469 7.65695,5.79569 5.74271,4.08272 v 0" /></g></g><g
   id="g2644"
   transform="translate(84.154625,55.728659)"><path
     inkscape:connector-curvature="0"
     id="path2646"
     style="fill:none;stroke:#000000;stroke-width:0.80000001;stroke-linecap:square;stroke-linejoin:miter;stroke-miterlimit:10;stroke-dasharray:none;stroke-opacity:1"
     d="M 54,36 V 253.44" /><path
     inkscape:connector-curvature="0"
     id="path2648"
     style="fill:none;stroke:#000000;stroke-width:0.80000001;stroke-linecap:square;stroke-linejoin:miter;stroke-miterlimit:10;stroke-dasharray:none;stroke-opacity:1"
     d="M 388.8,36 V 253.44" /><path
     inkscape:connector-curvature="0"
     id="path2650"
     style="fill:none;stroke:#000000;stroke-width:0.80000001;stroke-linecap:square;stroke-linejoin:miter;stroke-miterlimit:10;stroke-dasharray:none;stroke-opacity:1"
     d="M 54,36 H 388.8" /><path
     inkscape:connector-curvature="0"
     id="path2652"
     style="fill:none;stroke:#000000;stroke-width:0.80000001;stroke-linecap:square;stroke-linejoin:miter;stroke-miterlimit:10;stroke-dasharray:none;stroke-opacity:1"
     d="M 54,253.44 H 388.8" /></g></g><g
       id="g4474"
       ns1:jacobian_sqrt="1.733334"
       ns1:alignment="middle center"
       ns1:scale="1.3"
       ns1:preamble="/home/tim/.config/inkscape/extensions/textext/default_packages.tex"
       ns1:text="Wavlength $(\\mu m)$"
       ns1:pdfconverter="pdf2svg"
       ns1:texconverter="pdflatex"
       ns1:version="0.9.1"
       transform="matrix(1.5939956,0,0,-1.5939956,-2.537563,739.10496)"><g
   id="surface1">
<g
   id="g4437"
   style="fill:#000000;fill-opacity:1">
  <path
   id="path4435"
   transform="translate(148.712,134.765)"
   d="M 9.0625,-5.828125 C 9.234375,-6.40625 9.671875,-6.5 10.0625,-6.5 v -0.3125 c -0.296875,0.03125 -0.609375,0.03125 -0.90625,0.03125 -0.296875,0 -0.9375,-0.015625 -1.1875,-0.03125 V -6.5 c 0.671875,0.015625 0.859375,0.34375 0.859375,0.53125 0,0.0625 -0.03125,0.140625 -0.046875,0.203125 l -1.5,4.59375 -1.59375,-4.875 C 5.6875,-6.09375 5.65625,-6.15625 5.65625,-6.203125 5.65625,-6.5 6.234375,-6.5 6.5,-6.5 v -0.3125 c -0.359375,0.03125 -1.03125,0.03125 -1.421875,0.03125 -0.375,0 -0.796875,-0.015625 -1.203125,-0.03125 V -6.5 c 0.5625,0 0.765625,0 0.890625,0.359375 L 4.984375,-5.4375 3.59375,-1.171875 2,-6.078125 C 1.984375,-6.09375 1.96875,-6.171875 1.96875,-6.203125 1.96875,-6.5 2.546875,-6.5 2.8125,-6.5 v -0.3125 c -0.359375,0.03125 -1.03125,0.03125 -1.421875,0.03125 -0.375,0 -0.796875,-0.015625 -1.21875,-0.03125 V -6.5 c 0.75,0 0.796875,0.046875 0.921875,0.421875 L 3.078125,0.03125 c 0.03125,0.09375 0.0625,0.1875 0.1875,0.1875 0.140625,0 0.15625,-0.0625 0.203125,-0.203125 l 1.640625,-5.0625 1.65625,5.078125 c 0.03125,0.09375 0.0625,0.1875 0.1875,0.1875 0.140625,0 0.171875,-0.0625 0.203125,-0.203125 z m 0,0"
   style="stroke:none;stroke-width:0"
   inkscape:connector-curvature="0" />
</g>
<g
   id="g4441"
   style="fill:#000000;fill-opacity:1">
  <path
   id="path4439"
   transform="translate(158.12466,134.765)"
   d="m 3.3125,-0.75 c 0.046875,0.390625 0.3125,0.8125 0.78125,0.8125 0.21875,0 0.828125,-0.140625 0.828125,-0.953125 v -0.5625 h -0.25 v 0.5625 c 0,0.578125 -0.25,0.640625 -0.359375,0.640625 -0.328125,0 -0.375,-0.453125 -0.375,-0.5 v -1.984375 c 0,-0.421875 0,-0.8125 -0.359375,-1.1875 C 3.1875,-4.3125 2.6875,-4.46875 2.21875,-4.46875 c -0.828125,0 -1.515625,0.46875 -1.515625,1.125 0,0.296875 0.203125,0.46875 0.46875,0.46875 0.28125,0 0.453125,-0.203125 0.453125,-0.453125 0,-0.125 -0.046875,-0.453125 -0.515625,-0.453125 C 1.390625,-4.140625 1.875,-4.25 2.1875,-4.25 c 0.5,0 1.0625,0.390625 1.0625,1.28125 v 0.359375 c -0.515625,0.03125 -1.203125,0.0625 -1.828125,0.359375 -0.75,0.34375 -1,0.859375 -1,1.296875 0,0.8125 0.96875,1.0625 1.59375,1.0625 0.65625,0 1.109375,-0.40625 1.296875,-0.859375 z M 3.25,-2.390625 v 1 c 0,0.9375 -0.71875,1.28125 -1.171875,1.28125 -0.484375,0 -0.890625,-0.34375 -0.890625,-0.84375 0,-0.546875 0.421875,-1.375 2.0625,-1.4375 z m 0,0"
   style="stroke:none;stroke-width:0"
   inkscape:connector-curvature="0" />
</g>
<g
   id="g4457"
   style="fill:#000000;fill-opacity:1">
  <path
   id="path4443"
   transform="translate(162.82701,134.765)"
   d="M 4.140625,-3.3125 C 4.234375,-3.546875 4.40625,-3.984375 5.0625,-3.984375 v -0.3125 c -0.234375,0.015625 -0.515625,0.03125 -0.75,0.03125 -0.234375,0 -0.6875,-0.015625 -0.859375,-0.03125 v 0.3125 c 0.359375,0 0.46875,0.234375 0.46875,0.421875 0,0.09375 -0.015625,0.140625 -0.046875,0.25 L 2.84375,-0.78125 1.734375,-3.5625 c -0.0625,-0.125 -0.0625,-0.140625 -0.0625,-0.171875 0,-0.25 0.390625,-0.25 0.578125,-0.25 v -0.3125 c -0.3125,0.015625 -0.859375,0.03125 -1.09375,0.03125 -0.265625,0 -0.671875,-0.015625 -0.96875,-0.03125 v 0.3125 c 0.625,0 0.671875,0.0625 0.796875,0.359375 l 1.4375,3.546875 C 2.484375,0.0625 2.5,0.109375 2.625,0.109375 c 0.140625,0 0.171875,-0.09375 0.21875,-0.1875 z m 0,0"
   style="stroke:none;stroke-width:0"
   inkscape:connector-curvature="0" />
<path
   id="path4445"
   transform="translate(168.08527,134.765)"
   d="M 1.765625,-6.921875 0.328125,-6.8125 V -6.5 c 0.703125,0 0.78125,0.0625 0.78125,0.5625 V -0.75 c 0,0.4375 -0.109375,0.4375 -0.78125,0.4375 V 0 C 0.65625,-0.015625 1.1875,-0.03125 1.4375,-0.03125 c 0.25,0 0.734375,0.015625 1.109375,0.03125 v -0.3125 c -0.671875,0 -0.78125,0 -0.78125,-0.4375 z m 0,0"
   style="stroke:none;stroke-width:0"
   inkscape:connector-curvature="0" />
<path
   id="path4447"
   transform="translate(170.85288,134.765)"
   d="M 1.109375,-2.515625 C 1.171875,-4 2.015625,-4.25 2.359375,-4.25 c 1.015625,0 1.125,1.34375 1.125,1.734375 z m 0,0.21875 h 2.78125 c 0.21875,0 0.25,0 0.25,-0.21875 0,-0.984375 -0.546875,-1.953125 -1.78125,-1.953125 -1.15625,0 -2.078125,1.03125 -2.078125,2.28125 0,1.328125 1.046875,2.296875 2.1875,2.296875 C 3.6875,0.109375 4.140625,-1 4.140625,-1.1875 4.140625,-1.28125 4.0625,-1.3125 4,-1.3125 c -0.078125,0 -0.109375,0.0625 -0.125,0.140625 -0.34375,1.03125 -1.25,1.03125 -1.34375,1.03125 -0.5,0 -0.890625,-0.296875 -1.125,-0.671875 -0.296875,-0.46875 -0.296875,-1.125 -0.296875,-1.484375 z m 0,0"
   style="stroke:none;stroke-width:0"
   inkscape:connector-curvature="0" />
<path
   id="path4449"
   transform="translate(175.28026,134.765)"
   d="M 1.09375,-3.421875 V -0.75 c 0,0.4375 -0.109375,0.4375 -0.78125,0.4375 V 0 c 0.359375,-0.015625 0.859375,-0.03125 1.140625,-0.03125 0.25,0 0.765625,0.015625 1.109375,0.03125 v -0.3125 c -0.671875,0 -0.78125,0 -0.78125,-0.4375 V -2.59375 C 1.78125,-3.625 2.5,-4.1875 3.125,-4.1875 c 0.640625,0 0.75,0.53125 0.75,1.109375 V -0.75 c 0,0.4375 -0.109375,0.4375 -0.78125,0.4375 V 0 c 0.34375,-0.015625 0.859375,-0.03125 1.125,-0.03125 0.25,0 0.78125,0.015625 1.109375,0.03125 v -0.3125 c -0.515625,0 -0.765625,0 -0.765625,-0.296875 v -1.90625 c 0,-0.859375 0,-1.15625 -0.3125,-1.515625 -0.140625,-0.171875 -0.46875,-0.375 -1.046875,-0.375 C 2.46875,-4.40625 2,-3.984375 1.71875,-3.359375 V -4.40625 L 0.3125,-4.296875 v 0.3125 c 0.703125,0 0.78125,0.0625 0.78125,0.5625 z m 0,0"
   style="stroke:none;stroke-width:0"
   inkscape:connector-curvature="0" />
<path
   id="path4451"
   transform="translate(180.81548,134.765)"
   d="m 2.21875,-1.71875 c -0.875,0 -0.875,-1 -0.875,-1.21875 0,-0.265625 0.015625,-0.59375 0.15625,-0.84375 0.078125,-0.109375 0.3125,-0.390625 0.71875,-0.390625 0.859375,0 0.859375,0.984375 0.859375,1.21875 0,0.265625 0,0.59375 -0.15625,0.84375 C 2.84375,-2 2.609375,-1.71875 2.21875,-1.71875 Z M 1.0625,-1.328125 c 0,-0.03125 0,-0.265625 0.15625,-0.46875 0.390625,0.28125 0.8125,0.3125 1,0.3125 0.921875,0 1.609375,-0.6875 1.609375,-1.453125 0,-0.375 -0.15625,-0.734375 -0.40625,-0.96875 C 3.78125,-4.25 4.140625,-4.296875 4.3125,-4.296875 c 0.03125,0 0.078125,0 0.109375,0.015625 C 4.3125,-4.25 4.25,-4.140625 4.25,-4.015625 c 0,0.171875 0.140625,0.28125 0.296875,0.28125 0.09375,0 0.28125,-0.0625 0.28125,-0.296875 0,-0.171875 -0.109375,-0.484375 -0.5,-0.484375 -0.203125,0 -0.640625,0.0625 -1.0625,0.46875 C 2.84375,-4.375 2.4375,-4.40625 2.21875,-4.40625 c -0.9375,0 -1.625,0.6875 -1.625,1.453125 0,0.4375 0.21875,0.8125 0.46875,1.03125 -0.125,0.140625 -0.3125,0.46875 -0.3125,0.828125 0,0.3125 0.140625,0.6875 0.453125,0.890625 -0.609375,0.15625 -0.921875,0.59375 -0.921875,0.984375 0,0.71875 0.984375,1.265625 2.203125,1.265625 1.171875,0 2.203125,-0.5 2.203125,-1.28125 0,-0.34375 -0.125,-0.859375 -0.640625,-1.140625 -0.53125,-0.265625 -1.109375,-0.265625 -1.71875,-0.265625 -0.25,0 -0.671875,0 -0.75,-0.015625 C 1.265625,-0.703125 1.0625,-1 1.0625,-1.328125 Z M 2.5,1.828125 c -1.015625,0 -1.703125,-0.515625 -1.703125,-1.046875 0,-0.453125 0.375,-0.828125 0.8125,-0.84375 h 0.59375 c 0.859375,0 1.96875,0 1.96875,0.84375 0,0.546875 -0.703125,1.046875 -1.671875,1.046875 z m 0,0"
   style="stroke:none;stroke-width:0"
   inkscape:connector-curvature="0" />
<path
   id="path4453"
   transform="translate(185.79678,134.765)"
   d="m 1.71875,-3.984375 h 1.4375 v -0.3125 H 1.71875 V -6.125 h -0.25 c 0,0.8125 -0.296875,1.875 -1.28125,1.921875 v 0.21875 h 0.84375 v 2.75 c 0,1.21875 0.9375,1.34375 1.296875,1.34375 0.703125,0 0.984375,-0.703125 0.984375,-1.34375 v -0.5625 h -0.25 V -1.25 c 0,0.734375 -0.296875,1.109375 -0.671875,1.109375 -0.671875,0 -0.671875,-0.90625 -0.671875,-1.078125 z m 0,0"
   style="stroke:none;stroke-width:0"
   inkscape:connector-curvature="0" />
<path
   id="path4455"
   transform="translate(189.67124,134.765)"
   d="m 1.09375,-0.75 c 0,0.4375 -0.109375,0.4375 -0.78125,0.4375 V 0 c 0.359375,-0.015625 0.859375,-0.03125 1.140625,-0.03125 0.25,0 0.765625,0.015625 1.109375,0.03125 v -0.3125 c -0.671875,0 -0.78125,0 -0.78125,-0.4375 V -2.59375 C 1.78125,-3.625 2.5,-4.1875 3.125,-4.1875 c 0.640625,0 0.75,0.53125 0.75,1.109375 V -0.75 c 0,0.4375 -0.109375,0.4375 -0.78125,0.4375 V 0 c 0.34375,-0.015625 0.859375,-0.03125 1.125,-0.03125 0.25,0 0.78125,0.015625 1.109375,0.03125 v -0.3125 c -0.515625,0 -0.765625,0 -0.765625,-0.296875 v -1.90625 c 0,-0.859375 0,-1.15625 -0.3125,-1.515625 -0.140625,-0.171875 -0.46875,-0.375 -1.046875,-0.375 -0.84375,0 -1.28125,0.59375 -1.453125,0.984375 v -3.5 L 0.3125,-6.8125 V -6.5 c 0.703125,0 0.78125,0.0625 0.78125,0.5625 z m 0,0"
   style="stroke:none;stroke-width:0"
   inkscape:connector-curvature="0" />
</g>
<g
   id="g4461"
   style="fill:#000000;fill-opacity:1">
  <path
   id="path4459"
   transform="translate(198.524,134.765)"
   d="m 3.296875,2.390625 c 0,-0.03125 0,-0.046875 -0.171875,-0.21875 C 1.890625,0.921875 1.5625,-0.96875 1.5625,-2.5 c 0,-1.734375 0.375,-3.46875 1.609375,-4.703125 0.125,-0.125 0.125,-0.140625 0.125,-0.171875 0,-0.078125 -0.03125,-0.109375 -0.09375,-0.109375 -0.109375,0 -1,0.6875 -1.59375,1.953125 -0.5,1.09375 -0.625,2.203125 -0.625,3.03125 0,0.78125 0.109375,1.984375 0.65625,3.125 C 2.25,1.84375 3.09375,2.5 3.203125,2.5 c 0.0625,0 0.09375,-0.03125 0.09375,-0.109375 z m 0,0"
   style="stroke:none;stroke-width:0"
   inkscape:connector-curvature="0" />
</g>
<g
   id="g4467"
   style="fill:#000000;fill-opacity:1">
  <path
   id="path4463"
   transform="translate(202.4,134.765)"
   d="m 2.296875,-3.5 c 0.0625,-0.203125 0.15625,-0.59375 0.15625,-0.640625 0,-0.171875 -0.125,-0.265625 -0.296875,-0.265625 -0.015625,0 -0.296875,0.015625 -0.390625,0.359375 l -1.4375,5.765625 c -0.03125,0.125 -0.03125,0.140625 -0.03125,0.171875 0,0.140625 0.109375,0.265625 0.28125,0.265625 0.203125,0 0.328125,-0.1875 0.34375,-0.21875 C 0.96875,1.859375 1.09375,1.328125 1.46875,-0.203125 1.796875,0.0625 2.25,0.109375 2.4375,0.109375 c 0.703125,0 1.09375,-0.453125 1.328125,-0.734375 0.09375,0.453125 0.46875,0.734375 0.90625,0.734375 0.34375,0 0.578125,-0.234375 0.734375,-0.546875 0.171875,-0.359375 0.296875,-0.96875 0.296875,-0.984375 0,-0.109375 -0.09375,-0.109375 -0.125,-0.109375 -0.09375,0 -0.109375,0.046875 -0.140625,0.1875 -0.15625,0.640625 -0.34375,1.234375 -0.75,1.234375 -0.265625,0 -0.296875,-0.265625 -0.296875,-0.453125 0,-0.21875 0.109375,-0.6875 0.1875,-1.046875 L 4.859375,-2.6875 C 4.890625,-2.828125 5,-3.203125 5.03125,-3.359375 5.078125,-3.59375 5.1875,-3.96875 5.1875,-4.03125 c 0,-0.171875 -0.140625,-0.265625 -0.296875,-0.265625 -0.046875,0 -0.3125,0.015625 -0.390625,0.34375 l -0.46875,1.875 c -0.109375,0.5 -0.21875,0.90625 -0.25,1.015625 -0.015625,0.046875 -0.484375,0.953125 -1.296875,0.953125 -0.5,0 -0.734375,-0.328125 -0.734375,-0.875 0,-0.28125 0.0625,-0.5625 0.140625,-0.84375 z m 0,0"
   style="stroke:none;stroke-width:0"
   inkscape:connector-curvature="0" />
<path
   id="path4465"
   transform="translate(208.40346,134.765)"
   d="m 0.875,-0.59375 c -0.03125,0.15625 -0.09375,0.390625 -0.09375,0.4375 0,0.171875 0.140625,0.265625 0.296875,0.265625 0.125,0 0.296875,-0.078125 0.375,-0.28125 0,-0.015625 0.125,-0.484375 0.1875,-0.734375 l 0.21875,-0.890625 C 1.90625,-2.03125 1.96875,-2.25 2.03125,-2.46875 c 0.03125,-0.171875 0.109375,-0.46875 0.125,-0.5 0.140625,-0.3125 0.671875,-1.21875 1.625,-1.21875 0.453125,0 0.53125,0.375 0.53125,0.703125 0,0.25 -0.0625,0.53125 -0.140625,0.828125 L 3.890625,-1.5 3.6875,-0.75 c -0.03125,0.203125 -0.125,0.546875 -0.125,0.59375 0,0.171875 0.140625,0.265625 0.28125,0.265625 0.3125,0 0.375,-0.25 0.453125,-0.5625 0.140625,-0.5625 0.515625,-2.015625 0.59375,-2.40625 0.03125,-0.125 0.5625,-1.328125 1.65625,-1.328125 0.421875,0 0.53125,0.34375 0.53125,0.703125 0,0.5625 -0.421875,1.703125 -0.625,2.234375 -0.078125,0.234375 -0.125,0.34375 -0.125,0.546875 0,0.46875 0.34375,0.8125 0.8125,0.8125 0.9375,0 1.3125,-1.453125 1.3125,-1.53125 0,-0.109375 -0.09375,-0.109375 -0.125,-0.109375 -0.09375,0 -0.09375,0.03125 -0.140625,0.1875 -0.15625,0.53125 -0.46875,1.234375 -1.015625,1.234375 -0.171875,0 -0.25,-0.09375 -0.25,-0.328125 0,-0.25 0.09375,-0.484375 0.1875,-0.703125 0.1875,-0.53125 0.609375,-1.625 0.609375,-2.203125 0,-0.640625 -0.40625,-1.0625 -1.15625,-1.0625 -0.734375,0 -1.25,0.4375 -1.625,0.96875 0,-0.125 -0.03125,-0.46875 -0.3125,-0.703125 -0.25,-0.21875 -0.5625,-0.265625 -0.8125,-0.265625 -0.90625,0 -1.390625,0.640625 -1.5625,0.875 -0.046875,-0.578125 -0.46875,-0.875 -0.921875,-0.875 -0.453125,0 -0.640625,0.390625 -0.734375,0.5625 -0.171875,0.359375 -0.296875,0.9375 -0.296875,0.96875 0,0.109375 0.09375,0.109375 0.109375,0.109375 0.109375,0 0.109375,-0.015625 0.171875,-0.234375 0.171875,-0.703125 0.375,-1.1875 0.734375,-1.1875 0.15625,0 0.296875,0.078125 0.296875,0.453125 0,0.21875 -0.03125,0.328125 -0.15625,0.84375 z m 0,0"
   style="stroke:none;stroke-width:0"
   inkscape:connector-curvature="0" />
</g>
<g
   id="g4471"
   style="fill:#000000;fill-opacity:1">
  <path
   id="path4469"
   transform="translate(217.15,134.765)"
   d="m 2.875,-2.5 c 0,-0.765625 -0.109375,-1.96875 -0.65625,-3.109375 -0.59375,-1.21875 -1.453125,-1.875 -1.546875,-1.875 -0.0625,0 -0.109375,0.046875 -0.109375,0.109375 0,0.03125 0,0.046875 0.1875,0.234375 0.984375,0.984375 1.546875,2.5625 1.546875,4.640625 0,1.71875 -0.359375,3.46875 -1.59375,4.71875 C 0.5625,2.34375 0.5625,2.359375 0.5625,2.390625 0.5625,2.453125 0.609375,2.5 0.671875,2.5 0.765625,2.5 1.671875,1.8125 2.25,0.546875 2.765625,-0.546875 2.875,-1.65625 2.875,-2.5 Z m 0,0"
   style="stroke:none;stroke-width:0"
   inkscape:connector-curvature="0" />
</g>
</g>
</g><g
       id="g4790"
       ns1:jacobian_sqrt="1.593996"
       ns1:alignment="middle center"
       ns1:scale="1.19549624019"
       ns1:preamble="/home/tim/.config/inkscape/extensions/textext/default_packages.tex"
       ns1:text="Transmission"
       ns1:pdfconverter="pdf2svg"
       ns1:texconverter="pdflatex"
       ns1:version="0.9.1"
       transform="matrix(1.593996,0,0,-1.593996,-293.49301,729.35547)"><g
   id="g4788"
   transform="rotate(-90,158.47399,82.003114)">
<g
   id="g4762"
   style="fill:#000000;fill-opacity:1">
  <path
   id="path4760"
   transform="translate(148.712,134.765)"
   d="m 6.640625,-6.75 h -6.09375 l -0.1875,2.25 h 0.25 C 0.75,-6.109375 0.890625,-6.4375 2.40625,-6.4375 c 0.171875,0 0.4375,0 0.53125,0.015625 0.21875,0.046875 0.21875,0.15625 0.21875,0.375 v 5.265625 c 0,0.328125 0,0.46875 -1.046875,0.46875 H 1.703125 V 0 C 2.109375,-0.03125 3.125,-0.03125 3.59375,-0.03125 c 0.453125,0 1.484375,0 1.890625,0.03125 v -0.3125 h -0.40625 c -1.046875,0 -1.046875,-0.140625 -1.046875,-0.46875 v -5.265625 c 0,-0.1875 0,-0.328125 0.1875,-0.375 0.109375,-0.015625 0.375,-0.015625 0.5625,-0.015625 1.515625,0 1.65625,0.328125 1.796875,1.9375 h 0.25 z m 0,0"
   style="stroke:none;stroke-width:0"
   inkscape:connector-curvature="0" />
</g>
<g
   id="g4786"
   style="fill:#000000;fill-opacity:1">
  <path
   id="path4764"
   transform="translate(155.08009,134.765)"
   d="M 1.671875,-3.3125 V -4.40625 L 0.28125,-4.296875 v 0.3125 c 0.703125,0 0.78125,0.0625 0.78125,0.5625 V -0.75 c 0,0.4375 -0.109375,0.4375 -0.78125,0.4375 V 0 c 0.390625,-0.015625 0.859375,-0.03125 1.140625,-0.03125 0.390625,0 0.859375,0 1.265625,0.03125 V -0.3125 H 2.46875 c -0.734375,0 -0.75,-0.109375 -0.75,-0.46875 V -2.3125 c 0,-0.984375 0.421875,-1.875 1.171875,-1.875 0.0625,0 0.09375,0 0.109375,0.015625 -0.03125,0 -0.234375,0.125 -0.234375,0.390625 0,0.265625 0.21875,0.421875 0.4375,0.421875 0.171875,0 0.421875,-0.125 0.421875,-0.4375 0,-0.3125 -0.3125,-0.609375 -0.734375,-0.609375 -0.734375,0 -1.09375,0.671875 -1.21875,1.09375 z m 0,0"
   style="stroke:none;stroke-width:0"
   inkscape:connector-curvature="0" />
<path
   id="path4766"
   transform="translate(158.98244,134.765)"
   d="m 3.3125,-0.75 c 0.046875,0.390625 0.3125,0.8125 0.78125,0.8125 0.21875,0 0.828125,-0.140625 0.828125,-0.953125 v -0.5625 h -0.25 v 0.5625 c 0,0.578125 -0.25,0.640625 -0.359375,0.640625 -0.328125,0 -0.375,-0.453125 -0.375,-0.5 v -1.984375 c 0,-0.421875 0,-0.8125 -0.359375,-1.1875 C 3.1875,-4.3125 2.6875,-4.46875 2.21875,-4.46875 c -0.828125,0 -1.515625,0.46875 -1.515625,1.125 0,0.296875 0.203125,0.46875 0.46875,0.46875 0.28125,0 0.453125,-0.203125 0.453125,-0.453125 0,-0.125 -0.046875,-0.453125 -0.515625,-0.453125 C 1.390625,-4.140625 1.875,-4.25 2.1875,-4.25 c 0.5,0 1.0625,0.390625 1.0625,1.28125 v 0.359375 c -0.515625,0.03125 -1.203125,0.0625 -1.828125,0.359375 -0.75,0.34375 -1,0.859375 -1,1.296875 0,0.8125 0.96875,1.0625 1.59375,1.0625 0.65625,0 1.109375,-0.40625 1.296875,-0.859375 z M 3.25,-2.390625 v 1 c 0,0.9375 -0.71875,1.28125 -1.171875,1.28125 -0.484375,0 -0.890625,-0.34375 -0.890625,-0.84375 0,-0.546875 0.421875,-1.375 2.0625,-1.4375 z m 0,0"
   style="stroke:none;stroke-width:0"
   inkscape:connector-curvature="0" />
<path
   id="path4768"
   transform="translate(163.96374,134.765)"
   d="M 1.09375,-3.421875 V -0.75 c 0,0.4375 -0.109375,0.4375 -0.78125,0.4375 V 0 c 0.359375,-0.015625 0.859375,-0.03125 1.140625,-0.03125 0.25,0 0.765625,0.015625 1.109375,0.03125 v -0.3125 c -0.671875,0 -0.78125,0 -0.78125,-0.4375 V -2.59375 C 1.78125,-3.625 2.5,-4.1875 3.125,-4.1875 c 0.640625,0 0.75,0.53125 0.75,1.109375 V -0.75 c 0,0.4375 -0.109375,0.4375 -0.78125,0.4375 V 0 c 0.34375,-0.015625 0.859375,-0.03125 1.125,-0.03125 0.25,0 0.78125,0.015625 1.109375,0.03125 v -0.3125 c -0.515625,0 -0.765625,0 -0.765625,-0.296875 v -1.90625 c 0,-0.859375 0,-1.15625 -0.3125,-1.515625 -0.140625,-0.171875 -0.46875,-0.375 -1.046875,-0.375 C 2.46875,-4.40625 2,-3.984375 1.71875,-3.359375 V -4.40625 L 0.3125,-4.296875 v 0.3125 c 0.703125,0 0.78125,0.0625 0.78125,0.5625 z m 0,0"
   style="stroke:none;stroke-width:0"
   inkscape:connector-curvature="0" />
<path
   id="path4770"
   transform="translate(169.49896,134.765)"
   d="m 2.078125,-1.9375 c 0.21875,0.046875 1.03125,0.203125 1.03125,0.921875 0,0.5 -0.34375,0.90625 -1.125,0.90625 -0.84375,0 -1.203125,-0.5625 -1.390625,-1.421875 C 0.5625,-1.65625 0.5625,-1.6875 0.453125,-1.6875 c -0.125,0 -0.125,0.0625 -0.125,0.234375 V -0.125 c 0,0.171875 0,0.234375 0.109375,0.234375 0.046875,0 0.0625,-0.015625 0.25,-0.203125 0.015625,-0.015625 0.015625,-0.03125 0.203125,-0.21875 0.4375,0.40625 0.890625,0.421875 1.09375,0.421875 1.140625,0 1.609375,-0.671875 1.609375,-1.390625 0,-0.515625 -0.296875,-0.828125 -0.421875,-0.9375 C 2.84375,-2.546875 2.453125,-2.625 2.03125,-2.703125 1.46875,-2.8125 0.8125,-2.9375 0.8125,-3.515625 c 0,-0.359375 0.25,-0.765625 1.109375,-0.765625 1.09375,0 1.15625,0.90625 1.171875,1.203125 0,0.09375 0.09375,0.09375 0.109375,0.09375 0.140625,0 0.140625,-0.046875 0.140625,-0.234375 v -1.015625 c 0,-0.15625 0,-0.234375 -0.109375,-0.234375 -0.046875,0 -0.078125,0 -0.203125,0.125 -0.03125,0.03125 -0.125,0.125 -0.171875,0.15625 -0.375,-0.28125 -0.78125,-0.28125 -0.9375,-0.28125 -1.21875,0 -1.59375,0.671875 -1.59375,1.234375 0,0.34375 0.15625,0.625 0.421875,0.84375 0.328125,0.25 0.609375,0.3125 1.328125,0.453125 z m 0,0"
   style="stroke:none;stroke-width:0"
   inkscape:connector-curvature="0" />
<path
   id="path4772"
   transform="translate(173.42821,134.765)"
   d="M 1.09375,-3.421875 V -0.75 c 0,0.4375 -0.109375,0.4375 -0.78125,0.4375 V 0 c 0.359375,-0.015625 0.859375,-0.03125 1.140625,-0.03125 0.25,0 0.765625,0.015625 1.109375,0.03125 v -0.3125 c -0.671875,0 -0.78125,0 -0.78125,-0.4375 V -2.59375 C 1.78125,-3.625 2.5,-4.1875 3.125,-4.1875 c 0.640625,0 0.75,0.53125 0.75,1.109375 V -0.75 c 0,0.4375 -0.109375,0.4375 -0.78125,0.4375 V 0 c 0.34375,-0.015625 0.859375,-0.03125 1.125,-0.03125 0.25,0 0.78125,0.015625 1.109375,0.03125 v -0.3125 c -0.65625,0 -0.765625,0 -0.765625,-0.4375 v -1.84375 c 0,-1.03125 0.703125,-1.59375 1.34375,-1.59375 0.625,0 0.734375,0.53125 0.734375,1.109375 V -0.75 c 0,0.4375 -0.109375,0.4375 -0.78125,0.4375 V 0 c 0.34375,-0.015625 0.859375,-0.03125 1.125,-0.03125 0.265625,0 0.78125,0.015625 1.125,0.03125 v -0.3125 c -0.515625,0 -0.765625,0 -0.78125,-0.296875 v -1.90625 c 0,-0.859375 0,-1.15625 -0.3125,-1.515625 -0.140625,-0.171875 -0.46875,-0.375 -1.046875,-0.375 -0.828125,0 -1.28125,0.59375 -1.4375,0.984375 C 4.390625,-4.296875 3.65625,-4.40625 3.203125,-4.40625 2.46875,-4.40625 2,-3.984375 1.71875,-3.359375 V -4.40625 L 0.3125,-4.296875 v 0.3125 c 0.703125,0 0.78125,0.0625 0.78125,0.5625 z m 0,0"
   style="stroke:none;stroke-width:0"
   inkscape:connector-curvature="0" />
<path
   id="path4774"
   transform="translate(181.73005,134.765)"
   d="M 1.765625,-4.40625 0.375,-4.296875 v 0.3125 c 0.640625,0 0.734375,0.0625 0.734375,0.546875 V -0.75 c 0,0.4375 -0.109375,0.4375 -0.78125,0.4375 V 0 C 0.640625,-0.015625 1.1875,-0.03125 1.421875,-0.03125 1.78125,-0.03125 2.125,-0.015625 2.46875,0 v -0.3125 c -0.671875,0 -0.703125,-0.046875 -0.703125,-0.4375 z m 0.03125,-1.734375 c 0,-0.3125 -0.234375,-0.53125 -0.515625,-0.53125 -0.3125,0 -0.53125,0.265625 -0.53125,0.53125 0,0.265625 0.21875,0.53125 0.53125,0.53125 0.28125,0 0.515625,-0.21875 0.515625,-0.53125 z m 0,0"
   style="stroke:none;stroke-width:0"
   inkscape:connector-curvature="0" />
<path
   id="path4776"
   transform="translate(184.49766,134.765)"
   d="m 2.078125,-1.9375 c 0.21875,0.046875 1.03125,0.203125 1.03125,0.921875 0,0.5 -0.34375,0.90625 -1.125,0.90625 -0.84375,0 -1.203125,-0.5625 -1.390625,-1.421875 C 0.5625,-1.65625 0.5625,-1.6875 0.453125,-1.6875 c -0.125,0 -0.125,0.0625 -0.125,0.234375 V -0.125 c 0,0.171875 0,0.234375 0.109375,0.234375 0.046875,0 0.0625,-0.015625 0.25,-0.203125 0.015625,-0.015625 0.015625,-0.03125 0.203125,-0.21875 0.4375,0.40625 0.890625,0.421875 1.09375,0.421875 1.140625,0 1.609375,-0.671875 1.609375,-1.390625 0,-0.515625 -0.296875,-0.828125 -0.421875,-0.9375 C 2.84375,-2.546875 2.453125,-2.625 2.03125,-2.703125 1.46875,-2.8125 0.8125,-2.9375 0.8125,-3.515625 c 0,-0.359375 0.25,-0.765625 1.109375,-0.765625 1.09375,0 1.15625,0.90625 1.171875,1.203125 0,0.09375 0.09375,0.09375 0.109375,0.09375 0.140625,0 0.140625,-0.046875 0.140625,-0.234375 v -1.015625 c 0,-0.15625 0,-0.234375 -0.109375,-0.234375 -0.046875,0 -0.078125,0 -0.203125,0.125 -0.03125,0.03125 -0.125,0.125 -0.171875,0.15625 -0.375,-0.28125 -0.78125,-0.28125 -0.9375,-0.28125 -1.21875,0 -1.59375,0.671875 -1.59375,1.234375 0,0.34375 0.15625,0.625 0.421875,0.84375 0.328125,0.25 0.609375,0.3125 1.328125,0.453125 z m 0,0"
   style="stroke:none;stroke-width:0"
   inkscape:connector-curvature="0" />
<path
   id="path4778"
   transform="translate(188.42691,134.765)"
   d="m 2.078125,-1.9375 c 0.21875,0.046875 1.03125,0.203125 1.03125,0.921875 0,0.5 -0.34375,0.90625 -1.125,0.90625 -0.84375,0 -1.203125,-0.5625 -1.390625,-1.421875 C 0.5625,-1.65625 0.5625,-1.6875 0.453125,-1.6875 c -0.125,0 -0.125,0.0625 -0.125,0.234375 V -0.125 c 0,0.171875 0,0.234375 0.109375,0.234375 0.046875,0 0.0625,-0.015625 0.25,-0.203125 0.015625,-0.015625 0.015625,-0.03125 0.203125,-0.21875 0.4375,0.40625 0.890625,0.421875 1.09375,0.421875 1.140625,0 1.609375,-0.671875 1.609375,-1.390625 0,-0.515625 -0.296875,-0.828125 -0.421875,-0.9375 C 2.84375,-2.546875 2.453125,-2.625 2.03125,-2.703125 1.46875,-2.8125 0.8125,-2.9375 0.8125,-3.515625 c 0,-0.359375 0.25,-0.765625 1.109375,-0.765625 1.09375,0 1.15625,0.90625 1.171875,1.203125 0,0.09375 0.09375,0.09375 0.109375,0.09375 0.140625,0 0.140625,-0.046875 0.140625,-0.234375 v -1.015625 c 0,-0.15625 0,-0.234375 -0.109375,-0.234375 -0.046875,0 -0.078125,0 -0.203125,0.125 -0.03125,0.03125 -0.125,0.125 -0.171875,0.15625 -0.375,-0.28125 -0.78125,-0.28125 -0.9375,-0.28125 -1.21875,0 -1.59375,0.671875 -1.59375,1.234375 0,0.34375 0.15625,0.625 0.421875,0.84375 0.328125,0.25 0.609375,0.3125 1.328125,0.453125 z m 0,0"
   style="stroke:none;stroke-width:0"
   inkscape:connector-curvature="0" />
<path
   id="path4780"
   transform="translate(192.35616,134.765)"
   d="M 1.765625,-4.40625 0.375,-4.296875 v 0.3125 c 0.640625,0 0.734375,0.0625 0.734375,0.546875 V -0.75 c 0,0.4375 -0.109375,0.4375 -0.78125,0.4375 V 0 C 0.640625,-0.015625 1.1875,-0.03125 1.421875,-0.03125 1.78125,-0.03125 2.125,-0.015625 2.46875,0 v -0.3125 c -0.671875,0 -0.703125,-0.046875 -0.703125,-0.4375 z m 0.03125,-1.734375 c 0,-0.3125 -0.234375,-0.53125 -0.515625,-0.53125 -0.3125,0 -0.53125,0.265625 -0.53125,0.53125 0,0.265625 0.21875,0.53125 0.53125,0.53125 0.28125,0 0.515625,-0.21875 0.515625,-0.53125 z m 0,0"
   style="stroke:none;stroke-width:0"
   inkscape:connector-curvature="0" />
<path
   id="path4782"
   transform="translate(195.12377,134.765)"
   d="M 4.6875,-2.140625 C 4.6875,-3.40625 3.703125,-4.46875 2.5,-4.46875 c -1.25,0 -2.21875,1.09375 -2.21875,2.328125 0,1.296875 1.03125,2.25 2.203125,2.25 1.203125,0 2.203125,-0.984375 2.203125,-2.25 z m -2.1875,2 c -0.4375,0 -0.875,-0.203125 -1.140625,-0.671875 -0.25,-0.4375 -0.25,-1.046875 -0.25,-1.40625 0,-0.390625 0,-0.921875 0.234375,-1.359375 C 1.609375,-4.03125 2.078125,-4.25 2.484375,-4.25 c 0.4375,0 0.859375,0.21875 1.125,0.65625 0.265625,0.421875 0.265625,1 0.265625,1.375 0,0.359375 0,0.90625 -0.21875,1.34375 C 3.421875,-0.421875 2.984375,-0.140625 2.5,-0.140625 Z m 0,0"
   style="stroke:none;stroke-width:0"
   inkscape:connector-curvature="0" />
<path
   id="path4784"
   transform="translate(200.10507,134.765)"
   d="M 1.09375,-3.421875 V -0.75 c 0,0.4375 -0.109375,0.4375 -0.78125,0.4375 V 0 c 0.359375,-0.015625 0.859375,-0.03125 1.140625,-0.03125 0.25,0 0.765625,0.015625 1.109375,0.03125 v -0.3125 c -0.671875,0 -0.78125,0 -0.78125,-0.4375 V -2.59375 C 1.78125,-3.625 2.5,-4.1875 3.125,-4.1875 c 0.640625,0 0.75,0.53125 0.75,1.109375 V -0.75 c 0,0.4375 -0.109375,0.4375 -0.78125,0.4375 V 0 c 0.34375,-0.015625 0.859375,-0.03125 1.125,-0.03125 0.25,0 0.78125,0.015625 1.109375,0.03125 v -0.3125 c -0.515625,0 -0.765625,0 -0.765625,-0.296875 v -1.90625 c 0,-0.859375 0,-1.15625 -0.3125,-1.515625 -0.140625,-0.171875 -0.46875,-0.375 -1.046875,-0.375 C 2.46875,-4.40625 2,-3.984375 1.71875,-3.359375 V -4.40625 L 0.3125,-4.296875 v 0.3125 c 0.703125,0 0.78125,0.0625 0.78125,0.5625 z m 0,0"
   style="stroke:none;stroke-width:0"
   inkscape:connector-curvature="0" />
</g>
</g>
</g><path
       d="M 284.59111,538.99283 H 526.69403 V 723.63231 H 284.59111 Z"
       style="fill:#ffffff;fill-opacity:1;fill-rule:nonzero;stroke:none;stroke-width:0.59941024"
       id="path1814"
       inkscape:connector-curvature="0" /><path
       d="M 284.35472,562.07276 H 498.99811 V 701.47557 H 284.35472 Z"
       style="fill:#ffffff;fill-opacity:1;fill-rule:nonzero;stroke:none;stroke-width:0.64110929"
       id="path1816"
       inkscape:connector-curvature="0" /><path
       d="m 294.11123,562.07276 v -2.24388"
       style="fill:#000000;fill-opacity:1;fill-rule:nonzero;stroke:#000000;stroke-width:0.51288748;stroke-linecap:butt;stroke-linejoin:round;stroke-miterlimit:10;stroke-dasharray:none;stroke-opacity:1"
       id="path1818"
       inkscape:connector-curvature="0" /><text
       transform="scale(1,-1)"
       style="font-variant:normal;font-weight:normal;font-size:6.41109324px;font-family:'DejaVu Sans';-inkscape-font-specification:DejaVuSans;writing-mode:lr-tb;fill:#000000;fill-opacity:1;fill-rule:nonzero;stroke:none;stroke-width:0.64110929"
       id="text1822"
       x="289.01242"
       y="-552.71655"><tspan
         x="289.01242 293.08984 295.12857"
         y="-552.71655"
         sodipodi:role="line"
         id="tspan1820"
         style="stroke-width:0.64110929">0.4</tspan></text>
<path
       d="m 318.50253,562.07276 v -2.24388"
       style="fill:#000000;fill-opacity:1;fill-rule:nonzero;stroke:#000000;stroke-width:0.51288748;stroke-linecap:butt;stroke-linejoin:round;stroke-miterlimit:10;stroke-dasharray:none;stroke-opacity:1"
       id="path1824"
       inkscape:connector-curvature="0" /><text
       transform="scale(1,-1)"
       style="font-variant:normal;font-weight:normal;font-size:6.41109324px;font-family:'DejaVu Sans';-inkscape-font-specification:DejaVuSans;writing-mode:lr-tb;fill:#000000;fill-opacity:1;fill-rule:nonzero;stroke:none;stroke-width:0.64110929"
       id="text1828"
       x="313.40369"
       y="-552.71655"><tspan
         x="313.40369 317.48114 319.51987"
         y="-552.71655"
         sodipodi:role="line"
         id="tspan1826"
         style="stroke-width:0.64110929">0.5</tspan></text>
<path
       d="m 342.89382,562.07276 v -2.24388"
       style="fill:#000000;fill-opacity:1;fill-rule:nonzero;stroke:#000000;stroke-width:0.51288748;stroke-linecap:butt;stroke-linejoin:round;stroke-miterlimit:10;stroke-dasharray:none;stroke-opacity:1"
       id="path1830"
       inkscape:connector-curvature="0" /><text
       transform="scale(1,-1)"
       style="font-variant:normal;font-weight:normal;font-size:6.41109324px;font-family:'DejaVu Sans';-inkscape-font-specification:DejaVuSans;writing-mode:lr-tb;fill:#000000;fill-opacity:1;fill-rule:nonzero;stroke:none;stroke-width:0.64110929"
       id="text1834"
       x="337.79498"
       y="-552.71655"><tspan
         x="337.79498 341.87244 343.91116"
         y="-552.71655"
         sodipodi:role="line"
         id="tspan1832"
         style="stroke-width:0.64110929">0.6</tspan></text>
<path
       d="m 367.28512,562.07276 v -2.24388"
       style="fill:#000000;fill-opacity:1;fill-rule:nonzero;stroke:#000000;stroke-width:0.51288748;stroke-linecap:butt;stroke-linejoin:round;stroke-miterlimit:10;stroke-dasharray:none;stroke-opacity:1"
       id="path1836"
       inkscape:connector-curvature="0" /><text
       transform="scale(1,-1)"
       style="font-variant:normal;font-weight:normal;font-size:6.41109324px;font-family:'DejaVu Sans';-inkscape-font-specification:DejaVuSans;writing-mode:lr-tb;fill:#000000;fill-opacity:1;fill-rule:nonzero;stroke:none;stroke-width:0.64110929"
       id="text1840"
       x="362.18628"
       y="-552.71655"><tspan
         x="362.18628 366.26373 368.30246"
         y="-552.71655"
         sodipodi:role="line"
         id="tspan1838"
         style="stroke-width:0.64110929">0.7</tspan></text>
<path
       d="m 391.67641,562.07276 v -2.24388"
       style="fill:#000000;fill-opacity:1;fill-rule:nonzero;stroke:#000000;stroke-width:0.51288748;stroke-linecap:butt;stroke-linejoin:round;stroke-miterlimit:10;stroke-dasharray:none;stroke-opacity:1"
       id="path1842"
       inkscape:connector-curvature="0" /><text
       transform="scale(1,-1)"
       style="font-variant:normal;font-weight:normal;font-size:6.41109324px;font-family:'DejaVu Sans';-inkscape-font-specification:DejaVuSans;writing-mode:lr-tb;fill:#000000;fill-opacity:1;fill-rule:nonzero;stroke:none;stroke-width:0.64110929"
       id="text1846"
       x="386.57758"
       y="-552.71655"><tspan
         x="386.57758 390.65503 392.69373"
         y="-552.71655"
         sodipodi:role="line"
         id="tspan1844"
         style="stroke-width:0.64110929">0.8</tspan></text>
<path
       d="m 416.06771,562.07276 v -2.24388"
       style="fill:#000000;fill-opacity:1;fill-rule:nonzero;stroke:#000000;stroke-width:0.51288748;stroke-linecap:butt;stroke-linejoin:round;stroke-miterlimit:10;stroke-dasharray:none;stroke-opacity:1"
       id="path1848"
       inkscape:connector-curvature="0" /><text
       transform="scale(1,-1)"
       style="font-variant:normal;font-weight:normal;font-size:6.41109324px;font-family:'DejaVu Sans';-inkscape-font-specification:DejaVuSans;writing-mode:lr-tb;fill:#000000;fill-opacity:1;fill-rule:nonzero;stroke:none;stroke-width:0.64110929"
       id="text1852"
       x="410.96887"
       y="-552.71655"><tspan
         x="410.96887 415.04633 417.08508"
         y="-552.71655"
         sodipodi:role="line"
         id="tspan1850"
         style="stroke-width:0.64110929">0.9</tspan></text>
<path
       d="m 440.459,562.07276 v -2.24388"
       style="fill:#000000;fill-opacity:1;fill-rule:nonzero;stroke:#000000;stroke-width:0.51288748;stroke-linecap:butt;stroke-linejoin:round;stroke-miterlimit:10;stroke-dasharray:none;stroke-opacity:1"
       id="path1854"
       inkscape:connector-curvature="0" /><text
       transform="scale(1,-1)"
       style="font-variant:normal;font-weight:normal;font-size:6.41109324px;font-family:'DejaVu Sans';-inkscape-font-specification:DejaVuSans;writing-mode:lr-tb;fill:#000000;fill-opacity:1;fill-rule:nonzero;stroke:none;stroke-width:0.64110929"
       id="text1858"
       x="435.36017"
       y="-552.71655"><tspan
         x="435.36017 439.43762 441.47632"
         y="-552.71655"
         sodipodi:role="line"
         id="tspan1856"
         style="stroke-width:0.64110929">1.0</tspan></text>
<path
       d="m 464.85029,562.07276 v -2.24388"
       style="fill:#000000;fill-opacity:1;fill-rule:nonzero;stroke:#000000;stroke-width:0.51288748;stroke-linecap:butt;stroke-linejoin:round;stroke-miterlimit:10;stroke-dasharray:none;stroke-opacity:1"
       id="path1860"
       inkscape:connector-curvature="0" /><text
       transform="scale(1,-1)"
       style="font-variant:normal;font-weight:normal;font-size:6.41109324px;font-family:'DejaVu Sans';-inkscape-font-specification:DejaVuSans;writing-mode:lr-tb;fill:#000000;fill-opacity:1;fill-rule:nonzero;stroke:none;stroke-width:0.64110929"
       id="text1864"
       x="459.7514"
       y="-552.71655"><tspan
         x="459.7514 463.82886 465.86768"
         y="-552.71655"
         sodipodi:role="line"
         id="tspan1862"
         style="stroke-width:0.64110929">1.1</tspan></text>
<path
       d="m 489.24159,562.07276 v -2.24388"
       style="fill:#000000;fill-opacity:1;fill-rule:nonzero;stroke:#000000;stroke-width:0.51288748;stroke-linecap:butt;stroke-linejoin:round;stroke-miterlimit:10;stroke-dasharray:none;stroke-opacity:1"
       id="path1866"
       inkscape:connector-curvature="0" /><text
       transform="scale(1,-1)"
       style="font-variant:normal;font-weight:normal;font-size:6.41109324px;font-family:'DejaVu Sans';-inkscape-font-specification:DejaVuSans;writing-mode:lr-tb;fill:#000000;fill-opacity:1;fill-rule:nonzero;stroke:none;stroke-width:0.64110929"
       id="text1870"
       x="484.14276"
       y="-552.71655"><tspan
         x="484.14276 488.22015 490.25891"
         y="-552.71655"
         sodipodi:role="line"
         id="tspan1868"
         style="stroke-width:0.64110929">1.2</tspan></text>
<path
       d="m 501.37102,565.52086 h -2.24389"
       style="fill:#000000;fill-opacity:1;fill-rule:nonzero;stroke:#000000;stroke-width:0.51288748;stroke-linecap:butt;stroke-linejoin:round;stroke-miterlimit:10;stroke-dasharray:none;stroke-opacity:1"
       id="path1872"
       inkscape:connector-curvature="0" /><text
       transform="scale(1,-1)"
       style="font-variant:normal;font-weight:normal;font-size:6.41109324px;font-family:'DejaVu Sans';-inkscape-font-specification:DejaVuSans;writing-mode:lr-tb;fill:#000000;fill-opacity:1;fill-rule:nonzero;stroke:none;stroke-width:0.64110929"
       id="text1876"
       x="505.289"
       y="-563.08661"><tspan
         x="505.289 509.36646 511.40515 515.48267"
         y="-563.08661"
         sodipodi:role="line"
         id="tspan1874"
         style="stroke-width:0.64110929">0.00</tspan></text>
<path
       d="m 501.37102,583.49232 h -2.24389"
       style="fill:#000000;fill-opacity:1;fill-rule:nonzero;stroke:#000000;stroke-width:0.51288748;stroke-linecap:butt;stroke-linejoin:round;stroke-miterlimit:10;stroke-dasharray:none;stroke-opacity:1"
       id="path1878"
       inkscape:connector-curvature="0" /><text
       transform="scale(1,-1)"
       style="font-variant:normal;font-weight:normal;font-size:6.41109324px;font-family:'DejaVu Sans';-inkscape-font-specification:DejaVuSans;writing-mode:lr-tb;fill:#000000;fill-opacity:1;fill-rule:nonzero;stroke:none;stroke-width:0.64110929"
       id="text1882"
       x="505.289"
       y="-581.05811"><tspan
         x="505.289 509.36646 511.40515 515.48267"
         y="-581.05811"
         sodipodi:role="line"
         id="tspan1880"
         style="stroke-width:0.64110929">0.05</tspan></text>
<path
       d="m 501.37102,601.46378 h -2.24389"
       style="fill:#000000;fill-opacity:1;fill-rule:nonzero;stroke:#000000;stroke-width:0.51288748;stroke-linecap:butt;stroke-linejoin:round;stroke-miterlimit:10;stroke-dasharray:none;stroke-opacity:1"
       id="path1884"
       inkscape:connector-curvature="0" /><text
       transform="scale(1,-1)"
       style="font-variant:normal;font-weight:normal;font-size:6.41109324px;font-family:'DejaVu Sans';-inkscape-font-specification:DejaVuSans;writing-mode:lr-tb;fill:#000000;fill-opacity:1;fill-rule:nonzero;stroke:none;stroke-width:0.64110929"
       id="text1888"
       x="505.289"
       y="-599.02954"><tspan
         x="505.289 509.36646 511.40515 515.48267"
         y="-599.02954"
         sodipodi:role="line"
         id="tspan1886"
         style="stroke-width:0.64110929">0.10</tspan></text>
<path
       d="m 501.37102,619.43524 h -2.24389"
       style="fill:#000000;fill-opacity:1;fill-rule:nonzero;stroke:#000000;stroke-width:0.51288748;stroke-linecap:butt;stroke-linejoin:round;stroke-miterlimit:10;stroke-dasharray:none;stroke-opacity:1"
       id="path1890"
       inkscape:connector-curvature="0" /><text
       transform="scale(1,-1)"
       style="font-variant:normal;font-weight:normal;font-size:6.41109324px;font-family:'DejaVu Sans';-inkscape-font-specification:DejaVuSans;writing-mode:lr-tb;fill:#000000;fill-opacity:1;fill-rule:nonzero;stroke:none;stroke-width:0.64110929"
       id="text1894"
       x="505.289"
       y="-617.00104"><tspan
         x="505.289 509.36646 511.40515 515.48267"
         y="-617.00104"
         sodipodi:role="line"
         id="tspan1892"
         style="stroke-width:0.64110929">0.15</tspan></text>
<path
       d="m 501.37102,637.40671 h -2.24389"
       style="fill:#000000;fill-opacity:1;fill-rule:nonzero;stroke:#000000;stroke-width:0.51288748;stroke-linecap:butt;stroke-linejoin:round;stroke-miterlimit:10;stroke-dasharray:none;stroke-opacity:1"
       id="path1896"
       inkscape:connector-curvature="0" /><text
       transform="scale(1,-1)"
       style="font-variant:normal;font-weight:normal;font-size:6.41109324px;font-family:'DejaVu Sans';-inkscape-font-specification:DejaVuSans;writing-mode:lr-tb;fill:#000000;fill-opacity:1;fill-rule:nonzero;stroke:none;stroke-width:0.64110929"
       id="text1900"
       x="505.289"
       y="-634.97247"><tspan
         x="505.289 509.36646 511.40515 515.48267"
         y="-634.97247"
         sodipodi:role="line"
         id="tspan1898"
         style="stroke-width:0.64110929">0.20</tspan></text>
<path
       d="m 501.37102,655.37817 h -2.24389"
       style="fill:#000000;fill-opacity:1;fill-rule:nonzero;stroke:#000000;stroke-width:0.51288748;stroke-linecap:butt;stroke-linejoin:round;stroke-miterlimit:10;stroke-dasharray:none;stroke-opacity:1"
       id="path1902"
       inkscape:connector-curvature="0" /><text
       transform="scale(1,-1)"
       style="font-variant:normal;font-weight:normal;font-size:6.41109324px;font-family:'DejaVu Sans';-inkscape-font-specification:DejaVuSans;writing-mode:lr-tb;fill:#000000;fill-opacity:1;fill-rule:nonzero;stroke:none;stroke-width:0.64110929"
       id="text1906"
       x="505.289"
       y="-652.94391"><tspan
         x="505.289 509.36646 511.40515 515.48267"
         y="-652.94391"
         sodipodi:role="line"
         id="tspan1904"
         style="stroke-width:0.64110929">0.25</tspan></text>
<path
       d="m 501.37102,673.34964 h -2.24389"
       style="fill:#000000;fill-opacity:1;fill-rule:nonzero;stroke:#000000;stroke-width:0.51288748;stroke-linecap:butt;stroke-linejoin:round;stroke-miterlimit:10;stroke-dasharray:none;stroke-opacity:1"
       id="path1908"
       inkscape:connector-curvature="0" /><text
       transform="scale(1,-1)"
       style="font-variant:normal;font-weight:normal;font-size:6.41109324px;font-family:'DejaVu Sans';-inkscape-font-specification:DejaVuSans;writing-mode:lr-tb;fill:#000000;fill-opacity:1;fill-rule:nonzero;stroke:none;stroke-width:0.64110929"
       id="text1912"
       x="505.289"
       y="-670.91541"><tspan
         x="505.289 509.36646 511.40515 515.48267"
         y="-670.91541"
         sodipodi:role="line"
         id="tspan1910"
         style="stroke-width:0.64110929">0.30</tspan></text>
<path
       d="m 501.37102,691.32111 h -2.24389"
       style="fill:#000000;fill-opacity:1;fill-rule:nonzero;stroke:#000000;stroke-width:0.51288748;stroke-linecap:butt;stroke-linejoin:round;stroke-miterlimit:10;stroke-dasharray:none;stroke-opacity:1"
       id="path1914"
       inkscape:connector-curvature="0" /><text
       transform="scale(1,-1)"
       style="font-variant:normal;font-weight:normal;font-size:6.41109324px;font-family:'DejaVu Sans';-inkscape-font-specification:DejaVuSans;writing-mode:lr-tb;fill:#000000;fill-opacity:1;fill-rule:nonzero;stroke:none;stroke-width:0.64110929"
       id="text1918"
       x="505.289"
       y="-688.88678"><tspan
         x="505.289 509.36646 511.40515 515.48267"
         y="-688.88678"
         sodipodi:role="line"
         id="tspan1916"
         style="stroke-width:0.64110929">0.35</tspan></text>
<g
       id="g1920"
       transform="matrix(0.64110929,0,0,0.64110929,249.73481,538.99283)"><g
         id="g1922"
         clip-path="url(#clipPath1926-3)"><path
           d="m 69.218182,243.55636 1.914237,-13.32119 1.914236,-11.3475 1.914237,-9.02145 1.914237,-6.487 1.914236,-3.89839 1.914237,-1.40245 1.914237,0.86667 1.914236,2.78181 1.914237,4.22419 1.914237,5.11285 3.828473,10.67767 1.914237,4.65874 1.914237,3.80993 1.914236,2.82527 1.914237,1.81069 1.914241,0.83807 1.91423,-0.0551 1.91424,-0.86035 1.91424,-1.58661 1.91423,-2.23747 1.91424,-2.81237 1.91424,-3.3063 1.91423,-3.72219 1.91424,-4.07215 3.82847,-9.00474 3.82848,-9.86271 15.31389,-40.94959 5.74271,-14.31307 3.82847,-8.97665 3.82848,-8.37181 3.82847,-7.63986 3.82847,-6.8462 3.82848,-6.21016 3.82847,-5.531373 1.91424,-2.480687 1.91423,-2.2898 1.91424,-2.101781 1.91424,-1.916654 1.91423,-1.736864 1.91424,-1.56853 3.82847,-2.710546 3.82848,-2.246919 3.82847,-1.847109 3.82847,-1.507996 3.82848,-1.231798 3.82847,-1.014234 5.74271,-1.24666 7.65695,-1.637592 5.74271,-1.184857 21.0566,-3.831202 5.74271,-0.733262 5.74271,-0.469126 3.82848,-0.104775 3.82847,0.112339 3.82847,0.364509 3.82848,0.64726 3.82847,0.957826 3.82847,1.29235 3.82848,1.647134 3.82847,2.017683 3.82847,2.398329 3.82848,2.784773 3.82847,3.170999 3.82847,3.550178 3.82848,3.91813 3.82847,4.280687 3.82847,4.635961 3.82848,4.964547 3.82847,5.25656 5.74271,8.34899 5.74271,8.78372 9.57118,15.19247 11.48542,18.23098 5.74271,8.75463 5.74271,8.33932 5.74271,7.82817 3.82848,4.89254 v 0"
           style="fill:none;stroke:#1f77b4;stroke-width:1.5;stroke-linecap:square;stroke-linejoin:round;stroke-miterlimit:10;stroke-dasharray:none;stroke-opacity:1"
           id="path1928"
           inkscape:connector-curvature="0" /></g></g><g
       id="g1930"
       transform="matrix(0.64110929,0,0,0.64110929,249.73481,538.99283)"><g
         id="g1932"
         clip-path="url(#clipPath1936-7)"><path
           d="m 69.218182,180.45549 1.914237,-5.80944 1.914236,-4.16377 1.914237,-2.28256 1.914237,-0.33797 1.914236,1.56246 1.914237,3.39767 1.914237,5.36533 1.914236,11.03702 1.914237,3.76508 1.914237,4.13707 1.914237,3.66903 1.914236,2.79495 1.914237,1.70106 1.914237,0.53507 1.914236,-0.5895 1.914237,-1.59176 1.914241,-2.42812 1.91423,-3.08884 1.91424,-3.59169 1.91424,-3.96944 3.82847,-8.69565 7.65695,-18.15732 1.91423,-4.03183 1.91424,-3.46934 1.91424,-2.74681 1.91423,-1.98332 1.91424,-1.32906 1.91424,-0.88706 3.82847,-1.48102 1.91424,-1.0732 1.91423,-1.46442 1.91424,-1.82956 1.91424,-2.1249 1.91423,-2.38616 1.91424,-2.6565 1.91424,-2.93952 3.82847,-6.62404 3.82847,-7.31926 3.82848,-7.83976 13.39965,-28.486966 3.82848,-7.168796 1.91423,-3.253167 1.91424,-3.000433 1.91424,-2.742623 1.91423,-2.487951 1.91424,-2.243551 1.91424,-2.017161 1.91423,-1.811318 1.91424,-1.619196 1.91424,-1.436055 1.91423,-1.266643 1.91424,-1.11503 3.82847,-1.845178 3.82848,-1.455179 3.82847,-1.143645 3.82847,-0.868462 3.82848,-0.644497 3.82847,-0.455582 5.74271,-0.422225 5.74271,-0.161116 5.74271,0.07065 5.74271,0.27468 5.74271,0.494865 5.74271,0.727917 5.74271,1.022196 3.82848,0.877408 3.82847,1.043005 3.82847,1.227149 3.82848,1.436005 3.82847,1.679157 3.82847,1.966437 3.82848,2.279277 3.82847,2.606021 3.82847,2.954189 3.82848,3.328845 3.82847,3.730309 3.82847,4.147672 3.82848,4.565081 3.82847,4.980527 3.82847,5.397197 3.82848,5.799236 3.82847,6.168731 3.82847,6.51579 3.82848,6.88013 3.82847,7.33059 3.82847,7.83011 5.74271,12.48152 5.74271,13.0325 7.65695,17.99968 13.39966,32.11933 v 0"
           style="fill:none;stroke:#ff7f0e;stroke-width:1.5;stroke-linecap:square;stroke-linejoin:round;stroke-miterlimit:10;stroke-dasharray:none;stroke-opacity:1"
           id="path1938"
           inkscape:connector-curvature="0" /></g></g><g
       id="g1940"
       transform="matrix(0.64110929,0,0,0.64110929,249.73481,538.99283)"><path
         d="M 54,36 V 253.44"
         style="fill:none;stroke:#000000;stroke-width:0.80000001;stroke-linecap:square;stroke-linejoin:miter;stroke-miterlimit:10;stroke-dasharray:none;stroke-opacity:1"
         id="path1942"
         inkscape:connector-curvature="0" /><path
         d="M 388.8,36 V 253.44"
         style="fill:none;stroke:#000000;stroke-width:0.80000001;stroke-linecap:square;stroke-linejoin:miter;stroke-miterlimit:10;stroke-dasharray:none;stroke-opacity:1"
         id="path1944"
         inkscape:connector-curvature="0" /><path
         d="M 54,36 H 388.8"
         style="fill:none;stroke:#000000;stroke-width:0.80000001;stroke-linecap:square;stroke-linejoin:miter;stroke-miterlimit:10;stroke-dasharray:none;stroke-opacity:1"
         id="path1946"
         inkscape:connector-curvature="0" /><path
         d="M 54,253.44 H 388.8"
         style="fill:none;stroke:#000000;stroke-width:0.80000001;stroke-linecap:square;stroke-linejoin:miter;stroke-miterlimit:10;stroke-dasharray:none;stroke-opacity:1"
         id="path1948"
         inkscape:connector-curvature="0" /></g><path
       inkscape:connector-curvature="0"
       id="path2720"
       style="opacity:1;vector-effect:none;fill:#000000;fill-opacity:1;fill-rule:nonzero;stroke:#000000;stroke-width:0.51288748;stroke-linecap:butt;stroke-linejoin:round;stroke-miterlimit:10;stroke-dasharray:none;stroke-dashoffset:0;stroke-opacity:1"
       d="M 284.35472,562.07276 V 551.23418" /></g></svg>