<?xml version="1.0" encoding="UTF-8" standalone="no"?>
<!-- Created with Inkscape (http://www.inkscape.org/) -->

<svg
   xmlns:ns1="http://www.iki.fi/pav/software/textext/"
   xmlns:dc="http://purl.org/dc/elements/1.1/"
   xmlns:cc="http://creativecommons.org/ns#"
   xmlns:rdf="http://www.w3.org/1999/02/22-rdf-syntax-ns#"
   xmlns:svg="http://www.w3.org/2000/svg"
   xmlns="http://www.w3.org/2000/svg"
   xmlns:sodipodi="http://sodipodi.sourceforge.net/DTD/sodipodi-0.dtd"
   xmlns:inkscape="http://www.inkscape.org/namespaces/inkscape"
   width="210mm"
   height="297mm"
   viewBox="0 0 210 297"
   version="1.1"
   id="svg1764"
   sodipodi:docname="al_square.svg"
   inkscape:version="0.92.4 5da689c313, 2019-01-14">
  <defs
     id="defs1758">
    <clipPath
       clipPathUnits="userSpaceOnUse"
       id="clipPath3593">
      <rect
         style="opacity:1;vector-effect:none;fill:#000000;fill-opacity:1;stroke:none;stroke-width:0.26499999;stroke-linecap:butt;stroke-linejoin:miter;stroke-miterlimit:4;stroke-dasharray:none;stroke-dashoffset:0;stroke-opacity:1"
         id="rect3595"
         width="9.4801292"
         height="14.146115"
         x="40.45327"
         y="138.00171" />
    </clipPath>
    <clipPath
       clipPathUnits="userSpaceOnUse"
       id="clipPath3593-3">
      <rect
         style="opacity:1;vector-effect:none;fill:#000000;fill-opacity:1;stroke:none;stroke-width:0.26499999;stroke-linecap:butt;stroke-linejoin:miter;stroke-miterlimit:4;stroke-dasharray:none;stroke-dashoffset:0;stroke-opacity:1"
         id="rect3595-6"
         width="9.4801292"
         height="14.146115"
         x="40.45327"
         y="138.00171" />
    </clipPath>
    <clipPath
       clipPathUnits="userSpaceOnUse"
       id="clipPath3593-5">
      <rect
         style="opacity:1;vector-effect:none;fill:#000000;fill-opacity:1;stroke:none;stroke-width:0.26499999;stroke-linecap:butt;stroke-linejoin:miter;stroke-miterlimit:4;stroke-dasharray:none;stroke-dashoffset:0;stroke-opacity:1"
         id="rect3595-9"
         width="9.4801292"
         height="14.146115"
         x="40.45327"
         y="138.00171" />
    </clipPath>
  </defs>
  <sodipodi:namedview
     id="base"
     pagecolor="#ffffff"
     bordercolor="#666666"
     borderopacity="1.0"
     inkscape:pageopacity="0.0"
     inkscape:pageshadow="2"
     inkscape:zoom="1.6879412"
     inkscape:cx="404.64151"
     inkscape:cy="770.26856"
     inkscape:document-units="mm"
     inkscape:current-layer="layer1"
     showgrid="false"
     inkscape:window-width="1920"
     inkscape:window-height="1052"
     inkscape:window-x="0"
     inkscape:window-y="28"
     inkscape:window-maximized="1"
     inkscape:object-paths="true"
     inkscape:snap-object-midpoints="true"
     inkscape:snap-global="false" />
  <metadata
     id="metadata1761">
    <rdf:RDF>
      <cc:Work
         rdf:about="">
        <dc:format>image/svg+xml</dc:format>
        <dc:type
           rdf:resource="http://purl.org/dc/dcmitype/StillImage" />
        <dc:title></dc:title>
      </cc:Work>
    </rdf:RDF>
  </metadata>
  <g
     inkscape:label="Layer 1"
     inkscape:groupmode="layer"
     id="layer1">
    <rect
       style="opacity:1;vector-effect:none;fill:#c2c2c2;fill-opacity:1;stroke:none;stroke-width:0.26499999;stroke-linecap:butt;stroke-linejoin:miter;stroke-miterlimit:4;stroke-dasharray:none;stroke-dashoffset:0;stroke-opacity:1"
       id="rect2088"
       width="8.9779091"
       height="8.9779091"
       x="85.567223"
       y="101.92445" />
    <g
       id="g2100"
       transform="translate(-13.356025,0.94212618)">
      <rect
         y="96.60421"
         x="122.14389"
         height="16.847433"
         width="16.847433"
         id="rect2092"
         style="opacity:1;vector-effect:none;fill:#c2c2c2;fill-opacity:1;stroke:none;stroke-width:0.26499999;stroke-linecap:butt;stroke-linejoin:miter;stroke-miterlimit:4;stroke-dasharray:none;stroke-dashoffset:0;stroke-opacity:1" />
      <rect
         style="opacity:1;vector-effect:none;fill:#ffffff;fill-opacity:1;stroke:none;stroke-width:0.26499999;stroke-linecap:butt;stroke-linejoin:miter;stroke-miterlimit:4;stroke-dasharray:none;stroke-dashoffset:0;stroke-opacity:1"
         id="rect2090"
         width="8.9779091"
         height="8.9779091"
         x="126.07865"
         y="100.53897" />
    </g>
    <rect
       y="70.002998"
       x="85.567223"
       height="8.9779091"
       width="8.9779091"
       id="rect2102"
       style="opacity:1;vector-effect:none;fill:#ffcc00;fill-opacity:1;stroke:none;stroke-width:0.07300045;stroke-linecap:butt;stroke-linejoin:miter;stroke-miterlimit:4;stroke-dasharray:none;stroke-dashoffset:0;stroke-opacity:1;font-variant-east_asian:normal" />
    <rect
       y="65.624886"
       x="108.78786"
       height="16.847433"
       width="16.847433"
       id="rect2104"
       style="opacity:1;vector-effect:none;fill:#ffcc00;fill-opacity:1;stroke:none;stroke-width:0.07300045;stroke-linecap:butt;stroke-linejoin:miter;stroke-miterlimit:4;stroke-dasharray:none;stroke-dashoffset:0;stroke-opacity:1" />
    <rect
       style="opacity:1;vector-effect:none;fill:#ffffff;fill-opacity:1;stroke:none;stroke-width:0.07300045;stroke-linecap:butt;stroke-linejoin:miter;stroke-miterlimit:4;stroke-dasharray:none;stroke-dashoffset:0;stroke-opacity:1"
       id="rect2106"
       width="8.9779091"
       height="8.9779091"
       x="112.72263"
       y="69.559647" />
    <g
       id="g914"
       transform="matrix(0.98326724,0,0,0.98022543,1.4317752,1.23772)">
      <path
         inkscape:connector-curvature="0"
         id="path905"
         d="m 85.567223,81.841582 h 8.977913"
         style="fill:none;stroke:#000000;stroke-width:0.26458332px;stroke-linecap:butt;stroke-linejoin:miter;stroke-opacity:1" />
      <path
         inkscape:connector-curvature="0"
         id="path907"
         d="m 85.567223,80.901088 v 1.880989"
         style="fill:none;stroke:#000000;stroke-width:0.26458332px;stroke-linecap:butt;stroke-linejoin:miter;stroke-opacity:1" />
      <path
         style="fill:none;stroke:#000000;stroke-width:0.26458332px;stroke-linecap:butt;stroke-linejoin:miter;stroke-opacity:1"
         d="m 94.545136,80.901088 v 1.880989"
         id="path909"
         inkscape:connector-curvature="0" />
    </g>
    <g
       transform="matrix(0,0.98326724,-0.98022543,0,163.57365,-14.051498)"
       id="g922">
      <path
         style="fill:none;stroke:#000000;stroke-width:0.26458332px;stroke-linecap:butt;stroke-linejoin:miter;stroke-opacity:1"
         d="m 85.567223,81.841582 h 8.977913"
         id="path916"
         inkscape:connector-curvature="0" />
      <path
         style="fill:none;stroke:#000000;stroke-width:0.26458332px;stroke-linecap:butt;stroke-linejoin:miter;stroke-opacity:1"
         d="m 85.567223,80.901088 v 1.880989"
         id="path918"
         inkscape:connector-curvature="0" />
      <path
         inkscape:connector-curvature="0"
         id="path920"
         d="m 94.545136,80.901088 v 1.880989"
         style="fill:none;stroke:#000000;stroke-width:0.26458332px;stroke-linecap:butt;stroke-linejoin:miter;stroke-opacity:1" />
    </g>
    <g
       id="g953"
       ns1:jacobian_sqrt="0.423333"
       ns1:alignment="middle center"
       ns1:scale="1.2"
       ns1:preamble="/home/tim/.config/inkscape/extensions/textext/default_packages.tex"
       ns1:text="$w$"
       ns1:pdfconverter="pdf2svg"
       ns1:texconverter="pdflatex"
       ns1:version="0.9.1"
       transform="matrix(0.423333,0,0,0.423333,25.438791,28.387029)">
      <g
         id="surface1">
        <g
           id="g950"
           style="fill:#000000;fill-opacity:1">
          <path
             id="path948"
             transform="translate(148.712,134.765)"
             d="M 4.609375,-3.375 C 4.65625,-3.59375 4.75,-3.96875 4.75,-4.03125 c 0,-0.171875 -0.140625,-0.265625 -0.28125,-0.265625 -0.125,0 -0.296875,0.078125 -0.375,0.28125 -0.03125,0.0625 -0.5,1.96875 -0.5625,2.234375 C 3.453125,-1.484375 3.4375,-1.3125 3.4375,-1.125 c 0,0.109375 0,0.125 0.015625,0.171875 -0.234375,0.53125 -0.53125,0.84375 -0.921875,0.84375 -0.796875,0 -0.796875,-0.734375 -0.796875,-0.90625 0,-0.3125 0.046875,-0.703125 0.515625,-1.9375 0.109375,-0.296875 0.171875,-0.4375 0.171875,-0.640625 0,-0.4375 -0.328125,-0.8125 -0.8125,-0.8125 -0.953125,0 -1.3125,1.453125 -1.3125,1.53125 0,0.109375 0.09375,0.109375 0.109375,0.109375 0.109375,0 0.109375,-0.03125 0.15625,-0.1875 C 0.84375,-3.875 1.21875,-4.1875 1.578125,-4.1875 c 0.09375,0 0.25,0.015625 0.25,0.328125 0,0.25 -0.109375,0.53125 -0.1875,0.703125 -0.4375,1.171875 -0.546875,1.625 -0.546875,2.015625 0,0.90625 0.65625,1.25 1.40625,1.25 0.171875,0 0.640625,0 1.03125,-0.703125 0.265625,0.640625 0.953125,0.703125 1.25,0.703125 0.75,0 1.1875,-0.625 1.453125,-1.21875 0.328125,-0.78125 0.65625,-2.125 0.65625,-2.59375 0,-0.546875 -0.265625,-0.703125 -0.4375,-0.703125 -0.25,0 -0.5,0.265625 -0.5,0.484375 0,0.125 0.0625,0.1875 0.140625,0.265625 0.109375,0.109375 0.359375,0.359375 0.359375,0.84375 0,0.34375 -0.28125,1.3125 -0.546875,1.828125 -0.25,0.53125 -0.609375,0.875 -1.09375,0.875 -0.46875,0 -0.734375,-0.296875 -0.734375,-0.875 0,-0.265625 0.0625,-0.578125 0.109375,-0.71875 z m 0,0"
             style="stroke:none;stroke-width:0"
             inkscape:connector-curvature="0" />
        </g>
      </g>
    </g>
    <g
       id="g1003"
       ns1:jacobian_sqrt="0.423333"
       ns1:alignment="middle center"
       ns1:scale="1.2"
       ns1:preamble="/home/tim/.config/inkscape/extensions/textext/default_packages.tex"
       ns1:text="$l$"
       ns1:pdfconverter="pdf2svg"
       ns1:texconverter="pdflatex"
       ns1:version="0.9.1"
       transform="matrix(0.423333,0.000000,0.000000,0.423333,16.955994,18.999468)">
      <g
         id="g1001">
        <g
           id="g999"
           style="fill:rgb(0%,0%,0%);fill-opacity:1;">
          <path
             id="path997"
             transform="translate(148.712,134.765)"
             d="M 2.578125 -6.8125 C 2.578125 -6.8125 2.578125 -6.921875 2.4375 -6.921875 C 2.21875 -6.921875 1.484375 -6.84375 1.21875 -6.8125 C 1.140625 -6.8125 1.03125 -6.796875 1.03125 -6.609375 C 1.03125 -6.5 1.140625 -6.5 1.28125 -6.5 C 1.765625 -6.5 1.78125 -6.40625 1.78125 -6.328125 L 1.75 -6.125 L 0.484375 -1.140625 C 0.453125 -1.03125 0.4375 -0.96875 0.4375 -0.8125 C 0.4375 -0.234375 0.875 0.109375 1.34375 0.109375 C 1.671875 0.109375 1.921875 -0.09375 2.09375 -0.453125 C 2.265625 -0.828125 2.390625 -1.40625 2.390625 -1.421875 C 2.390625 -1.53125 2.296875 -1.53125 2.265625 -1.53125 C 2.171875 -1.53125 2.15625 -1.484375 2.140625 -1.34375 C 1.96875 -0.703125 1.78125 -0.109375 1.375 -0.109375 C 1.078125 -0.109375 1.078125 -0.421875 1.078125 -0.5625 C 1.078125 -0.8125 1.09375 -0.859375 1.140625 -1.046875 Z M 2.578125 -6.8125 "
             style="stroke:none;stroke-width:0" />
        </g>
      </g>
    </g>
    <g
       id="g1017"
       transform="matrix(0,0.98326724,-0.98022543,0,186.29552,-14.051498)">
      <path
         inkscape:connector-curvature="0"
         id="path1011"
         d="m 85.567223,81.841582 h 8.977913"
         style="fill:none;stroke:#000000;stroke-width:0.26458332px;stroke-linecap:butt;stroke-linejoin:miter;stroke-opacity:1" />
      <path
         inkscape:connector-curvature="0"
         id="path1013"
         d="m 85.567223,80.901088 v 1.880989"
         style="fill:none;stroke:#000000;stroke-width:0.26458332px;stroke-linecap:butt;stroke-linejoin:miter;stroke-opacity:1" />
      <path
         style="fill:none;stroke:#000000;stroke-width:0.26458332px;stroke-linecap:butt;stroke-linejoin:miter;stroke-opacity:1"
         d="m 94.545136,80.901088 v 1.880989"
         id="path1015"
         inkscape:connector-curvature="0" />
    </g>
    <g
       transform="matrix(0.423333,0,0,0.423333,39.677862,18.999468)"
       ns1:version="0.9.1"
       ns1:texconverter="pdflatex"
       ns1:pdfconverter="pdf2svg"
       ns1:text="$l$"
       ns1:preamble="/home/tim/.config/inkscape/extensions/textext/default_packages.tex"
       ns1:scale="1.2"
       ns1:alignment="middle center"
       ns1:jacobian_sqrt="0.423333"
       id="g1025">
      <g
         id="g1023">
        <g
           style="fill:#000000;fill-opacity:1"
           id="g1021">
          <path
             style="stroke:none;stroke-width:0"
             d="m 2.578125,-6.8125 c 0,0 0,-0.109375 -0.140625,-0.109375 -0.21875,0 -0.953125,0.078125 -1.21875,0.109375 -0.078125,0 -0.1875,0.015625 -0.1875,0.203125 0,0.109375 0.109375,0.109375 0.25,0.109375 0.484375,0 0.5,0.09375 0.5,0.171875 L 1.75,-6.125 0.484375,-1.140625 C 0.453125,-1.03125 0.4375,-0.96875 0.4375,-0.8125 c 0,0.578125 0.4375,0.921875 0.90625,0.921875 0.328125,0 0.578125,-0.203125 0.75,-0.5625 0.171875,-0.375 0.296875,-0.953125 0.296875,-0.96875 0,-0.109375 -0.09375,-0.109375 -0.125,-0.109375 -0.09375,0 -0.109375,0.046875 -0.125,0.1875 C 1.96875,-0.703125 1.78125,-0.109375 1.375,-0.109375 c -0.296875,0 -0.296875,-0.3125 -0.296875,-0.453125 0,-0.25 0.015625,-0.296875 0.0625,-0.484375 z m 0,0"
             transform="translate(148.712,134.765)"
             id="path1019"
             inkscape:connector-curvature="0" />
        </g>
      </g>
    </g>
    <g
       transform="matrix(0.98326724,0,0,0.98022543,28.975112,4.3411946)"
       id="g1033">
      <path
         style="fill:none;stroke:#000000;stroke-width:0.26458332px;stroke-linecap:butt;stroke-linejoin:miter;stroke-opacity:1"
         d="m 85.567223,81.841582 h 8.977913"
         id="path1027"
         inkscape:connector-curvature="0" />
      <path
         style="fill:none;stroke:#000000;stroke-width:0.26458332px;stroke-linecap:butt;stroke-linejoin:miter;stroke-opacity:1"
         d="m 85.567223,80.901088 v 1.880989"
         id="path1029"
         inkscape:connector-curvature="0" />
      <path
         inkscape:connector-curvature="0"
         id="path1031"
         d="m 94.545136,80.901088 v 1.880989"
         style="fill:none;stroke:#000000;stroke-width:0.26458332px;stroke-linecap:butt;stroke-linejoin:miter;stroke-opacity:1" />
    </g>
    <g
       transform="matrix(0.423333,0,0,0.423333,52.982128,31.490504)"
       ns1:version="0.9.1"
       ns1:texconverter="pdflatex"
       ns1:pdfconverter="pdf2svg"
       ns1:text="$w$"
       ns1:preamble="/home/tim/.config/inkscape/extensions/textext/default_packages.tex"
       ns1:scale="1.2"
       ns1:alignment="middle center"
       ns1:jacobian_sqrt="0.423333"
       id="g1041">
      <g
         id="g1039">
        <g
           style="fill:#000000;fill-opacity:1"
           id="g1037">
          <path
             inkscape:connector-curvature="0"
             style="stroke:none;stroke-width:0"
             d="M 4.609375,-3.375 C 4.65625,-3.59375 4.75,-3.96875 4.75,-4.03125 c 0,-0.171875 -0.140625,-0.265625 -0.28125,-0.265625 -0.125,0 -0.296875,0.078125 -0.375,0.28125 -0.03125,0.0625 -0.5,1.96875 -0.5625,2.234375 C 3.453125,-1.484375 3.4375,-1.3125 3.4375,-1.125 c 0,0.109375 0,0.125 0.015625,0.171875 -0.234375,0.53125 -0.53125,0.84375 -0.921875,0.84375 -0.796875,0 -0.796875,-0.734375 -0.796875,-0.90625 0,-0.3125 0.046875,-0.703125 0.515625,-1.9375 0.109375,-0.296875 0.171875,-0.4375 0.171875,-0.640625 0,-0.4375 -0.328125,-0.8125 -0.8125,-0.8125 -0.953125,0 -1.3125,1.453125 -1.3125,1.53125 0,0.109375 0.09375,0.109375 0.109375,0.109375 0.109375,0 0.109375,-0.03125 0.15625,-0.1875 C 0.84375,-3.875 1.21875,-4.1875 1.578125,-4.1875 c 0.09375,0 0.25,0.015625 0.25,0.328125 0,0.25 -0.109375,0.53125 -0.1875,0.703125 -0.4375,1.171875 -0.546875,1.625 -0.546875,2.015625 0,0.90625 0.65625,1.25 1.40625,1.25 0.171875,0 0.640625,0 1.03125,-0.703125 0.265625,0.640625 0.953125,0.703125 1.25,0.703125 0.75,0 1.1875,-0.625 1.453125,-1.21875 0.328125,-0.78125 0.65625,-2.125 0.65625,-2.59375 0,-0.546875 -0.265625,-0.703125 -0.4375,-0.703125 -0.25,0 -0.5,0.265625 -0.5,0.484375 0,0.125 0.0625,0.1875 0.140625,0.265625 0.109375,0.109375 0.359375,0.359375 0.359375,0.84375 0,0.34375 -0.28125,1.3125 -0.546875,1.828125 -0.25,0.53125 -0.609375,0.875 -1.09375,0.875 -0.46875,0 -0.734375,-0.296875 -0.734375,-0.875 0,-0.265625 0.0625,-0.578125 0.109375,-0.71875 z m 0,0"
             transform="translate(148.712,134.765)"
             id="path1035" />
        </g>
      </g>
    </g>
  </g>
</svg>
