<?xml version="1.0" encoding="UTF-8" standalone="no"?>
<!-- Created with Inkscape (http://www.inkscape.org/) -->

<svg
   xmlns:ns1="http://www.iki.fi/pav/software/textext/"
   xmlns:dc="http://purl.org/dc/elements/1.1/"
   xmlns:cc="http://creativecommons.org/ns#"
   xmlns:rdf="http://www.w3.org/1999/02/22-rdf-syntax-ns#"
   xmlns:svg="http://www.w3.org/2000/svg"
   xmlns="http://www.w3.org/2000/svg"
   xmlns:sodipodi="http://sodipodi.sourceforge.net/DTD/sodipodi-0.dtd"
   xmlns:inkscape="http://www.inkscape.org/namespaces/inkscape"
   width="210mm"
   height="297mm"
   viewBox="0 0 210 297"
   version="1.1"
   id="svg1168"
   inkscape:version="0.92.4 5da689c313, 2019-01-14"
   sodipodi:docname="al_true_params.svg">
  <defs
     id="defs1162" />
  <sodipodi:namedview
     id="base"
     pagecolor="#ffffff"
     bordercolor="#666666"
     borderopacity="1.0"
     inkscape:pageopacity="0.0"
     inkscape:pageshadow="2"
     inkscape:zoom="1.1935547"
     inkscape:cx="298.7174"
     inkscape:cy="479.79912"
     inkscape:document-units="mm"
     inkscape:current-layer="layer1"
     showgrid="false"
     inkscape:window-width="1920"
     inkscape:window-height="1052"
     inkscape:window-x="0"
     inkscape:window-y="28"
     inkscape:window-maximized="1" />
  <metadata
     id="metadata1165">
    <rdf:RDF>
      <cc:Work
         rdf:about="">
        <dc:format>image/svg+xml</dc:format>
        <dc:type
           rdf:resource="http://purl.org/dc/dcmitype/StillImage" />
        <dc:title></dc:title>
      </cc:Work>
    </rdf:RDF>
  </metadata>
  <g
     inkscape:label="Layer 1"
     inkscape:groupmode="layer"
     id="layer1">
    <g
       id="g6219"
       transform="translate(-5.349795,12.857252)">
      <g
         transform="translate(-5.5419231)"
         id="g4522">
        <path
           inkscape:connector-curvature="0"
           id="path332"
           style="fill:#ffffff;fill-opacity:1;fill-rule:nonzero;stroke:none;stroke-width:0.35277775"
           d="M 146.10279,209.03044 H 192.6193 V 115.15205 H 146.10279 Z" />
        <path
           inkscape:connector-curvature="0"
           id="path400"
           style="fill:none;stroke:#000000;stroke-width:0.28222221;stroke-linecap:square;stroke-linejoin:miter;stroke-miterlimit:10;stroke-dasharray:none;stroke-opacity:1"
           d="M 146.10279,209.03044 V 115.15205" />
        <path
           inkscape:connector-curvature="0"
           id="path402"
           style="fill:none;stroke:#000000;stroke-width:0.28222221;stroke-linecap:square;stroke-linejoin:miter;stroke-miterlimit:10;stroke-dasharray:none;stroke-opacity:1"
           d="M 192.6193,209.03044 V 115.15205" />
        <path
           inkscape:connector-curvature="0"
           id="path404"
           style="fill:none;stroke:#000000;stroke-width:0.28222221;stroke-linecap:square;stroke-linejoin:miter;stroke-miterlimit:10;stroke-dasharray:none;stroke-opacity:1"
           d="M 146.10279,209.03044 H 192.6193" />
        <path
           inkscape:connector-curvature="0"
           id="path406"
           style="fill:none;stroke:#000000;stroke-width:0.28222221;stroke-linecap:square;stroke-linejoin:miter;stroke-miterlimit:10;stroke-dasharray:none;stroke-opacity:1"
           d="M 146.10279,115.15205 H 192.6193" />
        <text
           id="text410"
           style="font-variant:normal;font-weight:normal;font-size:3.52777767px;font-family:'DejaVu Sans';-inkscape-font-specification:DejaVuSans;writing-mode:lr-tb;fill:#000000;fill-opacity:1;fill-rule:nonzero;stroke:none;stroke-width:0.35277775"
           x="150.75444"
           y="125.28124">
          <tspan
             style="stroke-width:0.35277775"
             id="tspan408"
             sodipodi:role="line"
             y="125.28124"
             x="150.75444 152.71941 154.88193 156.97038 159.13995 160.58989 161.71172 163.95538">Layer 1:</tspan>
        </text>
        <text
           id="text414"
           style="font-variant:normal;font-weight:normal;font-size:3.52777767px;font-family:'DejaVu Sans';-inkscape-font-specification:DejaVuSans;writing-mode:lr-tb;fill:#000000;fill-opacity:1;fill-rule:nonzero;stroke:none;stroke-width:0.35277775"
           x="150.75444"
           y="129.22903">
          <tspan
             style="stroke-width:0.35277775"
             id="tspan412"
             sodipodi:role="line"
             y="129.22903"
             x="150.75444 154.19049 156.35301 157.7359 159.9055 161.35541 162.33612 164.49864 165.47939 166.66824 167.79007 170.20308">material: Au</tspan>
        </text>
        <text
           id="text418"
           style="font-variant:normal;font-weight:normal;font-size:3.52777767px;font-family:'DejaVu Sans';-inkscape-font-specification:DejaVuSans;writing-mode:lr-tb;fill:#000000;fill-opacity:1;fill-rule:nonzero;stroke:none;stroke-width:0.35277775"
           x="150.75444"
           y="133.17682">
          <tspan
             style="stroke-width:0.35277775"
             id="tspan416"
             sodipodi:role="line"
             y="133.17682"
             x="150.75444 152.99104 155.15004 156.13077 158.30034 160.13832 161.32718 162.44901 164.68562 166.84464 167.82533 169.99493">holes: holes</tspan>
        </text>
        <text
           id="text422"
           style="font-variant:normal;font-weight:normal;font-size:3.52777767px;font-family:'DejaVu Sans';-inkscape-font-specification:DejaVuSans;writing-mode:lr-tb;fill:#000000;fill-opacity:1;fill-rule:nonzero;stroke:none;stroke-width:0.35277775"
           x="150.75444"
           y="137.12463">
          <tspan
             style="stroke-width:0.35277775"
             id="tspan420"
             sodipodi:role="line"
             y="137.12463"
             x="150.75444 153.64015 154.62086 156.86102 158.2439 160.48053 161.66939 162.79121 165.03488 167.27853">width: 180</tspan>
        </text>
        <text
           id="text426"
           style="font-variant:normal;font-weight:normal;font-size:3.52777767px;font-family:'DejaVu Sans';-inkscape-font-specification:DejaVuSans;writing-mode:lr-tb;fill:#000000;fill-opacity:1;fill-rule:nonzero;stroke:none;stroke-width:0.35277775"
           x="150.75444"
           y="141.07245">
          <tspan
             style="stroke-width:0.35277775"
             id="tspan424"
             sodipodi:role="line"
             y="141.07245"
             x="150.75444 151.73515 153.90474 156.14134 158.38148 159.76437 162.00099 163.18985 164.31169 166.55534">length: 80</tspan>
        </text>
        <text
           id="text430"
           style="font-variant:normal;font-weight:normal;font-size:3.52777767px;font-family:'DejaVu Sans';-inkscape-font-specification:DejaVuSans;writing-mode:lr-tb;fill:#000000;fill-opacity:1;fill-rule:nonzero;stroke:none;stroke-width:0.35277775"
           x="150.75444"
           y="145.02023">
          <tspan
             style="stroke-width:0.35277775"
             id="tspan428"
             sodipodi:role="line"
             y="145.02023"
             x="150.75444 152.13731 154.37395 155.35464 157.29494 159.33751 161.57413 163.74371 165.58168 167.41966 168.60852 169.73035 171.97401">thickness: 20</tspan>
        </text>
        <text
           id="text434"
           style="font-variant:normal;font-weight:normal;font-size:3.52777767px;font-family:'DejaVu Sans';-inkscape-font-specification:DejaVuSans;writing-mode:lr-tb;fill:#000000;fill-opacity:1;fill-rule:nonzero;stroke:none;stroke-width:0.35277775"
           x="150.75444"
           y="148.96805">
          <tspan
             style="stroke-width:0.35277775"
             id="tspan432"
             sodipodi:role="line"
             y="148.96805"
             x="150.75444 152.99457 155.16415 156.61407 157.59479 159.7538 161.99393 164.1635 165.35239 166.47421 168.71788 170.96153">periode: 250</tspan>
        </text>
        <text
           id="text438"
           style="font-variant:normal;font-weight:normal;font-size:3.52777767px;font-family:'DejaVu Sans';-inkscape-font-specification:DejaVuSans;writing-mode:lr-tb;fill:#000000;fill-opacity:1;fill-rule:nonzero;stroke:none;stroke-width:0.35277775"
           x="150.75444"
           y="156.86366">
          <tspan
             style="stroke-width:0.35277775"
             id="tspan436"
             sodipodi:role="line"
             y="156.86366"
             x="150.75444 152.71941 154.88193 156.97038 159.13995 160.58989 161.71172 163.95538">Layer 2:</tspan>
        </text>
        <text
           id="text442"
           style="font-variant:normal;font-weight:normal;font-size:3.52777767px;font-family:'DejaVu Sans';-inkscape-font-specification:DejaVuSans;writing-mode:lr-tb;fill:#000000;fill-opacity:1;fill-rule:nonzero;stroke:none;stroke-width:0.35277775"
           x="150.75444"
           y="160.81146">
          <tspan
             style="stroke-width:0.35277775"
             id="tspan440"
             sodipodi:role="line"
             y="160.81146"
             x="150.75444 154.19049 156.35301 157.7359 159.9055 161.35541 162.33612 164.49864 165.47939 166.66824 167.79007 170.20308">material: Al</tspan>
        </text>
        <text
           id="text446"
           style="font-variant:normal;font-weight:normal;font-size:3.52777767px;font-family:'DejaVu Sans';-inkscape-font-specification:DejaVuSans;writing-mode:lr-tb;fill:#000000;fill-opacity:1;fill-rule:nonzero;stroke:none;stroke-width:0.35277775"
           x="150.75444"
           y="164.75926">
          <tspan
             style="stroke-width:0.35277775"
             id="tspan444"
             sodipodi:role="line"
             y="164.75926"
             x="150.75444 152.99104 155.15004 156.13077 158.30034 160.13832 161.32718 162.44901 164.68562 166.84464 167.82533 169.99493">holes: holes</tspan>
        </text>
        <text
           id="text450"
           style="font-variant:normal;font-weight:normal;font-size:3.52777767px;font-family:'DejaVu Sans';-inkscape-font-specification:DejaVuSans;writing-mode:lr-tb;fill:#000000;fill-opacity:1;fill-rule:nonzero;stroke:none;stroke-width:0.35277775"
           x="150.75444"
           y="168.70708">
          <tspan
             style="stroke-width:0.35277775"
             id="tspan448"
             sodipodi:role="line"
             y="168.70708"
             x="150.75444 153.64015 154.62086 156.86102 158.2439 160.48053 161.66939 162.79121 165.03488 167.27853">width: 150</tspan>
        </text>
        <text
           id="text454"
           style="font-variant:normal;font-weight:normal;font-size:3.52777767px;font-family:'DejaVu Sans';-inkscape-font-specification:DejaVuSans;writing-mode:lr-tb;fill:#000000;fill-opacity:1;fill-rule:nonzero;stroke:none;stroke-width:0.35277775"
           x="150.75444"
           y="172.65488">
          <tspan
             style="stroke-width:0.35277775"
             id="tspan452"
             sodipodi:role="line"
             y="172.65488"
             x="150.75444 151.73515 153.90474 156.14134 158.38148 159.76437 162.00099 163.18985 164.31169 166.55534">length: 90</tspan>
        </text>
        <text
           id="text458"
           style="font-variant:normal;font-weight:normal;font-size:3.52777767px;font-family:'DejaVu Sans';-inkscape-font-specification:DejaVuSans;writing-mode:lr-tb;fill:#000000;fill-opacity:1;fill-rule:nonzero;stroke:none;stroke-width:0.35277775"
           x="150.75444"
           y="176.60268">
          <tspan
             style="stroke-width:0.35277775"
             id="tspan456"
             sodipodi:role="line"
             y="176.60268"
             x="150.75444 152.13731 154.37395 155.35464 157.29494 159.33751 161.57413 163.74371 165.58168 167.41966 168.60852 169.73035 171.97401">thickness: 20</tspan>
        </text>
        <text
           id="text462"
           style="font-variant:normal;font-weight:normal;font-size:3.52777767px;font-family:'DejaVu Sans';-inkscape-font-specification:DejaVuSans;writing-mode:lr-tb;fill:#000000;fill-opacity:1;fill-rule:nonzero;stroke:none;stroke-width:0.35277775"
           x="150.75444"
           y="180.55048">
          <tspan
             style="stroke-width:0.35277775"
             id="tspan460"
             sodipodi:role="line"
             y="180.55048"
             x="150.75444 152.99457 155.16415 156.61407 157.59479 159.7538 161.99393 164.1635 165.35239 166.47421 168.71788 170.96153">periode: 200</tspan>
        </text>
        <text
           id="text466"
           style="font-variant:normal;font-weight:normal;font-size:3.52777767px;font-family:'DejaVu Sans';-inkscape-font-specification:DejaVuSans;writing-mode:lr-tb;fill:#000000;fill-opacity:1;fill-rule:nonzero;stroke:none;stroke-width:0.35277775"
           x="150.75444"
           y="188.44609">
          <tspan
             style="stroke-width:0.35277775"
             id="tspan464"
             sodipodi:role="line"
             y="188.44609"
             x="150.75444 152.99457 154.37746 156.53998 158.48026">Stack</tspan>
        </text>
        <text
           id="text470"
           style="font-variant:normal;font-weight:normal;font-size:3.52777767px;font-family:'DejaVu Sans';-inkscape-font-specification:DejaVuSans;writing-mode:lr-tb;fill:#000000;fill-opacity:1;fill-rule:nonzero;stroke:none;stroke-width:0.35277775"
           x="150.75444"
           y="192.39389">
          <tspan
             style="stroke-width:0.35277775"
             id="tspan468"
             sodipodi:role="line"
             y="192.39389"
             x="150.75444 152.59239 154.83255 156.99507 158.93535 161.10492 162.55484 164.31873 166.55534 167.7442 168.86604 171.1097 172.23155 174.47522">spacer_h: 0.23</tspan>
        </text>
        <text
           id="text474"
           style="font-variant:normal;font-weight:normal;font-size:3.52777767px;font-family:'DejaVu Sans';-inkscape-font-specification:DejaVuSans;writing-mode:lr-tb;fill:#000000;fill-opacity:1;fill-rule:nonzero;stroke:none;stroke-width:0.35277775"
           x="150.75444"
           y="196.44092">
          <tspan
             style="stroke-width:0.35277775"
             id="tspan472"
             sodipodi:role="line"
             y="196.44092"
             x="150.75444 152.91696 155.15356 157.39372 158.37444 160.54402 161.73288 162.85471">angle: 0</tspan>
        </text>
        <text
           id="text478"
           style="font-variant:normal;font-weight:normal;font-size:3.52777767px;font-family:'DejaVu Sans';-inkscape-font-specification:DejaVuSans;writing-mode:lr-tb;fill:#000000;fill-opacity:1;fill-rule:nonzero;stroke:none;stroke-width:0.35277775"
           x="150.75444"
           y="200.38873">
          <tspan
             style="stroke-width:0.35277775"
             id="tspan476"
             sodipodi:role="line"
             y="200.38873"
             x="150.75444 151.73515 153.89415 155.73213 157.57011 158.75897 159.8808 162.12447 163.24629 165.48996">loss: 0.00</tspan>
        </text>
      </g>
      <g
         transform="translate(-3.890104,0.221685)"
         id="g4433">
        <path
           inkscape:connector-curvature="0"
           id="path3127"
           style="fill:none;stroke:#000000;stroke-width:0.28222221;stroke-linecap:square;stroke-linejoin:miter;stroke-miterlimit:10;stroke-dasharray:none;stroke-opacity:1"
           d="m 90.981641,208.80876 v -93.8784" />
        <path
           inkscape:connector-curvature="0"
           id="path3129"
           style="fill:none;stroke:#000000;stroke-width:0.28222221;stroke-linecap:square;stroke-linejoin:miter;stroke-miterlimit:10;stroke-dasharray:none;stroke-opacity:1"
           d="m 137.49815,208.80876 v -93.8784" />
        <text
           id="text3137"
           style="font-variant:normal;font-weight:normal;font-size:3.52777767px;font-family:'DejaVu Sans';-inkscape-font-specification:DejaVuSans;writing-mode:lr-tb;fill:#000000;fill-opacity:1;fill-rule:nonzero;stroke:none;stroke-width:0.35277775"
           x="96.759766"
           y="125.05956">
          <tspan
             style="stroke-width:0.35277775"
             id="tspan3135"
             sodipodi:role="line"
             y="125.05956"
             x="96.759766 98.724739 100.88727 102.97571 105.14529 106.59521 107.71704 109.9607">Layer 1:</tspan>
        </text>
        <text
           id="text3141"
           style="font-variant:normal;font-weight:normal;font-size:3.52777767px;font-family:'DejaVu Sans';-inkscape-font-specification:DejaVuSans;writing-mode:lr-tb;fill:#000000;fill-opacity:1;fill-rule:nonzero;stroke:none;stroke-width:0.35277775"
           x="96.759766"
           y="129.00735">
          <tspan
             style="stroke-width:0.35277775"
             id="tspan3139"
             sodipodi:role="line"
             y="129.00735"
             x="96.759766 100.19582 102.35835 103.74125 105.91082 107.36073 108.34146 110.50399 111.4847 112.67356 113.79542 116.20841">material: Au</tspan>
        </text>
        <text
           id="text3145"
           style="font-variant:normal;font-weight:normal;font-size:3.52777767px;font-family:'DejaVu Sans';-inkscape-font-specification:DejaVuSans;writing-mode:lr-tb;fill:#000000;fill-opacity:1;fill-rule:nonzero;stroke:none;stroke-width:0.35277775"
           x="96.759766"
           y="132.95517">
          <tspan
             style="stroke-width:0.35277775"
             id="tspan3143"
             sodipodi:role="line"
             y="132.95517"
             x="96.759766 98.996384 101.15538 102.13609 104.30569 106.14366 107.33252 108.45435 110.69096 112.84995 113.83068 116.00028">holes: holes</tspan>
        </text>
        <text
           id="text3149"
           style="font-variant:normal;font-weight:normal;font-size:3.52777767px;font-family:'DejaVu Sans';-inkscape-font-specification:DejaVuSans;writing-mode:lr-tb;fill:#000000;fill-opacity:1;fill-rule:nonzero;stroke:none;stroke-width:0.35277775"
           x="96.759766"
           y="136.90297">
          <tspan
             style="stroke-width:0.35277775"
             id="tspan3147"
             sodipodi:role="line"
             y="136.90297"
             x="96.759766 99.645493 100.62621 102.86635 104.24925 106.48585 107.67471 108.79654 111.04022 113.28388">width: 186</tspan>
        </text>
        <text
           id="text3153"
           style="font-variant:normal;font-weight:normal;font-size:3.52777767px;font-family:'DejaVu Sans';-inkscape-font-specification:DejaVuSans;writing-mode:lr-tb;fill:#000000;fill-opacity:1;fill-rule:nonzero;stroke:none;stroke-width:0.35277775"
           x="96.759766"
           y="140.85077">
          <tspan
             style="stroke-width:0.35277775"
             id="tspan3151"
             sodipodi:role="line"
             y="140.85077"
             x="96.759766 97.740486 99.91008 102.14668 104.38682 105.76972 108.00632 109.19518 110.31701 112.56069">length: 94</tspan>
        </text>
        <text
           id="text3157"
           style="font-variant:normal;font-weight:normal;font-size:3.52777767px;font-family:'DejaVu Sans';-inkscape-font-specification:DejaVuSans;writing-mode:lr-tb;fill:#000000;fill-opacity:1;fill-rule:nonzero;stroke:none;stroke-width:0.35277775"
           x="96.759766"
           y="144.79857">
          <tspan
             style="stroke-width:0.35277775"
             id="tspan3155"
             sodipodi:role="line"
             y="144.79857"
             x="96.759766 98.142654 100.37926 101.36 103.30028 105.34285 107.57944 109.74905 111.58702 113.42498 114.61384 115.73569 117.97935">thickness: 21</tspan>
        </text>
        <text
           id="text3161"
           style="font-variant:normal;font-weight:normal;font-size:3.52777767px;font-family:'DejaVu Sans';-inkscape-font-specification:DejaVuSans;writing-mode:lr-tb;fill:#000000;fill-opacity:1;fill-rule:nonzero;stroke:none;stroke-width:0.35277775"
           x="96.759766"
           y="148.74637">
          <tspan
             style="stroke-width:0.35277775"
             id="tspan3159"
             sodipodi:role="line"
             y="148.74637"
             x="96.759766 98.999901 101.16949 102.6194 103.60013 105.75912 107.99926 110.16885 111.35771 112.47954 114.7232 116.96689">periode: 221</tspan>
        </text>
        <text
           id="text3165"
           style="font-variant:normal;font-weight:normal;font-size:3.52777767px;font-family:'DejaVu Sans';-inkscape-font-specification:DejaVuSans;writing-mode:lr-tb;fill:#000000;fill-opacity:1;fill-rule:nonzero;stroke:none;stroke-width:0.35277775"
           x="96.759766"
           y="156.64198">
          <tspan
             style="stroke-width:0.35277775"
             id="tspan3163"
             sodipodi:role="line"
             y="156.64198"
             x="96.759766 98.724739 100.88727 102.97571 105.14529 106.59521 107.71704 109.9607">Layer 2:</tspan>
        </text>
        <text
           id="text3169"
           style="font-variant:normal;font-weight:normal;font-size:3.52777767px;font-family:'DejaVu Sans';-inkscape-font-specification:DejaVuSans;writing-mode:lr-tb;fill:#000000;fill-opacity:1;fill-rule:nonzero;stroke:none;stroke-width:0.35277775"
           x="96.759766"
           y="160.58978">
          <tspan
             style="stroke-width:0.35277775"
             id="tspan3167"
             sodipodi:role="line"
             y="160.58978"
             x="96.759766 100.19582 102.35835 103.74125 105.91082 107.36073 108.34146 110.50399 111.4847 112.67356 113.79542 116.20841">material: Al</tspan>
        </text>
        <text
           id="text3173"
           style="font-variant:normal;font-weight:normal;font-size:3.52777767px;font-family:'DejaVu Sans';-inkscape-font-specification:DejaVuSans;writing-mode:lr-tb;fill:#000000;fill-opacity:1;fill-rule:nonzero;stroke:none;stroke-width:0.35277775"
           x="96.759766"
           y="164.5376">
          <tspan
             style="stroke-width:0.35277775"
             id="tspan3171"
             sodipodi:role="line"
             y="164.5376"
             x="96.759766 98.996384 101.15538 102.13609 104.30569 106.14366 107.33252 108.45435 110.69096 112.84995 113.83068 116.00028">holes: holes</tspan>
        </text>
        <text
           id="text3177"
           style="font-variant:normal;font-weight:normal;font-size:3.52777767px;font-family:'DejaVu Sans';-inkscape-font-specification:DejaVuSans;writing-mode:lr-tb;fill:#000000;fill-opacity:1;fill-rule:nonzero;stroke:none;stroke-width:0.35277775"
           x="96.759766"
           y="168.4854">
          <tspan
             style="stroke-width:0.35277775"
             id="tspan3175"
             sodipodi:role="line"
             y="168.4854"
             x="96.759766 99.645493 100.62621 102.86635 104.24925 106.48585 107.67471 108.79654 111.04022 113.28388">width: 158</tspan>
        </text>
        <text
           id="text3181"
           style="font-variant:normal;font-weight:normal;font-size:3.52777767px;font-family:'DejaVu Sans';-inkscape-font-specification:DejaVuSans;writing-mode:lr-tb;fill:#000000;fill-opacity:1;fill-rule:nonzero;stroke:none;stroke-width:0.35277775"
           x="96.759766"
           y="172.4332">
          <tspan
             style="stroke-width:0.35277775"
             id="tspan3179"
             sodipodi:role="line"
             y="172.4332"
             x="96.759766 97.740486 99.91008 102.14668 104.38682 105.76972 108.00632 109.19518 110.31701 112.56069">length: 90</tspan>
        </text>
        <text
           id="text3185"
           style="font-variant:normal;font-weight:normal;font-size:3.52777767px;font-family:'DejaVu Sans';-inkscape-font-specification:DejaVuSans;writing-mode:lr-tb;fill:#000000;fill-opacity:1;fill-rule:nonzero;stroke:none;stroke-width:0.35277775"
           x="96.759766"
           y="176.38101">
          <tspan
             style="stroke-width:0.35277775"
             id="tspan3183"
             sodipodi:role="line"
             y="176.38101"
             x="96.759766 98.142654 100.37926 101.36 103.30028 105.34285 107.57944 109.74905 111.58702 113.42498 114.61384 115.73569 117.97935">thickness: 29</tspan>
        </text>
        <text
           id="text3189"
           style="font-variant:normal;font-weight:normal;font-size:3.52777767px;font-family:'DejaVu Sans';-inkscape-font-specification:DejaVuSans;writing-mode:lr-tb;fill:#000000;fill-opacity:1;fill-rule:nonzero;stroke:none;stroke-width:0.35277775"
           x="96.759766"
           y="180.32881">
          <tspan
             style="stroke-width:0.35277775"
             id="tspan3187"
             sodipodi:role="line"
             y="180.32881"
             x="96.759766 98.999901 101.16949 102.6194 103.60013 105.75912 107.99926 110.16885 111.35771 112.47954 114.7232 116.96689">periode: 204</tspan>
        </text>
        <text
           id="text3193"
           style="font-variant:normal;font-weight:normal;font-size:3.52777767px;font-family:'DejaVu Sans';-inkscape-font-specification:DejaVuSans;writing-mode:lr-tb;fill:#000000;fill-opacity:1;fill-rule:nonzero;stroke:none;stroke-width:0.35277775"
           x="96.759766"
           y="188.22441">
          <tspan
             style="stroke-width:0.35277775"
             id="tspan3191"
             sodipodi:role="line"
             y="188.22441"
             x="96.759766 98.999901 100.3828 102.54533 104.4856">Stack</tspan>
        </text>
        <text
           id="text3197"
           style="font-variant:normal;font-weight:normal;font-size:3.52777767px;font-family:'DejaVu Sans';-inkscape-font-specification:DejaVuSans;writing-mode:lr-tb;fill:#000000;fill-opacity:1;fill-rule:nonzero;stroke:none;stroke-width:0.35277775"
           x="96.759766"
           y="192.17223">
          <tspan
             style="stroke-width:0.35277775"
             id="tspan3195"
             sodipodi:role="line"
             y="192.17223"
             x="96.759766 98.59774 100.83788 103.0004 104.94068 107.11028 108.56018 110.32408 112.56069 113.74955 114.87139 117.11506 118.23688 120.48054">spacer_h: 0.23</tspan>
        </text>
        <text
           id="text3201"
           style="font-variant:normal;font-weight:normal;font-size:3.52777767px;font-family:'DejaVu Sans';-inkscape-font-specification:DejaVuSans;writing-mode:lr-tb;fill:#000000;fill-opacity:1;fill-rule:nonzero;stroke:none;stroke-width:0.35277775"
           x="96.759766"
           y="196.21925">
          <tspan
             style="stroke-width:0.35277775"
             id="tspan3199"
             sodipodi:role="line"
             y="196.21925"
             x="96.759766 98.922295 101.15891 103.39904 104.37978 106.54935 107.7382 108.86003 111.10372">angle: 14</tspan>
        </text>
        <text
           id="text3205"
           style="font-variant:normal;font-weight:normal;font-size:3.52777767px;font-family:'DejaVu Sans';-inkscape-font-specification:DejaVuSans;writing-mode:lr-tb;fill:#000000;fill-opacity:1;fill-rule:nonzero;stroke:none;stroke-width:0.35277775"
           x="96.759766"
           y="200.16705">
          <tspan
             style="stroke-width:0.35277775"
             id="tspan3203"
             sodipodi:role="line"
             y="200.16705"
             x="96.759766 97.740486 99.89949 101.73745 103.57543 104.76429 105.88613 108.12981 109.25163 111.4953">loss: 0.15</tspan>
        </text>
        <path
           d="M 90.981641,114.93036 H 137.49815"
           style="fill:none;stroke:#000000;stroke-width:0.28222221;stroke-linecap:square;stroke-linejoin:miter;stroke-miterlimit:10;stroke-dasharray:none;stroke-opacity:1"
           id="path4211"
           inkscape:connector-curvature="0" />
        <path
           inkscape:connector-curvature="0"
           id="path4213"
           style="fill:none;stroke:#000000;stroke-width:0.28222221;stroke-linecap:square;stroke-linejoin:miter;stroke-miterlimit:10;stroke-dasharray:none;stroke-opacity:1"
           d="M 90.981641,208.80876 H 137.49815" />
      </g>
      <g
         transform="translate(26.60121,3.260035)"
         id="g4477">
        <path
           inkscape:connector-curvature="0"
           id="path2079"
           style="fill:none;stroke:#000000;stroke-width:0.28222221;stroke-linecap:square;stroke-linejoin:miter;stroke-miterlimit:10;stroke-dasharray:none;stroke-opacity:1"
           d="m 7.021003,205.77041 v -93.8784" />
        <path
           inkscape:connector-curvature="0"
           id="path2081"
           style="fill:none;stroke:#000000;stroke-width:0.28222221;stroke-linecap:square;stroke-linejoin:miter;stroke-miterlimit:10;stroke-dasharray:none;stroke-opacity:1"
           d="m 53.537509,205.77041 v -93.8784" />
        <text
           id="text2089"
           style="font-variant:normal;font-weight:normal;font-size:3.52777767px;font-family:'DejaVu Sans';-inkscape-font-specification:DejaVuSans;writing-mode:lr-tb;fill:#000000;fill-opacity:1;fill-rule:nonzero;stroke:none;stroke-width:0.35277775"
           x="12.799125"
           y="122.02118">
          <tspan
             style="stroke-width:0.35277775"
             id="tspan2087"
             sodipodi:role="line"
             y="122.02118"
             x="12.799125 14.764106 16.926634 19.015074 21.18466 22.634573 23.756407 26.000067">Layer 1:</tspan>
        </text>
        <text
           id="text2093"
           style="font-variant:normal;font-weight:normal;font-size:3.52777767px;font-family:'DejaVu Sans';-inkscape-font-specification:DejaVuSans;writing-mode:lr-tb;fill:#000000;fill-opacity:1;fill-rule:nonzero;stroke:none;stroke-width:0.35277775"
           x="12.799125"
           y="125.96899">
          <tspan
             style="stroke-width:0.35277775"
             id="tspan2091"
             sodipodi:role="line"
             y="125.96899"
             x="12.799125 16.235189 18.397711 19.780615 21.950186 23.400099 24.380827 26.543356 27.524069 28.712927 29.834784 32.247772">material: Au</tspan>
        </text>
        <text
           id="text2097"
           style="font-variant:normal;font-weight:normal;font-size:3.52777767px;font-family:'DejaVu Sans';-inkscape-font-specification:DejaVuSans;writing-mode:lr-tb;fill:#000000;fill-opacity:1;fill-rule:nonzero;stroke:none;stroke-width:0.35277775"
           x="12.799125"
           y="129.91679">
          <tspan
             style="stroke-width:0.35277775"
             id="tspan2095"
             sodipodi:role="line"
             y="129.91679"
             x="12.799125 15.03575 17.194746 18.175459 20.345053 22.183027 23.371885 24.493719 26.730322 28.889318 29.870047 32.039642">holes: holes</tspan>
        </text>
        <text
           id="text2101"
           style="font-variant:normal;font-weight:normal;font-size:3.52777767px;font-family:'DejaVu Sans';-inkscape-font-specification:DejaVuSans;writing-mode:lr-tb;fill:#000000;fill-opacity:1;fill-rule:nonzero;stroke:none;stroke-width:0.35277775"
           x="12.799125"
           y="133.86459">
          <tspan
             style="stroke-width:0.35277775"
             id="tspan2099"
             sodipodi:role="line"
             y="133.86459"
             x="12.799125 15.684859 16.665579 18.905706 20.28861 22.525213 23.714071 24.835905 27.079588 29.323248">width: 170</tspan>
        </text>
        <text
           id="text2105"
           style="font-variant:normal;font-weight:normal;font-size:3.52777767px;font-family:'DejaVu Sans';-inkscape-font-specification:DejaVuSans;writing-mode:lr-tb;fill:#000000;fill-opacity:1;fill-rule:nonzero;stroke:none;stroke-width:0.35277775"
           x="12.799125"
           y="137.81241">
          <tspan
             style="stroke-width:0.35277775"
             id="tspan2103"
             sodipodi:role="line"
             y="137.81241"
             x="12.799125 13.779853 15.949439 18.186049 20.426184 21.809088 24.045683 25.234541 26.356375 28.600058 30.843718">length: 105</tspan>
        </text>
        <text
           id="text2109"
           style="font-variant:normal;font-weight:normal;font-size:3.52777767px;font-family:'DejaVu Sans';-inkscape-font-specification:DejaVuSans;writing-mode:lr-tb;fill:#000000;fill-opacity:1;fill-rule:nonzero;stroke:none;stroke-width:0.35277775"
           x="12.799125"
           y="141.76021">
          <tspan
             style="stroke-width:0.35277775"
             id="tspan2107"
             sodipodi:role="line"
             y="141.76021"
             x="12.799125 14.182021 16.418631 17.399366 19.339643 21.382215 23.618818 25.788412 27.626387 29.464346 30.653204 31.775061 34.018723">thickness: 24</tspan>
        </text>
        <text
           id="text2113"
           style="font-variant:normal;font-weight:normal;font-size:3.52777767px;font-family:'DejaVu Sans';-inkscape-font-specification:DejaVuSans;writing-mode:lr-tb;fill:#000000;fill-opacity:1;fill-rule:nonzero;stroke:none;stroke-width:0.35277775"
           x="12.799125"
           y="145.70801">
          <tspan
             style="stroke-width:0.35277775"
             id="tspan2111"
             sodipodi:role="line"
             y="145.70801"
             x="12.799125 15.039268 17.208853 18.658758 19.639494 21.798491 24.038626 26.208212 27.397078 28.518904 30.762564 33.006248">periode: 235</tspan>
        </text>
        <text
           id="text2117"
           style="font-variant:normal;font-weight:normal;font-size:3.52777767px;font-family:'DejaVu Sans';-inkscape-font-specification:DejaVuSans;writing-mode:lr-tb;fill:#000000;fill-opacity:1;fill-rule:nonzero;stroke:none;stroke-width:0.35277775"
           x="12.799125"
           y="153.60362">
          <tspan
             style="stroke-width:0.35277775"
             id="tspan2115"
             sodipodi:role="line"
             y="153.60362"
             x="12.799125 14.764106 16.926634 19.015074 21.18466 22.634573 23.756407 26.000067">Layer 2:</tspan>
        </text>
        <text
           id="text2121"
           style="font-variant:normal;font-weight:normal;font-size:3.52777767px;font-family:'DejaVu Sans';-inkscape-font-specification:DejaVuSans;writing-mode:lr-tb;fill:#000000;fill-opacity:1;fill-rule:nonzero;stroke:none;stroke-width:0.35277775"
           x="12.799125"
           y="157.55142">
          <tspan
             style="stroke-width:0.35277775"
             id="tspan2119"
             sodipodi:role="line"
             y="157.55142"
             x="12.799125 16.235189 18.397711 19.780615 21.950186 23.400099 24.380827 26.543356 27.524069 28.712927 29.834784 32.247772">material: Al</tspan>
        </text>
        <text
           id="text2125"
           style="font-variant:normal;font-weight:normal;font-size:3.52777767px;font-family:'DejaVu Sans';-inkscape-font-specification:DejaVuSans;writing-mode:lr-tb;fill:#000000;fill-opacity:1;fill-rule:nonzero;stroke:none;stroke-width:0.35277775"
           x="12.799125"
           y="161.49924">
          <tspan
             style="stroke-width:0.35277775"
             id="tspan2123"
             sodipodi:role="line"
             y="161.49924"
             x="12.799125 15.03575 17.194746 18.175459 20.345053 22.183027 23.371885 24.493719 26.730322 28.889318 29.870047 32.039642">holes: holes</tspan>
        </text>
        <text
           id="text2129"
           style="font-variant:normal;font-weight:normal;font-size:3.52777767px;font-family:'DejaVu Sans';-inkscape-font-specification:DejaVuSans;writing-mode:lr-tb;fill:#000000;fill-opacity:1;fill-rule:nonzero;stroke:none;stroke-width:0.35277775"
           x="12.799125"
           y="165.44704">
          <tspan
             style="stroke-width:0.35277775"
             id="tspan2127"
             sodipodi:role="line"
             y="165.44704"
             x="12.799125 15.684859 16.665579 18.905706 20.28861 22.525213 23.714071 24.835905 27.079588 29.323248">width: 156</tspan>
        </text>
        <text
           id="text2133"
           style="font-variant:normal;font-weight:normal;font-size:3.52777767px;font-family:'DejaVu Sans';-inkscape-font-specification:DejaVuSans;writing-mode:lr-tb;fill:#000000;fill-opacity:1;fill-rule:nonzero;stroke:none;stroke-width:0.35277775"
           x="12.799125"
           y="169.39484">
          <tspan
             style="stroke-width:0.35277775"
             id="tspan2131"
             sodipodi:role="line"
             y="169.39484"
             x="12.799125 13.779853 15.949439 18.186049 20.426184 21.809088 24.045683 25.234541 26.356375 28.600058">length: 90</tspan>
        </text>
        <text
           id="text2137"
           style="font-variant:normal;font-weight:normal;font-size:3.52777767px;font-family:'DejaVu Sans';-inkscape-font-specification:DejaVuSans;writing-mode:lr-tb;fill:#000000;fill-opacity:1;fill-rule:nonzero;stroke:none;stroke-width:0.35277775"
           x="12.799125"
           y="173.34265">
          <tspan
             style="stroke-width:0.35277775"
             id="tspan2135"
             sodipodi:role="line"
             y="173.34265"
             x="12.799125 14.182021 16.418631 17.399366 19.339643 21.382215 23.618818 25.788412 27.626387 29.464346 30.653204 31.775061 34.018723">thickness: 31</tspan>
        </text>
        <text
           id="text2141"
           style="font-variant:normal;font-weight:normal;font-size:3.52777767px;font-family:'DejaVu Sans';-inkscape-font-specification:DejaVuSans;writing-mode:lr-tb;fill:#000000;fill-opacity:1;fill-rule:nonzero;stroke:none;stroke-width:0.35277775"
           x="12.799125"
           y="177.29045">
          <tspan
             style="stroke-width:0.35277775"
             id="tspan2139"
             sodipodi:role="line"
             y="177.29045"
             x="12.799125 15.039268 17.208853 18.658758 19.639494 21.798491 24.038626 26.208212 27.397078 28.518904 30.762564 33.006248">periode: 178</tspan>
        </text>
        <text
           id="text2145"
           style="font-variant:normal;font-weight:normal;font-size:3.52777767px;font-family:'DejaVu Sans';-inkscape-font-specification:DejaVuSans;writing-mode:lr-tb;fill:#000000;fill-opacity:1;fill-rule:nonzero;stroke:none;stroke-width:0.35277775"
           x="12.799125"
           y="185.18605">
          <tspan
             style="stroke-width:0.35277775"
             id="tspan2143"
             sodipodi:role="line"
             y="185.18605"
             x="12.799125 15.039268 16.422163 18.584692 20.524969">Stack</tspan>
        </text>
        <text
           id="text2149"
           style="font-variant:normal;font-weight:normal;font-size:3.52777767px;font-family:'DejaVu Sans';-inkscape-font-specification:DejaVuSans;writing-mode:lr-tb;fill:#000000;fill-opacity:1;fill-rule:nonzero;stroke:none;stroke-width:0.35277775"
           x="12.799125"
           y="189.13387">
          <tspan
             style="stroke-width:0.35277775"
             id="tspan2147"
             sodipodi:role="line"
             y="189.13387"
             x="12.799125 14.637107 16.877241 19.03977 20.980047 23.149641 24.599546 26.36344 28.600058 29.788916 30.910749 33.154411 34.276245 36.519905">spacer_h: 0.18</tspan>
        </text>
        <text
           id="text2153"
           style="font-variant:normal;font-weight:normal;font-size:3.52777767px;font-family:'DejaVu Sans';-inkscape-font-specification:DejaVuSans;writing-mode:lr-tb;fill:#000000;fill-opacity:1;fill-rule:nonzero;stroke:none;stroke-width:0.35277775"
           x="12.799125"
           y="193.18089">
          <tspan
             style="stroke-width:0.35277775"
             id="tspan2151"
             sodipodi:role="line"
             y="193.18089"
             x="12.799125 14.961661 17.198271 19.438406 20.419142 22.588713 23.777571 24.899397 27.143087">angle: 36</tspan>
        </text>
        <text
           id="text2157"
           style="font-variant:normal;font-weight:normal;font-size:3.52777767px;font-family:'DejaVu Sans';-inkscape-font-specification:DejaVuSans;writing-mode:lr-tb;fill:#000000;fill-opacity:1;fill-rule:nonzero;stroke:none;stroke-width:0.35277775"
           x="12.799125"
           y="197.12869">
          <tspan
             style="stroke-width:0.35277775"
             id="tspan2155"
             sodipodi:role="line"
             y="197.12869"
             x="12.799125 13.779853 15.938857 17.776815 19.614798 20.803656 21.925489 24.169172 25.290998 27.534666">loss: 2.61</tspan>
        </text>
        <path
           inkscape:connector-curvature="0"
           id="path4301"
           style="fill:none;stroke:#000000;stroke-width:0.28222221;stroke-linecap:square;stroke-linejoin:miter;stroke-miterlimit:10;stroke-dasharray:none;stroke-opacity:1"
           d="M 7.021003,111.89201 H 53.537509" />
        <path
           d="M 7.021003,205.77041 H 53.537509"
           style="fill:none;stroke:#000000;stroke-width:0.28222221;stroke-linecap:square;stroke-linejoin:miter;stroke-miterlimit:10;stroke-dasharray:none;stroke-opacity:1"
           id="path4303"
           inkscape:connector-curvature="0" />
      </g>
      <g
         transform="matrix(0.458611,0,0,0.458611,17.650229,81.83731)"
         ns1:version="0.9.1"
         ns1:texconverter="pdflatex"
         ns1:pdfconverter="pdf2svg"
         ns1:text="Step 0"
         ns1:preamble="/home/tim/Desktop/bachlor-arbeit/tex/preamble.tex"
         ns1:scale="1.3"
         ns1:alignment="middle center"
         inkscapeversion="0.92.4"
         ns1:jacobian_sqrt="0.458611"
         id="g2289">
        <g
           id="g2287">
          <g
             style="fill:#000000;fill-opacity:1"
             id="g2281">
            <path
               inkscape:connector-curvature="0"
               style="stroke:none;stroke-width:0"
               d="m 1.15625,-0.484375 c 0.625,0.484375 1.109375,0.6875 1.890625,0.6875 1.1875,0 1.921875,-1.0625 1.921875,-2.078125 C 4.96875,-2.703125 4.5,-3.46875 3.703125,-3.796875 3.09375,-4.046875 2.34375,-4.03125 1.8125,-4.34375 c -0.390625,-0.25 -0.625,-0.6875 -0.625,-1.125 0,-0.78125 0.671875,-1.296875 1.375,-1.296875 0.984375,0 1.671875,0.796875 1.828125,1.796875 0.03125,0.140625 0,0.40625 0.1875,0.40625 0.109375,0 0.109375,-0.078125 0.109375,-0.171875 v -2.15625 c 0,-0.078125 -0.015625,-0.140625 -0.09375,-0.140625 -0.140625,0 -0.25,0.265625 -0.34375,0.40625 -0.046875,0.078125 -0.125,0.1875 -0.15625,0.28125 -0.421875,-0.40625 -0.890625,-0.6875 -1.546875,-0.6875 -0.984375,0 -2,0.671875 -2,1.9375 0,1.03125 0.765625,1.71875 1.734375,1.921875 C 2.5,-3.125 2.6875,-3.0625 2.90625,-3.015625 3.453125,-2.875 4.015625,-2.734375 4.25,-2.03125 c 0.0625,0.15625 0.09375,0.3125 0.09375,0.46875 0,0.75 -0.515625,1.46875 -1.359375,1.46875 C 2,-0.09375 1.03125,-0.625 0.828125,-1.78125 0.8125,-1.859375 0.8125,-1.96875 0.796875,-2.046875 V -2.125 c 0,-0.09375 -0.046875,-0.140625 -0.125,-0.140625 -0.109375,0 -0.125,0.078125 -0.125,0.140625 v 2.1875 c 0,0.078125 0.015625,0.140625 0.09375,0.140625 0.15625,0 0.265625,-0.265625 0.34375,-0.40625 0.0625,-0.09375 0.125,-0.1875 0.171875,-0.28125 z m 0,0"
               transform="translate(71.637,66.656)"
               id="path2273" />
            <path
               inkscape:connector-curvature="0"
               style="stroke:none;stroke-width:0"
               d="m 1.484375,-6.140625 c 0,0.6875 -0.28125,1.9375 -1.3125,1.9375 v 0.21875 H 1.03125 v 2.5625 c 0,0.328125 0.03125,0.671875 0.1875,0.953125 0.21875,0.40625 0.6875,0.5625 1.125,0.5625 0.8125,0 0.96875,-0.90625 0.96875,-1.546875 V -1.8125 H 3.078125 c 0,0.140625 0,0.296875 0,0.453125 0,0.4375 -0.09375,1.203125 -0.6875,1.203125 -0.5625,0 -0.65625,-0.6875 -0.65625,-1.125 V -3.984375 H 3.15625 v -0.3125 H 1.734375 v -1.84375 z m 0,0"
               transform="translate(77.170228,66.656)"
               id="path2275" />
            <path
               inkscape:connector-curvature="0"
               style="stroke:none;stroke-width:0"
               d="m 1.109375,-2.3125 h 2.875 c 0.109375,0 0.15625,-0.0625 0.15625,-0.1875 0,-1.046875 -0.640625,-1.96875 -1.765625,-1.96875 -1.21875,0 -2.09375,1.09375 -2.09375,2.28125 0,0.90625 0.5,1.734375 1.390625,2.125 0.21875,0.109375 0.484375,0.15625 0.734375,0.15625 H 2.4375 c 0.765625,0 1.40625,-0.421875 1.671875,-1.1875 C 4.125,-1.125 4.125,-1.171875 4.125,-1.203125 4.125,-1.265625 4.09375,-1.3125 4.015625,-1.3125 3.875,-1.3125 3.8125,-0.984375 3.75,-0.875 3.5,-0.4375 3.015625,-0.15625 2.5,-0.15625 c -0.359375,0 -0.6875,-0.203125 -0.953125,-0.46875 -0.40625,-0.46875 -0.4375,-1.109375 -0.4375,-1.6875 z M 1.125,-2.515625 C 1.125,-3.296875 1.53125,-4.25 2.359375,-4.25 H 2.40625 c 0.96875,0.09375 0.96875,1.125 1.0625,1.734375 z m 0,0"
               transform="translate(81.043687,66.656)"
               id="path2277" />
            <path
               inkscape:connector-curvature="0"
               style="stroke:none;stroke-width:0"
               d="m 0.265625,-4.296875 v 0.3125 h 0.1875 c 0.296875,0 0.59375,0.03125 0.59375,0.421875 V 1.21875 C 1.046875,1.578125 0.78125,1.609375 0.5,1.609375 H 0.265625 v 0.3125 h 2.25 v -0.3125 H 2.28125 C 1.984375,1.609375 1.75,1.578125 1.75,1.21875 v -1.734375 c 0.234375,0.421875 0.796875,0.609375 1.21875,0.609375 1.234375,0 2.21875,-1.046875 2.21875,-2.25 0,-1.203125 -0.921875,-2.25 -2.09375,-2.25 -0.546875,0 -1.015625,0.234375 -1.375,0.640625 V -4.40625 Z m 4.078125,2.3125 C 4.296875,-1.25 3.90625,-0.203125 3,-0.125 H 2.9375 C 2.515625,-0.125 2.125,-0.359375 1.890625,-0.71875 1.796875,-0.828125 1.75,-0.921875 1.75,-1.0625 V -2.734375 C 1.75,-2.875 1.734375,-3 1.734375,-3.125 1.734375,-3.65625 2.40625,-4.15625 3,-4.15625 c 1,0 1.359375,1.3125 1.359375,2.015625 0,0.046875 0,0.109375 -0.015625,0.15625 z m 0,0"
               transform="translate(85.47007,66.656)"
               id="path2279" />
          </g>
          <g
             style="fill:#000000;fill-opacity:1"
             id="g2285">
            <path
               inkscape:connector-curvature="0"
               style="stroke:none;stroke-width:0"
               d="m 2.359375,-6.65625 c -1.9375,0.171875 -1.96875,2.53125 -1.96875,3.5 0,0.9375 0.078125,2.015625 0.703125,2.75 0.328125,0.390625 0.875,0.625 1.375,0.625 0.84375,0 1.515625,-0.546875 1.8125,-1.3125 0.28125,-0.6875 0.296875,-1.453125 0.296875,-2.171875 0,-0.9375 -0.09375,-2.078125 -0.703125,-2.765625 C 3.53125,-6.421875 3,-6.65625 2.5,-6.65625 c -0.0625,0 -0.09375,0 -0.140625,0 z M 1.21875,-2.578125 c 0,-0.09375 0,-0.171875 0,-0.265625 V -3.3125 c 0,-0.484375 0,-0.953125 0.046875,-1.4375 0.03125,-0.375 0.0625,-0.796875 0.28125,-1.125 0.21875,-0.328125 0.5625,-0.5625 0.953125,-0.5625 1.171875,0 1.25,1.46875 1.25,2.453125 v 0.46875 c 0,0.265625 0.015625,0.5625 0.015625,0.859375 0,1.265625 -0.171875,2.640625 -1.265625,2.640625 -1.34375,0 -1.21875,-1.921875 -1.28125,-2.5625 z m 0,0"
               transform="translate(94.320844,66.656)"
               id="path2283" />
          </g>
        </g>
      </g>
      <g
         transform="matrix(0.458611,0,0,0.458611,68.835533,81.83731)"
         ns1:version="0.9.1"
         ns1:texconverter="pdflatex"
         ns1:pdfconverter="pdf2svg"
         ns1:text="Step 250"
         ns1:preamble="/home/tim/Desktop/bachlor-arbeit/tex/preamble.tex"
         ns1:scale="1.3"
         ns1:alignment="middle center"
         inkscapeversion="0.92.4"
         ns1:jacobian_sqrt="0.458611"
         id="g3143">
        <g
           id="g3141">
          <g
             style="fill:#000000;fill-opacity:1"
             id="g3131">
            <path
               style="stroke:none;stroke-width:0"
               d="m 1.15625,-0.484375 c 0.625,0.484375 1.109375,0.6875 1.890625,0.6875 1.1875,0 1.921875,-1.0625 1.921875,-2.078125 C 4.96875,-2.703125 4.5,-3.46875 3.703125,-3.796875 3.09375,-4.046875 2.34375,-4.03125 1.8125,-4.34375 c -0.390625,-0.25 -0.625,-0.6875 -0.625,-1.125 0,-0.78125 0.671875,-1.296875 1.375,-1.296875 0.984375,0 1.671875,0.796875 1.828125,1.796875 0.03125,0.140625 0,0.40625 0.1875,0.40625 0.109375,0 0.109375,-0.078125 0.109375,-0.171875 v -2.15625 c 0,-0.078125 -0.015625,-0.140625 -0.09375,-0.140625 -0.140625,0 -0.25,0.265625 -0.34375,0.40625 -0.046875,0.078125 -0.125,0.1875 -0.15625,0.28125 -0.421875,-0.40625 -0.890625,-0.6875 -1.546875,-0.6875 -0.984375,0 -2,0.671875 -2,1.9375 0,1.03125 0.765625,1.71875 1.734375,1.921875 C 2.5,-3.125 2.6875,-3.0625 2.90625,-3.015625 3.453125,-2.875 4.015625,-2.734375 4.25,-2.03125 c 0.0625,0.15625 0.09375,0.3125 0.09375,0.46875 0,0.75 -0.515625,1.46875 -1.359375,1.46875 C 2,-0.09375 1.03125,-0.625 0.828125,-1.78125 0.8125,-1.859375 0.8125,-1.96875 0.796875,-2.046875 V -2.125 c 0,-0.09375 -0.046875,-0.140625 -0.125,-0.140625 -0.109375,0 -0.125,0.078125 -0.125,0.140625 v 2.1875 c 0,0.078125 0.015625,0.140625 0.09375,0.140625 0.15625,0 0.265625,-0.265625 0.34375,-0.40625 0.0625,-0.09375 0.125,-0.1875 0.171875,-0.28125 z m 0,0"
               transform="translate(71.637,66.656)"
               id="path3123"
               inkscape:connector-curvature="0" />
            <path
               style="stroke:none;stroke-width:0"
               d="m 1.484375,-6.140625 c 0,0.6875 -0.28125,1.9375 -1.3125,1.9375 v 0.21875 H 1.03125 v 2.5625 c 0,0.328125 0.03125,0.671875 0.1875,0.953125 0.21875,0.40625 0.6875,0.5625 1.125,0.5625 0.8125,0 0.96875,-0.90625 0.96875,-1.546875 V -1.8125 H 3.078125 c 0,0.140625 0,0.296875 0,0.453125 0,0.4375 -0.09375,1.203125 -0.6875,1.203125 -0.5625,0 -0.65625,-0.6875 -0.65625,-1.125 V -3.984375 H 3.15625 v -0.3125 H 1.734375 v -1.84375 z m 0,0"
               transform="translate(77.170228,66.656)"
               id="path3125"
               inkscape:connector-curvature="0" />
            <path
               style="stroke:none;stroke-width:0"
               d="m 1.109375,-2.3125 h 2.875 c 0.109375,0 0.15625,-0.0625 0.15625,-0.1875 0,-1.046875 -0.640625,-1.96875 -1.765625,-1.96875 -1.21875,0 -2.09375,1.09375 -2.09375,2.28125 0,0.90625 0.5,1.734375 1.390625,2.125 0.21875,0.109375 0.484375,0.15625 0.734375,0.15625 H 2.4375 c 0.765625,0 1.40625,-0.421875 1.671875,-1.1875 C 4.125,-1.125 4.125,-1.171875 4.125,-1.203125 4.125,-1.265625 4.09375,-1.3125 4.015625,-1.3125 3.875,-1.3125 3.8125,-0.984375 3.75,-0.875 3.5,-0.4375 3.015625,-0.15625 2.5,-0.15625 c -0.359375,0 -0.6875,-0.203125 -0.953125,-0.46875 -0.40625,-0.46875 -0.4375,-1.109375 -0.4375,-1.6875 z M 1.125,-2.515625 C 1.125,-3.296875 1.53125,-4.25 2.359375,-4.25 H 2.40625 c 0.96875,0.09375 0.96875,1.125 1.0625,1.734375 z m 0,0"
               transform="translate(81.043687,66.656)"
               id="path3127-3"
               inkscape:connector-curvature="0" />
            <path
               style="stroke:none;stroke-width:0"
               d="m 0.265625,-4.296875 v 0.3125 h 0.1875 c 0.296875,0 0.59375,0.03125 0.59375,0.421875 V 1.21875 C 1.046875,1.578125 0.78125,1.609375 0.5,1.609375 H 0.265625 v 0.3125 h 2.25 v -0.3125 H 2.28125 C 1.984375,1.609375 1.75,1.578125 1.75,1.21875 v -1.734375 c 0.234375,0.421875 0.796875,0.609375 1.21875,0.609375 1.234375,0 2.21875,-1.046875 2.21875,-2.25 0,-1.203125 -0.921875,-2.25 -2.09375,-2.25 -0.546875,0 -1.015625,0.234375 -1.375,0.640625 V -4.40625 Z m 4.078125,2.3125 C 4.296875,-1.25 3.90625,-0.203125 3,-0.125 H 2.9375 C 2.515625,-0.125 2.125,-0.359375 1.890625,-0.71875 1.796875,-0.828125 1.75,-0.921875 1.75,-1.0625 V -2.734375 C 1.75,-2.875 1.734375,-3 1.734375,-3.125 1.734375,-3.65625 2.40625,-4.15625 3,-4.15625 c 1,0 1.359375,1.3125 1.359375,2.015625 0,0.046875 0,0.109375 -0.015625,0.15625 z m 0,0"
               transform="translate(85.47007,66.656)"
               id="path3129-6"
               inkscape:connector-curvature="0" />
          </g>
          <g
             style="fill:#000000;fill-opacity:1"
             id="g3139">
            <path
               style="stroke:none;stroke-width:0"
               d="M 0.890625,-5.328125 C 1.125,-5.828125 1.5,-6.34375 2.21875,-6.34375 c 0.9375,0 1.34375,0.859375 1.34375,1.640625 0,0.921875 -0.609375,1.671875 -1.1875,2.328125 -0.5625,0.671875 -1.171875,1.3125 -1.75,1.96875 C 0.53125,-0.3125 0.5,-0.265625 0.5,-0.125 v 0.109375 H 4.203125 L 4.46875,-1.75 H 4.234375 C 4.140625,-1.296875 4.203125,-0.796875 3.6875,-0.796875 H 3.296875 C 3,-0.78125 2.71875,-0.78125 2.421875,-0.78125 c -0.390625,0 -0.765625,0 -1.140625,0 l 0.6875,-0.671875 c 0.28125,-0.265625 0.546875,-0.53125 0.828125,-0.78125 0.734375,-0.65625 1.671875,-1.375 1.671875,-2.484375 0,-1.125 -0.953125,-1.9375 -2.078125,-1.9375 C 1.4375,-6.65625 0.5,-5.9375 0.5,-4.859375 c 0,0.25 0.09375,0.5625 0.515625,0.5625 0.296875,0 0.53125,-0.203125 0.53125,-0.515625 0,-0.265625 -0.203125,-0.515625 -0.515625,-0.515625 -0.046875,0 -0.09375,0 -0.140625,0 z m 0,0"
               transform="translate(94.320844,66.656)"
               id="path3133"
               inkscape:connector-curvature="0" />
            <path
               style="stroke:none;stroke-width:0"
               d="m 0.8125,-1.203125 c 0.0625,0.03125 0.109375,0.03125 0.171875,0.03125 0.296875,0 0.5,-0.203125 0.5,-0.5 C 1.484375,-1.9375 1.25,-2.140625 1,-2.140625 c -0.265625,0 -0.5,0.1875 -0.5,0.5 0,1.03125 0.8125,1.84375 1.828125,1.84375 1.203125,0 2.140625,-1.03125 2.140625,-2.234375 0,-1.015625 -0.6875,-2.171875 -1.875,-2.171875 -0.484375,0 -0.921875,0.1875 -1.28125,0.515625 V -5.625 c 0.25,0.046875 0.484375,0.109375 0.734375,0.125 H 2.15625 c 0.703125,0 1.359375,-0.296875 1.828125,-0.84375 0.046875,-0.0625 0.109375,-0.125 0.109375,-0.203125 V -6.5625 c -0.015625,-0.046875 -0.0625,-0.09375 -0.109375,-0.09375 -0.109375,0 -0.34375,0.140625 -0.53125,0.203125 -0.28125,0.078125 -0.59375,0.125 -0.90625,0.125 -0.4375,0 -0.84375,-0.109375 -1.265625,-0.25 C 1.21875,-6.59375 1.171875,-6.625 1.125,-6.640625 H 1.109375 C 1.0625,-6.640625 1.015625,-6.59375 1,-6.546875 v 3.203125 c 0,0.078125 0.03125,0.15625 0.140625,0.15625 0.109375,0 0.21875,-0.21875 0.28125,-0.265625 C 1.6875,-3.78125 2.125,-3.984375 2.5625,-3.984375 h 0.03125 c 0.859375,0.03125 1,1.140625 1,1.90625 0,0.671875 -0.046875,1.515625 -0.8125,1.90625 C 2.625,-0.09375 2.4375,-0.0625 2.265625,-0.0625 c -0.640625,0 -1.28125,-0.5 -1.453125,-1.140625 z m 0,0"
               transform="translate(99.301148,66.656)"
               id="path3135"
               inkscape:connector-curvature="0" />
            <path
               style="stroke:none;stroke-width:0"
               d="m 2.359375,-6.65625 c -1.9375,0.171875 -1.96875,2.53125 -1.96875,3.5 0,0.9375 0.078125,2.015625 0.703125,2.75 0.328125,0.390625 0.875,0.625 1.375,0.625 0.84375,0 1.515625,-0.546875 1.8125,-1.3125 0.28125,-0.6875 0.296875,-1.453125 0.296875,-2.171875 0,-0.9375 -0.09375,-2.078125 -0.703125,-2.765625 C 3.53125,-6.421875 3,-6.65625 2.5,-6.65625 c -0.0625,0 -0.09375,0 -0.140625,0 z M 1.21875,-2.578125 c 0,-0.09375 0,-0.171875 0,-0.265625 V -3.3125 c 0,-0.484375 0,-0.953125 0.046875,-1.4375 0.03125,-0.375 0.0625,-0.796875 0.28125,-1.125 0.21875,-0.328125 0.5625,-0.5625 0.953125,-0.5625 1.171875,0 1.25,1.46875 1.25,2.453125 v 0.46875 c 0,0.265625 0.015625,0.5625 0.015625,0.859375 0,1.265625 -0.171875,2.640625 -1.265625,2.640625 -1.34375,0 -1.21875,-1.921875 -1.28125,-2.5625 z m 0,0"
               transform="translate(104.28145,66.656)"
               id="path3137"
               inkscape:connector-curvature="0" />
          </g>
        </g>
      </g>
      <g
         transform="matrix(0.458611,0,0,0.458611,113.78663,82.206349)"
         ns1:version="0.9.1"
         ns1:texconverter="pdflatex"
         ns1:pdfconverter="pdf2svg"
         ns1:text="True Parameters"
         ns1:preamble="/home/tim/Desktop/bachlor-arbeit/tex/preamble.tex"
         ns1:scale="1.3"
         ns1:alignment="middle center"
         ns1:jacobian_sqrt="0.458611"
         id="g6031">
        <g
           id="surface1">
          <g
             style="fill:#000000;fill-opacity:1"
             id="g5996">
            <path
               style="stroke:none;stroke-width:0"
               d="m 0.546875,-6.765625 -0.1875,2.25 h 0.25 c 0.03125,-0.515625 0.0625,-1.21875 0.375,-1.5625 0.34375,-0.359375 0.90625,-0.375 1.375,-0.375 h 0.25 c 0.265625,0 0.546875,0 0.546875,0.328125 v 5.359375 C 3.15625,-0.375 2.75,-0.3125 2.390625,-0.3125 c -0.125,0 -0.25,0 -0.359375,0 H 1.703125 v 0.296875 h 3.78125 V -0.3125 H 4.8125 c -0.390625,0 -0.78125,-0.046875 -0.78125,-0.453125 V -6.125 c 0,-0.28125 0.171875,-0.328125 0.546875,-0.328125 h 0.25 c 0.46875,0 1.03125,0.015625 1.375,0.375 0.3125,0.34375 0.34375,1.046875 0.375,1.5625 h 0.25 l -0.1875,-2.25 z m 0,0"
               transform="translate(71.637,66.656)"
               id="path5994"
               inkscape:connector-curvature="0" />
          </g>
          <g
             style="fill:#000000;fill-opacity:1"
             id="g6004">
            <path
               style="stroke:none;stroke-width:0"
               d="m 0.265625,-4.296875 v 0.3125 h 0.15625 c 0.328125,0 0.625,0.03125 0.625,0.5 v 2.75 c 0,0.40625 -0.28125,0.421875 -0.71875,0.421875 h -0.0625 v 0.296875 H 2.6875 V -0.3125 c -0.125,0 -0.265625,0 -0.390625,0 -0.3125,0 -0.578125,-0.046875 -0.578125,-0.421875 v -1.3125 c 0,-0.859375 0.1875,-2.140625 1.171875,-2.140625 0.046875,0 0.0625,0 0.109375,0.015625 -0.15625,0.0625 -0.234375,0.21875 -0.234375,0.390625 0,0.21875 0.15625,0.375 0.390625,0.421875 0.28125,0 0.46875,-0.171875 0.46875,-0.421875 0,-0.40625 -0.375,-0.625 -0.734375,-0.625 -0.59375,0 -1.109375,0.53125 -1.21875,1.0625 v -1.0625 z m 0,0"
               transform="translate(78.003101,66.656)"
               id="path5998"
               inkscape:connector-curvature="0" />
            <path
               style="stroke:none;stroke-width:0"
               d="m 0.3125,-4.296875 v 0.3125 h 0.140625 c 0.28125,0 0.578125,0.015625 0.640625,0.3125 0,0.109375 0,0.21875 0,0.328125 v 1.984375 c 0,0.328125 0.015625,0.625 0.1875,0.921875 0.28125,0.421875 0.84375,0.546875 1.3125,0.546875 0.453125,0 0.859375,-0.203125 1.109375,-0.5625 C 3.765625,-0.5625 3.84375,-0.65625 3.875,-0.78125 v 0.875 L 5.328125,-0.015625 V -0.3125 h -0.15625 c -0.328125,0 -0.625,-0.03125 -0.625,-0.484375 V -4.40625 l -1.46875,0.109375 v 0.3125 H 3.21875 c 0.328125,0 0.625,0.03125 0.625,0.5 V -1.6875 c 0,0.734375 -0.375,1.5625 -1.203125,1.5625 -0.5625,0 -0.84375,-0.140625 -0.84375,-1.203125 V -4.40625 Z m 0,0"
               transform="translate(81.904456,66.656)"
               id="path6000"
               inkscape:connector-curvature="0" />
            <path
               style="stroke:none;stroke-width:0"
               d="m 1.109375,-2.3125 h 2.875 c 0.109375,0 0.15625,-0.0625 0.15625,-0.1875 0,-1.046875 -0.640625,-1.96875 -1.765625,-1.96875 -1.21875,0 -2.09375,1.09375 -2.09375,2.28125 0,0.90625 0.5,1.734375 1.390625,2.125 0.21875,0.109375 0.484375,0.15625 0.734375,0.15625 H 2.4375 c 0.765625,0 1.40625,-0.421875 1.671875,-1.1875 C 4.125,-1.125 4.125,-1.171875 4.125,-1.203125 4.125,-1.265625 4.09375,-1.3125 4.015625,-1.3125 3.875,-1.3125 3.8125,-0.984375 3.75,-0.875 3.5,-0.4375 3.015625,-0.15625 2.5,-0.15625 c -0.359375,0 -0.6875,-0.203125 -0.953125,-0.46875 -0.40625,-0.46875 -0.4375,-1.109375 -0.4375,-1.6875 z M 1.125,-2.515625 C 1.125,-3.296875 1.53125,-4.25 2.359375,-4.25 H 2.40625 c 0.96875,0.09375 0.96875,1.125 1.0625,1.734375 z m 0,0"
               transform="translate(87.437684,66.656)"
               id="path6002"
               inkscape:connector-curvature="0" />
          </g>
          <g
             style="fill:#000000;fill-opacity:1"
             id="g6008">
            <path
               style="stroke:none;stroke-width:0"
               d="m 0.34375,-6.8125 v 0.296875 c 0.125,0 0.25,0 0.375,0 0.359375,0 0.640625,0.046875 0.640625,0.4375 V -0.75 c 0,0.375 -0.328125,0.4375 -0.65625,0.4375 -0.140625,0 -0.25,0 -0.359375,0 v 0.296875 h 2.9375 V -0.3125 H 2.9375 C 2.515625,-0.3125 2.25,-0.34375 2.25,-0.75 v -2.40625 h 1.84375 c 0.9375,-0.078125 2.125,-0.65625 2.125,-1.796875 0,-1.0625 -1.046875,-1.75 -2.046875,-1.859375 -0.15625,0 -0.296875,-0.015625 -0.4375,-0.015625 -0.203125,0 -0.40625,0.015625 -0.59375,0.015625 z m 1.875,3.390625 V -6.1875 c 0,-0.265625 0.171875,-0.296875 0.359375,-0.328125 h 0.75 c 0.5625,0 1.203125,0.03125 1.59375,0.5 0.234375,0.28125 0.265625,0.6875 0.265625,1.046875 0,0.359375 -0.03125,0.734375 -0.25,1.03125 -0.328125,0.421875 -0.90625,0.515625 -1.421875,0.515625 z m 0,0"
               transform="translate(95.181613,66.656)"
               id="path6006"
               inkscape:connector-curvature="0" />
          </g>
          <g
             style="fill:#000000;fill-opacity:1"
             id="g6028">
            <path
               style="stroke:none;stroke-width:0"
               d="m 1.109375,-3.796875 c 0.25,-0.3125 0.6875,-0.453125 1.0625,-0.453125 0.734375,0 1.0625,0.671875 1.0625,1.375 v 0.265625 c -1.140625,0 -2.828125,0.359375 -2.828125,1.65625 V -0.875 c 0.078125,0.78125 1.046875,0.96875 1.625,0.96875 0.5,0 1.15625,-0.328125 1.28125,-0.84375 0.0625,0.4375 0.34375,0.796875 0.78125,0.796875 0.40625,0 0.765625,-0.328125 0.828125,-0.78125 v -0.71875 h -0.25 v 0.5 c 0,0.28125 -0.0625,0.6875 -0.359375,0.6875 -0.328125,0 -0.375,-0.390625 -0.375,-0.65625 V -2.59375 c 0,-0.125 0.015625,-0.25 0.015625,-0.375 0,-0.96875 -0.90625,-1.5 -1.734375,-1.5 -0.640625,0 -1.515625,0.3125 -1.515625,1.109375 0,0.28125 0.203125,0.484375 0.46875,0.484375 0.28125,0 0.4375,-0.21875 0.4375,-0.46875 0,-0.28125 -0.21875,-0.453125 -0.5,-0.453125 z m 2.125,1.390625 v 1.015625 c 0,0.6875 -0.46875,1.234375 -1.125,1.265625 H 2.078125 C 1.609375,-0.125 1.1875,-0.484375 1.1875,-0.96875 V -1.015625 C 1.25,-2.03125 2.375,-2.375 3.234375,-2.40625 Z m 0,0"
               transform="translate(101.68121,66.656)"
               id="path6010"
               inkscape:connector-curvature="0" />
            <path
               style="stroke:none;stroke-width:0"
               d="m 0.265625,-4.296875 v 0.3125 h 0.15625 c 0.328125,0 0.625,0.03125 0.625,0.5 v 2.75 c 0,0.40625 -0.28125,0.421875 -0.71875,0.421875 h -0.0625 v 0.296875 H 2.6875 V -0.3125 c -0.125,0 -0.265625,0 -0.390625,0 -0.3125,0 -0.578125,-0.046875 -0.578125,-0.421875 v -1.3125 c 0,-0.859375 0.1875,-2.140625 1.171875,-2.140625 0.046875,0 0.0625,0 0.109375,0.015625 -0.15625,0.0625 -0.234375,0.21875 -0.234375,0.390625 0,0.21875 0.15625,0.375 0.390625,0.421875 0.28125,0 0.46875,-0.171875 0.46875,-0.421875 0,-0.40625 -0.375,-0.625 -0.734375,-0.625 -0.59375,0 -1.109375,0.53125 -1.21875,1.0625 v -1.0625 z m 0,0"
               transform="translate(106.66152,66.656)"
               id="path6012"
               inkscape:connector-curvature="0" />
            <path
               style="stroke:none;stroke-width:0"
               d="m 1.109375,-3.796875 c 0.25,-0.3125 0.6875,-0.453125 1.0625,-0.453125 0.734375,0 1.0625,0.671875 1.0625,1.375 v 0.265625 c -1.140625,0 -2.828125,0.359375 -2.828125,1.65625 V -0.875 c 0.078125,0.78125 1.046875,0.96875 1.625,0.96875 0.5,0 1.15625,-0.328125 1.28125,-0.84375 0.0625,0.4375 0.34375,0.796875 0.78125,0.796875 0.40625,0 0.765625,-0.328125 0.828125,-0.78125 v -0.71875 h -0.25 v 0.5 c 0,0.28125 -0.0625,0.6875 -0.359375,0.6875 -0.328125,0 -0.375,-0.390625 -0.375,-0.65625 V -2.59375 c 0,-0.125 0.015625,-0.25 0.015625,-0.375 0,-0.96875 -0.90625,-1.5 -1.734375,-1.5 -0.640625,0 -1.515625,0.3125 -1.515625,1.109375 0,0.28125 0.203125,0.484375 0.46875,0.484375 0.28125,0 0.4375,-0.21875 0.4375,-0.46875 0,-0.28125 -0.21875,-0.453125 -0.5,-0.453125 z m 2.125,1.390625 v 1.015625 c 0,0.6875 -0.46875,1.234375 -1.125,1.265625 H 2.078125 C 1.609375,-0.125 1.1875,-0.484375 1.1875,-0.96875 V -1.015625 C 1.25,-2.03125 2.375,-2.375 3.234375,-2.40625 Z m 0,0"
               transform="translate(110.56287,66.656)"
               id="path6014"
               inkscape:connector-curvature="0" />
            <path
               style="stroke:none;stroke-width:0"
               d="m 0.3125,-4.296875 v 0.3125 h 0.15625 c 0.328125,0 0.625,0.03125 0.625,0.5 v 2.75 c 0,0.40625 -0.28125,0.421875 -0.71875,0.421875 H 0.3125 v 0.296875 H 2.578125 V -0.3125 H 2.3125 c -0.28125,0 -0.515625,-0.046875 -0.515625,-0.421875 v -1.8125 c 0,-0.734375 0.390625,-1.640625 1.359375,-1.640625 0.625,0 0.703125,0.65625 0.703125,1.109375 v 2.375 c 0,0.359375 -0.296875,0.390625 -0.625,0.390625 h -0.15625 v 0.296875 h 2.25 V -0.3125 h -0.25 c -0.28125,0 -0.515625,-0.046875 -0.515625,-0.421875 v -1.8125 c 0,-0.734375 0.390625,-1.640625 1.34375,-1.640625 0.640625,0 0.71875,0.65625 0.71875,1.109375 v 2.375 C 6.625,-0.34375 6.3125,-0.3125 5.984375,-0.3125 H 5.84375 v 0.296875 h 2.25 V -0.3125 H 7.890625 C 7.59375,-0.3125 7.3125,-0.34375 7.3125,-0.703125 v -2.25 c 0,-0.359375 -0.015625,-0.703125 -0.25,-1.03125 C 6.796875,-4.3125 6.375,-4.40625 5.96875,-4.40625 c -0.640625,0 -1.171875,0.375 -1.4375,0.953125 C 4.34375,-4.15625 3.890625,-4.40625 3.203125,-4.40625 2.5625,-4.40625 1.953125,-4 1.75,-3.390625 L 1.734375,-4.40625 Z m 0,0"
               transform="translate(115.54317,66.656)"
               id="path6016"
               inkscape:connector-curvature="0" />
            <path
               style="stroke:none;stroke-width:0"
               d="m 1.109375,-2.3125 h 2.875 c 0.109375,0 0.15625,-0.0625 0.15625,-0.1875 0,-1.046875 -0.640625,-1.96875 -1.765625,-1.96875 -1.21875,0 -2.09375,1.09375 -2.09375,2.28125 0,0.90625 0.5,1.734375 1.390625,2.125 0.21875,0.109375 0.484375,0.15625 0.734375,0.15625 H 2.4375 c 0.765625,0 1.40625,-0.421875 1.671875,-1.1875 C 4.125,-1.125 4.125,-1.171875 4.125,-1.203125 4.125,-1.265625 4.09375,-1.3125 4.015625,-1.3125 3.875,-1.3125 3.8125,-0.984375 3.75,-0.875 3.5,-0.4375 3.015625,-0.15625 2.5,-0.15625 c -0.359375,0 -0.6875,-0.203125 -0.953125,-0.46875 -0.40625,-0.46875 -0.4375,-1.109375 -0.4375,-1.6875 z M 1.125,-2.515625 C 1.125,-3.296875 1.53125,-4.25 2.359375,-4.25 H 2.40625 c 0.96875,0.09375 0.96875,1.125 1.0625,1.734375 z m 0,0"
               transform="translate(123.84302,66.656)"
               id="path6018"
               inkscape:connector-curvature="0" />
            <path
               style="stroke:none;stroke-width:0"
               d="m 1.484375,-6.140625 c 0,0.6875 -0.28125,1.9375 -1.3125,1.9375 v 0.21875 H 1.03125 v 2.5625 c 0,0.328125 0.03125,0.671875 0.1875,0.953125 0.21875,0.40625 0.6875,0.5625 1.125,0.5625 0.8125,0 0.96875,-0.90625 0.96875,-1.546875 V -1.8125 H 3.078125 c 0,0.140625 0,0.296875 0,0.453125 0,0.4375 -0.09375,1.203125 -0.6875,1.203125 -0.5625,0 -0.65625,-0.6875 -0.65625,-1.125 V -3.984375 H 3.15625 v -0.3125 H 1.734375 v -1.84375 z m 0,0"
               transform="translate(128.2694,66.656)"
               id="path6020"
               inkscape:connector-curvature="0" />
            <path
               style="stroke:none;stroke-width:0"
               d="m 1.109375,-2.3125 h 2.875 c 0.109375,0 0.15625,-0.0625 0.15625,-0.1875 0,-1.046875 -0.640625,-1.96875 -1.765625,-1.96875 -1.21875,0 -2.09375,1.09375 -2.09375,2.28125 0,0.90625 0.5,1.734375 1.390625,2.125 0.21875,0.109375 0.484375,0.15625 0.734375,0.15625 H 2.4375 c 0.765625,0 1.40625,-0.421875 1.671875,-1.1875 C 4.125,-1.125 4.125,-1.171875 4.125,-1.203125 4.125,-1.265625 4.09375,-1.3125 4.015625,-1.3125 3.875,-1.3125 3.8125,-0.984375 3.75,-0.875 3.5,-0.4375 3.015625,-0.15625 2.5,-0.15625 c -0.359375,0 -0.6875,-0.203125 -0.953125,-0.46875 -0.40625,-0.46875 -0.4375,-1.109375 -0.4375,-1.6875 z M 1.125,-2.515625 C 1.125,-3.296875 1.53125,-4.25 2.359375,-4.25 H 2.40625 c 0.96875,0.09375 0.96875,1.125 1.0625,1.734375 z m 0,0"
               transform="translate(132.14286,66.656)"
               id="path6022"
               inkscape:connector-curvature="0" />
            <path
               style="stroke:none;stroke-width:0"
               d="m 0.265625,-4.296875 v 0.3125 h 0.15625 c 0.328125,0 0.625,0.03125 0.625,0.5 v 2.75 c 0,0.40625 -0.28125,0.421875 -0.71875,0.421875 h -0.0625 v 0.296875 H 2.6875 V -0.3125 c -0.125,0 -0.265625,0 -0.390625,0 -0.3125,0 -0.578125,-0.046875 -0.578125,-0.421875 v -1.3125 c 0,-0.859375 0.1875,-2.140625 1.171875,-2.140625 0.046875,0 0.0625,0 0.109375,0.015625 -0.15625,0.0625 -0.234375,0.21875 -0.234375,0.390625 0,0.21875 0.15625,0.375 0.390625,0.421875 0.28125,0 0.46875,-0.171875 0.46875,-0.421875 0,-0.40625 -0.375,-0.625 -0.734375,-0.625 -0.59375,0 -1.109375,0.53125 -1.21875,1.0625 v -1.0625 z m 0,0"
               transform="translate(136.56924,66.656)"
               id="path6024"
               inkscape:connector-curvature="0" />
            <path
               style="stroke:none;stroke-width:0"
               d="M 1.75,-4.46875 C 1.390625,-4.421875 1,-4.359375 0.703125,-4.109375 c -0.234375,0.21875 -0.375,0.546875 -0.375,0.875 C 0.328125,-1.53125 3.09375,-2.5 3.09375,-1 3.09375,-0.40625 2.546875,-0.125 2,-0.125 1.25,-0.125 0.734375,-0.65625 0.59375,-1.515625 0.578125,-1.609375 0.5625,-1.6875 0.453125,-1.6875 c -0.078125,0 -0.125,0.046875 -0.125,0.125 V 0.015625 C 0.34375,0.0625 0.375,0.09375 0.421875,0.09375 H 0.4375 c 0.15625,0 0.3125,-0.359375 0.4375,-0.390625 h 0.015625 c 0.078125,0 0.34375,0.25 0.5625,0.3125 0.15625,0.0625 0.34375,0.078125 0.515625,0.078125 0.828125,0 1.625,-0.4375 1.625,-1.34375 0,-0.65625 -0.484375,-1.203125 -1.140625,-1.375 -0.625,-0.171875 -1.640625,-0.171875 -1.640625,-0.890625 0,-0.609375 0.671875,-0.765625 1.109375,-0.765625 0.484375,0 1.171875,0.28125 1.171875,1.125 0,0.09375 0,0.171875 0.109375,0.171875 0.109375,0 0.140625,-0.078125 0.140625,-0.171875 0,-0.046875 0,-0.109375 0,-0.140625 v -1.03125 c 0,-0.0625 -0.03125,-0.140625 -0.109375,-0.140625 -0.15625,0 -0.265625,0.25 -0.375,0.25 H 2.84375 c -0.078125,0 -0.234375,-0.125 -0.34375,-0.171875 -0.1875,-0.0625 -0.390625,-0.078125 -0.578125,-0.078125 -0.0625,0 -0.109375,0 -0.171875,0 z m 0,0"
               transform="translate(140.4706,66.656)"
               id="path6026"
               inkscape:connector-curvature="0" />
          </g>
        </g>
      </g>
    </g>
  </g>
</svg>
