<?xml version="1.0" encoding="UTF-8" standalone="no"?>
<!-- Created with Inkscape (http://www.inkscape.org/) -->

<svg
   xmlns:dc="http://purl.org/dc/elements/1.1/"
   xmlns:cc="http://creativecommons.org/ns#"
   xmlns:rdf="http://www.w3.org/1999/02/22-rdf-syntax-ns#"
   xmlns:svg="http://www.w3.org/2000/svg"
   xmlns="http://www.w3.org/2000/svg"
   xmlns:sodipodi="http://sodipodi.sourceforge.net/DTD/sodipodi-0.dtd"
   xmlns:inkscape="http://www.inkscape.org/namespaces/inkscape"
   version="1.1"
   id="svg2"
   xml:space="preserve"
   width="638.7644"
   height="394.12717"
   viewBox="0 0 638.76439 394.12717"
   sodipodi:docname="al_true_params.svg"
   inkscape:version="0.92.4 5da689c313, 2019-01-14"><metadata
     id="metadata8"><rdf:RDF><cc:Work
         rdf:about=""><dc:format>image/svg+xml</dc:format><dc:type
           rdf:resource="http://purl.org/dc/dcmitype/StillImage" /><dc:title></dc:title></cc:Work></rdf:RDF></metadata><defs
     id="defs6"><clipPath
       clipPathUnits="userSpaceOnUse"
       id="clipPath76"><path
         d="M 97.83,38.016 H 229.68783 V 304.128 H 97.83 Z"
         id="path74"
         inkscape:connector-curvature="0" /></clipPath><clipPath
       clipPathUnits="userSpaceOnUse"
       id="clipPath162"><path
         d="M 256.05939,38.016 H 387.91722 V 304.128 H 256.05939 Z"
         id="path160"
         inkscape:connector-curvature="0" /></clipPath></defs><sodipodi:namedview
     pagecolor="#ffffff"
     bordercolor="#666666"
     borderopacity="1"
     objecttolerance="10"
     gridtolerance="10"
     guidetolerance="10"
     inkscape:pageopacity="0"
     inkscape:pageshadow="2"
     inkscape:window-width="1920"
     inkscape:window-height="1052"
     id="namedview4"
     showgrid="false"
     inkscape:zoom="1.0784188"
     inkscape:cx="363.09356"
     inkscape:cy="173.46106"
     inkscape:window-x="0"
     inkscape:window-y="28"
     inkscape:window-maximized="1"
     inkscape:current-layer="g10"
     fit-margin-top="0"
     fit-margin-left="0"
     fit-margin-right="0"
     fit-margin-bottom="0" /><g
     id="g10"
     inkscape:groupmode="layer"
     inkscape:label="al_true_params"
     transform="matrix(1.3333333,0,0,-1.3333333,-92.298071,425.16804)"><path
       d="M 97.83,38.016 H 229.68783 V 304.128 H 97.83 Z"
       style="fill:#ffffff;fill-opacity:1;fill-rule:nonzero;stroke:none"
       id="path14"
       inkscape:connector-curvature="0" /><path
       d="m 103.82354,38.016 v -3.5"
       style="fill:#000000;fill-opacity:1;fill-rule:nonzero;stroke:#000000;stroke-width:0.80000001;stroke-linecap:butt;stroke-linejoin:round;stroke-miterlimit:10;stroke-dasharray:none;stroke-opacity:1"
       id="path16"
       inkscape:connector-curvature="0" /><text
       transform="matrix(1,0,0,-1,100.64385,23.42225)"
       style="font-variant:normal;font-weight:normal;font-size:10px;font-family:'DejaVu Sans';-inkscape-font-specification:DejaVuSans;writing-mode:lr-tb;fill:#000000;fill-opacity:1;fill-rule:nonzero;stroke:none"
       id="text20"><tspan
         x="0"
         y="0"
         id="tspan18">0</tspan></text>
<path
       d="m 141.51874,38.016 v -3.5"
       style="fill:#000000;fill-opacity:1;fill-rule:nonzero;stroke:#000000;stroke-width:0.80000001;stroke-linecap:butt;stroke-linejoin:round;stroke-miterlimit:10;stroke-dasharray:none;stroke-opacity:1"
       id="path22"
       inkscape:connector-curvature="0" /><text
       transform="matrix(1,0,0,-1,135.15937,23.42225)"
       style="font-variant:normal;font-weight:normal;font-size:10px;font-family:'DejaVu Sans';-inkscape-font-specification:DejaVuSans;writing-mode:lr-tb;fill:#000000;fill-opacity:1;fill-rule:nonzero;stroke:none"
       id="text26"><tspan
         x="0 6.3600001"
         y="0"
         sodipodi:role="line"
         id="tspan24">50</tspan></text>
<path
       d="m 179.21395,38.016 v -3.5"
       style="fill:#000000;fill-opacity:1;fill-rule:nonzero;stroke:#000000;stroke-width:0.80000001;stroke-linecap:butt;stroke-linejoin:round;stroke-miterlimit:10;stroke-dasharray:none;stroke-opacity:1"
       id="path28"
       inkscape:connector-curvature="0" /><text
       transform="matrix(1,0,0,-1,169.67488,23.42225)"
       style="font-variant:normal;font-weight:normal;font-size:10px;font-family:'DejaVu Sans';-inkscape-font-specification:DejaVuSans;writing-mode:lr-tb;fill:#000000;fill-opacity:1;fill-rule:nonzero;stroke:none"
       id="text32"><tspan
         x="0 6.3600001 12.72"
         y="0"
         sodipodi:role="line"
         id="tspan30">100</tspan></text>
<path
       d="m 216.90915,38.016 v -3.5"
       style="fill:#000000;fill-opacity:1;fill-rule:nonzero;stroke:#000000;stroke-width:0.80000001;stroke-linecap:butt;stroke-linejoin:round;stroke-miterlimit:10;stroke-dasharray:none;stroke-opacity:1"
       id="path34"
       inkscape:connector-curvature="0" /><text
       transform="matrix(1,0,0,-1,207.37009,23.42225)"
       style="font-variant:normal;font-weight:normal;font-size:10px;font-family:'DejaVu Sans';-inkscape-font-specification:DejaVuSans;writing-mode:lr-tb;fill:#000000;fill-opacity:1;fill-rule:nonzero;stroke:none"
       id="text38"><tspan
         x="0 6.3600001 12.72"
         y="0"
         sodipodi:role="line"
         id="tspan36">150</tspan></text>
<path
       d="m 97.83,40.68043 h -3.5"
       style="fill:#000000;fill-opacity:1;fill-rule:nonzero;stroke:#000000;stroke-width:0.80000001;stroke-linecap:butt;stroke-linejoin:round;stroke-miterlimit:10;stroke-dasharray:none;stroke-opacity:1"
       id="path40"
       inkscape:connector-curvature="0" /><text
       transform="matrix(1,0,0,-1,68.564375,36.883555)"
       style="font-variant:normal;font-weight:normal;font-size:10px;font-family:'DejaVu Sans';-inkscape-font-specification:DejaVuSans;writing-mode:lr-tb;fill:#000000;fill-opacity:1;fill-rule:nonzero;stroke:none"
       id="text44"><tspan
         x="0 6.3600001 9.54 15.9"
         y="0"
         sodipodi:role="line"
         id="tspan42">0.00</tspan></text>
<path
       d="m 97.83,97.01969 h -3.5"
       style="fill:#000000;fill-opacity:1;fill-rule:nonzero;stroke:#000000;stroke-width:0.80000001;stroke-linecap:butt;stroke-linejoin:round;stroke-miterlimit:10;stroke-dasharray:none;stroke-opacity:1"
       id="path46"
       inkscape:connector-curvature="0" /><text
       transform="matrix(1,0,0,-1,68.564375,93.222815)"
       style="font-variant:normal;font-weight:normal;font-size:10px;font-family:'DejaVu Sans';-inkscape-font-specification:DejaVuSans;writing-mode:lr-tb;fill:#000000;fill-opacity:1;fill-rule:nonzero;stroke:none"
       id="text50"><tspan
         x="0 6.3600001 9.54 15.9"
         y="0"
         sodipodi:role="line"
         id="tspan48">0.05</tspan></text>
<path
       d="m 97.83,153.35895 h -3.5"
       style="fill:#000000;fill-opacity:1;fill-rule:nonzero;stroke:#000000;stroke-width:0.80000001;stroke-linecap:butt;stroke-linejoin:round;stroke-miterlimit:10;stroke-dasharray:none;stroke-opacity:1"
       id="path52"
       inkscape:connector-curvature="0" /><text
       transform="matrix(1,0,0,-1,68.564375,149.56208)"
       style="font-variant:normal;font-weight:normal;font-size:10px;font-family:'DejaVu Sans';-inkscape-font-specification:DejaVuSans;writing-mode:lr-tb;fill:#000000;fill-opacity:1;fill-rule:nonzero;stroke:none"
       id="text56"><tspan
         x="0 6.3600001 9.54 15.9"
         y="0"
         sodipodi:role="line"
         id="tspan54">0.10</tspan></text>
<path
       d="m 97.83,209.69821 h -3.5"
       style="fill:#000000;fill-opacity:1;fill-rule:nonzero;stroke:#000000;stroke-width:0.80000001;stroke-linecap:butt;stroke-linejoin:round;stroke-miterlimit:10;stroke-dasharray:none;stroke-opacity:1"
       id="path58"
       inkscape:connector-curvature="0" /><text
       transform="matrix(1,0,0,-1,68.564375,205.90134)"
       style="font-variant:normal;font-weight:normal;font-size:10px;font-family:'DejaVu Sans';-inkscape-font-specification:DejaVuSans;writing-mode:lr-tb;fill:#000000;fill-opacity:1;fill-rule:nonzero;stroke:none"
       id="text62"><tspan
         x="0 6.3600001 9.54 15.9"
         y="0"
         sodipodi:role="line"
         id="tspan60">0.15</tspan></text>
<path
       d="m 97.83,266.03747 h -3.5"
       style="fill:#000000;fill-opacity:1;fill-rule:nonzero;stroke:#000000;stroke-width:0.80000001;stroke-linecap:butt;stroke-linejoin:round;stroke-miterlimit:10;stroke-dasharray:none;stroke-opacity:1"
       id="path64"
       inkscape:connector-curvature="0" /><text
       transform="matrix(1,0,0,-1,68.564375,262.2406)"
       style="font-variant:normal;font-weight:normal;font-size:10px;font-family:'DejaVu Sans';-inkscape-font-specification:DejaVuSans;writing-mode:lr-tb;fill:#000000;fill-opacity:1;fill-rule:nonzero;stroke:none"
       id="text68"><tspan
         x="0 6.3600001 9.54 15.9"
         y="0"
         sodipodi:role="line"
         id="tspan66">0.20</tspan></text>
<g
       id="g70"><g
         id="g72"
         clip-path="url(#clipPath76)"><path
           d="m 103.82354,204.00329 0.7539,0.49093 0.75391,3.46137 0.7539,5.88039 1.50781,16.05904 2.26171,25.80353 1.50781,15.14634 1.50781,12.24003 0.7539,4.50213 0.7539,3.06694 0.75391,1.37801 0.7539,-0.49663 0.75391,-2.45848 0.7539,-4.39326 0.75391,-6.19238 0.7539,-7.77379 1.50781,-19.08034 3.01561,-40.82433 1.50781,-15.85201 4.52343,-42.55045 1.5078,-11.71662 1.50781,-9.86468 1.50781,-8.92234 1.50781,-7.92746 1.50781,-6.88217 1.50781,-5.9685 1.5078,-5.233172 2.26172,-6.835764 2.26171,-6.03466 4.52342,-11.795418 2.26171,-6.764778 3.76953,-12.141394 0.7539,-1.578213 0.7539,-0.633161 0.75391,0.725058 0.7539,2.424638 0.75391,4.236095 0.7539,5.873427 1.50781,15.197074 2.26171,23.719928 1.50781,12.12402 1.50781,8.87927 1.50781,6.42311 1.5078,4.63236 6.78514,16.81771 2.26171,5.01877 2.26171,4.71333 1.50781,3.75804 2.26172,6.38222 4.52342,13.61803 3.76952,11.69272 3.76952,13.10504 3.01562,10.18114 1.50781,4.61052 1.5078,4.03439 1.50781,3.26465 1.50781,2.56731 3.01562,4.516 0.7539,0.91768 0.7539,0.70836 0.75391,0.451 0.7539,0.16369 0.75391,-0.14265 0.7539,-0.45824 0.7539,-0.77962 0.75391,-1.10528 0.7539,-1.43566 0.75391,-1.76598 1.50781,-4.46083 6.03123,-20.67389 v 0"
           style="fill:none;stroke:#1f77b4;stroke-width:1.5;stroke-linecap:square;stroke-linejoin:round;stroke-miterlimit:10;stroke-dasharray:none;stroke-opacity:1"
           id="path78"
           inkscape:connector-curvature="0" /></g></g><path
       inkscape:connector-curvature="0"
       id="path82"
       style="fill:none;stroke:#000000;stroke-width:0.80000001;stroke-linecap:square;stroke-linejoin:miter;stroke-miterlimit:10;stroke-dasharray:none;stroke-opacity:1"
       d="M 97.83,38.016 V 304.128" /><path
       inkscape:connector-curvature="0"
       id="path84"
       style="fill:none;stroke:#000000;stroke-width:0.80000001;stroke-linecap:square;stroke-linejoin:miter;stroke-miterlimit:10;stroke-dasharray:none;stroke-opacity:1"
       d="M 229.68783,38.016 V 304.128" /><path
       inkscape:connector-curvature="0"
       id="path86"
       style="fill:none;stroke:#000000;stroke-width:0.80000001;stroke-linecap:square;stroke-linejoin:miter;stroke-miterlimit:10;stroke-dasharray:none;stroke-opacity:1"
       d="M 97.83,38.016 H 229.68783" /><path
       inkscape:connector-curvature="0"
       id="path88"
       style="fill:none;stroke:#000000;stroke-width:0.80000001;stroke-linecap:square;stroke-linejoin:miter;stroke-miterlimit:10;stroke-dasharray:none;stroke-opacity:1"
       d="M 97.83,304.128 H 229.68783" /><text
       id="text92"
       style="font-variant:normal;font-weight:normal;font-size:12px;font-family:'DejaVu Sans';-inkscape-font-specification:DejaVuSans;writing-mode:lr-tb;fill:#000000;fill-opacity:1;fill-rule:nonzero;stroke:none"
       transform="scale(1,-1)"
       x="139.10266"
       y="-310.12799"><tspan
         id="tspan90"
         sodipodi:role="line"
         y="-310.12799"
         x="139.10266 147.32266 151.13866 158.47066 163.40266 170.75867 178.36665 184.61865">X Trans.</tspan></text>
<path
       inkscape:connector-curvature="0"
       id="path94"
       style="fill:#ffffff;fill-opacity:1;fill-rule:nonzero;stroke:none"
       d="M 266.49133,38.016 H 398.34916 V 304.128 H 266.49133 Z" /><path
       inkscape:connector-curvature="0"
       id="path96"
       style="fill:#000000;fill-opacity:1;fill-rule:nonzero;stroke:#000000;stroke-width:0.80000001;stroke-linecap:butt;stroke-linejoin:round;stroke-miterlimit:10;stroke-dasharray:none;stroke-opacity:1"
       d="m 272.48487,38.016 v -3.5" /><text
       id="text100"
       style="font-variant:normal;font-weight:normal;font-size:10px;font-family:'DejaVu Sans';-inkscape-font-specification:DejaVuSans;writing-mode:lr-tb;fill:#000000;fill-opacity:1;fill-rule:nonzero;stroke:none"
       transform="scale(1,-1)"
       x="269.30518"
       y="-23.422251"><tspan
         id="tspan98"
         y="-23.422251"
         x="269.30518">0</tspan></text>
<path
       inkscape:connector-curvature="0"
       id="path102"
       style="fill:#000000;fill-opacity:1;fill-rule:nonzero;stroke:#000000;stroke-width:0.80000001;stroke-linecap:butt;stroke-linejoin:round;stroke-miterlimit:10;stroke-dasharray:none;stroke-opacity:1"
       d="m 310.18007,38.016 v -3.5" /><text
       id="text106"
       style="font-variant:normal;font-weight:normal;font-size:10px;font-family:'DejaVu Sans';-inkscape-font-specification:DejaVuSans;writing-mode:lr-tb;fill:#000000;fill-opacity:1;fill-rule:nonzero;stroke:none"
       transform="scale(1,-1)"
       x="303.82071"
       y="-23.422251"><tspan
         id="tspan104"
         sodipodi:role="line"
         y="-23.422251"
         x="303.82071 310.18069">50</tspan></text>
<path
       inkscape:connector-curvature="0"
       id="path108"
       style="fill:#000000;fill-opacity:1;fill-rule:nonzero;stroke:#000000;stroke-width:0.80000001;stroke-linecap:butt;stroke-linejoin:round;stroke-miterlimit:10;stroke-dasharray:none;stroke-opacity:1"
       d="m 347.87528,38.016 v -3.5" /><text
       id="text112"
       style="font-variant:normal;font-weight:normal;font-size:10px;font-family:'DejaVu Sans';-inkscape-font-specification:DejaVuSans;writing-mode:lr-tb;fill:#000000;fill-opacity:1;fill-rule:nonzero;stroke:none"
       transform="scale(1,-1)"
       x="338.33621"
       y="-23.422251"><tspan
         id="tspan110"
         sodipodi:role="line"
         y="-23.422251"
         x="338.33621 344.69623 351.05621">100</tspan></text>
<path
       inkscape:connector-curvature="0"
       id="path114"
       style="fill:#000000;fill-opacity:1;fill-rule:nonzero;stroke:#000000;stroke-width:0.80000001;stroke-linecap:butt;stroke-linejoin:round;stroke-miterlimit:10;stroke-dasharray:none;stroke-opacity:1"
       d="m 385.57048,38.016 v -3.5" /><text
       id="text118"
       style="font-variant:normal;font-weight:normal;font-size:10px;font-family:'DejaVu Sans';-inkscape-font-specification:DejaVuSans;writing-mode:lr-tb;fill:#000000;fill-opacity:1;fill-rule:nonzero;stroke:none"
       transform="scale(1,-1)"
       x="376.03143"
       y="-23.422251"><tspan
         id="tspan116"
         sodipodi:role="line"
         y="-23.422251"
         x="376.03143 382.39142 388.75143">150</tspan></text>
<path
       inkscape:connector-curvature="0"
       id="path120"
       style="fill:#000000;fill-opacity:1;fill-rule:nonzero;stroke:#000000;stroke-width:0.80000001;stroke-linecap:butt;stroke-linejoin:round;stroke-miterlimit:10;stroke-dasharray:none;stroke-opacity:1"
       d="m 266.49133,67.772351 h -3.5" /><text
       id="text124"
       style="font-variant:normal;font-weight:normal;font-size:10px;font-family:'DejaVu Sans';-inkscape-font-specification:DejaVuSans;writing-mode:lr-tb;fill:#000000;fill-opacity:1;fill-rule:nonzero;stroke:none"
       transform="scale(1,-1)"
       x="237.22572"
       y="-63.975475"><tspan
         id="tspan122"
         sodipodi:role="line"
         y="-63.975475"
         x="237.22572 243.58571 246.76572 253.12572">0.05</tspan></text>
<path
       inkscape:connector-curvature="0"
       id="path126"
       style="fill:#000000;fill-opacity:1;fill-rule:nonzero;stroke:#000000;stroke-width:0.80000001;stroke-linecap:butt;stroke-linejoin:round;stroke-miterlimit:10;stroke-dasharray:none;stroke-opacity:1"
       d="m 266.49133,112.14305 h -3.5" /><text
       id="text130"
       style="font-variant:normal;font-weight:normal;font-size:10px;font-family:'DejaVu Sans';-inkscape-font-specification:DejaVuSans;writing-mode:lr-tb;fill:#000000;fill-opacity:1;fill-rule:nonzero;stroke:none"
       transform="scale(1,-1)"
       x="237.22572"
       y="-108.34617"><tspan
         id="tspan128"
         sodipodi:role="line"
         y="-108.34617"
         x="237.22572 243.58571 246.76572 253.12572">0.10</tspan></text>
<path
       inkscape:connector-curvature="0"
       id="path132"
       style="fill:#000000;fill-opacity:1;fill-rule:nonzero;stroke:#000000;stroke-width:0.80000001;stroke-linecap:butt;stroke-linejoin:round;stroke-miterlimit:10;stroke-dasharray:none;stroke-opacity:1"
       d="m 266.49133,156.51375 h -3.5" /><text
       id="text136"
       style="font-variant:normal;font-weight:normal;font-size:10px;font-family:'DejaVu Sans';-inkscape-font-specification:DejaVuSans;writing-mode:lr-tb;fill:#000000;fill-opacity:1;fill-rule:nonzero;stroke:none"
       transform="scale(1,-1)"
       x="237.22572"
       y="-152.71687"><tspan
         id="tspan134"
         sodipodi:role="line"
         y="-152.71687"
         x="237.22572 243.58571 246.76572 253.12572">0.15</tspan></text>
<path
       inkscape:connector-curvature="0"
       id="path138"
       style="fill:#000000;fill-opacity:1;fill-rule:nonzero;stroke:#000000;stroke-width:0.80000001;stroke-linecap:butt;stroke-linejoin:round;stroke-miterlimit:10;stroke-dasharray:none;stroke-opacity:1"
       d="m 266.49133,200.88444 h -3.5" /><text
       id="text142"
       style="font-variant:normal;font-weight:normal;font-size:10px;font-family:'DejaVu Sans';-inkscape-font-specification:DejaVuSans;writing-mode:lr-tb;fill:#000000;fill-opacity:1;fill-rule:nonzero;stroke:none"
       transform="scale(1,-1)"
       x="237.22572"
       y="-197.08757"><tspan
         id="tspan140"
         sodipodi:role="line"
         y="-197.08757"
         x="237.22572 243.58571 246.76572 253.12572">0.20</tspan></text>
<path
       inkscape:connector-curvature="0"
       id="path144"
       style="fill:#000000;fill-opacity:1;fill-rule:nonzero;stroke:#000000;stroke-width:0.80000001;stroke-linecap:butt;stroke-linejoin:round;stroke-miterlimit:10;stroke-dasharray:none;stroke-opacity:1"
       d="m 266.49133,245.25514 h -3.5" /><text
       id="text148"
       style="font-variant:normal;font-weight:normal;font-size:10px;font-family:'DejaVu Sans';-inkscape-font-specification:DejaVuSans;writing-mode:lr-tb;fill:#000000;fill-opacity:1;fill-rule:nonzero;stroke:none"
       transform="scale(1,-1)"
       x="237.22572"
       y="-241.45827"><tspan
         id="tspan146"
         sodipodi:role="line"
         y="-241.45827"
         x="237.22572 243.58571 246.76572 253.12572">0.25</tspan></text>
<path
       inkscape:connector-curvature="0"
       id="path150"
       style="fill:#000000;fill-opacity:1;fill-rule:nonzero;stroke:#000000;stroke-width:0.80000001;stroke-linecap:butt;stroke-linejoin:round;stroke-miterlimit:10;stroke-dasharray:none;stroke-opacity:1"
       d="m 266.49133,289.62584 h -3.5" /><text
       id="text154"
       style="font-variant:normal;font-weight:normal;font-size:10px;font-family:'DejaVu Sans';-inkscape-font-specification:DejaVuSans;writing-mode:lr-tb;fill:#000000;fill-opacity:1;fill-rule:nonzero;stroke:none"
       transform="scale(1,-1)"
       x="237.22572"
       y="-285.82895"><tspan
         id="tspan152"
         sodipodi:role="line"
         y="-285.82895"
         x="237.22572 243.58571 246.76572 253.12572">0.30</tspan></text>
<g
       id="g156"
       transform="translate(10.43194)"><g
         id="g158"
         clip-path="url(#clipPath162)"><path
           d="m 262.05293,50.112 0.7539,0.999982 0.75391,1.373718 0.7539,1.926462 0.7539,2.711635 0.75391,3.727 0.7539,4.941299 0.75391,6.309696 0.7539,7.768657 1.50781,19.789977 2.26171,36.555004 1.50781,24.25376 1.50781,21.10325 1.50781,16.97171 0.7539,6.87842 0.7539,5.79971 0.75391,4.69853 0.7539,3.5635 0.75391,2.37652 0.7539,1.13528 0.75391,-0.15084 0.7539,-1.44532 0.7539,-2.68074 0.75391,-3.79635 0.7539,-4.84028 0.75391,-6.03498 0.7539,-7.53447 2.26171,-27.37871 0.75391,-4.31444 0.7539,3.57798 0.7539,13.58844 2.26172,67.23906 0.7539,15.23162 0.7539,9.17807 0.75391,4.33868 0.7539,0.91635 0.75391,-1.34137 0.7539,-2.75473 1.50781,-7.52861 2.26171,-11.55365 1.50781,-5.96054 1.50781,-4.85668 1.50781,-3.93198 1.5078,-3.00585 0.75391,-1.24446 0.7539,-1.02909 0.75391,-0.71737 0.7539,-0.27515 0.7539,0.2265 0.75391,0.59766 1.50781,1.60678 1.5078,1.9564 1.50781,2.46087 1.50781,2.98556 1.50781,3.43585 2.26171,5.78085 3.76952,10.61063 3.01562,8.18081 1.50781,3.6555 1.50781,3.13532 1.5078,2.43576 3.01562,3.85096 3.01562,5.63526 0.7539,0.62259 0.7539,0.164 0.75391,-0.26503 0.7539,-0.66541 0.75391,-1.04483 0.7539,-1.41167 0.7539,-1.76812 0.75391,-2.11761 1.50781,-5.25097 1.50781,-6.53722 1.5078,-7.71163 1.50781,-8.73706 2.26171,-14.61838 3.01562,-21.27747 6.03123,-43.15009 3.01562,-19.66751 2.26171,-13.42023 2.26171,-12.17931 2.26172,-10.9558 2.26171,-9.80206 2.26171,-8.72637 2.26171,-7.741352 2.26172,-6.855167 0.7539,-2.105156 v 0"
           style="fill:none;stroke:#1f77b4;stroke-width:1.5;stroke-linecap:square;stroke-linejoin:round;stroke-miterlimit:10;stroke-dasharray:none;stroke-opacity:1"
           id="path164"
           inkscape:connector-curvature="0" /></g></g><path
       inkscape:connector-curvature="0"
       id="path168"
       style="fill:none;stroke:#000000;stroke-width:0.80000001;stroke-linecap:square;stroke-linejoin:miter;stroke-miterlimit:10;stroke-dasharray:none;stroke-opacity:1"
       d="M 266.49133,38.016 V 304.128" /><path
       inkscape:connector-curvature="0"
       id="path170"
       style="fill:none;stroke:#000000;stroke-width:0.80000001;stroke-linecap:square;stroke-linejoin:miter;stroke-miterlimit:10;stroke-dasharray:none;stroke-opacity:1"
       d="M 398.34916,38.016 V 304.128" /><path
       inkscape:connector-curvature="0"
       id="path172"
       style="fill:none;stroke:#000000;stroke-width:0.80000001;stroke-linecap:square;stroke-linejoin:miter;stroke-miterlimit:10;stroke-dasharray:none;stroke-opacity:1"
       d="M 266.49133,38.016 H 398.34916" /><path
       inkscape:connector-curvature="0"
       id="path174"
       style="fill:none;stroke:#000000;stroke-width:0.80000001;stroke-linecap:square;stroke-linejoin:miter;stroke-miterlimit:10;stroke-dasharray:none;stroke-opacity:1"
       d="M 266.49133,304.128 H 398.34916" /><text
       id="text178"
       style="font-variant:normal;font-weight:normal;font-size:12px;font-family:'DejaVu Sans';-inkscape-font-specification:DejaVuSans;writing-mode:lr-tb;fill:#000000;fill-opacity:1;fill-rule:nonzero;stroke:none"
       transform="scale(1,-1)"
       x="308.20932"
       y="-310.12799"><tspan
         id="tspan176"
         sodipodi:role="line"
         y="-310.12799"
         x="308.20932 315.54132 319.35733 326.6893 331.62131 338.97733 346.58533 352.83731">Y Trans.</tspan></text>
<path
       inkscape:connector-curvature="0"
       id="path332"
       style="fill:#ffffff;fill-opacity:1;fill-rule:nonzero;stroke:none"
       d="M 416.03906,38.016 H 547.89689 V 304.128 H 416.03906 Z" /><path
       inkscape:connector-curvature="0"
       id="path400"
       style="fill:none;stroke:#000000;stroke-width:0.80000001;stroke-linecap:square;stroke-linejoin:miter;stroke-miterlimit:10;stroke-dasharray:none;stroke-opacity:1"
       d="M 416.03906,38.016 V 304.128" /><path
       inkscape:connector-curvature="0"
       id="path402"
       style="fill:none;stroke:#000000;stroke-width:0.80000001;stroke-linecap:square;stroke-linejoin:miter;stroke-miterlimit:10;stroke-dasharray:none;stroke-opacity:1"
       d="M 547.89689,38.016 V 304.128" /><path
       inkscape:connector-curvature="0"
       id="path404"
       style="fill:none;stroke:#000000;stroke-width:0.80000001;stroke-linecap:square;stroke-linejoin:miter;stroke-miterlimit:10;stroke-dasharray:none;stroke-opacity:1"
       d="M 416.03906,38.016 H 547.89689" /><path
       inkscape:connector-curvature="0"
       id="path406"
       style="fill:none;stroke:#000000;stroke-width:0.80000001;stroke-linecap:square;stroke-linejoin:miter;stroke-miterlimit:10;stroke-dasharray:none;stroke-opacity:1"
       d="M 416.03906,304.128 H 547.89689" /><text
       id="text410"
       style="font-variant:normal;font-weight:normal;font-size:10px;font-family:'DejaVu Sans';-inkscape-font-specification:DejaVuSans;writing-mode:lr-tb;fill:#000000;fill-opacity:1;fill-rule:nonzero;stroke:none"
       transform="scale(1,-1)"
       x="429.22485"
       y="-275.41534"><tspan
         id="tspan408"
         sodipodi:role="line"
         y="-275.41534"
         x="429.22485 434.79486 440.9248 446.84485 452.99481 457.10486 460.28485 466.64484">Layer 1:</tspan></text>
<text
       id="text414"
       style="font-variant:normal;font-weight:normal;font-size:10px;font-family:'DejaVu Sans';-inkscape-font-specification:DejaVuSans;writing-mode:lr-tb;fill:#000000;fill-opacity:1;fill-rule:nonzero;stroke:none"
       transform="scale(1,-1)"
       x="429.22485"
       y="-264.22473"><tspan
         id="tspan412"
         sodipodi:role="line"
         y="-264.22473"
         x="429.22485 438.96484 445.09485 449.01483 455.16486 459.27484 462.05481 468.18481 470.96484 474.33484 477.51483 484.35486">material: Au</tspan></text>
<text
       id="text418"
       style="font-variant:normal;font-weight:normal;font-size:10px;font-family:'DejaVu Sans';-inkscape-font-specification:DejaVuSans;writing-mode:lr-tb;fill:#000000;fill-opacity:1;fill-rule:nonzero;stroke:none"
       transform="scale(1,-1)"
       x="429.22485"
       y="-253.0341"><tspan
         id="tspan416"
         sodipodi:role="line"
         y="-253.0341"
         x="429.22485 435.56482 441.68481 444.46484 450.61481 455.82483 459.19482 462.37482 468.71484 474.83484 477.61481 483.76483">holes: holes</tspan></text>
<text
       id="text422"
       style="font-variant:normal;font-weight:normal;font-size:10px;font-family:'DejaVu Sans';-inkscape-font-specification:DejaVuSans;writing-mode:lr-tb;fill:#000000;fill-opacity:1;fill-rule:nonzero;stroke:none"
       transform="scale(1,-1)"
       x="429.22485"
       y="-241.84348"><tspan
         id="tspan420"
         sodipodi:role="line"
         y="-241.84348"
         x="429.22485 437.40485 440.18481 446.53485 450.45483 456.79486 460.16486 463.34485 469.70483 476.06482">width: 180</tspan></text>
<text
       id="text426"
       style="font-variant:normal;font-weight:normal;font-size:10px;font-family:'DejaVu Sans';-inkscape-font-specification:DejaVuSans;writing-mode:lr-tb;fill:#000000;fill-opacity:1;fill-rule:nonzero;stroke:none"
       transform="scale(1,-1)"
       x="429.22485"
       y="-230.65285"><tspan
         id="tspan424"
         sodipodi:role="line"
         y="-230.65285"
         x="429.22485 432.00482 438.15485 444.49481 450.84485 454.76483 461.10486 464.47485 467.65485 474.01483">length: 80</tspan></text>
<text
       id="text430"
       style="font-variant:normal;font-weight:normal;font-size:10px;font-family:'DejaVu Sans';-inkscape-font-specification:DejaVuSans;writing-mode:lr-tb;fill:#000000;fill-opacity:1;fill-rule:nonzero;stroke:none"
       transform="scale(1,-1)"
       x="429.22485"
       y="-219.46223"><tspan
         id="tspan428"
         sodipodi:role="line"
         y="-219.46223"
         x="429.22485 433.14484 439.48486 442.26483 447.76483 453.55481 459.89484 466.04486 471.25482 476.46484 479.83484 483.01483 489.37482">thickness: 20</tspan></text>
<text
       id="text434"
       style="font-variant:normal;font-weight:normal;font-size:10px;font-family:'DejaVu Sans';-inkscape-font-specification:DejaVuSans;writing-mode:lr-tb;fill:#000000;fill-opacity:1;fill-rule:nonzero;stroke:none"
       transform="scale(1,-1)"
       x="429.22485"
       y="-208.27161"><tspan
         id="tspan432"
         sodipodi:role="line"
         y="-208.27161"
         x="429.22485 435.57483 441.72485 445.83484 448.61481 454.73486 461.08484 467.2348 470.60486 473.78485 480.14484 486.50482">periode: 250</tspan></text>
<text
       id="text438"
       style="font-variant:normal;font-weight:normal;font-size:10px;font-family:'DejaVu Sans';-inkscape-font-specification:DejaVuSans;writing-mode:lr-tb;fill:#000000;fill-opacity:1;fill-rule:nonzero;stroke:none"
       transform="scale(1,-1)"
       x="429.22485"
       y="-185.89035"><tspan
         id="tspan436"
         sodipodi:role="line"
         y="-185.89035"
         x="429.22485 434.79486 440.9248 446.84485 452.99481 457.10486 460.28485 466.64484">Layer 2:</tspan></text>
<text
       id="text442"
       style="font-variant:normal;font-weight:normal;font-size:10px;font-family:'DejaVu Sans';-inkscape-font-specification:DejaVuSans;writing-mode:lr-tb;fill:#000000;fill-opacity:1;fill-rule:nonzero;stroke:none"
       transform="scale(1,-1)"
       x="429.22485"
       y="-174.69972"><tspan
         id="tspan440"
         sodipodi:role="line"
         y="-174.69972"
         x="429.22485 438.96484 445.09485 449.01483 455.16486 459.27484 462.05481 468.18481 470.96484 474.33484 477.51483 484.35486">material: Al</tspan></text>
<text
       id="text446"
       style="font-variant:normal;font-weight:normal;font-size:10px;font-family:'DejaVu Sans';-inkscape-font-specification:DejaVuSans;writing-mode:lr-tb;fill:#000000;fill-opacity:1;fill-rule:nonzero;stroke:none"
       transform="scale(1,-1)"
       x="429.22485"
       y="-163.50909"><tspan
         id="tspan444"
         sodipodi:role="line"
         y="-163.50909"
         x="429.22485 435.56482 441.68481 444.46484 450.61481 455.82483 459.19482 462.37482 468.71484 474.83484 477.61481 483.76483">holes: holes</tspan></text>
<text
       id="text450"
       style="font-variant:normal;font-weight:normal;font-size:10px;font-family:'DejaVu Sans';-inkscape-font-specification:DejaVuSans;writing-mode:lr-tb;fill:#000000;fill-opacity:1;fill-rule:nonzero;stroke:none"
       transform="scale(1,-1)"
       x="429.22485"
       y="-152.31847"><tspan
         id="tspan448"
         sodipodi:role="line"
         y="-152.31847"
         x="429.22485 437.40485 440.18481 446.53485 450.45483 456.79486 460.16486 463.34485 469.70483 476.06482">width: 150</tspan></text>
<text
       id="text454"
       style="font-variant:normal;font-weight:normal;font-size:10px;font-family:'DejaVu Sans';-inkscape-font-specification:DejaVuSans;writing-mode:lr-tb;fill:#000000;fill-opacity:1;fill-rule:nonzero;stroke:none"
       transform="scale(1,-1)"
       x="429.22485"
       y="-141.12785"><tspan
         id="tspan452"
         sodipodi:role="line"
         y="-141.12785"
         x="429.22485 432.00482 438.15485 444.49481 450.84485 454.76483 461.10486 464.47485 467.65485 474.01483">length: 90</tspan></text>
<text
       id="text458"
       style="font-variant:normal;font-weight:normal;font-size:10px;font-family:'DejaVu Sans';-inkscape-font-specification:DejaVuSans;writing-mode:lr-tb;fill:#000000;fill-opacity:1;fill-rule:nonzero;stroke:none"
       transform="scale(1,-1)"
       x="429.22485"
       y="-129.93723"><tspan
         id="tspan456"
         sodipodi:role="line"
         y="-129.93723"
         x="429.22485 433.14484 439.48486 442.26483 447.76483 453.55481 459.89484 466.04486 471.25482 476.46484 479.83484 483.01483 489.37482">thickness: 20</tspan></text>
<text
       id="text462"
       style="font-variant:normal;font-weight:normal;font-size:10px;font-family:'DejaVu Sans';-inkscape-font-specification:DejaVuSans;writing-mode:lr-tb;fill:#000000;fill-opacity:1;fill-rule:nonzero;stroke:none"
       transform="scale(1,-1)"
       x="429.22485"
       y="-118.7466"><tspan
         id="tspan460"
         sodipodi:role="line"
         y="-118.7466"
         x="429.22485 435.57483 441.72485 445.83484 448.61481 454.73486 461.08484 467.2348 470.60486 473.78485 480.14484 486.50482">periode: 200</tspan></text>
<text
       id="text466"
       style="font-variant:normal;font-weight:normal;font-size:10px;font-family:'DejaVu Sans';-inkscape-font-specification:DejaVuSans;writing-mode:lr-tb;fill:#000000;fill-opacity:1;fill-rule:nonzero;stroke:none"
       transform="scale(1,-1)"
       x="429.22485"
       y="-96.365349"><tspan
         id="tspan464"
         sodipodi:role="line"
         y="-96.365349"
         x="429.22485 435.57483 439.49481 445.62482 451.12482">Stack</tspan></text>
<text
       id="text470"
       style="font-variant:normal;font-weight:normal;font-size:10px;font-family:'DejaVu Sans';-inkscape-font-specification:DejaVuSans;writing-mode:lr-tb;fill:#000000;fill-opacity:1;fill-rule:nonzero;stroke:none"
       transform="scale(1,-1)"
       x="429.22485"
       y="-85.174728"><tspan
         id="tspan468"
         sodipodi:role="line"
         y="-85.174728"
         x="429.22485 434.43481 440.78485 446.91486 452.41486 458.56482 462.6748 467.6748 474.01483 477.38483 480.56482 486.9248 490.10486 496.46484">spacer_h: 0.23</tspan></text>
<text
       id="text474"
       style="font-variant:normal;font-weight:normal;font-size:10px;font-family:'DejaVu Sans';-inkscape-font-specification:DejaVuSans;writing-mode:lr-tb;fill:#000000;fill-opacity:1;fill-rule:nonzero;stroke:none"
       transform="scale(1,-1)"
       x="429.22485"
       y="-73.70285"><tspan
         id="tspan472"
         sodipodi:role="line"
         y="-73.70285"
         x="429.22485 435.35486 441.69482 448.04486 450.82483 456.97485 460.34485 463.52484">angle: 0</tspan></text>
<text
       id="text478"
       style="font-variant:normal;font-weight:normal;font-size:10px;font-family:'DejaVu Sans';-inkscape-font-specification:DejaVuSans;writing-mode:lr-tb;fill:#000000;fill-opacity:1;fill-rule:nonzero;stroke:none"
       transform="scale(1,-1)"
       x="429.22485"
       y="-62.512226"><tspan
         id="tspan476"
         sodipodi:role="line"
         y="-62.512226"
         x="429.22485 432.00482 438.12482 443.33484 448.54486 451.91486 455.09485 461.45483 464.63483 470.99481">loss: 0.00</tspan></text>
<text
       id="text482"
       style="font-variant:normal;font-weight:normal;font-size:12px;font-family:'DejaVu Sans';-inkscape-font-specification:DejaVuSans;writing-mode:lr-tb;fill:#000000;fill-opacity:1;fill-rule:nonzero;stroke:none"
       transform="scale(1,-1)"
       x="431.81171"
       y="-310.12799"><tspan
         id="tspan480"
         sodipodi:role="line"
         y="-310.12799"
         x="431.81171 439.14374 444.07568 451.68372 459.06372 462.8797 470.11572 477.47174 482.40369 489.7597 501.44769 508.8277 513.53174 520.91168 525.84369">True Parameters</tspan></text>
</g></svg>