<?xml version="1.0" encoding="UTF-8" standalone="no"?>
<!-- Created with Inkscape (http://www.inkscape.org/) -->

<svg
   xmlns:ns1="http://www.iki.fi/pav/software/textext/"
   xmlns:dc="http://purl.org/dc/elements/1.1/"
   xmlns:cc="http://creativecommons.org/ns#"
   xmlns:rdf="http://www.w3.org/1999/02/22-rdf-syntax-ns#"
   xmlns:svg="http://www.w3.org/2000/svg"
   xmlns="http://www.w3.org/2000/svg"
   xmlns:sodipodi="http://sodipodi.sourceforge.net/DTD/sodipodi-0.dtd"
   xmlns:inkscape="http://www.inkscape.org/namespaces/inkscape"
   sodipodi:docname="bg_1D_conv.svg"
   inkscape:version="0.92.4 5da689c313, 2019-01-14"
   width="210mm"
   height="297mm"
   viewBox="0 0 210 297"
   version="1.1"
   id="svg1192">
  <defs
     id="defs1186">
    <marker
       inkscape:stockid="Arrow1Send"
       orient="auto"
       refY="0.0"
       refX="0.0"
       id="Arrow1Send"
       style="overflow:visible;"
       inkscape:isstock="true">
      <path
         id="path3494"
         d="M 0.0,0.0 L 5.0,-5.0 L -12.5,0.0 L 5.0,5.0 L 0.0,0.0 z "
         style="fill-rule:evenodd;stroke:#000000;stroke-width:1pt;stroke-opacity:1;fill:#000000;fill-opacity:1"
         transform="scale(0.2) rotate(180) translate(6,0)" />
    </marker>
  </defs>
  <sodipodi:namedview
     id="base"
     pagecolor="#ffffff"
     bordercolor="#666666"
     borderopacity="1.0"
     inkscape:pageopacity="0.0"
     inkscape:pageshadow="2"
     inkscape:zoom="3.836741"
     inkscape:cx="502.67883"
     inkscape:cy="522.97905"
     inkscape:document-units="mm"
     inkscape:current-layer="g2046"
     showgrid="false"
     inkscape:window-width="1920"
     inkscape:window-height="1052"
     inkscape:window-x="0"
     inkscape:window-y="28"
     inkscape:window-maximized="1"
     inkscape:snap-smooth-nodes="true"
     inkscape:snap-global="false" />
  <metadata
     id="metadata1189">
    <rdf:RDF>
      <cc:Work
         rdf:about="">
        <dc:format>image/svg+xml</dc:format>
        <dc:type
           rdf:resource="http://purl.org/dc/dcmitype/StillImage" />
        <dc:title />
      </cc:Work>
    </rdf:RDF>
  </metadata>
  <g
     inkscape:label="Layer 1"
     inkscape:groupmode="layer"
     id="layer1">
    <g
       inkscape:transform-center-y="2.8820769"
       transform="matrix(0.352778,0,0,0.352778,73.974016,125.18747)"
       ns1:version="0.9.1"
       ns1:texconverter="pdflatex"
       ns1:pdfconverter="pdf2svg"
       ns1:text="$I_1$"
       ns1:preamble="/home/tim/.config/inkscape/extensions/textext/default_packages.tex"
       ns1:scale="1.0"
       ns1:alignment="middle center"
       ns1:jacobian_sqrt="0.352778"
       id="g1909">
      <g
         id="g1907">
        <g
           inkscape:transform-center-y="1.2385432"
           inkscape:transform-center-x="1.8040693"
           transform="matrix(1,-0.64336798,0,1,-17.141016,87.759834)"
           id="g1905">
          <g
             id="g2168" />
        </g>
      </g>
    </g>
    <g
       id="g2046">
      <path
         sodipodi:nodetypes="cc"
         inkscape:connector-curvature="0"
         id="path1729"
         d="m 119.33409,166.10613 0,5.02963"
         style="fill:none;stroke:#999999;stroke-width:0.26499999;stroke-linecap:butt;stroke-linejoin:miter;stroke-miterlimit:4;stroke-dasharray:0.52999998, 0.26499999;stroke-dashoffset:0;stroke-opacity:1" />
      <path
         sodipodi:nodetypes="cc"
         inkscape:connector-curvature="0"
         id="path1725"
         d="m 123.58419,163.58813 0,5.09371"
         style="fill:none;stroke:#999999;stroke-width:0.26499999;stroke-linecap:butt;stroke-linejoin:miter;stroke-miterlimit:4;stroke-dasharray:0.52999998, 0.26499999;stroke-dashoffset:0;stroke-opacity:1" />
      <path
         sodipodi:nodetypes="cc"
         inkscape:connector-curvature="0"
         id="path1721"
         d="m 127.8343,161.28164 1e-5,5.04573"
         style="fill:none;stroke:#999999;stroke-width:0.26499999;stroke-linecap:butt;stroke-linejoin:miter;stroke-miterlimit:4;stroke-dasharray:0.52999998, 0.26499999;stroke-dashoffset:0;stroke-opacity:1" />
      <path
         sodipodi:nodetypes="cc"
         inkscape:connector-curvature="0"
         id="path1717"
         d="m 132.08442,158.70778 0,5.0469"
         style="fill:none;stroke:#999999;stroke-width:0.26499999;stroke-linecap:butt;stroke-linejoin:miter;stroke-miterlimit:4;stroke-dasharray:0.52999998, 0.26499999;stroke-dashoffset:0;stroke-opacity:1" />
      <path
         sodipodi:nodetypes="cc"
         inkscape:connector-curvature="0"
         id="path1713"
         d="m 136.33453,156.27136 2e-5,5.11843"
         style="fill:none;stroke:#999999;stroke-width:0.26499999;stroke-linecap:butt;stroke-linejoin:miter;stroke-miterlimit:4;stroke-dasharray:0.52999998, 0.26499999;stroke-dashoffset:0;stroke-opacity:1" />
      <path
         sodipodi:nodetypes="cc"
         id="path1709"
         d="m 140.58465,153.82761 0,5.10474"
         style="fill:none;stroke:#999999;stroke-width:0.26499999;stroke-linecap:butt;stroke-linejoin:miter;stroke-miterlimit:4;stroke-dasharray:0.52999998, 0.26499999;stroke-dashoffset:0;stroke-opacity:1"
         inkscape:connector-curvature="0" />
      <path
         inkscape:connector-curvature="0"
         id="path4868"
         d="m 115.19408,173.54229 18.82586,-1e-5"
         style="fill:none;stroke:#cccccc;stroke-width:0.18000001;stroke-linecap:butt;stroke-linejoin:miter;stroke-miterlimit:4;stroke-dasharray:none;stroke-opacity:1" />
      <path
         inkscape:connector-curvature="0"
         id="path4872"
         d="m 127.83431,166.32737 10.12786,0"
         style="fill:none;stroke:#cccccc;stroke-width:0.18000001;stroke-linecap:butt;stroke-linejoin:miter;stroke-miterlimit:4;stroke-dasharray:none;stroke-opacity:1" />
      <path
         sodipodi:nodetypes="ccc"
         inkscape:connector-curvature="0"
         id="path1735"
         d="m 144.93853,156.39461 -29.74445,17.14768 29.74445,-17.14768"
         style="fill:none;stroke:#000000;stroke-width:0.26458332px;stroke-linecap:butt;stroke-linejoin:miter;stroke-opacity:1" />
      <path
         id="path1737"
         d="m 110.77397,173.52739 4.48972,0"
         style="fill:none;stroke:#000000;stroke-width:0.26458332px;stroke-linecap:butt;stroke-linejoin:miter;stroke-opacity:1"
         inkscape:connector-curvature="0" />
      <path
         inkscape:connector-curvature="0"
         id="path4866"
         d="m 115.08435,168.51555 19.03581,-1e-5"
         style="fill:none;stroke:#cccccc;stroke-width:0.18000001;stroke-linecap:butt;stroke-linejoin:miter;stroke-miterlimit:4;stroke-dasharray:none;stroke-opacity:1" />
      <g
         id="g2825"
         ns1:jacobian_sqrt="0.352778"
         ns1:alignment="middle center"
         ns1:scale="1.0"
         ns1:preamble="/home/tim/.config/inkscape/extensions/textext/default_packages.tex"
         ns1:text="$I_1$"
         ns1:pdfconverter="pdf2svg"
         ns1:texconverter="pdflatex"
         ns1:version="0.9.1"
         transform="matrix(0.352778,0,0,0.352778,73.456801,124.66417)"
         inkscape:transform-center-y="2.4764198"
         inkscape:transform-center-x="-1.6749275">
        <g
           id="g2823">
          <g
             id="g2821"
             transform="matrix(1,-0.64336798,0,1,-17.141016,87.759834)"
             inkscape:transform-center-x="1.8040693"
             inkscape:transform-center-y="1.2385432">
            <g
               transform="matrix(1,0,0.26794919,1,-34.723956,0)"
               style="fill:#000000;fill-opacity:1"
               id="g2815">
              <path
                 inkscape:connector-curvature="0"
                 style="stroke:none;stroke-width:0"
                 d="M 3.734375,-6.046875 C 3.8125,-6.40625 3.84375,-6.5 4.640625,-6.5 c 0.234375,0 0.3125,0 0.3125,-0.1875 0,-0.125 -0.109375,-0.125 -0.140625,-0.125 -0.296875,0 -1.03125,0.03125 -1.328125,0.03125 -0.296875,0 -1.015625,-0.03125 -1.328125,-0.03125 -0.0625,0 -0.1875,0 -0.1875,0.203125 C 1.96875,-6.5 2.046875,-6.5 2.25,-6.5 c 0.40625,0 0.6875,0 0.6875,0.1875 0,0.046875 0,0.078125 -0.03125,0.15625 l -1.34375,5.375 c -0.09375,0.375 -0.109375,0.46875 -0.90625,0.46875 -0.234375,0 -0.3125,0 -0.3125,0.203125 C 0.34375,0 0.453125,0 0.484375,0 0.78125,0 1.5,-0.03125 1.796875,-0.03125 2.09375,-0.03125 2.828125,0 3.125,0 c 0.078125,0 0.203125,0 0.203125,-0.1875 0,-0.125 -0.078125,-0.125 -0.296875,-0.125 -0.1875,0 -0.234375,0 -0.421875,-0.015625 -0.21875,-0.015625 -0.25,-0.0625 -0.25,-0.171875 0,-0.078125 0.015625,-0.15625 0.03125,-0.234375 z m 0,0"
                 transform="translate(148.712,134.765)"
                 id="path2813" />
              <path
                 transform="translate(148.712,134.765)"
                 id="path1916"
                 d="M 3.734375,-6.046875 C 3.8125,-6.40625 3.84375,-6.5 4.640625,-6.5 c 0.234375,0 0.3125,0 0.3125,-0.1875 0,-0.125 -0.109375,-0.125 -0.140625,-0.125 -0.296875,0 -1.03125,0.03125 -1.328125,0.03125 -0.296875,0 -1.015625,-0.03125 -1.328125,-0.03125 -0.0625,0 -0.1875,0 -0.1875,0.203125 C 1.96875,-6.5 2.046875,-6.5 2.25,-6.5 c 0.40625,0 0.6875,0 0.6875,0.1875 0,0.046875 0,0.078125 -0.03125,0.15625 l -1.34375,5.375 c -0.09375,0.375 -0.109375,0.46875 -0.90625,0.46875 -0.234375,0 -0.3125,0 -0.3125,0.203125 C 0.34375,0 0.453125,0 0.484375,0 0.78125,0 1.5,-0.03125 1.796875,-0.03125 2.09375,-0.03125 2.828125,0 3.125,0 c 0.078125,0 0.203125,0 0.203125,-0.1875 0,-0.125 -0.078125,-0.125 -0.296875,-0.125 -0.1875,0 -0.234375,0 -0.421875,-0.015625 -0.21875,-0.015625 -0.25,-0.0625 -0.25,-0.171875 0,-0.078125 0.015625,-0.15625 0.03125,-0.234375 z m 0,0"
                 style="stroke:none;stroke-width:0"
                 inkscape:connector-curvature="0" />
              <path
                 transform="translate(148.712,134.765)"
                 inkscape:connector-curvature="0"
                 style="stroke:none;stroke-width:0"
                 d="M 3.734375,-6.046875 C 3.8125,-6.40625 3.84375,-6.5 4.640625,-6.5 c 0.234375,0 0.3125,0 0.3125,-0.1875 0,-0.125 -0.109375,-0.125 -0.140625,-0.125 -0.296875,0 -1.03125,0.03125 -1.328125,0.03125 -0.296875,0 -1.015625,-0.03125 -1.328125,-0.03125 -0.0625,0 -0.1875,0 -0.1875,0.203125 C 1.96875,-6.5 2.046875,-6.5 2.25,-6.5 c 0.40625,0 0.6875,0 0.6875,0.1875 0,0.046875 0,0.078125 -0.03125,0.15625 l -1.34375,5.375 c -0.09375,0.375 -0.109375,0.46875 -0.90625,0.46875 -0.234375,0 -0.3125,0 -0.3125,0.203125 C 0.34375,0 0.453125,0 0.484375,0 0.78125,0 1.5,-0.03125 1.796875,-0.03125 2.09375,-0.03125 2.828125,0 3.125,0 c 0.078125,0 0.203125,0 0.203125,-0.1875 0,-0.125 -0.078125,-0.125 -0.296875,-0.125 -0.1875,0 -0.234375,0 -0.421875,-0.015625 -0.21875,-0.015625 -0.25,-0.0625 -0.25,-0.171875 0,-0.078125 0.015625,-0.15625 0.03125,-0.234375 z m 0,0"
                 id="path1918" />
            </g>
          </g>
          <g
             transform="matrix(0.65156029,-0.49856208,0,0.65156029,39.803272,111.59943)"
             ns1:version="0.9.1"
             ns1:texconverter="pdflatex"
             ns1:pdfconverter="pdf2svg"
             ns1:text="2"
             ns1:preamble="/home/tim/.config/inkscape/extensions/textext/default_packages.tex"
             ns1:scale="1.0"
             ns1:alignment="middle center"
             inkscapeversion="0.92.4"
             ns1:jacobian_sqrt="0.352778"
             id="g2910">
            <g
               id="g2908">
              <g
                 style="fill:#000000;fill-opacity:1"
                 id="g2906">
                <path
                   inkscape:connector-curvature="0"
                   style="stroke:none;stroke-width:0"
                   d="m 149.97762,133.86118 1.0625,-0.91077 c 1.54688,-1.1996 2.14063,-1.66352 2.14063,-2.66352 0,-1.14063 -0.89063,-2.03849 -2.10938,-2.17669 -1.125,-0.12756 -1.85937,0.71104 -1.85937,1.60166 0,0.54688 0.5,0.60357 0.53125,0.60712 0.17187,0.0195 0.51562,-0.0509 0.51562,-0.47278 0,-0.25 -0.1875,-0.53689 -0.53125,-0.57587 -0.0781,-0.009 -0.0937,-0.0106 -0.125,0.001 0.21875,-0.63144 0.76563,-0.92881 1.34375,-0.86325 0.90625,0.10276 1.32813,0.9631 1.32813,1.7756 0,0.79687 -0.48438,1.5232 -1.04688,2.08441 l -1.90625,1.90885 c -0.10937,0.097 -0.10937,0.12822 -0.10937,0.3626 l 3.70312,0.4199 0.26563,-1.70425 -0.23438,-0.0266 c -0.0625,0.28979 -0.125,0.7202 -0.23437,0.86405 -0.0625,0.071 -0.71875,-0.003 -0.9375,-0.0282 z m 0,0"
                   id="path2904" />
              </g>
            </g>
            <g
               transform="matrix(1.781199,0,0,1.781199,5.4889193,22.633798)"
               ns1:version="0.9.1"
               ns1:texconverter="pdflatex"
               ns1:pdfconverter="pdf2svg"
               ns1:text="$k_1$"
               ns1:preamble="/home/tim/.config/inkscape/extensions/textext/default_packages.tex"
               ns1:scale="5.04906400059"
               ns1:alignment="middle center"
               inkscapeversion="0.92.4"
               ns1:jacobian_sqrt="1.781199"
               id="g3210">
              <g
                 id="g3208" />
            </g>
          </g>
        </g>
      </g>
      <path
         sodipodi:nodetypes="cccc"
         id="path1697"
         d="m 110.74099,168.49935 29.81783,-17.05506 4.27631,0.004 1e-5,5.1335"
         style="fill:none;stroke:#000000;stroke-width:0.26458332px;stroke-linecap:butt;stroke-linejoin:miter;stroke-opacity:1"
         inkscape:connector-curvature="0" />
      <path
         sodipodi:nodetypes="cc"
         inkscape:connector-curvature="0"
         id="path4870"
         d="m 128.09291,161.07476 18.98982,1e-5"
         style="fill:none;stroke:#cccccc;stroke-width:0.18000001;stroke-linecap:butt;stroke-linejoin:miter;stroke-miterlimit:4;stroke-dasharray:none;stroke-opacity:1" />
      <path
         sodipodi:nodetypes="cc"
         id="path1695"
         d="m 114.96578,168.60602 29.86933,-17.15777"
         style="fill:none;stroke:#000000;stroke-width:0.26458332px;stroke-linecap:butt;stroke-linejoin:miter;stroke-opacity:1"
         inkscape:connector-curvature="0" />
      <path
         sodipodi:nodetypes="cccc"
         inkscape:connector-curvature="0"
         id="path1693"
         d="m 110.80804,173.65296 0,-5.14142 c 3.87541,1e-5 4.27632,0.004 4.27632,0.004 l 0,4.89625"
         style="fill:none;stroke:#000000;stroke-width:0.26458332px;stroke-linecap:butt;stroke-linejoin:miter;stroke-opacity:1" />
      <path
         inkscape:connector-curvature="0"
         id="path4874"
         d="m 151.14642,166.33139 -8.43225,-1e-5"
         style="fill:none;stroke:#cccccc;stroke-width:0.18000001;stroke-linecap:butt;stroke-linejoin:miter;stroke-miterlimit:4;stroke-dasharray:none;stroke-opacity:1" />
      <g
         transform="translate(16.626311,36.231974)"
         id="g2938">
        <g
           id="g2925"
           transform="translate(-30.613933,2.3200039)">
          <path
             transform="scale(0.26458333)"
             id="path2910"
             d="m 592.00188,482.10962 v 19.00966"
             style="fill:none;stroke:#999999;stroke-width:0.99999994;stroke-linecap:butt;stroke-linejoin:miter;stroke-miterlimit:4;stroke-dasharray:1.99999991, 0.99999995;stroke-dashoffset:0;stroke-opacity:1"
             inkscape:connector-curvature="0" />
          <path
             transform="scale(0.26458333)"
             id="path2908"
             d="m 608.06529,472.59277 v 19.25182"
             style="fill:none;stroke:#999999;stroke-width:0.99999994;stroke-linecap:butt;stroke-linejoin:miter;stroke-miterlimit:4;stroke-dasharray:1.99999991, 0.99999995;stroke-dashoffset:0;stroke-opacity:1"
             inkscape:connector-curvature="0" />
          <path
             transform="scale(0.26458333)"
             id="path2898"
             d="m 624.33802,482.60711 -47.98339,27.60768"
             style="fill:none;stroke:#000000;stroke-width:0.99999994px;stroke-linecap:butt;stroke-linejoin:miter;stroke-opacity:1"
             inkscape:connector-curvature="0"
             sodipodi:nodetypes="cc" />
          <path
             transform="scale(0.26458333)"
             id="path2896"
             d="m 559.64871,510.15848 h 16.96898"
             style="fill:none;stroke:#000000;stroke-width:0.99999994px;stroke-linecap:butt;stroke-linejoin:miter;stroke-opacity:1"
             inkscape:connector-curvature="0" />
          <path
             transform="scale(0.26458333)"
             id="path2892"
             d="m 559.5471,491.16637 49.26086,-28.10767 15.3207,0.0348 4e-5,19.85235"
             style="fill:none;stroke:#000000;stroke-width:0.99999994px;stroke-linecap:butt;stroke-linejoin:miter;stroke-opacity:1"
             inkscape:connector-curvature="0"
             sodipodi:nodetypes="cccc" />
          <path
             id="path2890"
             d="M 575.49177,491.55806 623.927,463.59392"
             style="fill:none;stroke:#000000;stroke-width:0.99999994px;stroke-linecap:butt;stroke-linejoin:miter;stroke-opacity:1"
             inkscape:connector-curvature="0"
             sodipodi:nodetypes="cc"
             transform="scale(0.26458333)" />
          <path
             sodipodi:nodetypes="cccc"
             transform="scale(0.26458333)"
             id="path2888"
             d="m 559.77747,510.63303 v -19.4321 c 14.64722,4e-5 16.16244,0.0151 16.16244,0.0151 v 18.50551"
             style="fill:none;stroke:#000000;stroke-width:0.99999994px;stroke-linecap:butt;stroke-linejoin:miter;stroke-opacity:1"
             inkscape:connector-curvature="0" />
        </g>
      </g>
      <g
         inkscape:transform-center-y="2.5365353"
         transform="matrix(0.352778,-0.24833618,0,0.352778,71.845343,156.31324)"
         ns1:version="0.9.1"
         ns1:texconverter="pdflatex"
         ns1:pdfconverter="pdf2svg"
         ns1:text="$I_3$"
         ns1:preamble="/home/tim/.config/inkscape/extensions/textext/default_packages.tex"
         ns1:scale="1.0"
         ns1:alignment="middle center"
         ns1:jacobian_sqrt="0.352778"
         id="g2252"
         inkscape:transform-center-x="-1.7045483">
        <g
           transform="matrix(1,0.11042269,0,1,0,-16.921129)"
           id="g2250">
          <g
             transform="matrix(1,0,0.26794919,1,-35.197465,0)"
             style="fill:#000000;fill-opacity:1"
             id="g2244">
            <path
               inkscape:connector-curvature="0"
               style="stroke:none;stroke-width:0"
               d="M 3.734375,-6.046875 C 3.8125,-6.40625 3.84375,-6.5 4.640625,-6.5 c 0.234375,0 0.3125,0 0.3125,-0.1875 0,-0.125 -0.109375,-0.125 -0.140625,-0.125 -0.296875,0 -1.03125,0.03125 -1.328125,0.03125 -0.296875,0 -1.015625,-0.03125 -1.328125,-0.03125 -0.0625,0 -0.1875,0 -0.1875,0.203125 C 1.96875,-6.5 2.046875,-6.5 2.25,-6.5 c 0.40625,0 0.6875,0 0.6875,0.1875 0,0.046875 0,0.078125 -0.03125,0.15625 l -1.34375,5.375 c -0.09375,0.375 -0.109375,0.46875 -0.90625,0.46875 -0.234375,0 -0.3125,0 -0.3125,0.203125 C 0.34375,0 0.453125,0 0.484375,0 0.78125,0 1.5,-0.03125 1.796875,-0.03125 2.09375,-0.03125 2.828125,0 3.125,0 c 0.078125,0 0.203125,0 0.203125,-0.1875 0,-0.125 -0.078125,-0.125 -0.296875,-0.125 -0.1875,0 -0.234375,0 -0.421875,-0.015625 -0.21875,-0.015625 -0.25,-0.0625 -0.25,-0.171875 0,-0.078125 0.015625,-0.15625 0.03125,-0.234375 z m 0,0"
               transform="translate(148.712,134.765)"
               id="path2242" />
          </g>
          <g
             style="fill:#000000;fill-opacity:1"
             id="g2248">
            <path
               inkscape:connector-curvature="0"
               style="stroke:none;stroke-width:0"
               d="m 1.90625,-2.328125 c 0.546875,0 0.9375,0.375 0.9375,1.125 0,0.859375 -0.515625,1.125 -0.90625,1.125 -0.28125,0 -0.90625,-0.078125 -1.1875,-0.5 0.328125,0 0.40625,-0.234375 0.40625,-0.390625 0,-0.21875 -0.171875,-0.375 -0.390625,-0.375 -0.1875,0 -0.390625,0.125 -0.390625,0.40625 0,0.65625 0.71875,1.078125 1.5625,1.078125 0.96875,0 1.640625,-0.65625 1.640625,-1.34375 0,-0.546875 -0.4375,-1.09375 -1.203125,-1.25 0.71875,-0.265625 0.984375,-0.78125 0.984375,-1.21875 0,-0.546875 -0.625,-0.953125 -1.40625,-0.953125 -0.765625,0 -1.359375,0.375 -1.359375,0.9375 0,0.234375 0.15625,0.359375 0.359375,0.359375 0.21875,0 0.359375,-0.15625 0.359375,-0.34375 0,-0.203125 -0.140625,-0.359375 -0.359375,-0.375 0.25,-0.296875 0.71875,-0.375 0.984375,-0.375 0.3125,0 0.75,0.15625 0.75,0.75 0,0.296875 -0.09375,0.625 -0.28125,0.828125 -0.21875,0.265625 -0.421875,0.28125 -0.765625,0.3125 -0.171875,0.015625 -0.1875,0.015625 -0.21875,0.015625 -0.015625,0 -0.078125,0.015625 -0.078125,0.09375 0,0.09375 0.0625,0.09375 0.1875,0.09375 z m 0,0"
               transform="translate(153.092,136.259)"
               id="path2246" />
          </g>
        </g>
      </g>
      <g
         transform="matrix(0.352778,0,0,0.352778,76.331623,115.86771)"
         ns1:version="0.9.1"
         ns1:texconverter="pdflatex"
         ns1:pdfconverter="pdf2svg"
         ns1:text="$I_4$"
         ns1:preamble="/home/tim/.config/inkscape/extensions/textext/default_packages.tex"
         ns1:scale="1.0"
         ns1:alignment="middle center"
         ns1:jacobian_sqrt="0.352778"
         id="g2343">
        <g
           id="g2341">
          <g
             transform="matrix(1,-0.53798809,0,1,-0.90401729,82.503987)"
             id="g2624">
            <g
               id="g2335"
               style="fill:#000000;fill-opacity:1"
               transform="matrix(1,0,0.26794919,1,-35.197465,0)">
              <path
                 id="path2333"
                 transform="translate(148.712,134.765)"
                 d="M 3.734375,-6.046875 C 3.8125,-6.40625 3.84375,-6.5 4.640625,-6.5 c 0.234375,0 0.3125,0 0.3125,-0.1875 0,-0.125 -0.109375,-0.125 -0.140625,-0.125 -0.296875,0 -1.03125,0.03125 -1.328125,0.03125 -0.296875,0 -1.015625,-0.03125 -1.328125,-0.03125 -0.0625,0 -0.1875,0 -0.1875,0.203125 C 1.96875,-6.5 2.046875,-6.5 2.25,-6.5 c 0.40625,0 0.6875,0 0.6875,0.1875 0,0.046875 0,0.078125 -0.03125,0.15625 l -1.34375,5.375 c -0.09375,0.375 -0.109375,0.46875 -0.90625,0.46875 -0.234375,0 -0.3125,0 -0.3125,0.203125 C 0.34375,0 0.453125,0 0.484375,0 0.78125,0 1.5,-0.03125 1.796875,-0.03125 2.09375,-0.03125 2.828125,0 3.125,0 c 0.078125,0 0.203125,0 0.203125,-0.1875 0,-0.125 -0.078125,-0.125 -0.296875,-0.125 -0.1875,0 -0.234375,0 -0.421875,-0.015625 -0.21875,-0.015625 -0.25,-0.0625 -0.25,-0.171875 0,-0.078125 0.015625,-0.15625 0.03125,-0.234375 z m 0,0"
                 style="stroke:none;stroke-width:0"
                 inkscape:connector-curvature="0" />
            </g>
            <g
               transform="matrix(0.97160923,0.03053102,0.06962165,1.0756346,-4.9800729,-15.194321)"
               id="g2339"
               style="fill:#000000;fill-opacity:1">
              <path
                 transform="translate(153.092,136.259)"
                 inkscape:connector-curvature="0"
                 id="path2337"
                 d="m 3.6875,-1.140625 v -0.25 H 2.90625 V -4.5 c 0,-0.140625 0,-0.203125 -0.140625,-0.203125 -0.09375,0 -0.125,0 -0.1875,0.109375 l -2.3125,3.203125 v 0.25 h 2.0625 v 0.5625 c 0,0.25 0,0.328125 -0.578125,0.328125 H 1.5625 V 0 C 1.921875,-0.015625 2.359375,-0.03125 2.609375,-0.03125 2.875,-0.03125 3.3125,-0.015625 3.671875,0 v -0.25 h -0.1875 C 2.90625,-0.25 2.90625,-0.328125 2.90625,-0.578125 v -0.5625 z M 2.375,-3.9375 v 2.546875 H 0.53125 Z m 0,0"
                 style="stroke:none;stroke-width:0" />
            </g>
          </g>
        </g>
      </g>
      <g
         transform="matrix(0.352778,0,0,0.352778,80.427069,113.30749)"
         ns1:version="0.9.1"
         ns1:texconverter="pdflatex"
         ns1:pdfconverter="pdf2svg"
         ns1:text="$I_5$"
         ns1:preamble="/home/tim/.config/inkscape/extensions/textext/default_packages.tex"
         ns1:scale="1.0"
         ns1:alignment="middle center"
         ns1:jacobian_sqrt="0.352778"
         id="g2433">
        <g
           id="g2431">
          <g
             transform="matrix(1,-0.58113848,0,1,0,89.035272)"
             id="g2630">
            <g
               id="g2425"
               style="fill:#000000;fill-opacity:1"
               transform="matrix(1,0,0.26794919,1,-35.197465,0)">
              <path
                 id="path2423"
                 transform="translate(148.712,134.765)"
                 d="M 3.734375,-6.046875 C 3.8125,-6.40625 3.84375,-6.5 4.640625,-6.5 c 0.234375,0 0.3125,0 0.3125,-0.1875 0,-0.125 -0.109375,-0.125 -0.140625,-0.125 -0.296875,0 -1.03125,0.03125 -1.328125,0.03125 -0.296875,0 -1.015625,-0.03125 -1.328125,-0.03125 -0.0625,0 -0.1875,0 -0.1875,0.203125 C 1.96875,-6.5 2.046875,-6.5 2.25,-6.5 c 0.40625,0 0.6875,0 0.6875,0.1875 0,0.046875 0,0.078125 -0.03125,0.15625 l -1.34375,5.375 c -0.09375,0.375 -0.109375,0.46875 -0.90625,0.46875 -0.234375,0 -0.3125,0 -0.3125,0.203125 C 0.34375,0 0.453125,0 0.484375,0 0.78125,0 1.5,-0.03125 1.796875,-0.03125 2.09375,-0.03125 2.828125,0 3.125,0 c 0.078125,0 0.203125,0 0.203125,-0.1875 0,-0.125 -0.078125,-0.125 -0.296875,-0.125 -0.1875,0 -0.234375,0 -0.421875,-0.015625 -0.21875,-0.015625 -0.25,-0.0625 -0.25,-0.171875 0,-0.078125 0.015625,-0.15625 0.03125,-0.234375 z m 0,0"
                 style="stroke:none;stroke-width:0"
                 inkscape:connector-curvature="0" />
            </g>
            <g
               id="g2429"
               style="fill:#000000;fill-opacity:1">
              <path
                 inkscape:connector-curvature="0"
                 id="path2427"
                 transform="translate(153.092,136.259)"
                 d="m 1.078125,-3.890625 c 0.359375,0.09375 0.5625,0.09375 0.671875,0.09375 0.921875,0 1.46875,-0.625 1.46875,-0.734375 0,-0.078125 -0.046875,-0.09375 -0.078125,-0.09375 -0.015625,0 -0.03125,0 -0.0625,0.015625 -0.171875,0.0625 -0.53125,0.203125 -1.046875,0.203125 -0.203125,0 -0.5625,-0.015625 -1.015625,-0.1875 C 0.9375,-4.625 0.921875,-4.625 0.921875,-4.625 c -0.09375,0 -0.09375,0.078125 -0.09375,0.1875 v 2.046875 c 0,0.125 0,0.203125 0.109375,0.203125 0.0625,0 0.078125,0 0.140625,-0.09375 0.296875,-0.375 0.734375,-0.4375 0.96875,-0.4375 0.421875,0 0.609375,0.328125 0.640625,0.390625 0.125,0.234375 0.171875,0.5 0.171875,0.90625 0,0.203125 0,0.609375 -0.21875,0.921875 -0.171875,0.25 -0.46875,0.421875 -0.8125,0.421875 -0.453125,0 -0.921875,-0.25 -1.09375,-0.71875 0.265625,0.015625 0.40625,-0.15625 0.40625,-0.34375 0,-0.296875 -0.265625,-0.34375 -0.359375,-0.34375 0,0 -0.34375,0 -0.34375,0.375 0,0.625 0.578125,1.25 1.40625,1.25 0.890625,0 1.671875,-0.65625 1.671875,-1.546875 0,-0.78125 -0.59375,-1.5 -1.453125,-1.5 -0.3125,0 -0.671875,0.0625 -0.984375,0.328125 z m 0,0"
                 style="stroke:none;stroke-width:0" />
            </g>
          </g>
        </g>
      </g>
      <g
         transform="translate(-0.49178873,-0.38864352)"
         id="g1958">
        <path
           inkscape:connector-curvature="0"
           style="fill:#000000;fill-opacity:1;stroke:none;stroke-width:0"
           d="m 138.44829,157.08963 c -0.006,-0.12319 -0.004,-0.15747 0.27688,-0.31462 0.0827,-0.0462 0.11024,-0.0616 0.0925,-0.11787 -0.0118,-0.0375 -0.0504,-0.0159 -0.0614,-0.01 -0.10473,0.0585 -0.36085,0.21274 -0.46558,0.27129 -0.10473,0.0585 -0.36124,0.19092 -0.47148,0.25254 -0.0221,0.0123 -0.0661,0.037 -0.0469,0.0979 0.0103,0.0328 0.0379,0.0174 0.10956,-0.0227 0.14331,-0.0801 0.24253,-0.13558 0.26026,-0.0794 0.004,0.0141 0.007,0.0234 0.004,0.053 l 0.034,1.87716 c 0.002,0.13096 0.006,0.16216 -0.2754,0.31931 -0.0827,0.0462 -0.11024,0.0616 -0.091,0.12255 0.0103,0.0328 0.0489,0.0112 0.0599,0.005 0.10473,-0.0585 0.35533,-0.20967 0.46006,-0.26821 0.10473,-0.0585 0.36676,-0.194 0.47149,-0.25255 0.0276,-0.0154 0.0717,-0.0401 0.0539,-0.0963 -0.0118,-0.0375 -0.0394,-0.0221 -0.11655,0.0211 -0.0661,0.037 -0.0827,0.0462 -0.15031,0.0785 -0.0786,0.0385 -0.0941,0.0306 -0.10444,-0.002 -0.007,-0.0234 -0.009,-0.0499 -0.0111,-0.0765 z m 0,0"
           id="path2512" />
        <g
           id="g2518"
           style="fill:#000000;fill-opacity:1"
           transform="matrix(0.352778,-0.19720814,0,0.352778,84.918177,141.60484)">
          <path
             inkscape:connector-curvature="0"
             id="path2516"
             transform="translate(153.092,136.259)"
             d="m 1.046875,-2.28125 c 0,-0.5625 0.046875,-1.078125 0.3125,-1.515625 0.234375,-0.375 0.609375,-0.625 1.0625,-0.625 0.203125,0 0.484375,0.046875 0.625,0.234375 C 2.875,-4.171875 2.71875,-4.046875 2.71875,-3.84375 c 0,0.171875 0.125,0.328125 0.328125,0.328125 0.21875,0 0.34375,-0.140625 0.34375,-0.34375 0,-0.40625 -0.296875,-0.765625 -0.984375,-0.765625 -1,0 -2.03125,0.921875 -2.03125,2.421875 0,1.796875 0.84375,2.34375 1.625,2.34375 0.84375,0 1.578125,-0.65625 1.578125,-1.5625 0,-0.890625 -0.703125,-1.546875 -1.515625,-1.546875 -0.5625,0 -0.859375,0.375 -1.015625,0.6875 z M 2,-0.078125 c -0.359375,0 -0.625,-0.203125 -0.78125,-0.515625 C 1.125,-0.796875 1.0625,-1.15625 1.0625,-1.5625 c 0,-0.6875 0.40625,-1.203125 0.96875,-1.203125 0.3125,0 0.53125,0.125 0.703125,0.375 0.171875,0.265625 0.171875,0.5625 0.171875,0.96875 0,0.390625 0,0.6875 -0.1875,0.96875 -0.15625,0.234375 -0.390625,0.375 -0.71875,0.375 z m 0,0"
             style="stroke:none;stroke-width:0" />
        </g>
      </g>
      <g
         transform="translate(-0.34981742,1.5795206)"
         id="g4906">
        <g
           id="g3469"
           ns1:jacobian_sqrt="0.352778"
           inkscapeversion="0.92.4"
           ns1:alignment="middle center"
           ns1:scale="1.0"
           ns1:preamble="/home/tim/.config/inkscape/extensions/textext/default_packages.tex"
           ns1:text="$\\lambda$"
           ns1:pdfconverter="pdf2svg"
           ns1:texconverter="pdflatex"
           ns1:version="0.9.1"
           transform="matrix(0.51407721,-0.34761026,0,0.51407721,34.064665,145.98225)">
          <g
             id="g3467">
            <g
               id="g3465"
               style="fill:#000000;fill-opacity:1">
              <path
                 id="path3463"
                 transform="translate(148.712,134.765)"
                 d="m 3.5625,-2.90625 c 0.40625,1.046875 0.890625,2.5625 1.046875,2.796875 0.15625,0.21875 0.25,0.21875 0.53125,0.21875 h 0.21875 c 0.09375,-0.015625 0.109375,-0.0625 0.109375,-0.09375 0,-0.03125 -0.03125,-0.0625 -0.0625,-0.09375 C 5.3125,-0.1875 5.25,-0.34375 5.1875,-0.53125 L 3.15625,-6.203125 c -0.21875,-0.578125 -0.75,-0.71875 -1.21875,-0.71875 -0.046875,0 -0.1875,0 -0.1875,0.109375 0,0.078125 0.078125,0.109375 0.09375,0.109375 C 2.171875,-6.65625 2.25,-6.59375 2.5,-5.90625 l 0.953125,2.703125 -2.75,2.734375 c -0.109375,0.125 -0.171875,0.171875 -0.171875,0.3125 0,0.171875 0.140625,0.28125 0.296875,0.28125 0.15625,0 0.25,-0.109375 0.328125,-0.203125 z m 0,0"
                 style="stroke:none;stroke-width:0"
                 inkscape:connector-curvature="0" />
            </g>
          </g>
        </g>
        <path
           style="fill:none;stroke:#000000;stroke-width:0.26499999;stroke-linecap:butt;stroke-linejoin:miter;stroke-miterlimit:4;stroke-dasharray:none;stroke-opacity:1;marker-end:url(#Arrow1Send)"
           d="m 113.79,159.92413 8.56504,-4.94503"
           id="path3477"
           inkscape:connector-curvature="0" />
      </g>
      <g
         id="g1964"
         transform="translate(-0.52212764,-0.92390984)">
        <path
           id="path1708"
           d="m 142.69062,155.26104 c -0.006,-0.12319 -0.004,-0.15747 0.27688,-0.31462 0.0827,-0.0462 0.11024,-0.0616 0.0925,-0.11787 -0.0118,-0.0375 -0.0504,-0.0159 -0.0614,-0.01 -0.10473,0.0585 -0.36085,0.21273 -0.46558,0.27128 -0.10473,0.0585 -0.36124,0.19093 -0.47148,0.25256 -0.0221,0.0123 -0.0661,0.037 -0.047,0.0979 0.0103,0.0328 0.0379,0.0174 0.10956,-0.0227 0.14332,-0.0801 0.24253,-0.13558 0.26026,-0.0793 0.004,0.0141 0.007,0.0234 0.004,0.053 l 0.034,1.87716 c 0.002,0.13095 0.006,0.16216 -0.2754,0.31931 -0.0827,0.0462 -0.11024,0.0616 -0.091,0.12255 0.0103,0.0328 0.0489,0.0112 0.0599,0.005 0.10474,-0.0585 0.35535,-0.20965 0.46008,-0.26819 0.10473,-0.0585 0.36675,-0.19402 0.47148,-0.25256 0.0276,-0.0154 0.0717,-0.0401 0.0539,-0.0963 -0.0118,-0.0375 -0.0394,-0.0221 -0.11654,0.0211 -0.0661,0.037 -0.0827,0.0462 -0.15031,0.0785 -0.0786,0.0385 -0.0941,0.0306 -0.10444,-0.002 -0.007,-0.0234 -0.009,-0.0499 -0.0111,-0.0765 z m 0,0"
           style="fill:#000000;fill-opacity:1;stroke:none;stroke-width:0"
           inkscape:connector-curvature="0" />
        <g
           id="g1694"
           ns1:jacobian_sqrt="0.352778"
           inkscapeversion="0.92.4"
           ns1:alignment="middle center"
           ns1:scale="1.0"
           ns1:preamble="/home/tim/.config/inkscape/extensions/textext/default_packages.tex"
           ns1:text="$I_7$"
           ns1:pdfconverter="pdf2svg"
           ns1:texconverter="pdflatex"
           ns1:version="0.9.1"
           transform="matrix(0.3192238,-0.17813166,0,0.3192238,94.002016,141.46932)"
           inkscape:transform-center-x="0.85021953"
           inkscape:transform-center-y="0.31037362">
          <g
             style="fill:#000000;fill-opacity:1"
             id="g1690">
            <path
               inkscape:connector-curvature="0"
               style="stroke:none;stroke-width:0"
               d="m 3.734375,-4.203125 c 0.0625,-0.09375 0.0625,-0.109375 0.0625,-0.28125 H 1.96875 C 1.6875,-4.484375 1.609375,-4.5 1.359375,-4.515625 1,-4.546875 0.984375,-4.59375 0.96875,-4.703125 H 0.734375 l -0.25,1.484375 H 0.71875 c 0.015625,-0.109375 0.09375,-0.5625 0.203125,-0.640625 0.046875,-0.03125 0.625,-0.03125 0.71875,-0.03125 H 3.15625 c -0.21875,0.28125 -0.578125,0.71875 -0.71875,0.921875 -0.90625,1.1875 -1,2.296875 -1,2.703125 0,0.078125 0,0.40625 0.328125,0.40625 0.34375,0 0.34375,-0.3125 0.34375,-0.40625 v -0.28125 c 0,-1.34375 0.28125,-1.96875 0.578125,-2.34375 z m 0,0"
               transform="translate(153.092,136.259)"
               id="path1688" />
          </g>
        </g>
      </g>
      <g
         id="g2217"
         transform="rotate(-30,129.44877,164.65251)">
        <g
           id="g1881"
           ns1:jacobian_sqrt="0.352778"
           ns1:alignment="middle center"
           ns1:scale="1.0"
           ns1:preamble="/home/tim/.config/inkscape/extensions/textext/default_packages.tex"
           ns1:text="$I_1$"
           ns1:pdfconverter="pdf2svg"
           ns1:texconverter="pdflatex"
           ns1:version="0.9.1"
           transform="matrix(0.30551471,0.176389,-0.176389,0.30551471,96.22891,101.99014)"
           inkscape:transform-center-y="2.8820769">
          <g
             id="surface1">
            <g
               id="g1895"
               transform="matrix(1,-0.64336798,0,1,-17.141016,87.759834)"
               inkscape:transform-center-x="1.8040693"
               inkscape:transform-center-y="1.2385432">
              <g
                 transform="matrix(1,0,0.26794919,1,-34.723956,0)"
                 style="fill:#000000;fill-opacity:1"
                 id="g1874" />
              <g
                 style="fill:#000000;fill-opacity:1"
                 id="g1878">
                <path
                   inkscape:connector-curvature="0"
                   style="stroke:none;stroke-width:0"
                   d="m 2.328125,-4.4375 c 0,-0.1875 0,-0.1875 -0.203125,-0.1875 -0.453125,0.4375 -1.078125,0.4375 -1.359375,0.4375 v 0.25 c 0.15625,0 0.625,0 1,-0.1875 v 3.546875 c 0,0.234375 0,0.328125 -0.6875,0.328125 H 0.8125 V 0 c 0.125,0 0.984375,-0.03125 1.234375,-0.03125 0.21875,0 1.09375,0.03125 1.25,0.03125 V -0.25 H 3.03125 c -0.703125,0 -0.703125,-0.09375 -0.703125,-0.328125 z m 0,0"
                   transform="translate(153.092,136.259)"
                   id="path1876" />
              </g>
            </g>
          </g>
        </g>
        <path
           id="path1918-3"
           d="m 116.48077,162.11027 c 0.0561,-0.10922 0.0751,-0.13807 0.40877,-0.15426 0.0982,-0.005 0.13092,-0.006 0.14294,-0.0626 0.008,-0.0375 -0.0378,-0.0353 -0.0507,-0.035 -0.1244,0.006 -0.43409,0.0302 -0.55849,0.0362 -0.1244,0.006 -0.42354,0.0111 -0.55447,0.0174 -0.0262,0.001 -0.0785,0.004 -0.0915,0.0648 -0.007,0.0328 0.0257,0.0312 0.11083,0.0272 0.17022,-0.008 0.28806,-0.0139 0.27604,0.0424 -0.003,0.0139 -0.005,0.0232 -0.0229,0.0476 l -0.9077,1.64018 c -0.0636,0.11424 -0.0756,0.14301 -0.40978,0.15895 -0.0982,0.005 -0.13092,0.006 -0.14392,0.0673 -0.007,0.0328 0.0388,0.0305 0.052,0.03 0.1244,-0.006 0.42754,-0.0299 0.55194,-0.0358 0.12439,-0.006 0.43008,-0.0114 0.55447,-0.0174 0.0327,-0.002 0.0851,-0.004 0.0971,-0.0604 0.008,-0.0375 -0.0247,-0.036 -0.11639,-0.0315 -0.0786,0.004 -0.0982,0.005 -0.17577,0.004 -0.0906,-2.5e-4 -0.10074,-0.0137 -0.0939,-0.0462 0.005,-0.0233 0.0168,-0.0471 0.0281,-0.0709 z m 0,0"
           style="fill:#000000;fill-opacity:1;stroke:none;stroke-width:0"
           inkscape:connector-curvature="0" />
      </g>
    </g>
  </g>
</svg>
