<?xml version="1.0" encoding="UTF-8" standalone="no"?>
<!-- Created with Inkscape (http://www.inkscape.org/) -->

<svg
   xmlns:ns1="http://www.iki.fi/pav/software/textext/"
   xmlns:dc="http://purl.org/dc/elements/1.1/"
   xmlns:cc="http://creativecommons.org/ns#"
   xmlns:rdf="http://www.w3.org/1999/02/22-rdf-syntax-ns#"
   xmlns:svg="http://www.w3.org/2000/svg"
   xmlns="http://www.w3.org/2000/svg"
   xmlns:sodipodi="http://sodipodi.sourceforge.net/DTD/sodipodi-0.dtd"
   xmlns:inkscape="http://www.inkscape.org/namespaces/inkscape"
   id="svg1192"
   version="1.1"
   viewBox="0 0 210 297"
   height="297mm"
   width="210mm"
   inkscape:version="0.92.4 5da689c313, 2019-01-14"
   sodipodi:docname="bg_1D_conv.svg">
  <defs
     id="defs1186">
    <marker
       inkscape:stockid="Arrow1Send"
       orient="auto"
       refY="0.0"
       refX="0.0"
       id="Arrow1Send"
       style="overflow:visible;"
       inkscape:isstock="true">
      <path
         id="path3494"
         d="M 0.0,0.0 L 5.0,-5.0 L -12.5,0.0 L 5.0,5.0 L 0.0,0.0 z "
         style="fill-rule:evenodd;stroke:#000000;stroke-width:1pt;stroke-opacity:1;fill:#000000;fill-opacity:1"
         transform="scale(0.2) rotate(180) translate(6,0)" />
    </marker>
  </defs>
  <sodipodi:namedview
     id="base"
     pagecolor="#ffffff"
     bordercolor="#666666"
     borderopacity="1.0"
     inkscape:pageopacity="0.0"
     inkscape:pageshadow="2"
     inkscape:zoom="5.4259712"
     inkscape:cx="466.54446"
     inkscape:cy="488.58403"
     inkscape:document-units="mm"
     inkscape:current-layer="g1008"
     showgrid="false"
     inkscape:window-width="1920"
     inkscape:window-height="1052"
     inkscape:window-x="0"
     inkscape:window-y="28"
     inkscape:window-maximized="1"
     inkscape:snap-smooth-nodes="false"
     inkscape:snap-global="false"
     inkscape:snap-object-midpoints="true" />
  <metadata
     id="metadata1189">
    <rdf:RDF>
      <cc:Work
         rdf:about="">
        <dc:format>image/svg+xml</dc:format>
        <dc:type
           rdf:resource="http://purl.org/dc/dcmitype/StillImage" />
        <dc:title></dc:title>
      </cc:Work>
    </rdf:RDF>
  </metadata>
  <g
     inkscape:label="Layer 1"
     inkscape:groupmode="layer"
     id="layer1">
    <g
       inkscape:transform-center-y="2.8820769"
       transform="matrix(0.352778,0,0,0.352778,73.974016,125.18747)"
       ns1:version="0.9.1"
       ns1:texconverter="pdflatex"
       ns1:pdfconverter="pdf2svg"
       ns1:text="$I_1$"
       ns1:preamble="/home/tim/.config/inkscape/extensions/textext/default_packages.tex"
       ns1:scale="1.0"
       ns1:alignment="middle center"
       ns1:jacobian_sqrt="0.352778"
       id="g1909">
      <g
         id="g1907">
        <g
           inkscape:transform-center-y="1.2385432"
           inkscape:transform-center-x="1.8040693"
           transform="matrix(1,-0.64336798,0,1,-17.141016,87.759834)"
           id="g1905">
          <g
             id="g2168" />
        </g>
      </g>
    </g>
    <g
       id="g2046">
      <g
         id="g1008">
        <path
           style="fill:none;stroke:#999999;stroke-width:0.26499999;stroke-linecap:butt;stroke-linejoin:miter;stroke-miterlimit:4;stroke-dasharray:0.52999998, 0.26499999;stroke-dashoffset:0;stroke-opacity:1"
           d="m 118.44055,165.11147 0,5.02963"
           id="path1729"
           inkscape:connector-curvature="0"
           sodipodi:nodetypes="cc" />
        <path
           style="fill:none;stroke:#999999;stroke-width:0.26499999;stroke-linecap:butt;stroke-linejoin:miter;stroke-miterlimit:4;stroke-dasharray:0.52999998, 0.26499999;stroke-dashoffset:0;stroke-opacity:1"
           d="m 122.69065,162.59347 10e-6,5.09372"
           id="path1725"
           inkscape:connector-curvature="0"
           sodipodi:nodetypes="cc" />
        <path
           style="fill:none;stroke:#999999;stroke-width:0.26499999;stroke-linecap:butt;stroke-linejoin:miter;stroke-miterlimit:4;stroke-dasharray:0.52999998, 0.26499999;stroke-dashoffset:0;stroke-opacity:1"
           d="m 126.94076,160.28698 2e-5,5.04573"
           id="path1721"
           inkscape:connector-curvature="0"
           sodipodi:nodetypes="cc" />
        <path
           style="fill:none;stroke:#999999;stroke-width:0.26499999;stroke-linecap:butt;stroke-linejoin:miter;stroke-miterlimit:4;stroke-dasharray:0.52999998, 0.26499999;stroke-dashoffset:0;stroke-opacity:1"
           d="m 131.19088,157.71312 0,5.0469"
           id="path1717"
           inkscape:connector-curvature="0"
           sodipodi:nodetypes="cc" />
        <path
           style="fill:none;stroke:#999999;stroke-width:0.26499999;stroke-linecap:butt;stroke-linejoin:miter;stroke-miterlimit:4;stroke-dasharray:0.52999998, 0.26499999;stroke-dashoffset:0;stroke-opacity:1"
           d="m 135.441,155.2767 1e-5,5.11843"
           id="path1713"
           inkscape:connector-curvature="0"
           sodipodi:nodetypes="cc" />
        <path
           inkscape:connector-curvature="0"
           style="fill:none;stroke:#999999;stroke-width:0.26499999;stroke-linecap:butt;stroke-linejoin:miter;stroke-miterlimit:4;stroke-dasharray:0.52999998, 0.26499999;stroke-dashoffset:0;stroke-opacity:1"
           d="m 139.69111,152.83295 0,5.10475"
           id="path1709"
           sodipodi:nodetypes="cc" />
        <path
           style="fill:none;stroke:#cccccc;stroke-width:0.18000001;stroke-linecap:butt;stroke-linejoin:miter;stroke-miterlimit:4;stroke-dasharray:none;stroke-opacity:1"
           d="m 114.30055,172.54763 18.82585,-1e-5"
           id="path4868"
           inkscape:connector-curvature="0" />
        <path
           style="fill:none;stroke:#cccccc;stroke-width:0.18000001;stroke-linecap:butt;stroke-linejoin:miter;stroke-miterlimit:4;stroke-dasharray:none;stroke-opacity:1"
           d="m 126.94078,165.33271 10.12785,0"
           id="path4872"
           inkscape:connector-curvature="0" />
        <path
           style="fill:none;stroke:#000000;stroke-width:0.26458332px;stroke-linecap:butt;stroke-linejoin:miter;stroke-opacity:1"
           d="m 144.04499,155.39995 -29.74444,17.14768 29.74444,-17.14768"
           id="path1735"
           inkscape:connector-curvature="0"
           sodipodi:nodetypes="ccc" />
        <path
           inkscape:connector-curvature="0"
           style="fill:none;stroke:#000000;stroke-width:0.26458332px;stroke-linecap:butt;stroke-linejoin:miter;stroke-opacity:1"
           d="m 109.88044,172.53273 4.48971,0"
           id="path1737" />
        <path
           style="fill:none;stroke:#cccccc;stroke-width:0.18000001;stroke-linecap:butt;stroke-linejoin:miter;stroke-miterlimit:4;stroke-dasharray:none;stroke-opacity:1"
           d="m 114.19082,167.52089 19.03581,-1e-5"
           id="path4866"
           inkscape:connector-curvature="0" />
        <path
           inkscape:connector-curvature="0"
           style="fill:none;stroke:#000000;stroke-width:0.26458332px;stroke-linecap:butt;stroke-linejoin:miter;stroke-opacity:1"
           d="m 109.84746,167.50469 29.81782,-17.05506 4.27632,0.004 1e-5,5.1335"
           id="path1697"
           sodipodi:nodetypes="cccc" />
        <path
           style="fill:none;stroke:#cccccc;stroke-width:0.18000001;stroke-linecap:butt;stroke-linejoin:miter;stroke-miterlimit:4;stroke-dasharray:none;stroke-opacity:1"
           d="m 127.19937,160.0801 18.98983,1e-5"
           id="path4870"
           inkscape:connector-curvature="0"
           sodipodi:nodetypes="cc" />
        <path
           inkscape:connector-curvature="0"
           style="fill:none;stroke:#000000;stroke-width:0.26458332px;stroke-linecap:butt;stroke-linejoin:miter;stroke-opacity:1"
           d="m 114.07225,167.61136 29.86933,-17.15777"
           id="path1695"
           sodipodi:nodetypes="cc" />
        <path
           style="fill:none;stroke:#000000;stroke-width:0.26458332px;stroke-linecap:butt;stroke-linejoin:miter;stroke-opacity:1"
           d="m 109.91451,172.6583 0,-5.14141 c 3.87541,0 4.27632,0.004 4.27632,0.004 l 0,4.89625"
           id="path1693"
           inkscape:connector-curvature="0"
           sodipodi:nodetypes="cccc" />
        <path
           style="fill:none;stroke:#cccccc;stroke-width:0.18000001;stroke-linecap:butt;stroke-linejoin:miter;stroke-miterlimit:4;stroke-dasharray:none;stroke-opacity:1"
           d="m 150.25289,165.33673 -8.43225,-10e-6"
           id="path4874"
           inkscape:connector-curvature="0" />
        <g
           id="g2938"
           transform="translate(15.732776,35.237317)">
          <g
             transform="translate(-30.613933,2.3200039)"
             id="g2925">
            <path
               inkscape:connector-curvature="0"
               style="fill:none;stroke:#999999;stroke-width:0.99999994;stroke-linecap:butt;stroke-linejoin:miter;stroke-miterlimit:4;stroke-dasharray:1.99999991, 0.99999995;stroke-dashoffset:0;stroke-opacity:1"
               d="m 592.00188,482.10962 v 19.00966"
               id="path2910"
               transform="scale(0.26458333)" />
            <path
               inkscape:connector-curvature="0"
               style="fill:none;stroke:#999999;stroke-width:0.99999994;stroke-linecap:butt;stroke-linejoin:miter;stroke-miterlimit:4;stroke-dasharray:1.99999991, 0.99999995;stroke-dashoffset:0;stroke-opacity:1"
               d="m 608.06529,472.59277 v 19.25182"
               id="path2908"
               transform="scale(0.26458333)" />
            <path
               sodipodi:nodetypes="cc"
               inkscape:connector-curvature="0"
               style="fill:none;stroke:#000000;stroke-width:0.99999994px;stroke-linecap:butt;stroke-linejoin:miter;stroke-opacity:1"
               d="m 624.33802,482.60711 -47.98339,27.60768"
               id="path2898"
               transform="scale(0.26458333)" />
            <path
               inkscape:connector-curvature="0"
               style="fill:none;stroke:#000000;stroke-width:0.99999994px;stroke-linecap:butt;stroke-linejoin:miter;stroke-opacity:1"
               d="m 559.64871,510.15848 h 16.96898"
               id="path2896"
               transform="scale(0.26458333)" />
            <path
               sodipodi:nodetypes="cccc"
               inkscape:connector-curvature="0"
               style="fill:none;stroke:#000000;stroke-width:0.99999994px;stroke-linecap:butt;stroke-linejoin:miter;stroke-opacity:1"
               d="m 559.5471,491.16637 49.26086,-28.10767 15.3207,0.0348 4e-5,19.85235"
               id="path2892"
               transform="scale(0.26458333)" />
            <path
               transform="scale(0.26458333)"
               sodipodi:nodetypes="cc"
               inkscape:connector-curvature="0"
               style="fill:none;stroke:#000000;stroke-width:0.99999994px;stroke-linecap:butt;stroke-linejoin:miter;stroke-opacity:1"
               d="M 575.49177,491.55806 623.927,463.59392"
               id="path2890" />
            <path
               inkscape:connector-curvature="0"
               style="fill:none;stroke:#000000;stroke-width:0.99999994px;stroke-linecap:butt;stroke-linejoin:miter;stroke-opacity:1"
               d="m 559.77747,510.63303 v -19.4321 c 14.64722,4e-5 16.16244,0.0151 16.16244,0.0151 v 18.50551"
               id="path2888"
               transform="scale(0.26458333)"
               sodipodi:nodetypes="cccc" />
          </g>
        </g>
        <g
           id="g4906"
           transform="translate(-1.2433521,0.58486488)">
          <g
             transform="matrix(0.51407721,-0.34761026,0,0.51407721,34.064665,145.98225)"
             ns1:version="0.9.1"
             ns1:texconverter="pdflatex"
             ns1:pdfconverter="pdf2svg"
             ns1:text="$\\lambda$"
             ns1:preamble="/home/tim/.config/inkscape/extensions/textext/default_packages.tex"
             ns1:scale="1.0"
             ns1:alignment="middle center"
             inkscapeversion="0.92.4"
             ns1:jacobian_sqrt="0.352778"
             id="g3469">
            <g
               id="g3467">
              <g
                 style="fill:#000000;fill-opacity:1"
                 id="g3465">
                <path
                   inkscape:connector-curvature="0"
                   style="stroke:none;stroke-width:0"
                   d="m 3.5625,-2.90625 c 0.40625,1.046875 0.890625,2.5625 1.046875,2.796875 0.15625,0.21875 0.25,0.21875 0.53125,0.21875 h 0.21875 c 0.09375,-0.015625 0.109375,-0.0625 0.109375,-0.09375 0,-0.03125 -0.03125,-0.0625 -0.0625,-0.09375 C 5.3125,-0.1875 5.25,-0.34375 5.1875,-0.53125 L 3.15625,-6.203125 c -0.21875,-0.578125 -0.75,-0.71875 -1.21875,-0.71875 -0.046875,0 -0.1875,0 -0.1875,0.109375 0,0.078125 0.078125,0.109375 0.09375,0.109375 C 2.171875,-6.65625 2.25,-6.59375 2.5,-5.90625 l 0.953125,2.703125 -2.75,2.734375 c -0.109375,0.125 -0.171875,0.171875 -0.171875,0.3125 0,0.171875 0.140625,0.28125 0.296875,0.28125 0.15625,0 0.25,-0.109375 0.328125,-0.203125 z m 0,0"
                   transform="translate(148.712,134.765)"
                   id="path3463" />
              </g>
            </g>
          </g>
          <path
             inkscape:connector-curvature="0"
             id="path3477"
             d="m 113.79,159.92413 8.56504,-4.94503"
             style="fill:none;stroke:#000000;stroke-width:0.26499999;stroke-linecap:butt;stroke-linejoin:miter;stroke-miterlimit:4;stroke-dasharray:none;stroke-opacity:1;marker-end:url(#Arrow1Send)" />
        </g>
        <g
           id="g1522"
           ns1:jacobian_sqrt="0.352778"
           inkscapeversion="0.92.4"
           ns1:alignment="middle center"
           ns1:scale="1.0"
           ns1:preamble="/home/tim/.config/inkscape/extensions/textext/default_packages.tex"
           ns1:text="I"
           ns1:pdfconverter="pdf2svg"
           ns1:texconverter="pdflatex"
           ns1:version="0.9.1"
           transform="matrix(0.36191175,-0.20993397,0,0.37222732,61.426511,151.77565)">
          <g
             id="g1520">
            <g
               id="g1518"
               style="fill:#000000;fill-opacity:1">
              <path
                 id="path1516"
                 d="m 150.962,128.97286 c 0,-0.35938 0.0156,-0.46875 0.8125,-0.46875 h 0.25 v -0.3125 c -0.34375,0.0312 -1.125,0.0312 -1.51563,0.0312 -0.375,0 -1.17187,0 -1.51562,-0.0312 v 0.3125 h 0.25 c 0.79687,0 0.82812,0.10937 0.82812,0.46875 v 5.25 c 0,0.35937 -0.0312,0.46875 -0.82812,0.46875 h -0.25 v 0.3125 c 0.34375,-0.0312 1.14062,-0.0312 1.51562,-0.0312 0.39063,0 1.17188,0 1.51563,0.0312 v -0.3125 h -0.25 c -0.79688,0 -0.8125,-0.10938 -0.8125,-0.46875 z m 0,0"
                 style="stroke:none;stroke-width:0"
                 inkscape:connector-curvature="0" />
            </g>
          </g>
        </g>
        <g
           transform="matrix(0.36191175,-0.20993397,0,0.37222732,65.695616,149.29928)"
           ns1:version="0.9.1"
           ns1:texconverter="pdflatex"
           ns1:pdfconverter="pdf2svg"
           ns1:text="I"
           ns1:preamble="/home/tim/.config/inkscape/extensions/textext/default_packages.tex"
           ns1:scale="1.0"
           ns1:alignment="middle center"
           inkscapeversion="0.92.4"
           ns1:jacobian_sqrt="0.352778"
           id="g1827">
          <g
             id="g1825">
            <g
               style="fill:#000000;fill-opacity:1"
               id="g1823">
              <path
                 inkscape:connector-curvature="0"
                 style="stroke:none;stroke-width:0"
                 d="m 150.962,128.97286 c 0,-0.35938 0.0156,-0.46875 0.8125,-0.46875 h 0.25 v -0.3125 c -0.34375,0.0312 -1.125,0.0312 -1.51563,0.0312 -0.375,0 -1.17187,0 -1.51562,-0.0312 v 0.3125 h 0.25 c 0.79687,0 0.82812,0.10937 0.82812,0.46875 v 5.25 c 0,0.35937 -0.0312,0.46875 -0.82812,0.46875 h -0.25 v 0.3125 c 0.34375,-0.0312 1.14062,-0.0312 1.51562,-0.0312 0.39063,0 1.17188,0 1.51563,0.0312 v -0.3125 h -0.25 c -0.79688,0 -0.8125,-0.10938 -0.8125,-0.46875 z m 0,0"
                 id="path1821" />
            </g>
          </g>
        </g>
        <g
           transform="matrix(0.36191175,-0.20993397,0,0.37222732,69.96472,146.8229)"
           ns1:version="0.9.1"
           ns1:texconverter="pdflatex"
           ns1:pdfconverter="pdf2svg"
           ns1:text="I"
           ns1:preamble="/home/tim/.config/inkscape/extensions/textext/default_packages.tex"
           ns1:scale="1.0"
           ns1:alignment="middle center"
           inkscapeversion="0.92.4"
           ns1:jacobian_sqrt="0.352778"
           id="g1847">
          <g
             id="g1845">
            <g
               style="fill:#000000;fill-opacity:1"
               id="g1843">
              <path
                 inkscape:connector-curvature="0"
                 style="stroke:none;stroke-width:0"
                 d="m 150.962,128.97286 c 0,-0.35938 0.0156,-0.46875 0.8125,-0.46875 h 0.25 v -0.3125 c -0.34375,0.0312 -1.125,0.0312 -1.51563,0.0312 -0.375,0 -1.17187,0 -1.51562,-0.0312 v 0.3125 h 0.25 c 0.79687,0 0.82812,0.10937 0.82812,0.46875 v 5.25 c 0,0.35937 -0.0312,0.46875 -0.82812,0.46875 h -0.25 v 0.3125 c 0.34375,-0.0312 1.14062,-0.0312 1.51562,-0.0312 0.39063,0 1.17188,0 1.51563,0.0312 v -0.3125 h -0.25 c -0.79688,0 -0.8125,-0.10938 -0.8125,-0.46875 z m 0,0"
                 id="path1841" />
            </g>
          </g>
        </g>
        <g
           id="g1867"
           ns1:jacobian_sqrt="0.352778"
           inkscapeversion="0.92.4"
           ns1:alignment="middle center"
           ns1:scale="1.0"
           ns1:preamble="/home/tim/.config/inkscape/extensions/textext/default_packages.tex"
           ns1:text="I"
           ns1:pdfconverter="pdf2svg"
           ns1:texconverter="pdflatex"
           ns1:version="0.9.1"
           transform="matrix(0.36191175,-0.20993397,0,0.37222732,74.233825,144.34652)">
          <g
             id="g1865">
            <g
               id="g1863"
               style="fill:#000000;fill-opacity:1">
              <path
                 id="path1861"
                 d="m 150.962,128.97286 c 0,-0.35938 0.0156,-0.46875 0.8125,-0.46875 h 0.25 v -0.3125 c -0.34375,0.0312 -1.125,0.0312 -1.51563,0.0312 -0.375,0 -1.17187,0 -1.51562,-0.0312 v 0.3125 h 0.25 c 0.79687,0 0.82812,0.10937 0.82812,0.46875 v 5.25 c 0,0.35937 -0.0312,0.46875 -0.82812,0.46875 h -0.25 v 0.3125 c 0.34375,-0.0312 1.14062,-0.0312 1.51562,-0.0312 0.39063,0 1.17188,0 1.51563,0.0312 v -0.3125 h -0.25 c -0.79688,0 -0.8125,-0.10938 -0.8125,-0.46875 z m 0,0"
                 style="stroke:none;stroke-width:0"
                 inkscape:connector-curvature="0" />
            </g>
          </g>
        </g>
        <g
           id="g1887"
           ns1:jacobian_sqrt="0.352778"
           inkscapeversion="0.92.4"
           ns1:alignment="middle center"
           ns1:scale="1.0"
           ns1:preamble="/home/tim/.config/inkscape/extensions/textext/default_packages.tex"
           ns1:text="I"
           ns1:pdfconverter="pdf2svg"
           ns1:texconverter="pdflatex"
           ns1:version="0.9.1"
           transform="matrix(0.36191175,-0.20993397,0,0.37222732,78.502931,141.87014)">
          <g
             id="g1885">
            <g
               id="g1883"
               style="fill:#000000;fill-opacity:1">
              <path
                 id="path1881"
                 d="m 150.962,128.97286 c 0,-0.35938 0.0156,-0.46875 0.8125,-0.46875 h 0.25 v -0.3125 c -0.34375,0.0312 -1.125,0.0312 -1.51563,0.0312 -0.375,0 -1.17187,0 -1.51562,-0.0312 v 0.3125 h 0.25 c 0.79687,0 0.82812,0.10937 0.82812,0.46875 v 5.25 c 0,0.35937 -0.0312,0.46875 -0.82812,0.46875 h -0.25 v 0.3125 c 0.34375,-0.0312 1.14062,-0.0312 1.51562,-0.0312 0.39063,0 1.17188,0 1.51563,0.0312 v -0.3125 h -0.25 c -0.79688,0 -0.8125,-0.10938 -0.8125,-0.46875 z m 0,0"
                 style="stroke:none;stroke-width:0"
                 inkscape:connector-curvature="0" />
            </g>
          </g>
        </g>
        <g
           id="g1908"
           ns1:jacobian_sqrt="0.352778"
           inkscapeversion="0.92.4"
           ns1:alignment="middle center"
           ns1:scale="1.0"
           ns1:preamble="/home/tim/.config/inkscape/extensions/textext/default_packages.tex"
           ns1:text="I"
           ns1:pdfconverter="pdf2svg"
           ns1:texconverter="pdflatex"
           ns1:version="0.9.1"
           transform="matrix(0.36191175,-0.20993397,0,0.37222732,82.772035,139.39377)">
          <g
             id="g1906">
            <g
               id="g1904"
               style="fill:#000000;fill-opacity:1">
              <path
                 id="path1902"
                 d="m 150.962,128.97286 c 0,-0.35938 0.0156,-0.46875 0.8125,-0.46875 h 0.25 v -0.3125 c -0.34375,0.0312 -1.125,0.0312 -1.51563,0.0312 -0.375,0 -1.17187,0 -1.51562,-0.0312 v 0.3125 h 0.25 c 0.79687,0 0.82812,0.10937 0.82812,0.46875 v 5.25 c 0,0.35937 -0.0312,0.46875 -0.82812,0.46875 h -0.25 v 0.3125 c 0.34375,-0.0312 1.14062,-0.0312 1.51562,-0.0312 0.39063,0 1.17188,0 1.51563,0.0312 v -0.3125 h -0.25 c -0.79688,0 -0.8125,-0.10938 -0.8125,-0.46875 z m 0,0"
                 style="stroke:none;stroke-width:0"
                 inkscape:connector-curvature="0" />
            </g>
          </g>
        </g>
        <g
           transform="matrix(0.36191175,-0.20993397,0,0.37222732,87.04114,136.91739)"
           ns1:version="0.9.1"
           ns1:texconverter="pdflatex"
           ns1:pdfconverter="pdf2svg"
           ns1:text="I"
           ns1:preamble="/home/tim/.config/inkscape/extensions/textext/default_packages.tex"
           ns1:scale="1.0"
           ns1:alignment="middle center"
           inkscapeversion="0.92.4"
           ns1:jacobian_sqrt="0.352778"
           id="g1928">
          <g
             id="g1926">
            <g
               style="fill:#000000;fill-opacity:1"
               id="g1924">
              <path
                 inkscape:connector-curvature="0"
                 style="stroke:none;stroke-width:0"
                 d="m 150.962,128.97286 c 0,-0.35938 0.0156,-0.46875 0.8125,-0.46875 h 0.25 v -0.3125 c -0.34375,0.0312 -1.125,0.0312 -1.51563,0.0312 -0.375,0 -1.17187,0 -1.51562,-0.0312 v 0.3125 h 0.25 c 0.79687,0 0.82812,0.10937 0.82812,0.46875 v 5.25 c 0,0.35937 -0.0312,0.46875 -0.82812,0.46875 h -0.25 v 0.3125 c 0.34375,-0.0312 1.14062,-0.0312 1.51562,-0.0312 0.39063,0 1.17188,0 1.51563,0.0312 v -0.3125 h -0.25 c -0.79688,0 -0.8125,-0.10938 -0.8125,-0.46875 z m 0,0"
                 id="path1922" />
            </g>
          </g>
        </g>
        <g
           id="g1798"
           ns1:jacobian_sqrt="0.352778"
           inkscapeversion="0.92.4"
           ns1:alignment="middle center"
           ns1:scale="1.0"
           ns1:preamble="/home/tim/.config/inkscape/extensions/textext/default_packages.tex"
           ns1:text="1"
           ns1:pdfconverter="pdf2svg"
           ns1:texconverter="pdflatex"
           ns1:version="0.9.1"
           transform="matrix(0.21972932,-0.12745828,0,0.22599226,83.93465,158.93984)">
          <g
             id="g1796">
            <g
               id="g1794"
               style="fill:#000000;fill-opacity:1">
              <path
                 id="path1792"
                 transform="translate(148.712,134.765)"
                 d="m 2.9375,-6.375 c 0,-0.25 0,-0.265625 -0.234375,-0.265625 C 2.078125,-6 1.203125,-6 0.890625,-6 v 0.3125 c 0.203125,0 0.78125,0 1.296875,-0.265625 v 5.171875 c 0,0.359375 -0.03125,0.46875 -0.921875,0.46875 h -0.3125 V 0 c 0.34375,-0.03125 1.203125,-0.03125 1.609375,-0.03125 0.390625,0 1.265625,0 1.609375,0.03125 v -0.3125 h -0.3125 c -0.90625,0 -0.921875,-0.109375 -0.921875,-0.46875 z m 0,0"
                 style="stroke:none;stroke-width:0"
                 inkscape:connector-curvature="0" />
            </g>
          </g>
        </g>
        <g
           transform="matrix(0.21972958,-0.12745843,0,0.22599253,88.214016,156.45747)"
           ns1:version="0.9.1"
           ns1:texconverter="pdflatex"
           ns1:pdfconverter="pdf2svg"
           ns1:text="2"
           ns1:preamble="/home/tim/.config/inkscape/extensions/textext/default_packages.tex"
           ns1:scale="0.526460777033"
           ns1:alignment="middle center"
           inkscapeversion="0.92.4"
           ns1:jacobian_sqrt="0.185724"
           id="g2032">
          <g
             id="g2030">
            <g
               style="fill:#000000;fill-opacity:1"
               id="g2028">
              <path
                 inkscape:connector-curvature="0"
                 style="stroke:none;stroke-width:0"
                 d="m 1.265625,-0.765625 1.0625,-1.03125 c 1.546875,-1.375 2.140625,-1.90625 2.140625,-2.90625 0,-1.140625 -0.890625,-1.9375 -2.109375,-1.9375 -1.125,0 -1.859375,0.921875 -1.859375,1.8125 0,0.546875 0.5,0.546875 0.53125,0.546875 0.171875,0 0.515625,-0.109375 0.515625,-0.53125 0,-0.25 -0.1875,-0.515625 -0.53125,-0.515625 -0.078125,0 -0.09375,0 -0.125,0.015625 0.21875,-0.65625 0.765625,-1.015625 1.34375,-1.015625 0.90625,0 1.328125,0.8125 1.328125,1.625 C 3.5625,-3.90625 3.078125,-3.125 2.515625,-2.5 l -1.90625,2.125 C 0.5,-0.265625 0.5,-0.234375 0.5,0 H 4.203125 L 4.46875,-1.734375 H 4.234375 C 4.171875,-1.4375 4.109375,-1 4,-0.84375 3.9375,-0.765625 3.28125,-0.765625 3.0625,-0.765625 Z m 0,0"
                 transform="translate(148.712,134.765)"
                 id="path2026" />
            </g>
          </g>
        </g>
        <g
           id="g2292"
           ns1:jacobian_sqrt="0.185724"
           inkscapeversion="0.92.4"
           ns1:alignment="middle center"
           ns1:scale="0.526460777033"
           ns1:preamble="/home/tim/.config/inkscape/extensions/textext/default_packages.tex"
           ns1:text="3"
           ns1:pdfconverter="pdf2svg"
           ns1:texconverter="pdflatex"
           ns1:version="0.9.1"
           transform="matrix(0.21972958,-0.12745843,0,0.22599253,92.481404,153.95738)">
          <g
             id="g2290">
            <g
               id="g2288"
               style="fill:#000000;fill-opacity:1">
              <path
                 inkscape:connector-curvature="0"
                 id="path2286"
                 transform="translate(148.712,134.765)"
                 d="m 2.890625,-3.515625 c 0.8125,-0.265625 1.390625,-0.953125 1.390625,-1.75 0,-0.8125 -0.875,-1.375 -1.828125,-1.375 -1,0 -1.765625,0.59375 -1.765625,1.359375 0,0.328125 0.21875,0.515625 0.515625,0.515625 0.296875,0 0.5,-0.21875 0.5,-0.515625 0,-0.484375 -0.46875,-0.484375 -0.609375,-0.484375 0.296875,-0.5 0.953125,-0.625 1.3125,-0.625 0.421875,0 0.96875,0.21875 0.96875,1.109375 0,0.125 -0.03125,0.703125 -0.28125,1.140625 C 2.796875,-3.65625 2.453125,-3.625 2.203125,-3.625 2.125,-3.609375 1.890625,-3.59375 1.8125,-3.59375 c -0.078125,0.015625 -0.140625,0.03125 -0.140625,0.125 0,0.109375 0.0625,0.109375 0.234375,0.109375 h 0.4375 c 0.8125,0 1.1875,0.671875 1.1875,1.65625 0,1.359375 -0.6875,1.640625 -1.125,1.640625 -0.4375,0 -1.1875,-0.171875 -1.53125,-0.75 0.34375,0.046875 0.65625,-0.171875 0.65625,-0.546875 0,-0.359375 -0.265625,-0.5625 -0.546875,-0.5625 -0.25,0 -0.5625,0.140625 -0.5625,0.578125 0,0.90625 0.921875,1.5625 2.015625,1.5625 1.21875,0 2.125,-0.90625 2.125,-1.921875 0,-0.8125 -0.640625,-1.59375 -1.671875,-1.8125 z m 0,0"
                 style="stroke:none;stroke-width:0" />
            </g>
          </g>
        </g>
        <g
           id="g2438"
           ns1:jacobian_sqrt="0.185724"
           inkscapeversion="0.92.4"
           ns1:alignment="middle center"
           ns1:scale="0.526460777033"
           ns1:preamble="/home/tim/.config/inkscape/extensions/textext/default_packages.tex"
           ns1:text="4"
           ns1:pdfconverter="pdf2svg"
           ns1:texconverter="pdflatex"
           ns1:version="0.9.1"
           transform="matrix(0.21972958,-0.12745843,0,0.22599253,96.752226,151.51708)">
          <g
             id="g2436">
            <g
               id="g2434"
               style="fill:#000000;fill-opacity:1">
              <path
                 inkscape:connector-curvature="0"
                 id="path2432"
                 transform="translate(148.712,134.765)"
                 d="m 2.9375,-1.640625 v 0.859375 c 0,0.359375 -0.03125,0.46875 -0.765625,0.46875 H 1.96875 V 0 C 2.375,-0.03125 2.890625,-0.03125 3.3125,-0.03125 c 0.421875,0 0.9375,0 1.359375,0.03125 v -0.3125 h -0.21875 c -0.734375,0 -0.75,-0.109375 -0.75,-0.46875 V -1.640625 H 4.6875 v -0.3125 H 3.703125 v -4.53125 c 0,-0.203125 0,-0.265625 -0.171875,-0.265625 -0.078125,0 -0.109375,0 -0.1875,0.125 l -3.0625,4.671875 v 0.3125 z m 0.046875,-0.3125 H 0.5625 l 2.421875,-3.71875 z m 0,0"
                 style="stroke:none;stroke-width:0" />
            </g>
          </g>
        </g>
        <g
           id="g2584"
           ns1:jacobian_sqrt="0.185724"
           inkscapeversion="0.92.4"
           ns1:alignment="middle center"
           ns1:scale="0.526460777033"
           ns1:preamble="/home/tim/.config/inkscape/extensions/textext/default_packages.tex"
           ns1:text="5"
           ns1:pdfconverter="pdf2svg"
           ns1:texconverter="pdflatex"
           ns1:version="0.9.1"
           transform="matrix(0.21972958,-0.12745843,0,0.22599253,101.02133,149.00363)">
          <g
             id="g2582">
            <g
               id="g2580"
               style="fill:#000000;fill-opacity:1">
              <path
                 inkscape:connector-curvature="0"
                 id="path2578"
                 transform="translate(148.712,134.765)"
                 d="m 4.46875,-2 c 0,-1.1875 -0.8125,-2.1875 -1.890625,-2.1875 -0.46875,0 -0.90625,0.15625 -1.265625,0.515625 V -5.625 c 0.203125,0.0625 0.53125,0.125 0.84375,0.125 1.234375,0 1.9375,-0.90625 1.9375,-1.03125 0,-0.0625 -0.03125,-0.109375 -0.109375,-0.109375 0,0 -0.03125,0 -0.078125,0.03125 C 3.703125,-6.515625 3.21875,-6.3125 2.546875,-6.3125 2.15625,-6.3125 1.6875,-6.390625 1.21875,-6.59375 1.140625,-6.625 1.125,-6.625 1.109375,-6.625 1,-6.625 1,-6.546875 1,-6.390625 V -3.4375 c 0,0.171875 0,0.25 0.140625,0.25 0.078125,0 0.09375,-0.015625 0.140625,-0.078125 C 1.390625,-3.421875 1.75,-3.96875 2.5625,-3.96875 c 0.515625,0 0.765625,0.453125 0.84375,0.640625 0.15625,0.375 0.1875,0.75 0.1875,1.25 0,0.359375 0,0.953125 -0.25,1.375 C 3.109375,-0.3125 2.734375,-0.0625 2.28125,-0.0625 c -0.71875,0 -1.296875,-0.53125 -1.46875,-1.109375 0.03125,0 0.0625,0.015625 0.171875,0.015625 0.328125,0 0.5,-0.25 0.5,-0.484375 0,-0.25 -0.171875,-0.5 -0.5,-0.5 C 0.84375,-2.140625 0.5,-2.0625 0.5,-1.609375 0.5,-0.75 1.1875,0.21875 2.296875,0.21875 3.453125,0.21875 4.46875,-0.734375 4.46875,-2 Z m 0,0"
                 style="stroke:none;stroke-width:0" />
            </g>
          </g>
        </g>
        <g
           id="g2730"
           ns1:jacobian_sqrt="0.185724"
           inkscapeversion="0.92.4"
           ns1:alignment="middle center"
           ns1:scale="0.526460777033"
           ns1:preamble="/home/tim/.config/inkscape/extensions/textext/default_packages.tex"
           ns1:text="6"
           ns1:pdfconverter="pdf2svg"
           ns1:texconverter="pdflatex"
           ns1:version="0.9.1"
           transform="matrix(0.21972958,-0.12745843,0,0.22599253,105.28872,146.52824)">
          <g
             id="g2728">
            <g
               id="g2726"
               style="fill:#000000;fill-opacity:1">
              <path
                 inkscape:connector-curvature="0"
                 id="path2724"
                 transform="translate(148.712,134.765)"
                 d="m 1.3125,-3.265625 v -0.25 c 0,-2.515625 1.234375,-2.875 1.75,-2.875 0.234375,0 0.65625,0.0625 0.875,0.40625 -0.15625,0 -0.546875,0 -0.546875,0.4375 0,0.3125 0.234375,0.46875 0.453125,0.46875 0.15625,0 0.46875,-0.09375 0.46875,-0.484375 0,-0.59375 -0.4375,-1.078125 -1.265625,-1.078125 -1.28125,0 -2.625,1.28125 -2.625,3.484375 0,2.671875 1.15625,3.375 2.078125,3.375 1.109375,0 2.0625,-0.9375 2.0625,-2.25 0,-1.265625 -0.890625,-2.21875 -2,-2.21875 -0.671875,0 -1.046875,0.5 -1.25,0.984375 z M 2.5,-0.0625 c -0.625,0 -0.921875,-0.59375 -0.984375,-0.75 -0.1875,-0.46875 -0.1875,-1.265625 -0.1875,-1.4375 0,-0.78125 0.328125,-1.78125 1.21875,-1.78125 0.171875,0 0.625,0 0.9375,0.625 0.171875,0.359375 0.171875,0.875 0.171875,1.359375 0,0.484375 0,0.984375 -0.171875,1.34375 C 3.1875,-0.109375 2.734375,-0.0625 2.5,-0.0625 Z m 0,0"
                 style="stroke:none;stroke-width:0" />
            </g>
          </g>
        </g>
        <g
           id="g2876"
           ns1:jacobian_sqrt="0.185724"
           inkscapeversion="0.92.4"
           ns1:alignment="middle center"
           ns1:scale="0.526460777033"
           ns1:preamble="/home/tim/.config/inkscape/extensions/textext/default_packages.tex"
           ns1:text="7"
           ns1:pdfconverter="pdf2svg"
           ns1:texconverter="pdflatex"
           ns1:version="0.9.1"
           transform="matrix(0.21972958,-0.12745843,0,0.22599253,109.51319,144.08834)">
          <g
             id="g2874">
            <g
               id="g2872"
               style="fill:#000000;fill-opacity:1">
              <path
                 inkscape:connector-curvature="0"
                 id="path2870"
                 d="m 152.54306,128.68687 c 0.0781,-0.10937 0.0781,-0.125 0.0781,-0.34375 h -2.42188 c -1.20312,0 -1.23437,-0.125 -1.26562,-0.3125 h -0.25 l -0.32813,2.04688 h 0.25 c 0.0312,-0.15625 0.10938,-0.78125 0.25,-0.90625 0.0625,-0.0625 0.84375,-0.0625 0.96875,-0.0625 h 2.0625 c -0.10937,0.15625 -0.89062,1.25 -1.10937,1.57812 -0.90625,1.34375 -1.23438,2.73438 -1.23438,3.75 0,0.0937 0,0.54688 0.46875,0.54688 0.45313,0 0.45313,-0.45313 0.45313,-0.54688 v -0.51562 c 0,-0.54688 0.0312,-1.09375 0.10937,-1.625 0.0469,-0.23438 0.17188,-1.09375 0.625,-1.70313 z m 0,0"
                 style="stroke:none;stroke-width:0" />
            </g>
          </g>
        </g>
      </g>
    </g>
  </g>
</svg>
