<?xml version="1.0" encoding="UTF-8" standalone="no"?>
<!-- Created with Inkscape (http://www.inkscape.org/) -->

<svg
   xmlns:ns1="http://www.iki.fi/pav/software/textext/"
   xmlns:dc="http://purl.org/dc/elements/1.1/"
   xmlns:cc="http://creativecommons.org/ns#"
   xmlns:rdf="http://www.w3.org/1999/02/22-rdf-syntax-ns#"
   xmlns:svg="http://www.w3.org/2000/svg"
   xmlns="http://www.w3.org/2000/svg"
   xmlns:sodipodi="http://sodipodi.sourceforge.net/DTD/sodipodi-0.dtd"
   xmlns:inkscape="http://www.inkscape.org/namespaces/inkscape"
   width="210mm"
   height="297mm"
   viewBox="0 0 210 297"
   version="1.1"
   id="svg728"
   sodipodi:docname="bg_convolution_example.svg"
   inkscape:version="0.92.4 5da689c313, 2019-01-14">
  <defs
     id="defs722">
    <marker
       inkscape:isstock="true"
       style="overflow:visible"
       id="marker5218"
       refX="0"
       refY="0"
       orient="auto"
       inkscape:stockid="Arrow1Send">
      <path
         inkscape:connector-curvature="0"
         transform="matrix(-0.2,0,0,-0.2,-1.2,0)"
         style="fill:#333333;fill-opacity:1;fill-rule:evenodd;stroke:#333333;stroke-width:1.00000003pt;stroke-opacity:1"
         d="M 0,0 5,-5 -12.5,0 5,5 Z"
         id="path5216" />
    </marker>
    <marker
       inkscape:stockid="Arrow1Send"
       orient="auto"
       refY="0"
       refX="0"
       id="Arrow1Send"
       style="overflow:visible"
       inkscape:isstock="true">
      <path
         inkscape:connector-curvature="0"
         id="path1676"
         d="M 0,0 5,-5 -12.5,0 5,5 Z"
         style="fill:#000000;fill-opacity:1;fill-rule:evenodd;stroke:#000000;stroke-width:1.00000003pt;stroke-opacity:1"
         transform="matrix(-0.2,0,0,-0.2,-1.2,0)" />
    </marker>
  </defs>
  <sodipodi:namedview
     id="base"
     pagecolor="#ffffff"
     bordercolor="#666666"
     borderopacity="1.0"
     inkscape:pageopacity="0.0"
     inkscape:pageshadow="2"
     inkscape:zoom="15.839192"
     inkscape:cx="362.3557"
     inkscape:cy="482.53238"
     inkscape:document-units="mm"
     inkscape:current-layer="layer1"
     showgrid="false"
     inkscape:snap-object-midpoints="true"
     inkscape:snap-intersection-paths="true"
     inkscape:window-width="1920"
     inkscape:window-height="1052"
     inkscape:window-x="0"
     inkscape:window-y="28"
     inkscape:window-maximized="1"
     inkscape:snap-global="true"
     showguides="false" />
  <metadata
     id="metadata725">
    <rdf:RDF>
      <cc:Work
         rdf:about="">
        <dc:format>image/svg+xml</dc:format>
        <dc:type
           rdf:resource="http://purl.org/dc/dcmitype/StillImage" />
        <dc:title />
      </cc:Work>
    </rdf:RDF>
  </metadata>
  <g
     inkscape:label="Layer 1"
     inkscape:groupmode="layer"
     id="layer1">
    <path
       inkscape:connector-curvature="0"
       id="path2143"
       d="m 58.310583,133.58883 v 5.01607 h 5.016069 v 10.03213 h 5.016066 V 138.6049 h 5.016066 v -5.01607 H 58.310583"
       style="opacity:1;vector-effect:none;fill:#ff5555;fill-opacity:1;stroke:none;stroke-width:0.26458332px;stroke-linecap:butt;stroke-linejoin:miter;stroke-miterlimit:4;stroke-dasharray:none;stroke-dashoffset:0;stroke-opacity:1" />
    <g
       style="fill:#b3b3b3"
       id="g2141"
       transform="translate(28.725457,-63.406531)">
      <path
         style="opacity:1;vector-effect:none;fill:none;fill-opacity:1;stroke:#999999;stroke-width:0.26499999;stroke-linecap:butt;stroke-linejoin:miter;stroke-miterlimit:4;stroke-dasharray:0.52999997, 0.52999997;stroke-dashoffset:0;stroke-opacity:1"
         d="m 39.617261,196.99536 v 20.06427"
         id="path2095"
         inkscape:connector-curvature="0"
         sodipodi:nodetypes="cc" />
      <path
         style="opacity:1;vector-effect:none;fill:none;fill-opacity:1;stroke:#999999;stroke-width:0.26499999;stroke-linecap:butt;stroke-linejoin:miter;stroke-miterlimit:4;stroke-dasharray:0.52999997, 0.52999997;stroke-dashoffset:0;stroke-opacity:1"
         d="m 34.601195,196.99536 v 20.06427"
         id="path2097"
         inkscape:connector-curvature="0" />
      <path
         style="opacity:1;vector-effect:none;fill:none;fill-opacity:1;stroke:#999999;stroke-width:0.26499999;stroke-linecap:butt;stroke-linejoin:miter;stroke-miterlimit:4;stroke-dasharray:0.52999997, 0.52999997;stroke-dashoffset:0;stroke-opacity:1"
         d="m 29.585126,196.99536 v 20.06427"
         id="path2105"
         inkscape:connector-curvature="0"
         sodipodi:nodetypes="cc" />
      <g
         id="g2132"
         transform="rotate(90,34.601194,207.0275)">
        <path
           style="opacity:1;vector-effect:none;fill:none;fill-opacity:1;stroke:#999999;stroke-width:0.26499999;stroke-linecap:butt;stroke-linejoin:miter;stroke-miterlimit:4;stroke-dasharray:0.52999997, 0.52999997;stroke-dashoffset:0;stroke-opacity:1"
           d="m 39.617261,196.99536 v 20.06427"
           id="path2122"
           inkscape:connector-curvature="0"
           sodipodi:nodetypes="cc" />
        <path
           style="opacity:1;vector-effect:none;fill:none;fill-opacity:1;stroke:#999999;stroke-width:0.26499999;stroke-linecap:butt;stroke-linejoin:miter;stroke-miterlimit:4;stroke-dasharray:0.52999997, 0.52999997;stroke-dashoffset:0;stroke-opacity:1"
           d="m 34.601195,196.99536 v 20.06427"
           id="path2124"
           inkscape:connector-curvature="0" />
        <path
           style="opacity:1;vector-effect:none;fill:none;fill-opacity:1;stroke:#999999;stroke-width:0.26499999;stroke-linecap:butt;stroke-linejoin:miter;stroke-miterlimit:4;stroke-dasharray:0.52999997, 0.52999997;stroke-dashoffset:0;stroke-opacity:1"
           d="m 29.585126,196.99536 v 20.06427"
           id="path2127"
           inkscape:connector-curvature="0"
           sodipodi:nodetypes="cc" />
      </g>
    </g>
    <path
       inkscape:connector-curvature="0"
       id="path376"
       d="m 53.294519,133.58884 v 15.0482 h 15.048197 v -15.04001 z"
       style="fill:none;stroke:#000000;stroke-width:0.28783613px;stroke-linecap:butt;stroke-linejoin:miter;stroke-opacity:1" />
    <g
       style="fill:#b3b3b3"
       id="g1341"
       ns1:jacobian_sqrt="0.735154"
       ns1:alignment="middle center"
       ns1:scale="2.08390219912"
       ns1:preamble="/home/tim/.config/inkscape/extensions/textext/default_packages.tex"
       ns1:text="1"
       ns1:pdfconverter="pdf2svg"
       ns1:texconverter="pdflatex"
       ns1:version="0.9.1"
       transform="matrix(0.69394435,0,0,0.59893453,-49.012172,57.320322)"
       inkscape:transform-center-x="-4.1988485"
       inkscape:transform-center-y="-2.2086943">
      <g
         id="surface1">
        <g
           id="g1338"
           style="fill:#000000;fill-opacity:1">
          <path
             id="path1336"
             transform="translate(148.712,134.765)"
             d="m 2.9375,-6.375 c 0,-0.25 0,-0.265625 -0.234375,-0.265625 C 2.078125,-6 1.203125,-6 0.890625,-6 v 0.3125 c 0.203125,0 0.78125,0 1.296875,-0.265625 v 5.171875 c 0,0.359375 -0.03125,0.46875 -0.921875,0.46875 h -0.3125 V 0 c 0.34375,-0.03125 1.203125,-0.03125 1.609375,-0.03125 0.390625,0 1.265625,0 1.609375,0.03125 v -0.3125 h -0.3125 c -0.90625,0 -0.921875,-0.109375 -0.921875,-0.46875 z m 0,0"
             style="stroke:none;stroke-width:0"
             inkscape:connector-curvature="0" />
        </g>
      </g>
    </g>
    <g
       style="fill:#b3b3b3"
       inkscape:transform-center-y="-2.2086943"
       inkscape:transform-center-x="-4.1988485"
       transform="matrix(0.69394435,0,0,0.59893453,-44.161112,57.441588)"
       ns1:version="0.9.1"
       ns1:texconverter="pdflatex"
       ns1:pdfconverter="pdf2svg"
       ns1:text="1"
       ns1:preamble="/home/tim/.config/inkscape/extensions/textext/default_packages.tex"
       ns1:scale="2.08390219912"
       ns1:alignment="middle center"
       ns1:jacobian_sqrt="0.735154"
       id="g1356">
      <g
         id="g1354">
        <g
           style="fill:#000000;fill-opacity:1"
           id="g1352">
          <path
             inkscape:connector-curvature="0"
             style="stroke:none;stroke-width:0"
             d="m 2.9375,-6.375 c 0,-0.25 0,-0.265625 -0.234375,-0.265625 C 2.078125,-6 1.203125,-6 0.890625,-6 v 0.3125 c 0.203125,0 0.78125,0 1.296875,-0.265625 v 5.171875 c 0,0.359375 -0.03125,0.46875 -0.921875,0.46875 h -0.3125 V 0 c 0.34375,-0.03125 1.203125,-0.03125 1.609375,-0.03125 0.390625,0 1.265625,0 1.609375,0.03125 v -0.3125 h -0.3125 c -0.90625,0 -0.921875,-0.109375 -0.921875,-0.46875 z m 0,0"
             transform="translate(148.712,134.765)"
             id="path1350" />
        </g>
      </g>
    </g>
    <g
       style="fill:#b3b3b3"
       id="g1364"
       ns1:jacobian_sqrt="0.735154"
       ns1:alignment="middle center"
       ns1:scale="2.08390219912"
       ns1:preamble="/home/tim/.config/inkscape/extensions/textext/default_packages.tex"
       ns1:text="1"
       ns1:pdfconverter="pdf2svg"
       ns1:texconverter="pdflatex"
       ns1:version="0.9.1"
       transform="matrix(0.69394435,0,0,0.59893453,-39.075323,57.409696)"
       inkscape:transform-center-x="-4.1988485"
       inkscape:transform-center-y="-2.2086943">
      <g
         id="g1362">
        <g
           id="g1360"
           style="fill:#000000;fill-opacity:1">
          <path
             id="path1358"
             transform="translate(148.712,134.765)"
             d="m 2.9375,-6.375 c 0,-0.25 0,-0.265625 -0.234375,-0.265625 C 2.078125,-6 1.203125,-6 0.890625,-6 v 0.3125 c 0.203125,0 0.78125,0 1.296875,-0.265625 v 5.171875 c 0,0.359375 -0.03125,0.46875 -0.921875,0.46875 h -0.3125 V 0 c 0.34375,-0.03125 1.203125,-0.03125 1.609375,-0.03125 0.390625,0 1.265625,0 1.609375,0.03125 v -0.3125 h -0.3125 c -0.90625,0 -0.921875,-0.109375 -0.921875,-0.46875 z m 0,0"
             style="stroke:none;stroke-width:0"
             inkscape:connector-curvature="0" />
        </g>
      </g>
    </g>
    <g
       style="fill:#b3b3b3"
       inkscape:transform-center-y="-2.2086943"
       inkscape:transform-center-x="-4.1988485"
       transform="matrix(0.69394435,0,0,0.59893453,-43.926383,62.555812)"
       ns1:version="0.9.1"
       ns1:texconverter="pdflatex"
       ns1:pdfconverter="pdf2svg"
       ns1:text="1"
       ns1:preamble="/home/tim/.config/inkscape/extensions/textext/default_packages.tex"
       ns1:scale="2.08390219912"
       ns1:alignment="middle center"
       ns1:jacobian_sqrt="0.735154"
       id="g1372">
      <g
         id="g1370">
        <g
           style="fill:#000000;fill-opacity:1"
           id="g1368">
          <path
             inkscape:connector-curvature="0"
             style="stroke:none;stroke-width:0"
             d="m 2.9375,-6.375 c 0,-0.25 0,-0.265625 -0.234375,-0.265625 C 2.078125,-6 1.203125,-6 0.890625,-6 v 0.3125 c 0.203125,0 0.78125,0 1.296875,-0.265625 v 5.171875 c 0,0.359375 -0.03125,0.46875 -0.921875,0.46875 h -0.3125 V 0 c 0.34375,-0.03125 1.203125,-0.03125 1.609375,-0.03125 0.390625,0 1.265625,0 1.609375,0.03125 v -0.3125 h -0.3125 c -0.90625,0 -0.921875,-0.109375 -0.921875,-0.46875 z m 0,0"
             transform="translate(148.712,134.765)"
             id="path1366" />
        </g>
      </g>
    </g>
    <g
       style="fill:#b3b3b3"
       id="g1380"
       ns1:jacobian_sqrt="0.735154"
       ns1:alignment="middle center"
       ns1:scale="2.08390219912"
       ns1:preamble="/home/tim/.config/inkscape/extensions/textext/default_packages.tex"
       ns1:text="1"
       ns1:pdfconverter="pdf2svg"
       ns1:texconverter="pdflatex"
       ns1:version="0.9.1"
       transform="matrix(0.69394435,0,0,0.59893453,-43.926383,67.350469)"
       inkscape:transform-center-x="-4.1988485"
       inkscape:transform-center-y="-2.2086943">
      <g
         id="g1378">
        <g
           id="g1376"
           style="fill:#000000;fill-opacity:1">
          <path
             id="path1374"
             transform="translate(148.712,134.765)"
             d="m 2.9375,-6.375 c 0,-0.25 0,-0.265625 -0.234375,-0.265625 C 2.078125,-6 1.203125,-6 0.890625,-6 v 0.3125 c 0.203125,0 0.78125,0 1.296875,-0.265625 v 5.171875 c 0,0.359375 -0.03125,0.46875 -0.921875,0.46875 h -0.3125 V 0 c 0.34375,-0.03125 1.203125,-0.03125 1.609375,-0.03125 0.390625,0 1.265625,0 1.609375,0.03125 v -0.3125 h -0.3125 c -0.90625,0 -0.921875,-0.109375 -0.921875,-0.46875 z m 0,0"
             style="stroke:none;stroke-width:0"
             inkscape:connector-curvature="0" />
        </g>
      </g>
    </g>
    <g
       style="fill:#b3b3b3"
       id="g1449"
       ns1:jacobian_sqrt="0.59261"
       ns1:alignment="middle center"
       ns1:scale="1.67984096284"
       ns1:preamble="/home/tim/.config/inkscape/extensions/textext/default_packages.tex"
       ns1:text="0"
       ns1:pdfconverter="pdf2svg"
       ns1:texconverter="pdflatex"
       ns1:version="0.9.1"
       transform="matrix(0.69394406,-4.580166e-7,0,0.59893427,-39.042751,62.289394)">
      <g
         id="g1447">
        <g
           id="g1445"
           style="fill:#000000;fill-opacity:1">
          <path
             id="path1443"
             transform="translate(148.712,134.765)"
             d="m 4.578125,-3.1875 c 0,-0.796875 -0.046875,-1.59375 -0.390625,-2.328125 -0.453125,-0.96875 -1.28125,-1.125 -1.6875,-1.125 -0.609375,0 -1.328125,0.265625 -1.75,1.1875 -0.3125,0.6875 -0.359375,1.46875 -0.359375,2.265625 0,0.75 0.03125,1.640625 0.453125,2.40625 0.421875,0.796875 1.15625,1 1.640625,1 0.53125,0 1.296875,-0.203125 1.734375,-1.15625 0.3125,-0.6875 0.359375,-1.46875 0.359375,-2.25 z M 2.484375,0 C 2.09375,0 1.5,-0.25 1.328125,-1.203125 1.21875,-1.796875 1.21875,-2.71875 1.21875,-3.3125 c 0,-0.640625 0,-1.296875 0.078125,-1.828125 0.1875,-1.1875 0.9375,-1.28125 1.1875,-1.28125 0.328125,0 0.984375,0.1875 1.171875,1.171875 0.109375,0.5625 0.109375,1.3125 0.109375,1.9375 0,0.75 0,1.421875 -0.109375,2.0625 C 3.5,-0.296875 2.9375,0 2.484375,0 Z m 0,0"
             style="stroke:none;stroke-width:0"
             inkscape:connector-curvature="0" />
        </g>
      </g>
    </g>
    <g
       style="fill:#b3b3b3"
       transform="matrix(0.69394406,-4.580166e-7,0,0.59893427,-39.042751,67.327149)"
       ns1:version="0.9.1"
       ns1:texconverter="pdflatex"
       ns1:pdfconverter="pdf2svg"
       ns1:text="0"
       ns1:preamble="/home/tim/.config/inkscape/extensions/textext/default_packages.tex"
       ns1:scale="1.67984096284"
       ns1:alignment="middle center"
       ns1:jacobian_sqrt="0.59261"
       id="g1464">
      <g
         id="g1462">
        <g
           style="fill:#000000;fill-opacity:1"
           id="g1460">
          <path
             inkscape:connector-curvature="0"
             style="stroke:none;stroke-width:0"
             d="m 4.578125,-3.1875 c 0,-0.796875 -0.046875,-1.59375 -0.390625,-2.328125 -0.453125,-0.96875 -1.28125,-1.125 -1.6875,-1.125 -0.609375,0 -1.328125,0.265625 -1.75,1.1875 -0.3125,0.6875 -0.359375,1.46875 -0.359375,2.265625 0,0.75 0.03125,1.640625 0.453125,2.40625 0.421875,0.796875 1.15625,1 1.640625,1 0.53125,0 1.296875,-0.203125 1.734375,-1.15625 0.3125,-0.6875 0.359375,-1.46875 0.359375,-2.25 z M 2.484375,0 C 2.09375,0 1.5,-0.25 1.328125,-1.203125 1.21875,-1.796875 1.21875,-2.71875 1.21875,-3.3125 c 0,-0.640625 0,-1.296875 0.078125,-1.828125 0.1875,-1.1875 0.9375,-1.28125 1.1875,-1.28125 0.328125,0 0.984375,0.1875 1.171875,1.171875 0.109375,0.5625 0.109375,1.3125 0.109375,1.9375 0,0.75 0,1.421875 -0.109375,2.0625 C 3.5,-0.296875 2.9375,0 2.484375,0 Z m 0,0"
             transform="translate(148.712,134.765)"
             id="path1458" />
        </g>
      </g>
    </g>
    <g
       style="fill:#b3b3b3"
       id="g1472"
       ns1:jacobian_sqrt="0.59261"
       ns1:alignment="middle center"
       ns1:scale="1.67984096284"
       ns1:preamble="/home/tim/.config/inkscape/extensions/textext/default_packages.tex"
       ns1:text="0"
       ns1:pdfconverter="pdf2svg"
       ns1:texconverter="pdflatex"
       ns1:version="0.9.1"
       transform="matrix(0.69394406,-4.580166e-7,0,0.59893427,-48.973783,62.306853)">
      <g
         id="g1470">
        <g
           id="g1468"
           style="fill:#000000;fill-opacity:1">
          <path
             id="path1466"
             transform="translate(148.712,134.765)"
             d="m 4.578125,-3.1875 c 0,-0.796875 -0.046875,-1.59375 -0.390625,-2.328125 -0.453125,-0.96875 -1.28125,-1.125 -1.6875,-1.125 -0.609375,0 -1.328125,0.265625 -1.75,1.1875 -0.3125,0.6875 -0.359375,1.46875 -0.359375,2.265625 0,0.75 0.03125,1.640625 0.453125,2.40625 0.421875,0.796875 1.15625,1 1.640625,1 0.53125,0 1.296875,-0.203125 1.734375,-1.15625 0.3125,-0.6875 0.359375,-1.46875 0.359375,-2.25 z M 2.484375,0 C 2.09375,0 1.5,-0.25 1.328125,-1.203125 1.21875,-1.796875 1.21875,-2.71875 1.21875,-3.3125 c 0,-0.640625 0,-1.296875 0.078125,-1.828125 0.1875,-1.1875 0.9375,-1.28125 1.1875,-1.28125 0.328125,0 0.984375,0.1875 1.171875,1.171875 0.109375,0.5625 0.109375,1.3125 0.109375,1.9375 0,0.75 0,1.421875 -0.109375,2.0625 C 3.5,-0.296875 2.9375,0 2.484375,0 Z m 0,0"
             style="stroke:none;stroke-width:0"
             inkscape:connector-curvature="0" />
        </g>
      </g>
    </g>
    <g
       style="fill:#b3b3b3"
       transform="matrix(0.69394406,-4.580166e-7,0,0.59893427,-48.973783,67.272981)"
       ns1:version="0.9.1"
       ns1:texconverter="pdflatex"
       ns1:pdfconverter="pdf2svg"
       ns1:text="0"
       ns1:preamble="/home/tim/.config/inkscape/extensions/textext/default_packages.tex"
       ns1:scale="1.67984096284"
       ns1:alignment="middle center"
       ns1:jacobian_sqrt="0.59261"
       id="g1480">
      <g
         id="g1478">
        <g
           style="fill:#000000;fill-opacity:1"
           id="g1476">
          <path
             inkscape:connector-curvature="0"
             style="stroke:none;stroke-width:0"
             d="m 4.578125,-3.1875 c 0,-0.796875 -0.046875,-1.59375 -0.390625,-2.328125 -0.453125,-0.96875 -1.28125,-1.125 -1.6875,-1.125 -0.609375,0 -1.328125,0.265625 -1.75,1.1875 -0.3125,0.6875 -0.359375,1.46875 -0.359375,2.265625 0,0.75 0.03125,1.640625 0.453125,2.40625 0.421875,0.796875 1.15625,1 1.640625,1 0.53125,0 1.296875,-0.203125 1.734375,-1.15625 0.3125,-0.6875 0.359375,-1.46875 0.359375,-2.25 z M 2.484375,0 C 2.09375,0 1.5,-0.25 1.328125,-1.203125 1.21875,-1.796875 1.21875,-2.71875 1.21875,-3.3125 c 0,-0.640625 0,-1.296875 0.078125,-1.828125 0.1875,-1.1875 0.9375,-1.28125 1.1875,-1.28125 0.328125,0 0.984375,0.1875 1.171875,1.171875 0.109375,0.5625 0.109375,1.3125 0.109375,1.9375 0,0.75 0,1.421875 -0.109375,2.0625 C 3.5,-0.296875 2.9375,0 2.484375,0 Z m 0,0"
             transform="translate(148.712,134.765)"
             id="path1474" />
        </g>
      </g>
    </g>
    <g
       transform="matrix(0.69394406,-4.580166e-7,0,0.59893427,-14.906255,62.346657)"
       ns1:version="0.9.1"
       ns1:texconverter="pdflatex"
       ns1:pdfconverter="pdf2svg"
       ns1:text="2"
       ns1:preamble="/home/tim/.config/inkscape/extensions/textext/default_packages.tex"
       ns1:scale="1.67984096284"
       ns1:alignment="middle center"
       inkscapeversion="0.92.4"
       ns1:jacobian_sqrt="0.59261"
       style="fill:#000000"
       id="g786">
      <g
         id="g784"
         style="fill:#000000">
        <g
           style="fill:#000000;fill-opacity:1"
           id="g782">
          <path
             inkscape:connector-curvature="0"
             style="fill:#000000;stroke:none;stroke-width:0"
             d="m 1.265625,-0.765625 1.0625,-1.03125 c 1.546875,-1.375 2.140625,-1.90625 2.140625,-2.90625 0,-1.140625 -0.890625,-1.9375 -2.109375,-1.9375 -1.125,0 -1.859375,0.921875 -1.859375,1.8125 0,0.546875 0.5,0.546875 0.53125,0.546875 0.171875,0 0.515625,-0.109375 0.515625,-0.53125 0,-0.25 -0.1875,-0.515625 -0.53125,-0.515625 -0.078125,0 -0.09375,0 -0.125,0.015625 0.21875,-0.65625 0.765625,-1.015625 1.34375,-1.015625 0.90625,0 1.328125,0.8125 1.328125,1.625 C 3.5625,-3.90625 3.078125,-3.125 2.515625,-2.5 l -1.90625,2.125 C 0.5,-0.265625 0.5,-0.234375 0.5,0 H 4.203125 L 4.46875,-1.734375 H 4.234375 C 4.171875,-1.4375 4.109375,-1 4,-0.84375 3.9375,-0.765625 3.28125,-0.765625 3.0625,-0.765625 Z m 0,0"
             transform="translate(148.712,134.765)"
             id="path780" />
        </g>
      </g>
    </g>
    <path
       inkscape:connector-curvature="0"
       id="path630"
       d="m 53.294519,133.58884 20.064265,-1e-5 v 20.06428 l -20.064265,-1e-5 z"
       style="opacity:1;vector-effect:none;fill:none;fill-opacity:1;stroke:#000000;stroke-width:0.42137432;stroke-linecap:butt;stroke-linejoin:miter;stroke-miterlimit:4;stroke-dasharray:none;stroke-dashoffset:0;stroke-opacity:1" />
    <g
       id="g612"
       transform="translate(-5.7468272,4.276321)">
      <path
         inkscape:connector-curvature="0"
         id="path586"
         d="M 98.272144,144.36072 V 134.32858"
         style="opacity:1;vector-effect:none;fill:none;fill-opacity:1;stroke:#999999;stroke-width:0.26499999;stroke-linecap:butt;stroke-linejoin:miter;stroke-miterlimit:4;stroke-dasharray:0.52999997, 0.52999997;stroke-dashoffset:0;stroke-opacity:1" />
      <path
         inkscape:connector-curvature="0"
         id="path588"
         d="M 93.256075,139.34465 H 103.28821"
         style="opacity:1;vector-effect:none;fill:none;fill-opacity:1;stroke:#999999;stroke-width:0.26499999;stroke-linecap:butt;stroke-linejoin:miter;stroke-miterlimit:4;stroke-dasharray:0.52999997, 0.52999997;stroke-dashoffset:0;stroke-opacity:1" />
      <path
         inkscape:connector-curvature="0"
         id="path811"
         d="m 93.256074,134.32858 v 10.03213 h 10.032136 v -10.03213 z"
         style="opacity:1;vector-effect:none;fill:none;fill-opacity:1;stroke:#000000;stroke-width:0.42137432;stroke-linecap:butt;stroke-linejoin:miter;stroke-miterlimit:4;stroke-dasharray:none;stroke-dashoffset:0;stroke-opacity:1" />
    </g>
    <g
       id="g1249"
       transform="translate(57.93067,-27.461944)">
      <g
         transform="matrix(0.69394406,-4.580166e-7,0,0.59893427,-14.939664,94.819905)"
         ns1:version="0.9.1"
         ns1:texconverter="pdflatex"
         ns1:pdfconverter="pdf2svg"
         ns1:text="2"
         ns1:preamble="/home/tim/.config/inkscape/extensions/textext/default_packages.tex"
         ns1:scale="1.67984096284"
         ns1:alignment="middle center"
         inkscapeversion="0.92.4"
         ns1:jacobian_sqrt="0.59261"
         style="fill:#000000"
         id="g898">
        <g
           id="g896"
           style="fill:#000000">
          <g
             style="fill:#000000;fill-opacity:1"
             id="g894">
            <path
               inkscape:connector-curvature="0"
               style="fill:#000000;stroke:none;stroke-width:0"
               d="m 1.265625,-0.765625 1.0625,-1.03125 c 1.546875,-1.375 2.140625,-1.90625 2.140625,-2.90625 0,-1.140625 -0.890625,-1.9375 -2.109375,-1.9375 -1.125,0 -1.859375,0.921875 -1.859375,1.8125 0,0.546875 0.5,0.546875 0.53125,0.546875 0.171875,0 0.515625,-0.109375 0.515625,-0.53125 0,-0.25 -0.1875,-0.515625 -0.53125,-0.515625 -0.078125,0 -0.09375,0 -0.125,0.015625 0.21875,-0.65625 0.765625,-1.015625 1.34375,-1.015625 0.90625,0 1.328125,0.8125 1.328125,1.625 C 3.5625,-3.90625 3.078125,-3.125 2.515625,-2.5 l -1.90625,2.125 C 0.5,-0.265625 0.5,-0.234375 0.5,0 H 4.203125 L 4.46875,-1.734375 H 4.234375 C 4.171875,-1.4375 4.109375,-1 4,-0.84375 3.9375,-0.765625 3.28125,-0.765625 3.0625,-0.765625 Z m 0,0"
               transform="translate(148.712,134.765)"
               id="path892" />
          </g>
        </g>
      </g>
      <g
         transform="translate(0,4.7924163)"
         id="g924">
        <path
           style="opacity:1;vector-effect:none;fill:#ff5555;fill-opacity:1;stroke:none;stroke-width:0.26458332px;stroke-linecap:butt;stroke-linejoin:miter;stroke-miterlimit:4;stroke-dasharray:none;stroke-dashoffset:0;stroke-opacity:1"
           d="m 58.310583,161.18441 v 5.01607 h 5.016069 v 10.03213 h 5.016066 v -10.03213 h 5.016066 v -5.01607 H 58.310583"
           id="path800"
           inkscape:connector-curvature="0" />
        <g
           transform="translate(28.725457,-35.810952)"
           id="g816"
           style="fill:#b3b3b3">
          <path
             sodipodi:nodetypes="cc"
             inkscape:connector-curvature="0"
             id="path802"
             d="m 39.617261,196.99536 v 20.06427"
             style="opacity:1;vector-effect:none;fill:none;fill-opacity:1;stroke:#999999;stroke-width:0.26499999;stroke-linecap:butt;stroke-linejoin:miter;stroke-miterlimit:4;stroke-dasharray:0.52999997, 0.52999997;stroke-dashoffset:0;stroke-opacity:1" />
          <path
             inkscape:connector-curvature="0"
             id="path804"
             d="m 34.601195,196.99536 v 20.06427"
             style="opacity:1;vector-effect:none;fill:none;fill-opacity:1;stroke:#999999;stroke-width:0.26499999;stroke-linecap:butt;stroke-linejoin:miter;stroke-miterlimit:4;stroke-dasharray:0.52999997, 0.52999997;stroke-dashoffset:0;stroke-opacity:1" />
          <path
             sodipodi:nodetypes="cc"
             inkscape:connector-curvature="0"
             id="path806"
             d="m 29.585126,196.99536 v 20.06427"
             style="opacity:1;vector-effect:none;fill:none;fill-opacity:1;stroke:#999999;stroke-width:0.26499999;stroke-linecap:butt;stroke-linejoin:miter;stroke-miterlimit:4;stroke-dasharray:0.52999997, 0.52999997;stroke-dashoffset:0;stroke-opacity:1" />
          <g
             transform="rotate(90,34.601194,207.0275)"
             id="g814">
            <path
               sodipodi:nodetypes="cc"
               inkscape:connector-curvature="0"
               id="path808"
               d="m 39.617261,196.99536 v 20.06427"
               style="opacity:1;vector-effect:none;fill:none;fill-opacity:1;stroke:#999999;stroke-width:0.26499999;stroke-linecap:butt;stroke-linejoin:miter;stroke-miterlimit:4;stroke-dasharray:0.52999997, 0.52999997;stroke-dashoffset:0;stroke-opacity:1" />
            <path
               inkscape:connector-curvature="0"
               id="path810"
               d="m 34.601195,196.99536 v 20.06427"
               style="opacity:1;vector-effect:none;fill:none;fill-opacity:1;stroke:#999999;stroke-width:0.26499999;stroke-linecap:butt;stroke-linejoin:miter;stroke-miterlimit:4;stroke-dasharray:0.52999997, 0.52999997;stroke-dashoffset:0;stroke-opacity:1" />
            <path
               sodipodi:nodetypes="cc"
               inkscape:connector-curvature="0"
               id="path812"
               d="m 29.585126,196.99536 v 20.06427"
               style="opacity:1;vector-effect:none;fill:none;fill-opacity:1;stroke:#999999;stroke-width:0.26499999;stroke-linecap:butt;stroke-linejoin:miter;stroke-miterlimit:4;stroke-dasharray:0.52999997, 0.52999997;stroke-dashoffset:0;stroke-opacity:1" />
          </g>
        </g>
        <path
           style="opacity:1;vector-effect:none;fill:none;fill-opacity:1;stroke:#000000;stroke-width:0.42137432;stroke-linecap:butt;stroke-linejoin:miter;stroke-miterlimit:4;stroke-dasharray:none;stroke-dashoffset:0;stroke-opacity:1"
           d="m 53.294519,161.18442 20.064265,-10e-6 v 20.06428 l -20.064265,-1e-5 z"
           id="path900"
           inkscape:connector-curvature="0" />
        <g
           transform="translate(-5.7468272,31.8719)"
           id="g908">
          <path
             style="opacity:1;vector-effect:none;fill:none;fill-opacity:1;stroke:#999999;stroke-width:0.26499999;stroke-linecap:butt;stroke-linejoin:miter;stroke-miterlimit:4;stroke-dasharray:0.52999997, 0.52999997;stroke-dashoffset:0;stroke-opacity:1"
             d="M 98.272144,144.36072 V 134.32858"
             id="path902"
             inkscape:connector-curvature="0" />
          <path
             style="opacity:1;vector-effect:none;fill:none;fill-opacity:1;stroke:#999999;stroke-width:0.26499999;stroke-linecap:butt;stroke-linejoin:miter;stroke-miterlimit:4;stroke-dasharray:0.52999997, 0.52999997;stroke-dashoffset:0;stroke-opacity:1"
             d="M 93.256075,139.34465 H 103.28821"
             id="path904"
             inkscape:connector-curvature="0" />
          <path
             style="opacity:1;vector-effect:none;fill:none;fill-opacity:1;stroke:#000000;stroke-width:0.42137432;stroke-linecap:butt;stroke-linejoin:miter;stroke-miterlimit:4;stroke-dasharray:none;stroke-dashoffset:0;stroke-opacity:1"
             d="m 93.256074,134.32858 v 10.03213 h 10.032136 v -10.03213 z"
             id="path906"
             inkscape:connector-curvature="0" />
        </g>
      </g>
      <g
         transform="translate(5.016064,4.7924138)"
         id="g1045">
        <path
           style="fill:none;stroke:#000000;stroke-width:0.28783613px;stroke-linecap:butt;stroke-linejoin:miter;stroke-opacity:1"
           d="m 53.294519,161.18442 v 15.0482 h 15.048197 v -15.04001 z"
           id="path818"
           inkscape:connector-curvature="0" />
        <g
           inkscape:transform-center-y="-2.2086943"
           inkscape:transform-center-x="-4.1988485"
           transform="matrix(0.69394435,0,0,0.59893453,-49.012172,84.9159)"
           ns1:version="0.9.1"
           ns1:texconverter="pdflatex"
           ns1:pdfconverter="pdf2svg"
           ns1:text="1"
           ns1:preamble="/home/tim/.config/inkscape/extensions/textext/default_packages.tex"
           ns1:scale="2.08390219912"
           ns1:alignment="middle center"
           ns1:jacobian_sqrt="0.735154"
           id="g826"
           style="fill:#b3b3b3">
          <g
             id="g824">
            <g
               style="fill:#000000;fill-opacity:1"
               id="g822">
              <path
                 inkscape:connector-curvature="0"
                 style="stroke:none;stroke-width:0"
                 d="m 2.9375,-6.375 c 0,-0.25 0,-0.265625 -0.234375,-0.265625 C 2.078125,-6 1.203125,-6 0.890625,-6 v 0.3125 c 0.203125,0 0.78125,0 1.296875,-0.265625 v 5.171875 c 0,0.359375 -0.03125,0.46875 -0.921875,0.46875 h -0.3125 V 0 c 0.34375,-0.03125 1.203125,-0.03125 1.609375,-0.03125 0.390625,0 1.265625,0 1.609375,0.03125 v -0.3125 h -0.3125 c -0.90625,0 -0.921875,-0.109375 -0.921875,-0.46875 z m 0,0"
                 transform="translate(148.712,134.765)"
                 id="path820" />
            </g>
          </g>
        </g>
        <g
           id="g834"
           ns1:jacobian_sqrt="0.735154"
           ns1:alignment="middle center"
           ns1:scale="2.08390219912"
           ns1:preamble="/home/tim/.config/inkscape/extensions/textext/default_packages.tex"
           ns1:text="1"
           ns1:pdfconverter="pdf2svg"
           ns1:texconverter="pdflatex"
           ns1:version="0.9.1"
           transform="matrix(0.69394435,0,0,0.59893453,-44.161112,85.037167)"
           inkscape:transform-center-x="-4.1988485"
           inkscape:transform-center-y="-2.2086943"
           style="fill:#b3b3b3">
          <g
             id="g832">
            <g
               id="g830"
               style="fill:#000000;fill-opacity:1">
              <path
                 id="path828"
                 transform="translate(148.712,134.765)"
                 d="m 2.9375,-6.375 c 0,-0.25 0,-0.265625 -0.234375,-0.265625 C 2.078125,-6 1.203125,-6 0.890625,-6 v 0.3125 c 0.203125,0 0.78125,0 1.296875,-0.265625 v 5.171875 c 0,0.359375 -0.03125,0.46875 -0.921875,0.46875 h -0.3125 V 0 c 0.34375,-0.03125 1.203125,-0.03125 1.609375,-0.03125 0.390625,0 1.265625,0 1.609375,0.03125 v -0.3125 h -0.3125 c -0.90625,0 -0.921875,-0.109375 -0.921875,-0.46875 z m 0,0"
                 style="stroke:none;stroke-width:0"
                 inkscape:connector-curvature="0" />
            </g>
          </g>
        </g>
        <g
           inkscape:transform-center-y="-2.2086943"
           inkscape:transform-center-x="-4.1988485"
           transform="matrix(0.69394435,0,0,0.59893453,-39.075323,85.005274)"
           ns1:version="0.9.1"
           ns1:texconverter="pdflatex"
           ns1:pdfconverter="pdf2svg"
           ns1:text="1"
           ns1:preamble="/home/tim/.config/inkscape/extensions/textext/default_packages.tex"
           ns1:scale="2.08390219912"
           ns1:alignment="middle center"
           ns1:jacobian_sqrt="0.735154"
           id="g842"
           style="fill:#b3b3b3">
          <g
             id="g840">
            <g
               style="fill:#000000;fill-opacity:1"
               id="g838">
              <path
                 inkscape:connector-curvature="0"
                 style="stroke:none;stroke-width:0"
                 d="m 2.9375,-6.375 c 0,-0.25 0,-0.265625 -0.234375,-0.265625 C 2.078125,-6 1.203125,-6 0.890625,-6 v 0.3125 c 0.203125,0 0.78125,0 1.296875,-0.265625 v 5.171875 c 0,0.359375 -0.03125,0.46875 -0.921875,0.46875 h -0.3125 V 0 c 0.34375,-0.03125 1.203125,-0.03125 1.609375,-0.03125 0.390625,0 1.265625,0 1.609375,0.03125 v -0.3125 h -0.3125 c -0.90625,0 -0.921875,-0.109375 -0.921875,-0.46875 z m 0,0"
                 transform="translate(148.712,134.765)"
                 id="path836" />
            </g>
          </g>
        </g>
        <g
           id="g850"
           ns1:jacobian_sqrt="0.735154"
           ns1:alignment="middle center"
           ns1:scale="2.08390219912"
           ns1:preamble="/home/tim/.config/inkscape/extensions/textext/default_packages.tex"
           ns1:text="1"
           ns1:pdfconverter="pdf2svg"
           ns1:texconverter="pdflatex"
           ns1:version="0.9.1"
           transform="matrix(0.69394435,0,0,0.59893453,-43.926383,90.15139)"
           inkscape:transform-center-x="-4.1988485"
           inkscape:transform-center-y="-2.2086943"
           style="fill:#b3b3b3">
          <g
             id="g848">
            <g
               id="g846"
               style="fill:#000000;fill-opacity:1">
              <path
                 id="path844"
                 transform="translate(148.712,134.765)"
                 d="m 2.9375,-6.375 c 0,-0.25 0,-0.265625 -0.234375,-0.265625 C 2.078125,-6 1.203125,-6 0.890625,-6 v 0.3125 c 0.203125,0 0.78125,0 1.296875,-0.265625 v 5.171875 c 0,0.359375 -0.03125,0.46875 -0.921875,0.46875 h -0.3125 V 0 c 0.34375,-0.03125 1.203125,-0.03125 1.609375,-0.03125 0.390625,0 1.265625,0 1.609375,0.03125 v -0.3125 h -0.3125 c -0.90625,0 -0.921875,-0.109375 -0.921875,-0.46875 z m 0,0"
                 style="stroke:none;stroke-width:0"
                 inkscape:connector-curvature="0" />
            </g>
          </g>
        </g>
        <g
           inkscape:transform-center-y="-2.2086943"
           inkscape:transform-center-x="-4.1988485"
           transform="matrix(0.69394435,0,0,0.59893453,-43.926383,94.946048)"
           ns1:version="0.9.1"
           ns1:texconverter="pdflatex"
           ns1:pdfconverter="pdf2svg"
           ns1:text="1"
           ns1:preamble="/home/tim/.config/inkscape/extensions/textext/default_packages.tex"
           ns1:scale="2.08390219912"
           ns1:alignment="middle center"
           ns1:jacobian_sqrt="0.735154"
           id="g858"
           style="fill:#b3b3b3">
          <g
             id="g856">
            <g
               style="fill:#000000;fill-opacity:1"
               id="g854">
              <path
                 inkscape:connector-curvature="0"
                 style="stroke:none;stroke-width:0"
                 d="m 2.9375,-6.375 c 0,-0.25 0,-0.265625 -0.234375,-0.265625 C 2.078125,-6 1.203125,-6 0.890625,-6 v 0.3125 c 0.203125,0 0.78125,0 1.296875,-0.265625 v 5.171875 c 0,0.359375 -0.03125,0.46875 -0.921875,0.46875 h -0.3125 V 0 c 0.34375,-0.03125 1.203125,-0.03125 1.609375,-0.03125 0.390625,0 1.265625,0 1.609375,0.03125 v -0.3125 h -0.3125 c -0.90625,0 -0.921875,-0.109375 -0.921875,-0.46875 z m 0,0"
                 transform="translate(148.712,134.765)"
                 id="path852" />
            </g>
          </g>
        </g>
        <g
           transform="matrix(0.69394406,-4.580166e-7,0,0.59893427,-39.042751,89.884973)"
           ns1:version="0.9.1"
           ns1:texconverter="pdflatex"
           ns1:pdfconverter="pdf2svg"
           ns1:text="0"
           ns1:preamble="/home/tim/.config/inkscape/extensions/textext/default_packages.tex"
           ns1:scale="1.67984096284"
           ns1:alignment="middle center"
           ns1:jacobian_sqrt="0.59261"
           id="g866"
           style="fill:#b3b3b3">
          <g
             id="g864">
            <g
               style="fill:#000000;fill-opacity:1"
               id="g862">
              <path
                 inkscape:connector-curvature="0"
                 style="stroke:none;stroke-width:0"
                 d="m 4.578125,-3.1875 c 0,-0.796875 -0.046875,-1.59375 -0.390625,-2.328125 -0.453125,-0.96875 -1.28125,-1.125 -1.6875,-1.125 -0.609375,0 -1.328125,0.265625 -1.75,1.1875 -0.3125,0.6875 -0.359375,1.46875 -0.359375,2.265625 0,0.75 0.03125,1.640625 0.453125,2.40625 0.421875,0.796875 1.15625,1 1.640625,1 0.53125,0 1.296875,-0.203125 1.734375,-1.15625 0.3125,-0.6875 0.359375,-1.46875 0.359375,-2.25 z M 2.484375,0 C 2.09375,0 1.5,-0.25 1.328125,-1.203125 1.21875,-1.796875 1.21875,-2.71875 1.21875,-3.3125 c 0,-0.640625 0,-1.296875 0.078125,-1.828125 0.1875,-1.1875 0.9375,-1.28125 1.1875,-1.28125 0.328125,0 0.984375,0.1875 1.171875,1.171875 0.109375,0.5625 0.109375,1.3125 0.109375,1.9375 0,0.75 0,1.421875 -0.109375,2.0625 C 3.5,-0.296875 2.9375,0 2.484375,0 Z m 0,0"
                 transform="translate(148.712,134.765)"
                 id="path860" />
            </g>
          </g>
        </g>
        <g
           id="g874"
           ns1:jacobian_sqrt="0.59261"
           ns1:alignment="middle center"
           ns1:scale="1.67984096284"
           ns1:preamble="/home/tim/.config/inkscape/extensions/textext/default_packages.tex"
           ns1:text="0"
           ns1:pdfconverter="pdf2svg"
           ns1:texconverter="pdflatex"
           ns1:version="0.9.1"
           transform="matrix(0.69394406,-4.580166e-7,0,0.59893427,-39.042751,94.922728)"
           style="fill:#b3b3b3">
          <g
             id="g872">
            <g
               id="g870"
               style="fill:#000000;fill-opacity:1">
              <path
                 id="path868"
                 transform="translate(148.712,134.765)"
                 d="m 4.578125,-3.1875 c 0,-0.796875 -0.046875,-1.59375 -0.390625,-2.328125 -0.453125,-0.96875 -1.28125,-1.125 -1.6875,-1.125 -0.609375,0 -1.328125,0.265625 -1.75,1.1875 -0.3125,0.6875 -0.359375,1.46875 -0.359375,2.265625 0,0.75 0.03125,1.640625 0.453125,2.40625 0.421875,0.796875 1.15625,1 1.640625,1 0.53125,0 1.296875,-0.203125 1.734375,-1.15625 0.3125,-0.6875 0.359375,-1.46875 0.359375,-2.25 z M 2.484375,0 C 2.09375,0 1.5,-0.25 1.328125,-1.203125 1.21875,-1.796875 1.21875,-2.71875 1.21875,-3.3125 c 0,-0.640625 0,-1.296875 0.078125,-1.828125 0.1875,-1.1875 0.9375,-1.28125 1.1875,-1.28125 0.328125,0 0.984375,0.1875 1.171875,1.171875 0.109375,0.5625 0.109375,1.3125 0.109375,1.9375 0,0.75 0,1.421875 -0.109375,2.0625 C 3.5,-0.296875 2.9375,0 2.484375,0 Z m 0,0"
                 style="stroke:none;stroke-width:0"
                 inkscape:connector-curvature="0" />
            </g>
          </g>
        </g>
        <g
           transform="matrix(0.69394406,-4.580166e-7,0,0.59893427,-48.973783,89.902431)"
           ns1:version="0.9.1"
           ns1:texconverter="pdflatex"
           ns1:pdfconverter="pdf2svg"
           ns1:text="0"
           ns1:preamble="/home/tim/.config/inkscape/extensions/textext/default_packages.tex"
           ns1:scale="1.67984096284"
           ns1:alignment="middle center"
           ns1:jacobian_sqrt="0.59261"
           id="g882"
           style="fill:#b3b3b3">
          <g
             id="g880">
            <g
               style="fill:#000000;fill-opacity:1"
               id="g878">
              <path
                 inkscape:connector-curvature="0"
                 style="stroke:none;stroke-width:0"
                 d="m 4.578125,-3.1875 c 0,-0.796875 -0.046875,-1.59375 -0.390625,-2.328125 -0.453125,-0.96875 -1.28125,-1.125 -1.6875,-1.125 -0.609375,0 -1.328125,0.265625 -1.75,1.1875 -0.3125,0.6875 -0.359375,1.46875 -0.359375,2.265625 0,0.75 0.03125,1.640625 0.453125,2.40625 0.421875,0.796875 1.15625,1 1.640625,1 0.53125,0 1.296875,-0.203125 1.734375,-1.15625 0.3125,-0.6875 0.359375,-1.46875 0.359375,-2.25 z M 2.484375,0 C 2.09375,0 1.5,-0.25 1.328125,-1.203125 1.21875,-1.796875 1.21875,-2.71875 1.21875,-3.3125 c 0,-0.640625 0,-1.296875 0.078125,-1.828125 0.1875,-1.1875 0.9375,-1.28125 1.1875,-1.28125 0.328125,0 0.984375,0.1875 1.171875,1.171875 0.109375,0.5625 0.109375,1.3125 0.109375,1.9375 0,0.75 0,1.421875 -0.109375,2.0625 C 3.5,-0.296875 2.9375,0 2.484375,0 Z m 0,0"
                 transform="translate(148.712,134.765)"
                 id="path876" />
            </g>
          </g>
        </g>
        <g
           id="g890"
           ns1:jacobian_sqrt="0.59261"
           ns1:alignment="middle center"
           ns1:scale="1.67984096284"
           ns1:preamble="/home/tim/.config/inkscape/extensions/textext/default_packages.tex"
           ns1:text="0"
           ns1:pdfconverter="pdf2svg"
           ns1:texconverter="pdflatex"
           ns1:version="0.9.1"
           transform="matrix(0.69394406,-4.580166e-7,0,0.59893427,-48.973783,94.86856)"
           style="fill:#b3b3b3">
          <g
             id="g888">
            <g
               id="g886"
               style="fill:#000000;fill-opacity:1">
              <path
                 id="path884"
                 transform="translate(148.712,134.765)"
                 d="m 4.578125,-3.1875 c 0,-0.796875 -0.046875,-1.59375 -0.390625,-2.328125 -0.453125,-0.96875 -1.28125,-1.125 -1.6875,-1.125 -0.609375,0 -1.328125,0.265625 -1.75,1.1875 -0.3125,0.6875 -0.359375,1.46875 -0.359375,2.265625 0,0.75 0.03125,1.640625 0.453125,2.40625 0.421875,0.796875 1.15625,1 1.640625,1 0.53125,0 1.296875,-0.203125 1.734375,-1.15625 0.3125,-0.6875 0.359375,-1.46875 0.359375,-2.25 z M 2.484375,0 C 2.09375,0 1.5,-0.25 1.328125,-1.203125 1.21875,-1.796875 1.21875,-2.71875 1.21875,-3.3125 c 0,-0.640625 0,-1.296875 0.078125,-1.828125 0.1875,-1.1875 0.9375,-1.28125 1.1875,-1.28125 0.328125,0 0.984375,0.1875 1.171875,1.171875 0.109375,0.5625 0.109375,1.3125 0.109375,1.9375 0,0.75 0,1.421875 -0.109375,2.0625 C 3.5,-0.296875 2.9375,0 2.484375,0 Z m 0,0"
                 style="stroke:none;stroke-width:0"
                 inkscape:connector-curvature="0" />
            </g>
          </g>
        </g>
      </g>
      <g
         transform="matrix(0.693944,0,0,0.598934,-9.844829,94.754363)"
         ns1:version="0.9.1"
         ns1:texconverter="pdflatex"
         ns1:pdfconverter="pdf2svg"
         ns1:text="5"
         ns1:preamble="/home/tim/.config/inkscape/extensions/textext/default_packages.tex"
         ns1:scale="1.82747314905"
         ns1:alignment="middle center"
         inkscapeversion="0.92.4"
         ns1:jacobian_sqrt="0.644691132013"
         style="fill:#000000"
         id="g1180">
        <g
           id="g1178"
           style="fill:#000000">
          <g
             style="fill:#000000;fill-opacity:1"
             id="g1176">
            <path
               style="fill:#000000;stroke:none;stroke-width:0"
               d="m 4.46875,-2 c 0,-1.1875 -0.8125,-2.1875 -1.890625,-2.1875 -0.46875,0 -0.90625,0.15625 -1.265625,0.515625 V -5.625 c 0.203125,0.0625 0.53125,0.125 0.84375,0.125 1.234375,0 1.9375,-0.90625 1.9375,-1.03125 0,-0.0625 -0.03125,-0.109375 -0.109375,-0.109375 0,0 -0.03125,0 -0.078125,0.03125 C 3.703125,-6.515625 3.21875,-6.3125 2.546875,-6.3125 2.15625,-6.3125 1.6875,-6.390625 1.21875,-6.59375 1.140625,-6.625 1.125,-6.625 1.109375,-6.625 1,-6.625 1,-6.546875 1,-6.390625 V -3.4375 c 0,0.171875 0,0.25 0.140625,0.25 0.078125,0 0.09375,-0.015625 0.140625,-0.078125 C 1.390625,-3.421875 1.75,-3.96875 2.5625,-3.96875 c 0.515625,0 0.765625,0.453125 0.84375,0.640625 0.15625,0.375 0.1875,0.75 0.1875,1.25 0,0.359375 0,0.953125 -0.25,1.375 C 3.109375,-0.3125 2.734375,-0.0625 2.28125,-0.0625 c -0.71875,0 -1.296875,-0.53125 -1.46875,-1.109375 0.03125,0 0.0625,0.015625 0.171875,0.015625 0.328125,0 0.5,-0.25 0.5,-0.484375 0,-0.25 -0.171875,-0.5 -0.5,-0.5 C 0.84375,-2.140625 0.5,-2.0625 0.5,-1.609375 0.5,-0.75 1.1875,0.21875 2.296875,0.21875 3.453125,0.21875 4.46875,-0.734375 4.46875,-2 Z m 0,0"
               transform="translate(148.712,134.765)"
               id="path1174"
               inkscape:connector-curvature="0" />
          </g>
        </g>
      </g>
    </g>
  </g>
</svg>
