<?xml version="1.0" encoding="UTF-8" standalone="no"?>
<!-- Created with Inkscape (http://www.inkscape.org/) -->

<svg
   xmlns:ns1="http://www.iki.fi/pav/software/textext/"
   xmlns:dc="http://purl.org/dc/elements/1.1/"
   xmlns:cc="http://creativecommons.org/ns#"
   xmlns:rdf="http://www.w3.org/1999/02/22-rdf-syntax-ns#"
   xmlns:svg="http://www.w3.org/2000/svg"
   xmlns="http://www.w3.org/2000/svg"
   xmlns:sodipodi="http://sodipodi.sourceforge.net/DTD/sodipodi-0.dtd"
   xmlns:inkscape="http://www.inkscape.org/namespaces/inkscape"
   width="210mm"
   height="297mm"
   viewBox="0 0 210 297"
   version="1.1"
   id="svg728"
   sodipodi:docname="bg_convolution_example.svg"
   inkscape:version="0.92.4 5da689c313, 2019-01-14">
  <defs
     id="defs722">
    <marker
       inkscape:isstock="true"
       style="overflow:visible"
       id="marker5218"
       refX="0"
       refY="0"
       orient="auto"
       inkscape:stockid="Arrow1Send">
      <path
         inkscape:connector-curvature="0"
         transform="matrix(-0.2,0,0,-0.2,-1.2,0)"
         style="fill:#333333;fill-opacity:1;fill-rule:evenodd;stroke:#333333;stroke-width:1.00000003pt;stroke-opacity:1"
         d="M 0,0 5,-5 -12.5,0 5,5 Z"
         id="path5216" />
    </marker>
    <marker
       inkscape:stockid="Arrow1Send"
       orient="auto"
       refY="0"
       refX="0"
       id="Arrow1Send"
       style="overflow:visible"
       inkscape:isstock="true">
      <path
         inkscape:connector-curvature="0"
         id="path1676"
         d="M 0,0 5,-5 -12.5,0 5,5 Z"
         style="fill:#000000;fill-opacity:1;fill-rule:evenodd;stroke:#000000;stroke-width:1.00000003pt;stroke-opacity:1"
         transform="matrix(-0.2,0,0,-0.2,-1.2,0)" />
    </marker>
  </defs>
  <sodipodi:namedview
     id="base"
     pagecolor="#ffffff"
     bordercolor="#666666"
     borderopacity="1.0"
     inkscape:pageopacity="0.0"
     inkscape:pageshadow="2"
     inkscape:zoom="7.919596"
     inkscape:cx="278.14808"
     inkscape:cy="573.39176"
     inkscape:document-units="mm"
     inkscape:current-layer="g227"
     showgrid="false"
     inkscape:snap-object-midpoints="true"
     inkscape:snap-intersection-paths="true"
     inkscape:window-width="1920"
     inkscape:window-height="1052"
     inkscape:window-x="0"
     inkscape:window-y="28"
     inkscape:window-maximized="1"
     inkscape:snap-global="true" />
  <metadata
     id="metadata725">
    <rdf:RDF>
      <cc:Work
         rdf:about="">
        <dc:format>image/svg+xml</dc:format>
        <dc:type
           rdf:resource="http://purl.org/dc/dcmitype/StillImage" />
        <dc:title />
      </cc:Work>
    </rdf:RDF>
  </metadata>
  <g
     inkscape:label="Layer 1"
     inkscape:groupmode="layer"
     id="layer1">
    <g
       id="g224">
      <path
         style="opacity:1;vector-effect:none;fill:#ff5555;fill-opacity:1;stroke:none;stroke-width:0.26458332px;stroke-linecap:butt;stroke-linejoin:miter;stroke-miterlimit:4;stroke-dasharray:none;stroke-dashoffset:0;stroke-opacity:1"
         d="m 58.310583,133.58883 v 5.01607 h 5.016069 v 10.03213 h 5.016066 V 138.6049 h 5.016066 v -5.01607 H 58.310583"
         id="path2143"
         inkscape:connector-curvature="0" />
      <g
         transform="translate(28.725457,-63.406531)"
         id="g2141"
         style="fill:#b3b3b3">
        <path
           sodipodi:nodetypes="cc"
           inkscape:connector-curvature="0"
           id="path2095"
           d="m 39.617261,196.99536 v 20.06427"
           style="opacity:1;vector-effect:none;fill:none;fill-opacity:1;stroke:#999999;stroke-width:0.26499999;stroke-linecap:butt;stroke-linejoin:miter;stroke-miterlimit:4;stroke-dasharray:0.52999997, 0.52999997;stroke-dashoffset:0;stroke-opacity:1" />
        <path
           inkscape:connector-curvature="0"
           id="path2097"
           d="m 34.601195,196.99536 v 20.06427"
           style="opacity:1;vector-effect:none;fill:none;fill-opacity:1;stroke:#999999;stroke-width:0.26499999;stroke-linecap:butt;stroke-linejoin:miter;stroke-miterlimit:4;stroke-dasharray:0.52999997, 0.52999997;stroke-dashoffset:0;stroke-opacity:1" />
        <path
           sodipodi:nodetypes="cc"
           inkscape:connector-curvature="0"
           id="path2105"
           d="m 29.585126,196.99536 v 20.06427"
           style="opacity:1;vector-effect:none;fill:none;fill-opacity:1;stroke:#999999;stroke-width:0.26499999;stroke-linecap:butt;stroke-linejoin:miter;stroke-miterlimit:4;stroke-dasharray:0.52999997, 0.52999997;stroke-dashoffset:0;stroke-opacity:1" />
        <g
           transform="rotate(90,34.601194,207.0275)"
           id="g2132">
          <path
             sodipodi:nodetypes="cc"
             inkscape:connector-curvature="0"
             id="path2122"
             d="m 39.617261,196.99536 v 20.06427"
             style="opacity:1;vector-effect:none;fill:none;fill-opacity:1;stroke:#999999;stroke-width:0.26499999;stroke-linecap:butt;stroke-linejoin:miter;stroke-miterlimit:4;stroke-dasharray:0.52999997, 0.52999997;stroke-dashoffset:0;stroke-opacity:1" />
          <path
             inkscape:connector-curvature="0"
             id="path2124"
             d="m 34.601195,196.99536 v 20.06427"
             style="opacity:1;vector-effect:none;fill:none;fill-opacity:1;stroke:#999999;stroke-width:0.26499999;stroke-linecap:butt;stroke-linejoin:miter;stroke-miterlimit:4;stroke-dasharray:0.52999997, 0.52999997;stroke-dashoffset:0;stroke-opacity:1" />
          <path
             sodipodi:nodetypes="cc"
             inkscape:connector-curvature="0"
             id="path2127"
             d="m 29.585126,196.99536 v 20.06427"
             style="opacity:1;vector-effect:none;fill:none;fill-opacity:1;stroke:#999999;stroke-width:0.26499999;stroke-linecap:butt;stroke-linejoin:miter;stroke-miterlimit:4;stroke-dasharray:0.52999997, 0.52999997;stroke-dashoffset:0;stroke-opacity:1" />
        </g>
      </g>
      <path
         style="opacity:1;vector-effect:none;fill:none;fill-opacity:1;stroke:#000000;stroke-width:0.42137432;stroke-linecap:butt;stroke-linejoin:miter;stroke-miterlimit:4;stroke-dasharray:none;stroke-dashoffset:0;stroke-opacity:1"
         d="m 53.294519,133.58884 20.064265,-1e-5 v 20.06428 l -20.064265,-1e-5 z"
         id="path630"
         inkscape:connector-curvature="0" />
      <g
         id="g277">
        <g
           id="g227">
          <g
             transform="matrix(0.60801995,0,0,0.60801995,-36.123455,56.213996)"
             ns1:version="0.9.1"
             ns1:texconverter="pdflatex"
             ns1:pdfconverter="pdf2svg"
             ns1:text="1"
             ns1:preamble="/home/tim/.config/inkscape/extensions/textext/default_packages.tex"
             ns1:scale="1.82747314905"
             ns1:alignment="middle center"
             inkscapeversion="0.92.4"
             ns1:jacobian_sqrt="0.644692"
             id="g91">
            <g
               id="surface1">
              <g
                 style="fill:#000000;fill-opacity:1"
                 id="g88">
                <path
                   inkscape:connector-curvature="0"
                   style="stroke:none;stroke-width:0"
                   d="m 2.9375,-6.375 c 0,-0.25 0,-0.265625 -0.234375,-0.265625 C 2.078125,-6 1.203125,-6 0.890625,-6 v 0.3125 c 0.203125,0 0.78125,0 1.296875,-0.265625 v 5.171875 c 0,0.359375 -0.03125,0.46875 -0.921875,0.46875 h -0.3125 V 0 c 0.34375,-0.03125 1.203125,-0.03125 1.609375,-0.03125 0.390625,0 1.265625,0 1.609375,0.03125 v -0.3125 h -0.3125 c -0.90625,0 -0.921875,-0.109375 -0.921875,-0.46875 z m 0,0"
                   transform="translate(148.712,134.765)"
                   id="path86" />
              </g>
            </g>
          </g>
          <g
             id="g105"
             ns1:jacobian_sqrt="0.644692"
             inkscapeversion="0.92.4"
             ns1:alignment="middle center"
             ns1:scale="1.82747314905"
             ns1:preamble="/home/tim/.config/inkscape/extensions/textext/default_packages.tex"
             ns1:text="1"
             ns1:pdfconverter="pdf2svg"
             ns1:texconverter="pdflatex"
             ns1:version="0.9.1"
             transform="matrix(0.60801995,0,0,0.60801995,-31.138894,56.213996)">
            <g
               id="g103">
              <g
                 id="g101"
                 style="fill:#000000;fill-opacity:1">
                <path
                   id="path99"
                   transform="translate(148.712,134.765)"
                   d="m 2.9375,-6.375 c 0,-0.25 0,-0.265625 -0.234375,-0.265625 C 2.078125,-6 1.203125,-6 0.890625,-6 v 0.3125 c 0.203125,0 0.78125,0 1.296875,-0.265625 v 5.171875 c 0,0.359375 -0.03125,0.46875 -0.921875,0.46875 h -0.3125 V 0 c 0.34375,-0.03125 1.203125,-0.03125 1.609375,-0.03125 0.390625,0 1.265625,0 1.609375,0.03125 v -0.3125 h -0.3125 c -0.90625,0 -0.921875,-0.109375 -0.921875,-0.46875 z m 0,0"
                   style="stroke:none;stroke-width:0"
                   inkscape:connector-curvature="0" />
                <path
                   inkscape:connector-curvature="0"
                   style="stroke:none;stroke-width:0"
                   d="m 151.6495,136.51075 c 0,-0.25 0,-0.26563 -0.23438,-0.26563 -0.625,0.64063 -1.5,0.64063 -1.8125,0.64063 v 0.3125 c 0.20313,0 0.78125,0 1.29688,-0.26563 v 5.17188 c 0,0.35937 -0.0312,0.46875 -0.92188,0.46875 h -0.3125 v 0.3125 c 0.34375,-0.0312 1.20313,-0.0312 1.60938,-0.0312 0.39062,0 1.26562,0 1.60937,0.0312 v -0.3125 h -0.3125 c -0.90625,0 -0.92187,-0.10938 -0.92187,-0.46875 z m 0,0"
                   id="path115" />
                <path
                   id="path117"
                   d="m 151.6495,144.74763 c 0,-0.25 0,-0.26563 -0.23438,-0.26563 -0.625,0.64063 -1.5,0.64063 -1.8125,0.64063 v 0.3125 c 0.20313,0 0.78125,0 1.29688,-0.26563 v 5.17188 c 0,0.35937 -0.0312,0.46875 -0.92188,0.46875 h -0.3125 v 0.3125 c 0.34375,-0.0312 1.20313,-0.0312 1.60938,-0.0312 0.39062,0 1.26562,0 1.60937,0.0312 v -0.3125 h -0.3125 c -0.90625,0 -0.92187,-0.10938 -0.92187,-0.46875 z m 0,0"
                   style="stroke:none;stroke-width:0"
                   inkscape:connector-curvature="0" />
              </g>
            </g>
          </g>
          <g
             transform="matrix(0.60801995,0,0,0.60801995,-26.107086,56.213996)"
             ns1:version="0.9.1"
             ns1:texconverter="pdflatex"
             ns1:pdfconverter="pdf2svg"
             ns1:text="1"
             ns1:preamble="/home/tim/.config/inkscape/extensions/textext/default_packages.tex"
             ns1:scale="1.82747314905"
             ns1:alignment="middle center"
             inkscapeversion="0.92.4"
             ns1:jacobian_sqrt="0.644692"
             id="g113">
            <g
               id="g111">
              <g
                 style="fill:#000000;fill-opacity:1"
                 id="g109">
                <path
                   inkscape:connector-curvature="0"
                   style="stroke:none;stroke-width:0"
                   d="m 2.9375,-6.375 c 0,-0.25 0,-0.265625 -0.234375,-0.265625 C 2.078125,-6 1.203125,-6 0.890625,-6 v 0.3125 c 0.203125,0 0.78125,0 1.296875,-0.265625 v 5.171875 c 0,0.359375 -0.03125,0.46875 -0.921875,0.46875 h -0.3125 V 0 c 0.34375,-0.03125 1.203125,-0.03125 1.609375,-0.03125 0.390625,0 1.265625,0 1.609375,0.03125 v -0.3125 h -0.3125 c -0.90625,0 -0.921875,-0.109375 -0.921875,-0.46875 z m 0,0"
                   transform="translate(148.712,134.765)"
                   id="path107" />
              </g>
            </g>
          </g>
          <g
             transform="matrix(0.60802,0,0,0.60802,-36.094962,61.108424)"
             ns1:version="0.9.1"
             ns1:texconverter="pdflatex"
             ns1:pdfconverter="pdf2svg"
             ns1:text="0"
             ns1:preamble="/home/tim/.config/inkscape/extensions/textext/default_packages.tex"
             ns1:scale="1.7235208948"
             ns1:alignment="middle center"
             inkscapeversion="0.92.4"
             ns1:jacobian_sqrt="0.60802"
             id="g165">
            <g
               id="g163">
              <g
                 style="fill:#000000;fill-opacity:1"
                 id="g161">
                <path
                   inkscape:connector-curvature="0"
                   style="stroke:none;stroke-width:0"
                   d="m 4.578125,-3.1875 c 0,-0.796875 -0.046875,-1.59375 -0.390625,-2.328125 -0.453125,-0.96875 -1.28125,-1.125 -1.6875,-1.125 -0.609375,0 -1.328125,0.265625 -1.75,1.1875 -0.3125,0.6875 -0.359375,1.46875 -0.359375,2.265625 0,0.75 0.03125,1.640625 0.453125,2.40625 0.421875,0.796875 1.15625,1 1.640625,1 0.53125,0 1.296875,-0.203125 1.734375,-1.15625 0.3125,-0.6875 0.359375,-1.46875 0.359375,-2.25 z M 2.484375,0 C 2.09375,0 1.5,-0.25 1.328125,-1.203125 1.21875,-1.796875 1.21875,-2.71875 1.21875,-3.3125 c 0,-0.640625 0,-1.296875 0.078125,-1.828125 0.1875,-1.1875 0.9375,-1.28125 1.1875,-1.28125 0.328125,0 0.984375,0.1875 1.171875,1.171875 0.109375,0.5625 0.109375,1.3125 0.109375,1.9375 0,0.75 0,1.421875 -0.109375,2.0625 C 3.5,-0.296875 2.9375,0 2.484375,0 Z m 0,0"
                   transform="translate(148.712,134.765)"
                   id="path159" />
              </g>
            </g>
          </g>
          <g
             id="g179"
             ns1:jacobian_sqrt="0.60802"
             inkscapeversion="0.92.4"
             ns1:alignment="middle center"
             ns1:scale="1.7235208948"
             ns1:preamble="/home/tim/.config/inkscape/extensions/textext/default_packages.tex"
             ns1:text="0"
             ns1:pdfconverter="pdf2svg"
             ns1:texconverter="pdflatex"
             ns1:version="0.9.1"
             transform="matrix(0.60802,0,0,0.60802,-36.094962,66.163856)">
            <g
               id="g177">
              <g
                 id="g175"
                 style="fill:#000000;fill-opacity:1">
                <path
                   id="path173"
                   transform="translate(148.712,134.765)"
                   d="m 4.578125,-3.1875 c 0,-0.796875 -0.046875,-1.59375 -0.390625,-2.328125 -0.453125,-0.96875 -1.28125,-1.125 -1.6875,-1.125 -0.609375,0 -1.328125,0.265625 -1.75,1.1875 -0.3125,0.6875 -0.359375,1.46875 -0.359375,2.265625 0,0.75 0.03125,1.640625 0.453125,2.40625 0.421875,0.796875 1.15625,1 1.640625,1 0.53125,0 1.296875,-0.203125 1.734375,-1.15625 0.3125,-0.6875 0.359375,-1.46875 0.359375,-2.25 z M 2.484375,0 C 2.09375,0 1.5,-0.25 1.328125,-1.203125 1.21875,-1.796875 1.21875,-2.71875 1.21875,-3.3125 c 0,-0.640625 0,-1.296875 0.078125,-1.828125 0.1875,-1.1875 0.9375,-1.28125 1.1875,-1.28125 0.328125,0 0.984375,0.1875 1.171875,1.171875 0.109375,0.5625 0.109375,1.3125 0.109375,1.9375 0,0.75 0,1.421875 -0.109375,2.0625 C 3.5,-0.296875 2.9375,0 2.484375,0 Z m 0,0"
                   style="stroke:none;stroke-width:0"
                   inkscape:connector-curvature="0" />
              </g>
            </g>
          </g>
          <g
             id="g187"
             ns1:jacobian_sqrt="0.60802"
             inkscapeversion="0.92.4"
             ns1:alignment="middle center"
             ns1:scale="1.7235208948"
             ns1:preamble="/home/tim/.config/inkscape/extensions/textext/default_packages.tex"
             ns1:text="0"
             ns1:pdfconverter="pdf2svg"
             ns1:texconverter="pdflatex"
             ns1:version="0.9.1"
             transform="matrix(0.60802,0,0,0.60802,-26.007722,61.108424)">
            <g
               id="g185">
              <g
                 id="g183"
                 style="fill:#000000;fill-opacity:1">
                <path
                   id="path181"
                   transform="translate(148.712,134.765)"
                   d="m 4.578125,-3.1875 c 0,-0.796875 -0.046875,-1.59375 -0.390625,-2.328125 -0.453125,-0.96875 -1.28125,-1.125 -1.6875,-1.125 -0.609375,0 -1.328125,0.265625 -1.75,1.1875 -0.3125,0.6875 -0.359375,1.46875 -0.359375,2.265625 0,0.75 0.03125,1.640625 0.453125,2.40625 0.421875,0.796875 1.15625,1 1.640625,1 0.53125,0 1.296875,-0.203125 1.734375,-1.15625 0.3125,-0.6875 0.359375,-1.46875 0.359375,-2.25 z M 2.484375,0 C 2.09375,0 1.5,-0.25 1.328125,-1.203125 1.21875,-1.796875 1.21875,-2.71875 1.21875,-3.3125 c 0,-0.640625 0,-1.296875 0.078125,-1.828125 0.1875,-1.1875 0.9375,-1.28125 1.1875,-1.28125 0.328125,0 0.984375,0.1875 1.171875,1.171875 0.109375,0.5625 0.109375,1.3125 0.109375,1.9375 0,0.75 0,1.421875 -0.109375,2.0625 C 3.5,-0.296875 2.9375,0 2.484375,0 Z m 0,0"
                   style="stroke:none;stroke-width:0"
                   inkscape:connector-curvature="0" />
              </g>
            </g>
          </g>
          <g
             transform="matrix(0.60802,0,0,0.60802,-26.007722,66.140232)"
             ns1:version="0.9.1"
             ns1:texconverter="pdflatex"
             ns1:pdfconverter="pdf2svg"
             ns1:text="0"
             ns1:preamble="/home/tim/.config/inkscape/extensions/textext/default_packages.tex"
             ns1:scale="1.7235208948"
             ns1:alignment="middle center"
             inkscapeversion="0.92.4"
             ns1:jacobian_sqrt="0.60802"
             id="g195">
            <g
               id="g193">
              <g
                 style="fill:#000000;fill-opacity:1"
                 id="g191">
                <path
                   inkscape:connector-curvature="0"
                   style="stroke:none;stroke-width:0"
                   d="m 4.578125,-3.1875 c 0,-0.796875 -0.046875,-1.59375 -0.390625,-2.328125 -0.453125,-0.96875 -1.28125,-1.125 -1.6875,-1.125 -0.609375,0 -1.328125,0.265625 -1.75,1.1875 -0.3125,0.6875 -0.359375,1.46875 -0.359375,2.265625 0,0.75 0.03125,1.640625 0.453125,2.40625 0.421875,0.796875 1.15625,1 1.640625,1 0.53125,0 1.296875,-0.203125 1.734375,-1.15625 0.3125,-0.6875 0.359375,-1.46875 0.359375,-2.25 z M 2.484375,0 C 2.09375,0 1.5,-0.25 1.328125,-1.203125 1.21875,-1.796875 1.21875,-2.71875 1.21875,-3.3125 c 0,-0.640625 0,-1.296875 0.078125,-1.828125 0.1875,-1.1875 0.9375,-1.28125 1.1875,-1.28125 0.328125,0 0.984375,0.1875 1.171875,1.171875 0.109375,0.5625 0.109375,1.3125 0.109375,1.9375 0,0.75 0,1.421875 -0.109375,2.0625 C 3.5,-0.296875 2.9375,0 2.484375,0 Z m 0,0"
                   transform="translate(148.712,134.765)"
                   id="path189" />
              </g>
            </g>
          </g>
          <g
             transform="matrix(0.608020,0.000000,0.000000,0.608020,-6.033378,61.191884)"
             ns1:version="0.9.1"
             ns1:texconverter="pdflatex"
             ns1:pdfconverter="pdf2svg"
             ns1:text="2"
             ns1:preamble="/home/tim/.config/inkscape/extensions/textext/default_packages.tex"
             ns1:scale="1.7235208948"
             ns1:alignment="middle center"
             inkscapeversion="0.92.4"
             ns1:jacobian_sqrt="0.60802"
             id="g381">
            <g
               id="g379">
              <g
                 style="fill:rgb(0%,0%,0%);fill-opacity:1;"
                 id="g377">
                <path
                   style="stroke:none;stroke-width:0"
                   d="M 1.265625 -0.765625 L 2.328125 -1.796875 C 3.875 -3.171875 4.46875 -3.703125 4.46875 -4.703125 C 4.46875 -5.84375 3.578125 -6.640625 2.359375 -6.640625 C 1.234375 -6.640625 0.5 -5.71875 0.5 -4.828125 C 0.5 -4.28125 1 -4.28125 1.03125 -4.28125 C 1.203125 -4.28125 1.546875 -4.390625 1.546875 -4.8125 C 1.546875 -5.0625 1.359375 -5.328125 1.015625 -5.328125 C 0.9375 -5.328125 0.921875 -5.328125 0.890625 -5.3125 C 1.109375 -5.96875 1.65625 -6.328125 2.234375 -6.328125 C 3.140625 -6.328125 3.5625 -5.515625 3.5625 -4.703125 C 3.5625 -3.90625 3.078125 -3.125 2.515625 -2.5 L 0.609375 -0.375 C 0.5 -0.265625 0.5 -0.234375 0.5 0 L 4.203125 0 L 4.46875 -1.734375 L 4.234375 -1.734375 C 4.171875 -1.4375 4.109375 -1 4 -0.84375 C 3.9375 -0.765625 3.28125 -0.765625 3.0625 -0.765625 Z M 1.265625 -0.765625 "
                   transform="translate(148.712,134.765)"
                   id="path375" />
              </g>
            </g>
          </g>
        </g>
        <path
           sodipodi:nodetypes="cccccc"
           style="opacity:1;vector-effect:none;fill:none;fill-opacity:1;stroke:#000000;stroke-width:0.42137432;stroke-linecap:butt;stroke-linejoin:miter;stroke-miterlimit:4;stroke-dasharray:none;stroke-dashoffset:0;stroke-opacity:1"
           d="m 53.294517,133.58884 15.048201,-1e-5 v 15.0482 H 53.29452 l -3e-6,-15.24775 v 0.19956"
           id="path229"
           inkscape:connector-curvature="0" />
      </g>
      <g
         id="g318">
        <g
           id="g306"
           transform="translate(25.080334,5.016065)">
          <path
             inkscape:connector-curvature="0"
             id="path281"
             d="m 63.326652,133.58883 v 10.03214"
             style="opacity:1;vector-effect:none;fill:none;fill-opacity:1;stroke:#999999;stroke-width:0.26499999;stroke-linecap:butt;stroke-linejoin:miter;stroke-miterlimit:4;stroke-dasharray:0.52999997, 0.52999997;stroke-dashoffset:0;stroke-opacity:1" />
          <path
             inkscape:connector-curvature="0"
             id="path283"
             d="M 58.310583,138.6049 H 68.342718"
             style="opacity:1;vector-effect:none;fill:none;fill-opacity:1;stroke:#999999;stroke-width:0.26499999;stroke-linecap:butt;stroke-linejoin:miter;stroke-miterlimit:4;stroke-dasharray:0.52999997, 0.52999997;stroke-dashoffset:0;stroke-opacity:1" />
        </g>
        <path
           inkscape:connector-curvature="0"
           id="path279"
           d="m 83.390919,138.6049 v 10.03213 H 93.423054 V 138.6049 Z"
           style="opacity:1;vector-effect:none;fill:none;fill-opacity:1;stroke:#000000;stroke-width:0.42137432;stroke-linecap:butt;stroke-linejoin:miter;stroke-miterlimit:4;stroke-dasharray:none;stroke-dashoffset:0;stroke-opacity:1" />
      </g>
    </g>
    <g
       id="g331">
      <path
         inkscape:connector-curvature="0"
         id="path226"
         d="m 58.310583,133.58883 v 5.01607 h 5.016069 v 10.03213 h 5.016066 V 138.6049 h 5.016066 v -5.01607 H 58.310583"
         style="opacity:1;vector-effect:none;fill:#ff5555;fill-opacity:1;stroke:none;stroke-width:0.26458332px;stroke-linecap:butt;stroke-linejoin:miter;stroke-miterlimit:4;stroke-dasharray:none;stroke-dashoffset:0;stroke-opacity:1" />
      <g
         style="fill:#b3b3b3"
         id="g242"
         transform="translate(28.725457,-63.406531)">
        <path
           style="opacity:1;vector-effect:none;fill:none;fill-opacity:1;stroke:#999999;stroke-width:0.26499999;stroke-linecap:butt;stroke-linejoin:miter;stroke-miterlimit:4;stroke-dasharray:0.52999997, 0.52999997;stroke-dashoffset:0;stroke-opacity:1"
           d="m 39.617261,196.99536 v 20.06427"
           id="path228"
           inkscape:connector-curvature="0"
           sodipodi:nodetypes="cc" />
        <path
           style="opacity:1;vector-effect:none;fill:none;fill-opacity:1;stroke:#999999;stroke-width:0.26499999;stroke-linecap:butt;stroke-linejoin:miter;stroke-miterlimit:4;stroke-dasharray:0.52999997, 0.52999997;stroke-dashoffset:0;stroke-opacity:1"
           d="m 34.601195,196.99536 v 20.06427"
           id="path230"
           inkscape:connector-curvature="0" />
        <path
           style="opacity:1;vector-effect:none;fill:none;fill-opacity:1;stroke:#999999;stroke-width:0.26499999;stroke-linecap:butt;stroke-linejoin:miter;stroke-miterlimit:4;stroke-dasharray:0.52999997, 0.52999997;stroke-dashoffset:0;stroke-opacity:1"
           d="m 29.585126,196.99536 v 20.06427"
           id="path232"
           inkscape:connector-curvature="0"
           sodipodi:nodetypes="cc" />
        <g
           id="g240"
           transform="rotate(90,34.601194,207.0275)">
          <path
             style="opacity:1;vector-effect:none;fill:none;fill-opacity:1;stroke:#999999;stroke-width:0.26499999;stroke-linecap:butt;stroke-linejoin:miter;stroke-miterlimit:4;stroke-dasharray:0.52999997, 0.52999997;stroke-dashoffset:0;stroke-opacity:1"
             d="m 39.617261,196.99536 v 20.06427"
             id="path234"
             inkscape:connector-curvature="0"
             sodipodi:nodetypes="cc" />
          <path
             style="opacity:1;vector-effect:none;fill:none;fill-opacity:1;stroke:#999999;stroke-width:0.26499999;stroke-linecap:butt;stroke-linejoin:miter;stroke-miterlimit:4;stroke-dasharray:0.52999997, 0.52999997;stroke-dashoffset:0;stroke-opacity:1"
             d="m 34.601195,196.99536 v 20.06427"
             id="path236"
             inkscape:connector-curvature="0" />
          <path
             style="opacity:1;vector-effect:none;fill:none;fill-opacity:1;stroke:#999999;stroke-width:0.26499999;stroke-linecap:butt;stroke-linejoin:miter;stroke-miterlimit:4;stroke-dasharray:0.52999997, 0.52999997;stroke-dashoffset:0;stroke-opacity:1"
             d="m 29.585126,196.99536 v 20.06427"
             id="path238"
             inkscape:connector-curvature="0"
             sodipodi:nodetypes="cc" />
        </g>
      </g>
      <path
         inkscape:connector-curvature="0"
         id="path244"
         d="m 53.294519,133.58884 20.064265,-1e-5 v 20.06428 l -20.064265,-1e-5 z"
         style="opacity:1;vector-effect:none;fill:none;fill-opacity:1;stroke:#000000;stroke-width:0.42137432;stroke-linecap:butt;stroke-linejoin:miter;stroke-miterlimit:4;stroke-dasharray:none;stroke-dashoffset:0;stroke-opacity:1" />
      <g
         id="g319">
        <g
           id="g314">
          <g
             id="g252"
             ns1:jacobian_sqrt="0.644692"
             inkscapeversion="0.92.4"
             ns1:alignment="middle center"
             ns1:scale="1.82747314905"
             ns1:preamble="/home/tim/.config/inkscape/extensions/textext/default_packages.tex"
             ns1:text="1"
             ns1:pdfconverter="pdf2svg"
             ns1:texconverter="pdflatex"
             ns1:version="0.9.1"
             transform="matrix(0.60801995,0,0,0.60801995,-36.123455,56.213996)">
            <g
               id="g250">
              <g
                 id="g248"
                 style="fill:#000000;fill-opacity:1">
                <path
                   id="path246"
                   transform="translate(148.712,134.765)"
                   d="m 2.9375,-6.375 c 0,-0.25 0,-0.265625 -0.234375,-0.265625 C 2.078125,-6 1.203125,-6 0.890625,-6 v 0.3125 c 0.203125,0 0.78125,0 1.296875,-0.265625 v 5.171875 c 0,0.359375 -0.03125,0.46875 -0.921875,0.46875 h -0.3125 V 0 c 0.34375,-0.03125 1.203125,-0.03125 1.609375,-0.03125 0.390625,0 1.265625,0 1.609375,0.03125 v -0.3125 h -0.3125 c -0.90625,0 -0.921875,-0.109375 -0.921875,-0.46875 z m 0,0"
                   style="stroke:none;stroke-width:0"
                   inkscape:connector-curvature="0" />
              </g>
            </g>
          </g>
          <g
             transform="matrix(0.60801995,0,0,0.60801995,-31.138894,56.213996)"
             ns1:version="0.9.1"
             ns1:texconverter="pdflatex"
             ns1:pdfconverter="pdf2svg"
             ns1:text="1"
             ns1:preamble="/home/tim/.config/inkscape/extensions/textext/default_packages.tex"
             ns1:scale="1.82747314905"
             ns1:alignment="middle center"
             inkscapeversion="0.92.4"
             ns1:jacobian_sqrt="0.644692"
             id="g264">
            <g
               id="g262">
              <g
                 style="fill:#000000;fill-opacity:1"
                 id="g260">
                <path
                   inkscape:connector-curvature="0"
                   style="stroke:none;stroke-width:0"
                   d="m 2.9375,-6.375 c 0,-0.25 0,-0.265625 -0.234375,-0.265625 C 2.078125,-6 1.203125,-6 0.890625,-6 v 0.3125 c 0.203125,0 0.78125,0 1.296875,-0.265625 v 5.171875 c 0,0.359375 -0.03125,0.46875 -0.921875,0.46875 h -0.3125 V 0 c 0.34375,-0.03125 1.203125,-0.03125 1.609375,-0.03125 0.390625,0 1.265625,0 1.609375,0.03125 v -0.3125 h -0.3125 c -0.90625,0 -0.921875,-0.109375 -0.921875,-0.46875 z m 0,0"
                   transform="translate(148.712,134.765)"
                   id="path254" />
                <path
                   id="path256"
                   d="m 151.6495,136.51075 c 0,-0.25 0,-0.26563 -0.23438,-0.26563 -0.625,0.64063 -1.5,0.64063 -1.8125,0.64063 v 0.3125 c 0.20313,0 0.78125,0 1.29688,-0.26563 v 5.17188 c 0,0.35937 -0.0312,0.46875 -0.92188,0.46875 h -0.3125 v 0.3125 c 0.34375,-0.0312 1.20313,-0.0312 1.60938,-0.0312 0.39062,0 1.26562,0 1.60937,0.0312 v -0.3125 h -0.3125 c -0.90625,0 -0.92187,-0.10938 -0.92187,-0.46875 z m 0,0"
                   style="stroke:none;stroke-width:0"
                   inkscape:connector-curvature="0" />
                <path
                   inkscape:connector-curvature="0"
                   style="stroke:none;stroke-width:0"
                   d="m 151.6495,144.74763 c 0,-0.25 0,-0.26563 -0.23438,-0.26563 -0.625,0.64063 -1.5,0.64063 -1.8125,0.64063 v 0.3125 c 0.20313,0 0.78125,0 1.29688,-0.26563 v 5.17188 c 0,0.35937 -0.0312,0.46875 -0.92188,0.46875 h -0.3125 v 0.3125 c 0.34375,-0.0312 1.20313,-0.0312 1.60938,-0.0312 0.39062,0 1.26562,0 1.60937,0.0312 v -0.3125 h -0.3125 c -0.90625,0 -0.92187,-0.10938 -0.92187,-0.46875 z m 0,0"
                   id="path258" />
              </g>
            </g>
          </g>
          <g
             id="g272"
             ns1:jacobian_sqrt="0.644692"
             inkscapeversion="0.92.4"
             ns1:alignment="middle center"
             ns1:scale="1.82747314905"
             ns1:preamble="/home/tim/.config/inkscape/extensions/textext/default_packages.tex"
             ns1:text="1"
             ns1:pdfconverter="pdf2svg"
             ns1:texconverter="pdflatex"
             ns1:version="0.9.1"
             transform="matrix(0.60801995,0,0,0.60801995,-26.107086,56.213996)">
            <g
               id="g270">
              <g
                 id="g268"
                 style="fill:#000000;fill-opacity:1">
                <path
                   id="path266"
                   transform="translate(148.712,134.765)"
                   d="m 2.9375,-6.375 c 0,-0.25 0,-0.265625 -0.234375,-0.265625 C 2.078125,-6 1.203125,-6 0.890625,-6 v 0.3125 c 0.203125,0 0.78125,0 1.296875,-0.265625 v 5.171875 c 0,0.359375 -0.03125,0.46875 -0.921875,0.46875 h -0.3125 V 0 c 0.34375,-0.03125 1.203125,-0.03125 1.609375,-0.03125 0.390625,0 1.265625,0 1.609375,0.03125 v -0.3125 h -0.3125 c -0.90625,0 -0.921875,-0.109375 -0.921875,-0.46875 z m 0,0"
                   style="stroke:none;stroke-width:0"
                   inkscape:connector-curvature="0" />
              </g>
            </g>
          </g>
          <g
             id="g280"
             ns1:jacobian_sqrt="0.60802"
             inkscapeversion="0.92.4"
             ns1:alignment="middle center"
             ns1:scale="1.7235208948"
             ns1:preamble="/home/tim/.config/inkscape/extensions/textext/default_packages.tex"
             ns1:text="0"
             ns1:pdfconverter="pdf2svg"
             ns1:texconverter="pdflatex"
             ns1:version="0.9.1"
             transform="matrix(0.60802,0,0,0.60802,-36.094962,61.108424)">
            <g
               id="g278">
              <g
                 id="g276"
                 style="fill:#000000;fill-opacity:1">
                <path
                   id="path274"
                   transform="translate(148.712,134.765)"
                   d="m 4.578125,-3.1875 c 0,-0.796875 -0.046875,-1.59375 -0.390625,-2.328125 -0.453125,-0.96875 -1.28125,-1.125 -1.6875,-1.125 -0.609375,0 -1.328125,0.265625 -1.75,1.1875 -0.3125,0.6875 -0.359375,1.46875 -0.359375,2.265625 0,0.75 0.03125,1.640625 0.453125,2.40625 0.421875,0.796875 1.15625,1 1.640625,1 0.53125,0 1.296875,-0.203125 1.734375,-1.15625 0.3125,-0.6875 0.359375,-1.46875 0.359375,-2.25 z M 2.484375,0 C 2.09375,0 1.5,-0.25 1.328125,-1.203125 1.21875,-1.796875 1.21875,-2.71875 1.21875,-3.3125 c 0,-0.640625 0,-1.296875 0.078125,-1.828125 0.1875,-1.1875 0.9375,-1.28125 1.1875,-1.28125 0.328125,0 0.984375,0.1875 1.171875,1.171875 0.109375,0.5625 0.109375,1.3125 0.109375,1.9375 0,0.75 0,1.421875 -0.109375,2.0625 C 3.5,-0.296875 2.9375,0 2.484375,0 Z m 0,0"
                   style="stroke:none;stroke-width:0"
                   inkscape:connector-curvature="0" />
              </g>
            </g>
          </g>
          <g
             transform="matrix(0.60802,0,0,0.60802,-36.094962,66.163856)"
             ns1:version="0.9.1"
             ns1:texconverter="pdflatex"
             ns1:pdfconverter="pdf2svg"
             ns1:text="0"
             ns1:preamble="/home/tim/.config/inkscape/extensions/textext/default_packages.tex"
             ns1:scale="1.7235208948"
             ns1:alignment="middle center"
             inkscapeversion="0.92.4"
             ns1:jacobian_sqrt="0.60802"
             id="g288">
            <g
               id="g286">
              <g
                 style="fill:#000000;fill-opacity:1"
                 id="g284">
                <path
                   inkscape:connector-curvature="0"
                   style="stroke:none;stroke-width:0"
                   d="m 4.578125,-3.1875 c 0,-0.796875 -0.046875,-1.59375 -0.390625,-2.328125 -0.453125,-0.96875 -1.28125,-1.125 -1.6875,-1.125 -0.609375,0 -1.328125,0.265625 -1.75,1.1875 -0.3125,0.6875 -0.359375,1.46875 -0.359375,2.265625 0,0.75 0.03125,1.640625 0.453125,2.40625 0.421875,0.796875 1.15625,1 1.640625,1 0.53125,0 1.296875,-0.203125 1.734375,-1.15625 0.3125,-0.6875 0.359375,-1.46875 0.359375,-2.25 z M 2.484375,0 C 2.09375,0 1.5,-0.25 1.328125,-1.203125 1.21875,-1.796875 1.21875,-2.71875 1.21875,-3.3125 c 0,-0.640625 0,-1.296875 0.078125,-1.828125 0.1875,-1.1875 0.9375,-1.28125 1.1875,-1.28125 0.328125,0 0.984375,0.1875 1.171875,1.171875 0.109375,0.5625 0.109375,1.3125 0.109375,1.9375 0,0.75 0,1.421875 -0.109375,2.0625 C 3.5,-0.296875 2.9375,0 2.484375,0 Z m 0,0"
                   transform="translate(148.712,134.765)"
                   id="path282" />
              </g>
            </g>
          </g>
          <g
             transform="matrix(0.60802,0,0,0.60802,-26.007722,61.108424)"
             ns1:version="0.9.1"
             ns1:texconverter="pdflatex"
             ns1:pdfconverter="pdf2svg"
             ns1:text="0"
             ns1:preamble="/home/tim/.config/inkscape/extensions/textext/default_packages.tex"
             ns1:scale="1.7235208948"
             ns1:alignment="middle center"
             inkscapeversion="0.92.4"
             ns1:jacobian_sqrt="0.60802"
             id="g296">
            <g
               id="g294">
              <g
                 style="fill:#000000;fill-opacity:1"
                 id="g292">
                <path
                   inkscape:connector-curvature="0"
                   style="stroke:none;stroke-width:0"
                   d="m 4.578125,-3.1875 c 0,-0.796875 -0.046875,-1.59375 -0.390625,-2.328125 -0.453125,-0.96875 -1.28125,-1.125 -1.6875,-1.125 -0.609375,0 -1.328125,0.265625 -1.75,1.1875 -0.3125,0.6875 -0.359375,1.46875 -0.359375,2.265625 0,0.75 0.03125,1.640625 0.453125,2.40625 0.421875,0.796875 1.15625,1 1.640625,1 0.53125,0 1.296875,-0.203125 1.734375,-1.15625 0.3125,-0.6875 0.359375,-1.46875 0.359375,-2.25 z M 2.484375,0 C 2.09375,0 1.5,-0.25 1.328125,-1.203125 1.21875,-1.796875 1.21875,-2.71875 1.21875,-3.3125 c 0,-0.640625 0,-1.296875 0.078125,-1.828125 0.1875,-1.1875 0.9375,-1.28125 1.1875,-1.28125 0.328125,0 0.984375,0.1875 1.171875,1.171875 0.109375,0.5625 0.109375,1.3125 0.109375,1.9375 0,0.75 0,1.421875 -0.109375,2.0625 C 3.5,-0.296875 2.9375,0 2.484375,0 Z m 0,0"
                   transform="translate(148.712,134.765)"
                   id="path290" />
              </g>
            </g>
          </g>
          <g
             id="g304"
             ns1:jacobian_sqrt="0.60802"
             inkscapeversion="0.92.4"
             ns1:alignment="middle center"
             ns1:scale="1.7235208948"
             ns1:preamble="/home/tim/.config/inkscape/extensions/textext/default_packages.tex"
             ns1:text="0"
             ns1:pdfconverter="pdf2svg"
             ns1:texconverter="pdflatex"
             ns1:version="0.9.1"
             transform="matrix(0.60802,0,0,0.60802,-26.007722,66.140232)">
            <g
               id="g302">
              <g
                 id="g300"
                 style="fill:#000000;fill-opacity:1">
                <path
                   id="path298"
                   transform="translate(148.712,134.765)"
                   d="m 4.578125,-3.1875 c 0,-0.796875 -0.046875,-1.59375 -0.390625,-2.328125 -0.453125,-0.96875 -1.28125,-1.125 -1.6875,-1.125 -0.609375,0 -1.328125,0.265625 -1.75,1.1875 -0.3125,0.6875 -0.359375,1.46875 -0.359375,2.265625 0,0.75 0.03125,1.640625 0.453125,2.40625 0.421875,0.796875 1.15625,1 1.640625,1 0.53125,0 1.296875,-0.203125 1.734375,-1.15625 0.3125,-0.6875 0.359375,-1.46875 0.359375,-2.25 z M 2.484375,0 C 2.09375,0 1.5,-0.25 1.328125,-1.203125 1.21875,-1.796875 1.21875,-2.71875 1.21875,-3.3125 c 0,-0.640625 0,-1.296875 0.078125,-1.828125 0.1875,-1.1875 0.9375,-1.28125 1.1875,-1.28125 0.328125,0 0.984375,0.1875 1.171875,1.171875 0.109375,0.5625 0.109375,1.3125 0.109375,1.9375 0,0.75 0,1.421875 -0.109375,2.0625 C 3.5,-0.296875 2.9375,0 2.484375,0 Z m 0,0"
                   style="stroke:none;stroke-width:0"
                   inkscape:connector-curvature="0" />
              </g>
            </g>
          </g>
          <g
             id="g312"
             ns1:jacobian_sqrt="0.60802"
             inkscapeversion="0.92.4"
             ns1:alignment="middle center"
             ns1:scale="1.7235208948"
             ns1:preamble="/home/tim/.config/inkscape/extensions/textext/default_packages.tex"
             ns1:text="2"
             ns1:pdfconverter="pdf2svg"
             ns1:texconverter="pdflatex"
             ns1:version="0.9.1"
             transform="matrix(0.608020,0.000000,0.000000,0.608020,-6.033378,61.191884)">
            <g
               id="g310">
              <g
                 id="g308"
                 style="fill:rgb(0%,0%,0%);fill-opacity:1;">
                <path
                   id="path306"
                   transform="translate(148.712,134.765)"
                   d="M 1.265625 -0.765625 L 2.328125 -1.796875 C 3.875 -3.171875 4.46875 -3.703125 4.46875 -4.703125 C 4.46875 -5.84375 3.578125 -6.640625 2.359375 -6.640625 C 1.234375 -6.640625 0.5 -5.71875 0.5 -4.828125 C 0.5 -4.28125 1 -4.28125 1.03125 -4.28125 C 1.203125 -4.28125 1.546875 -4.390625 1.546875 -4.8125 C 1.546875 -5.0625 1.359375 -5.328125 1.015625 -5.328125 C 0.9375 -5.328125 0.921875 -5.328125 0.890625 -5.3125 C 1.109375 -5.96875 1.65625 -6.328125 2.234375 -6.328125 C 3.140625 -6.328125 3.5625 -5.515625 3.5625 -4.703125 C 3.5625 -3.90625 3.078125 -3.125 2.515625 -2.5 L 0.609375 -0.375 C 0.5 -0.265625 0.5 -0.234375 0.5 0 L 4.203125 0 L 4.46875 -1.734375 L 4.234375 -1.734375 C 4.171875 -1.4375 4.109375 -1 4 -0.84375 C 3.9375 -0.765625 3.28125 -0.765625 3.0625 -0.765625 Z M 1.265625 -0.765625 "
                   style="stroke:none;stroke-width:0" />
              </g>
            </g>
          </g>
        </g>
        <path
           inkscape:connector-curvature="0"
           id="path316"
           d="m 53.294517,133.58884 15.048201,-1e-5 v 15.0482 H 53.29452 l -3e-6,-15.24775 v 0.19956"
           style="opacity:1;vector-effect:none;fill:none;fill-opacity:1;stroke:#000000;stroke-width:0.42137432;stroke-linecap:butt;stroke-linejoin:miter;stroke-miterlimit:4;stroke-dasharray:none;stroke-dashoffset:0;stroke-opacity:1"
           sodipodi:nodetypes="cccccc" />
      </g>
      <g
         id="g329">
        <g
           transform="translate(25.080334,5.016065)"
           id="g325">
          <path
             style="opacity:1;vector-effect:none;fill:none;fill-opacity:1;stroke:#999999;stroke-width:0.26499999;stroke-linecap:butt;stroke-linejoin:miter;stroke-miterlimit:4;stroke-dasharray:0.52999997, 0.52999997;stroke-dashoffset:0;stroke-opacity:1"
             d="m 63.326652,133.58883 v 10.03214"
             id="path321"
             inkscape:connector-curvature="0" />
          <path
             style="opacity:1;vector-effect:none;fill:none;fill-opacity:1;stroke:#999999;stroke-width:0.26499999;stroke-linecap:butt;stroke-linejoin:miter;stroke-miterlimit:4;stroke-dasharray:0.52999997, 0.52999997;stroke-dashoffset:0;stroke-opacity:1"
             d="M 58.310583,138.6049 H 68.342718"
             id="path323"
             inkscape:connector-curvature="0" />
        </g>
        <path
           style="opacity:1;vector-effect:none;fill:none;fill-opacity:1;stroke:#000000;stroke-width:0.42137432;stroke-linecap:butt;stroke-linejoin:miter;stroke-miterlimit:4;stroke-dasharray:none;stroke-dashoffset:0;stroke-opacity:1"
           d="m 83.390919,138.6049 v 10.03213 H 93.423054 V 138.6049 Z"
           id="path327"
           inkscape:connector-curvature="0" />
      </g>
    </g>
  </g>
</svg>
