<?xml version="1.0" encoding="UTF-8" standalone="no"?>
<!-- Created with Inkscape (http://www.inkscape.org/) -->

<svg
   xmlns:ns1="http://www.iki.fi/pav/software/textext/"
   xmlns:dc="http://purl.org/dc/elements/1.1/"
   xmlns:cc="http://creativecommons.org/ns#"
   xmlns:rdf="http://www.w3.org/1999/02/22-rdf-syntax-ns#"
   xmlns:svg="http://www.w3.org/2000/svg"
   xmlns="http://www.w3.org/2000/svg"
   xmlns:sodipodi="http://sodipodi.sourceforge.net/DTD/sodipodi-0.dtd"
   xmlns:inkscape="http://www.inkscape.org/namespaces/inkscape"
   inkscape:version="0.92.4 5da689c313, 2019-01-14"
   sodipodi:docname="bg_dielectric.svg"
   viewBox="0 0 793.70081 1122.5197"
   height="1122.5197"
   width="793.70081"
   xml:space="preserve"
   id="svg834"
   version="1.1"><metadata
     id="metadata840"><rdf:RDF><cc:Work
         rdf:about=""><dc:format>image/svg+xml</dc:format><dc:type
           rdf:resource="http://purl.org/dc/dcmitype/StillImage" /><dc:title /></cc:Work></rdf:RDF></metadata><defs
     id="defs838"><clipPath
   clipPathUnits="userSpaceOnUse"
   id="clipPath1942"><rect
     style="opacity:1;vector-effect:none;fill:#00000f;fill-opacity:1;stroke:#ff2323;stroke-width:1.5;stroke-linecap:butt;stroke-linejoin:miter;stroke-miterlimit:4;stroke-dasharray:none;stroke-dashoffset:0;stroke-opacity:1"
     id="rect1944"
     width="224.19708"
     height="231.856"
     x="201.91663"
     y="536.22968" /></clipPath>



























































































































</defs><sodipodi:namedview
     pagecolor="#ffffff"
     bordercolor="#666666"
     borderopacity="1"
     objecttolerance="10"
     gridtolerance="10"
     guidetolerance="10"
     inkscape:pageopacity="0"
     inkscape:pageshadow="2"
     inkscape:window-width="1920"
     inkscape:window-height="1052"
     id="namedview836"
     showgrid="false"
     inkscape:zoom="3.0467172"
     inkscape:cx="402.33999"
     inkscape:cy="547.07605"
     inkscape:window-x="0"
     inkscape:window-y="28"
     inkscape:window-maximized="1"
     inkscape:current-layer="g842"
     inkscape:snap-global="false" /><g
     id="g842"
     inkscape:groupmode="layer"
     inkscape:label="bg_dielectric"
     transform="matrix(1.3333333,0,0,1.3333333,0,4.2729659e-5)"><text
   id="text1182"
   style="font-variant:normal;font-size:14.04605007px;font-family:MT-Extra;-inkscape-font-specification:MT-Extra;writing-mode:lr-tb;fill:#000000;fill-opacity:1;fill-rule:nonzero;stroke:none;stroke-width:0.98621804"
   transform="scale(0.98621802,1.0139746)"
   x="440.14532"
   y="158.35661"><tspan
     id="tspan1180"
     sodipodi:role="line"
     y="158.35661"
     x="440.14532 466.98734"
     style="stroke-width:0.98621804"></tspan></text>










<text
   id="text1194"
   style="font-variant:normal;font-weight:normal;font-size:14.03895283px;font-family:Wingdings-Regular;-inkscape-font-specification:Wingdings-Regular;writing-mode:lr-tb;fill:#000000;fill-opacity:1;fill-rule:nonzero;stroke:none"
   x="168.6644"
   y="200.6758"><tspan
     id="tspan1192"
     y="200.6758"
     x="168.6644"></tspan></text>










<g
   transform="matrix(1,0,0,0.999375,-43.793429,-229.72621)"
   id="g1654"><path
     inkscape:connector-curvature="0"
     id="path1656"
     style="fill:none;stroke:#000000;stroke-width:0.59068501;stroke-linecap:square;stroke-linejoin:miter;stroke-miterlimit:10;stroke-dasharray:none;stroke-opacity:1"
     d="M 233.129,727.888 H 412.828" /></g><g
   transform="matrix(1,0,0,0.999375,-43.793429,-229.72621)"
   id="g1658"><path
     inkscape:connector-curvature="0"
     id="path1660"
     style="fill:none;stroke:#000000;stroke-width:0.59068501;stroke-linecap:square;stroke-linejoin:miter;stroke-miterlimit:10;stroke-dasharray:none;stroke-opacity:1"
     d="m 233.129,727.888 v 6.102" /></g><g
   transform="matrix(1,0,0,0.999375,-43.793429,-229.72621)"
   id="g1662"><path
     inkscape:connector-curvature="0"
     id="path1664"
     style="fill:none;stroke:#000000;stroke-width:0.59068501;stroke-linecap:square;stroke-linejoin:miter;stroke-miterlimit:10;stroke-dasharray:none;stroke-opacity:1"
     d="m 278.02,727.888 v 6.102" /></g><g
   transform="matrix(1,0,0,0.999375,-43.793429,-229.72621)"
   id="g1666"><path
     inkscape:connector-curvature="0"
     id="path1668"
     style="fill:none;stroke:#000000;stroke-width:0.59068501;stroke-linecap:square;stroke-linejoin:miter;stroke-miterlimit:10;stroke-dasharray:none;stroke-opacity:1"
     d="m 322.91,727.888 v 6.102" /></g><g
   transform="matrix(1,0,0,0.999375,-43.793429,-229.72621)"
   id="g1670"><path
     inkscape:connector-curvature="0"
     id="path1672"
     style="fill:none;stroke:#000000;stroke-width:0.59068501;stroke-linecap:square;stroke-linejoin:miter;stroke-miterlimit:10;stroke-dasharray:none;stroke-opacity:1"
     d="m 367.805,727.888 v 6.102" /></g><g
   transform="matrix(1,0,0,0.999375,-43.793429,-229.72621)"
   id="g1674"><path
     inkscape:connector-curvature="0"
     id="path1676"
     style="fill:none;stroke:#000000;stroke-width:0.59068501;stroke-linecap:square;stroke-linejoin:miter;stroke-miterlimit:10;stroke-dasharray:none;stroke-opacity:1"
     d="m 412.762,727.888 v 6.102" /></g><g
   transform="matrix(1,0,0,0.999375,-43.793429,-229.72621)"
   id="g1678"><path
     inkscape:connector-curvature="0"
     id="path1680"
     style="fill:none;stroke:#000000;stroke-width:0.59068501;stroke-linecap:square;stroke-linejoin:miter;stroke-miterlimit:10;stroke-dasharray:none;stroke-opacity:1"
     d="m 255.574,727.888 v 3.084" /></g><g
   transform="matrix(1,0,0,0.999375,-43.793429,-229.72621)"
   id="g1682"><path
     inkscape:connector-curvature="0"
     id="path1684"
     style="fill:none;stroke:#000000;stroke-width:0.59068501;stroke-linecap:square;stroke-linejoin:miter;stroke-miterlimit:10;stroke-dasharray:none;stroke-opacity:1"
     d="m 300.465,727.888 v 3.084" /></g><g
   transform="matrix(1,0,0,0.999375,-43.793429,-229.72621)"
   id="g1686"><path
     inkscape:connector-curvature="0"
     id="path1688"
     style="fill:none;stroke:#000000;stroke-width:0.59068501;stroke-linecap:square;stroke-linejoin:miter;stroke-miterlimit:10;stroke-dasharray:none;stroke-opacity:1"
     d="m 345.359,727.888 v 3.084" /></g><g
   transform="matrix(1,0,0,0.999375,-43.793429,-229.72621)"
   id="g1690"><path
     inkscape:connector-curvature="0"
     id="path1692"
     style="fill:none;stroke:#000000;stroke-width:0.59068501;stroke-linecap:square;stroke-linejoin:miter;stroke-miterlimit:10;stroke-dasharray:none;stroke-opacity:1"
     d="m 390.25,727.888 v 3.084" /></g><g
   transform="matrix(1,0,0,0.999375,-43.793429,-229.72621)"
   id="g1724"><path
     inkscape:connector-curvature="0"
     id="path1726"
     style="fill:none;stroke:#000000;stroke-width:0.59068501;stroke-linecap:square;stroke-linejoin:miter;stroke-miterlimit:10;stroke-dasharray:none;stroke-opacity:1"
     d="M 233.129,727.888 V 548.186" /></g><g
   transform="matrix(1,0,0,0.999375,-43.793429,-229.72621)"
   id="g1728"><path
     inkscape:connector-curvature="0"
     id="path1730"
     style="fill:none;stroke:#000000;stroke-width:0.59068501;stroke-linecap:square;stroke-linejoin:miter;stroke-miterlimit:10;stroke-dasharray:none;stroke-opacity:1"
     d="M 233.129,727.888 H 227.09" /></g><g
   transform="matrix(1,0,0,0.999375,-43.793429,-229.72621)"
   id="g1732"><path
     inkscape:connector-curvature="0"
     id="path1734"
     style="fill:none;stroke:#000000;stroke-width:0.59068501;stroke-linecap:square;stroke-linejoin:miter;stroke-miterlimit:10;stroke-dasharray:none;stroke-opacity:1"
     d="M 233.129,682.993 H 227.09" /></g><g
   transform="matrix(1,0,0,0.999375,-43.793429,-229.72621)"
   id="g1736"><path
     inkscape:connector-curvature="0"
     id="path1738"
     style="fill:none;stroke:#000000;stroke-width:0.59068501;stroke-linecap:square;stroke-linejoin:miter;stroke-miterlimit:10;stroke-dasharray:none;stroke-opacity:1"
     d="M 233.129,638.102 H 227.09" /></g><g
   transform="matrix(1,0,0,0.999375,-43.793429,-229.72621)"
   id="g1740"><path
     inkscape:connector-curvature="0"
     id="path1742"
     style="fill:none;stroke:#000000;stroke-width:0.59068501;stroke-linecap:square;stroke-linejoin:miter;stroke-miterlimit:10;stroke-dasharray:none;stroke-opacity:1"
     d="M 233.129,593.21 H 227.09" /></g><g
   transform="matrix(1,0,0,0.999375,-43.793429,-229.72621)"
   id="g1744"><path
     inkscape:connector-curvature="0"
     id="path1746"
     style="fill:none;stroke:#000000;stroke-width:0.59068501;stroke-linecap:square;stroke-linejoin:miter;stroke-miterlimit:10;stroke-dasharray:none;stroke-opacity:1"
     d="M 233.129,548.319 H 227.09" /></g><g
   transform="matrix(1,0,0,0.999375,-43.793429,-229.72621)"
   id="g1748"><path
     inkscape:connector-curvature="0"
     id="path1750"
     style="fill:none;stroke:#000000;stroke-width:0.59068501;stroke-linecap:square;stroke-linejoin:miter;stroke-miterlimit:10;stroke-dasharray:none;stroke-opacity:1"
     d="m 233.129,705.441 h -3.086" /></g><g
   transform="matrix(1,0,0,0.999375,-43.793429,-229.72621)"
   id="g1752"><path
     inkscape:connector-curvature="0"
     id="path1754"
     style="fill:none;stroke:#000000;stroke-width:0.59068501;stroke-linecap:square;stroke-linejoin:miter;stroke-miterlimit:10;stroke-dasharray:none;stroke-opacity:1"
     d="m 233.129,660.549 h -3.086" /></g><g
   transform="matrix(1,0,0,0.999375,-43.793429,-229.72621)"
   id="g1756"><path
     inkscape:connector-curvature="0"
     id="path1758"
     style="fill:none;stroke:#000000;stroke-width:0.59068501;stroke-linecap:square;stroke-linejoin:miter;stroke-miterlimit:10;stroke-dasharray:none;stroke-opacity:1"
     d="m 233.129,615.658 h -3.086" /></g><g
   transform="matrix(1,0,0,0.999375,-43.793429,-229.72621)"
   id="g1760"><path
     inkscape:connector-curvature="0"
     id="path1762"
     style="fill:none;stroke:#000000;stroke-width:0.59068501;stroke-linecap:square;stroke-linejoin:miter;stroke-miterlimit:10;stroke-dasharray:none;stroke-opacity:1"
     d="m 233.129,570.763 h -3.086" /></g><g
   transform="matrix(1,0,0,0.999375,-43.793429,-229.72621)"
   id="g1834"><path
     inkscape:connector-curvature="0"
     id="path1836"
     style="fill:none;stroke:#000000;stroke-width:0.59068501;stroke-linecap:square;stroke-linejoin:miter;stroke-miterlimit:10;stroke-dasharray:none;stroke-opacity:1"
     d="m 242.121,716.924 0.785,-4.397 0.922,-3.412 0.918,-2.494 0.785,-2.099 0.856,-1.575 0.851,-1.313 0.856,-1.052 0.785,-1.047 0.922,-0.79 0.918,-0.657 0.785,-0.656 0.922,-0.59 0.785,-0.395 0.855,-0.458 0.918,-0.394 0.789,-0.458 0.918,-0.265 0.918,-0.391 0.789,-0.329 0.918,-0.262 0.786,-0.328 0.855,-0.266 0.852,-0.195 0.855,-0.328 0.918,-0.196 0.789,-0.328 0.918,-0.262 0.785,-0.199 0.922,-0.329 0.785,-0.195 0.856,-0.196 0.918,-0.265 0.789,-0.196 0.918,-0.328 0.918,-0.196 0.789,-0.199 0.851,-0.328 0.852,-0.262 0.855,-0.196 0.918,-0.328 0.789,-0.195 0.918,-0.266 0.789,-0.196 0.918,-0.328 0.786,-0.328 0.921,-0.262 0.852,-0.328 0.789,-0.196 0.918,-0.266 0.785,-0.328 0.922,-0.262 0.785,-0.328 0.922,-0.329 0.852,-0.261 0.851,-0.329 0.856,-0.391 0.918,-0.265 0.789,-0.329 0.918,-0.262 0.789,-0.457 0.918,-0.262 0.851,-0.395 0.789,-0.394 0.918,-0.329 0.789,-0.394 0.918,-0.262 0.785,-0.458 0.922,-0.394 0.918,-0.395 0.789,-0.395 0.852,-0.391 0.851,-0.395 0.856,-0.523 0.918,-0.395 0.789,-0.395 0.918,-0.395 0.852,-0.457 0.855,-0.395 0.852,-0.524 0.789,-0.527 0.918,-0.458 0.789,-0.394 1.836,-1.052 0.789,-0.457 0.851,-0.59 0.856,-0.528 0.851,-0.457 0.789,-0.657 0.918,-0.461 0.918,-0.59 0.789,-0.524 0.918,-0.59 0.785,-0.591 0.922,-0.59 0.852,-0.594 0.789,-0.653 0.918,-0.594 0.918,-0.59 0.789,-0.657 0.918,-0.652 0.789,-0.657 0.852,-0.723 0.851,-0.59 0.856,-0.724 0.918,-0.656 0.789,-0.723 0.918,-0.786 0.789,-0.723 0.918,-0.657 0.785,-0.785 0.855,-0.852 0.918,-0.657 0.789,-0.79 0.918,-0.852 0.918,-0.789 0.789,-0.852 0.852,-0.853 0.855,-0.789 1.77,-1.771 0.789,-0.918 0.918,-0.852 0.789,-0.919 0.918,-0.922 0.789,-0.919 1.769,-1.966 0.79,-0.919 0.917,-0.985 0.79,-0.985 0.918,-0.984 0.918,-1.118 0.789,-0.981 0.851,-1.118 0.856,-0.985 0.851,-1.114 0.918,-1.052 0.789,-1.114 0.918,-1.18 0.789,-1.118 0.918,-1.18 0.852,-1.118 0.789,-1.181 0.918,-1.247 0.789,-1.18 0.918,-1.181 0.789,-1.184 0.918,-1.309 0.918,-1.185 0.789,-1.313 0.851,-1.18 0.856,-1.314 0.851,-1.309 0.918,-1.313 0.789,-1.181 0.918,-1.38 0.856,-1.313 0.852,-1.18 0.851,-1.38 0.789,-1.313 0.918,-1.181 0.789,-1.313 0.918,-1.313 0.918,-1.31 0.789,-1.313 0.852,-1.181 0.855,-1.313 0.852,-1.18 0.789,-1.052 0.918,-1.247 0.918,-1.051 0.789,-1.114 1.769,-2.037 0.856,-0.985 0.851,-0.852 0.789,-0.852 0.918,-0.656 0.918,-0.723 0.789,-0.458 0.918,-0.527 0.789,-0.329 0.852,-0.262 0.856,-0.129 0.851,0.129 0.918,0.067 0.789,0.395 0.918,0.523 1.707,1.708 0.789,1.181 0.852,1.376 0.918,1.708 0.789,2.036 0.918,2.166 0.918,2.622 0.789,2.76" /></g><g
   transform="matrix(1,0,0,0.999375,-43.793429,-229.72621)"
   id="g1838"><path
     inkscape:connector-curvature="0"
     id="path1840"
     style="fill:none;stroke:#000000;stroke-width:0.59068501;stroke-linecap:square;stroke-linejoin:miter;stroke-miterlimit:10;stroke-dasharray:none;stroke-opacity:1"
     d="m 411.844,597.084 0.918,3.412" /></g><g
   transform="matrix(1,0,0,0.999375,-43.793429,-229.72621)"
   id="g1842"><path
     inkscape:connector-curvature="0"
     id="path1844"
     style="fill:none;stroke:#000000;stroke-width:0.59068501;stroke-linecap:square;stroke-linejoin:miter;stroke-miterlimit:10;stroke-dasharray:none;stroke-opacity:1"
     d="m 293.707,689.755 h 37.805" /></g><g
   transform="matrix(1,0,0,0.999375,-43.793429,-229.72621)"
   id="g1846"><path
     inkscape:connector-curvature="0"
     id="path1848"
     style="fill:none;stroke:#000000;stroke-width:0.59068501;stroke-linecap:square;stroke-linejoin:miter;stroke-miterlimit:10;stroke-dasharray:none;stroke-opacity:1"
     d="m 331.512,689.755 h 0.523" /></g><g
   transform="matrix(1,0,0,0.999375,-43.793429,-229.72621)"
   id="g1864"><path
     inkscape:connector-curvature="0"
     id="path1866"
     style="fill:none;stroke:#000000;stroke-width:0.59068501;stroke-linecap:square;stroke-linejoin:miter;stroke-miterlimit:10;stroke-dasharray:none;stroke-opacity:1"
     d="m 293.512,688.966 v 2.298" /></g><g
   transform="matrix(1,0,0,0.999375,-43.793429,-229.72621)"
   id="g1868"><path
     inkscape:connector-curvature="0"
     id="path1870"
     style="fill:none;stroke:#000000;stroke-width:0.59068501;stroke-linecap:square;stroke-linejoin:miter;stroke-miterlimit:10;stroke-dasharray:none;stroke-opacity:1"
     d="m 332.43,688.966 v 2.298" /></g><g
   id="g2679"
   ns1:jacobian_sqrt="1.2"
   inkscapeversion="0.92.4"
   ns1:alignment="middle center"
   ns1:scale="0.9"
   ns1:preamble="/home/tim/.config/inkscape/extensions/textext/default_packages.tex"
   ns1:text="$\\epsilon\'$"
   ns1:pdfconverter="pdf2svg"
   ns1:texconverter="pdflatex"
   ns1:version="0.9.1"
   transform="matrix(1.2,0,0,1.2,6.8570009,147.20164)"><g
   id="surface1">
<g
   id="g2672"
   style="fill:#000000;fill-opacity:1">
  <path
   id="path2670"
   transform="translate(148.712,134.765)"
   d="m 2.96875,-2.25 c 0.15625,0 0.34375,0 0.34375,-0.171875 C 3.3125,-2.5625 3.1875,-2.5625 3.015625,-2.5625 H 1.40625 c 0.234375,-0.84375 0.796875,-1.421875 1.703125,-1.421875 h 0.3125 c 0.171875,0 0.328125,0 0.328125,-0.171875 0,-0.140625 -0.125,-0.140625 -0.296875,-0.140625 H 3.09375 c -1.296875,0 -2.625,1 -2.625,2.515625 0,1.109375 0.75,1.890625 1.796875,1.890625 0.65625,0 1.296875,-0.40625 1.296875,-0.515625 0,-0.015625 0,-0.125 -0.09375,-0.125 -0.015625,0 -0.046875,0 -0.125,0.046875 -0.3125,0.203125 -0.6875,0.375 -1.046875,0.375 -0.578125,0 -1.078125,-0.421875 -1.078125,-1.296875 0,-0.34375 0.078125,-0.734375 0.109375,-0.84375 z m 0,0"
   style="stroke:none;stroke-width:0"
   inkscape:connector-curvature="0" />
</g>
<g
   id="g2676"
   style="fill:#000000;fill-opacity:1">
  <path
   id="path2674"
   transform="translate(152.756,131.149)"
   d="m 2.015625,-3.296875 c 0.0625,-0.109375 0.0625,-0.171875 0.0625,-0.21875 0,-0.21875 -0.1875,-0.375 -0.40625,-0.375 -0.265625,0 -0.34375,0.21875 -0.375,0.328125 L 0.375,-0.546875 c -0.015625,0.015625 -0.046875,0.09375 -0.046875,0.109375 0,0.078125 0.21875,0.15625 0.28125,0.15625 0.046875,0 0.046875,-0.015625 0.09375,-0.125 z m 0,0"
   style="stroke:none;stroke-width:0"
   inkscape:connector-curvature="0" />
</g>
</g>
</g><g
   id="g2844"
   ns1:jacobian_sqrt="1.2"
   inkscapeversion="0.92.4"
   ns1:alignment="middle center"
   ns1:scale="0.9"
   ns1:preamble="/home/tim/.config/inkscape/extensions/textext/default_packages.tex"
   ns1:text="2.2"
   ns1:pdfconverter="pdf2svg"
   ns1:texconverter="pdflatex"
   ns1:version="0.9.1"
   transform="matrix(1.2,0,0,1.2,-13.822541,159.48367)"><g
   id="g2842">
<g
   id="g2840"
   style="fill:#000000;fill-opacity:1">
  <path
   id="path2834"
   transform="translate(148.712,134.765)"
   d="m 1.265625,-0.765625 1.0625,-1.03125 c 1.546875,-1.375 2.140625,-1.90625 2.140625,-2.90625 0,-1.140625 -0.890625,-1.9375 -2.109375,-1.9375 -1.125,0 -1.859375,0.921875 -1.859375,1.8125 0,0.546875 0.5,0.546875 0.53125,0.546875 0.171875,0 0.515625,-0.109375 0.515625,-0.53125 0,-0.25 -0.1875,-0.515625 -0.53125,-0.515625 -0.078125,0 -0.09375,0 -0.125,0.015625 0.21875,-0.65625 0.765625,-1.015625 1.34375,-1.015625 0.90625,0 1.328125,0.8125 1.328125,1.625 C 3.5625,-3.90625 3.078125,-3.125 2.515625,-2.5 l -1.90625,2.125 C 0.5,-0.265625 0.5,-0.234375 0.5,0 H 4.203125 L 4.46875,-1.734375 H 4.234375 C 4.171875,-1.4375 4.109375,-1 4,-0.84375 3.9375,-0.765625 3.28125,-0.765625 3.0625,-0.765625 Z m 0,0"
   style="stroke:none;stroke-width:0"
   inkscape:connector-curvature="0" />
<path
   id="path2836"
   transform="translate(153.6933,134.765)"
   d="m 1.90625,-0.53125 c 0,-0.28125 -0.234375,-0.53125 -0.515625,-0.53125 -0.296875,0 -0.53125,0.25 -0.53125,0.53125 C 0.859375,-0.234375 1.09375,0 1.390625,0 1.671875,0 1.90625,-0.234375 1.90625,-0.53125 Z m 0,0"
   style="stroke:none;stroke-width:0"
   inkscape:connector-curvature="0" />
<path
   id="path2838"
   transform="translate(156.46091,134.765)"
   d="m 1.265625,-0.765625 1.0625,-1.03125 c 1.546875,-1.375 2.140625,-1.90625 2.140625,-2.90625 0,-1.140625 -0.890625,-1.9375 -2.109375,-1.9375 -1.125,0 -1.859375,0.921875 -1.859375,1.8125 0,0.546875 0.5,0.546875 0.53125,0.546875 0.171875,0 0.515625,-0.109375 0.515625,-0.53125 0,-0.25 -0.1875,-0.515625 -0.53125,-0.515625 -0.078125,0 -0.09375,0 -0.125,0.015625 0.21875,-0.65625 0.765625,-1.015625 1.34375,-1.015625 0.90625,0 1.328125,0.8125 1.328125,1.625 C 3.5625,-3.90625 3.078125,-3.125 2.515625,-2.5 l -1.90625,2.125 C 0.5,-0.265625 0.5,-0.234375 0.5,0 H 4.203125 L 4.46875,-1.734375 H 4.234375 C 4.171875,-1.4375 4.109375,-1 4,-0.84375 3.9375,-0.765625 3.28125,-0.765625 3.0625,-0.765625 Z m 0,0"
   style="stroke:none;stroke-width:0"
   inkscape:connector-curvature="0" />
</g>
</g>
</g><g
   id="g3032"
   ns1:jacobian_sqrt="1.2"
   inkscapeversion="0.92.4"
   ns1:alignment="middle center"
   ns1:scale="0.9"
   ns1:preamble="/home/tim/.config/inkscape/extensions/textext/default_packages.tex"
   ns1:text="2"
   ns1:pdfconverter="pdf2svg"
   ns1:texconverter="pdflatex"
   ns1:version="0.9.1"
   transform="matrix(1.2,0,0,1.2,-4.7421962,204.77832)"><g
   id="g3030">
<g
   id="g3028"
   style="fill:#000000;fill-opacity:1">
  <path
   id="path3026"
   transform="translate(148.712,134.765)"
   d="m 1.265625,-0.765625 1.0625,-1.03125 c 1.546875,-1.375 2.140625,-1.90625 2.140625,-2.90625 0,-1.140625 -0.890625,-1.9375 -2.109375,-1.9375 -1.125,0 -1.859375,0.921875 -1.859375,1.8125 0,0.546875 0.5,0.546875 0.53125,0.546875 0.171875,0 0.515625,-0.109375 0.515625,-0.53125 0,-0.25 -0.1875,-0.515625 -0.53125,-0.515625 -0.078125,0 -0.09375,0 -0.125,0.015625 0.21875,-0.65625 0.765625,-1.015625 1.34375,-1.015625 0.90625,0 1.328125,0.8125 1.328125,1.625 C 3.5625,-3.90625 3.078125,-3.125 2.515625,-2.5 l -1.90625,2.125 C 0.5,-0.265625 0.5,-0.234375 0.5,0 H 4.203125 L 4.46875,-1.734375 H 4.234375 C 4.171875,-1.4375 4.109375,-1 4,-0.84375 3.9375,-0.765625 3.28125,-0.765625 3.0625,-0.765625 Z m 0,0"
   style="stroke:none;stroke-width:0"
   inkscape:connector-curvature="0" />
</g>
</g>
</g><g
   id="g3184"
   ns1:jacobian_sqrt="1.2"
   inkscapeversion="0.92.4"
   ns1:alignment="middle center"
   ns1:scale="0.9"
   ns1:preamble="/home/tim/.config/inkscape/extensions/textext/default_packages.tex"
   ns1:text="1.8"
   ns1:pdfconverter="pdf2svg"
   ns1:texconverter="pdflatex"
   ns1:version="0.9.1"
   transform="matrix(1.200000,0.000000,0.000000,1.200000,-14.113166,249.449390)"><g
   id="g3182">
<g
   id="g3180"
   style="fill:rgb(0%,0%,0%);fill-opacity:1;">
  <path
   id="path3174"
   transform="translate(148.712,134.765)"
   d="M 2.9375 -6.375 C 2.9375 -6.625 2.9375 -6.640625 2.703125 -6.640625 C 2.078125 -6 1.203125 -6 0.890625 -6 L 0.890625 -5.6875 C 1.09375 -5.6875 1.671875 -5.6875 2.1875 -5.953125 L 2.1875 -0.78125 C 2.1875 -0.421875 2.15625 -0.3125 1.265625 -0.3125 L 0.953125 -0.3125 L 0.953125 0 C 1.296875 -0.03125 2.15625 -0.03125 2.5625 -0.03125 C 2.953125 -0.03125 3.828125 -0.03125 4.171875 0 L 4.171875 -0.3125 L 3.859375 -0.3125 C 2.953125 -0.3125 2.9375 -0.421875 2.9375 -0.78125 Z M 2.9375 -6.375 "
   style="stroke:none;stroke-width:0" />
<path
   id="path3176"
   transform="translate(153.6933,134.765)"
   d="M 1.90625 -0.53125 C 1.90625 -0.8125 1.671875 -1.0625 1.390625 -1.0625 C 1.09375 -1.0625 0.859375 -0.8125 0.859375 -0.53125 C 0.859375 -0.234375 1.09375 0 1.390625 0 C 1.671875 0 1.90625 -0.234375 1.90625 -0.53125 Z M 1.90625 -0.53125 "
   style="stroke:none;stroke-width:0" />
<path
   id="path3178"
   transform="translate(156.46091,134.765)"
   d="M 1.625 -4.5625 C 1.171875 -4.859375 1.125 -5.1875 1.125 -5.359375 C 1.125 -5.96875 1.78125 -6.390625 2.484375 -6.390625 C 3.203125 -6.390625 3.84375 -5.875 3.84375 -5.15625 C 3.84375 -4.578125 3.453125 -4.109375 2.859375 -3.765625 Z M 3.078125 -3.609375 C 3.796875 -3.984375 4.28125 -4.5 4.28125 -5.15625 C 4.28125 -6.078125 3.40625 -6.640625 2.5 -6.640625 C 1.5 -6.640625 0.6875 -5.90625 0.6875 -4.96875 C 0.6875 -4.796875 0.703125 -4.34375 1.125 -3.875 C 1.234375 -3.765625 1.609375 -3.515625 1.859375 -3.34375 C 1.28125 -3.046875 0.421875 -2.5 0.421875 -1.5 C 0.421875 -0.453125 1.4375 0.21875 2.484375 0.21875 C 3.609375 0.21875 4.5625 -0.609375 4.5625 -1.671875 C 4.5625 -2.03125 4.453125 -2.484375 4.0625 -2.90625 C 3.875 -3.109375 3.71875 -3.203125 3.078125 -3.609375 Z M 2.078125 -3.1875 L 3.3125 -2.40625 C 3.59375 -2.21875 4.0625 -1.921875 4.0625 -1.3125 C 4.0625 -0.578125 3.3125 -0.0625 2.5 -0.0625 C 1.640625 -0.0625 0.921875 -0.671875 0.921875 -1.5 C 0.921875 -2.078125 1.234375 -2.71875 2.078125 -3.1875 Z M 2.078125 -3.1875 "
   style="stroke:none;stroke-width:0" />
</g>
</g>
</g><g
   id="g3338"
   ns1:jacobian_sqrt="1.2"
   inkscapeversion="0.92.4"
   ns1:alignment="middle center"
   ns1:scale="0.9"
   ns1:preamble="/home/tim/.config/inkscape/extensions/textext/default_packages.tex"
   ns1:text="1.6"
   ns1:pdfconverter="pdf2svg"
   ns1:texconverter="pdflatex"
   ns1:version="0.9.1"
   transform="matrix(1.200000,0.000000,0.000000,1.200000,-14.113166,293.759380)"><g
   id="g3336">
<g
   id="g3334"
   style="fill:rgb(0%,0%,0%);fill-opacity:1;">
  <path
   id="path3328"
   transform="translate(148.712,134.765)"
   d="M 2.9375 -6.375 C 2.9375 -6.625 2.9375 -6.640625 2.703125 -6.640625 C 2.078125 -6 1.203125 -6 0.890625 -6 L 0.890625 -5.6875 C 1.09375 -5.6875 1.671875 -5.6875 2.1875 -5.953125 L 2.1875 -0.78125 C 2.1875 -0.421875 2.15625 -0.3125 1.265625 -0.3125 L 0.953125 -0.3125 L 0.953125 0 C 1.296875 -0.03125 2.15625 -0.03125 2.5625 -0.03125 C 2.953125 -0.03125 3.828125 -0.03125 4.171875 0 L 4.171875 -0.3125 L 3.859375 -0.3125 C 2.953125 -0.3125 2.9375 -0.421875 2.9375 -0.78125 Z M 2.9375 -6.375 "
   style="stroke:none;stroke-width:0" />
<path
   id="path3330"
   transform="translate(153.6933,134.765)"
   d="M 1.90625 -0.53125 C 1.90625 -0.8125 1.671875 -1.0625 1.390625 -1.0625 C 1.09375 -1.0625 0.859375 -0.8125 0.859375 -0.53125 C 0.859375 -0.234375 1.09375 0 1.390625 0 C 1.671875 0 1.90625 -0.234375 1.90625 -0.53125 Z M 1.90625 -0.53125 "
   style="stroke:none;stroke-width:0" />
<path
   id="path3332"
   transform="translate(156.46091,134.765)"
   d="M 1.3125 -3.265625 L 1.3125 -3.515625 C 1.3125 -6.03125 2.546875 -6.390625 3.0625 -6.390625 C 3.296875 -6.390625 3.71875 -6.328125 3.9375 -5.984375 C 3.78125 -5.984375 3.390625 -5.984375 3.390625 -5.546875 C 3.390625 -5.234375 3.625 -5.078125 3.84375 -5.078125 C 4 -5.078125 4.3125 -5.171875 4.3125 -5.5625 C 4.3125 -6.15625 3.875 -6.640625 3.046875 -6.640625 C 1.765625 -6.640625 0.421875 -5.359375 0.421875 -3.15625 C 0.421875 -0.484375 1.578125 0.21875 2.5 0.21875 C 3.609375 0.21875 4.5625 -0.71875 4.5625 -2.03125 C 4.5625 -3.296875 3.671875 -4.25 2.5625 -4.25 C 1.890625 -4.25 1.515625 -3.75 1.3125 -3.265625 Z M 2.5 -0.0625 C 1.875 -0.0625 1.578125 -0.65625 1.515625 -0.8125 C 1.328125 -1.28125 1.328125 -2.078125 1.328125 -2.25 C 1.328125 -3.03125 1.65625 -4.03125 2.546875 -4.03125 C 2.71875 -4.03125 3.171875 -4.03125 3.484375 -3.40625 C 3.65625 -3.046875 3.65625 -2.53125 3.65625 -2.046875 C 3.65625 -1.5625 3.65625 -1.0625 3.484375 -0.703125 C 3.1875 -0.109375 2.734375 -0.0625 2.5 -0.0625 Z M 2.5 -0.0625 "
   style="stroke:none;stroke-width:0" />
</g>
</g>
</g><g
   id="g3510"
   ns1:jacobian_sqrt="1.2"
   inkscapeversion="0.92.4"
   ns1:alignment="middle center"
   ns1:scale="0.9"
   ns1:preamble="/home/tim/.config/inkscape/extensions/textext/default_packages.tex"
   ns1:text="1.4"
   ns1:pdfconverter="pdf2svg"
   ns1:texconverter="pdflatex"
   ns1:version="0.9.1"
   transform="matrix(1.200000,0.000000,0.000000,1.200000,-14.188166,339.743245)"><g
   id="g3508">
<g
   id="g3506"
   style="fill:rgb(0%,0%,0%);fill-opacity:1;">
  <path
   id="path3500"
   transform="translate(148.712,134.765)"
   d="M 2.9375 -6.375 C 2.9375 -6.625 2.9375 -6.640625 2.703125 -6.640625 C 2.078125 -6 1.203125 -6 0.890625 -6 L 0.890625 -5.6875 C 1.09375 -5.6875 1.671875 -5.6875 2.1875 -5.953125 L 2.1875 -0.78125 C 2.1875 -0.421875 2.15625 -0.3125 1.265625 -0.3125 L 0.953125 -0.3125 L 0.953125 0 C 1.296875 -0.03125 2.15625 -0.03125 2.5625 -0.03125 C 2.953125 -0.03125 3.828125 -0.03125 4.171875 0 L 4.171875 -0.3125 L 3.859375 -0.3125 C 2.953125 -0.3125 2.9375 -0.421875 2.9375 -0.78125 Z M 2.9375 -6.375 "
   style="stroke:none;stroke-width:0" />
<path
   id="path3502"
   transform="translate(153.6933,134.765)"
   d="M 1.90625 -0.53125 C 1.90625 -0.8125 1.671875 -1.0625 1.390625 -1.0625 C 1.09375 -1.0625 0.859375 -0.8125 0.859375 -0.53125 C 0.859375 -0.234375 1.09375 0 1.390625 0 C 1.671875 0 1.90625 -0.234375 1.90625 -0.53125 Z M 1.90625 -0.53125 "
   style="stroke:none;stroke-width:0" />
<path
   id="path3504"
   transform="translate(156.46091,134.765)"
   d="M 2.9375 -1.640625 L 2.9375 -0.78125 C 2.9375 -0.421875 2.90625 -0.3125 2.171875 -0.3125 L 1.96875 -0.3125 L 1.96875 0 C 2.375 -0.03125 2.890625 -0.03125 3.3125 -0.03125 C 3.734375 -0.03125 4.25 -0.03125 4.671875 0 L 4.671875 -0.3125 L 4.453125 -0.3125 C 3.71875 -0.3125 3.703125 -0.421875 3.703125 -0.78125 L 3.703125 -1.640625 L 4.6875 -1.640625 L 4.6875 -1.953125 L 3.703125 -1.953125 L 3.703125 -6.484375 C 3.703125 -6.6875 3.703125 -6.75 3.53125 -6.75 C 3.453125 -6.75 3.421875 -6.75 3.34375 -6.625 L 0.28125 -1.953125 L 0.28125 -1.640625 Z M 2.984375 -1.953125 L 0.5625 -1.953125 L 2.984375 -5.671875 Z M 2.984375 -1.953125 "
   style="stroke:none;stroke-width:0" />
</g>
</g>
</g><g
   transform="matrix(1.2,0,0,1.2,7.899921,354.69378)"
   ns1:version="0.9.1"
   ns1:texconverter="pdflatex"
   ns1:pdfconverter="pdf2svg"
   ns1:text="2"
   ns1:preamble="/home/tim/.config/inkscape/extensions/textext/default_packages.tex"
   ns1:scale="0.9"
   ns1:alignment="middle center"
   inkscapeversion="0.92.4"
   ns1:jacobian_sqrt="1.2"
   id="g3534"><g
   id="g3532">
<g
   style="fill:#000000;fill-opacity:1"
   id="g3530">
  <path
   inkscape:connector-curvature="0"
   style="stroke:none;stroke-width:0"
   d="m 1.265625,-0.765625 1.0625,-1.03125 c 1.546875,-1.375 2.140625,-1.90625 2.140625,-2.90625 0,-1.140625 -0.890625,-1.9375 -2.109375,-1.9375 -1.125,0 -1.859375,0.921875 -1.859375,1.8125 0,0.546875 0.5,0.546875 0.53125,0.546875 0.171875,0 0.515625,-0.109375 0.515625,-0.53125 0,-0.25 -0.1875,-0.515625 -0.53125,-0.515625 -0.078125,0 -0.09375,0 -0.125,0.015625 0.21875,-0.65625 0.765625,-1.015625 1.34375,-1.015625 0.90625,0 1.328125,0.8125 1.328125,1.625 C 3.5625,-3.90625 3.078125,-3.125 2.515625,-2.5 l -1.90625,2.125 C 0.5,-0.265625 0.5,-0.234375 0.5,0 H 4.203125 L 4.46875,-1.734375 H 4.234375 C 4.171875,-1.4375 4.109375,-1 4,-0.84375 3.9375,-0.765625 3.28125,-0.765625 3.0625,-0.765625 Z m 0,0"
   transform="translate(148.712,134.765)"
   id="path3528" />
</g>
</g>
</g><g
   id="g3721"
   ns1:jacobian_sqrt="1.2"
   inkscapeversion="0.92.4"
   ns1:alignment="middle center"
   ns1:scale="0.9"
   ns1:preamble="/home/tim/.config/inkscape/extensions/textext/default_packages.tex"
   ns1:text="4"
   ns1:pdfconverter="pdf2svg"
   ns1:texconverter="pdflatex"
   ns1:version="0.9.1"
   transform="matrix(1.200000,0.000000,0.000000,1.200000,52.825326,354.759405)"><g
   id="g3719">
<g
   id="g3717"
   style="fill:rgb(0%,0%,0%);fill-opacity:1;">
  <path
   id="path3715"
   transform="translate(148.712,134.765)"
   d="M 2.9375 -1.640625 L 2.9375 -0.78125 C 2.9375 -0.421875 2.90625 -0.3125 2.171875 -0.3125 L 1.96875 -0.3125 L 1.96875 0 C 2.375 -0.03125 2.890625 -0.03125 3.3125 -0.03125 C 3.734375 -0.03125 4.25 -0.03125 4.671875 0 L 4.671875 -0.3125 L 4.453125 -0.3125 C 3.71875 -0.3125 3.703125 -0.421875 3.703125 -0.78125 L 3.703125 -1.640625 L 4.6875 -1.640625 L 4.6875 -1.953125 L 3.703125 -1.953125 L 3.703125 -6.484375 C 3.703125 -6.6875 3.703125 -6.75 3.53125 -6.75 C 3.453125 -6.75 3.421875 -6.75 3.34375 -6.625 L 0.28125 -1.953125 L 0.28125 -1.640625 Z M 2.984375 -1.953125 L 0.5625 -1.953125 L 2.984375 -5.671875 Z M 2.984375 -1.953125 "
   style="stroke:none;stroke-width:0" />
</g>
</g>
</g><g
   id="g3882"
   ns1:jacobian_sqrt="1.2"
   inkscapeversion="0.92.4"
   ns1:alignment="middle center"
   ns1:scale="0.9"
   ns1:preamble="/home/tim/.config/inkscape/extensions/textext/default_packages.tex"
   ns1:text="6"
   ns1:pdfconverter="pdf2svg"
   ns1:texconverter="pdflatex"
   ns1:version="0.9.1"
   transform="matrix(1.200000,0.000000,0.000000,1.200000,97.495189,354.562530)"><g
   id="g3880">
<g
   id="g3878"
   style="fill:rgb(0%,0%,0%);fill-opacity:1;">
  <path
   id="path3876"
   transform="translate(148.712,134.765)"
   d="M 1.3125 -3.265625 L 1.3125 -3.515625 C 1.3125 -6.03125 2.546875 -6.390625 3.0625 -6.390625 C 3.296875 -6.390625 3.71875 -6.328125 3.9375 -5.984375 C 3.78125 -5.984375 3.390625 -5.984375 3.390625 -5.546875 C 3.390625 -5.234375 3.625 -5.078125 3.84375 -5.078125 C 4 -5.078125 4.3125 -5.171875 4.3125 -5.5625 C 4.3125 -6.15625 3.875 -6.640625 3.046875 -6.640625 C 1.765625 -6.640625 0.421875 -5.359375 0.421875 -3.15625 C 0.421875 -0.484375 1.578125 0.21875 2.5 0.21875 C 3.609375 0.21875 4.5625 -0.71875 4.5625 -2.03125 C 4.5625 -3.296875 3.671875 -4.25 2.5625 -4.25 C 1.890625 -4.25 1.515625 -3.75 1.3125 -3.265625 Z M 2.5 -0.0625 C 1.875 -0.0625 1.578125 -0.65625 1.515625 -0.8125 C 1.328125 -1.28125 1.328125 -2.078125 1.328125 -2.25 C 1.328125 -3.03125 1.65625 -4.03125 2.546875 -4.03125 C 2.71875 -4.03125 3.171875 -4.03125 3.484375 -3.40625 C 3.65625 -3.046875 3.65625 -2.53125 3.65625 -2.046875 C 3.65625 -1.5625 3.65625 -1.0625 3.484375 -0.703125 C 3.1875 -0.109375 2.734375 -0.0625 2.5 -0.0625 Z M 2.5 -0.0625 "
   style="stroke:none;stroke-width:0" />
</g>
</g>
</g><g
   id="g4043"
   ns1:jacobian_sqrt="1.2"
   inkscapeversion="0.92.4"
   ns1:alignment="middle center"
   ns1:scale="0.9"
   ns1:preamble="/home/tim/.config/inkscape/extensions/textext/default_packages.tex"
   ns1:text="8"
   ns1:pdfconverter="pdf2svg"
   ns1:texconverter="pdflatex"
   ns1:version="0.9.1"
   transform="matrix(1.200000,0.000000,0.000000,1.200000,142.665335,354.562530)"><g
   id="g4041">
<g
   id="g4039"
   style="fill:rgb(0%,0%,0%);fill-opacity:1;">
  <path
   id="path4037"
   transform="translate(148.712,134.765)"
   d="M 1.625 -4.5625 C 1.171875 -4.859375 1.125 -5.1875 1.125 -5.359375 C 1.125 -5.96875 1.78125 -6.390625 2.484375 -6.390625 C 3.203125 -6.390625 3.84375 -5.875 3.84375 -5.15625 C 3.84375 -4.578125 3.453125 -4.109375 2.859375 -3.765625 Z M 3.078125 -3.609375 C 3.796875 -3.984375 4.28125 -4.5 4.28125 -5.15625 C 4.28125 -6.078125 3.40625 -6.640625 2.5 -6.640625 C 1.5 -6.640625 0.6875 -5.90625 0.6875 -4.96875 C 0.6875 -4.796875 0.703125 -4.34375 1.125 -3.875 C 1.234375 -3.765625 1.609375 -3.515625 1.859375 -3.34375 C 1.28125 -3.046875 0.421875 -2.5 0.421875 -1.5 C 0.421875 -0.453125 1.4375 0.21875 2.484375 0.21875 C 3.609375 0.21875 4.5625 -0.609375 4.5625 -1.671875 C 4.5625 -2.03125 4.453125 -2.484375 4.0625 -2.90625 C 3.875 -3.109375 3.71875 -3.203125 3.078125 -3.609375 Z M 2.078125 -3.1875 L 3.3125 -2.40625 C 3.59375 -2.21875 4.0625 -1.921875 4.0625 -1.3125 C 4.0625 -0.578125 3.3125 -0.0625 2.5 -0.0625 C 1.640625 -0.0625 0.921875 -0.671875 0.921875 -1.5 C 0.921875 -2.078125 1.234375 -2.71875 2.078125 -3.1875 Z M 2.078125 -3.1875 "
   style="stroke:none;stroke-width:0" />
</g>
</g>
</g><g
   id="g4370"
   ns1:jacobian_sqrt="1.2"
   inkscapeversion="0.92.4"
   ns1:alignment="middle center"
   ns1:scale="0.9"
   ns1:preamble="/home/tim/.config/inkscape/extensions/textext/default_packages.tex"
   ns1:text="10"
   ns1:pdfconverter="pdf2svg"
   ns1:texconverter="pdflatex"
   ns1:version="0.9.1"
   transform="matrix(1.200000,0.000000,0.000000,1.200000,184.730140,354.562530)"><g
   id="g4368">
<g
   id="g4366"
   style="fill:rgb(0%,0%,0%);fill-opacity:1;">
  <path
   id="path4362"
   transform="translate(148.712,134.765)"
   d="M 2.9375 -6.375 C 2.9375 -6.625 2.9375 -6.640625 2.703125 -6.640625 C 2.078125 -6 1.203125 -6 0.890625 -6 L 0.890625 -5.6875 C 1.09375 -5.6875 1.671875 -5.6875 2.1875 -5.953125 L 2.1875 -0.78125 C 2.1875 -0.421875 2.15625 -0.3125 1.265625 -0.3125 L 0.953125 -0.3125 L 0.953125 0 C 1.296875 -0.03125 2.15625 -0.03125 2.5625 -0.03125 C 2.953125 -0.03125 3.828125 -0.03125 4.171875 0 L 4.171875 -0.3125 L 3.859375 -0.3125 C 2.953125 -0.3125 2.9375 -0.421875 2.9375 -0.78125 Z M 2.9375 -6.375 "
   style="stroke:none;stroke-width:0" />
<path
   id="path4364"
   transform="translate(153.6933,134.765)"
   d="M 4.578125 -3.1875 C 4.578125 -3.984375 4.53125 -4.78125 4.1875 -5.515625 C 3.734375 -6.484375 2.90625 -6.640625 2.5 -6.640625 C 1.890625 -6.640625 1.171875 -6.375 0.75 -5.453125 C 0.4375 -4.765625 0.390625 -3.984375 0.390625 -3.1875 C 0.390625 -2.4375 0.421875 -1.546875 0.84375 -0.78125 C 1.265625 0.015625 2 0.21875 2.484375 0.21875 C 3.015625 0.21875 3.78125 0.015625 4.21875 -0.9375 C 4.53125 -1.625 4.578125 -2.40625 4.578125 -3.1875 Z M 2.484375 0 C 2.09375 0 1.5 -0.25 1.328125 -1.203125 C 1.21875 -1.796875 1.21875 -2.71875 1.21875 -3.3125 C 1.21875 -3.953125 1.21875 -4.609375 1.296875 -5.140625 C 1.484375 -6.328125 2.234375 -6.421875 2.484375 -6.421875 C 2.8125 -6.421875 3.46875 -6.234375 3.65625 -5.25 C 3.765625 -4.6875 3.765625 -3.9375 3.765625 -3.3125 C 3.765625 -2.5625 3.765625 -1.890625 3.65625 -1.25 C 3.5 -0.296875 2.9375 0 2.484375 0 Z M 2.484375 0 "
   style="stroke:none;stroke-width:0" />
</g>
</g>
</g><g
   id="g7223"
   ns1:jacobian_sqrt="1.2"
   inkscapeversion="0.92.4"
   ns1:alignment="middle center"
   ns1:scale="0.9"
   ns1:preamble="/home/tim/.config/inkscape/extensions/textext/default_packages.tex"
   ns1:text="$\\omega [10^{15}]$ Hz"
   ns1:pdfconverter="pdf2svg"
   ns1:texconverter="pdflatex"
   ns1:version="0.9.1"
   transform="matrix(1.2,0,0,1.2,142.13174,373.69258)"><g
     id="g7221"><g
       id="g7195"
       style="fill:#000000;fill-opacity:1"><path
         id="path7193"
         transform="translate(148.712,134.765)"
         d="m 6.03125,-3.703125 c 0,-0.453125 -0.171875,-0.703125 -0.40625,-0.703125 -0.25,0 -0.515625,0.234375 -0.515625,0.46875 0,0.09375 0.046875,0.203125 0.140625,0.296875 0.171875,0.15625 0.359375,0.421875 0.359375,0.84375 0,0.390625 -0.203125,0.96875 -0.5,1.421875 C 4.8125,-0.953125 4.4375,-0.609375 3.96875,-0.609375 3.40625,-0.609375 3.09375,-0.96875 3,-1.5 c 0.109375,-0.265625 0.34375,-0.90625 0.34375,-1.1875 0,-0.109375 -0.046875,-0.21875 -0.1875,-0.21875 -0.078125,0 -0.1875,0.03125 -0.265625,0.171875 C 2.78125,-2.53125 2.65625,-1.890625 2.65625,-1.53125 2.328125,-1.0625 1.9375,-0.609375 1.3125,-0.609375 c -0.671875,0 -0.875,-0.59375 -0.875,-1.140625 0,-1.25 1.015625,-2.296875 1.015625,-2.421875 0,-0.109375 -0.078125,-0.1875 -0.1875,-0.1875 -0.125,0 -0.203125,0.125 -0.265625,0.21875 -0.5,0.734375 -0.875,1.921875 -0.875,2.828125 0,0.6875 0.21875,1.421875 1.046875,1.421875 0.703125,0 1.171875,-0.5 1.53125,-1.046875 0.09375,0.578125 0.484375,1.046875 1.09375,1.046875 0.78125,0 1.25,-0.609375 1.609375,-1.359375 0.25,-0.484375 0.625,-1.84375 0.625,-2.453125 z m 0,0"
         style="stroke:none;stroke-width:0"
         inkscape:connector-curvature="0" /></g><g
       id="g7203"
       style="fill:#000000;fill-opacity:1"><path
         id="path7197"
         transform="translate(155.271,134.765)"
         d="M 2.546875,2.5 V 2.09375 h -0.96875 v -9.171875 h 0.96875 v -0.40625 h -1.375 V 2.5 Z m 0,0"
         style="stroke:none;stroke-width:0"
         inkscape:connector-curvature="0" /><path
         id="path7199"
         transform="translate(158.03861,134.765)"
         d="m 2.9375,-6.375 c 0,-0.25 0,-0.265625 -0.234375,-0.265625 C 2.078125,-6 1.203125,-6 0.890625,-6 v 0.3125 c 0.203125,0 0.78125,0 1.296875,-0.265625 v 5.171875 c 0,0.359375 -0.03125,0.46875 -0.921875,0.46875 h -0.3125 V 0 c 0.34375,-0.03125 1.203125,-0.03125 1.609375,-0.03125 0.390625,0 1.265625,0 1.609375,0.03125 v -0.3125 h -0.3125 c -0.90625,0 -0.921875,-0.109375 -0.921875,-0.46875 z m 0,0"
         style="stroke:none;stroke-width:0"
         inkscape:connector-curvature="0" /><path
         id="path7201"
         transform="translate(163.01991,134.765)"
         d="m 4.578125,-3.1875 c 0,-0.796875 -0.046875,-1.59375 -0.390625,-2.328125 -0.453125,-0.96875 -1.28125,-1.125 -1.6875,-1.125 -0.609375,0 -1.328125,0.265625 -1.75,1.1875 -0.3125,0.6875 -0.359375,1.46875 -0.359375,2.265625 0,0.75 0.03125,1.640625 0.453125,2.40625 0.421875,0.796875 1.15625,1 1.640625,1 0.53125,0 1.296875,-0.203125 1.734375,-1.15625 0.3125,-0.6875 0.359375,-1.46875 0.359375,-2.25 z M 2.484375,0 C 2.09375,0 1.5,-0.25 1.328125,-1.203125 1.21875,-1.796875 1.21875,-2.71875 1.21875,-3.3125 c 0,-0.640625 0,-1.296875 0.078125,-1.828125 0.1875,-1.1875 0.9375,-1.28125 1.1875,-1.28125 0.328125,0 0.984375,0.1875 1.171875,1.171875 0.109375,0.5625 0.109375,1.3125 0.109375,1.9375 0,0.75 0,1.421875 -0.109375,2.0625 C 3.5,-0.296875 2.9375,0 2.484375,0 Z m 0,0"
         style="stroke:none;stroke-width:0"
         inkscape:connector-curvature="0" /></g><g
       id="g7209"
       style="fill:#000000;fill-opacity:1"><path
         id="path7205"
         transform="translate(168.001,131.149)"
         d="m 2.328125,-4.4375 c 0,-0.1875 0,-0.1875 -0.203125,-0.1875 -0.453125,0.4375 -1.078125,0.4375 -1.359375,0.4375 v 0.25 c 0.15625,0 0.625,0 1,-0.1875 v 3.546875 c 0,0.234375 0,0.328125 -0.6875,0.328125 H 0.8125 V 0 c 0.125,0 0.984375,-0.03125 1.234375,-0.03125 0.21875,0 1.09375,0.03125 1.25,0.03125 V -0.25 H 3.03125 c -0.703125,0 -0.703125,-0.09375 -0.703125,-0.328125 z m 0,0"
         style="stroke:none;stroke-width:0"
         inkscape:connector-curvature="0" /><path
         id="path7207"
         transform="translate(171.97258,131.149)"
         d="m 1.078125,-3.890625 c 0.359375,0.09375 0.5625,0.09375 0.671875,0.09375 0.921875,0 1.46875,-0.625 1.46875,-0.734375 0,-0.078125 -0.046875,-0.09375 -0.078125,-0.09375 -0.015625,0 -0.03125,0 -0.0625,0.015625 -0.171875,0.0625 -0.53125,0.203125 -1.046875,0.203125 -0.203125,0 -0.5625,-0.015625 -1.015625,-0.1875 C 0.9375,-4.625 0.921875,-4.625 0.921875,-4.625 c -0.09375,0 -0.09375,0.078125 -0.09375,0.1875 v 2.046875 c 0,0.125 0,0.203125 0.109375,0.203125 0.0625,0 0.078125,0 0.140625,-0.09375 0.296875,-0.375 0.734375,-0.4375 0.96875,-0.4375 0.421875,0 0.609375,0.328125 0.640625,0.390625 0.125,0.234375 0.171875,0.5 0.171875,0.90625 0,0.203125 0,0.609375 -0.21875,0.921875 -0.171875,0.25 -0.46875,0.421875 -0.8125,0.421875 -0.453125,0 -0.921875,-0.25 -1.09375,-0.71875 0.265625,0.015625 0.40625,-0.15625 0.40625,-0.34375 0,-0.296875 -0.265625,-0.34375 -0.359375,-0.34375 0,0 -0.34375,0 -0.34375,0.375 0,0.625 0.578125,1.25 1.40625,1.25 0.890625,0 1.671875,-0.65625 1.671875,-1.546875 0,-0.78125 -0.59375,-1.5 -1.453125,-1.5 -0.3125,0 -0.671875,0.0625 -0.984375,0.328125 z m 0,0"
         style="stroke:none;stroke-width:0"
         inkscape:connector-curvature="0" /></g><g
       id="g7213"
       style="fill:#000000;fill-opacity:1"><path
         id="path7211"
         transform="translate(176.442,134.765)"
         d="M 1.578125,-7.484375 H 0.21875 v 0.40625 H 1.1875 V 2.09375 H 0.21875 V 2.5 h 1.359375 z m 0,0"
         style="stroke:none;stroke-width:0"
         inkscape:connector-curvature="0" /></g><g
       id="g7219"
       style="fill:#000000;fill-opacity:1"><path
         id="path7215"
         transform="translate(182.52716,134.765)"
         d="M 6.109375,-6.03125 C 6.109375,-6.390625 6.125,-6.5 6.890625,-6.5 h 0.25 v -0.3125 c -0.359375,0.03125 -1.09375,0.03125 -1.46875,0.03125 -0.375,0 -1.125,0 -1.46875,-0.03125 V -6.5 H 4.4375 c 0.765625,0 0.78125,0.109375 0.78125,0.46875 v 2.328125 H 2.25 V -6.03125 C 2.25,-6.390625 2.265625,-6.5 3.03125,-6.5 h 0.234375 v -0.3125 c -0.34375,0.03125 -1.078125,0.03125 -1.46875,0.03125 -0.375,0 -1.125,0 -1.46875,-0.03125 V -6.5 H 0.5625 c 0.765625,0 0.796875,0.109375 0.796875,0.46875 v 5.25 c 0,0.359375 -0.03125,0.46875 -0.796875,0.46875 H 0.328125 V 0 c 0.34375,-0.03125 1.09375,-0.03125 1.46875,-0.03125 0.375,0 1.125,0 1.46875,0.03125 V -0.3125 H 3.03125 C 2.265625,-0.3125 2.25,-0.421875 2.25,-0.78125 v -2.609375 h 2.96875 v 2.609375 c 0,0.359375 -0.015625,0.46875 -0.78125,0.46875 H 4.203125 V 0 c 0.34375,-0.03125 1.078125,-0.03125 1.453125,-0.03125 0.390625,0 1.125,0 1.484375,0.03125 v -0.3125 h -0.25 c -0.765625,0 -0.78125,-0.109375 -0.78125,-0.46875 z m 0,0"
         style="stroke:none;stroke-width:0"
         inkscape:connector-curvature="0" /><path
         id="path7217"
         transform="translate(189.99911,134.765)"
         d="m 3.890625,-4 c 0.09375,-0.109375 0.09375,-0.125 0.09375,-0.171875 0,-0.125 -0.09375,-0.125 -0.265625,-0.125 H 0.53125 L 0.421875,-2.6875 h 0.25 c 0.0625,-1.015625 0.25,-1.390625 1.34375,-1.390625 H 3.15625 L 0.375,-0.3125 C 0.28125,-0.203125 0.28125,-0.1875 0.28125,-0.140625 0.28125,0 0.34375,0 0.53125,0 H 3.828125 L 4,-1.859375 H 3.75 C 3.65625,-0.6875 3.453125,-0.25 2.296875,-0.25 h -1.1875 z m 0,0"
         style="stroke:none;stroke-width:0"
         inkscape:connector-curvature="0" /></g></g></g><g
   id="g7566"
   ns1:jacobian_sqrt="1.2"
   inkscapeversion="0.92.4"
   ns1:alignment="middle center"
   ns1:scale="0.9"
   ns1:preamble="/home/tim/.config/inkscape/extensions/textext/default_packages.tex"
   ns1:text="VIS"
   ns1:pdfconverter="pdf2svg"
   ns1:texconverter="pdflatex"
   ns1:version="0.9.1"
   transform="matrix(1.0975525,0,0,1.0975525,97.162903,324.26616)"><g
     id="g7564"><g
       id="g7562"
       style="fill:#000000;fill-opacity:1"><path
         id="path7556"
         transform="translate(148.712,134.765)"
         d="M 6.1875,-5.828125 C 6.328125,-6.203125 6.59375,-6.484375 7.28125,-6.5 v -0.3125 c -0.3125,0.03125 -0.71875,0.03125 -0.96875,0.03125 -0.296875,0 -0.875,-0.015625 -1.140625,-0.03125 V -6.5 C 5.6875,-6.484375 5.90625,-6.234375 5.90625,-6 c 0,0.078125 -0.03125,0.140625 -0.046875,0.203125 L 4.03125,-1 2.125,-6.03125 C 2.0625,-6.171875 2.0625,-6.1875 2.0625,-6.203125 2.0625,-6.5 2.625,-6.5 2.875,-6.5 v -0.3125 c -0.359375,0.03125 -1.046875,0.03125 -1.421875,0.03125 -0.46875,0 -0.90625,-0.015625 -1.265625,-0.03125 V -6.5 c 0.65625,0 0.84375,0 0.984375,0.375 L 3.484375,0 c 0.0625,0.1875 0.109375,0.21875 0.25,0.21875 0.15625,0 0.1875,-0.046875 0.234375,-0.1875 z m 0,0"
         style="stroke:none;stroke-width:0"
         inkscape:connector-curvature="0" /><path
         id="path7558"
         transform="translate(156.18395,134.765)"
         d="M 2.25,-6.03125 C 2.25,-6.390625 2.265625,-6.5 3.0625,-6.5 h 0.25 v -0.3125 c -0.34375,0.03125 -1.125,0.03125 -1.515625,0.03125 -0.375,0 -1.171875,0 -1.515625,-0.03125 V -6.5 h 0.25 c 0.796875,0 0.828125,0.109375 0.828125,0.46875 v 5.25 c 0,0.359375 -0.03125,0.46875 -0.828125,0.46875 h -0.25 V 0 c 0.34375,-0.03125 1.140625,-0.03125 1.515625,-0.03125 0.390625,0 1.171875,0 1.515625,0.03125 v -0.3125 h -0.25 C 2.265625,-0.3125 2.25,-0.421875 2.25,-0.78125 Z m 0,0"
         style="stroke:none;stroke-width:0"
         inkscape:connector-curvature="0" /><path
         id="path7560"
         transform="translate(159.78144,134.765)"
         d="m 3.484375,-3.875 -1.28125,-0.296875 c -0.625,-0.15625 -1,-0.6875 -1,-1.265625 0,-0.703125 0.53125,-1.3125 1.3125,-1.3125 1.65625,0 1.875,1.640625 1.9375,2.078125 0.015625,0.0625 0.015625,0.125 0.125,0.125 0.125,0 0.125,-0.046875 0.125,-0.234375 v -2 c 0,-0.171875 0,-0.25 -0.109375,-0.25 -0.0625,0 -0.078125,0.015625 -0.140625,0.140625 l -0.359375,0.5625 C 3.796875,-6.625 3.390625,-7.03125 2.5,-7.03125 c -1.109375,0 -1.9375,0.875 -1.9375,1.9375 0,0.828125 0.53125,1.5625 1.296875,1.828125 0.109375,0.03125 0.625,0.15625 1.328125,0.328125 0.265625,0.0625 0.5625,0.140625 0.84375,0.5 0.203125,0.265625 0.3125,0.59375 0.3125,0.921875 0,0.703125 -0.5,1.421875 -1.34375,1.421875 -0.28125,0 -1.046875,-0.046875 -1.578125,-0.53125 C 0.84375,-1.171875 0.8125,-1.796875 0.8125,-2.15625 0.796875,-2.265625 0.71875,-2.265625 0.6875,-2.265625 c -0.125,0 -0.125,0.078125 -0.125,0.25 v 2 c 0,0.171875 0,0.234375 0.109375,0.234375 0.0625,0 0.078125,-0.015625 0.140625,-0.125 0,-0.015625 0.03125,-0.046875 0.359375,-0.578125 0.3125,0.34375 0.953125,0.703125 1.84375,0.703125 1.15625,0 1.953125,-0.96875 1.953125,-2.078125 0,-0.984375 -0.65625,-1.8125 -1.484375,-2.015625 z m 0,0"
         style="stroke:none;stroke-width:0"
         inkscape:connector-curvature="0" /></g></g></g></g></svg>