<?xml version="1.0" encoding="UTF-8" standalone="no"?>
<!-- Created with Inkscape (http://www.inkscape.org/) -->

<svg
   xmlns:ns1="http://www.iki.fi/pav/software/textext/"
   xmlns:dc="http://purl.org/dc/elements/1.1/"
   xmlns:cc="http://creativecommons.org/ns#"
   xmlns:rdf="http://www.w3.org/1999/02/22-rdf-syntax-ns#"
   xmlns:svg="http://www.w3.org/2000/svg"
   xmlns="http://www.w3.org/2000/svg"
   xmlns:sodipodi="http://sodipodi.sourceforge.net/DTD/sodipodi-0.dtd"
   xmlns:inkscape="http://www.inkscape.org/namespaces/inkscape"
   version="1.1"
   id="svg834"
   xml:space="preserve"
   width="793.70081"
   height="1122.5197"
   viewBox="0 0 793.70081 1122.5197"
   sodipodi:docname="bg_dispersion.svg"
   inkscape:version="0.92.4 5da689c313, 2019-01-14"><metadata
     id="metadata840"><rdf:RDF><cc:Work
         rdf:about=""><dc:format>image/svg+xml</dc:format><dc:type
           rdf:resource="http://purl.org/dc/dcmitype/StillImage" /><dc:title></dc:title></cc:Work></rdf:RDF></metadata><defs
     id="defs838"><clipPath
   clipPathUnits="userSpaceOnUse"
   id="clipPath906"><path
     d="m 218,300 h 224.355 v 3 H 218 Z"
     id="path904"
     inkscape:connector-curvature="0" /></clipPath><clipPath
   clipPathUnits="userSpaceOnUse"
   id="clipPath920"><path
     d="M 187,144.277 H 442.355 V 303 H 187 Z"
     id="path918"
     inkscape:connector-curvature="0" /></clipPath><clipPath
   clipPathUnits="userSpaceOnUse"
   id="clipPath936"><path
     d="M 193,144.277 H 437 V 146 H 193 Z"
     id="path934"
     inkscape:connector-curvature="0" /></clipPath><clipPath
   clipPathUnits="userSpaceOnUse"
   id="clipPath946"><path
     d="M 187,144.277 H 442.355 V 303 H 187 Z"
     id="path944"
     inkscape:connector-curvature="0" /></clipPath><clipPath
   clipPathUnits="userSpaceOnUse"
   id="clipPath956"><path
     d="m 441,149 h 1.355 V 298 H 441 Z"
     id="path954"
     inkscape:connector-curvature="0" /></clipPath><clipPath
   clipPathUnits="userSpaceOnUse"
   id="clipPath966"><path
     d="m 442,144.277 h 0.355 V 303 H 442 Z"
     id="path964"
     inkscape:connector-curvature="0" /></clipPath><clipPath
   clipPathUnits="userSpaceOnUse"
   id="clipPath976"><path
     d="M 187.18,144.402 H 442.356 V 302.289 H 187.18 Z"
     id="path974"
     inkscape:connector-curvature="0" /></clipPath><clipPath
   clipPathUnits="userSpaceOnUse"
   id="clipPath986"><path
     d="M 187.18,293 H 188 v 9.289 h -0.82 z"
     id="path984"
     inkscape:connector-curvature="0" /></clipPath><clipPath
   clipPathUnits="userSpaceOnUse"
   id="clipPath996"><path
     d="M 187.18,286 H 188 v 9 h -0.82 z"
     id="path994"
     inkscape:connector-curvature="0" /></clipPath><clipPath
   clipPathUnits="userSpaceOnUse"
   id="clipPath1006"><path
     d="M 187.18,277 H 188 v 10 h -0.82 z"
     id="path1004"
     inkscape:connector-curvature="0" /></clipPath><clipPath
   clipPathUnits="userSpaceOnUse"
   id="clipPath1016"><path
     d="M 187.18,268 H 188 v 10 h -0.82 z"
     id="path1014"
     inkscape:connector-curvature="0" /></clipPath><clipPath
   clipPathUnits="userSpaceOnUse"
   id="clipPath1026"><path
     d="M 187.18,260 H 188 v 5 h -0.82 z"
     id="path1024"
     inkscape:connector-curvature="0" /></clipPath><clipPath
   clipPathUnits="userSpaceOnUse"
   id="clipPath1036"><path
     d="M 187.18,253 H 188 v 4 h -0.82 z"
     id="path1034"
     inkscape:connector-curvature="0" /></clipPath><clipPath
   clipPathUnits="userSpaceOnUse"
   id="clipPath1046"><path
     d="M 187.18,245 H 188 v 5 h -0.82 z"
     id="path1044"
     inkscape:connector-curvature="0" /></clipPath><clipPath
   clipPathUnits="userSpaceOnUse"
   id="clipPath1056"><path
     d="M 187.18,232 H 188 v 10 h -0.82 z"
     id="path1054"
     inkscape:connector-curvature="0" /></clipPath><clipPath
   clipPathUnits="userSpaceOnUse"
   id="clipPath1066"><path
     d="M 187.18,223 H 188 v 10 h -0.82 z"
     id="path1064"
     inkscape:connector-curvature="0" /></clipPath><clipPath
   clipPathUnits="userSpaceOnUse"
   id="clipPath1076"><path
     d="M 187.18,214 H 188 v 10 h -0.82 z"
     id="path1074"
     inkscape:connector-curvature="0" /></clipPath><clipPath
   clipPathUnits="userSpaceOnUse"
   id="clipPath1086"><path
     d="M 187.18,209 H 188 v 2 h -0.82 z"
     id="path1084"
     inkscape:connector-curvature="0" /></clipPath><clipPath
   clipPathUnits="userSpaceOnUse"
   id="clipPath1096"><path
     d="m 187.18,169 h 255.176 v 40 H 187.18 Z"
     id="path1094"
     inkscape:connector-curvature="0" /></clipPath><clipPath
   clipPathUnits="userSpaceOnUse"
   id="clipPath1106"><path
     d="M 187.18,161 H 188 v 5 h -0.82 z"
     id="path1104"
     inkscape:connector-curvature="0" /></clipPath><clipPath
   clipPathUnits="userSpaceOnUse"
   id="clipPath1116"><path
     d="M 187.18,154 H 188 v 4 h -0.82 z"
     id="path1114"
     inkscape:connector-curvature="0" /></clipPath><clipPath
   clipPathUnits="userSpaceOnUse"
   id="clipPath1126"><path
     d="M 187.18,146 H 188 v 5 h -0.82 z"
     id="path1124"
     inkscape:connector-curvature="0" /></clipPath><clipPath
   clipPathUnits="userSpaceOnUse"
   id="clipPath1136"><path
     d="M 187.18,144.402 H 265 v 157.887 h -77.82 z"
     id="path1134"
     inkscape:connector-curvature="0" /></clipPath><clipPath
   clipPathUnits="userSpaceOnUse"
   id="clipPath1146"><path
     d="M 187.18,144.402 H 442.356 V 302.289 H 187.18 Z"
     id="path1144"
     inkscape:connector-curvature="0" /></clipPath><clipPath
   clipPathUnits="userSpaceOnUse"
   id="clipPath1156"><path
     d="M 187.18,293 H 188 v 9.289 h -0.82 z"
     id="path1154"
     inkscape:connector-curvature="0" /></clipPath><clipPath
   clipPathUnits="userSpaceOnUse"
   id="clipPath1166"><path
     d="M 187.18,286 H 188 v 9 h -0.82 z"
     id="path1164"
     inkscape:connector-curvature="0" /></clipPath><clipPath
   clipPathUnits="userSpaceOnUse"
   id="clipPath1176"><path
     d="M 187.18,277 H 188 v 10 h -0.82 z"
     id="path1174"
     inkscape:connector-curvature="0" /></clipPath><clipPath
   clipPathUnits="userSpaceOnUse"
   id="clipPath1186"><path
     d="M 187.18,268 H 188 v 10 h -0.82 z"
     id="path1184"
     inkscape:connector-curvature="0" /></clipPath><clipPath
   clipPathUnits="userSpaceOnUse"
   id="clipPath1196"><path
     d="M 187.18,260 H 188 v 5 h -0.82 z"
     id="path1194"
     inkscape:connector-curvature="0" /></clipPath><clipPath
   clipPathUnits="userSpaceOnUse"
   id="clipPath1206"><path
     d="M 187.18,253 H 188 v 4 h -0.82 z"
     id="path1204"
     inkscape:connector-curvature="0" /></clipPath><clipPath
   clipPathUnits="userSpaceOnUse"
   id="clipPath1216"><path
     d="M 187.18,245 H 188 v 5 h -0.82 z"
     id="path1214"
     inkscape:connector-curvature="0" /></clipPath><clipPath
   clipPathUnits="userSpaceOnUse"
   id="clipPath1226"><path
     d="M 187.18,232 H 188 v 10 h -0.82 z"
     id="path1224"
     inkscape:connector-curvature="0" /></clipPath><clipPath
   clipPathUnits="userSpaceOnUse"
   id="clipPath1236"><path
     d="M 187.18,230 H 188 v 3 h -0.82 z"
     id="path1234"
     inkscape:connector-curvature="0" /></clipPath><clipPath
   clipPathUnits="userSpaceOnUse"
   id="clipPath1246"><path
     d="m 187.18,169 h 255.176 v 60 H 187.18 Z"
     id="path1244"
     inkscape:connector-curvature="0" /></clipPath><clipPath
   clipPathUnits="userSpaceOnUse"
   id="clipPath1256"><path
     d="M 187.18,162 H 188 v 4 h -0.82 z"
     id="path1254"
     inkscape:connector-curvature="0" /></clipPath><clipPath
   clipPathUnits="userSpaceOnUse"
   id="clipPath1266"><path
     d="M 187.18,149 H 188 v 9 h -0.82 z"
     id="path1264"
     inkscape:connector-curvature="0" /></clipPath><clipPath
   clipPathUnits="userSpaceOnUse"
   id="clipPath1276"><path
     d="M 187.18,146 H 188 v 4 h -0.82 z"
     id="path1274"
     inkscape:connector-curvature="0" /></clipPath><clipPath
   clipPathUnits="userSpaceOnUse"
   id="clipPath1286"><path
     d="M 187.18,144.402 H 303 V 302.289 H 187.18 Z"
     id="path1284"
     inkscape:connector-curvature="0" /></clipPath>

















</defs><sodipodi:namedview
     pagecolor="#ffffff"
     bordercolor="#666666"
     borderopacity="1"
     objecttolerance="10"
     gridtolerance="10"
     guidetolerance="10"
     inkscape:pageopacity="0"
     inkscape:pageshadow="2"
     inkscape:window-width="1920"
     inkscape:window-height="1052"
     id="namedview836"
     showgrid="false"
     inkscape:zoom="2.1543544"
     inkscape:cx="319.10133"
     inkscape:cy="514.24356"
     inkscape:window-x="0"
     inkscape:window-y="28"
     inkscape:window-maximized="1"
     inkscape:current-layer="g842" /><g
     id="g842"
     inkscape:groupmode="layer"
     inkscape:label="bg_dispersion"
     transform="matrix(1.3333333,0,0,1.3333333,0,4.2729659e-5)"><g
   id="g960" />






















































<g
   id="g900"
   transform="translate(8.3865381,165.23826)"><g
     id="g902"
     clip-path="url(#clipPath906)"><path
       d="m 219.113,302.289 v -1.598 m 31.934,1.598 v -1.598 m 31.933,1.598 v -1.598 m 31.934,1.598 v -1.598 m 31.934,1.598 v -1.598 m 31.933,1.598 v -1.598 m 31.934,1.598 v -1.598 m 31.933,1.598 v -1.598"
       style="fill:none;stroke:#131313;stroke-width:0.25;stroke-linecap:round;stroke-linejoin:round;stroke-miterlimit:10;stroke-dasharray:none;stroke-opacity:1"
       id="path908"
       inkscape:connector-curvature="0" /></g></g><g
   id="g910"
   transform="translate(8.3865381,165.23826)"><path
     d="m 193.566,302.289 v -0.961 m 6.387,0.961 v -0.961 m 6.387,0.961 v -0.961 m 6.387,0.961 v -0.961 m 12.773,0.961 v -0.961 m 6.387,0.961 v -0.961 m 6.386,0.961 v -0.961 m 6.387,0.961 v -0.961 m 12.774,0.961 v -0.961 m 6.386,0.961 v -0.961 m 6.387,0.961 v -0.961 m 6.387,0.961 v -0.961 m 12.773,0.961 v -0.961 m 6.387,0.961 v -0.961 m 6.387,0.961 v -0.961 m 6.386,0.961 v -0.961 m 12.774,0.961 v -0.961 m 6.387,0.961 v -0.961 m 6.386,0.961 v -0.961 m 6.387,0.961 v -0.961 m 12.773,0.961 v -0.961 m 6.387,0.961 v -0.961 m 6.387,0.961 v -0.961 m 6.387,0.961 v -0.961 m 12.773,0.961 v -0.961 m 6.387,0.961 v -0.961 m 6.386,0.961 v -0.961 m 6.387,0.961 v -0.961 m 12.774,0.961 v -0.961 m 6.386,0.961 v -0.961 m 6.387,0.961 v -0.961 m 6.387,0.961 v -0.961"
     style="fill:none;stroke:#131313;stroke-width:0.25;stroke-linecap:round;stroke-linejoin:round;stroke-miterlimit:10;stroke-dasharray:none;stroke-opacity:1"
     id="path912"
     inkscape:connector-curvature="0" /></g><g
   id="g914"
   transform="translate(8.3865381,165.25826)"><g
     id="g916"
     clip-path="url(#clipPath920)"><path
       d="M 187.18,302.289 H 442.648 M 187.18,275.973 h 1.597 M 187.18,249.66 h 1.597 m -1.597,-26.316 h 1.597 m -1.597,-26.313 h 1.597 m -1.597,-26.316 h 1.597 m -1.597,-26.313 h 1.597"
       style="fill:none;stroke:#131313;stroke-width:0.25;stroke-linecap:round;stroke-linejoin:round;stroke-miterlimit:10;stroke-dasharray:none;stroke-opacity:1"
       id="path922"
       inkscape:connector-curvature="0" /><path
       d="m 187.18,297.027 h 0.957 m -0.957,-5.261 h 0.957 M 187.18,286.5 h 0.957 m -0.957,-5.262 h 0.957 m -0.957,-10.527 h 0.957 m -0.957,-5.262 h 0.957 m -0.957,-5.265 h 0.957 m -0.957,-5.262 h 0.957 m -0.957,-10.524 h 0.957 m -0.957,-5.261 h 0.957 m -0.957,-5.266 h 0.957 m -0.957,-5.266 h 0.957 m -0.957,-10.523 h 0.957 m -0.957,-5.262 h 0.957 m -0.957,-5.265 h 0.957 m -0.957,-5.262 h 0.957 M 187.18,191.77 h 0.957 m -0.957,-5.262 h 0.957 m -0.957,-5.27 h 0.957 m -0.957,-5.261 h 0.957 m -0.957,-10.524 h 0.957 m -0.957,-5.262 h 0.957 m -0.957,-5.265 h 0.957 m -0.957,-5.262 h 0.957"
       style="fill:none;stroke:#131313;stroke-width:0.25;stroke-linecap:round;stroke-linejoin:round;stroke-miterlimit:10;stroke-dasharray:none;stroke-opacity:1"
       id="path924"
       inkscape:connector-curvature="0" /></g></g><g
   id="g926"
   transform="translate(8.3865381,165.23826)"><path
     d="M 187.18,302.289 V 144.402 m 0,1.598 v -1.598 M 219.113,146 v -1.598 M 251.047,146 v -1.598 M 282.98,146 v -1.598 M 314.914,146 v -1.598 M 346.848,146 v -1.598 M 378.781,146 v -1.598 M 410.715,146 v -1.598"
     style="fill:none;stroke:#131313;stroke-width:0.25;stroke-linecap:round;stroke-linejoin:round;stroke-miterlimit:10;stroke-dasharray:none;stroke-opacity:1"
     id="path928"
     inkscape:connector-curvature="0" /></g><g
   id="g930"
   transform="translate(8.3865381,165.23826)"><g
     id="g932"
     clip-path="url(#clipPath936)"><path
       d="m 193.566,145.359 v -0.957 m 6.387,0.957 v -0.957 m 6.387,0.957 v -0.957 m 6.387,0.957 v -0.957 m 12.773,0.957 v -0.957 m 6.387,0.957 v -0.957 m 6.386,0.957 v -0.957 m 6.387,0.957 v -0.957 m 12.774,0.957 v -0.957 m 6.386,0.957 v -0.957 m 6.387,0.957 v -0.957 m 6.387,0.957 v -0.957 m 12.773,0.957 v -0.957 m 6.387,0.957 v -0.957 m 6.387,0.957 v -0.957 m 6.386,0.957 v -0.957 m 12.774,0.957 v -0.957 m 6.387,0.957 v -0.957 m 6.386,0.957 v -0.957 m 6.387,0.957 v -0.957 m 12.773,0.957 v -0.957 m 6.387,0.957 v -0.957 m 6.387,0.957 v -0.957 m 6.387,0.957 v -0.957 m 12.773,0.957 v -0.957 m 6.387,0.957 v -0.957 m 6.386,0.957 v -0.957 m 6.387,0.957 v -0.957 m 12.774,0.957 v -0.957 m 6.386,0.957 v -0.957 m 6.387,0.957 v -0.957 m 6.387,0.957 v -0.957"
       style="fill:none;stroke:#131313;stroke-width:0.25;stroke-linecap:round;stroke-linejoin:round;stroke-miterlimit:10;stroke-dasharray:none;stroke-opacity:1"
       id="path938"
       inkscape:connector-curvature="0" /></g></g><g
   id="g940"
   transform="translate(8.3865381,165.23826)"><g
     id="g942"
     clip-path="url(#clipPath946)"><path
       d="m 187.18,144.402 h 255.468 m -1.597,157.887 h 1.597 m -1.597,-26.316 h 1.597 m -1.597,-26.313 h 1.597 m -1.597,-26.316 h 1.597 m -1.597,-26.313 h 1.597 m -1.597,-26.316 h 1.597"
       style="fill:none;stroke:#131313;stroke-width:0.25;stroke-linecap:round;stroke-linejoin:round;stroke-miterlimit:10;stroke-dasharray:none;stroke-opacity:1"
       id="path948"
       inkscape:connector-curvature="0" /></g></g><g
   id="g950"
   transform="translate(8.3865381,165.23826)"><g
     id="g952"
     clip-path="url(#clipPath956)"><path
       d="m 441.688,297.027 h 0.96 m -0.96,-5.261 h 0.96 m -0.96,-5.266 h 0.96 m -0.96,-5.262 h 0.96 m -0.96,-10.527 h 0.96 m -0.96,-5.262 h 0.96 m -0.96,-5.265 h 0.96 m -0.96,-5.262 h 0.96 m -0.96,-10.524 h 0.96 m -0.96,-5.261 h 0.96 m -0.96,-5.266 h 0.96 m -0.96,-5.266 h 0.96 m -0.96,-10.523 h 0.96 m -0.96,-5.262 h 0.96 m -0.96,-5.265 h 0.96 m -0.96,-5.262 h 0.96 m -0.96,-10.523 h 0.96 m -0.96,-5.262 h 0.96 m -0.96,-5.27 h 0.96 m -0.96,-5.261 h 0.96 m -0.96,-10.524 h 0.96 m -0.96,-5.262 h 0.96 m -0.96,-5.265 h 0.96 m -0.96,-5.262 h 0.96"
       style="fill:none;stroke:#131313;stroke-width:0.25;stroke-linecap:round;stroke-linejoin:round;stroke-miterlimit:10;stroke-dasharray:none;stroke-opacity:1"
       id="path958"
       inkscape:connector-curvature="0" /></g></g><g
   id="g970"
   transform="translate(8.3865381,165.23826)"><g
     id="g972"
     clip-path="url(#clipPath976)"><path
       sodipodi:nodetypes="ccccccccccccccccccccccccccccccccc"
       d="m 187.18,302.289 3.113,-6.402 3.422,-6.989 3.265,-6.558 3.219,-6.313 3.551,-6.715 3.598,-6.46 4.09,-6.875 4.343,-6.618 4.746,-6.371 6.047,-6.773 3.625,-3.367 3.973,-3.157 4.898,-3.214 c 4.63283,-2.78278 9.63753,-4.6446 14.711,-6.415 l 5.621,-1.582 6.727,-1.488 4.574,-0.824 5.945,-0.887 6.024,-0.742 8.238,-0.809 11.899,-0.882 8.531,-0.481 9.965,-0.449 11.918,-0.422 14.218,-0.383 9.911,-0.211 13.214,-0.23 15.829,-0.215 19.043,-0.203 24.898,-0.195 m 0,0 12.312,-0.067"
       style="fill:none;stroke:#909294;stroke-width:0.49000001;stroke-linecap:round;stroke-linejoin:round;stroke-miterlimit:10;stroke-dasharray:none;stroke-opacity:1"
       id="path978"
       inkscape:connector-curvature="0" /></g></g><g
   id="g980"
   transform="translate(8.3865381,165.23826)"><g
     id="g982"
     clip-path="url(#clipPath986)"><path
       d="m 187.18,302.289 v -8.152"
       style="fill:none;stroke:#909294;stroke-width:0.49000001;stroke-linecap:round;stroke-linejoin:round;stroke-miterlimit:10;stroke-dasharray:2.555, 5.109;stroke-dashoffset:0;stroke-opacity:1"
       id="path988"
       inkscape:connector-curvature="0" /></g></g><g
   id="g990"
   transform="translate(8.3865381,165.23826)"><g
     id="g992"
     clip-path="url(#clipPath996)"><path
       d="M 187.18,294.137 V 286.52"
       style="fill:none;stroke:#909294;stroke-width:0.49000001;stroke-linecap:round;stroke-linejoin:round;stroke-miterlimit:10;stroke-dasharray:2.555, 5.109;stroke-dashoffset:0.491;stroke-opacity:1"
       id="path998"
       inkscape:connector-curvature="0" /></g></g><g
   id="g1000"
   transform="translate(8.3865381,165.23826)"><g
     id="g1002"
     clip-path="url(#clipPath1006)"><path
       d="m 187.18,286.52 v -9.235"
       style="fill:none;stroke:#909294;stroke-width:0.49000001;stroke-linecap:round;stroke-linejoin:round;stroke-miterlimit:10;stroke-dasharray:2.555, 5.109;stroke-dashoffset:0.43900001;stroke-opacity:1"
       id="path1008"
       inkscape:connector-curvature="0" /></g></g><g
   id="g1010"
   transform="translate(8.3865381,165.23826)"><g
     id="g1012"
     clip-path="url(#clipPath1016)"><path
       d="m 187.18,277.285 v -9.254"
       style="fill:none;stroke:#909294;stroke-width:0.49000001;stroke-linecap:round;stroke-linejoin:round;stroke-miterlimit:10;stroke-dasharray:2.555, 5.109;stroke-dashoffset:2.0079999;stroke-opacity:1"
       id="path1018"
       inkscape:connector-curvature="0" /></g></g><g
   id="g1020"
   transform="translate(8.3865381,165.23826)"><g
     id="g1022"
     clip-path="url(#clipPath1026)"><path
       d="m 187.18,268.031 v -9.187"
       style="fill:none;stroke:#909294;stroke-width:0.49000001;stroke-linecap:round;stroke-linejoin:round;stroke-miterlimit:10;stroke-dasharray:2.555, 5.109;stroke-dashoffset:3.5999999;stroke-opacity:1"
       id="path1028"
       inkscape:connector-curvature="0" /></g></g><g
   id="g1030"
   transform="translate(8.3865381,165.23826)"><g
     id="g1032"
     clip-path="url(#clipPath1036)"><path
       d="m 187.18,258.844 v -8.77"
       style="fill:none;stroke:#909294;stroke-width:0.49000001;stroke-linecap:round;stroke-linejoin:round;stroke-miterlimit:10;stroke-dasharray:2.555, 5.109;stroke-dashoffset:5.12699986;stroke-opacity:1"
       id="path1038"
       inkscape:connector-curvature="0" /></g></g><g
   id="g1040"
   transform="translate(8.3865381,165.23826)"><g
     id="g1042"
     clip-path="url(#clipPath1046)"><path
       d="m 187.18,250.074 v -8.668"
       style="fill:none;stroke:#909294;stroke-width:0.49000001;stroke-linecap:round;stroke-linejoin:round;stroke-miterlimit:10;stroke-dasharray:2.555, 5.109;stroke-dashoffset:6.22800016;stroke-opacity:1"
       id="path1048"
       inkscape:connector-curvature="0" /></g></g><g
   id="g1050"
   transform="translate(8.3865381,165.23826)"><g
     id="g1052"
     clip-path="url(#clipPath1056)"><path
       d="m 187.18,241.406 v -9.125"
       style="fill:none;stroke:#909294;stroke-width:0.49000001;stroke-linecap:round;stroke-linejoin:round;stroke-miterlimit:10;stroke-dasharray:2.555, 5.109;stroke-dashoffset:7.23500013;stroke-opacity:1"
       id="path1058"
       inkscape:connector-curvature="0" /></g></g><g
   id="g1060"
   transform="translate(8.3865381,165.23826)"><g
     id="g1062"
     clip-path="url(#clipPath1066)"><path
       d="M 187.18,232.281 V 223.32"
       style="fill:none;stroke:#909294;stroke-width:0.49000001;stroke-linecap:round;stroke-linejoin:round;stroke-miterlimit:10;stroke-dasharray:2.555, 5.109;stroke-dashoffset:1.03199995;stroke-opacity:1"
       id="path1068"
       inkscape:connector-curvature="0" /></g></g><g
   id="g1070"
   transform="translate(8.3865381,165.23826)"><g
     id="g1072"
     clip-path="url(#clipPath1076)"><path
       d="m 187.18,223.32 v -8.613"
       style="fill:none;stroke:#909294;stroke-width:0.49000001;stroke-linecap:round;stroke-linejoin:round;stroke-miterlimit:10;stroke-dasharray:2.555, 5.109;stroke-dashoffset:2.32800007;stroke-opacity:1"
       id="path1078"
       inkscape:connector-curvature="0" /></g></g><g
   id="g1080"
   transform="translate(8.3865381,165.23826)"><g
     id="g1082"
     clip-path="url(#clipPath1086)"><path
       d="m 187.18,214.707 v -5.352"
       style="fill:none;stroke:#909294;stroke-width:0.49000001;stroke-linecap:round;stroke-linejoin:round;stroke-miterlimit:10;stroke-dasharray:2.555, 5.109;stroke-dashoffset:3.27800012;stroke-opacity:1"
       id="path1088"
       inkscape:connector-curvature="0" /></g></g><g
   id="g1100"
   transform="translate(8.3865381,165.23826)"><g
     id="g1102"
     clip-path="url(#clipPath1106)"><path
       d="m 187.18,167.102 v -8.559"
       style="fill:none;stroke:#909294;stroke-width:0.49000001;stroke-linecap:round;stroke-linejoin:round;stroke-miterlimit:10;stroke-dasharray:2.555, 5.109;stroke-dashoffset:5.51399994;stroke-opacity:1"
       id="path1108"
       inkscape:connector-curvature="0" /></g></g><g
   id="g1110"
   transform="translate(8.3865381,165.23826)"><g
     id="g1112"
     clip-path="url(#clipPath1116)"><path
       d="m 187.18,158.543 v -7.898"
       style="fill:none;stroke:#909294;stroke-width:0.49000001;stroke-linecap:round;stroke-linejoin:round;stroke-miterlimit:10;stroke-dasharray:2.555, 5.109;stroke-dashoffset:6.40600014;stroke-opacity:1"
       id="path1118"
       inkscape:connector-curvature="0" /></g></g><g
   id="g1120"
   transform="translate(8.3865381,165.23826)"><g
     id="g1122"
     clip-path="url(#clipPath1126)"><path
       d="m 187.18,150.645 v -6.243"
       style="fill:none;stroke:#909294;stroke-width:0.49000001;stroke-linecap:round;stroke-linejoin:round;stroke-miterlimit:10;stroke-dasharray:2.555, 5.109;stroke-dashoffset:6.64099979;stroke-opacity:1"
       id="path1128"
       inkscape:connector-curvature="0" /></g></g><g
   id="g1130"
   transform="translate(8.3865381,165.23826)"><g
     id="g1132"
     clip-path="url(#clipPath1136)"><path
       d="m 187.18,302.289 3.109,-6.402 3.391,-6.989 3.183,-6.558 9.461,-19.488 3.332,-6.875 3.215,-6.618 3.09,-6.371 3.293,-6.773 3.164,-6.524 3.047,-6.273 3.242,-6.68 3.117,-6.426 6.516,-13.417 3.074,-6.333 3.27,-6.738 3.148,-6.484 3.344,-6.895 3.226,-6.644 3.102,-6.391 3.301,-6.797 3.015,-6.211"
       style="fill:none;stroke:#909294;stroke-width:0.49000001;stroke-linecap:round;stroke-linejoin:round;stroke-miterlimit:10;stroke-dasharray:none;stroke-opacity:1"
       id="path1138"
       inkscape:connector-curvature="0" /></g></g><g
   id="g1140"
   transform="translate(8.3865381,165.23826)"><g
     id="g1142"
     clip-path="url(#clipPath1146)"><path
       sodipodi:nodetypes="cccccccccccccccccccccccccccc"
       d="m 187.18,302.289 4.675,-6.402 5.192,-6.989 5.058,-6.558 5.157,-6.313 5.972,-6.715 6.504,-6.46 8.278,-6.875 5,-3.442 5.41,-3.176 6.789,-3.289 8.078,-3.082 11.023,-3.101 7.84,-1.649 11.086,-1.769 14.84,-1.676 11.711,-0.949 6.953,-0.453 7.672,-0.43 8.637,-0.406 11.336,-0.438 11.64,-0.367 16.18,-0.398 23.941,-0.438 17.629,-0.234 21.153,-0.223 m 0,0 7.714,-0.062"
       style="fill:none;stroke:#131313;stroke-width:0.49000001;stroke-linecap:round;stroke-linejoin:round;stroke-miterlimit:10;stroke-dasharray:none;stroke-opacity:1"
       id="path1148"
       inkscape:connector-curvature="0" /></g></g><g
   id="g1150"
   transform="translate(8.3865381,165.23826)"><g
     id="g1152"
     clip-path="url(#clipPath1156)"><path
       d="m 187.18,302.289 v -8.152"
       style="fill:none;stroke:#131313;stroke-width:0.49000001;stroke-linecap:round;stroke-linejoin:round;stroke-miterlimit:10;stroke-dasharray:2.555, 5.109;stroke-dashoffset:0;stroke-opacity:1"
       id="path1158"
       inkscape:connector-curvature="0" /></g></g><g
   id="g1160"
   transform="translate(8.3865381,165.23826)"><g
     id="g1162"
     clip-path="url(#clipPath1166)"><path
       d="M 187.18,294.137 V 286.52"
       style="fill:none;stroke:#131313;stroke-width:0.49000001;stroke-linecap:round;stroke-linejoin:round;stroke-miterlimit:10;stroke-dasharray:2.555, 5.109;stroke-dashoffset:0.491;stroke-opacity:1"
       id="path1168"
       inkscape:connector-curvature="0" /></g></g><g
   id="g1170"
   transform="translate(8.3865381,165.23826)"><g
     id="g1172"
     clip-path="url(#clipPath1176)"><path
       d="m 187.18,286.52 v -9.235"
       style="fill:none;stroke:#131313;stroke-width:0.49000001;stroke-linecap:round;stroke-linejoin:round;stroke-miterlimit:10;stroke-dasharray:2.555, 5.109;stroke-dashoffset:0.43900001;stroke-opacity:1"
       id="path1178"
       inkscape:connector-curvature="0" /></g></g><g
   id="g1180"
   transform="translate(8.3865381,165.23826)"><g
     id="g1182"
     clip-path="url(#clipPath1186)"><path
       d="m 187.18,277.285 v -9.254"
       style="fill:none;stroke:#131313;stroke-width:0.49000001;stroke-linecap:round;stroke-linejoin:round;stroke-miterlimit:10;stroke-dasharray:2.555, 5.109;stroke-dashoffset:2.0079999;stroke-opacity:1"
       id="path1188"
       inkscape:connector-curvature="0" /></g></g><g
   id="g1190"
   transform="translate(8.3865381,165.23826)"><g
     id="g1192"
     clip-path="url(#clipPath1196)"><path
       d="m 187.18,268.031 v -9.187"
       style="fill:none;stroke:#131313;stroke-width:0.49000001;stroke-linecap:round;stroke-linejoin:round;stroke-miterlimit:10;stroke-dasharray:2.555, 5.109;stroke-dashoffset:3.5999999;stroke-opacity:1"
       id="path1198"
       inkscape:connector-curvature="0" /></g></g><g
   id="g1200"
   transform="translate(8.3865381,165.23826)"><g
     id="g1202"
     clip-path="url(#clipPath1206)"><path
       d="m 187.18,258.844 v -8.77"
       style="fill:none;stroke:#131313;stroke-width:0.49000001;stroke-linecap:round;stroke-linejoin:round;stroke-miterlimit:10;stroke-dasharray:2.555, 5.109;stroke-dashoffset:5.12699986;stroke-opacity:1"
       id="path1208"
       inkscape:connector-curvature="0" /></g></g><g
   id="g1210"
   transform="translate(8.3865381,165.23826)"><g
     id="g1212"
     clip-path="url(#clipPath1216)"><path
       d="m 187.18,250.074 v -8.668"
       style="fill:none;stroke:#131313;stroke-width:0.49000001;stroke-linecap:round;stroke-linejoin:round;stroke-miterlimit:10;stroke-dasharray:2.555, 5.109;stroke-dashoffset:6.22800016;stroke-opacity:1"
       id="path1218"
       inkscape:connector-curvature="0" /></g></g><g
   id="g1220"
   transform="translate(8.3865381,165.23826)"><g
     id="g1222"
     clip-path="url(#clipPath1226)"><path
       d="m 187.18,241.406 v -9.125"
       style="fill:none;stroke:#131313;stroke-width:0.49000001;stroke-linecap:round;stroke-linejoin:round;stroke-miterlimit:10;stroke-dasharray:2.555, 5.109;stroke-dashoffset:7.23500013;stroke-opacity:1"
       id="path1228"
       inkscape:connector-curvature="0" /></g></g><g
   id="g1230"
   transform="translate(8.3865381,165.23826)"><g
     id="g1232"
     clip-path="url(#clipPath1236)"><path
       d="M 187.18,232.281 V 229.43"
       style="fill:none;stroke:#131313;stroke-width:0.49000001;stroke-linecap:round;stroke-linejoin:round;stroke-miterlimit:10;stroke-dasharray:2.555, 5.109;stroke-dashoffset:1.03199995;stroke-opacity:1"
       id="path1238"
       inkscape:connector-curvature="0" /></g></g><g
   id="g1250"
   transform="translate(8.3865381,165.23826)"><g
     id="g1252"
     clip-path="url(#clipPath1256)"><path
       d="m 187.18,166.074 v -8.293"
       style="fill:none;stroke:#131313;stroke-width:0.49000001;stroke-linecap:round;stroke-linejoin:round;stroke-miterlimit:10;stroke-dasharray:2.555, 5.109;stroke-dashoffset:6.76000023;stroke-opacity:1"
       id="path1258"
       inkscape:connector-curvature="0" /></g></g><g
   id="g1260"
   transform="translate(8.3865381,165.23826)"><g
     id="g1262"
     clip-path="url(#clipPath1266)"><path
       d="m 187.18,157.781 v -8.133"
       style="fill:none;stroke:#131313;stroke-width:0.49000001;stroke-linecap:round;stroke-linejoin:round;stroke-miterlimit:10;stroke-dasharray:2.555, 5.109;stroke-dashoffset:7.38899994;stroke-opacity:1"
       id="path1268"
       inkscape:connector-curvature="0" /></g></g><g
   id="g1270"
   transform="translate(8.3865381,165.23826)"><g
     id="g1272"
     clip-path="url(#clipPath1276)"><path
       d="m 187.18,149.648 v -5.246"
       style="fill:none;stroke:#131313;stroke-width:0.49000001;stroke-linecap:round;stroke-linejoin:round;stroke-miterlimit:10;stroke-dasharray:2.555, 5.109;stroke-dashoffset:0.198;stroke-opacity:1"
       id="path1278"
       inkscape:connector-curvature="0" /></g></g><g
   id="g1280"
   transform="translate(8.3865381,165.23826)"><g
     id="g1282"
     clip-path="url(#clipPath1286)"><path
       d="m 187.18,302.289 4.664,-6.402 5.086,-6.989 4.777,-6.558 4.59,-6.313 9.601,-13.175 5,-6.875 4.821,-6.618 9.57,-13.144 4.75,-6.524 28.488,-39.129 4.911,-6.738 28.703,-39.422"
       style="fill:none;stroke:#131313;stroke-width:0.49000001;stroke-linecap:round;stroke-linejoin:round;stroke-miterlimit:10;stroke-dasharray:none;stroke-opacity:1"
       id="path1288"
       inkscape:connector-curvature="0" /></g></g>

















<path
   inkscape:connector-curvature="0"
   id="path2846"
   d="m 451.03454,309.64026 -1.597,157.887"
   style="fill:none;stroke:#000000;stroke-width:0.28346458;stroke-linecap:butt;stroke-linejoin:miter;stroke-miterlimit:4;stroke-dasharray:none;stroke-opacity:1" /><g
   id="g3233"
   ns1:jacobian_sqrt="1.2"
   inkscapeversion="0.92.4"
   ns1:alignment="middle center"
   ns1:scale="0.9"
   ns1:preamble="/home/tim/Desktop/bachlor-arbeit/tex/preamble.tex"
   ns1:text="1"
   ns1:pdfconverter="pdf2svg"
   ns1:texconverter="pdflatex"
   ns1:version="0.9.1"
   transform="matrix(1.2,0,0,1.2,170.44439,398.38402)"><g
   id="surface1">
<g
   id="g3230"
   style="fill:#000000;fill-opacity:1">
  <path
   id="path3228"
   transform="translate(71.637,66.656)"
   d="m 0.890625,-6.015625 v 0.3125 c 0.4375,0 0.90625,-0.046875 1.296875,-0.265625 V -0.75 c 0,0.375 -0.375,0.4375 -0.765625,0.4375 -0.171875,0 -0.328125,0 -0.46875,0 v 0.296875 H 4.1875 V -0.3125 c -0.171875,0 -0.34375,0 -0.5,0 -0.390625,0 -0.75,-0.0625 -0.75,-0.4375 V -6.484375 C 2.9375,-6.578125 2.90625,-6.65625 2.796875,-6.65625 2.65625,-6.65625 2.5,-6.453125 2.375,-6.375 1.9375,-6.09375 1.40625,-6.015625 0.890625,-6.015625 Z m 0,0"
   style="stroke:none;stroke-width:0"
   inkscape:connector-curvature="0" />
</g>
</g>
</g><g
   transform="matrix(1.2,0,0,1.2,103.43503,256.20894)"
   ns1:version="0.9.1"
   ns1:texconverter="pdflatex"
   ns1:pdfconverter="pdf2svg"
   ns1:text="1"
   ns1:preamble="/home/tim/Desktop/bachlor-arbeit/tex/preamble.tex"
   ns1:scale="0.9"
   ns1:alignment="middle center"
   inkscapeversion="0.92.4"
   ns1:jacobian_sqrt="1.2"
   id="g3247"><g
   id="g3245">
<g
   style="fill:#000000;fill-opacity:1"
   id="g3243">
  <path
   inkscape:connector-curvature="0"
   style="stroke:none;stroke-width:0"
   d="m 0.890625,-6.015625 v 0.3125 c 0.4375,0 0.90625,-0.046875 1.296875,-0.265625 V -0.75 c 0,0.375 -0.375,0.4375 -0.765625,0.4375 -0.171875,0 -0.328125,0 -0.46875,0 v 0.296875 H 4.1875 V -0.3125 c -0.171875,0 -0.34375,0 -0.5,0 -0.390625,0 -0.75,-0.0625 -0.75,-0.4375 V -6.484375 C 2.9375,-6.578125 2.90625,-6.65625 2.796875,-6.65625 2.65625,-6.65625 2.5,-6.453125 2.375,-6.375 1.9375,-6.09375 1.40625,-6.015625 0.890625,-6.015625 Z m 0,0"
   transform="translate(71.637,66.656)"
   id="path3241" />
</g>
</g>
</g><g
   id="g3534"
   ns1:jacobian_sqrt="1.2"
   inkscapeversion="0.92.4"
   ns1:alignment="middle center"
   ns1:scale="0.9"
   ns1:preamble="/home/tim/Desktop/bachlor-arbeit/tex/preamble.tex"
   ns1:text="0.8"
   ns1:pdfconverter="pdf2svg"
   ns1:texconverter="pdflatex"
   ns1:version="0.9.1"
   transform="matrix(1.2,0,0,1.2,93.291765,282.52635)"
   style="opacity:0.99"><g
   id="g3532"
   style="">
<g
   id="g3530"
   style="fill:#000000;fill-opacity:1">
  <path
   id="path3524"
   transform="translate(71.637,66.656)"
   d="m 2.359375,-6.65625 c -1.9375,0.171875 -1.96875,2.53125 -1.96875,3.5 0,0.9375 0.078125,2.015625 0.703125,2.75 0.328125,0.390625 0.875,0.625 1.375,0.625 0.84375,0 1.515625,-0.546875 1.8125,-1.3125 0.28125,-0.6875 0.296875,-1.453125 0.296875,-2.171875 0,-0.9375 -0.09375,-2.078125 -0.703125,-2.765625 C 3.53125,-6.421875 3,-6.65625 2.5,-6.65625 c -0.0625,0 -0.09375,0 -0.140625,0 z M 1.21875,-2.578125 c 0,-0.09375 0,-0.171875 0,-0.265625 V -3.3125 c 0,-0.484375 0,-0.953125 0.046875,-1.4375 0.03125,-0.375 0.0625,-0.796875 0.28125,-1.125 0.21875,-0.328125 0.5625,-0.5625 0.953125,-0.5625 1.171875,0 1.25,1.46875 1.25,2.453125 v 0.46875 c 0,0.265625 0.015625,0.5625 0.015625,0.859375 0,1.265625 -0.171875,2.640625 -1.265625,2.640625 -1.34375,0 -1.21875,-1.921875 -1.28125,-2.5625 z m 0,0"
   style="stroke:none;stroke-width:0"
   inkscape:connector-curvature="0" />
<path
   id="path3526"
   transform="translate(76.617304,66.656)"
   d="m 1.3125,-1.0625 c -0.25,0.03125 -0.453125,0.265625 -0.453125,0.515625 0,0.25 0.203125,0.53125 0.5,0.53125 0.28125,0 0.546875,-0.203125 0.546875,-0.515625 0,-0.25 -0.1875,-0.53125 -0.515625,-0.53125 -0.03125,0 -0.0625,0 -0.078125,0 z m 0,0"
   style="stroke:none;stroke-width:0"
   inkscape:connector-curvature="0" />
<path
   id="path3528"
   transform="translate(79.383918,66.656)"
   d="m 1.859375,-3.359375 v 0.015625 c -0.734375,0.265625 -1.4375,1.015625 -1.4375,1.828125 v 0.109375 c 0.0625,0.984375 1.09375,1.609375 2.046875,1.609375 0.953125,0 2.09375,-0.65625 2.09375,-1.84375 0,-0.765625 -0.390625,-1.3125 -1.125,-1.75 C 3.3125,-3.46875 3.203125,-3.5625 3.078125,-3.625 3.671875,-4 4.28125,-4.390625 4.28125,-5.1875 4.28125,-6.046875 3.4375,-6.65625 2.5,-6.65625 c -0.890625,0 -1.8125,0.625 -1.8125,1.6875 0,0.75 0.546875,1.265625 1.171875,1.609375 z m -0.9375,1.953125 c 0,-0.046875 -0.015625,-0.078125 -0.015625,-0.125 0,-0.6875 0.5,-1.234375 1.046875,-1.59375 C 2,-3.140625 2.046875,-3.1875 2.09375,-3.1875 c 0.09375,0 0.40625,0.234375 0.578125,0.359375 0.390625,0.25 1.390625,0.71875 1.390625,1.421875 0,0.84375 -0.75,1.34375 -1.546875,1.34375 -0.71875,0 -1.484375,-0.46875 -1.59375,-1.34375 z m 0.21875,-3.875 V -5.375 c 0,-0.671875 0.765625,-1.03125 1.3125,-1.03125 0.65625,0 1.265625,0.390625 1.390625,1.140625 0,0.046875 0,0.078125 0,0.109375 0,0.578125 -0.4375,1.015625 -0.875,1.3125 -0.03125,0.015625 -0.0625,0.0625 -0.125,0.0625 C 2.765625,-3.78125 2.5,-4 2.359375,-4.09375 1.84375,-4.421875 1.203125,-4.703125 1.140625,-5.28125 Z m 0,0"
   style="stroke:none;stroke-width:0"
   inkscape:connector-curvature="0" />
</g>
</g>
</g><g
   id="g3799"
   ns1:jacobian_sqrt="1.2"
   inkscapeversion="0.92.4"
   ns1:alignment="middle center"
   ns1:scale="0.9"
   ns1:preamble="/home/tim/Desktop/bachlor-arbeit/tex/preamble.tex"
   ns1:text="0.6"
   ns1:pdfconverter="pdf2svg"
   ns1:texconverter="pdflatex"
   ns1:version="0.9.1"
   transform="matrix(1.2,0,0,1.2,93.291765,310.55099)"
   style="opacity:0.98999999"><g
   id="g3797">
<g
   id="g3795"
   style="fill:#000000;fill-opacity:1">
  <path
   id="path3789"
   transform="translate(71.637,66.656)"
   d="m 2.359375,-6.65625 c -1.9375,0.171875 -1.96875,2.53125 -1.96875,3.5 0,0.9375 0.078125,2.015625 0.703125,2.75 0.328125,0.390625 0.875,0.625 1.375,0.625 0.84375,0 1.515625,-0.546875 1.8125,-1.3125 0.28125,-0.6875 0.296875,-1.453125 0.296875,-2.171875 0,-0.9375 -0.09375,-2.078125 -0.703125,-2.765625 C 3.53125,-6.421875 3,-6.65625 2.5,-6.65625 c -0.0625,0 -0.09375,0 -0.140625,0 z M 1.21875,-2.578125 c 0,-0.09375 0,-0.171875 0,-0.265625 V -3.3125 c 0,-0.484375 0,-0.953125 0.046875,-1.4375 0.03125,-0.375 0.0625,-0.796875 0.28125,-1.125 0.21875,-0.328125 0.5625,-0.5625 0.953125,-0.5625 1.171875,0 1.25,1.46875 1.25,2.453125 v 0.46875 c 0,0.265625 0.015625,0.5625 0.015625,0.859375 0,1.265625 -0.171875,2.640625 -1.265625,2.640625 -1.34375,0 -1.21875,-1.921875 -1.28125,-2.5625 z m 0,0"
   style="stroke:none;stroke-width:0"
   inkscape:connector-curvature="0" />
<path
   id="path3791"
   transform="translate(76.617304,66.656)"
   d="m 1.3125,-1.0625 c -0.25,0.03125 -0.453125,0.265625 -0.453125,0.515625 0,0.25 0.203125,0.53125 0.5,0.53125 0.28125,0 0.546875,-0.203125 0.546875,-0.515625 0,-0.25 -0.1875,-0.53125 -0.515625,-0.53125 -0.03125,0 -0.0625,0 -0.078125,0 z m 0,0"
   style="stroke:none;stroke-width:0"
   inkscape:connector-curvature="0" />
<path
   id="path3793"
   transform="translate(79.383918,66.656)"
   d="M 1.328125,-3.296875 H 1.3125 C 1.3125,-4.1875 1.359375,-5.203125 2,-5.890625 2.28125,-6.1875 2.640625,-6.40625 3.078125,-6.40625 3.40625,-6.40625 3.734375,-6.265625 3.9375,-6 3.90625,-6.015625 3.875,-6.015625 3.84375,-6.015625 c -0.265625,0 -0.453125,0.203125 -0.453125,0.46875 0,0.25 0.203125,0.453125 0.453125,0.453125 0.265625,0 0.46875,-0.1875 0.46875,-0.515625 0,-0.734375 -0.6875,-1.046875 -1.28125,-1.046875 -1.671875,0 -2.609375,1.890625 -2.609375,3.390625 0,1.375 0.28125,3.46875 2.125,3.46875 1.21875,0 2.015625,-1.125 2.015625,-2.25 C 4.5625,-3.09375 3.84375,-4.25 2.65625,-4.25 2.078125,-4.25 1.5,-3.953125 1.328125,-3.296875 Z m 0,1.171875 v -0.09375 c 0,-0.6875 0.25,-1.8125 1.234375,-1.8125 1.09375,0 1.09375,1.3125 1.09375,1.921875 v 0.1875 c 0,0.671875 -0.0625,1.859375 -1.140625,1.859375 -0.859375,0 -1.125,-0.96875 -1.171875,-1.75 0,-0.09375 0,-0.21875 -0.015625,-0.3125 z m 0,0"
   style="stroke:none;stroke-width:0"
   inkscape:connector-curvature="0" />
</g>
</g>
</g><g
   id="g4066"
   ns1:jacobian_sqrt="1.2"
   inkscapeversion="0.92.4"
   ns1:alignment="middle center"
   ns1:scale="0.9"
   ns1:preamble="/home/tim/Desktop/bachlor-arbeit/tex/preamble.tex"
   ns1:text="0.4"
   ns1:pdfconverter="pdf2svg"
   ns1:texconverter="lualatex"
   ns1:version="0.9.1"
   transform="matrix(1.2,0,0,1.2,93.139337,337.06528)"
   style="opacity:0.98999999"><g
   id="g4064">
<g
   id="g4062"
   style="fill:#000000;fill-opacity:1">
  <path
   id="path4056"
   transform="translate(71.637,66.656)"
   d="m 4.578125,-3.1875 c 0,-0.796875 -0.046875,-1.59375 -0.390625,-2.328125 -0.453125,-0.96875 -1.28125,-1.125 -1.6875,-1.125 -0.609375,0 -1.328125,0.265625 -1.75,1.1875 -0.3125,0.6875 -0.359375,1.46875 -0.359375,2.265625 0,0.75 0.03125,1.640625 0.453125,2.40625 0.421875,0.796875 1.15625,1 1.640625,1 0.53125,0 1.296875,-0.203125 1.734375,-1.15625 0.3125,-0.6875 0.359375,-1.46875 0.359375,-2.25 z m -0.8125,-0.125 c 0,0.75 0,1.421875 -0.109375,2.0625 C 3.5,-0.296875 2.9375,0 2.484375,0 2.09375,0 1.5,-0.25 1.328125,-1.203125 1.21875,-1.796875 1.21875,-2.71875 1.21875,-3.3125 c 0,-0.640625 0,-1.296875 0.078125,-1.828125 0.1875,-1.1875 0.9375,-1.28125 1.1875,-1.28125 0.328125,0 0.984375,0.1875 1.171875,1.171875 0.109375,0.5625 0.109375,1.3125 0.109375,1.9375 z m 0,0"
   style="stroke:none;stroke-width:0"
   inkscape:connector-curvature="0" />
<path
   id="path4058"
   transform="translate(76.61832,66.656)"
   d="m 1.90625,-0.53125 c 0,-0.28125 -0.234375,-0.53125 -0.515625,-0.53125 -0.296875,0 -0.53125,0.25 -0.53125,0.53125 C 0.859375,-0.234375 1.09375,0 1.390625,0 1.671875,0 1.90625,-0.234375 1.90625,-0.53125 Z m 0,0"
   style="stroke:none;stroke-width:0"
   inkscape:connector-curvature="0" />
<path
   id="path4060"
   transform="translate(79.385941,66.656)"
   d="m 4.6875,-1.640625 v -0.3125 H 3.703125 v -4.53125 c 0,-0.203125 0,-0.265625 -0.171875,-0.265625 -0.078125,0 -0.109375,0 -0.1875,0.125 l -3.0625,4.671875 v 0.3125 H 2.9375 v 0.859375 c 0,0.359375 -0.03125,0.46875 -0.765625,0.46875 H 1.96875 V 0 C 2.375,-0.03125 2.890625,-0.03125 3.3125,-0.03125 c 0.421875,0 0.9375,0 1.359375,0.03125 v -0.3125 h -0.21875 c -0.734375,0 -0.75,-0.109375 -0.75,-0.46875 v -0.859375 z m -1.703125,-0.3125 H 0.5625 l 2.421875,-3.71875 z m 0,0"
   style="stroke:none;stroke-width:0"
   inkscape:connector-curvature="0" />
</g>
</g>
</g><g
   id="g4335"
   ns1:jacobian_sqrt="1.2"
   inkscapeversion="0.92.4"
   ns1:alignment="middle center"
   ns1:scale="0.9"
   ns1:preamble="/home/tim/Desktop/bachlor-arbeit/tex/preamble.tex"
   ns1:text="0.2"
   ns1:pdfconverter="pdf2svg"
   ns1:texconverter="pdflatex"
   ns1:version="0.9.1"
   transform="matrix(1.2,0,0,1.2,93.404265,363.64114)"
   style="opacity:0.98999999"><g
   id="g4333">
<g
   id="g4331"
   style="fill:#000000;fill-opacity:1">
  <path
   id="path4325"
   transform="translate(71.637,66.656)"
   d="m 2.359375,-6.65625 c -1.9375,0.171875 -1.96875,2.53125 -1.96875,3.5 0,0.9375 0.078125,2.015625 0.703125,2.75 0.328125,0.390625 0.875,0.625 1.375,0.625 0.84375,0 1.515625,-0.546875 1.8125,-1.3125 0.28125,-0.6875 0.296875,-1.453125 0.296875,-2.171875 0,-0.9375 -0.09375,-2.078125 -0.703125,-2.765625 C 3.53125,-6.421875 3,-6.65625 2.5,-6.65625 c -0.0625,0 -0.09375,0 -0.140625,0 z M 1.21875,-2.578125 c 0,-0.09375 0,-0.171875 0,-0.265625 V -3.3125 c 0,-0.484375 0,-0.953125 0.046875,-1.4375 0.03125,-0.375 0.0625,-0.796875 0.28125,-1.125 0.21875,-0.328125 0.5625,-0.5625 0.953125,-0.5625 1.171875,0 1.25,1.46875 1.25,2.453125 v 0.46875 c 0,0.265625 0.015625,0.5625 0.015625,0.859375 0,1.265625 -0.171875,2.640625 -1.265625,2.640625 -1.34375,0 -1.21875,-1.921875 -1.28125,-2.5625 z m 0,0"
   style="stroke:none;stroke-width:0"
   inkscape:connector-curvature="0" />
<path
   id="path4327"
   transform="translate(76.617304,66.656)"
   d="m 1.3125,-1.0625 c -0.25,0.03125 -0.453125,0.265625 -0.453125,0.515625 0,0.25 0.203125,0.53125 0.5,0.53125 0.28125,0 0.546875,-0.203125 0.546875,-0.515625 0,-0.25 -0.1875,-0.53125 -0.515625,-0.53125 -0.03125,0 -0.0625,0 -0.078125,0 z m 0,0"
   style="stroke:none;stroke-width:0"
   inkscape:connector-curvature="0" />
<path
   id="path4329"
   transform="translate(79.383918,66.656)"
   d="M 0.890625,-5.328125 C 1.125,-5.828125 1.5,-6.34375 2.21875,-6.34375 c 0.9375,0 1.34375,0.859375 1.34375,1.640625 0,0.921875 -0.609375,1.671875 -1.1875,2.328125 -0.5625,0.671875 -1.171875,1.3125 -1.75,1.96875 C 0.53125,-0.3125 0.5,-0.265625 0.5,-0.125 v 0.109375 H 4.203125 L 4.46875,-1.75 H 4.234375 C 4.140625,-1.296875 4.203125,-0.796875 3.6875,-0.796875 H 3.296875 C 3,-0.78125 2.71875,-0.78125 2.421875,-0.78125 c -0.390625,0 -0.765625,0 -1.140625,0 l 0.6875,-0.671875 c 0.28125,-0.265625 0.546875,-0.53125 0.828125,-0.78125 0.734375,-0.65625 1.671875,-1.375 1.671875,-2.484375 0,-1.125 -0.953125,-1.9375 -2.078125,-1.9375 C 1.4375,-6.65625 0.5,-5.9375 0.5,-4.859375 c 0,0.25 0.09375,0.5625 0.515625,0.5625 0.296875,0 0.53125,-0.203125 0.53125,-0.515625 0,-0.265625 -0.203125,-0.515625 -0.515625,-0.515625 -0.046875,0 -0.09375,0 -0.140625,0 z m 0,0"
   style="stroke:none;stroke-width:0"
   inkscape:connector-curvature="0" />
</g>
</g>
</g><g
   id="g4610"
   ns1:jacobian_sqrt="1.2"
   inkscapeversion="0.92.4"
   ns1:alignment="middle center"
   ns1:scale="0.9"
   ns1:preamble="/home/tim/Desktop/bachlor-arbeit/tex/preamble.tex"
   ns1:text="0"
   ns1:pdfconverter="pdf2svg"
   ns1:texconverter="pdflatex"
   ns1:version="0.9.1"
   transform="matrix(1.200000,0.000000,0.000000,1.200000,102.630325,387.779815)"><g
   id="g4608">
<g
   id="g4606"
   style="fill:rgb(0%,0%,0%);fill-opacity:1;">
  <path
   id="path4604"
   transform="translate(71.637,66.656)"
   d="M 2.359375 -6.65625 C 0.421875 -6.484375 0.390625 -4.125 0.390625 -3.15625 C 0.390625 -2.21875 0.46875 -1.140625 1.09375 -0.40625 C 1.421875 -0.015625 1.96875 0.21875 2.46875 0.21875 C 3.3125 0.21875 3.984375 -0.328125 4.28125 -1.09375 C 4.5625 -1.78125 4.578125 -2.546875 4.578125 -3.265625 C 4.578125 -4.203125 4.484375 -5.34375 3.875 -6.03125 C 3.53125 -6.421875 3 -6.65625 2.5 -6.65625 C 2.4375 -6.65625 2.40625 -6.65625 2.359375 -6.65625 Z M 1.21875 -2.578125 C 1.21875 -2.671875 1.21875 -2.75 1.21875 -2.84375 L 1.21875 -3.3125 C 1.21875 -3.796875 1.21875 -4.265625 1.265625 -4.75 C 1.296875 -5.125 1.328125 -5.546875 1.546875 -5.875 C 1.765625 -6.203125 2.109375 -6.4375 2.5 -6.4375 C 3.671875 -6.4375 3.75 -4.96875 3.75 -3.984375 L 3.75 -3.515625 C 3.75 -3.25 3.765625 -2.953125 3.765625 -2.65625 C 3.765625 -1.390625 3.59375 -0.015625 2.5 -0.015625 C 1.15625 -0.015625 1.28125 -1.9375 1.21875 -2.578125 Z M 1.21875 -2.578125 "
   style="stroke:none;stroke-width:0" />
</g>
</g>
</g><g
   transform="matrix(1.2,0,0,1.2,109.76703,397.35345)"
   ns1:version="0.9.1"
   ns1:texconverter="pdflatex"
   ns1:pdfconverter="pdf2svg"
   ns1:text="0"
   ns1:preamble="/home/tim/Desktop/bachlor-arbeit/tex/preamble.tex"
   ns1:scale="0.9"
   ns1:alignment="middle center"
   inkscapeversion="0.92.4"
   ns1:jacobian_sqrt="1.2"
   id="g4624"><g
   id="g4622">
<g
   style="fill:#000000;fill-opacity:1"
   id="g4620">
  <path
   style="stroke:none;stroke-width:0"
   d="m 2.359375,-6.65625 c -1.9375,0.171875 -1.96875,2.53125 -1.96875,3.5 0,0.9375 0.078125,2.015625 0.703125,2.75 0.328125,0.390625 0.875,0.625 1.375,0.625 0.84375,0 1.515625,-0.546875 1.8125,-1.3125 0.28125,-0.6875 0.296875,-1.453125 0.296875,-2.171875 0,-0.9375 -0.09375,-2.078125 -0.703125,-2.765625 C 3.53125,-6.421875 3,-6.65625 2.5,-6.65625 c -0.0625,0 -0.09375,0 -0.140625,0 z M 1.21875,-2.578125 c 0,-0.09375 0,-0.171875 0,-0.265625 V -3.3125 c 0,-0.484375 0,-0.953125 0.046875,-1.4375 0.03125,-0.375 0.0625,-0.796875 0.28125,-1.125 0.21875,-0.328125 0.5625,-0.5625 0.953125,-0.5625 1.171875,0 1.25,1.46875 1.25,2.453125 v 0.46875 c 0,0.265625 0.015625,0.5625 0.015625,0.859375 0,1.265625 -0.171875,2.640625 -1.265625,2.640625 -1.34375,0 -1.21875,-1.921875 -1.28125,-2.5625 z m 0,0"
   transform="translate(71.637,66.656)"
   id="path4618"
   inkscape:connector-curvature="0" />
</g>
</g>
</g><g
   id="g4896"
   ns1:jacobian_sqrt="1.066667"
   inkscapeversion="0.92.4"
   ns1:alignment="middle center"
   ns1:scale="0.8"
   ns1:preamble="/home/tim/Desktop/bachlor-arbeit/tex/preamble.tex"
   ns1:text="silica"
   ns1:pdfconverter="pdf2svg"
   ns1:texconverter="pdflatex"
   ns1:version="0.9.1"
   transform="matrix(1.066667,0,0,1.066667,219.89446,268.47323)"><g
   id="g4894">
<g
   id="g4892"
   style="fill:#000000;fill-opacity:1">
  <path
   id="path4880"
   transform="translate(71.637,66.656)"
   d="M 1.75,-4.46875 C 1.390625,-4.421875 1,-4.359375 0.703125,-4.109375 c -0.234375,0.21875 -0.375,0.546875 -0.375,0.875 C 0.328125,-1.53125 3.09375,-2.5 3.09375,-1 3.09375,-0.40625 2.546875,-0.125 2,-0.125 1.25,-0.125 0.734375,-0.65625 0.59375,-1.515625 0.578125,-1.609375 0.5625,-1.6875 0.453125,-1.6875 c -0.078125,0 -0.125,0.046875 -0.125,0.125 V 0.015625 C 0.34375,0.0625 0.375,0.09375 0.421875,0.09375 H 0.4375 c 0.15625,0 0.3125,-0.359375 0.4375,-0.390625 h 0.015625 c 0.078125,0 0.34375,0.25 0.5625,0.3125 0.15625,0.0625 0.34375,0.078125 0.515625,0.078125 0.828125,0 1.625,-0.4375 1.625,-1.34375 0,-0.65625 -0.484375,-1.203125 -1.140625,-1.375 -0.625,-0.171875 -1.640625,-0.171875 -1.640625,-0.890625 0,-0.609375 0.671875,-0.765625 1.109375,-0.765625 0.484375,0 1.171875,0.28125 1.171875,1.125 0,0.09375 0,0.171875 0.109375,0.171875 0.109375,0 0.140625,-0.078125 0.140625,-0.171875 0,-0.046875 0,-0.109375 0,-0.140625 v -1.03125 c 0,-0.0625 -0.03125,-0.140625 -0.109375,-0.140625 -0.15625,0 -0.265625,0.25 -0.375,0.25 H 2.84375 c -0.078125,0 -0.234375,-0.125 -0.34375,-0.171875 -0.1875,-0.0625 -0.390625,-0.078125 -0.578125,-0.078125 -0.0625,0 -0.109375,0 -0.171875,0 z m 0,0"
   style="stroke:none;stroke-width:0"
   inkscape:connector-curvature="0" />
<path
   id="path4882"
   transform="translate(75.565253,66.656)"
   d="m 0.375,-4.296875 v 0.3125 h 0.1875 c 0.28125,0 0.546875,0.03125 0.546875,0.5 v 2.75 c 0,0.359375 -0.1875,0.421875 -0.78125,0.421875 v 0.296875 H 2.46875 V -0.3125 H 2.265625 c -0.25,0 -0.484375,-0.03125 -0.484375,-0.359375 V -4.40625 Z m 0.828125,-2.375 c -0.25,0.03125 -0.453125,0.25 -0.453125,0.515625 0,0.296875 0.25,0.53125 0.53125,0.53125 0.28125,0 0.53125,-0.21875 0.53125,-0.53125 0,-0.28125 -0.25,-0.515625 -0.53125,-0.515625 -0.03125,0 -0.046875,0 -0.078125,0 z m 0,0"
   style="stroke:none;stroke-width:0"
   inkscape:connector-curvature="0" />
<path
   id="path4884"
   transform="translate(78.331867,66.656)"
   d="m 0.328125,-6.8125 v 0.296875 h 0.15625 c 0.359375,0 0.625,0.046875 0.625,0.53125 v 5.03125 c 0,0.0625 0,0.140625 0,0.21875 0,0.375 -0.265625,0.421875 -0.546875,0.421875 H 0.328125 v 0.296875 h 2.21875 V -0.3125 h -0.25 c -0.28125,0 -0.515625,-0.046875 -0.515625,-0.4375 v -6.171875 z m 0,0"
   style="stroke:none;stroke-width:0"
   inkscape:connector-curvature="0" />
<path
   id="path4886"
   transform="translate(81.098481,66.656)"
   d="m 0.375,-4.296875 v 0.3125 h 0.1875 c 0.28125,0 0.546875,0.03125 0.546875,0.5 v 2.75 c 0,0.359375 -0.1875,0.421875 -0.78125,0.421875 v 0.296875 H 2.46875 V -0.3125 H 2.265625 c -0.25,0 -0.484375,-0.03125 -0.484375,-0.359375 V -4.40625 Z m 0.828125,-2.375 c -0.25,0.03125 -0.453125,0.25 -0.453125,0.515625 0,0.296875 0.25,0.53125 0.53125,0.53125 0.28125,0 0.53125,-0.21875 0.53125,-0.53125 0,-0.28125 -0.25,-0.515625 -0.53125,-0.515625 -0.03125,0 -0.046875,0 -0.078125,0 z m 0,0"
   style="stroke:none;stroke-width:0"
   inkscape:connector-curvature="0" />
<path
   id="path4888"
   transform="translate(83.865095,66.656)"
   d="m 3.578125,-3.859375 c -0.265625,0.015625 -0.46875,0.1875 -0.46875,0.453125 0,0.28125 0.1875,0.46875 0.453125,0.46875 0.3125,0 0.46875,-0.21875 0.46875,-0.5 V -3.5 C 3.921875,-4.234375 3.078125,-4.46875 2.5,-4.46875 c -1.21875,0 -2.171875,1.0625 -2.171875,2.3125 0,1.125 0.875,2.25 2.171875,2.25 0.65625,0 1.296875,-0.359375 1.5625,-1.046875 0.03125,-0.0625 0.078125,-0.15625 0.078125,-0.21875 0,-0.078125 -0.046875,-0.125 -0.125,-0.125 -0.140625,0 -0.234375,0.375 -0.3125,0.515625 -0.234375,0.375 -0.640625,0.625 -1.09375,0.625 -1.0625,0 -1.390625,-1.0625 -1.4375,-1.84375 v -0.125 c 0,-0.796875 0.1875,-1.984375 1.28125,-2.09375 H 2.53125 c 0.375,0 0.765625,0.109375 1.046875,0.359375 z m 0,0"
   style="stroke:none;stroke-width:0"
   inkscape:connector-curvature="0" />
<path
   id="path4890"
   transform="translate(88.291478,66.656)"
   d="m 1.109375,-3.796875 c 0.25,-0.3125 0.6875,-0.453125 1.0625,-0.453125 0.734375,0 1.0625,0.671875 1.0625,1.375 v 0.265625 c -1.140625,0 -2.828125,0.359375 -2.828125,1.65625 V -0.875 c 0.078125,0.78125 1.046875,0.96875 1.625,0.96875 0.5,0 1.15625,-0.328125 1.28125,-0.84375 0.0625,0.4375 0.34375,0.796875 0.78125,0.796875 0.40625,0 0.765625,-0.328125 0.828125,-0.78125 v -0.71875 h -0.25 v 0.5 c 0,0.28125 -0.0625,0.6875 -0.359375,0.6875 -0.328125,0 -0.375,-0.390625 -0.375,-0.65625 V -2.59375 c 0,-0.125 0.015625,-0.25 0.015625,-0.375 0,-0.96875 -0.90625,-1.5 -1.734375,-1.5 -0.640625,0 -1.515625,0.3125 -1.515625,1.109375 0,0.28125 0.203125,0.484375 0.46875,0.484375 0.28125,0 0.4375,-0.21875 0.4375,-0.46875 0,-0.28125 -0.21875,-0.453125 -0.5,-0.453125 z m 2.125,1.390625 v 1.015625 c 0,0.6875 -0.46875,1.234375 -1.125,1.265625 H 2.078125 C 1.609375,-0.125 1.1875,-0.484375 1.1875,-0.96875 V -1.015625 C 1.25,-2.03125 2.375,-2.375 3.234375,-2.40625 Z m 0,0"
   style="stroke:none;stroke-width:0"
   inkscape:connector-curvature="0" />
</g>
</g>
</g><g
   id="g5180"
   ns1:jacobian_sqrt="1.066667"
   inkscapeversion="0.92.4"
   ns1:alignment="middle center"
   ns1:scale="0.8"
   ns1:preamble="/home/tim/Desktop/bachlor-arbeit/tex/preamble.tex"
   ns1:text="air"
   ns1:pdfconverter="pdf2svg"
   ns1:texconverter="pdflatex"
   ns1:version="0.9.1"
   transform="matrix(1.066667,0,0,1.066667,192.39667,257.19967)"
   style="stroke:#909294;fill:#909294"><g
   id="g5178"
   style="stroke:#909294;fill:#909294">
<g
   id="g5176"
   style="fill:#909294;fill-opacity:1;stroke:#909294">
  <path
   id="path5170"
   transform="translate(71.637,66.656)"
   d="m 1.109375,-3.796875 c 0.25,-0.3125 0.6875,-0.453125 1.0625,-0.453125 0.734375,0 1.0625,0.671875 1.0625,1.375 v 0.265625 c -1.140625,0 -2.828125,0.359375 -2.828125,1.65625 V -0.875 c 0.078125,0.78125 1.046875,0.96875 1.625,0.96875 0.5,0 1.15625,-0.328125 1.28125,-0.84375 0.0625,0.4375 0.34375,0.796875 0.78125,0.796875 0.40625,0 0.765625,-0.328125 0.828125,-0.78125 v -0.71875 h -0.25 v 0.5 c 0,0.28125 -0.0625,0.6875 -0.359375,0.6875 -0.328125,0 -0.375,-0.390625 -0.375,-0.65625 V -2.59375 c 0,-0.125 0.015625,-0.25 0.015625,-0.375 0,-0.96875 -0.90625,-1.5 -1.734375,-1.5 -0.640625,0 -1.515625,0.3125 -1.515625,1.109375 0,0.28125 0.203125,0.484375 0.46875,0.484375 0.28125,0 0.4375,-0.21875 0.4375,-0.46875 0,-0.28125 -0.21875,-0.453125 -0.5,-0.453125 z m 2.125,1.390625 v 1.015625 c 0,0.6875 -0.46875,1.234375 -1.125,1.265625 H 2.078125 C 1.609375,-0.125 1.1875,-0.484375 1.1875,-0.96875 V -1.015625 C 1.25,-2.03125 2.375,-2.375 3.234375,-2.40625 Z m 0,0"
   style="stroke:#909294;stroke-width:0;fill:#909294"
   inkscape:connector-curvature="0" />
<path
   id="path5172"
   transform="translate(76.617304,66.656)"
   d="m 0.375,-4.296875 v 0.3125 h 0.1875 c 0.28125,0 0.546875,0.03125 0.546875,0.5 v 2.75 c 0,0.359375 -0.1875,0.421875 -0.78125,0.421875 v 0.296875 H 2.46875 V -0.3125 H 2.265625 c -0.25,0 -0.484375,-0.03125 -0.484375,-0.359375 V -4.40625 Z m 0.828125,-2.375 c -0.25,0.03125 -0.453125,0.25 -0.453125,0.515625 0,0.296875 0.25,0.53125 0.53125,0.53125 0.28125,0 0.53125,-0.21875 0.53125,-0.53125 0,-0.28125 -0.25,-0.515625 -0.53125,-0.515625 -0.03125,0 -0.046875,0 -0.078125,0 z m 0,0"
   style="stroke:#909294;stroke-width:0;fill:#909294"
   inkscape:connector-curvature="0" />
<path
   id="path5174"
   transform="translate(79.383918,66.656)"
   d="m 0.265625,-4.296875 v 0.3125 h 0.15625 c 0.328125,0 0.625,0.03125 0.625,0.5 v 2.75 c 0,0.40625 -0.28125,0.421875 -0.71875,0.421875 h -0.0625 v 0.296875 H 2.6875 V -0.3125 c -0.125,0 -0.265625,0 -0.390625,0 -0.3125,0 -0.578125,-0.046875 -0.578125,-0.421875 v -1.3125 c 0,-0.859375 0.1875,-2.140625 1.171875,-2.140625 0.046875,0 0.0625,0 0.109375,0.015625 -0.15625,0.0625 -0.234375,0.21875 -0.234375,0.390625 0,0.21875 0.15625,0.375 0.390625,0.421875 0.28125,0 0.46875,-0.171875 0.46875,-0.421875 0,-0.40625 -0.375,-0.625 -0.734375,-0.625 -0.59375,0 -1.109375,0.53125 -1.21875,1.0625 v -1.0625 z m 0,0"
   style="stroke:#909294;stroke-width:0;fill:#909294"
   inkscape:connector-curvature="0" />
</g>
</g>
</g><g
   id="g6265"
   ns1:jacobian_sqrt="1.33333"
   inkscapeversion="0.92.4"
   ns1:alignment="middle center"
   ns1:scale="1.0"
   ns1:preamble="/home/tim/Desktop/bachlor-arbeit/tex/preamble.tex"
   ns1:text="Wave vector $k_x c / \\omega_\\mathrm p$"
   ns1:pdfconverter="pdf2svg"
   ns1:texconverter="pdflatex"
   ns1:version="0.9.1"
   transform="matrix(1.33333,0,0,1.33333,185.17877,396.00474)"><g
   id="g6263">
<g
   id="g6213"
   style="fill:#000000;fill-opacity:1">
  <path
   id="path6211"
   transform="translate(71.637,66.656)"
   d="m 0.171875,-6.8125 v 0.296875 h 0.21875 c 0.625,0 0.671875,0.296875 0.78125,0.671875 0.625,1.890625 1.21875,3.765625 1.84375,5.671875 0.046875,0.125 0.078125,0.375 0.265625,0.375 h 0.015625 c 0.1875,-0.03125 0.21875,-0.34375 0.25,-0.421875 0.5,-1.53125 0.984375,-3.0625 1.484375,-4.578125 0.03125,-0.09375 0.0625,-0.171875 0.078125,-0.25 H 5.125 c 0.046875,0.234375 0.15625,0.46875 0.21875,0.6875 0.453125,1.375 0.890625,2.765625 1.34375,4.140625 L 6.78125,0.046875 C 6.8125,0.125 6.84375,0.1875 6.921875,0.203125 h 0.03125 c 0.1875,0 0.21875,-0.234375 0.265625,-0.375 0.625,-1.84375 1.1875,-3.703125 1.8125,-5.546875 0.125,-0.40625 0.328125,-0.796875 1.03125,-0.796875 V -6.8125 H 7.96875 v 0.296875 c 0.34375,0 0.828125,0.140625 0.859375,0.53125 0,0.046875 -0.015625,0.125 -0.03125,0.1875 l -0.09375,0.25 c -0.171875,0.5625 -0.359375,1.125 -0.546875,1.6875 L 7.5625,-2.015625 C 7.46875,-1.734375 7.359375,-1.46875 7.28125,-1.1875 7.140625,-1.53125 7.046875,-1.90625 6.9375,-2.25 6.546875,-3.453125 6.171875,-4.65625 5.765625,-5.859375 5.734375,-5.96875 5.65625,-6.09375 5.65625,-6.203125 c 0,-0.3125 0.5625,-0.3125 0.84375,-0.3125 V -6.8125 H 3.875 v 0.296875 h 0.265625 c 0.4375,0 0.53125,0.109375 0.765625,0.796875 0.015625,0.0625 0.0625,0.171875 0.0625,0.25 v 0.03125 c 0,0.125 -0.09375,0.3125 -0.140625,0.453125 C 4.5,-4.0625 4.21875,-3.125 3.921875,-2.1875 3.8125,-1.859375 3.6875,-1.53125 3.59375,-1.1875 3.5625,-1.3125 3.515625,-1.421875 3.484375,-1.53125 L 2.40625,-4.859375 C 2.25,-5.28125 2.140625,-5.6875 2,-6.09375 1.984375,-6.125 1.96875,-6.1875 1.96875,-6.21875 V -6.25 C 2.046875,-6.515625 2.515625,-6.515625 2.8125,-6.515625 V -6.8125 Z m 0,0"
   style="stroke:none;stroke-width:0"
   inkscape:connector-curvature="0" />
</g>
<g
   id="g6217"
   style="fill:#000000;fill-opacity:1">
  <path
   id="path6215"
   transform="translate(81.046676,66.656)"
   d="m 1.109375,-3.796875 c 0.25,-0.3125 0.6875,-0.453125 1.0625,-0.453125 0.734375,0 1.0625,0.671875 1.0625,1.375 v 0.265625 c -1.140625,0 -2.828125,0.359375 -2.828125,1.65625 V -0.875 c 0.078125,0.78125 1.046875,0.96875 1.625,0.96875 0.5,0 1.15625,-0.328125 1.28125,-0.84375 0.0625,0.4375 0.34375,0.796875 0.78125,0.796875 0.40625,0 0.765625,-0.328125 0.828125,-0.78125 v -0.71875 h -0.25 v 0.5 c 0,0.28125 -0.0625,0.6875 -0.359375,0.6875 -0.328125,0 -0.375,-0.390625 -0.375,-0.65625 V -2.59375 c 0,-0.125 0.015625,-0.25 0.015625,-0.375 0,-0.96875 -0.90625,-1.5 -1.734375,-1.5 -0.640625,0 -1.515625,0.3125 -1.515625,1.109375 0,0.28125 0.203125,0.484375 0.46875,0.484375 0.28125,0 0.4375,-0.21875 0.4375,-0.46875 0,-0.28125 -0.21875,-0.453125 -0.5,-0.453125 z m 2.125,1.390625 v 1.015625 c 0,0.6875 -0.46875,1.234375 -1.125,1.265625 H 2.078125 C 1.609375,-0.125 1.1875,-0.484375 1.1875,-0.96875 V -1.015625 C 1.25,-2.03125 2.375,-2.375 3.234375,-2.40625 Z m 0,0"
   style="stroke:none;stroke-width:0"
   inkscape:connector-curvature="0" />
</g>
<g
   id="g6221"
   style="fill:#000000;fill-opacity:1">
  <path
   id="path6219"
   transform="translate(85.748027,66.656)"
   d="m 0.1875,-4.296875 v 0.3125 H 0.375 c 0.5,0 0.546875,0.203125 0.84375,0.953125 l 0.8125,2 c 0.15625,0.390625 0.359375,1.125 0.59375,1.125 0.234375,0 0.421875,-0.71875 0.578125,-1.078125 l 0.828125,-2.0625 c 0.25,-0.625 0.46875,-0.9375 1.03125,-0.9375 v -0.3125 H 3.453125 v 0.3125 c 0.21875,0 0.46875,0.171875 0.46875,0.40625 0,0.125 -0.046875,0.265625 -0.109375,0.390625 C 3.53125,-2.46875 3.25,-1.78125 2.953125,-1.078125 2.9375,-0.984375 2.875,-0.890625 2.859375,-0.796875 H 2.84375 C 2.78125,-1.03125 2.671875,-1.25 2.578125,-1.484375 L 1.765625,-3.5 C 1.734375,-3.578125 1.6875,-3.65625 1.6875,-3.734375 V -3.78125 C 1.75,-3.984375 2.046875,-3.984375 2.25,-3.984375 v -0.3125 z m 0,0"
   style="stroke:none;stroke-width:0"
   inkscape:connector-curvature="0" />
</g>
<g
   id="g6225"
   style="fill:#000000;fill-opacity:1">
  <path
   id="path6223"
   transform="translate(90.726338,66.656)"
   d="m 1.109375,-2.3125 h 2.875 c 0.109375,0 0.15625,-0.0625 0.15625,-0.1875 0,-1.046875 -0.640625,-1.96875 -1.765625,-1.96875 -1.21875,0 -2.09375,1.09375 -2.09375,2.28125 0,0.90625 0.5,1.734375 1.390625,2.125 0.21875,0.109375 0.484375,0.15625 0.734375,0.15625 H 2.4375 c 0.765625,0 1.40625,-0.421875 1.671875,-1.1875 C 4.125,-1.125 4.125,-1.171875 4.125,-1.203125 4.125,-1.265625 4.09375,-1.3125 4.015625,-1.3125 3.875,-1.3125 3.8125,-0.984375 3.75,-0.875 3.5,-0.4375 3.015625,-0.15625 2.5,-0.15625 c -0.359375,0 -0.6875,-0.203125 -0.953125,-0.46875 -0.40625,-0.46875 -0.4375,-1.109375 -0.4375,-1.6875 z M 1.125,-2.515625 C 1.125,-3.296875 1.53125,-4.25 2.359375,-4.25 H 2.40625 c 0.96875,0.09375 0.96875,1.125 1.0625,1.734375 z m 0,0"
   style="stroke:none;stroke-width:0"
   inkscape:connector-curvature="0" />
</g>
<g
   id="g6229"
   style="fill:#000000;fill-opacity:1">
  <path
   id="path6227"
   transform="translate(98.470267,66.656)"
   d="m 0.1875,-4.296875 v 0.3125 H 0.375 c 0.5,0 0.546875,0.203125 0.84375,0.953125 l 0.8125,2 c 0.15625,0.390625 0.359375,1.125 0.59375,1.125 0.234375,0 0.421875,-0.71875 0.578125,-1.078125 l 0.828125,-2.0625 c 0.25,-0.625 0.46875,-0.9375 1.03125,-0.9375 v -0.3125 H 3.453125 v 0.3125 c 0.21875,0 0.46875,0.171875 0.46875,0.40625 0,0.125 -0.046875,0.265625 -0.109375,0.390625 C 3.53125,-2.46875 3.25,-1.78125 2.953125,-1.078125 2.9375,-0.984375 2.875,-0.890625 2.859375,-0.796875 H 2.84375 C 2.78125,-1.03125 2.671875,-1.25 2.578125,-1.484375 L 1.765625,-3.5 C 1.734375,-3.578125 1.6875,-3.65625 1.6875,-3.734375 V -3.78125 C 1.75,-3.984375 2.046875,-3.984375 2.25,-3.984375 v -0.3125 z m 0,0"
   style="stroke:none;stroke-width:0"
   inkscape:connector-curvature="0" />
</g>
<g
   id="g6241"
   style="fill:#000000;fill-opacity:1">
  <path
   id="path6231"
   transform="translate(103.45854,66.656)"
   d="m 1.109375,-2.3125 h 2.875 c 0.109375,0 0.15625,-0.0625 0.15625,-0.1875 0,-1.046875 -0.640625,-1.96875 -1.765625,-1.96875 -1.21875,0 -2.09375,1.09375 -2.09375,2.28125 0,0.90625 0.5,1.734375 1.390625,2.125 0.21875,0.109375 0.484375,0.15625 0.734375,0.15625 H 2.4375 c 0.765625,0 1.40625,-0.421875 1.671875,-1.1875 C 4.125,-1.125 4.125,-1.171875 4.125,-1.203125 4.125,-1.265625 4.09375,-1.3125 4.015625,-1.3125 3.875,-1.3125 3.8125,-0.984375 3.75,-0.875 3.5,-0.4375 3.015625,-0.15625 2.5,-0.15625 c -0.359375,0 -0.6875,-0.203125 -0.953125,-0.46875 -0.40625,-0.46875 -0.4375,-1.109375 -0.4375,-1.6875 z M 1.125,-2.515625 C 1.125,-3.296875 1.53125,-4.25 2.359375,-4.25 H 2.40625 c 0.96875,0.09375 0.96875,1.125 1.0625,1.734375 z m 0,0"
   style="stroke:none;stroke-width:0"
   inkscape:connector-curvature="0" />
<path
   id="path6233"
   transform="translate(107.88492,66.656)"
   d="m 3.578125,-3.859375 c -0.265625,0.015625 -0.46875,0.1875 -0.46875,0.453125 0,0.28125 0.1875,0.46875 0.453125,0.46875 0.3125,0 0.46875,-0.21875 0.46875,-0.5 V -3.5 C 3.921875,-4.234375 3.078125,-4.46875 2.5,-4.46875 c -1.21875,0 -2.171875,1.0625 -2.171875,2.3125 0,1.125 0.875,2.25 2.171875,2.25 0.65625,0 1.296875,-0.359375 1.5625,-1.046875 0.03125,-0.0625 0.078125,-0.15625 0.078125,-0.21875 0,-0.078125 -0.046875,-0.125 -0.125,-0.125 -0.140625,0 -0.234375,0.375 -0.3125,0.515625 -0.234375,0.375 -0.640625,0.625 -1.09375,0.625 -1.0625,0 -1.390625,-1.0625 -1.4375,-1.84375 v -0.125 c 0,-0.796875 0.1875,-1.984375 1.28125,-2.09375 H 2.53125 c 0.375,0 0.765625,0.109375 1.046875,0.359375 z m 0,0"
   style="stroke:none;stroke-width:0"
   inkscape:connector-curvature="0" />
<path
   id="path6235"
   transform="translate(112.31131,66.656)"
   d="m 1.484375,-6.140625 c 0,0.6875 -0.28125,1.9375 -1.3125,1.9375 v 0.21875 H 1.03125 v 2.5625 c 0,0.328125 0.03125,0.671875 0.1875,0.953125 0.21875,0.40625 0.6875,0.5625 1.125,0.5625 0.8125,0 0.96875,-0.90625 0.96875,-1.546875 V -1.8125 H 3.078125 c 0,0.140625 0,0.296875 0,0.453125 0,0.4375 -0.09375,1.203125 -0.6875,1.203125 -0.5625,0 -0.65625,-0.6875 -0.65625,-1.125 V -3.984375 H 3.15625 v -0.3125 H 1.734375 v -1.84375 z m 0,0"
   style="stroke:none;stroke-width:0"
   inkscape:connector-curvature="0" />
<path
   id="path6237"
   transform="translate(116.18477,66.656)"
   d="m 2.34375,-4.46875 c -1.25,0.125 -2.0625,1.1875 -2.0625,2.34375 0,1.125 0.890625,2.21875 2.21875,2.21875 1.1875,0 2.1875,-0.96875 2.1875,-2.234375 0,-1.171875 -0.890625,-2.328125 -2.21875,-2.328125 -0.03125,0 -0.09375,0 -0.125,0 z m -1.234375,2.578125 v -0.4375 c 0,-0.765625 0.25,-1.921875 1.375,-1.921875 0.8125,0 1.265625,0.6875 1.359375,1.4375 0.015625,0.21875 0.015625,0.4375 0.015625,0.65625 0,0.640625 -0.078125,1.453125 -0.703125,1.8125 C 2.953125,-0.203125 2.734375,-0.15625 2.5,-0.15625 1.78125,-0.15625 1.265625,-0.71875 1.15625,-1.5 1.140625,-1.625 1.140625,-1.765625 1.109375,-1.890625 Z m 0,0"
   style="stroke:none;stroke-width:0"
   inkscape:connector-curvature="0" />
<path
   id="path6239"
   transform="translate(121.16507,66.656)"
   d="m 0.265625,-4.296875 v 0.3125 h 0.15625 c 0.328125,0 0.625,0.03125 0.625,0.5 v 2.75 c 0,0.40625 -0.28125,0.421875 -0.71875,0.421875 h -0.0625 v 0.296875 H 2.6875 V -0.3125 c -0.125,0 -0.265625,0 -0.390625,0 -0.3125,0 -0.578125,-0.046875 -0.578125,-0.421875 v -1.3125 c 0,-0.859375 0.1875,-2.140625 1.171875,-2.140625 0.046875,0 0.0625,0 0.109375,0.015625 -0.15625,0.0625 -0.234375,0.21875 -0.234375,0.390625 0,0.21875 0.15625,0.375 0.390625,0.421875 0.28125,0 0.46875,-0.171875 0.46875,-0.421875 0,-0.40625 -0.375,-0.625 -0.734375,-0.625 -0.59375,0 -1.109375,0.53125 -1.21875,1.0625 v -1.0625 z m 0,0"
   style="stroke:none;stroke-width:0"
   inkscape:connector-curvature="0" />
</g>
<g
   id="g6245"
   style="fill:#000000;fill-opacity:1">
  <path
   id="path6243"
   transform="translate(128.382,66.656)"
   d="m 2.859375,-6.8125 c 0,0 0,-0.109375 -0.125,-0.109375 -0.234375,0 -0.953125,0.078125 -1.21875,0.109375 -0.078125,0 -0.1875,0.015625 -0.1875,0.1875 0,0.125 0.09375,0.125 0.234375,0.125 0.484375,0 0.5,0.0625 0.5,0.171875 L 2.03125,-6.125 0.59375,-0.390625 c -0.046875,0.140625 -0.046875,0.15625 -0.046875,0.21875 0,0.234375 0.203125,0.28125 0.296875,0.28125 0.125,0 0.265625,-0.09375 0.328125,-0.203125 0.046875,-0.09375 0.5,-1.9375 0.5625,-2.1875 0.34375,0.03125 1.15625,0.1875 1.15625,0.84375 0,0.078125 0,0.109375 -0.03125,0.21875 -0.015625,0.109375 -0.03125,0.234375 -0.03125,0.34375 0,0.578125 0.390625,0.984375 0.90625,0.984375 0.296875,0 0.578125,-0.15625 0.796875,-0.53125 0.25,-0.4375 0.359375,-0.984375 0.359375,-1 0,-0.109375 -0.09375,-0.109375 -0.125,-0.109375 -0.09375,0 -0.109375,0.046875 -0.140625,0.1875 -0.203125,0.71875 -0.421875,1.234375 -0.859375,1.234375 -0.203125,0 -0.328125,-0.109375 -0.328125,-0.46875 0,-0.171875 0.046875,-0.40625 0.078125,-0.5625 C 3.5625,-1.3125 3.5625,-1.34375 3.5625,-1.453125 3.5625,-2.09375 2.9375,-2.375 2.078125,-2.5 2.390625,-2.671875 2.71875,-2.984375 2.9375,-3.234375 3.421875,-3.765625 3.875,-4.1875 4.359375,-4.1875 c 0.0625,0 0.078125,0 0.09375,0.015625 0.125,0.015625 0.125,0.015625 0.21875,0.078125 0.015625,0 0.015625,0.015625 0.03125,0.03125 -0.46875,0.03125 -0.5625,0.421875 -0.5625,0.546875 0,0.15625 0.109375,0.34375 0.375,0.34375 0.265625,0 0.546875,-0.21875 0.546875,-0.609375 0,-0.296875 -0.234375,-0.625 -0.671875,-0.625 -0.28125,0 -0.734375,0.078125 -1.453125,0.875 -0.34375,0.375 -0.734375,0.78125 -1.109375,0.921875 z m 0,0"
   style="stroke:none;stroke-width:0"
   inkscape:connector-curvature="0" />
</g>
<g
   id="g6249"
   style="fill:#000000;fill-opacity:1">
  <path
   id="path6247"
   transform="translate(133.569,68.15)"
   d="M 1.734375,-0.734375 C 1.671875,-0.5 1.4375,-0.125 1.078125,-0.125 c -0.015625,0 -0.234375,0 -0.375,-0.09375 0.28125,-0.09375 0.3125,-0.34375 0.3125,-0.390625 0,-0.15625 -0.125,-0.25 -0.28125,-0.25 -0.203125,0 -0.40625,0.15625 -0.40625,0.421875 0,0.34375 0.390625,0.5 0.734375,0.5 0.328125,0 0.609375,-0.1875 0.78125,-0.484375 C 2.015625,-0.0625 2.390625,0.0625 2.671875,0.0625 c 0.8125,0 1.234375,-0.859375 1.234375,-1.0625 0,-0.09375 -0.09375,-0.09375 -0.109375,-0.09375 -0.109375,0 -0.109375,0.046875 -0.140625,0.125 -0.140625,0.484375 -0.5625,0.84375 -0.953125,0.84375 -0.28125,0 -0.421875,-0.1875 -0.421875,-0.453125 0,-0.1875 0.171875,-0.8125 0.359375,-1.59375 C 2.78125,-2.703125 3.09375,-2.875 3.328125,-2.875 c 0.015625,0 0.21875,0 0.375,0.09375 -0.21875,0.0625 -0.3125,0.265625 -0.3125,0.390625 0,0.140625 0.125,0.25 0.28125,0.25 0.15625,0 0.390625,-0.125 0.390625,-0.421875 0,-0.390625 -0.453125,-0.515625 -0.71875,-0.515625 -0.359375,0 -0.640625,0.234375 -0.78125,0.5 -0.125,-0.28125 -0.453125,-0.5 -0.84375,-0.5 C 0.9375,-3.078125 0.5,-2.21875 0.5,-2 c 0,0.078125 0.09375,0.078125 0.109375,0.078125 0.09375,0 0.09375,-0.015625 0.140625,-0.109375 C 0.921875,-2.578125 1.359375,-2.875 1.703125,-2.875 1.9375,-2.875 2.125,-2.75 2.125,-2.421875 2.125,-2.28125 2.03125,-1.9375 1.96875,-1.6875 Z m 0,0"
   style="stroke:none;stroke-width:0"
   inkscape:connector-curvature="0" />
</g>
<g
   id="g6257"
   style="fill:#000000;fill-opacity:1">
  <path
   id="path6251"
   transform="translate(138.585,66.656)"
   d="m 3.953125,-3.78125 c -0.171875,0 -0.296875,0 -0.4375,0.125 -0.171875,0.15625 -0.1875,0.328125 -0.1875,0.390625 0,0.25 0.1875,0.359375 0.375,0.359375 0.28125,0 0.546875,-0.25 0.546875,-0.640625 0,-0.484375 -0.46875,-0.859375 -1.171875,-0.859375 -1.34375,0 -2.671875,1.421875 -2.671875,2.828125 0,0.90625 0.578125,1.6875 1.625,1.6875 1.421875,0 2.25,-1.0625 2.25,-1.171875 0,-0.0625 -0.046875,-0.140625 -0.109375,-0.140625 -0.0625,0 -0.078125,0.03125 -0.140625,0.109375 -0.78125,0.984375 -1.875,0.984375 -1.984375,0.984375 -0.625,0 -0.90625,-0.484375 -0.90625,-1.09375 0,-0.40625 0.203125,-1.375 0.546875,-1.984375 0.3125,-0.578125 0.859375,-1 1.40625,-1 0.328125,0 0.71875,0.125 0.859375,0.40625 z m 0,0"
   style="stroke:none;stroke-width:0"
   inkscape:connector-curvature="0" />
<path
   id="path6253"
   transform="translate(142.89681,66.656)"
   d="m 4.375,-7.09375 c 0.046875,-0.140625 0.046875,-0.171875 0.046875,-0.1875 0,-0.109375 -0.078125,-0.203125 -0.1875,-0.203125 -0.078125,0 -0.140625,0.03125 -0.171875,0.09375 l -3.46875,9.5 C 0.546875,2.25 0.546875,2.28125 0.546875,2.296875 0.546875,2.40625 0.640625,2.5 0.75,2.5 0.875,2.5 0.90625,2.421875 0.96875,2.25 Z m 0,0"
   style="stroke:none;stroke-width:0"
   inkscape:connector-curvature="0" />
<path
   id="path6255"
   transform="translate(147.87811,66.656)"
   d="m 6.03125,-3.703125 c 0,-0.453125 -0.171875,-0.703125 -0.40625,-0.703125 -0.25,0 -0.515625,0.234375 -0.515625,0.46875 0,0.09375 0.046875,0.203125 0.140625,0.296875 0.171875,0.15625 0.359375,0.421875 0.359375,0.84375 0,0.390625 -0.203125,0.96875 -0.5,1.421875 C 4.8125,-0.953125 4.4375,-0.609375 3.96875,-0.609375 3.40625,-0.609375 3.09375,-0.96875 3,-1.5 c 0.109375,-0.265625 0.34375,-0.90625 0.34375,-1.1875 0,-0.109375 -0.046875,-0.21875 -0.1875,-0.21875 -0.078125,0 -0.1875,0.03125 -0.265625,0.171875 C 2.78125,-2.53125 2.65625,-1.890625 2.65625,-1.53125 2.328125,-1.0625 1.9375,-0.609375 1.3125,-0.609375 c -0.671875,0 -0.875,-0.59375 -0.875,-1.140625 0,-1.25 1.015625,-2.296875 1.015625,-2.421875 0,-0.109375 -0.078125,-0.1875 -0.1875,-0.1875 -0.125,0 -0.203125,0.125 -0.265625,0.21875 -0.5,0.734375 -0.875,1.921875 -0.875,2.828125 0,0.6875 0.21875,1.421875 1.046875,1.421875 0.703125,0 1.171875,-0.5 1.53125,-1.046875 0.09375,0.578125 0.484375,1.046875 1.09375,1.046875 0.78125,0 1.25,-0.609375 1.609375,-1.359375 0.25,-0.484375 0.625,-1.84375 0.625,-2.453125 z m 0,0"
   style="stroke:none;stroke-width:0"
   inkscape:connector-curvature="0" />
</g>
<g
   id="g6261"
   style="fill:#000000;fill-opacity:1">
  <path
   id="path6259"
   transform="translate(154.079,68.15)"
   d="m 1.9375,1.09375 c -0.453125,0 -0.515625,0 -0.515625,-0.296875 v -1.125 C 1.453125,-0.296875 1.78125,0.0625 2.359375,0.0625 3.28125,0.0625 4.0625,-0.625 4.0625,-1.5 c 0,-0.859375 -0.703125,-1.578125 -1.59375,-1.578125 -0.390625,0 -0.796875,0.15625 -1.078125,0.4375 v -0.4375 L 0.34375,-3 v 0.25 c 0.484375,0 0.515625,0.046875 0.515625,0.328125 v 3.21875 c 0,0.296875 -0.0625,0.296875 -0.515625,0.296875 v 0.265625 c 0.015625,0 0.5,-0.03125 0.796875,-0.03125 0.25,0 0.734375,0.015625 0.796875,0.03125 z M 1.421875,-2.328125 C 1.625,-2.671875 2.03125,-2.84375 2.390625,-2.84375 c 0.59375,0 1.046875,0.609375 1.046875,1.34375 0,0.796875 -0.53125,1.375 -1.109375,1.375 -0.625,0 -0.890625,-0.53125 -0.90625,-0.578125 z m 0,0"
   style="stroke:none;stroke-width:0"
   inkscape:connector-curvature="0" />
</g>
</g>
</g><g
   id="g6688"
   ns1:jacobian_sqrt="1.33333"
   inkscapeversion="0.92.4"
   ns1:alignment="middle center"
   ns1:scale="1.0"
   ns1:preamble="/home/tim/Desktop/bachlor-arbeit/tex/preamble.tex"
   ns1:text="Frequency $\\omega / \\omega_\\mathrm p$"
   ns1:pdfconverter="pdf2svg"
   ns1:texconverter="pdflatex"
   ns1:version="0.9.1"
   transform="matrix(1.333330,0.000000,0.000000,1.333330,196.372575,472.245690)"><g
   id="g6686"
   transform="rotate(-90,-23.052801,64.776833)">
<g
   id="g6652"
   style="fill:#000000;fill-opacity:1">
  <path
   id="path6650"
   transform="translate(71.637,66.656)"
   d="m 0.328125,-6.78125 v 0.296875 c 0.125,0 0.265625,0 0.375,0 0.359375,0 0.65625,0.046875 0.65625,0.4375 V -0.75 c 0,0.375 -0.328125,0.4375 -0.671875,0.4375 -0.125,0 -0.25,0 -0.359375,0 v 0.296875 h 3.1875 V -0.3125 c -0.140625,0 -0.3125,0 -0.46875,0 -0.5,0 -0.796875,-0.03125 -0.796875,-0.5 V -3.25 h 0.828125 c 0.34375,0 0.75,0.015625 0.9375,0.3125 0.140625,0.21875 0.15625,0.5 0.15625,0.75 v 0.109375 h 0.25 V -4.71875 h -0.25 V -4.625 c 0,0.515625 -0.109375,0.96875 -0.71875,1.046875 C 3.28125,-3.5625 3.09375,-3.5625 2.90625,-3.5625 H 2.25 V -6.125 c 0,-0.328125 0.1875,-0.359375 0.40625,-0.359375 H 3.8125 c 0.53125,0 1.15625,0.03125 1.53125,0.40625 0.375,0.40625 0.421875,1.015625 0.484375,1.53125 h 0.25 L 5.796875,-6.78125 Z m 0,0"
   style="stroke:none;stroke-width:0"
   inkscape:connector-curvature="0" />
</g>
<g
   id="g6670"
   style="fill:#000000;fill-opacity:1">
  <path
   id="path6654"
   transform="translate(77.311697,66.656)"
   d="m 0.265625,-4.296875 v 0.3125 h 0.15625 c 0.328125,0 0.625,0.03125 0.625,0.5 v 2.75 c 0,0.40625 -0.28125,0.421875 -0.71875,0.421875 h -0.0625 v 0.296875 H 2.6875 V -0.3125 c -0.125,0 -0.265625,0 -0.390625,0 -0.3125,0 -0.578125,-0.046875 -0.578125,-0.421875 v -1.3125 c 0,-0.859375 0.1875,-2.140625 1.171875,-2.140625 0.046875,0 0.0625,0 0.109375,0.015625 -0.15625,0.0625 -0.234375,0.21875 -0.234375,0.390625 0,0.21875 0.15625,0.375 0.390625,0.421875 0.28125,0 0.46875,-0.171875 0.46875,-0.421875 0,-0.40625 -0.375,-0.625 -0.734375,-0.625 -0.59375,0 -1.109375,0.53125 -1.21875,1.0625 v -1.0625 z m 0,0"
   style="stroke:none;stroke-width:0"
   inkscape:connector-curvature="0" />
<path
   id="path6656"
   transform="translate(81.213051,66.656)"
   d="m 1.109375,-2.3125 h 2.875 c 0.109375,0 0.15625,-0.0625 0.15625,-0.1875 0,-1.046875 -0.640625,-1.96875 -1.765625,-1.96875 -1.21875,0 -2.09375,1.09375 -2.09375,2.28125 0,0.90625 0.5,1.734375 1.390625,2.125 0.21875,0.109375 0.484375,0.15625 0.734375,0.15625 H 2.4375 c 0.765625,0 1.40625,-0.421875 1.671875,-1.1875 C 4.125,-1.125 4.125,-1.171875 4.125,-1.203125 4.125,-1.265625 4.09375,-1.3125 4.015625,-1.3125 3.875,-1.3125 3.8125,-0.984375 3.75,-0.875 3.5,-0.4375 3.015625,-0.15625 2.5,-0.15625 c -0.359375,0 -0.6875,-0.203125 -0.953125,-0.46875 -0.40625,-0.46875 -0.4375,-1.109375 -0.4375,-1.6875 z M 1.125,-2.515625 C 1.125,-3.296875 1.53125,-4.25 2.359375,-4.25 H 2.40625 c 0.96875,0.09375 0.96875,1.125 1.0625,1.734375 z m 0,0"
   style="stroke:none;stroke-width:0"
   inkscape:connector-curvature="0" />
<path
   id="path6658"
   transform="translate(85.639434,66.656)"
   d="m 3.78125,-0.625 v 1.84375 c 0,0.375 -0.25,0.390625 -0.765625,0.390625 v 0.3125 h 2.25 v -0.3125 H 5.03125 c -0.28125,0 -0.546875,-0.03125 -0.546875,-0.40625 V -4.40625 l -0.203125,0.015625 -0.140625,0.25 L 3.875,-3.5 C 3.625,-4.0625 3.109375,-4.40625 2.5,-4.40625 c -1.25,0 -2.171875,1.109375 -2.171875,2.265625 0,1.125 0.890625,2.234375 2.109375,2.234375 0.46875,0 1.09375,-0.25 1.34375,-0.71875 z M 1.171875,-1.984375 V -2.09375 c 0,-0.796875 0.28125,-1.75 1.1875,-2.03125 0.078125,-0.015625 0.15625,-0.03125 0.25,-0.03125 0.65625,0 1.109375,0.640625 1.203125,1.21875 v 1.609375 c 0,0.59375 -0.625,1.0625 -1.015625,1.171875 C 2.6875,-0.125 2.578125,-0.125 2.46875,-0.125 1.828125,-0.140625 1.390625,-0.84375 1.234375,-1.46875 1.203125,-1.640625 1.1875,-1.8125 1.171875,-1.984375 Z m 0,0"
   style="stroke:none;stroke-width:0"
   inkscape:connector-curvature="0" />
<path
   id="path6660"
   transform="translate(90.896698,66.656)"
   d="m 0.3125,-4.296875 v 0.3125 h 0.140625 c 0.28125,0 0.578125,0.015625 0.640625,0.3125 0,0.109375 0,0.21875 0,0.328125 v 1.984375 c 0,0.328125 0.015625,0.625 0.1875,0.921875 0.28125,0.421875 0.84375,0.546875 1.3125,0.546875 0.453125,0 0.859375,-0.203125 1.109375,-0.5625 C 3.765625,-0.5625 3.84375,-0.65625 3.875,-0.78125 v 0.875 L 5.328125,-0.015625 V -0.3125 h -0.15625 c -0.328125,0 -0.625,-0.03125 -0.625,-0.484375 V -4.40625 l -1.46875,0.109375 v 0.3125 H 3.21875 c 0.328125,0 0.625,0.03125 0.625,0.5 V -1.6875 c 0,0.734375 -0.375,1.5625 -1.203125,1.5625 -0.5625,0 -0.84375,-0.140625 -0.84375,-1.203125 V -4.40625 Z m 0,0"
   style="stroke:none;stroke-width:0"
   inkscape:connector-curvature="0" />
<path
   id="path6662"
   transform="translate(96.429926,66.656)"
   d="m 1.109375,-2.3125 h 2.875 c 0.109375,0 0.15625,-0.0625 0.15625,-0.1875 0,-1.046875 -0.640625,-1.96875 -1.765625,-1.96875 -1.21875,0 -2.09375,1.09375 -2.09375,2.28125 0,0.90625 0.5,1.734375 1.390625,2.125 0.21875,0.109375 0.484375,0.15625 0.734375,0.15625 H 2.4375 c 0.765625,0 1.40625,-0.421875 1.671875,-1.1875 C 4.125,-1.125 4.125,-1.171875 4.125,-1.203125 4.125,-1.265625 4.09375,-1.3125 4.015625,-1.3125 3.875,-1.3125 3.8125,-0.984375 3.75,-0.875 3.5,-0.4375 3.015625,-0.15625 2.5,-0.15625 c -0.359375,0 -0.6875,-0.203125 -0.953125,-0.46875 -0.40625,-0.46875 -0.4375,-1.109375 -0.4375,-1.6875 z M 1.125,-2.515625 C 1.125,-3.296875 1.53125,-4.25 2.359375,-4.25 H 2.40625 c 0.96875,0.09375 0.96875,1.125 1.0625,1.734375 z m 0,0"
   style="stroke:none;stroke-width:0"
   inkscape:connector-curvature="0" />
<path
   id="path6664"
   transform="translate(100.85631,66.656)"
   d="m 0.3125,-4.296875 v 0.3125 h 0.15625 c 0.328125,0 0.625,0.03125 0.625,0.5 v 2.75 c 0,0.40625 -0.28125,0.421875 -0.71875,0.421875 H 0.3125 v 0.296875 H 2.578125 V -0.3125 H 2.3125 c -0.28125,0 -0.515625,-0.046875 -0.515625,-0.421875 v -1.8125 c 0,-0.71875 0.359375,-1.640625 1.359375,-1.640625 0.625,0 0.6875,0.6875 0.6875,1.109375 V -0.6875 c 0,0.34375 -0.28125,0.375 -0.59375,0.375 H 3.078125 v 0.296875 h 2.25 V -0.3125 h -0.25 c -0.265625,0 -0.53125,-0.046875 -0.53125,-0.390625 V -2.875 c 0,-0.328125 -0.015625,-0.671875 -0.171875,-0.96875 -0.234375,-0.4375 -0.734375,-0.5625 -1.1875,-0.5625 -0.609375,0 -1.25,0.421875 -1.4375,1.015625 L 1.734375,-4.40625 Z m 0,0"
   style="stroke:none;stroke-width:0"
   inkscape:connector-curvature="0" />
<path
   id="path6666"
   transform="translate(106.38954,66.656)"
   d="m 3.578125,-3.859375 c -0.265625,0.015625 -0.46875,0.1875 -0.46875,0.453125 0,0.28125 0.1875,0.46875 0.453125,0.46875 0.3125,0 0.46875,-0.21875 0.46875,-0.5 V -3.5 C 3.921875,-4.234375 3.078125,-4.46875 2.5,-4.46875 c -1.21875,0 -2.171875,1.0625 -2.171875,2.3125 0,1.125 0.875,2.25 2.171875,2.25 0.65625,0 1.296875,-0.359375 1.5625,-1.046875 0.03125,-0.0625 0.078125,-0.15625 0.078125,-0.21875 0,-0.078125 -0.046875,-0.125 -0.125,-0.125 -0.140625,0 -0.234375,0.375 -0.3125,0.515625 -0.234375,0.375 -0.640625,0.625 -1.09375,0.625 -1.0625,0 -1.390625,-1.0625 -1.4375,-1.84375 v -0.125 c 0,-0.796875 0.1875,-1.984375 1.28125,-2.09375 H 2.53125 c 0.375,0 0.765625,0.109375 1.046875,0.359375 z m 0,0"
   style="stroke:none;stroke-width:0"
   inkscape:connector-curvature="0" />
<path
   id="path6668"
   transform="translate(110.81592,66.656)"
   d="m 0.1875,-4.296875 v 0.3125 h 0.15625 c 0.28125,0 0.5,0.03125 0.671875,0.40625 C 1.46875,-2.484375 1.90625,-1.375 2.375,-0.28125 2.40625,-0.203125 2.484375,-0.09375 2.484375,0 2.484375,0.015625 2.46875,0.03125 2.46875,0.046875 2.40625,0.25 2.296875,0.453125 2.21875,0.640625 2.015625,1.140625 1.71875,1.8125 1.109375,1.8125 0.953125,1.8125 0.75,1.75 0.640625,1.640625 0.828125,1.609375 1.03125,1.5 1.03125,1.21875 1.03125,1 0.875,0.8125 0.65625,0.796875 c -0.3125,0 -0.46875,0.1875 -0.46875,0.421875 0,0.5 0.46875,0.8125 0.921875,0.8125 0.71875,0 1.109375,-0.734375 1.359375,-1.328125 l 0.296875,-0.71875 C 3.109375,-0.875 3.46875,-1.71875 3.828125,-2.578125 L 4.0625,-3.15625 c 0.171875,-0.46875 0.4375,-0.828125 1,-0.828125 v -0.3125 H 3.453125 v 0.3125 c 0.234375,0 0.46875,0.15625 0.46875,0.40625 0,0.125 -0.0625,0.265625 -0.109375,0.375 -0.296875,0.6875 -0.546875,1.375 -0.859375,2.046875 C 2.9375,-1.0625 2.875,-0.984375 2.859375,-0.890625 H 2.84375 C 2.78125,-1.109375 2.671875,-1.328125 2.578125,-1.546875 2.328125,-2.1875 2.015625,-2.84375 1.78125,-3.515625 1.75,-3.578125 1.703125,-3.65625 1.703125,-3.734375 v -0.03125 c 0.0625,-0.21875 0.34375,-0.21875 0.546875,-0.21875 v -0.3125 z m 0,0"
   style="stroke:none;stroke-width:0"
   inkscape:connector-curvature="0" />
</g>
<g
   id="g6674"
   style="fill:#000000;fill-opacity:1">
  <path
   id="path6672"
   transform="translate(119.391,66.656)"
   d="m 6.03125,-3.703125 c 0,-0.453125 -0.171875,-0.703125 -0.40625,-0.703125 -0.25,0 -0.515625,0.234375 -0.515625,0.46875 0,0.09375 0.046875,0.203125 0.140625,0.296875 0.171875,0.15625 0.359375,0.421875 0.359375,0.84375 0,0.390625 -0.203125,0.96875 -0.5,1.421875 C 4.8125,-0.953125 4.4375,-0.609375 3.96875,-0.609375 3.40625,-0.609375 3.09375,-0.96875 3,-1.5 c 0.109375,-0.265625 0.34375,-0.90625 0.34375,-1.1875 0,-0.109375 -0.046875,-0.21875 -0.1875,-0.21875 -0.078125,0 -0.1875,0.03125 -0.265625,0.171875 C 2.78125,-2.53125 2.65625,-1.890625 2.65625,-1.53125 2.328125,-1.0625 1.9375,-0.609375 1.3125,-0.609375 c -0.671875,0 -0.875,-0.59375 -0.875,-1.140625 0,-1.25 1.015625,-2.296875 1.015625,-2.421875 0,-0.109375 -0.078125,-0.1875 -0.1875,-0.1875 -0.125,0 -0.203125,0.125 -0.265625,0.21875 -0.5,0.734375 -0.875,1.921875 -0.875,2.828125 0,0.6875 0.21875,1.421875 1.046875,1.421875 0.703125,0 1.171875,-0.5 1.53125,-1.046875 0.09375,0.578125 0.484375,1.046875 1.09375,1.046875 0.78125,0 1.25,-0.609375 1.609375,-1.359375 0.25,-0.484375 0.625,-1.84375 0.625,-2.453125 z m 0,0"
   style="stroke:none;stroke-width:0"
   inkscape:connector-curvature="0" />
</g>
<g
   id="g6680"
   style="fill:#000000;fill-opacity:1">
  <path
   id="path6676"
   transform="translate(125.95137,66.656)"
   d="m 4.375,-7.09375 c 0.046875,-0.140625 0.046875,-0.171875 0.046875,-0.1875 0,-0.109375 -0.078125,-0.203125 -0.1875,-0.203125 -0.078125,0 -0.140625,0.03125 -0.171875,0.09375 l -3.46875,9.5 C 0.546875,2.25 0.546875,2.28125 0.546875,2.296875 0.546875,2.40625 0.640625,2.5 0.75,2.5 0.875,2.5 0.90625,2.421875 0.96875,2.25 Z m 0,0"
   style="stroke:none;stroke-width:0"
   inkscape:connector-curvature="0" />
<path
   id="path6678"
   transform="translate(130.93267,66.656)"
   d="m 6.03125,-3.703125 c 0,-0.453125 -0.171875,-0.703125 -0.40625,-0.703125 -0.25,0 -0.515625,0.234375 -0.515625,0.46875 0,0.09375 0.046875,0.203125 0.140625,0.296875 0.171875,0.15625 0.359375,0.421875 0.359375,0.84375 0,0.390625 -0.203125,0.96875 -0.5,1.421875 C 4.8125,-0.953125 4.4375,-0.609375 3.96875,-0.609375 3.40625,-0.609375 3.09375,-0.96875 3,-1.5 c 0.109375,-0.265625 0.34375,-0.90625 0.34375,-1.1875 0,-0.109375 -0.046875,-0.21875 -0.1875,-0.21875 -0.078125,0 -0.1875,0.03125 -0.265625,0.171875 C 2.78125,-2.53125 2.65625,-1.890625 2.65625,-1.53125 2.328125,-1.0625 1.9375,-0.609375 1.3125,-0.609375 c -0.671875,0 -0.875,-0.59375 -0.875,-1.140625 0,-1.25 1.015625,-2.296875 1.015625,-2.421875 0,-0.109375 -0.078125,-0.1875 -0.1875,-0.1875 -0.125,0 -0.203125,0.125 -0.265625,0.21875 -0.5,0.734375 -0.875,1.921875 -0.875,2.828125 0,0.6875 0.21875,1.421875 1.046875,1.421875 0.703125,0 1.171875,-0.5 1.53125,-1.046875 0.09375,0.578125 0.484375,1.046875 1.09375,1.046875 0.78125,0 1.25,-0.609375 1.609375,-1.359375 0.25,-0.484375 0.625,-1.84375 0.625,-2.453125 z m 0,0"
   style="stroke:none;stroke-width:0"
   inkscape:connector-curvature="0" />
</g>
<g
   id="g6684"
   style="fill:#000000;fill-opacity:1">
  <path
   id="path6682"
   transform="translate(137.132,68.15)"
   d="m 1.9375,1.09375 c -0.453125,0 -0.515625,0 -0.515625,-0.296875 v -1.125 C 1.453125,-0.296875 1.78125,0.0625 2.359375,0.0625 3.28125,0.0625 4.0625,-0.625 4.0625,-1.5 c 0,-0.859375 -0.703125,-1.578125 -1.59375,-1.578125 -0.390625,0 -0.796875,0.15625 -1.078125,0.4375 v -0.4375 L 0.34375,-3 v 0.25 c 0.484375,0 0.515625,0.046875 0.515625,0.328125 v 3.21875 c 0,0.296875 -0.0625,0.296875 -0.515625,0.296875 v 0.265625 c 0.015625,0 0.5,-0.03125 0.796875,-0.03125 0.25,0 0.734375,0.015625 0.796875,0.03125 z M 1.421875,-2.328125 C 1.625,-2.671875 2.03125,-2.84375 2.390625,-2.84375 c 0.59375,0 1.046875,0.609375 1.046875,1.34375 0,0.796875 -0.53125,1.375 -1.109375,1.375 -0.625,0 -0.890625,-0.53125 -0.90625,-0.578125 z m 0,0"
   style="stroke:none;stroke-width:0"
   inkscape:connector-curvature="0" />
</g>
</g>
</g></g></svg>