<?xml version="1.0" encoding="UTF-8" standalone="no"?>
<!-- Created with Inkscape (http://www.inkscape.org/) -->

<svg
   xmlns:ns1="http://www.iki.fi/pav/software/textext/"
   xmlns:dc="http://purl.org/dc/elements/1.1/"
   xmlns:cc="http://creativecommons.org/ns#"
   xmlns:rdf="http://www.w3.org/1999/02/22-rdf-syntax-ns#"
   xmlns:svg="http://www.w3.org/2000/svg"
   xmlns="http://www.w3.org/2000/svg"
   xmlns:sodipodi="http://sodipodi.sourceforge.net/DTD/sodipodi-0.dtd"
   xmlns:inkscape="http://www.inkscape.org/namespaces/inkscape"
   width="210mm"
   height="297mm"
   viewBox="0 0 210 297"
   version="1.1"
   id="svg2949"
   inkscape:version="0.92.4 5da689c313, 2019-01-14"
   sodipodi:docname="bg_flatten.svg">
  <defs
     id="defs2943">
    <marker
       inkscape:isstock="true"
       style="overflow:visible;"
       id="marker6658"
       refX="0.0"
       refY="0.0"
       orient="auto"
       inkscape:stockid="Arrow1Mend">
      <path
         transform="scale(0.4) rotate(180) translate(10,0)"
         style="fill-rule:evenodd;stroke:#000000;stroke-width:1pt;stroke-opacity:1;fill:#000000;fill-opacity:1"
         d="M 0.0,0.0 L 5.0,-5.0 L -12.5,0.0 L 5.0,5.0 L 0.0,0.0 z "
         id="path6656" />
    </marker>
    <marker
       inkscape:stockid="Arrow1Mend"
       orient="auto"
       refY="0.0"
       refX="0.0"
       id="Arrow1Mend"
       style="overflow:visible;"
       inkscape:isstock="true"
       inkscape:collect="always">
      <path
         id="path5739"
         d="M 0.0,0.0 L 5.0,-5.0 L -12.5,0.0 L 5.0,5.0 L 0.0,0.0 z "
         style="fill-rule:evenodd;stroke:#000000;stroke-width:1pt;stroke-opacity:1;fill:#000000;fill-opacity:1"
         transform="scale(0.4) rotate(180) translate(10,0)" />
    </marker>
  </defs>
  <sodipodi:namedview
     id="base"
     pagecolor="#ffffff"
     bordercolor="#666666"
     borderopacity="1.0"
     inkscape:pageopacity="0.0"
     inkscape:pageshadow="2"
     inkscape:zoom="1.4"
     inkscape:cx="295.56137"
     inkscape:cy="535.39101"
     inkscape:document-units="mm"
     inkscape:current-layer="g4766"
     showgrid="false"
     inkscape:snap-global="true"
     inkscape:window-width="1920"
     inkscape:window-height="1052"
     inkscape:window-x="0"
     inkscape:window-y="0"
     inkscape:window-maximized="1" />
  <metadata
     id="metadata2946">
    <rdf:RDF>
      <cc:Work
         rdf:about="">
        <dc:format>image/svg+xml</dc:format>
        <dc:type
           rdf:resource="http://purl.org/dc/dcmitype/StillImage" />
        <dc:title></dc:title>
      </cc:Work>
    </rdf:RDF>
  </metadata>
  <g
     inkscape:label="Layer 1"
     inkscape:groupmode="layer"
     id="layer1">
    <g
       id="g3049"
       transform="translate(18.237351)">
      <g
         id="g3021" />
      <g
         transform="rotate(-30,36.362054,156.49648)"
         id="g3958">
        <g
           id="g3944"
           transform="rotate(30,51.233194,168.771)">
          <path
             style="fill:none;stroke:#999999;stroke-width:0.26499999;stroke-linecap:butt;stroke-linejoin:miter;stroke-miterlimit:4;stroke-dasharray:0.52999997, 0.52999997;stroke-dashoffset:0;stroke-opacity:1"
             d="m 42.765603,164.94845 v 14.70631"
             id="path2102"
             inkscape:connector-curvature="0"
             sodipodi:nodetypes="cc" />
          <path
             sodipodi:nodetypes="cc"
             inkscape:connector-curvature="0"
             id="path2104"
             d="m 47.015715,162.43046 v 14.82028"
             style="fill:none;stroke:#999999;stroke-width:0.26499999;stroke-linecap:butt;stroke-linejoin:miter;stroke-miterlimit:4;stroke-dasharray:0.52999997, 0.52999997;stroke-dashoffset:0;stroke-opacity:1" />
          <path
             sodipodi:nodetypes="cc"
             inkscape:connector-curvature="0"
             id="path2114"
             d="m 51.290521,165.09781 -12.595311,7.2719"
             style="fill:none;stroke:#999999;stroke-width:0.26499999;stroke-linecap:butt;stroke-linejoin:miter;stroke-miterlimit:4;stroke-dasharray:0.52999997, 0.52999997;stroke-dashoffset:0;stroke-opacity:1" />
          <path
             style="fill:none;stroke:#999999;stroke-width:0.26499999;stroke-linecap:butt;stroke-linejoin:miter;stroke-miterlimit:4;stroke-dasharray:0.52999997, 0.52999997;stroke-dashoffset:0;stroke-opacity:1"
             d="m 51.338646,169.97763 -12.618568,7.28533"
             id="path2116"
             inkscape:connector-curvature="0"
             sodipodi:nodetypes="cc" />
          <path
             sodipodi:nodetypes="cc"
             inkscape:connector-curvature="0"
             id="path2126"
             d="m 34.239177,167.35387 12.90428,-7.43678"
             style="fill:none;stroke:#000000;stroke-width:0.26458332px;stroke-linecap:butt;stroke-linejoin:miter;stroke-opacity:1" />
          <path
             sodipodi:nodetypes="cc"
             style="fill:none;stroke:#000000;stroke-width:0.26458332px;stroke-linecap:butt;stroke-linejoin:miter;stroke-opacity:1"
             d="m 38.396915,167.44836 12.868912,-7.53127"
             id="path2128"
             inkscape:connector-curvature="0" />
          <path
             style="fill:none;stroke:#000000;stroke-width:0.26458332px;stroke-linecap:butt;stroke-linejoin:miter;stroke-opacity:1"
             d="M 34.239177,182.15385 V 167.35387"
             id="path2130"
             inkscape:connector-curvature="0"
             sodipodi:nodetypes="cc" />
          <path
             inkscape:connector-curvature="0"
             id="path2132"
             d="m 34.239177,167.35387 c 3.875407,0 4.276312,0.13364 4.276312,0.13364 v 14.73775"
             style="fill:none;stroke:#000000;stroke-width:0.26458332px;stroke-linecap:butt;stroke-linejoin:miter;stroke-opacity:1"
             sodipodi:nodetypes="ccc" />
          <path
             sodipodi:nodetypes="ccc"
             inkscape:connector-curvature="0"
             id="path2138"
             d="m 34.215651,182.15274 4.326043,0.0334 12.84878,-7.37733"
             style="fill:none;stroke:#000000;stroke-width:0.26458332px;stroke-linecap:butt;stroke-linejoin:miter;stroke-opacity:1" />
          <path
             inkscape:connector-curvature="0"
             id="path3889"
             d="m 51.265827,159.91709 h -4.12237"
             style="fill:none;stroke:#000000;stroke-width:0.26458332px;stroke-linecap:butt;stroke-linejoin:miter;stroke-opacity:1" />
          <path
             inkscape:connector-curvature="0"
             id="path3930"
             d="m 51.265827,159.91709 0.124645,14.89172"
             style="fill:none;stroke:#000000;stroke-width:0.26458332px;stroke-linecap:butt;stroke-linejoin:miter;stroke-opacity:1" />
        </g>
      </g>
      <g
         transform="rotate(30,90.495649,177.90849)"
         id="g4023">
        <g
           transform="rotate(-30,32.692535,169.22493)"
           id="g4035">
          <path
             style="fill:none;stroke:#999999;stroke-width:0.26499999;stroke-linecap:butt;stroke-linejoin:miter;stroke-miterlimit:4;stroke-dasharray:0.52999997, 0.52999997;stroke-dashoffset:0;stroke-opacity:1"
             d="m 80.077989,165.4748 -4.089075,2.36082"
             id="path3964"
             inkscape:connector-curvature="0"
             sodipodi:nodetypes="cc" />
          <path
             sodipodi:nodetypes="cc"
             inkscape:connector-curvature="0"
             id="path3966"
             d="m 80.039316,170.40473 -4.025534,2.32414"
             style="fill:none;stroke:#999999;stroke-width:0.26499999;stroke-linecap:butt;stroke-linejoin:miter;stroke-miterlimit:4;stroke-dasharray:0.52999997, 0.52999997;stroke-dashoffset:0;stroke-opacity:1" />
          <path
             style="fill:none;stroke:#000000;stroke-width:0.26458332px;stroke-linecap:butt;stroke-linejoin:miter;stroke-opacity:1"
             d="m 71.532881,162.81978 4.311246,-2.47559"
             id="path3968"
             inkscape:connector-curvature="0"
             sodipodi:nodetypes="cc" />
          <path
             inkscape:connector-curvature="0"
             id="path3970"
             d="m 75.690619,162.91427 4.362676,-2.62019"
             style="fill:none;stroke:#000000;stroke-width:0.26458332px;stroke-linecap:butt;stroke-linejoin:miter;stroke-opacity:1"
             sodipodi:nodetypes="cc" />
          <path
             sodipodi:nodetypes="cc"
             inkscape:connector-curvature="0"
             id="path3972"
             d="M 71.532881,177.61976 V 162.81978"
             style="fill:none;stroke:#000000;stroke-width:0.26458332px;stroke-linecap:butt;stroke-linejoin:miter;stroke-opacity:1" />
          <path
             sodipodi:nodetypes="ccc"
             style="fill:none;stroke:#000000;stroke-width:0.26458332px;stroke-linecap:butt;stroke-linejoin:miter;stroke-opacity:1"
             d="m 71.532881,162.81978 c 3.875407,0 4.276312,0.13364 4.276312,0.13364 v 14.73775"
             id="path3974"
             inkscape:connector-curvature="0" />
          <path
             style="fill:none;stroke:#000000;stroke-width:0.26458332px;stroke-linecap:butt;stroke-linejoin:miter;stroke-opacity:1"
             d="m 71.509355,177.61865 4.326043,0.0334 4.284679,-2.43284"
             id="path3976"
             inkscape:connector-curvature="0"
             sodipodi:nodetypes="ccc" />
          <path
             inkscape:connector-curvature="0"
             id="path4009"
             d="m 80.059306,160.41436 0.06077,14.80485"
             style="fill:none;stroke:#000000;stroke-width:0.26458332px;stroke-linecap:butt;stroke-linejoin:miter;stroke-opacity:1"
             sodipodi:nodetypes="cc" />
          <path
             inkscape:connector-curvature="0"
             id="path4011"
             d="M 80.059304,160.41436 H 75.707887"
             style="fill:none;stroke:#000000;stroke-width:0.26458332px;stroke-linecap:butt;stroke-linejoin:miter;stroke-opacity:1" />
        </g>
        <g
           id="g4055"
           transform="rotate(-30,66.606293,160.13777)">
          <path
             sodipodi:nodetypes="cc"
             inkscape:connector-curvature="0"
             id="path4037"
             d="m 80.077989,165.4748 -4.089075,2.36082"
             style="fill:none;stroke:#999999;stroke-width:0.26499999;stroke-linecap:butt;stroke-linejoin:miter;stroke-miterlimit:4;stroke-dasharray:0.52999997, 0.52999997;stroke-dashoffset:0;stroke-opacity:1" />
          <path
             style="fill:none;stroke:#999999;stroke-width:0.26499999;stroke-linecap:butt;stroke-linejoin:miter;stroke-miterlimit:4;stroke-dasharray:0.52999997, 0.52999997;stroke-dashoffset:0;stroke-opacity:1"
             d="m 80.039316,170.40473 -4.025534,2.32414"
             id="path4039"
             inkscape:connector-curvature="0"
             sodipodi:nodetypes="cc" />
          <path
             sodipodi:nodetypes="cc"
             inkscape:connector-curvature="0"
             id="path4041"
             d="m 71.532881,162.81978 4.311246,-2.47559"
             style="fill:none;stroke:#000000;stroke-width:0.26458332px;stroke-linecap:butt;stroke-linejoin:miter;stroke-opacity:1" />
          <path
             sodipodi:nodetypes="cc"
             style="fill:none;stroke:#000000;stroke-width:0.26458332px;stroke-linecap:butt;stroke-linejoin:miter;stroke-opacity:1"
             d="m 75.690619,162.91427 4.362676,-2.62019"
             id="path4043"
             inkscape:connector-curvature="0" />
          <path
             style="fill:none;stroke:#000000;stroke-width:0.26458332px;stroke-linecap:butt;stroke-linejoin:miter;stroke-opacity:1"
             d="M 71.532881,177.61976 V 162.81978"
             id="path4045"
             inkscape:connector-curvature="0"
             sodipodi:nodetypes="cc" />
          <path
             inkscape:connector-curvature="0"
             id="path4047"
             d="m 71.532881,162.81978 c 3.875407,0 4.276312,0.13364 4.276312,0.13364 v 14.73775"
             style="fill:none;stroke:#000000;stroke-width:0.26458332px;stroke-linecap:butt;stroke-linejoin:miter;stroke-opacity:1"
             sodipodi:nodetypes="ccc" />
          <path
             sodipodi:nodetypes="ccc"
             inkscape:connector-curvature="0"
             id="path4049"
             d="m 71.509355,177.61865 4.326043,0.0334 4.284679,-2.43284"
             style="fill:none;stroke:#000000;stroke-width:0.26458332px;stroke-linecap:butt;stroke-linejoin:miter;stroke-opacity:1" />
          <path
             sodipodi:nodetypes="cc"
             style="fill:none;stroke:#000000;stroke-width:0.26458332px;stroke-linecap:butt;stroke-linejoin:miter;stroke-opacity:1"
             d="m 80.059306,160.41436 0.06077,14.80485"
             id="path4051"
             inkscape:connector-curvature="0" />
          <path
             style="fill:none;stroke:#000000;stroke-width:0.26458332px;stroke-linecap:butt;stroke-linejoin:miter;stroke-opacity:1"
             d="M 80.059304,160.41436 H 75.707887"
             id="path4053"
             inkscape:connector-curvature="0" />
        </g>
        <g
           transform="rotate(-30,101.14346,150.88356)"
           id="g4075">
          <path
             style="fill:none;stroke:#999999;stroke-width:0.26499999;stroke-linecap:butt;stroke-linejoin:miter;stroke-miterlimit:4;stroke-dasharray:0.52999997, 0.52999997;stroke-dashoffset:0;stroke-opacity:1"
             d="m 80.077989,165.4748 -4.089075,2.36082"
             id="path4057"
             inkscape:connector-curvature="0"
             sodipodi:nodetypes="cc" />
          <path
             sodipodi:nodetypes="cc"
             inkscape:connector-curvature="0"
             id="path4059"
             d="m 80.039316,170.40473 -4.025534,2.32414"
             style="fill:none;stroke:#999999;stroke-width:0.26499999;stroke-linecap:butt;stroke-linejoin:miter;stroke-miterlimit:4;stroke-dasharray:0.52999997, 0.52999997;stroke-dashoffset:0;stroke-opacity:1" />
          <path
             style="fill:none;stroke:#000000;stroke-width:0.26458332px;stroke-linecap:butt;stroke-linejoin:miter;stroke-opacity:1"
             d="m 71.532881,162.81978 4.311246,-2.47559"
             id="path4061"
             inkscape:connector-curvature="0"
             sodipodi:nodetypes="cc" />
          <path
             inkscape:connector-curvature="0"
             id="path4063"
             d="m 75.690619,162.91427 4.362676,-2.62019"
             style="fill:none;stroke:#000000;stroke-width:0.26458332px;stroke-linecap:butt;stroke-linejoin:miter;stroke-opacity:1"
             sodipodi:nodetypes="cc" />
          <path
             sodipodi:nodetypes="cc"
             inkscape:connector-curvature="0"
             id="path4065"
             d="M 71.532881,177.61976 V 162.81978"
             style="fill:none;stroke:#000000;stroke-width:0.26458332px;stroke-linecap:butt;stroke-linejoin:miter;stroke-opacity:1" />
          <path
             sodipodi:nodetypes="ccc"
             style="fill:none;stroke:#000000;stroke-width:0.26458332px;stroke-linecap:butt;stroke-linejoin:miter;stroke-opacity:1"
             d="m 71.532881,162.81978 c 3.875407,0 4.276312,0.13364 4.276312,0.13364 v 14.73775"
             id="path4067"
             inkscape:connector-curvature="0" />
          <path
             style="fill:none;stroke:#000000;stroke-width:0.26458332px;stroke-linecap:butt;stroke-linejoin:miter;stroke-opacity:1"
             d="m 71.509355,177.61865 4.326043,0.0334 4.284679,-2.43284"
             id="path4069"
             inkscape:connector-curvature="0"
             sodipodi:nodetypes="ccc" />
          <path
             inkscape:connector-curvature="0"
             id="path4071"
             d="m 80.059306,160.41436 0.06077,14.80485"
             style="fill:none;stroke:#000000;stroke-width:0.26458332px;stroke-linecap:butt;stroke-linejoin:miter;stroke-opacity:1"
             sodipodi:nodetypes="cc" />
          <path
             inkscape:connector-curvature="0"
             id="path4073"
             d="M 80.059304,160.41436 H 75.707887"
             style="fill:none;stroke:#000000;stroke-width:0.26458332px;stroke-linecap:butt;stroke-linejoin:miter;stroke-opacity:1" />
        </g>
      </g>
      <g
         id="g4766">
        <g
           transform="translate(0,79.091522)"
           id="g4692">
          <g
             id="g5718"
             transform="matrix(0.42522126,0,0,0.42522126,69.389682,29.806023)">
            <g
               id="g4578"
               transform="translate(7.7083328e-8,-79.091523)">
              <circle
                 style="opacity:1;fill:none;fill-opacity:1;stroke:#000000;stroke-width:0.18675433;stroke-miterlimit:4;stroke-dasharray:none;stroke-dashoffset:0;stroke-opacity:1"
                 id="path1485"
                 cx="125.32715"
                 cy="137.03064"
                 r="5.6604137" />
              <g
                 id="g410"
                 ns1:jacobian_sqrt="0.735154"
                 inkscapeversion="0.92.4"
                 ns1:alignment="middle center"
                 ns1:scale="2.08390219912"
                 ns1:preamble="/home/tim/.config/inkscape/extensions/textext/default_packages.tex"
                 ns1:text="$x_1$"
                 ns1:pdfconverter="pdf2svg"
                 ns1:texconverter="pdflatex"
                 ns1:version="0.9.1"
                 transform="matrix(0.735154,0,0,0.735154,12.810057,39.3039)">
                <g
                   id="g408">
                  <g
                     id="g402"
                     style="fill:#000000;fill-opacity:1">
                    <path
                       id="path400"
                       transform="translate(148.712,134.765)"
                       d="M 3.328125,-3.015625 C 3.390625,-3.265625 3.625,-4.1875 4.3125,-4.1875 c 0.046875,0 0.296875,0 0.5,0.125 C 4.53125,-4 4.34375,-3.765625 4.34375,-3.515625 c 0,0.15625 0.109375,0.34375 0.375,0.34375 0.21875,0 0.53125,-0.171875 0.53125,-0.578125 0,-0.515625 -0.578125,-0.65625 -0.921875,-0.65625 -0.578125,0 -0.921875,0.53125 -1.046875,0.75 -0.25,-0.65625 -0.78125,-0.75 -1.078125,-0.75 -1.03125,0 -1.609375,1.28125 -1.609375,1.53125 0,0.109375 0.109375,0.109375 0.125,0.109375 0.078125,0 0.109375,-0.03125 0.125,-0.109375 0.34375,-1.0625 1,-1.3125 1.34375,-1.3125 0.1875,0 0.53125,0.09375 0.53125,0.671875 0,0.3125 -0.171875,0.96875 -0.53125,2.375 -0.15625,0.609375 -0.515625,1.03125 -0.953125,1.03125 -0.0625,0 -0.28125,0 -0.5,-0.125 0.25,-0.0625 0.46875,-0.265625 0.46875,-0.546875 0,-0.265625 -0.21875,-0.34375 -0.359375,-0.34375 -0.3125,0 -0.546875,0.25 -0.546875,0.578125 0,0.453125 0.484375,0.65625 0.921875,0.65625 0.671875,0 1.03125,-0.703125 1.046875,-0.75 0.125,0.359375 0.484375,0.75 1.078125,0.75 1.03125,0 1.59375,-1.28125 1.59375,-1.53125 0,-0.109375 -0.078125,-0.109375 -0.109375,-0.109375 -0.09375,0 -0.109375,0.046875 -0.140625,0.109375 -0.328125,1.078125 -1,1.3125 -1.3125,1.3125 -0.390625,0 -0.546875,-0.3125 -0.546875,-0.65625 0,-0.21875 0.046875,-0.4375 0.15625,-0.875 z m 0,0"
                       style="stroke:none;stroke-width:0"
                       inkscape:connector-curvature="0" />
                  </g>
                  <g
                     id="g406"
                     style="fill:#000000;fill-opacity:1">
                    <path
                       id="path404"
                       transform="translate(154.406,136.259)"
                       d="m 2.328125,-4.4375 c 0,-0.1875 0,-0.1875 -0.203125,-0.1875 -0.453125,0.4375 -1.078125,0.4375 -1.359375,0.4375 v 0.25 c 0.15625,0 0.625,0 1,-0.1875 v 3.546875 c 0,0.234375 0,0.328125 -0.6875,0.328125 H 0.8125 V 0 c 0.125,0 0.984375,-0.03125 1.234375,-0.03125 0.21875,0 1.09375,0.03125 1.25,0.03125 V -0.25 H 3.03125 c -0.703125,0 -0.703125,-0.09375 -0.703125,-0.328125 z m 0,0"
                       style="stroke:none;stroke-width:0"
                       inkscape:connector-curvature="0" />
                  </g>
                </g>
              </g>
            </g>
            <g
               id="g4587"
               transform="translate(7.7083328e-8,-85.537051)">
              <circle
                 r="5.6604137"
                 cy="158.80659"
                 cx="125.32715"
                 id="circle1487"
                 style="opacity:1;fill:none;fill-opacity:1;stroke:#000000;stroke-width:0.18675433;stroke-miterlimit:4;stroke-dasharray:none;stroke-dashoffset:0;stroke-opacity:1" />
              <g
                 id="g582"
                 ns1:jacobian_sqrt="0.735154"
                 inkscapeversion="0.92.4"
                 ns1:alignment="middle center"
                 ns1:scale="2.08390219912"
                 ns1:preamble="/home/tim/.config/inkscape/extensions/textext/default_packages.tex"
                 ns1:text="$x_2$"
                 ns1:pdfconverter="pdf2svg"
                 ns1:texconverter="pdflatex"
                 ns1:version="0.9.1"
                 transform="matrix(0.735154,0,0,0.735154,12.729647,60.943036)">
                <g
                   id="g580">
                  <g
                     id="g574"
                     style="fill:#000000;fill-opacity:1">
                    <path
                       inkscape:connector-curvature="0"
                       id="path572"
                       transform="translate(148.712,134.765)"
                       d="M 3.328125,-3.015625 C 3.390625,-3.265625 3.625,-4.1875 4.3125,-4.1875 c 0.046875,0 0.296875,0 0.5,0.125 C 4.53125,-4 4.34375,-3.765625 4.34375,-3.515625 c 0,0.15625 0.109375,0.34375 0.375,0.34375 0.21875,0 0.53125,-0.171875 0.53125,-0.578125 0,-0.515625 -0.578125,-0.65625 -0.921875,-0.65625 -0.578125,0 -0.921875,0.53125 -1.046875,0.75 -0.25,-0.65625 -0.78125,-0.75 -1.078125,-0.75 -1.03125,0 -1.609375,1.28125 -1.609375,1.53125 0,0.109375 0.109375,0.109375 0.125,0.109375 0.078125,0 0.109375,-0.03125 0.125,-0.109375 0.34375,-1.0625 1,-1.3125 1.34375,-1.3125 0.1875,0 0.53125,0.09375 0.53125,0.671875 0,0.3125 -0.171875,0.96875 -0.53125,2.375 -0.15625,0.609375 -0.515625,1.03125 -0.953125,1.03125 -0.0625,0 -0.28125,0 -0.5,-0.125 0.25,-0.0625 0.46875,-0.265625 0.46875,-0.546875 0,-0.265625 -0.21875,-0.34375 -0.359375,-0.34375 -0.3125,0 -0.546875,0.25 -0.546875,0.578125 0,0.453125 0.484375,0.65625 0.921875,0.65625 0.671875,0 1.03125,-0.703125 1.046875,-0.75 0.125,0.359375 0.484375,0.75 1.078125,0.75 1.03125,0 1.59375,-1.28125 1.59375,-1.53125 0,-0.109375 -0.078125,-0.109375 -0.109375,-0.109375 -0.09375,0 -0.109375,0.046875 -0.140625,0.109375 -0.328125,1.078125 -1,1.3125 -1.3125,1.3125 -0.390625,0 -0.546875,-0.3125 -0.546875,-0.65625 0,-0.21875 0.046875,-0.4375 0.15625,-0.875 z m 0,0"
                       style="stroke:none;stroke-width:0" />
                  </g>
                  <g
                     id="g578"
                     style="fill:#000000;fill-opacity:1">
                    <path
                       inkscape:connector-curvature="0"
                       id="path576"
                       transform="translate(154.406,136.259)"
                       d="M 3.515625,-1.265625 H 3.28125 c -0.015625,0.15625 -0.09375,0.5625 -0.1875,0.625 C 3.046875,-0.59375 2.515625,-0.59375 2.40625,-0.59375 H 1.125 c 0.734375,-0.640625 0.984375,-0.84375 1.390625,-1.171875 0.515625,-0.40625 1,-0.84375 1,-1.5 0,-0.84375 -0.734375,-1.359375 -1.625,-1.359375 -0.859375,0 -1.453125,0.609375 -1.453125,1.25 0,0.34375 0.296875,0.390625 0.375,0.390625 0.15625,0 0.359375,-0.125 0.359375,-0.375 0,-0.125 -0.046875,-0.375 -0.40625,-0.375 C 0.984375,-4.21875 1.453125,-4.375 1.78125,-4.375 c 0.703125,0 1.0625,0.546875 1.0625,1.109375 0,0.609375 -0.4375,1.078125 -0.65625,1.328125 L 0.515625,-0.265625 C 0.4375,-0.203125 0.4375,-0.1875 0.4375,0 h 2.875 z m 0,0"
                       style="stroke:none;stroke-width:0" />
                  </g>
                </g>
              </g>
            </g>
            <g
               id="g4596"
               transform="translate(7.7083328e-8,-91.982564)">
              <circle
                 style="opacity:1;fill:none;fill-opacity:1;stroke:#000000;stroke-width:0.18675433;stroke-miterlimit:4;stroke-dasharray:none;stroke-dashoffset:0;stroke-opacity:1"
                 id="circle1489"
                 cx="125.32715"
                 cy="180.58253"
                 r="5.6604137" />
              <g
                 id="g730"
                 ns1:jacobian_sqrt="0.735154"
                 inkscapeversion="0.92.4"
                 ns1:alignment="middle center"
                 ns1:scale="2.08390219912"
                 ns1:preamble="/home/tim/.config/inkscape/extensions/textext/default_packages.tex"
                 ns1:text="$x_3$"
                 ns1:pdfconverter="pdf2svg"
                 ns1:texconverter="pdflatex"
                 ns1:version="0.9.1"
                 transform="matrix(0.735154,0,0,0.735154,12.706677,82.67222)">
                <g
                   id="g728">
                  <g
                     id="g722"
                     style="fill:#000000;fill-opacity:1">
                    <path
                       inkscape:connector-curvature="0"
                       id="path720"
                       transform="translate(148.712,134.765)"
                       d="M 3.328125,-3.015625 C 3.390625,-3.265625 3.625,-4.1875 4.3125,-4.1875 c 0.046875,0 0.296875,0 0.5,0.125 C 4.53125,-4 4.34375,-3.765625 4.34375,-3.515625 c 0,0.15625 0.109375,0.34375 0.375,0.34375 0.21875,0 0.53125,-0.171875 0.53125,-0.578125 0,-0.515625 -0.578125,-0.65625 -0.921875,-0.65625 -0.578125,0 -0.921875,0.53125 -1.046875,0.75 -0.25,-0.65625 -0.78125,-0.75 -1.078125,-0.75 -1.03125,0 -1.609375,1.28125 -1.609375,1.53125 0,0.109375 0.109375,0.109375 0.125,0.109375 0.078125,0 0.109375,-0.03125 0.125,-0.109375 0.34375,-1.0625 1,-1.3125 1.34375,-1.3125 0.1875,0 0.53125,0.09375 0.53125,0.671875 0,0.3125 -0.171875,0.96875 -0.53125,2.375 -0.15625,0.609375 -0.515625,1.03125 -0.953125,1.03125 -0.0625,0 -0.28125,0 -0.5,-0.125 0.25,-0.0625 0.46875,-0.265625 0.46875,-0.546875 0,-0.265625 -0.21875,-0.34375 -0.359375,-0.34375 -0.3125,0 -0.546875,0.25 -0.546875,0.578125 0,0.453125 0.484375,0.65625 0.921875,0.65625 0.671875,0 1.03125,-0.703125 1.046875,-0.75 0.125,0.359375 0.484375,0.75 1.078125,0.75 1.03125,0 1.59375,-1.28125 1.59375,-1.53125 0,-0.109375 -0.078125,-0.109375 -0.109375,-0.109375 -0.09375,0 -0.109375,0.046875 -0.140625,0.109375 -0.328125,1.078125 -1,1.3125 -1.3125,1.3125 -0.390625,0 -0.546875,-0.3125 -0.546875,-0.65625 0,-0.21875 0.046875,-0.4375 0.15625,-0.875 z m 0,0"
                       style="stroke:none;stroke-width:0" />
                  </g>
                  <g
                     id="g726"
                     style="fill:#000000;fill-opacity:1">
                    <path
                       inkscape:connector-curvature="0"
                       id="path724"
                       transform="translate(154.406,136.259)"
                       d="m 1.90625,-2.328125 c 0.546875,0 0.9375,0.375 0.9375,1.125 0,0.859375 -0.515625,1.125 -0.90625,1.125 -0.28125,0 -0.90625,-0.078125 -1.1875,-0.5 0.328125,0 0.40625,-0.234375 0.40625,-0.390625 0,-0.21875 -0.171875,-0.375 -0.390625,-0.375 -0.1875,0 -0.390625,0.125 -0.390625,0.40625 0,0.65625 0.71875,1.078125 1.5625,1.078125 0.96875,0 1.640625,-0.65625 1.640625,-1.34375 0,-0.546875 -0.4375,-1.09375 -1.203125,-1.25 0.71875,-0.265625 0.984375,-0.78125 0.984375,-1.21875 0,-0.546875 -0.625,-0.953125 -1.40625,-0.953125 -0.765625,0 -1.359375,0.375 -1.359375,0.9375 0,0.234375 0.15625,0.359375 0.359375,0.359375 0.21875,0 0.359375,-0.15625 0.359375,-0.34375 0,-0.203125 -0.140625,-0.359375 -0.359375,-0.375 0.25,-0.296875 0.71875,-0.375 0.984375,-0.375 0.3125,0 0.75,0.15625 0.75,0.75 0,0.296875 -0.09375,0.625 -0.28125,0.828125 -0.21875,0.265625 -0.421875,0.28125 -0.765625,0.3125 -0.171875,0.015625 -0.1875,0.015625 -0.21875,0.015625 -0.015625,0 -0.078125,0.015625 -0.078125,0.09375 0,0.09375 0.0625,0.09375 0.1875,0.09375 z m 0,0"
                       style="stroke:none;stroke-width:0" />
                  </g>
                </g>
              </g>
            </g>
            <g
               transform="translate(7.7083328e-8,-33.100242)"
               id="g4612">
              <circle
                 r="5.6604137"
                 cy="137.03064"
                 cx="125.32715"
                 id="circle4598"
                 style="opacity:1;fill:none;fill-opacity:1;stroke:#000000;stroke-width:0.18675433;stroke-miterlimit:4;stroke-dasharray:none;stroke-dashoffset:0;stroke-opacity:1" />
              <g
                 transform="matrix(0.735154,0,0,0.735154,12.666472,39.3039)"
                 ns1:version="0.9.1"
                 ns1:texconverter="pdflatex"
                 ns1:pdfconverter="pdf2svg"
                 ns1:text="$x_4$"
                 ns1:preamble="/home/tim/.config/inkscape/extensions/textext/default_packages.tex"
                 ns1:scale="2.08390219912"
                 ns1:alignment="middle center"
                 ns1:jacobian_sqrt="0.735154"
                 id="g4850">
                <g
                   id="surface1">
                  <g
                     style="fill:#000000;fill-opacity:1"
                     id="g4843">
                    <path
                       style="stroke:none;stroke-width:0"
                       d="M 3.328125,-3.015625 C 3.390625,-3.265625 3.625,-4.1875 4.3125,-4.1875 c 0.046875,0 0.296875,0 0.5,0.125 C 4.53125,-4 4.34375,-3.765625 4.34375,-3.515625 c 0,0.15625 0.109375,0.34375 0.375,0.34375 0.21875,0 0.53125,-0.171875 0.53125,-0.578125 0,-0.515625 -0.578125,-0.65625 -0.921875,-0.65625 -0.578125,0 -0.921875,0.53125 -1.046875,0.75 -0.25,-0.65625 -0.78125,-0.75 -1.078125,-0.75 -1.03125,0 -1.609375,1.28125 -1.609375,1.53125 0,0.109375 0.109375,0.109375 0.125,0.109375 0.078125,0 0.109375,-0.03125 0.125,-0.109375 0.34375,-1.0625 1,-1.3125 1.34375,-1.3125 0.1875,0 0.53125,0.09375 0.53125,0.671875 0,0.3125 -0.171875,0.96875 -0.53125,2.375 -0.15625,0.609375 -0.515625,1.03125 -0.953125,1.03125 -0.0625,0 -0.28125,0 -0.5,-0.125 0.25,-0.0625 0.46875,-0.265625 0.46875,-0.546875 0,-0.265625 -0.21875,-0.34375 -0.359375,-0.34375 -0.3125,0 -0.546875,0.25 -0.546875,0.578125 0,0.453125 0.484375,0.65625 0.921875,0.65625 0.671875,0 1.03125,-0.703125 1.046875,-0.75 0.125,0.359375 0.484375,0.75 1.078125,0.75 1.03125,0 1.59375,-1.28125 1.59375,-1.53125 0,-0.109375 -0.078125,-0.109375 -0.109375,-0.109375 -0.09375,0 -0.109375,0.046875 -0.140625,0.109375 -0.328125,1.078125 -1,1.3125 -1.3125,1.3125 -0.390625,0 -0.546875,-0.3125 -0.546875,-0.65625 0,-0.21875 0.046875,-0.4375 0.15625,-0.875 z m 0,0"
                       transform="translate(148.712,134.765)"
                       id="path4841"
                       inkscape:connector-curvature="0" />
                  </g>
                  <g
                     style="fill:#000000;fill-opacity:1"
                     id="g4847">
                    <path
                       style="stroke:none;stroke-width:0"
                       d="m 3.6875,-1.140625 v -0.25 H 2.90625 V -4.5 c 0,-0.140625 0,-0.203125 -0.140625,-0.203125 -0.09375,0 -0.125,0 -0.1875,0.109375 l -2.3125,3.203125 v 0.25 h 2.0625 v 0.5625 c 0,0.25 0,0.328125 -0.578125,0.328125 H 1.5625 V 0 C 1.921875,-0.015625 2.359375,-0.03125 2.609375,-0.03125 2.875,-0.03125 3.3125,-0.015625 3.671875,0 v -0.25 h -0.1875 C 2.90625,-0.25 2.90625,-0.328125 2.90625,-0.578125 v -0.5625 z M 2.375,-3.9375 v 2.546875 H 0.53125 Z m 0,0"
                       transform="translate(154.406,136.259)"
                       id="path4845"
                       inkscape:connector-curvature="0" />
                  </g>
                </g>
              </g>
            </g>
            <g
               transform="translate(7.7083328e-8,-39.54577)"
               id="g4628">
              <circle
                 style="opacity:1;fill:none;fill-opacity:1;stroke:#000000;stroke-width:0.18675433;stroke-miterlimit:4;stroke-dasharray:none;stroke-dashoffset:0;stroke-opacity:1"
                 id="circle4614"
                 cx="125.32715"
                 cy="158.80659"
                 r="5.6604137" />
              <g
                 transform="matrix(0.735154,0,0,0.735154,12.729647,60.891345)"
                 ns1:version="0.9.1"
                 ns1:texconverter="pdflatex"
                 ns1:pdfconverter="pdf2svg"
                 ns1:text="$x_5$"
                 ns1:preamble="/home/tim/.config/inkscape/extensions/textext/default_packages.tex"
                 ns1:scale="2.08390219912"
                 ns1:alignment="middle center"
                 ns1:jacobian_sqrt="0.735154"
                 id="g4994">
                <g
                   id="g4992">
                  <g
                     style="fill:#000000;fill-opacity:1"
                     id="g4986">
                    <path
                       style="stroke:none;stroke-width:0"
                       d="M 3.328125,-3.015625 C 3.390625,-3.265625 3.625,-4.1875 4.3125,-4.1875 c 0.046875,0 0.296875,0 0.5,0.125 C 4.53125,-4 4.34375,-3.765625 4.34375,-3.515625 c 0,0.15625 0.109375,0.34375 0.375,0.34375 0.21875,0 0.53125,-0.171875 0.53125,-0.578125 0,-0.515625 -0.578125,-0.65625 -0.921875,-0.65625 -0.578125,0 -0.921875,0.53125 -1.046875,0.75 -0.25,-0.65625 -0.78125,-0.75 -1.078125,-0.75 -1.03125,0 -1.609375,1.28125 -1.609375,1.53125 0,0.109375 0.109375,0.109375 0.125,0.109375 0.078125,0 0.109375,-0.03125 0.125,-0.109375 0.34375,-1.0625 1,-1.3125 1.34375,-1.3125 0.1875,0 0.53125,0.09375 0.53125,0.671875 0,0.3125 -0.171875,0.96875 -0.53125,2.375 -0.15625,0.609375 -0.515625,1.03125 -0.953125,1.03125 -0.0625,0 -0.28125,0 -0.5,-0.125 0.25,-0.0625 0.46875,-0.265625 0.46875,-0.546875 0,-0.265625 -0.21875,-0.34375 -0.359375,-0.34375 -0.3125,0 -0.546875,0.25 -0.546875,0.578125 0,0.453125 0.484375,0.65625 0.921875,0.65625 0.671875,0 1.03125,-0.703125 1.046875,-0.75 0.125,0.359375 0.484375,0.75 1.078125,0.75 1.03125,0 1.59375,-1.28125 1.59375,-1.53125 0,-0.109375 -0.078125,-0.109375 -0.109375,-0.109375 -0.09375,0 -0.109375,0.046875 -0.140625,0.109375 -0.328125,1.078125 -1,1.3125 -1.3125,1.3125 -0.390625,0 -0.546875,-0.3125 -0.546875,-0.65625 0,-0.21875 0.046875,-0.4375 0.15625,-0.875 z m 0,0"
                       transform="translate(148.712,134.765)"
                       id="path4984"
                       inkscape:connector-curvature="0" />
                  </g>
                  <g
                     style="fill:#000000;fill-opacity:1"
                     id="g4990">
                    <path
                       style="stroke:none;stroke-width:0"
                       d="m 1.078125,-3.890625 c 0.359375,0.09375 0.5625,0.09375 0.671875,0.09375 0.921875,0 1.46875,-0.625 1.46875,-0.734375 0,-0.078125 -0.046875,-0.09375 -0.078125,-0.09375 -0.015625,0 -0.03125,0 -0.0625,0.015625 -0.171875,0.0625 -0.53125,0.203125 -1.046875,0.203125 -0.203125,0 -0.5625,-0.015625 -1.015625,-0.1875 C 0.9375,-4.625 0.921875,-4.625 0.921875,-4.625 c -0.09375,0 -0.09375,0.078125 -0.09375,0.1875 v 2.046875 c 0,0.125 0,0.203125 0.109375,0.203125 0.0625,0 0.078125,0 0.140625,-0.09375 0.296875,-0.375 0.734375,-0.4375 0.96875,-0.4375 0.421875,0 0.609375,0.328125 0.640625,0.390625 0.125,0.234375 0.171875,0.5 0.171875,0.90625 0,0.203125 0,0.609375 -0.21875,0.921875 -0.171875,0.25 -0.46875,0.421875 -0.8125,0.421875 -0.453125,0 -0.921875,-0.25 -1.09375,-0.71875 0.265625,0.015625 0.40625,-0.15625 0.40625,-0.34375 0,-0.296875 -0.265625,-0.34375 -0.359375,-0.34375 0,0 -0.34375,0 -0.34375,0.375 0,0.625 0.578125,1.25 1.40625,1.25 0.890625,0 1.671875,-0.65625 1.671875,-1.546875 0,-0.78125 -0.59375,-1.5 -1.453125,-1.5 -0.3125,0 -0.671875,0.0625 -0.984375,0.328125 z m 0,0"
                       transform="translate(154.406,136.259)"
                       id="path4988"
                       inkscape:connector-curvature="0" />
                  </g>
                </g>
              </g>
            </g>
            <g
               transform="translate(7.7083328e-8,-45.991282)"
               id="g4644">
              <circle
                 r="5.6604137"
                 cy="180.58253"
                 cx="125.32715"
                 id="circle4630"
                 style="opacity:1;fill:none;fill-opacity:1;stroke:#000000;stroke-width:0.18675433;stroke-miterlimit:4;stroke-dasharray:none;stroke-dashoffset:0;stroke-opacity:1" />
              <g
                 transform="matrix(0.735154,0,0,0.735154,12.706677,82.67222)"
                 ns1:version="0.9.1"
                 ns1:texconverter="pdflatex"
                 ns1:pdfconverter="pdf2svg"
                 ns1:text="$x_6$"
                 ns1:preamble="/home/tim/.config/inkscape/extensions/textext/default_packages.tex"
                 ns1:scale="2.08390219912"
                 ns1:alignment="middle center"
                 ns1:jacobian_sqrt="0.735154"
                 id="g5138">
                <g
                   id="g5136">
                  <g
                     style="fill:#000000;fill-opacity:1"
                     id="g5130">
                    <path
                       style="stroke:none;stroke-width:0"
                       d="M 3.328125,-3.015625 C 3.390625,-3.265625 3.625,-4.1875 4.3125,-4.1875 c 0.046875,0 0.296875,0 0.5,0.125 C 4.53125,-4 4.34375,-3.765625 4.34375,-3.515625 c 0,0.15625 0.109375,0.34375 0.375,0.34375 0.21875,0 0.53125,-0.171875 0.53125,-0.578125 0,-0.515625 -0.578125,-0.65625 -0.921875,-0.65625 -0.578125,0 -0.921875,0.53125 -1.046875,0.75 -0.25,-0.65625 -0.78125,-0.75 -1.078125,-0.75 -1.03125,0 -1.609375,1.28125 -1.609375,1.53125 0,0.109375 0.109375,0.109375 0.125,0.109375 0.078125,0 0.109375,-0.03125 0.125,-0.109375 0.34375,-1.0625 1,-1.3125 1.34375,-1.3125 0.1875,0 0.53125,0.09375 0.53125,0.671875 0,0.3125 -0.171875,0.96875 -0.53125,2.375 -0.15625,0.609375 -0.515625,1.03125 -0.953125,1.03125 -0.0625,0 -0.28125,0 -0.5,-0.125 0.25,-0.0625 0.46875,-0.265625 0.46875,-0.546875 0,-0.265625 -0.21875,-0.34375 -0.359375,-0.34375 -0.3125,0 -0.546875,0.25 -0.546875,0.578125 0,0.453125 0.484375,0.65625 0.921875,0.65625 0.671875,0 1.03125,-0.703125 1.046875,-0.75 0.125,0.359375 0.484375,0.75 1.078125,0.75 1.03125,0 1.59375,-1.28125 1.59375,-1.53125 0,-0.109375 -0.078125,-0.109375 -0.109375,-0.109375 -0.09375,0 -0.109375,0.046875 -0.140625,0.109375 -0.328125,1.078125 -1,1.3125 -1.3125,1.3125 -0.390625,0 -0.546875,-0.3125 -0.546875,-0.65625 0,-0.21875 0.046875,-0.4375 0.15625,-0.875 z m 0,0"
                       transform="translate(148.712,134.765)"
                       id="path5128"
                       inkscape:connector-curvature="0" />
                  </g>
                  <g
                     style="fill:#000000;fill-opacity:1"
                     id="g5134">
                    <path
                       style="stroke:none;stroke-width:0"
                       d="m 1.046875,-2.28125 c 0,-0.5625 0.046875,-1.078125 0.3125,-1.515625 0.234375,-0.375 0.609375,-0.625 1.0625,-0.625 0.203125,0 0.484375,0.046875 0.625,0.234375 C 2.875,-4.171875 2.71875,-4.046875 2.71875,-3.84375 c 0,0.171875 0.125,0.328125 0.328125,0.328125 0.21875,0 0.34375,-0.140625 0.34375,-0.34375 0,-0.40625 -0.296875,-0.765625 -0.984375,-0.765625 -1,0 -2.03125,0.921875 -2.03125,2.421875 0,1.796875 0.84375,2.34375 1.625,2.34375 0.84375,0 1.578125,-0.65625 1.578125,-1.5625 0,-0.890625 -0.703125,-1.546875 -1.515625,-1.546875 -0.5625,0 -0.859375,0.375 -1.015625,0.6875 z M 2,-0.078125 c -0.359375,0 -0.625,-0.203125 -0.78125,-0.515625 C 1.125,-0.796875 1.0625,-1.15625 1.0625,-1.5625 c 0,-0.6875 0.40625,-1.203125 0.96875,-1.203125 0.3125,0 0.53125,0.125 0.703125,0.375 0.171875,0.265625 0.171875,0.5625 0.171875,0.96875 0,0.390625 0,0.6875 -0.1875,0.96875 -0.15625,0.234375 -0.390625,0.375 -0.71875,0.375 z m 0,0"
                       transform="translate(154.406,136.259)"
                       id="path5132"
                       inkscape:connector-curvature="0" />
                  </g>
                </g>
              </g>
            </g>
            <g
               id="g4660"
               transform="translate(7.7083328e-8,12.891041)">
              <circle
                 style="opacity:1;fill:none;fill-opacity:1;stroke:#000000;stroke-width:0.18675433;stroke-miterlimit:4;stroke-dasharray:none;stroke-dashoffset:0;stroke-opacity:1"
                 id="circle4646"
                 cx="125.32715"
                 cy="137.03064"
                 r="5.6604137" />
              <g
                 transform="matrix(0.735154,0,0,0.735154,12.626268,39.252209)"
                 ns1:version="0.9.1"
                 ns1:texconverter="pdflatex"
                 ns1:pdfconverter="pdf2svg"
                 ns1:text="$x_7$"
                 ns1:preamble="/home/tim/.config/inkscape/extensions/textext/default_packages.tex"
                 ns1:scale="2.08390219912"
                 ns1:alignment="middle center"
                 ns1:jacobian_sqrt="0.735154"
                 id="g5282">
                <g
                   id="g5280">
                  <g
                     style="fill:#000000;fill-opacity:1"
                     id="g5274">
                    <path
                       style="stroke:none;stroke-width:0"
                       d="M 3.328125,-3.015625 C 3.390625,-3.265625 3.625,-4.1875 4.3125,-4.1875 c 0.046875,0 0.296875,0 0.5,0.125 C 4.53125,-4 4.34375,-3.765625 4.34375,-3.515625 c 0,0.15625 0.109375,0.34375 0.375,0.34375 0.21875,0 0.53125,-0.171875 0.53125,-0.578125 0,-0.515625 -0.578125,-0.65625 -0.921875,-0.65625 -0.578125,0 -0.921875,0.53125 -1.046875,0.75 -0.25,-0.65625 -0.78125,-0.75 -1.078125,-0.75 -1.03125,0 -1.609375,1.28125 -1.609375,1.53125 0,0.109375 0.109375,0.109375 0.125,0.109375 0.078125,0 0.109375,-0.03125 0.125,-0.109375 0.34375,-1.0625 1,-1.3125 1.34375,-1.3125 0.1875,0 0.53125,0.09375 0.53125,0.671875 0,0.3125 -0.171875,0.96875 -0.53125,2.375 -0.15625,0.609375 -0.515625,1.03125 -0.953125,1.03125 -0.0625,0 -0.28125,0 -0.5,-0.125 0.25,-0.0625 0.46875,-0.265625 0.46875,-0.546875 0,-0.265625 -0.21875,-0.34375 -0.359375,-0.34375 -0.3125,0 -0.546875,0.25 -0.546875,0.578125 0,0.453125 0.484375,0.65625 0.921875,0.65625 0.671875,0 1.03125,-0.703125 1.046875,-0.75 0.125,0.359375 0.484375,0.75 1.078125,0.75 1.03125,0 1.59375,-1.28125 1.59375,-1.53125 0,-0.109375 -0.078125,-0.109375 -0.109375,-0.109375 -0.09375,0 -0.109375,0.046875 -0.140625,0.109375 -0.328125,1.078125 -1,1.3125 -1.3125,1.3125 -0.390625,0 -0.546875,-0.3125 -0.546875,-0.65625 0,-0.21875 0.046875,-0.4375 0.15625,-0.875 z m 0,0"
                       transform="translate(148.712,134.765)"
                       id="path5272"
                       inkscape:connector-curvature="0" />
                  </g>
                  <g
                     style="fill:#000000;fill-opacity:1"
                     id="g5278">
                    <path
                       style="stroke:none;stroke-width:0"
                       d="m 3.734375,-4.203125 c 0.0625,-0.09375 0.0625,-0.109375 0.0625,-0.28125 H 1.96875 C 1.6875,-4.484375 1.609375,-4.5 1.359375,-4.515625 1,-4.546875 0.984375,-4.59375 0.96875,-4.703125 H 0.734375 l -0.25,1.484375 H 0.71875 c 0.015625,-0.109375 0.09375,-0.5625 0.203125,-0.640625 0.046875,-0.03125 0.625,-0.03125 0.71875,-0.03125 H 3.15625 c -0.21875,0.28125 -0.578125,0.71875 -0.71875,0.921875 -0.90625,1.1875 -1,2.296875 -1,2.703125 0,0.078125 0,0.40625 0.328125,0.40625 0.34375,0 0.34375,-0.3125 0.34375,-0.40625 v -0.28125 c 0,-1.34375 0.28125,-1.96875 0.578125,-2.34375 z m 0,0"
                       transform="translate(154.406,136.259)"
                       id="path5276"
                       inkscape:connector-curvature="0" />
                  </g>
                </g>
              </g>
            </g>
            <g
               id="g4676"
               transform="translate(7.7083328e-8,6.4455127)">
              <circle
                 r="5.6604137"
                 cy="158.80659"
                 cx="125.32715"
                 id="circle4662"
                 style="opacity:1;fill:none;fill-opacity:1;stroke:#000000;stroke-width:0.18675433;stroke-miterlimit:4;stroke-dasharray:none;stroke-dashoffset:0;stroke-opacity:1" />
              <g
                 transform="matrix(0.735154,0,0,0.735154,12.706673,60.891345)"
                 ns1:version="0.9.1"
                 ns1:texconverter="pdflatex"
                 ns1:pdfconverter="pdf2svg"
                 ns1:text="$x_8$"
                 ns1:preamble="/home/tim/.config/inkscape/extensions/textext/default_packages.tex"
                 ns1:scale="2.08390219912"
                 ns1:alignment="middle center"
                 ns1:jacobian_sqrt="0.735154"
                 id="g5426">
                <g
                   id="g5424">
                  <g
                     style="fill:#000000;fill-opacity:1"
                     id="g5418">
                    <path
                       style="stroke:none;stroke-width:0"
                       d="M 3.328125,-3.015625 C 3.390625,-3.265625 3.625,-4.1875 4.3125,-4.1875 c 0.046875,0 0.296875,0 0.5,0.125 C 4.53125,-4 4.34375,-3.765625 4.34375,-3.515625 c 0,0.15625 0.109375,0.34375 0.375,0.34375 0.21875,0 0.53125,-0.171875 0.53125,-0.578125 0,-0.515625 -0.578125,-0.65625 -0.921875,-0.65625 -0.578125,0 -0.921875,0.53125 -1.046875,0.75 -0.25,-0.65625 -0.78125,-0.75 -1.078125,-0.75 -1.03125,0 -1.609375,1.28125 -1.609375,1.53125 0,0.109375 0.109375,0.109375 0.125,0.109375 0.078125,0 0.109375,-0.03125 0.125,-0.109375 0.34375,-1.0625 1,-1.3125 1.34375,-1.3125 0.1875,0 0.53125,0.09375 0.53125,0.671875 0,0.3125 -0.171875,0.96875 -0.53125,2.375 -0.15625,0.609375 -0.515625,1.03125 -0.953125,1.03125 -0.0625,0 -0.28125,0 -0.5,-0.125 0.25,-0.0625 0.46875,-0.265625 0.46875,-0.546875 0,-0.265625 -0.21875,-0.34375 -0.359375,-0.34375 -0.3125,0 -0.546875,0.25 -0.546875,0.578125 0,0.453125 0.484375,0.65625 0.921875,0.65625 0.671875,0 1.03125,-0.703125 1.046875,-0.75 0.125,0.359375 0.484375,0.75 1.078125,0.75 1.03125,0 1.59375,-1.28125 1.59375,-1.53125 0,-0.109375 -0.078125,-0.109375 -0.109375,-0.109375 -0.09375,0 -0.109375,0.046875 -0.140625,0.109375 -0.328125,1.078125 -1,1.3125 -1.3125,1.3125 -0.390625,0 -0.546875,-0.3125 -0.546875,-0.65625 0,-0.21875 0.046875,-0.4375 0.15625,-0.875 z m 0,0"
                       transform="translate(148.712,134.765)"
                       id="path5416"
                       inkscape:connector-curvature="0" />
                  </g>
                  <g
                     style="fill:#000000;fill-opacity:1"
                     id="g5422">
                    <path
                       style="stroke:none;stroke-width:0"
                       d="m 2.46875,-2.515625 c 0.546875,-0.265625 0.890625,-0.59375 0.890625,-1.078125 0,-0.671875 -0.703125,-1.03125 -1.375,-1.03125 -0.765625,0 -1.390625,0.5 -1.390625,1.15625 0,0.328125 0.15625,0.5625 0.28125,0.703125 0.125,0.15625 0.171875,0.1875 0.578125,0.421875 C 1.0625,-2.171875 0.375,-1.796875 0.375,-1.0625 c 0,0.765625 0.796875,1.203125 1.59375,1.203125 0.890625,0 1.609375,-0.5625 1.609375,-1.3125 0,-0.46875 -0.265625,-0.859375 -0.671875,-1.09375 -0.09375,-0.0625 -0.328125,-0.1875 -0.4375,-0.25 z m -1.125,-0.65625 c -0.1875,-0.109375 -0.375,-0.296875 -0.375,-0.5625 0,-0.4375 0.5,-0.6875 1,-0.6875 0.546875,0 1.03125,0.34375 1.03125,0.828125 0,0.625 -0.734375,0.9375 -0.734375,0.9375 -0.015625,0 -0.03125,0 -0.078125,-0.03125 z m 0.328125,0.96875 0.96875,0.546875 c 0.171875,0.109375 0.515625,0.3125 0.515625,0.71875 0,0.53125 -0.578125,0.859375 -1.171875,0.859375 -0.640625,0 -1.1875,-0.421875 -1.1875,-0.984375 0,-0.515625 0.375,-0.921875 0.875,-1.140625 z m 0,0"
                       transform="translate(154.406,136.259)"
                       id="path5420"
                       inkscape:connector-curvature="0" />
                  </g>
                </g>
              </g>
            </g>
            <circle
               style="opacity:1;fill:none;fill-opacity:1;stroke:#000000;stroke-width:0.18675433;stroke-miterlimit:4;stroke-dasharray:none;stroke-dashoffset:0;stroke-opacity:1"
               id="circle4678"
               cx="125.32715"
               cy="180.58253"
               r="5.6604137" />
            <g
               transform="matrix(0.735154,0,0,0.735154,12.706677,82.67222)"
               ns1:version="0.9.1"
               ns1:texconverter="pdflatex"
               ns1:pdfconverter="pdf2svg"
               ns1:text="$x_9$"
               ns1:preamble="/home/tim/.config/inkscape/extensions/textext/default_packages.tex"
               ns1:scale="2.08390219912"
               ns1:alignment="middle center"
               ns1:jacobian_sqrt="0.735154"
               id="g5570">
              <g
                 id="g5568">
                <g
                   style="fill:#000000;fill-opacity:1"
                   id="g5562">
                  <path
                     style="stroke:none;stroke-width:0"
                     d="M 3.328125,-3.015625 C 3.390625,-3.265625 3.625,-4.1875 4.3125,-4.1875 c 0.046875,0 0.296875,0 0.5,0.125 C 4.53125,-4 4.34375,-3.765625 4.34375,-3.515625 c 0,0.15625 0.109375,0.34375 0.375,0.34375 0.21875,0 0.53125,-0.171875 0.53125,-0.578125 0,-0.515625 -0.578125,-0.65625 -0.921875,-0.65625 -0.578125,0 -0.921875,0.53125 -1.046875,0.75 -0.25,-0.65625 -0.78125,-0.75 -1.078125,-0.75 -1.03125,0 -1.609375,1.28125 -1.609375,1.53125 0,0.109375 0.109375,0.109375 0.125,0.109375 0.078125,0 0.109375,-0.03125 0.125,-0.109375 0.34375,-1.0625 1,-1.3125 1.34375,-1.3125 0.1875,0 0.53125,0.09375 0.53125,0.671875 0,0.3125 -0.171875,0.96875 -0.53125,2.375 -0.15625,0.609375 -0.515625,1.03125 -0.953125,1.03125 -0.0625,0 -0.28125,0 -0.5,-0.125 0.25,-0.0625 0.46875,-0.265625 0.46875,-0.546875 0,-0.265625 -0.21875,-0.34375 -0.359375,-0.34375 -0.3125,0 -0.546875,0.25 -0.546875,0.578125 0,0.453125 0.484375,0.65625 0.921875,0.65625 0.671875,0 1.03125,-0.703125 1.046875,-0.75 0.125,0.359375 0.484375,0.75 1.078125,0.75 1.03125,0 1.59375,-1.28125 1.59375,-1.53125 0,-0.109375 -0.078125,-0.109375 -0.109375,-0.109375 -0.09375,0 -0.109375,0.046875 -0.140625,0.109375 -0.328125,1.078125 -1,1.3125 -1.3125,1.3125 -0.390625,0 -0.546875,-0.3125 -0.546875,-0.65625 0,-0.21875 0.046875,-0.4375 0.15625,-0.875 z m 0,0"
                     transform="translate(148.712,134.765)"
                     id="path5560"
                     inkscape:connector-curvature="0" />
                </g>
                <g
                   style="fill:#000000;fill-opacity:1"
                   id="g5566">
                  <path
                     style="stroke:none;stroke-width:0"
                     d="m 2.90625,-2.078125 c 0,1.734375 -0.84375,2 -1.265625,2 -0.15625,0 -0.53125,-0.015625 -0.71875,-0.234375 0.296875,-0.03125 0.3125,-0.265625 0.3125,-0.328125 0,-0.171875 -0.125,-0.328125 -0.328125,-0.328125 -0.203125,0 -0.328125,0.140625 -0.328125,0.34375 0,0.46875 0.390625,0.765625 1.0625,0.765625 1,0 1.9375,-0.9375 1.9375,-2.4375 C 3.578125,-4.015625 2.8125,-4.625 2,-4.625 c -0.234375,0 -0.703125,0.03125 -1.109375,0.421875 -0.234375,0.234375 -0.515625,0.5 -0.515625,1.125 0,0.890625 0.703125,1.546875 1.515625,1.546875 0.5625,0 0.859375,-0.375 1.015625,-0.6875 z m -0.96875,0.34375 c -0.28125,0 -0.53125,-0.078125 -0.734375,-0.40625 -0.15625,-0.25 -0.15625,-0.546875 -0.15625,-0.9375 0,-0.40625 0,-0.671875 0.203125,-0.953125 0.171875,-0.25 0.390625,-0.390625 0.75,-0.390625 0.359375,0 0.578125,0.21875 0.6875,0.40625 0.1875,0.28125 0.203125,0.78125 0.203125,1.015625 0,0.90625 -0.515625,1.265625 -0.953125,1.265625 z m 0,0"
                     transform="translate(154.406,136.259)"
                     id="path5564"
                     inkscape:connector-curvature="0" />
                </g>
              </g>
            </g>
          </g>
        </g>
        <path
           style="fill:none;stroke:#000000;stroke-width:0.26458332px;stroke-linecap:butt;stroke-linejoin:miter;stroke-opacity:1;marker-end:url(#Arrow1Mend)"
           d="M 63.012584,159.89072 H 74.906078"
           id="path6404"
           inkscape:connector-curvature="0" />
        <path
           inkscape:connector-curvature="0"
           id="path6654"
           d="m 100.16305,159.89072 h 11.89349"
           style="fill:none;stroke:#000000;stroke-width:0.26458332px;stroke-linecap:butt;stroke-linejoin:miter;stroke-opacity:1;marker-end:url(#marker6658)" />
      </g>
    </g>
  </g>
</svg>
