<?xml version="1.0" encoding="UTF-8" standalone="no"?>
<!-- Created with Inkscape (http://www.inkscape.org/) -->

<svg
   xmlns:ns1="http://www.iki.fi/pav/software/textext/"
   xmlns:dc="http://purl.org/dc/elements/1.1/"
   xmlns:cc="http://creativecommons.org/ns#"
   xmlns:rdf="http://www.w3.org/1999/02/22-rdf-syntax-ns#"
   xmlns:svg="http://www.w3.org/2000/svg"
   xmlns="http://www.w3.org/2000/svg"
   xmlns:sodipodi="http://sodipodi.sourceforge.net/DTD/sodipodi-0.dtd"
   xmlns:inkscape="http://www.inkscape.org/namespaces/inkscape"
   width="210mm"
   height="297mm"
   viewBox="0 0 210 297"
   version="1.1"
   id="svg8"
   inkscape:version="0.92.4 5da689c313, 2019-01-14"
   sodipodi:docname="bg_MS.svg">
  <defs
     id="defs2">
    <marker
       inkscape:isstock="true"
       style="overflow:visible;"
       id="marker2189"
       refX="0.0"
       refY="0.0"
       orient="auto"
       inkscape:stockid="Arrow2Send">
      <path
         transform="scale(0.3) rotate(180) translate(-2.3,0)"
         d="M 8.7185878,4.0337352 L -2.2072895,0.016013256 L 8.7185884,-4.0017078 C 6.9730900,-1.6296469 6.9831476,1.6157441 8.7185878,4.0337352 z "
         style="fill-rule:evenodd;stroke-width:0.625;stroke-linejoin:round;stroke:#000000;stroke-opacity:1;fill:#000000;fill-opacity:1"
         id="path2187" />
    </marker>
    <marker
       inkscape:stockid="Arrow2Mend"
       orient="auto"
       refY="0.0"
       refX="0.0"
       id="Arrow2Mend"
       style="overflow:visible;"
       inkscape:isstock="true">
      <path
         id="path946"
         style="fill-rule:evenodd;stroke-width:0.625;stroke-linejoin:round;stroke:#000000;stroke-opacity:1;fill:#000000;fill-opacity:1"
         d="M 8.7185878,4.0337352 L -2.2072895,0.016013256 L 8.7185884,-4.0017078 C 6.9730900,-1.6296469 6.9831476,1.6157441 8.7185878,4.0337352 z "
         transform="scale(0.6) rotate(180) translate(0,0)" />
    </marker>
    <marker
       inkscape:stockid="Arrow1Send"
       orient="auto"
       refY="0.0"
       refX="0.0"
       id="Arrow1Send"
       style="overflow:visible;"
       inkscape:isstock="true">
      <path
         id="path934"
         d="M 0.0,0.0 L 5.0,-5.0 L -12.5,0.0 L 5.0,5.0 L 0.0,0.0 z "
         style="fill-rule:evenodd;stroke:#000000;stroke-width:1pt;stroke-opacity:1;fill:#000000;fill-opacity:1"
         transform="scale(0.2) rotate(180) translate(6,0)" />
    </marker>
  </defs>
  <sodipodi:namedview
     id="base"
     pagecolor="#ffffff"
     bordercolor="#666666"
     borderopacity="1.0"
     inkscape:pageopacity="0.0"
     inkscape:pageshadow="2"
     inkscape:zoom="1.979899"
     inkscape:cx="363.37226"
     inkscape:cy="676.12144"
     inkscape:document-units="mm"
     inkscape:current-layer="g2720"
     showgrid="false"
     inkscape:window-width="1920"
     inkscape:window-height="1080"
     inkscape:window-x="0"
     inkscape:window-y="0"
     inkscape:window-maximized="1"
     inkscape:snap-global="false" />
  <metadata
     id="metadata5">
    <rdf:RDF>
      <cc:Work
         rdf:about="">
        <dc:format>image/svg+xml</dc:format>
        <dc:type
           rdf:resource="http://purl.org/dc/dcmitype/StillImage" />
        <dc:title></dc:title>
      </cc:Work>
    </rdf:RDF>
  </metadata>
  <g
     inkscape:label="Layer 1"
     inkscape:groupmode="layer"
     id="layer1">
    <g
       id="g2379"
       ns1:jacobian_sqrt="0.352778"
       ns1:alignment="middle center"
       ns1:scale="1.0"
       ns1:preamble="/home/tim/Uni/BA/bachlor-arbeit/tex/build/preamble.tex"
       ns1:text="$\\Lambda$"
       ns1:pdfconverter="pdf2svg"
       ns1:texconverter="pdflatex"
       ns1:version="0.9.1"
       transform="matrix(0.42210182,0,0,0.42210182,44.123352,118.81842)">
      <g
         id="surface1">
        <g
           id="g2376"
           style="fill:#000000;fill-opacity:1">
          <path
             id="path2374"
             transform="translate(71.637,66.656)"
             d="M 3.6875,-6.921875 C 3.625,-7.125 3.5625,-7.140625 3.453125,-7.140625 c -0.15625,0 -0.171875,0.046875 -0.21875,0.21875 L 1.3125,-1 c -0.09375,0.296875 -0.296875,0.6875 -1,0.6875 V 0 c 0.328125,-0.015625 0.84375,-0.03125 0.9375,-0.03125 0.28125,0 0.8125,0.015625 1.125,0.03125 v -0.3125 c -0.546875,0 -0.765625,-0.28125 -0.765625,-0.515625 0,-0.046875 0,-0.078125 0.046875,-0.21875 l 1.5,-4.640625 1.5625,4.90625 c 0.0625,0.140625 0.0625,0.15625 0.0625,0.171875 0,0.296875 -0.59375,0.296875 -0.859375,0.296875 V 0 c 0.359375,-0.03125 1.0625,-0.03125 1.4375,-0.03125 0.390625,0 0.84375,0.015625 1.234375,0.03125 v -0.3125 c -0.765625,0 -0.796875,-0.0625 -0.90625,-0.421875 z m 0,0"
             style="stroke:none;stroke-width:0"
             inkscape:connector-curvature="0" />
        </g>
      </g>
    </g>
    <g
       id="g2402"
       transform="matrix(0.58811903,0,0,0.58811903,39.418227,38.050422)">
      <path
         inkscape:connector-curvature="0"
         id="path2331"
         d="M 49.51488,177.08705 H 74.27232"
         style="fill:none;stroke:#000000;stroke-width:0.26458332px;stroke-linecap:butt;stroke-linejoin:miter;stroke-opacity:1" />
      <path
         inkscape:connector-curvature="0"
         id="path2333"
         d="m 74.272319,177.08705 v -1.25204 2.56315"
         style="fill:none;stroke:#000000;stroke-width:0.26458332px;stroke-linecap:butt;stroke-linejoin:miter;stroke-opacity:1" />
      <path
         style="fill:none;stroke:#000000;stroke-width:0.26458332px;stroke-linecap:butt;stroke-linejoin:miter;stroke-opacity:1"
         d="m 49.51488,177.08705 v -1.25204 2.56315"
         id="path2335"
         inkscape:connector-curvature="0" />
      <path
         style="fill:none;stroke:#000000;stroke-width:0.26458332px;stroke-linecap:butt;stroke-linejoin:miter;stroke-opacity:1"
         d="M 49.51488,177.08705 H 74.27232"
         id="path2387"
         inkscape:connector-curvature="0" />
    </g>
    <g
       id="g2720"
       transform="matrix(0.58811903,0,0,0.58811903,39.418227,38.050422)">
      <g
         transform="translate(20.579754,16.57071)"
         id="g2303">
        <rect
           style="opacity:1;fill:#ffcc00;fill-opacity:1;stroke:none;stroke-width:0.12412529;stroke-miterlimit:4;stroke-dasharray:none;stroke-dashoffset:0;stroke-opacity:1"
           id="rect865"
           width="7.925117"
           height="17.50898"
           x="25.235268"
           y="137.89545" />
        <rect
           y="137.89545"
           x="49.843304"
           height="17.50898"
           width="7.925117"
           id="rect867"
           style="opacity:1;fill:#ffcc00;fill-opacity:1;stroke:none;stroke-width:0.12412529;stroke-miterlimit:4;stroke-dasharray:none;stroke-dashoffset:0;stroke-opacity:1" />
        <rect
           style="opacity:1;fill:#ffcc00;fill-opacity:1;stroke:none;stroke-width:0.12412529;stroke-miterlimit:4;stroke-dasharray:none;stroke-dashoffset:0;stroke-opacity:1"
           id="rect869"
           width="7.925117"
           height="17.50898"
           x="74.45134"
           y="137.89545" />
        <rect
           y="137.89545"
           x="99.059372"
           height="17.50898"
           width="7.925117"
           id="rect871"
           style="opacity:1;fill:#ffcc00;fill-opacity:1;stroke:none;stroke-width:0.12412529;stroke-miterlimit:4;stroke-dasharray:none;stroke-dashoffset:0;stroke-opacity:1" />
        <rect
           style="opacity:1;fill:#ffcc00;fill-opacity:1;stroke:none;stroke-width:0.12412529;stroke-miterlimit:4;stroke-dasharray:none;stroke-dashoffset:0;stroke-opacity:1"
           id="rect2262"
           width="7.925117"
           height="17.50898"
           x="124.05937"
           y="137.89545" />
      </g>
      <g
         id="g2448"
         transform="translate(20.579754,-8.42929)">
        <rect
           y="137.89545"
           x="25.235268"
           height="17.50898"
           width="7.925117"
           id="rect2438"
           style="opacity:1;fill:#ffcc00;fill-opacity:1;stroke:none;stroke-width:0.12412529;stroke-miterlimit:4;stroke-dasharray:none;stroke-dashoffset:0;stroke-opacity:1" />
        <rect
           style="opacity:1;fill:#ffcc00;fill-opacity:1;stroke:none;stroke-width:0.12412529;stroke-miterlimit:4;stroke-dasharray:none;stroke-dashoffset:0;stroke-opacity:1"
           id="rect2440"
           width="7.925117"
           height="17.50898"
           x="49.843304"
           y="137.89545" />
        <rect
           y="137.89545"
           x="74.45134"
           height="17.50898"
           width="7.925117"
           id="rect2442"
           style="opacity:1;fill:#ffcc00;fill-opacity:1;stroke:none;stroke-width:0.12412529;stroke-miterlimit:4;stroke-dasharray:none;stroke-dashoffset:0;stroke-opacity:1" />
        <rect
           style="opacity:1;fill:#ffcc00;fill-opacity:1;stroke:none;stroke-width:0.12412529;stroke-miterlimit:4;stroke-dasharray:none;stroke-dashoffset:0;stroke-opacity:1"
           id="rect2444"
           width="7.925117"
           height="17.50898"
           x="99.059372"
           y="137.89545" />
        <rect
           y="137.89545"
           x="124.05937"
           height="17.50898"
           width="7.925117"
           id="rect2446"
           style="opacity:1;fill:#ffcc00;fill-opacity:1;stroke:none;stroke-width:0.12412529;stroke-miterlimit:4;stroke-dasharray:none;stroke-dashoffset:0;stroke-opacity:1" />
      </g>
      <g
         transform="translate(20.579754,-33.42929)"
         id="g2460">
        <rect
           style="opacity:1;fill:#ffcc00;fill-opacity:1;stroke:none;stroke-width:0.12412529;stroke-miterlimit:4;stroke-dasharray:none;stroke-dashoffset:0;stroke-opacity:1"
           id="rect2450"
           width="7.925117"
           height="17.50898"
           x="25.235268"
           y="137.89545" />
        <rect
           y="137.89545"
           x="49.843304"
           height="17.50898"
           width="7.925117"
           id="rect2452"
           style="opacity:1;fill:#ffcc00;fill-opacity:1;stroke:none;stroke-width:0.12412529;stroke-miterlimit:4;stroke-dasharray:none;stroke-dashoffset:0;stroke-opacity:1" />
        <rect
           style="opacity:1;fill:#ffcc00;fill-opacity:1;stroke:none;stroke-width:0.12412529;stroke-miterlimit:4;stroke-dasharray:none;stroke-dashoffset:0;stroke-opacity:1"
           id="rect2454"
           width="7.925117"
           height="17.50898"
           x="74.45134"
           y="137.89545" />
        <rect
           y="137.89545"
           x="99.059372"
           height="17.50898"
           width="7.925117"
           id="rect2456"
           style="opacity:1;fill:#ffcc00;fill-opacity:1;stroke:none;stroke-width:0.12412529;stroke-miterlimit:4;stroke-dasharray:none;stroke-dashoffset:0;stroke-opacity:1" />
        <rect
           style="opacity:1;fill:#ffcc00;fill-opacity:1;stroke:none;stroke-width:0.12412529;stroke-miterlimit:4;stroke-dasharray:none;stroke-dashoffset:0;stroke-opacity:1"
           id="rect2458"
           width="7.925117"
           height="17.50898"
           x="124.05937"
           y="137.89545" />
      </g>
      <g
         id="g2472"
         transform="translate(20.579754,-58.42929)">
        <rect
           y="137.89545"
           x="25.235268"
           height="17.50898"
           width="7.925117"
           id="rect2462"
           style="opacity:1;fill:#ffcc00;fill-opacity:1;stroke:none;stroke-width:0.12412529;stroke-miterlimit:4;stroke-dasharray:none;stroke-dashoffset:0;stroke-opacity:1" />
        <rect
           style="opacity:1;fill:#ffcc00;fill-opacity:1;stroke:none;stroke-width:0.12412529;stroke-miterlimit:4;stroke-dasharray:none;stroke-dashoffset:0;stroke-opacity:1"
           id="rect2464"
           width="7.925117"
           height="17.50898"
           x="49.843304"
           y="137.89545" />
        <rect
           y="137.89545"
           x="74.45134"
           height="17.50898"
           width="7.925117"
           id="rect2466"
           style="opacity:1;fill:#ffcc00;fill-opacity:1;stroke:none;stroke-width:0.12412529;stroke-miterlimit:4;stroke-dasharray:none;stroke-dashoffset:0;stroke-opacity:1" />
        <rect
           style="opacity:1;fill:#ffcc00;fill-opacity:1;stroke:none;stroke-width:0.12412529;stroke-miterlimit:4;stroke-dasharray:none;stroke-dashoffset:0;stroke-opacity:1"
           id="rect2468"
           width="7.925117"
           height="17.50898"
           x="99.059372"
           y="137.89545" />
        <rect
           y="137.89545"
           x="124.05937"
           height="17.50898"
           width="7.925117"
           id="rect2470"
           style="opacity:1;fill:#ffcc00;fill-opacity:1;stroke:none;stroke-width:0.12412529;stroke-miterlimit:4;stroke-dasharray:none;stroke-dashoffset:0;stroke-opacity:1" />
      </g>
    </g>
    <g
       id="g2494"
       transform="matrix(0,0.58811903,-0.58811903,0,167.01679,89.939428)">
      <path
         style="fill:none;stroke:#000000;stroke-width:0.26458332px;stroke-linecap:butt;stroke-linejoin:miter;stroke-opacity:1"
         d="M 49.51488,177.08705 H 74.27232"
         id="path2486"
         inkscape:connector-curvature="0" />
      <path
         style="fill:none;stroke:#000000;stroke-width:0.26458332px;stroke-linecap:butt;stroke-linejoin:miter;stroke-opacity:1"
         d="m 74.272319,177.08705 v -1.25204 2.56315"
         id="path2488"
         inkscape:connector-curvature="0" />
      <path
         inkscape:connector-curvature="0"
         id="path2490"
         d="m 49.51488,177.08705 v -1.25204 2.56315"
         style="fill:none;stroke:#000000;stroke-width:0.26458332px;stroke-linecap:butt;stroke-linejoin:miter;stroke-opacity:1" />
      <path
         inkscape:connector-curvature="0"
         id="path2492"
         d="M 49.51488,177.08705 H 74.27232"
         style="fill:none;stroke:#000000;stroke-width:0.26458332px;stroke-linecap:butt;stroke-linejoin:miter;stroke-opacity:1" />
    </g>
    <g
       transform="matrix(0.42210182,0,0,0.42210182,27.933164,99.71165)"
       ns1:version="0.9.1"
       ns1:texconverter="pdflatex"
       ns1:pdfconverter="pdf2svg"
       ns1:text="$\\Lambda$"
       ns1:preamble="/home/tim/Uni/BA/bachlor-arbeit/tex/build/preamble.tex"
       ns1:scale="1.0"
       ns1:alignment="middle center"
       ns1:jacobian_sqrt="0.352778"
       id="g2502">
      <g
         id="g2500">
        <g
           style="fill:#000000;fill-opacity:1"
           id="g2498">
          <path
             inkscape:connector-curvature="0"
             style="stroke:none;stroke-width:0"
             d="M 3.6875,-6.921875 C 3.625,-7.125 3.5625,-7.140625 3.453125,-7.140625 c -0.15625,0 -0.171875,0.046875 -0.21875,0.21875 L 1.3125,-1 c -0.09375,0.296875 -0.296875,0.6875 -1,0.6875 V 0 c 0.328125,-0.015625 0.84375,-0.03125 0.9375,-0.03125 0.28125,0 0.8125,0.015625 1.125,0.03125 v -0.3125 c -0.546875,0 -0.765625,-0.28125 -0.765625,-0.515625 0,-0.046875 0,-0.078125 0.046875,-0.21875 l 1.5,-4.640625 1.5625,4.90625 c 0.0625,0.140625 0.0625,0.15625 0.0625,0.171875 0,0.296875 -0.59375,0.296875 -0.859375,0.296875 V 0 c 0.359375,-0.03125 1.0625,-0.03125 1.4375,-0.03125 0.390625,0 0.84375,0.015625 1.234375,0.03125 v -0.3125 c -0.765625,0 -0.796875,-0.0625 -0.90625,-0.421875 z m 0,0"
             transform="translate(71.637,66.656)"
             id="path2496" />
        </g>
      </g>
    </g>
    <g
       id="g2512"
       transform="matrix(0.58210001,0,0,0.58210001,61.926547,39.116516)">
      <path
         style="fill:none;stroke:#000000;stroke-width:0.26458332px;stroke-linecap:butt;stroke-linejoin:miter;stroke-opacity:1"
         d="m 57.440569,175.83501 v 2.56315"
         id="path2520"
         inkscape:connector-curvature="0" />
      <path
         style="fill:none;stroke:#000000;stroke-width:0.26458332px;stroke-linecap:butt;stroke-linejoin:miter;stroke-opacity:1"
         d="m 65.273686,175.71808 -0.02362,2.80536"
         id="path2518"
         inkscape:connector-curvature="0" />
      <path
         style="fill:none;stroke:#000000;stroke-width:0.26458332px;stroke-linecap:butt;stroke-linejoin:miter;stroke-opacity:1"
         d="m 57.326897,177.12046 7.999033,-0.0334"
         id="path2508"
         inkscape:connector-curvature="0"
         sodipodi:nodetypes="cc" />
    </g>
    <g
       id="g2591"
       ns1:jacobian_sqrt="0.717715"
       ns1:alignment="middle center"
       ns1:scale="2.03446629325"
       ns1:preamble="/home/tim/Uni/BA/bachlor-arbeit/tex/build/preamble.tex"
       ns1:text="$l$"
       ns1:pdfconverter="pdf2svg"
       ns1:texconverter="pdflatex"
       ns1:version="0.9.1"
       transform="matrix(0.42210185,0,0,0.42210185,60.477028,107.35086)">
      <g
         id="g2589">
        <g
           id="g2587"
           style="fill:#000000;fill-opacity:1">
          <path
             id="path2585"
             transform="translate(71.637,66.656)"
             d="m 2.578125,-6.8125 c 0,0 0,-0.109375 -0.140625,-0.109375 -0.21875,0 -0.953125,0.078125 -1.21875,0.109375 -0.078125,0 -0.1875,0.015625 -0.1875,0.203125 0,0.109375 0.109375,0.109375 0.25,0.109375 0.484375,0 0.5,0.09375 0.5,0.171875 L 1.75,-6.125 0.484375,-1.140625 C 0.453125,-1.03125 0.4375,-0.96875 0.4375,-0.8125 c 0,0.578125 0.4375,0.921875 0.90625,0.921875 0.328125,0 0.578125,-0.203125 0.75,-0.5625 0.171875,-0.375 0.296875,-0.953125 0.296875,-0.96875 0,-0.109375 -0.09375,-0.109375 -0.125,-0.109375 -0.09375,0 -0.109375,0.046875 -0.125,0.1875 C 1.96875,-0.703125 1.78125,-0.109375 1.375,-0.109375 c -0.296875,0 -0.296875,-0.3125 -0.296875,-0.453125 0,-0.25 0.015625,-0.296875 0.0625,-0.484375 z m 0,0"
             style="stroke:none;stroke-width:0"
             inkscape:connector-curvature="0" />
        </g>
      </g>
    </g>
    <path
       sodipodi:nodetypes="cc"
       inkscape:connector-curvature="0"
       id="path2599"
       d="m 93.528985,128.90813 v 10.28115"
       style="fill:none;stroke:#000000;stroke-width:0.15560648px;stroke-linecap:butt;stroke-linejoin:miter;stroke-opacity:1" />
    <path
       inkscape:connector-curvature="0"
       id="path2601"
       d="m 93.528985,139.18928 h 0.736348 -1.507437"
       style="fill:none;stroke:#000000;stroke-width:0.15560648px;stroke-linecap:butt;stroke-linejoin:miter;stroke-opacity:1" />
    <path
       style="fill:none;stroke:#000000;stroke-width:0.15560648px;stroke-linecap:butt;stroke-linejoin:miter;stroke-opacity:1"
       d="m 93.528985,128.90813 h 0.736348 -1.507437"
       id="path2603"
       inkscape:connector-curvature="0" />
    <g
       id="g2688"
       ns1:jacobian_sqrt="0.717715"
       ns1:alignment="middle center"
       ns1:scale="2.03446629325"
       ns1:preamble="/home/tim/Uni/BA/bachlor-arbeit/tex/build/preamble.tex"
       ns1:text="$w$"
       ns1:pdfconverter="pdf2svg"
       ns1:texconverter="pdflatex"
       ns1:version="0.9.1"
       transform="matrix(0.42210185,0,0,0.42210185,65.887491,118.02926)">
      <g
         id="g2686">
        <g
           id="g2684"
           style="fill:#000000;fill-opacity:1">
          <path
             id="path2682"
             transform="translate(71.637,66.656)"
             d="M 4.609375,-3.375 C 4.65625,-3.59375 4.75,-3.96875 4.75,-4.03125 c 0,-0.171875 -0.140625,-0.265625 -0.28125,-0.265625 -0.125,0 -0.296875,0.078125 -0.375,0.28125 -0.03125,0.0625 -0.5,1.96875 -0.5625,2.234375 C 3.453125,-1.484375 3.4375,-1.3125 3.4375,-1.125 c 0,0.109375 0,0.125 0.015625,0.171875 -0.234375,0.53125 -0.53125,0.84375 -0.921875,0.84375 -0.796875,0 -0.796875,-0.734375 -0.796875,-0.90625 0,-0.3125 0.046875,-0.703125 0.515625,-1.9375 0.109375,-0.296875 0.171875,-0.4375 0.171875,-0.640625 0,-0.4375 -0.328125,-0.8125 -0.8125,-0.8125 -0.953125,0 -1.3125,1.453125 -1.3125,1.53125 0,0.109375 0.09375,0.109375 0.109375,0.109375 0.109375,0 0.109375,-0.03125 0.15625,-0.1875 C 0.84375,-3.875 1.21875,-4.1875 1.578125,-4.1875 c 0.09375,0 0.25,0.015625 0.25,0.328125 0,0.25 -0.109375,0.53125 -0.1875,0.703125 -0.4375,1.171875 -0.546875,1.625 -0.546875,2.015625 0,0.90625 0.65625,1.25 1.40625,1.25 0.171875,0 0.640625,0 1.03125,-0.703125 0.265625,0.640625 0.953125,0.703125 1.25,0.703125 0.75,0 1.1875,-0.625 1.453125,-1.21875 0.328125,-0.78125 0.65625,-2.125 0.65625,-2.59375 0,-0.546875 -0.265625,-0.703125 -0.4375,-0.703125 -0.25,0 -0.5,0.265625 -0.5,0.484375 0,0.125 0.0625,0.1875 0.140625,0.265625 0.109375,0.109375 0.359375,0.359375 0.359375,0.84375 0,0.34375 -0.28125,1.3125 -0.546875,1.828125 -0.25,0.53125 -0.609375,0.875 -1.09375,0.875 -0.46875,0 -0.734375,-0.296875 -0.734375,-0.875 0,-0.265625 0.0625,-0.578125 0.109375,-0.71875 z m 0,0"
             style="stroke:none;stroke-width:0"
             inkscape:connector-curvature="0" />
        </g>
      </g>
    </g>
    <path
       style="fill:none;stroke:#000000;stroke-width:0.265;stroke-linecap:butt;stroke-linejoin:miter;stroke-opacity:1;stroke-miterlimit:4;stroke-dasharray:none"
       d="m 126.81101,134.09226 5.17355,-5.83501"
       id="path890"
       inkscape:connector-curvature="0" />
    <g
       id="g976"
       ns1:jacobian_sqrt="0.352778"
       inkscapeversion="0.92.4"
       ns1:alignment="middle center"
       ns1:scale="1.0"
       ns1:preamble="/home/tim/bachlor-arbeit/tex/build/preamble.tex"
       ns1:text="Au, Al"
       ns1:pdfconverter="pdf2svg"
       ns1:texconverter="pdflatex"
       ns1:version="0.9.1"
       transform="matrix(0.30846388,0,0,0.30846388,108.62916,106.71719)">
      <g
         id="g974">
        <g
           id="g966"
           style="fill:#000000;fill-opacity:1">
          <path
             id="path960"
             transform="translate(71.637,66.656)"
             d="m 0.3125,-0.3125 v 0.296875 H 2.46875 V -0.3125 c -0.3125,0 -0.71875,-0.15625 -0.75,-0.5 0,-0.109375 0.0625,-0.1875 0.078125,-0.28125 C 1.90625,-1.421875 2.015625,-1.75 2.140625,-2.078125 2.171875,-2.15625 2.171875,-2.28125 2.3125,-2.28125 h 2.265625 c 0.109375,0 0.125,0.109375 0.171875,0.203125 l 0.203125,0.625 c 0.09375,0.25 0.28125,0.640625 0.28125,0.84375 V -0.5625 c -0.09375,0.234375 -0.484375,0.25 -0.765625,0.25 h -0.0625 v 0.296875 H 7.140625 V -0.3125 H 6.859375 C 6.625,-0.3125 6.390625,-0.34375 6.265625,-0.453125 6.15625,-0.578125 6.125,-0.75 6.0625,-0.890625 5.546875,-2.375 5.046875,-3.875 4.515625,-5.359375 4.34375,-5.875 4.09375,-6.4375 3.96875,-6.953125 3.921875,-7.09375 3.875,-7.140625 3.734375,-7.140625 c -0.203125,0 -0.25,0.203125 -0.3125,0.40625 C 2.875,-5.046875 2.25,-3.390625 1.6875,-1.71875 L 1.46875,-1.109375 C 1.421875,-0.9375 1.359375,-0.75 1.21875,-0.625 0.984375,-0.375 0.640625,-0.3125 0.3125,-0.3125 Z M 2.328125,-2.59375 3.4375,-5.828125 4.5625,-2.59375 Z m 0,0"
             style="stroke:none;stroke-width:0"
             inkscape:connector-curvature="0" />
          <path
             id="path962"
             transform="translate(79.106957,66.656)"
             d="m 0.3125,-4.296875 v 0.3125 h 0.140625 c 0.28125,0 0.578125,0.015625 0.640625,0.3125 0,0.109375 0,0.21875 0,0.328125 v 1.984375 c 0,0.328125 0.015625,0.625 0.1875,0.921875 0.28125,0.421875 0.84375,0.546875 1.3125,0.546875 0.453125,0 0.859375,-0.203125 1.109375,-0.5625 C 3.765625,-0.5625 3.84375,-0.65625 3.875,-0.78125 v 0.875 L 5.328125,-0.015625 V -0.3125 h -0.15625 c -0.328125,0 -0.625,-0.03125 -0.625,-0.484375 V -4.40625 l -1.46875,0.109375 v 0.3125 H 3.21875 c 0.328125,0 0.625,0.03125 0.625,0.5 V -1.6875 c 0,0.734375 -0.375,1.5625 -1.203125,1.5625 -0.5625,0 -0.84375,-0.140625 -0.84375,-1.203125 V -4.40625 Z m 0,0"
             style="stroke:none;stroke-width:0"
             inkscape:connector-curvature="0" />
          <path
             id="path964"
             transform="translate(84.640186,66.656)"
             d="m 1.78125,-0.1875 c 0.015625,0.046875 0.03125,0.109375 0.03125,0.171875 0,0.671875 -0.3125,1.25 -0.75,1.734375 C 1.03125,1.75 1.015625,1.78125 1.015625,1.8125 c 0,0.046875 0.046875,0.09375 0.09375,0.09375 0.140625,0 0.421875,-0.375 0.546875,-0.59375 0.234375,-0.40625 0.375,-0.875 0.375,-1.34375 0,-0.453125 -0.140625,-1.03125 -0.65625,-1.03125 -0.296875,0 -0.515625,0.21875 -0.515625,0.53125 0,0.328125 0.25,0.515625 0.53125,0.515625 0.140625,0 0.296875,-0.046875 0.390625,-0.171875 z m 0,0"
             style="stroke:none;stroke-width:0"
             inkscape:connector-curvature="0" />
        </g>
        <g
           id="g972"
           style="fill:#000000;fill-opacity:1">
          <path
             id="path968"
             transform="translate(90.724345,66.656)"
             d="m 0.3125,-0.3125 v 0.296875 H 2.46875 V -0.3125 c -0.3125,0 -0.71875,-0.15625 -0.75,-0.5 0,-0.109375 0.0625,-0.1875 0.078125,-0.28125 C 1.90625,-1.421875 2.015625,-1.75 2.140625,-2.078125 2.171875,-2.15625 2.171875,-2.28125 2.3125,-2.28125 h 2.265625 c 0.109375,0 0.125,0.109375 0.171875,0.203125 l 0.203125,0.625 c 0.09375,0.25 0.28125,0.640625 0.28125,0.84375 V -0.5625 c -0.09375,0.234375 -0.484375,0.25 -0.765625,0.25 h -0.0625 v 0.296875 H 7.140625 V -0.3125 H 6.859375 C 6.625,-0.3125 6.390625,-0.34375 6.265625,-0.453125 6.15625,-0.578125 6.125,-0.75 6.0625,-0.890625 5.546875,-2.375 5.046875,-3.875 4.515625,-5.359375 4.34375,-5.875 4.09375,-6.4375 3.96875,-6.953125 3.921875,-7.09375 3.875,-7.140625 3.734375,-7.140625 c -0.203125,0 -0.25,0.203125 -0.3125,0.40625 C 2.875,-5.046875 2.25,-3.390625 1.6875,-1.71875 L 1.46875,-1.109375 C 1.421875,-0.9375 1.359375,-0.75 1.21875,-0.625 0.984375,-0.375 0.640625,-0.3125 0.3125,-0.3125 Z M 2.328125,-2.59375 3.4375,-5.828125 4.5625,-2.59375 Z m 0,0"
             style="stroke:none;stroke-width:0"
             inkscape:connector-curvature="0" />
          <path
             id="path970"
             transform="translate(98.194303,66.656)"
             d="m 0.328125,-6.8125 v 0.296875 h 0.15625 c 0.359375,0 0.625,0.046875 0.625,0.53125 v 5.03125 c 0,0.0625 0,0.140625 0,0.21875 0,0.375 -0.265625,0.421875 -0.546875,0.421875 H 0.328125 v 0.296875 h 2.21875 V -0.3125 h -0.25 c -0.28125,0 -0.515625,-0.046875 -0.515625,-0.4375 v -6.171875 z m 0,0"
             style="stroke:none;stroke-width:0"
             inkscape:connector-curvature="0" />
        </g>
      </g>
    </g>
  </g>
</svg>
