<?xml version="1.0" encoding="UTF-8" standalone="no"?>
<!-- Created with Inkscape (http://www.inkscape.org/) -->

<svg
   xmlns:ns1="http://www.iki.fi/pav/software/textext/"
   xmlns:dc="http://purl.org/dc/elements/1.1/"
   xmlns:cc="http://creativecommons.org/ns#"
   xmlns:rdf="http://www.w3.org/1999/02/22-rdf-syntax-ns#"
   xmlns:svg="http://www.w3.org/2000/svg"
   xmlns="http://www.w3.org/2000/svg"
   xmlns:sodipodi="http://sodipodi.sourceforge.net/DTD/sodipodi-0.dtd"
   xmlns:inkscape="http://www.inkscape.org/namespaces/inkscape"
   version="1.1"
   id="svg834"
   xml:space="preserve"
   width="328.22211"
   height="283.58392"
   viewBox="0 0 328.22211 283.58392"
   sodipodi:docname="bg_metal.svg"
   inkscape:version="0.92.4 5da689c313, 2019-01-14"><metadata
     id="metadata840"><rdf:RDF><cc:Work
         rdf:about=""><dc:format>image/svg+xml</dc:format><dc:type
           rdf:resource="http://purl.org/dc/dcmitype/StillImage" /><dc:title></dc:title></cc:Work></rdf:RDF></metadata><defs
     id="defs838"><clipPath
   clipPathUnits="userSpaceOnUse"
   id="clipPath856"><path
     d="M 0,0 H 247 V 213 H 0 Z"
     id="path854"
     inkscape:connector-curvature="0" /></clipPath><clipPath
   clipPathUnits="userSpaceOnUse"
   id="clipPath944"><path
     d="m 28.051,8.688 h 2 v 196.234 h -2 z"
     id="path942"
     inkscape:connector-curvature="0" /></clipPath><clipPath
   clipPathUnits="userSpaceOnUse"
   id="clipPath954"><path
     d="M 0,0 H 247 V 213 H 0 Z"
     id="path952"
     inkscape:connector-curvature="0" /></clipPath><clipPath
   clipPathUnits="userSpaceOnUse"
   id="clipPath990"><path
     d="m 25.051,8.688 h 5 v 1.922 h -5 z"
     id="path988"
     inkscape:connector-curvature="0" /></clipPath><clipPath
   clipPathUnits="userSpaceOnUse"
   id="clipPath1000"><path
     d="M 0,0 H 247 V 213 H 0 Z"
     id="path998"
     inkscape:connector-curvature="0" /></clipPath>







</defs><sodipodi:namedview
     pagecolor="#ffffff"
     bordercolor="#666666"
     borderopacity="1"
     objecttolerance="10"
     gridtolerance="10"
     guidetolerance="10"
     inkscape:pageopacity="0"
     inkscape:pageshadow="2"
     inkscape:window-width="1920"
     inkscape:window-height="1052"
     id="namedview836"
     showgrid="false"
     inkscape:zoom="2.1319132"
     inkscape:cx="201.81519"
     inkscape:cy="187.97053"
     inkscape:window-x="0"
     inkscape:window-y="28"
     inkscape:window-maximized="1"
     inkscape:current-layer="g842"
     inkscape:snap-global="false" /><g
     id="g842"
     inkscape:groupmode="layer"
     inkscape:label="bg_metal"
     transform="matrix(1.3333333,0,0,1.3333333,0,3.0895981e-6)"><g
       id="g844" /><g
       transform="scale(1,0.998656)"
       id="g860"><path
         inkscape:connector-curvature="0"
         id="path862"
         style="fill:none;stroke:#000000;stroke-width:0.61987197;stroke-linecap:square;stroke-linejoin:miter;stroke-miterlimit:10;stroke-dasharray:none;stroke-opacity:1"
         d="M 29.098,103.678 H 224.355" /></g><g
       transform="matrix(1,0,0,0.998656,-0.0243888,0)"
       id="g864"><path
         inkscape:connector-curvature="0"
         id="path866"
         style="fill:none;stroke:#000000;stroke-width:0.61987197;stroke-linecap:square;stroke-linejoin:miter;stroke-miterlimit:10;stroke-dasharray:none;stroke-opacity:1"
         d="m 65.531,103.678 v 6.611" /></g><g
       transform="scale(1,0.998656)"
       id="g868"><path
         inkscape:connector-curvature="0"
         id="path870"
         style="fill:none;stroke:#000000;stroke-width:0.61987197;stroke-linecap:square;stroke-linejoin:miter;stroke-miterlimit:10;stroke-dasharray:none;stroke-opacity:1"
         d="m 105.203,103.678 v 6.611" /></g><g
       transform="scale(1,0.998656)"
       id="g872"><path
         inkscape:connector-curvature="0"
         id="path874"
         style="fill:none;stroke:#000000;stroke-width:0.61987197;stroke-linecap:square;stroke-linejoin:miter;stroke-miterlimit:10;stroke-dasharray:none;stroke-opacity:1"
         d="m 144.875,103.678 v 6.611" /></g><g
       transform="scale(1,0.998656)"
       id="g876"><path
         inkscape:connector-curvature="0"
         id="path878"
         style="fill:none;stroke:#000000;stroke-width:0.61987197;stroke-linecap:square;stroke-linejoin:miter;stroke-miterlimit:10;stroke-dasharray:none;stroke-opacity:1"
         d="m 184.617,103.678 v 6.611" /></g><g
       transform="scale(1,0.998656)"
       id="g880"><path
         inkscape:connector-curvature="0"
         id="path882"
         style="fill:none;stroke:#000000;stroke-width:0.61987197;stroke-linecap:square;stroke-linejoin:miter;stroke-miterlimit:10;stroke-dasharray:none;stroke-opacity:1"
         d="m 224.289,103.678 v 6.611" /></g><g
       id="g938"><g
         id="g940"
         clip-path="url(#clipPath944)"><g
           id="g946"><g
             id="g948"><g
               id="g950"
               clip-path="url(#clipPath954)"><g
                 id="g956"><g
                   id="g958"
                   transform="scale(1,0.998656)"><path
                     d="M 29.098,204.509 V 9.251"
                     style="fill:none;stroke:#000000;stroke-width:0.61987197;stroke-linecap:square;stroke-linejoin:miter;stroke-miterlimit:10;stroke-dasharray:none;stroke-opacity:1"
                     id="path960"
                     inkscape:connector-curvature="0" /></g></g></g></g></g></g></g><g
       id="g962"><g
         id="g964"
         transform="scale(1,0.998656)"><path
           d="M 29.098,166.834 H 22.484"
           style="fill:none;stroke:#000000;stroke-width:0.61987197;stroke-linecap:square;stroke-linejoin:miter;stroke-miterlimit:10;stroke-dasharray:none;stroke-opacity:1"
           id="path966"
           inkscape:connector-curvature="0" /></g><g
         id="g968"
         transform="scale(1,0.998656)"><path
           d="M 29.098,103.815 H 22.484"
           style="fill:none;stroke:#000000;stroke-width:0.61987197;stroke-linecap:square;stroke-linejoin:miter;stroke-miterlimit:10;stroke-dasharray:none;stroke-opacity:1"
           id="path970"
           inkscape:connector-curvature="0" /></g><g
         id="g972"
         transform="scale(1,0.998656)"><path
           d="M 29.098,40.864 H 22.484"
           style="fill:none;stroke:#000000;stroke-width:0.61987197;stroke-linecap:square;stroke-linejoin:miter;stroke-miterlimit:10;stroke-dasharray:none;stroke-opacity:1"
           id="path974"
           inkscape:connector-curvature="0" /></g><g
         id="g976"
         transform="scale(1,0.998656)"><path
           d="M 29.098,135.221 H 25.723"
           style="fill:none;stroke:#000000;stroke-width:0.61987197;stroke-linecap:square;stroke-linejoin:miter;stroke-miterlimit:10;stroke-dasharray:none;stroke-opacity:1"
           id="path978"
           inkscape:connector-curvature="0" /></g><g
         id="g980"
         transform="scale(1,0.998656)"><path
           d="M 29.098,72.339 H 25.723"
           style="fill:none;stroke:#000000;stroke-width:0.61987197;stroke-linecap:square;stroke-linejoin:miter;stroke-miterlimit:10;stroke-dasharray:none;stroke-opacity:1"
           id="path982"
           inkscape:connector-curvature="0" /></g></g><g
       id="g984"><g
         id="g986"
         clip-path="url(#clipPath990)"><g
           id="g992"><g
             id="g994"><g
               id="g996"
               clip-path="url(#clipPath1000)"><g
                 id="g1002"><g
                   id="g1004"
                   transform="scale(1,0.998656)"><path
                     d="M 29.098,9.317 H 25.723"
                     style="fill:none;stroke:#000000;stroke-width:0.61987197;stroke-linecap:square;stroke-linejoin:miter;stroke-miterlimit:10;stroke-dasharray:none;stroke-opacity:1"
                     id="path1006"
                     inkscape:connector-curvature="0" /></g></g></g></g></g></g></g><g
       transform="scale(1,0.998656)"
       id="g1010"><path
         inkscape:connector-curvature="0"
         id="path1012"
         style="fill:none;stroke:#000000;stroke-width:0.61987197;stroke-linecap:square;stroke-linejoin:miter;stroke-miterlimit:10;stroke-dasharray:none;stroke-opacity:1"
         d="M 29.098,198.243 H 25.723" /></g><g
       transform="scale(1,0.998656)"
       id="g1044" /><g
       transform="scale(1,0.998656)"
       id="g1048"><path
         inkscape:connector-curvature="0"
         id="path1050"
         style="fill:none;stroke:#000000;stroke-width:0.61987197;stroke-linecap:square;stroke-linejoin:miter;stroke-miterlimit:10;stroke-dasharray:none;stroke-opacity:1"
         d="m 41.77,28.19 0.207,3.376" /></g><g
       transform="scale(1,0.998656)"
       id="g1052"><path
         inkscape:connector-curvature="0"
         id="path1054"
         style="fill:none;stroke:#000000;stroke-width:0.61987197;stroke-linecap:square;stroke-linejoin:miter;stroke-miterlimit:10;stroke-dasharray:none;stroke-opacity:1"
         d="m 42.32,34.734 0.344,2.687" /></g><g
       transform="scale(1,0.998656)"
       id="g1056"><path
         inkscape:connector-curvature="0"
         id="path1058"
         style="fill:none;stroke:#000000;stroke-width:0.61987197;stroke-linecap:square;stroke-linejoin:miter;stroke-miterlimit:10;stroke-dasharray:none;stroke-opacity:1"
         d="M 42.664,37.421 V 38.11" /></g><g
       transform="scale(1,0.998656)"
       id="g1060"><path
         inkscape:connector-curvature="0"
         id="path1062"
         style="fill:none;stroke:#000000;stroke-width:0.61987197;stroke-linecap:square;stroke-linejoin:miter;stroke-miterlimit:10;stroke-dasharray:none;stroke-opacity:1"
         d="m 43.078,41.208 0.414,3.375" /></g><g
       transform="scale(1,0.998656)"
       id="g1064"><path
         inkscape:connector-curvature="0"
         id="path1066"
         style="fill:none;stroke:#000000;stroke-width:0.61987197;stroke-linecap:square;stroke-linejoin:miter;stroke-miterlimit:10;stroke-dasharray:none;stroke-opacity:1"
         d="m 43.902,47.615 0.485,3.371" /></g><g
       transform="scale(1,0.998656)"
       id="g1068"><path
         inkscape:connector-curvature="0"
         id="path1070"
         style="fill:none;stroke:#000000;stroke-width:0.61987197;stroke-linecap:square;stroke-linejoin:miter;stroke-miterlimit:10;stroke-dasharray:none;stroke-opacity:1"
         d="m 44.801,54.155 0.551,3.239" /></g><g
       transform="scale(1,0.998656)"
       id="g1072"><path
         inkscape:connector-curvature="0"
         id="path1074"
         style="fill:none;stroke:#000000;stroke-width:0.61987197;stroke-linecap:square;stroke-linejoin:miter;stroke-miterlimit:10;stroke-dasharray:none;stroke-opacity:1"
         d="m 45.902,60.491 0.414,2.07" /></g><g
       transform="scale(1,0.998656)"
       id="g1076"><path
         inkscape:connector-curvature="0"
         id="path1078"
         style="fill:none;stroke:#000000;stroke-width:0.61987197;stroke-linecap:square;stroke-linejoin:miter;stroke-miterlimit:10;stroke-dasharray:none;stroke-opacity:1"
         d="m 46.316,62.561 0.204,1.24" /></g><g
       transform="scale(1,0.998656)"
       id="g1080"><path
         inkscape:connector-curvature="0"
         id="path1082"
         style="fill:none;stroke:#000000;stroke-width:0.61987197;stroke-linecap:square;stroke-linejoin:miter;stroke-miterlimit:10;stroke-dasharray:none;stroke-opacity:1"
         d="m 47.211,66.899 0.824,3.305" /></g><g
       transform="scale(1,0.998656)"
       id="g1084"><path
         inkscape:connector-curvature="0"
         id="path1086"
         style="fill:none;stroke:#000000;stroke-width:0.61987197;stroke-linecap:square;stroke-linejoin:miter;stroke-miterlimit:10;stroke-dasharray:none;stroke-opacity:1"
         d="m 48.793,73.098 0.344,0.755" /></g><g
       transform="scale(1,0.998656)"
       id="g1088"><path
         inkscape:connector-curvature="0"
         id="path1090"
         style="fill:none;stroke:#000000;stroke-width:0.61987197;stroke-linecap:square;stroke-linejoin:miter;stroke-miterlimit:10;stroke-dasharray:none;stroke-opacity:1"
         d="m 49.137,73.853 0.621,2.48" /></g><g
       transform="scale(1,0.998656)"
       id="g1092"><path
         inkscape:connector-curvature="0"
         id="path1094"
         style="fill:none;stroke:#000000;stroke-width:0.61987197;stroke-linecap:square;stroke-linejoin:miter;stroke-miterlimit:10;stroke-dasharray:none;stroke-opacity:1"
         d="m 50.859,79.294 0.965,2.273" /></g><g
       transform="scale(1,0.998656)"
       id="g1096"><path
         inkscape:connector-curvature="0"
         id="path1098"
         style="fill:none;stroke:#000000;stroke-width:0.61987197;stroke-linecap:square;stroke-linejoin:miter;stroke-miterlimit:10;stroke-dasharray:none;stroke-opacity:1"
         d="m 51.824,81.567 0.344,0.895" /></g><g
       transform="scale(1,0.998656)"
       id="g1100"><path
         inkscape:connector-curvature="0"
         id="path1102"
         style="fill:none;stroke:#000000;stroke-width:0.61987197;stroke-linecap:square;stroke-linejoin:miter;stroke-miterlimit:10;stroke-dasharray:none;stroke-opacity:1"
         d="m 53.684,85.22 0.894,1.584" /></g><g
       transform="scale(1,0.998656)"
       id="g1104"><path
         inkscape:connector-curvature="0"
         id="path1106"
         style="fill:none;stroke:#000000;stroke-width:0.61987197;stroke-linecap:square;stroke-linejoin:miter;stroke-miterlimit:10;stroke-dasharray:none;stroke-opacity:1"
         d="m 54.578,86.804 0.828,1.24" /></g><g
       transform="scale(1,0.998656)"
       id="g1108"><path
         inkscape:connector-curvature="0"
         id="path1110"
         style="fill:none;stroke:#000000;stroke-width:0.61987197;stroke-linecap:square;stroke-linejoin:miter;stroke-miterlimit:10;stroke-dasharray:none;stroke-opacity:1"
         d="m 57.402,90.591 0.828,0.966 0.965,0.962" /></g><g
       transform="scale(1,0.998656)"
       id="g1112"><path
         inkscape:connector-curvature="0"
         id="path1114"
         style="fill:none;stroke:#000000;stroke-width:0.61987197;stroke-linecap:square;stroke-linejoin:miter;stroke-miterlimit:10;stroke-dasharray:none;stroke-opacity:1"
         d="m 59.195,92.519 0.551,0.551" /></g><g
       transform="scale(1,0.998656)"
       id="g1116"><path
         inkscape:connector-curvature="0"
         id="path1118"
         style="fill:none;stroke:#000000;stroke-width:0.61987197;stroke-linecap:square;stroke-linejoin:miter;stroke-miterlimit:10;stroke-dasharray:none;stroke-opacity:1"
         d="m 62.156,94.928 0.617,0.415 1.036,0.552 0.828,0.551" /></g><g
       transform="scale(1,0.998656)"
       id="g1120"><path
         inkscape:connector-curvature="0"
         id="path1122"
         style="fill:none;stroke:#000000;stroke-width:0.61987197;stroke-linecap:square;stroke-linejoin:miter;stroke-miterlimit:10;stroke-dasharray:none;stroke-opacity:1"
         d="m 64.637,96.446 0.41,0.067" /></g><g
       transform="scale(1,0.998656)"
       id="g1124"><path
         inkscape:connector-curvature="0"
         id="path1126"
         style="fill:none;stroke:#000000;stroke-width:0.61987197;stroke-linecap:square;stroke-linejoin:miter;stroke-miterlimit:10;stroke-dasharray:none;stroke-opacity:1"
         d="m 67.871,97.96 0.484,0.207 0.961,0.344 0.829,0.274" /></g><g
       transform="scale(1,0.998656)"
       id="g1128"><path
         inkscape:connector-curvature="0"
         id="path1130"
         style="fill:none;stroke:#000000;stroke-width:0.61987197;stroke-linecap:square;stroke-linejoin:miter;stroke-miterlimit:10;stroke-dasharray:none;stroke-opacity:1"
         d="m 70.145,98.785 0.894,0.207" /></g><g
       transform="scale(1,0.998656)"
       id="g1132"><path
         inkscape:connector-curvature="0"
         id="path1134"
         style="fill:none;stroke:#000000;stroke-width:0.61987197;stroke-linecap:square;stroke-linejoin:miter;stroke-miterlimit:10;stroke-dasharray:none;stroke-opacity:1"
         d="m 74.207,99.751 0.551,0.274 0.965,0.207 0.828,0.208" /></g><g
       transform="scale(1,0.998656)"
       id="g1136"><path
         inkscape:connector-curvature="0"
         id="path1138"
         style="fill:none;stroke:#000000;stroke-width:0.61987197;stroke-linecap:square;stroke-linejoin:miter;stroke-miterlimit:10;stroke-dasharray:none;stroke-opacity:1"
         d="m 76.551,100.44 0.894,0.07" /></g><g
       transform="scale(1,0.998656)"
       id="g1140"><path
         inkscape:connector-curvature="0"
         id="path1142"
         style="fill:none;stroke:#000000;stroke-width:0.61987197;stroke-linecap:square;stroke-linejoin:miter;stroke-miterlimit:10;stroke-dasharray:none;stroke-opacity:1"
         d="m 80.613,101.062 h 0.485 l 1.031,0.273 0.828,0.071" /></g><g
       transform="scale(1,0.998656)"
       id="g1144"><path
         inkscape:connector-curvature="0"
         id="path1146"
         style="fill:none;stroke:#000000;stroke-width:0.61987197;stroke-linecap:square;stroke-linejoin:miter;stroke-miterlimit:10;stroke-dasharray:none;stroke-opacity:1"
         d="m 82.957,101.406 h 0.895" /></g><g
       transform="scale(1,0.998656)"
       id="g1148"><path
         inkscape:connector-curvature="0"
         id="path1150"
         style="fill:none;stroke:#000000;stroke-width:0.61987197;stroke-linecap:square;stroke-linejoin:miter;stroke-miterlimit:10;stroke-dasharray:none;stroke-opacity:1"
         d="m 87.02,101.817 h 0.621 l 0.894,0.136 0.965,0.141" /></g><g
       transform="scale(1,0.998656)"
       id="g1152"><path
         inkscape:connector-curvature="0"
         id="path1154"
         style="fill:none;stroke:#000000;stroke-width:0.61987197;stroke-linecap:square;stroke-linejoin:miter;stroke-miterlimit:10;stroke-dasharray:none;stroke-opacity:1"
         d="m 89.5,102.094 h 0.824" /></g><g
       transform="scale(1,0.998656)"
       id="g1156"><path
         inkscape:connector-curvature="0"
         id="path1158"
         style="fill:none;stroke:#000000;stroke-width:0.61987197;stroke-linecap:square;stroke-linejoin:miter;stroke-miterlimit:10;stroke-dasharray:none;stroke-opacity:1"
         d="m 93.492,102.302 0.551,0.066 h 0.828 l 1.031,0.137" /></g><g
       transform="scale(1,0.998656)"
       id="g1160"><path
         inkscape:connector-curvature="0"
         id="path1162"
         style="fill:none;stroke:#000000;stroke-width:0.61987197;stroke-linecap:square;stroke-linejoin:miter;stroke-miterlimit:10;stroke-dasharray:none;stroke-opacity:1"
         d="m 95.902,102.505 h 0.965" /></g><g
       transform="scale(1,0.998656)"
       id="g1164"><path
         inkscape:connector-curvature="0"
         id="path1166"
         style="fill:none;stroke:#000000;stroke-width:0.61987197;stroke-linecap:square;stroke-linejoin:miter;stroke-miterlimit:10;stroke-dasharray:none;stroke-opacity:1"
         d="m 99.969,102.712 h 2.34 l 0.828,0.137" /></g><g
       transform="scale(1,0.998656)"
       id="g1168"><path
         inkscape:connector-curvature="0"
         id="path1170"
         style="fill:none;stroke:#000000;stroke-width:0.61987197;stroke-linecap:square;stroke-linejoin:miter;stroke-miterlimit:10;stroke-dasharray:none;stroke-opacity:1"
         d="m 103.137,102.849 h 0.207" /></g><g
       transform="scale(1,0.998656)"
       id="g1172"><path
         inkscape:connector-curvature="0"
         id="path1174"
         style="fill:none;stroke:#000000;stroke-width:0.61987197;stroke-linecap:square;stroke-linejoin:miter;stroke-miterlimit:10;stroke-dasharray:none;stroke-opacity:1"
         d="m 106.512,102.92 h 1.308 l 0.825,0.136 h 1.035" /></g><g
       transform="scale(1,0.998656)"
       id="g1176"><path
         inkscape:connector-curvature="0"
         id="path1178"
         style="fill:none;stroke:#000000;stroke-width:0.61987197;stroke-linecap:square;stroke-linejoin:miter;stroke-miterlimit:10;stroke-dasharray:none;stroke-opacity:1"
         d="m 109.68,103.056 h 0.207" /></g><g
       transform="scale(1,0.998656)"
       id="g1180"><path
         inkscape:connector-curvature="0"
         id="path1182"
         style="fill:none;stroke:#000000;stroke-width:0.61987197;stroke-linecap:square;stroke-linejoin:miter;stroke-miterlimit:10;stroke-dasharray:none;stroke-opacity:1"
         d="m 112.984,103.056 0.278,0.071 h 2.754" /></g><g
       transform="scale(1,0.998656)"
       id="g1184"><path
         inkscape:connector-curvature="0"
         id="path1186"
         style="fill:none;stroke:#000000;stroke-width:0.61987197;stroke-linecap:square;stroke-linejoin:miter;stroke-miterlimit:10;stroke-dasharray:none;stroke-opacity:1"
         d="m 116.016,103.127 h 0.343" /></g><g
       transform="scale(1,0.998656)"
       id="g1188"><path
         inkscape:connector-curvature="0"
         id="path1190"
         style="fill:none;stroke:#000000;stroke-width:0.61987197;stroke-linecap:square;stroke-linejoin:miter;stroke-miterlimit:10;stroke-dasharray:none;stroke-opacity:1"
         d="m 119.527,103.264 h 2.895" /></g><g
       transform="scale(1,0.998656)"
       id="g1192"><path
         inkscape:connector-curvature="0"
         id="path1194"
         style="fill:none;stroke:#000000;stroke-width:0.61987197;stroke-linecap:square;stroke-linejoin:miter;stroke-miterlimit:10;stroke-dasharray:none;stroke-opacity:1"
         d="m 122.422,103.264 h 0.48" /></g><g
       transform="scale(1,0.998656)"
       id="g1196"><path
         inkscape:connector-curvature="0"
         id="path1198"
         style="fill:none;stroke:#000000;stroke-width:0.61987197;stroke-linecap:square;stroke-linejoin:miter;stroke-miterlimit:10;stroke-dasharray:none;stroke-opacity:1"
         d="m 126,103.334 h 2.824" /></g><g
       transform="scale(1,0.998656)"
       id="g1200"><path
         inkscape:connector-curvature="0"
         id="path1202"
         style="fill:none;stroke:#000000;stroke-width:0.61987197;stroke-linecap:square;stroke-linejoin:miter;stroke-miterlimit:10;stroke-dasharray:none;stroke-opacity:1"
         d="m 128.824,103.334 h 0.551" /></g><g
       transform="scale(1,0.998656)"
       id="g1204"><path
         inkscape:connector-curvature="0"
         id="path1206"
         style="fill:none;stroke:#000000;stroke-width:0.61987197;stroke-linecap:square;stroke-linejoin:miter;stroke-miterlimit:10;stroke-dasharray:none;stroke-opacity:1"
         d="m 132.543,103.334 0.828,0.137 h 1.996" /></g><g
       transform="scale(1,0.998656)"
       id="g1208"><path
         inkscape:connector-curvature="0"
         id="path1210"
         style="fill:none;stroke:#000000;stroke-width:0.61987197;stroke-linecap:square;stroke-linejoin:miter;stroke-miterlimit:10;stroke-dasharray:none;stroke-opacity:1"
         d="m 135.367,103.471 h 0.551" /></g><g
       transform="scale(1,0.998656)"
       id="g1212"><path
         inkscape:connector-curvature="0"
         id="path1214"
         style="fill:none;stroke:#000000;stroke-width:0.61987197;stroke-linecap:square;stroke-linejoin:miter;stroke-miterlimit:10;stroke-dasharray:none;stroke-opacity:1"
         d="m 139.02,103.471 h 2.753" /></g><g
       transform="scale(1,0.998656)"
       id="g1216"><path
         inkscape:connector-curvature="0"
         id="path1218"
         style="fill:none;stroke:#000000;stroke-width:0.61987197;stroke-linecap:square;stroke-linejoin:miter;stroke-miterlimit:10;stroke-dasharray:none;stroke-opacity:1"
         d="m 141.773,103.471 h 0.622" /></g><g
       transform="scale(1,0.998656)"
       id="g1220"><path
         inkscape:connector-curvature="0"
         id="path1222"
         style="fill:none;stroke:#000000;stroke-width:0.61987197;stroke-linecap:square;stroke-linejoin:miter;stroke-miterlimit:10;stroke-dasharray:none;stroke-opacity:1"
         d="m 145.562,103.608 h 2.618" /></g><g
       transform="scale(1,0.998656)"
       id="g1224"><path
         inkscape:connector-curvature="0"
         id="path1226"
         style="fill:none;stroke:#000000;stroke-width:0.61987197;stroke-linecap:square;stroke-linejoin:miter;stroke-miterlimit:10;stroke-dasharray:none;stroke-opacity:1"
         d="m 148.18,103.608 h 0.758" /></g><g
       transform="scale(1,0.998656)"
       id="g1228"><path
         inkscape:connector-curvature="0"
         id="path1230"
         style="fill:none;stroke:#000000;stroke-width:0.61987197;stroke-linecap:square;stroke-linejoin:miter;stroke-miterlimit:10;stroke-dasharray:none;stroke-opacity:1"
         d="m 152.035,103.608 h 2.481" /></g><g
       transform="scale(1,0.998656)"
       id="g1232"><path
         inkscape:connector-curvature="0"
         id="path1234"
         style="fill:none;stroke:#000000;stroke-width:0.61987197;stroke-linecap:square;stroke-linejoin:miter;stroke-miterlimit:10;stroke-dasharray:none;stroke-opacity:1"
         d="m 154.516,103.608 h 0.894" /></g><g
       transform="scale(1,0.998656)"
       id="g1236"><path
         inkscape:connector-curvature="0"
         id="path1238"
         style="fill:none;stroke:#000000;stroke-width:0.61987197;stroke-linecap:square;stroke-linejoin:miter;stroke-miterlimit:10;stroke-dasharray:none;stroke-opacity:1"
         d="m 158.578,103.608 h 2.344" /></g><g
       transform="scale(1,0.998656)"
       id="g1240"><path
         inkscape:connector-curvature="0"
         id="path1242"
         style="fill:none;stroke:#000000;stroke-width:0.61987197;stroke-linecap:square;stroke-linejoin:miter;stroke-miterlimit:10;stroke-dasharray:none;stroke-opacity:1"
         d="m 160.922,103.608 h 1.031" /></g><g
       transform="scale(1,0.998656)"
       id="g1244"><path
         inkscape:connector-curvature="0"
         id="path1246"
         style="fill:none;stroke:#000000;stroke-width:0.61987197;stroke-linecap:square;stroke-linejoin:miter;stroke-miterlimit:10;stroke-dasharray:none;stroke-opacity:1"
         d="m 165.055,103.678 h 3.234" /></g><g
       transform="scale(1,0.998656)"
       id="g1248"><path
         inkscape:connector-curvature="0"
         id="path1250"
         style="fill:none;stroke:#000000;stroke-width:0.61987197;stroke-linecap:square;stroke-linejoin:miter;stroke-miterlimit:10;stroke-dasharray:none;stroke-opacity:1"
         d="m 168.289,103.678 h -0.066" /></g><g
       transform="scale(1,0.998656)"
       id="g1252"><path
         inkscape:connector-curvature="0"
         id="path1254"
         style="fill:none;stroke:#000000;stroke-width:0.61987197;stroke-linecap:square;stroke-linejoin:miter;stroke-miterlimit:10;stroke-dasharray:none;stroke-opacity:1"
         d="m 171.598,103.678 h 3.097" /></g><g
       transform="scale(1,0.998656)"
       id="g1256"><path
         inkscape:connector-curvature="0"
         id="path1258"
         style="fill:none;stroke:#000000;stroke-width:0.61987197;stroke-linecap:square;stroke-linejoin:miter;stroke-miterlimit:10;stroke-dasharray:none;stroke-opacity:1"
         d="m 174.695,103.678 h 0.207" /></g><g
       transform="scale(1,0.998656)"
       id="g1260"><path
         inkscape:connector-curvature="0"
         id="path1262"
         style="fill:none;stroke:#000000;stroke-width:0.61987197;stroke-linecap:square;stroke-linejoin:miter;stroke-miterlimit:10;stroke-dasharray:none;stroke-opacity:1"
         d="m 178.07,103.678 h 3.032" /></g><g
       transform="scale(1,0.998656)"
       id="g1264"><path
         inkscape:connector-curvature="0"
         id="path1266"
         style="fill:none;stroke:#000000;stroke-width:0.61987197;stroke-linecap:square;stroke-linejoin:miter;stroke-miterlimit:10;stroke-dasharray:none;stroke-opacity:1"
         d="m 181.102,103.678 h 0.343" /></g><g
       transform="scale(1,0.998656)"
       id="g1268"><path
         inkscape:connector-curvature="0"
         id="path1270"
         style="fill:none;stroke:#000000;stroke-width:0.61987197;stroke-linecap:square;stroke-linejoin:miter;stroke-miterlimit:10;stroke-dasharray:none;stroke-opacity:1"
         d="m 184.613,103.678 h 2.895" /></g><g
       transform="scale(1,0.998656)"
       id="g1272"><path
         inkscape:connector-curvature="0"
         id="path1274"
         style="fill:none;stroke:#000000;stroke-width:0.61987197;stroke-linecap:square;stroke-linejoin:miter;stroke-miterlimit:10;stroke-dasharray:none;stroke-opacity:1"
         d="m 187.508,103.678 h 0.41" /></g><g
       transform="scale(1,0.998656)"
       id="g1276"><path
         inkscape:connector-curvature="0"
         id="path1278"
         style="fill:none;stroke:#000000;stroke-width:0.61987197;stroke-linecap:square;stroke-linejoin:miter;stroke-miterlimit:10;stroke-dasharray:none;stroke-opacity:1"
         d="m 191.086,103.678 h 2.965" /></g><g
       transform="scale(1,0.998656)"
       id="g1280"><path
         inkscape:connector-curvature="0"
         id="path1282"
         style="fill:none;stroke:#000000;stroke-width:0.61987197;stroke-linecap:square;stroke-linejoin:miter;stroke-miterlimit:10;stroke-dasharray:none;stroke-opacity:1"
         d="m 194.051,103.678 h 0.41" /></g><g
       transform="scale(1,0.998656)"
       id="g1284"><path
         inkscape:connector-curvature="0"
         id="path1286"
         style="fill:none;stroke:#000000;stroke-width:0.61987197;stroke-linecap:square;stroke-linejoin:miter;stroke-miterlimit:10;stroke-dasharray:none;stroke-opacity:1"
         d="m 197.629,103.678 h 2.758" /></g><g
       transform="scale(1,0.998656)"
       id="g1288"><path
         inkscape:connector-curvature="0"
         id="path1290"
         style="fill:none;stroke:#000000;stroke-width:0.61987197;stroke-linecap:square;stroke-linejoin:miter;stroke-miterlimit:10;stroke-dasharray:none;stroke-opacity:1"
         d="m 200.387,103.678 h 0.551" /></g><g
       transform="scale(1,0.998656)"
       id="g1292"><path
         inkscape:connector-curvature="0"
         id="path1294"
         style="fill:none;stroke:#000000;stroke-width:0.61987197;stroke-linecap:square;stroke-linejoin:miter;stroke-miterlimit:10;stroke-dasharray:none;stroke-opacity:1"
         d="m 204.105,103.678 h 2.684" /></g><g
       transform="scale(1,0.998656)"
       id="g1296"><path
         inkscape:connector-curvature="0"
         id="path1298"
         style="fill:none;stroke:#000000;stroke-width:0.61987197;stroke-linecap:square;stroke-linejoin:miter;stroke-miterlimit:10;stroke-dasharray:none;stroke-opacity:1"
         d="m 206.789,103.678 h 0.691" /></g><g
       transform="scale(1,0.998656)"
       id="g1300"><path
         inkscape:connector-curvature="0"
         id="path1302"
         style="fill:none;stroke:#000000;stroke-width:0.61987197;stroke-linecap:square;stroke-linejoin:miter;stroke-miterlimit:10;stroke-dasharray:none;stroke-opacity:1"
         d="m 210.648,103.678 h 2.547" /></g><g
       transform="scale(1,0.998656)"
       id="g1304"><path
         inkscape:connector-curvature="0"
         id="path1306"
         style="fill:none;stroke:#000000;stroke-width:0.61987197;stroke-linecap:square;stroke-linejoin:miter;stroke-miterlimit:10;stroke-dasharray:none;stroke-opacity:1"
         d="m 213.195,103.678 h 0.758" /></g><g
       transform="scale(1,0.998656)"
       id="g1308"><path
         inkscape:connector-curvature="0"
         id="path1310"
         style="fill:none;stroke:#000000;stroke-width:0.61987197;stroke-linecap:square;stroke-linejoin:miter;stroke-miterlimit:10;stroke-dasharray:none;stroke-opacity:1"
         d="m 217.121,103.678 h 2.481" /></g><g
       transform="scale(1,0.998656)"
       id="g1312"><path
         inkscape:connector-curvature="0"
         id="path1314"
         style="fill:none;stroke:#000000;stroke-width:0.61987197;stroke-linecap:square;stroke-linejoin:miter;stroke-miterlimit:10;stroke-dasharray:none;stroke-opacity:1"
         d="m 219.602,103.678 h 0.894" /></g><g
       transform="scale(1,0.998656)"
       id="g1316"><path
         inkscape:connector-curvature="0"
         id="path1318"
         style="fill:none;stroke:#000000;stroke-width:0.61987197;stroke-linecap:square;stroke-linejoin:miter;stroke-miterlimit:10;stroke-dasharray:none;stroke-opacity:1"
         d="m 223.598,103.678 h 0.757" /></g><g
       transform="scale(1,0.998656)"
       id="g1320"><path
         inkscape:connector-curvature="0"
         id="path1322"
         style="fill:none;stroke:#000000;stroke-width:0.61987197;stroke-linecap:square;stroke-linejoin:miter;stroke-miterlimit:10;stroke-dasharray:none;stroke-opacity:1"
         d="m 41.766,201.411 0.898,-7.166 0.961,-6.54 0.828,-5.926 0.965,-5.507 0.894,-4.889 0.965,-4.549 0.895,-4.268 0.965,-3.79 0.894,-3.442 0.965,-3.305 0.828,-2.895 1.031,-2.687 0.829,-2.547 0.964,-2.343 0.895,-2.202 0.965,-1.928 0.894,-1.862 0.965,-1.721 0.824,-1.655 1.036,-1.513 0.824,-1.307 0.965,-1.31 0.894,-1.24 0.965,-1.103 0.895,-1.099 0.964,-1.103 0.828,-0.826 1.032,-0.895 0.828,-0.83 0.965,-0.825 0.894,-0.759 0.965,-0.755 0.895,-0.622 0.964,-0.618 0.895,-0.551 0.965,-0.552 0.828,-0.551 1.031,-0.552 0.828,-0.41 0.961,-0.552 0.899,-0.415 0.961,-0.481 0.898,-0.277 0.965,-0.482 0.824,-0.273 1.035,-0.485 0.825,-0.274 0.964,-0.344 0.895,-0.208 0.965,-0.344 0.894,-0.344 0.965,-0.207 0.828,-0.208 1.031,-0.344 0.829,-0.203 0.964,-0.208 0.895,-0.207 0.965,-0.207 0.894,-0.274 0.965,-0.207 0.895,-0.071 0.965,-0.207 0.824,-0.274 0.965,-0.07 0.894,-0.204 0.965,-0.141 0.898,-0.207 0.961,-0.137 0.899,-0.066 0.961,-0.208 0.828,-0.136 1.035,-0.071 0.824,-0.137 0.965,-0.137 0.895,-0.07 0.964,-0.137 0.895,-0.07 0.965,-0.137 0.828,-0.137 1.031,-0.071 0.828,-0.137 0.965,-0.07 0.895,-0.137 0.965,-0.07 h 0.894 l 0.965,-0.137 0.895,-0.137 0.964,-0.07 h 0.825 l 0.964,-0.137 0.895,-0.067 h 0.965 l 0.894,-0.141 0.965,-0.066 h 0.895 l 0.965,-0.137 h 0.828 l 1.031,-0.141 0.828,-0.066 h 1.859 l 0.965,-0.137 h 0.895 l 0.965,-0.071 0.828,-0.137 h 1.859 l 0.961,-0.07 h 0.899 l 0.964,-0.137 h 1.86 l 0.894,-0.137 h 1.789 l 0.965,-0.07 h 0.895 l 0.965,-0.137 h 1.859 l 0.894,-0.071 h 2.825 l 0.828,-0.136 h 1.859 l 0.965,-0.071 h 1.859 l 0.825,-0.137 h 3.722 l 0.961,-0.137 h 2.688 l 1.035,-0.07 h 2.683 l 0.965,-0.137 h 4.547 L 180,102.302 h 4.613 l 0.965,-0.141 h 3.649 l 0.894,-0.067 h 7.371 l 0.965,-0.141 h 5.508 l 0.898,-0.136 h 6.543 l 0.824,-0.067 h 11.09" /></g><g
       transform="scale(1,0.998656)"
       id="g1324"><path
         inkscape:connector-curvature="0"
         id="path1326"
         style="fill:none;stroke:#000000;stroke-width:0.61987197;stroke-linecap:square;stroke-linejoin:miter;stroke-miterlimit:10;stroke-dasharray:none;stroke-opacity:1"
         d="m 223.32,101.75 1.035,-0.141" /></g><path
       inkscape:connector-curvature="0"
       id="path1336"
       style="fill:#000000;fill-opacity:1;fill-rule:nonzero;stroke:none"
       d="M 172.47672,61.992 V 24.508 h 52.273 v 37.484 z m 51.656,-36.867 h -51.039 v 36.25 h 51.039 z" /><g
       transform="matrix(1,0,0,0.998656,93.929719,0)"
       id="g1338"><path
         inkscape:connector-curvature="0"
         id="path1340"
         style="fill:none;stroke:#000000;stroke-width:0.12;stroke-linecap:square;stroke-linejoin:miter;stroke-miterlimit:10;stroke-dasharray:none;stroke-opacity:1"
         d="m 130.477,25.159 v -0.344 h -0.274 v 36.916 h 0.274 V 61.458 H 78.82 v 0.273 h 0.344 V 24.815 H 78.82 v 0.344 z M 78.82,24.541 H 78.547 V 62.076 H 130.82 V 24.541 Z" /></g><g
       transform="matrix(1,0,0,0.998656,93.929719,0)"
       id="g1352"><path
         inkscape:connector-curvature="0"
         id="path1354"
         style="fill:none;stroke:#000000;stroke-width:0.61987197;stroke-linecap:square;stroke-linejoin:miter;stroke-miterlimit:10;stroke-dasharray:none;stroke-opacity:1"
         d="m 82.129,34.253 h 30.992" /></g><g
       transform="matrix(1,0,0,0.998656,93.929719,0)"
       id="g1374"><path
         inkscape:connector-curvature="0"
         id="path1376"
         style="fill:none;stroke:#000000;stroke-width:0.61987197;stroke-linecap:square;stroke-linejoin:miter;stroke-miterlimit:10;stroke-dasharray:none;stroke-opacity:1"
         d="m 82.129,50.298 h 3.305" /></g><g
       transform="matrix(1,0,0,0.998656,93.929719,0)"
       id="g1378"><path
         inkscape:connector-curvature="0"
         id="path1380"
         style="fill:none;stroke:#000000;stroke-width:0.61987197;stroke-linecap:square;stroke-linejoin:miter;stroke-miterlimit:10;stroke-dasharray:none;stroke-opacity:1"
         d="m 88.602,50.298 h 3.375" /></g><g
       transform="matrix(1,0,0,0.998656,93.929719,0)"
       id="g1382"><path
         inkscape:connector-curvature="0"
         id="path1384"
         style="fill:none;stroke:#000000;stroke-width:0.61987197;stroke-linecap:square;stroke-linejoin:miter;stroke-miterlimit:10;stroke-dasharray:none;stroke-opacity:1"
         d="m 95.145,50.298 h 3.304" /></g><g
       transform="matrix(1,0,0,0.998656,93.929719,0)"
       id="g1386"><path
         inkscape:connector-curvature="0"
         id="path1388"
         style="fill:none;stroke:#000000;stroke-width:0.61987197;stroke-linecap:square;stroke-linejoin:miter;stroke-miterlimit:10;stroke-dasharray:none;stroke-opacity:1"
         d="m 101.617,50.298 h 3.375" /></g><g
       transform="matrix(1,0,0,0.998656,93.929719,0)"
       id="g1390"><path
         inkscape:connector-curvature="0"
         id="path1392"
         style="fill:none;stroke:#000000;stroke-width:0.61987197;stroke-linecap:square;stroke-linejoin:miter;stroke-miterlimit:10;stroke-dasharray:none;stroke-opacity:1"
         d="m 108.16,50.298 h 3.309" /></g><g
       id="g8245"
       transform="translate(0,0.12437892)"><g
         id="g1328"
         transform="matrix(1,0,0,0.998656,0,0.37313675)"><g
           id="g8234"><path
             inkscape:connector-curvature="0"
             id="path1330"
             style="fill:none;stroke:#000000;stroke-width:0.96424502;stroke-linecap:square;stroke-linejoin:miter;stroke-miterlimit:10;stroke-dasharray:none;stroke-opacity:1"
             d="m 47.277,103.127 h 13.36" /></g></g><g
         id="g1332"
         transform="matrix(1,0,0,0.998656,0,0.37313675)"><path
           d="m 60.637,103.127 h 0.347"
           style="fill:none;stroke:#000000;stroke-width:0.96424502;stroke-linecap:square;stroke-linejoin:miter;stroke-miterlimit:10;stroke-dasharray:none;stroke-opacity:1"
           id="path1334"
           inkscape:connector-curvature="0" /></g><g
         id="g1452"
         transform="matrix(1,0,0,0.998656,0,0.37313675)"><path
           d="m 61.395,99.477 v 6.818"
           style="fill:none;stroke:#000000;stroke-width:0.61987197;stroke-linecap:square;stroke-linejoin:miter;stroke-miterlimit:10;stroke-dasharray:none;stroke-opacity:1"
           id="path1454"
           inkscape:connector-curvature="0" /></g><g
         id="g1456"
         transform="matrix(1,0,0,0.998656,0,0.37313675)"><path
           d="m 46.656,99.681 v 6.822"
           style="fill:none;stroke:#000000;stroke-width:0.61987197;stroke-linecap:square;stroke-linejoin:miter;stroke-miterlimit:10;stroke-dasharray:none;stroke-opacity:1"
           id="path1458"
           inkscape:connector-curvature="0" /></g></g><g
       transform="scale(1,0.998656)"
       id="g1474"><path
         inkscape:connector-curvature="0"
         id="path1476"
         style="fill:none;stroke:#000000;stroke-width:0.61987197;stroke-linecap:square;stroke-linejoin:miter;stroke-miterlimit:10;stroke-dasharray:none;stroke-opacity:1"
         d="m 140.465,103.678 v -6.68" /></g><g
       id="g4040"
       ns1:jacobian_sqrt="1.200001"
       ns1:alignment="middle center"
       ns1:scale="0.9"
       ns1:preamble="/home/tim/.config/inkscape/extensions/textext/default_packages.tex"
       ns1:text="0"
       ns1:pdfconverter="pdf2svg"
       ns1:texconverter="pdflatex"
       ns1:version="0.9.1"
       transform="matrix(1.200001,0.000000,0.000000,1.200001,-165.153184,-54.392764)"><g
   id="surface1">
<g
   id="g4037"
   style="fill:rgb(0%,0%,0%);fill-opacity:1;">
  <path
   id="path4035"
   transform="translate(148.712,134.765)"
   d="M 4.578125 -3.1875 C 4.578125 -3.984375 4.53125 -4.78125 4.1875 -5.515625 C 3.734375 -6.484375 2.90625 -6.640625 2.5 -6.640625 C 1.890625 -6.640625 1.171875 -6.375 0.75 -5.453125 C 0.4375 -4.765625 0.390625 -3.984375 0.390625 -3.1875 C 0.390625 -2.4375 0.421875 -1.546875 0.84375 -0.78125 C 1.265625 0.015625 2 0.21875 2.484375 0.21875 C 3.015625 0.21875 3.78125 0.015625 4.21875 -0.9375 C 4.53125 -1.625 4.578125 -2.40625 4.578125 -3.1875 Z M 2.484375 0 C 2.09375 0 1.5 -0.25 1.328125 -1.203125 C 1.21875 -1.796875 1.21875 -2.71875 1.21875 -3.3125 C 1.21875 -3.953125 1.21875 -4.609375 1.296875 -5.140625 C 1.484375 -6.328125 2.234375 -6.421875 2.484375 -6.421875 C 2.8125 -6.421875 3.46875 -6.234375 3.65625 -5.25 C 3.765625 -4.6875 3.765625 -3.9375 3.765625 -3.3125 C 3.765625 -2.5625 3.765625 -1.890625 3.65625 -1.25 C 3.5 -0.296875 2.9375 0 2.484375 0 Z M 2.484375 0 "
   style="stroke:none;stroke-width:0" />
</g>
</g>
</g><g
       id="g4383"
       ns1:jacobian_sqrt="1.200001"
       ns1:alignment="middle center"
       ns1:scale="0.9"
       ns1:preamble="/home/tim/.config/inkscape/extensions/textext/default_packages.tex"
       ns1:text="20"
       ns1:pdfconverter="pdf2svg"
       ns1:texconverter="pdflatex"
       ns1:version="0.9.1"
       transform="matrix(1.200001,0.000000,0.000000,1.200001,-170.446416,-117.826012)"><g
   id="g4381">
<g
   id="g4379"
   style="fill:rgb(0%,0%,0%);fill-opacity:1;">
  <path
   id="path4375"
   transform="translate(148.712,134.765)"
   d="M 1.265625 -0.765625 L 2.328125 -1.796875 C 3.875 -3.171875 4.46875 -3.703125 4.46875 -4.703125 C 4.46875 -5.84375 3.578125 -6.640625 2.359375 -6.640625 C 1.234375 -6.640625 0.5 -5.71875 0.5 -4.828125 C 0.5 -4.28125 1 -4.28125 1.03125 -4.28125 C 1.203125 -4.28125 1.546875 -4.390625 1.546875 -4.8125 C 1.546875 -5.0625 1.359375 -5.328125 1.015625 -5.328125 C 0.9375 -5.328125 0.921875 -5.328125 0.890625 -5.3125 C 1.109375 -5.96875 1.65625 -6.328125 2.234375 -6.328125 C 3.140625 -6.328125 3.5625 -5.515625 3.5625 -4.703125 C 3.5625 -3.90625 3.078125 -3.125 2.515625 -2.5 L 0.609375 -0.375 C 0.5 -0.265625 0.5 -0.234375 0.5 0 L 4.203125 0 L 4.46875 -1.734375 L 4.234375 -1.734375 C 4.171875 -1.4375 4.109375 -1 4 -0.84375 C 3.9375 -0.765625 3.28125 -0.765625 3.0625 -0.765625 Z M 1.265625 -0.765625 "
   style="stroke:none;stroke-width:0" />
<path
   id="path4377"
   transform="translate(153.6933,134.765)"
   d="M 4.578125 -3.1875 C 4.578125 -3.984375 4.53125 -4.78125 4.1875 -5.515625 C 3.734375 -6.484375 2.90625 -6.640625 2.5 -6.640625 C 1.890625 -6.640625 1.171875 -6.375 0.75 -5.453125 C 0.4375 -4.765625 0.390625 -3.984375 0.390625 -3.1875 C 0.390625 -2.4375 0.421875 -1.546875 0.84375 -0.78125 C 1.265625 0.015625 2 0.21875 2.484375 0.21875 C 3.015625 0.21875 3.78125 0.015625 4.21875 -0.9375 C 4.53125 -1.625 4.578125 -2.40625 4.578125 -3.1875 Z M 2.484375 0 C 2.09375 0 1.5 -0.25 1.328125 -1.203125 C 1.21875 -1.796875 1.21875 -2.71875 1.21875 -3.3125 C 1.21875 -3.953125 1.21875 -4.609375 1.296875 -5.140625 C 1.484375 -6.328125 2.234375 -6.421875 2.484375 -6.421875 C 2.8125 -6.421875 3.46875 -6.234375 3.65625 -5.25 C 3.765625 -4.6875 3.765625 -3.9375 3.765625 -3.3125 C 3.765625 -2.5625 3.765625 -1.890625 3.65625 -1.25 C 3.5 -0.296875 2.9375 0 2.484375 0 Z M 2.484375 0 "
   style="stroke:none;stroke-width:0" />
</g>
</g>
</g><g
       id="g4736"
       ns1:jacobian_sqrt="1.200001"
       ns1:alignment="middle center"
       ns1:scale="0.9"
       ns1:preamble="/home/tim/.config/inkscape/extensions/textext/default_packages.tex"
       ns1:text="-20"
       ns1:pdfconverter="pdf2svg"
       ns1:texconverter="pdflatex"
       ns1:version="0.9.1"
       transform="matrix(1.200001,0,0,1.200001,-174.44319,8.791726)"><g
   id="g4734">
<g
   id="g4732"
   style="fill:#000000;fill-opacity:1">
  <path
   id="path4726"
   transform="translate(148.712,134.765)"
   d="M 2.75,-1.859375 V -2.4375 H 0.109375 v 0.578125 z m 0,0"
   style="stroke:none;stroke-width:0"
   inkscape:connector-curvature="0" />
<path
   id="path4728"
   transform="translate(152.03253,134.765)"
   d="m 1.265625,-0.765625 1.0625,-1.03125 c 1.546875,-1.375 2.140625,-1.90625 2.140625,-2.90625 0,-1.140625 -0.890625,-1.9375 -2.109375,-1.9375 -1.125,0 -1.859375,0.921875 -1.859375,1.8125 0,0.546875 0.5,0.546875 0.53125,0.546875 0.171875,0 0.515625,-0.109375 0.515625,-0.53125 0,-0.25 -0.1875,-0.515625 -0.53125,-0.515625 -0.078125,0 -0.09375,0 -0.125,0.015625 0.21875,-0.65625 0.765625,-1.015625 1.34375,-1.015625 0.90625,0 1.328125,0.8125 1.328125,1.625 C 3.5625,-3.90625 3.078125,-3.125 2.515625,-2.5 l -1.90625,2.125 C 0.5,-0.265625 0.5,-0.234375 0.5,0 H 4.203125 L 4.46875,-1.734375 H 4.234375 C 4.171875,-1.4375 4.109375,-1 4,-0.84375 3.9375,-0.765625 3.28125,-0.765625 3.0625,-0.765625 Z m 0,0"
   style="stroke:none;stroke-width:0"
   inkscape:connector-curvature="0" />
<path
   id="path4730"
   transform="translate(157.01383,134.765)"
   d="m 4.578125,-3.1875 c 0,-0.796875 -0.046875,-1.59375 -0.390625,-2.328125 -0.453125,-0.96875 -1.28125,-1.125 -1.6875,-1.125 -0.609375,0 -1.328125,0.265625 -1.75,1.1875 -0.3125,0.6875 -0.359375,1.46875 -0.359375,2.265625 0,0.75 0.03125,1.640625 0.453125,2.40625 0.421875,0.796875 1.15625,1 1.640625,1 0.53125,0 1.296875,-0.203125 1.734375,-1.15625 0.3125,-0.6875 0.359375,-1.46875 0.359375,-2.25 z M 2.484375,0 C 2.09375,0 1.5,-0.25 1.328125,-1.203125 1.21875,-1.796875 1.21875,-2.71875 1.21875,-3.3125 c 0,-0.640625 0,-1.296875 0.078125,-1.828125 0.1875,-1.1875 0.9375,-1.28125 1.1875,-1.28125 0.328125,0 0.984375,0.1875 1.171875,1.171875 0.109375,0.5625 0.109375,1.3125 0.109375,1.9375 0,0.75 0,1.421875 -0.109375,2.0625 C 3.5,-0.296875 2.9375,0 2.484375,0 Z m 0,0"
   style="stroke:none;stroke-width:0"
   inkscape:connector-curvature="0" />
</g>
</g>
</g><g
       transform="matrix(1.200001,0,0,1.200001,-115.92919,-39.115631)"
       ns1:version="0.9.1"
       ns1:texconverter="pdflatex"
       ns1:pdfconverter="pdf2svg"
       ns1:text="0"
       ns1:preamble="/home/tim/.config/inkscape/extensions/textext/default_packages.tex"
       ns1:scale="0.9"
       ns1:alignment="middle center"
       ns1:jacobian_sqrt="1.200001"
       id="g4810"><g
   id="g4808">
<g
   style="fill:#000000;fill-opacity:1"
   id="g4806">
  <path
   style="stroke:none;stroke-width:0"
   d="m 4.578125,-3.1875 c 0,-0.796875 -0.046875,-1.59375 -0.390625,-2.328125 -0.453125,-0.96875 -1.28125,-1.125 -1.6875,-1.125 -0.609375,0 -1.328125,0.265625 -1.75,1.1875 -0.3125,0.6875 -0.359375,1.46875 -0.359375,2.265625 0,0.75 0.03125,1.640625 0.453125,2.40625 0.421875,0.796875 1.15625,1 1.640625,1 0.53125,0 1.296875,-0.203125 1.734375,-1.15625 0.3125,-0.6875 0.359375,-1.46875 0.359375,-2.25 z M 2.484375,0 C 2.09375,0 1.5,-0.25 1.328125,-1.203125 1.21875,-1.796875 1.21875,-2.71875 1.21875,-3.3125 c 0,-0.640625 0,-1.296875 0.078125,-1.828125 0.1875,-1.1875 0.9375,-1.28125 1.1875,-1.28125 0.328125,0 0.984375,0.1875 1.171875,1.171875 0.109375,0.5625 0.109375,1.3125 0.109375,1.9375 0,0.75 0,1.421875 -0.109375,2.0625 C 3.5,-0.296875 2.9375,0 2.484375,0 Z m 0,0"
   transform="translate(148.712,134.765)"
   id="path4804"
   inkscape:connector-curvature="0" />
</g>
</g>
</g><g
       id="g5152"
       ns1:jacobian_sqrt="1.200001"
       inkscapeversion="0.92.4"
       ns1:alignment="middle center"
       ns1:scale="0.9"
       ns1:preamble="/home/tim/.config/inkscape/extensions/textext/default_packages.tex"
       ns1:text="10"
       ns1:pdfconverter="pdf2svg"
       ns1:texconverter="pdflatex"
       ns1:version="0.9.1"
       transform="matrix(1.200001,0,0,1.200001,-79.464946,-39.643326)"><g
   id="g5150">
<g
   id="g5148"
   style="fill:#000000;fill-opacity:1">
  <path
   id="path5144"
   transform="translate(148.712,134.765)"
   d="m 2.9375,-6.375 c 0,-0.25 0,-0.265625 -0.234375,-0.265625 C 2.078125,-6 1.203125,-6 0.890625,-6 v 0.3125 c 0.203125,0 0.78125,0 1.296875,-0.265625 v 5.171875 c 0,0.359375 -0.03125,0.46875 -0.921875,0.46875 h -0.3125 V 0 c 0.34375,-0.03125 1.203125,-0.03125 1.609375,-0.03125 0.390625,0 1.265625,0 1.609375,0.03125 v -0.3125 h -0.3125 c -0.90625,0 -0.921875,-0.109375 -0.921875,-0.46875 z m 0,0"
   style="stroke:none;stroke-width:0"
   inkscape:connector-curvature="0" />
<path
   id="path5146"
   transform="translate(153.6933,134.765)"
   d="m 4.578125,-3.1875 c 0,-0.796875 -0.046875,-1.59375 -0.390625,-2.328125 -0.453125,-0.96875 -1.28125,-1.125 -1.6875,-1.125 -0.609375,0 -1.328125,0.265625 -1.75,1.1875 -0.3125,0.6875 -0.359375,1.46875 -0.359375,2.265625 0,0.75 0.03125,1.640625 0.453125,2.40625 0.421875,0.796875 1.15625,1 1.640625,1 0.53125,0 1.296875,-0.203125 1.734375,-1.15625 0.3125,-0.6875 0.359375,-1.46875 0.359375,-2.25 z M 2.484375,0 C 2.09375,0 1.5,-0.25 1.328125,-1.203125 1.21875,-1.796875 1.21875,-2.71875 1.21875,-3.3125 c 0,-0.640625 0,-1.296875 0.078125,-1.828125 0.1875,-1.1875 0.9375,-1.28125 1.1875,-1.28125 0.328125,0 0.984375,0.1875 1.171875,1.171875 0.109375,0.5625 0.109375,1.3125 0.109375,1.9375 0,0.75 0,1.421875 -0.109375,2.0625 C 3.5,-0.296875 2.9375,0 2.484375,0 Z m 0,0"
   style="stroke:none;stroke-width:0"
   inkscape:connector-curvature="0" />
</g>
</g>
</g><g
       id="g5520"
       ns1:jacobian_sqrt="1.200001"
       inkscapeversion="0.92.4"
       ns1:alignment="middle center"
       ns1:scale="0.9"
       ns1:preamble="/home/tim/.config/inkscape/extensions/textext/default_packages.tex"
       ns1:text="15"
       ns1:pdfconverter="pdf2svg"
       ns1:texconverter="pdflatex"
       ns1:version="0.9.1"
       transform="matrix(1.200001,0,0,1.200001,-39.294497,-39.643326)"><g
   id="g5518">
<g
   id="g5516"
   style="fill:#000000;fill-opacity:1">
  <path
   id="path5512"
   transform="translate(148.712,134.765)"
   d="m 2.9375,-6.375 c 0,-0.25 0,-0.265625 -0.234375,-0.265625 C 2.078125,-6 1.203125,-6 0.890625,-6 v 0.3125 c 0.203125,0 0.78125,0 1.296875,-0.265625 v 5.171875 c 0,0.359375 -0.03125,0.46875 -0.921875,0.46875 h -0.3125 V 0 c 0.34375,-0.03125 1.203125,-0.03125 1.609375,-0.03125 0.390625,0 1.265625,0 1.609375,0.03125 v -0.3125 h -0.3125 c -0.90625,0 -0.921875,-0.109375 -0.921875,-0.46875 z m 0,0"
   style="stroke:none;stroke-width:0"
   inkscape:connector-curvature="0" />
<path
   id="path5514"
   transform="translate(153.6933,134.765)"
   d="m 4.46875,-2 c 0,-1.1875 -0.8125,-2.1875 -1.890625,-2.1875 -0.46875,0 -0.90625,0.15625 -1.265625,0.515625 V -5.625 c 0.203125,0.0625 0.53125,0.125 0.84375,0.125 1.234375,0 1.9375,-0.90625 1.9375,-1.03125 0,-0.0625 -0.03125,-0.109375 -0.109375,-0.109375 0,0 -0.03125,0 -0.078125,0.03125 C 3.703125,-6.515625 3.21875,-6.3125 2.546875,-6.3125 2.15625,-6.3125 1.6875,-6.390625 1.21875,-6.59375 1.140625,-6.625 1.125,-6.625 1.109375,-6.625 1,-6.625 1,-6.546875 1,-6.390625 V -3.4375 c 0,0.171875 0,0.25 0.140625,0.25 0.078125,0 0.09375,-0.015625 0.140625,-0.078125 C 1.390625,-3.421875 1.75,-3.96875 2.5625,-3.96875 c 0.515625,0 0.765625,0.453125 0.84375,0.640625 0.15625,0.375 0.1875,0.75 0.1875,1.25 0,0.359375 0,0.953125 -0.25,1.375 C 3.109375,-0.3125 2.734375,-0.0625 2.28125,-0.0625 c -0.71875,0 -1.296875,-0.53125 -1.46875,-1.109375 0.03125,0 0.0625,0.015625 0.171875,0.015625 0.328125,0 0.5,-0.25 0.5,-0.484375 0,-0.25 -0.171875,-0.5 -0.5,-0.5 C 0.84375,-2.140625 0.5,-2.0625 0.5,-1.609375 0.5,-0.75 1.1875,0.21875 2.296875,0.21875 3.453125,0.21875 4.46875,-0.734375 4.46875,-2 Z m 0,0"
   style="stroke:none;stroke-width:0"
   inkscape:connector-curvature="0" />
</g>
</g>
</g><g
       id="g5858"
       ns1:jacobian_sqrt="1.200001"
       inkscapeversion="0.92.4"
       ns1:alignment="middle center"
       ns1:scale="0.9"
       ns1:preamble="/home/tim/.config/inkscape/extensions/textext/default_packages.tex"
       ns1:text="20"
       ns1:pdfconverter="pdf2svg"
       ns1:texconverter="pdflatex"
       ns1:version="0.9.1"
       transform="matrix(1.200001,0,0,1.200001,0.451382,-39.643326)"><g
   id="g5856">
<g
   id="g5854"
   style="fill:#000000;fill-opacity:1">
  <path
   id="path5850"
   transform="translate(148.712,134.765)"
   d="m 1.265625,-0.765625 1.0625,-1.03125 c 1.546875,-1.375 2.140625,-1.90625 2.140625,-2.90625 0,-1.140625 -0.890625,-1.9375 -2.109375,-1.9375 -1.125,0 -1.859375,0.921875 -1.859375,1.8125 0,0.546875 0.5,0.546875 0.53125,0.546875 0.171875,0 0.515625,-0.109375 0.515625,-0.53125 0,-0.25 -0.1875,-0.515625 -0.53125,-0.515625 -0.078125,0 -0.09375,0 -0.125,0.015625 0.21875,-0.65625 0.765625,-1.015625 1.34375,-1.015625 0.90625,0 1.328125,0.8125 1.328125,1.625 C 3.5625,-3.90625 3.078125,-3.125 2.515625,-2.5 l -1.90625,2.125 C 0.5,-0.265625 0.5,-0.234375 0.5,0 H 4.203125 L 4.46875,-1.734375 H 4.234375 C 4.171875,-1.4375 4.109375,-1 4,-0.84375 3.9375,-0.765625 3.28125,-0.765625 3.0625,-0.765625 Z m 0,0"
   style="stroke:none;stroke-width:0"
   inkscape:connector-curvature="0" />
<path
   id="path5852"
   transform="translate(153.6933,134.765)"
   d="m 4.578125,-3.1875 c 0,-0.796875 -0.046875,-1.59375 -0.390625,-2.328125 -0.453125,-0.96875 -1.28125,-1.125 -1.6875,-1.125 -0.609375,0 -1.328125,0.265625 -1.75,1.1875 -0.3125,0.6875 -0.359375,1.46875 -0.359375,2.265625 0,0.75 0.03125,1.640625 0.453125,2.40625 0.421875,0.796875 1.15625,1 1.640625,1 0.53125,0 1.296875,-0.203125 1.734375,-1.15625 0.3125,-0.6875 0.359375,-1.46875 0.359375,-2.25 z M 2.484375,0 C 2.09375,0 1.5,-0.25 1.328125,-1.203125 1.21875,-1.796875 1.21875,-2.71875 1.21875,-3.3125 c 0,-0.640625 0,-1.296875 0.078125,-1.828125 0.1875,-1.1875 0.9375,-1.28125 1.1875,-1.28125 0.328125,0 0.984375,0.1875 1.171875,1.171875 0.109375,0.5625 0.109375,1.3125 0.109375,1.9375 0,0.75 0,1.421875 -0.109375,2.0625 C 3.5,-0.296875 2.9375,0 2.484375,0 Z m 0,0"
   style="stroke:none;stroke-width:0"
   inkscape:connector-curvature="0" />
</g>
</g>
</g><g
       id="g6196"
       ns1:jacobian_sqrt="1.200001"
       inkscapeversion="0.92.4"
       ns1:alignment="middle center"
       ns1:scale="0.9"
       ns1:preamble="/home/tim/.config/inkscape/extensions/textext/default_packages.tex"
       ns1:text="25"
       ns1:pdfconverter="pdf2svg"
       ns1:texconverter="pdflatex"
       ns1:version="0.9.1"
       transform="matrix(1.200001,0,0,1.200001,39.742339,-39.643326)"><g
   id="g6194">
<g
   id="g6192"
   style="fill:#000000;fill-opacity:1">
  <path
   id="path6188"
   transform="translate(148.712,134.765)"
   d="m 1.265625,-0.765625 1.0625,-1.03125 c 1.546875,-1.375 2.140625,-1.90625 2.140625,-2.90625 0,-1.140625 -0.890625,-1.9375 -2.109375,-1.9375 -1.125,0 -1.859375,0.921875 -1.859375,1.8125 0,0.546875 0.5,0.546875 0.53125,0.546875 0.171875,0 0.515625,-0.109375 0.515625,-0.53125 0,-0.25 -0.1875,-0.515625 -0.53125,-0.515625 -0.078125,0 -0.09375,0 -0.125,0.015625 0.21875,-0.65625 0.765625,-1.015625 1.34375,-1.015625 0.90625,0 1.328125,0.8125 1.328125,1.625 C 3.5625,-3.90625 3.078125,-3.125 2.515625,-2.5 l -1.90625,2.125 C 0.5,-0.265625 0.5,-0.234375 0.5,0 H 4.203125 L 4.46875,-1.734375 H 4.234375 C 4.171875,-1.4375 4.109375,-1 4,-0.84375 3.9375,-0.765625 3.28125,-0.765625 3.0625,-0.765625 Z m 0,0"
   style="stroke:none;stroke-width:0"
   inkscape:connector-curvature="0" />
<path
   id="path6190"
   transform="translate(153.6933,134.765)"
   d="m 4.46875,-2 c 0,-1.1875 -0.8125,-2.1875 -1.890625,-2.1875 -0.46875,0 -0.90625,0.15625 -1.265625,0.515625 V -5.625 c 0.203125,0.0625 0.53125,0.125 0.84375,0.125 1.234375,0 1.9375,-0.90625 1.9375,-1.03125 0,-0.0625 -0.03125,-0.109375 -0.109375,-0.109375 0,0 -0.03125,0 -0.078125,0.03125 C 3.703125,-6.515625 3.21875,-6.3125 2.546875,-6.3125 2.15625,-6.3125 1.6875,-6.390625 1.21875,-6.59375 1.140625,-6.625 1.125,-6.625 1.109375,-6.625 1,-6.625 1,-6.546875 1,-6.390625 V -3.4375 c 0,0.171875 0,0.25 0.140625,0.25 0.078125,0 0.09375,-0.015625 0.140625,-0.078125 C 1.390625,-3.421875 1.75,-3.96875 2.5625,-3.96875 c 0.515625,0 0.765625,0.453125 0.84375,0.640625 0.15625,0.375 0.1875,0.75 0.1875,1.25 0,0.359375 0,0.953125 -0.25,1.375 C 3.109375,-0.3125 2.734375,-0.0625 2.28125,-0.0625 c -0.71875,0 -1.296875,-0.53125 -1.46875,-1.109375 0.03125,0 0.0625,0.015625 0.171875,0.015625 0.328125,0 0.5,-0.25 0.5,-0.484375 0,-0.25 -0.171875,-0.5 -0.5,-0.5 C 0.84375,-2.140625 0.5,-2.0625 0.5,-1.609375 0.5,-0.75 1.1875,0.21875 2.296875,0.21875 3.453125,0.21875 4.46875,-0.734375 4.46875,-2 Z m 0,0"
   style="stroke:none;stroke-width:0"
   inkscape:connector-curvature="0" />
</g>
</g>
</g><g
       id="g7223"
       ns1:jacobian_sqrt="1.2"
       inkscapeversion="0.92.4"
       ns1:alignment="middle center"
       ns1:scale="0.9"
       ns1:preamble="/home/tim/.config/inkscape/extensions/textext/default_packages.tex"
       ns1:text="$\\omega [10^{15}]$ Hz"
       ns1:pdfconverter="pdf2svg"
       ns1:texconverter="pdflatex"
       ns1:version="0.9.1"
       transform="matrix(1.2,0,0,1.2,-5.7073454,-20.351204)"><g
   id="g7221">
<g
   id="g7195"
   style="fill:#000000;fill-opacity:1">
  <path
   id="path7193"
   transform="translate(148.712,134.765)"
   d="m 6.03125,-3.703125 c 0,-0.453125 -0.171875,-0.703125 -0.40625,-0.703125 -0.25,0 -0.515625,0.234375 -0.515625,0.46875 0,0.09375 0.046875,0.203125 0.140625,0.296875 0.171875,0.15625 0.359375,0.421875 0.359375,0.84375 0,0.390625 -0.203125,0.96875 -0.5,1.421875 C 4.8125,-0.953125 4.4375,-0.609375 3.96875,-0.609375 3.40625,-0.609375 3.09375,-0.96875 3,-1.5 c 0.109375,-0.265625 0.34375,-0.90625 0.34375,-1.1875 0,-0.109375 -0.046875,-0.21875 -0.1875,-0.21875 -0.078125,0 -0.1875,0.03125 -0.265625,0.171875 C 2.78125,-2.53125 2.65625,-1.890625 2.65625,-1.53125 2.328125,-1.0625 1.9375,-0.609375 1.3125,-0.609375 c -0.671875,0 -0.875,-0.59375 -0.875,-1.140625 0,-1.25 1.015625,-2.296875 1.015625,-2.421875 0,-0.109375 -0.078125,-0.1875 -0.1875,-0.1875 -0.125,0 -0.203125,0.125 -0.265625,0.21875 -0.5,0.734375 -0.875,1.921875 -0.875,2.828125 0,0.6875 0.21875,1.421875 1.046875,1.421875 0.703125,0 1.171875,-0.5 1.53125,-1.046875 0.09375,0.578125 0.484375,1.046875 1.09375,1.046875 0.78125,0 1.25,-0.609375 1.609375,-1.359375 0.25,-0.484375 0.625,-1.84375 0.625,-2.453125 z m 0,0"
   style="stroke:none;stroke-width:0"
   inkscape:connector-curvature="0" />
</g>
<g
   id="g7203"
   style="fill:#000000;fill-opacity:1">
  <path
   id="path7197"
   transform="translate(155.271,134.765)"
   d="M 2.546875,2.5 V 2.09375 h -0.96875 v -9.171875 h 0.96875 v -0.40625 h -1.375 V 2.5 Z m 0,0"
   style="stroke:none;stroke-width:0"
   inkscape:connector-curvature="0" />
<path
   id="path7199"
   transform="translate(158.03861,134.765)"
   d="m 2.9375,-6.375 c 0,-0.25 0,-0.265625 -0.234375,-0.265625 C 2.078125,-6 1.203125,-6 0.890625,-6 v 0.3125 c 0.203125,0 0.78125,0 1.296875,-0.265625 v 5.171875 c 0,0.359375 -0.03125,0.46875 -0.921875,0.46875 h -0.3125 V 0 c 0.34375,-0.03125 1.203125,-0.03125 1.609375,-0.03125 0.390625,0 1.265625,0 1.609375,0.03125 v -0.3125 h -0.3125 c -0.90625,0 -0.921875,-0.109375 -0.921875,-0.46875 z m 0,0"
   style="stroke:none;stroke-width:0"
   inkscape:connector-curvature="0" />
<path
   id="path7201"
   transform="translate(163.01991,134.765)"
   d="m 4.578125,-3.1875 c 0,-0.796875 -0.046875,-1.59375 -0.390625,-2.328125 -0.453125,-0.96875 -1.28125,-1.125 -1.6875,-1.125 -0.609375,0 -1.328125,0.265625 -1.75,1.1875 -0.3125,0.6875 -0.359375,1.46875 -0.359375,2.265625 0,0.75 0.03125,1.640625 0.453125,2.40625 0.421875,0.796875 1.15625,1 1.640625,1 0.53125,0 1.296875,-0.203125 1.734375,-1.15625 0.3125,-0.6875 0.359375,-1.46875 0.359375,-2.25 z M 2.484375,0 C 2.09375,0 1.5,-0.25 1.328125,-1.203125 1.21875,-1.796875 1.21875,-2.71875 1.21875,-3.3125 c 0,-0.640625 0,-1.296875 0.078125,-1.828125 0.1875,-1.1875 0.9375,-1.28125 1.1875,-1.28125 0.328125,0 0.984375,0.1875 1.171875,1.171875 0.109375,0.5625 0.109375,1.3125 0.109375,1.9375 0,0.75 0,1.421875 -0.109375,2.0625 C 3.5,-0.296875 2.9375,0 2.484375,0 Z m 0,0"
   style="stroke:none;stroke-width:0"
   inkscape:connector-curvature="0" />
</g>
<g
   id="g7209"
   style="fill:#000000;fill-opacity:1">
  <path
   id="path7205"
   transform="translate(168.001,131.149)"
   d="m 2.328125,-4.4375 c 0,-0.1875 0,-0.1875 -0.203125,-0.1875 -0.453125,0.4375 -1.078125,0.4375 -1.359375,0.4375 v 0.25 c 0.15625,0 0.625,0 1,-0.1875 v 3.546875 c 0,0.234375 0,0.328125 -0.6875,0.328125 H 0.8125 V 0 c 0.125,0 0.984375,-0.03125 1.234375,-0.03125 0.21875,0 1.09375,0.03125 1.25,0.03125 V -0.25 H 3.03125 c -0.703125,0 -0.703125,-0.09375 -0.703125,-0.328125 z m 0,0"
   style="stroke:none;stroke-width:0"
   inkscape:connector-curvature="0" />
<path
   id="path7207"
   transform="translate(171.97258,131.149)"
   d="m 1.078125,-3.890625 c 0.359375,0.09375 0.5625,0.09375 0.671875,0.09375 0.921875,0 1.46875,-0.625 1.46875,-0.734375 0,-0.078125 -0.046875,-0.09375 -0.078125,-0.09375 -0.015625,0 -0.03125,0 -0.0625,0.015625 -0.171875,0.0625 -0.53125,0.203125 -1.046875,0.203125 -0.203125,0 -0.5625,-0.015625 -1.015625,-0.1875 C 0.9375,-4.625 0.921875,-4.625 0.921875,-4.625 c -0.09375,0 -0.09375,0.078125 -0.09375,0.1875 v 2.046875 c 0,0.125 0,0.203125 0.109375,0.203125 0.0625,0 0.078125,0 0.140625,-0.09375 0.296875,-0.375 0.734375,-0.4375 0.96875,-0.4375 0.421875,0 0.609375,0.328125 0.640625,0.390625 0.125,0.234375 0.171875,0.5 0.171875,0.90625 0,0.203125 0,0.609375 -0.21875,0.921875 -0.171875,0.25 -0.46875,0.421875 -0.8125,0.421875 -0.453125,0 -0.921875,-0.25 -1.09375,-0.71875 0.265625,0.015625 0.40625,-0.15625 0.40625,-0.34375 0,-0.296875 -0.265625,-0.34375 -0.359375,-0.34375 0,0 -0.34375,0 -0.34375,0.375 0,0.625 0.578125,1.25 1.40625,1.25 0.890625,0 1.671875,-0.65625 1.671875,-1.546875 0,-0.78125 -0.59375,-1.5 -1.453125,-1.5 -0.3125,0 -0.671875,0.0625 -0.984375,0.328125 z m 0,0"
   style="stroke:none;stroke-width:0"
   inkscape:connector-curvature="0" />
</g>
<g
   id="g7213"
   style="fill:#000000;fill-opacity:1">
  <path
   id="path7211"
   transform="translate(176.442,134.765)"
   d="M 1.578125,-7.484375 H 0.21875 v 0.40625 H 1.1875 V 2.09375 H 0.21875 V 2.5 h 1.359375 z m 0,0"
   style="stroke:none;stroke-width:0"
   inkscape:connector-curvature="0" />
</g>
<g
   id="g7219"
   style="fill:#000000;fill-opacity:1">
  <path
   id="path7215"
   transform="translate(182.52716,134.765)"
   d="M 6.109375,-6.03125 C 6.109375,-6.390625 6.125,-6.5 6.890625,-6.5 h 0.25 v -0.3125 c -0.359375,0.03125 -1.09375,0.03125 -1.46875,0.03125 -0.375,0 -1.125,0 -1.46875,-0.03125 V -6.5 H 4.4375 c 0.765625,0 0.78125,0.109375 0.78125,0.46875 v 2.328125 H 2.25 V -6.03125 C 2.25,-6.390625 2.265625,-6.5 3.03125,-6.5 h 0.234375 v -0.3125 c -0.34375,0.03125 -1.078125,0.03125 -1.46875,0.03125 -0.375,0 -1.125,0 -1.46875,-0.03125 V -6.5 H 0.5625 c 0.765625,0 0.796875,0.109375 0.796875,0.46875 v 5.25 c 0,0.359375 -0.03125,0.46875 -0.796875,0.46875 H 0.328125 V 0 c 0.34375,-0.03125 1.09375,-0.03125 1.46875,-0.03125 0.375,0 1.125,0 1.46875,0.03125 V -0.3125 H 3.03125 C 2.265625,-0.3125 2.25,-0.421875 2.25,-0.78125 v -2.609375 h 2.96875 v 2.609375 c 0,0.359375 -0.015625,0.46875 -0.78125,0.46875 H 4.203125 V 0 c 0.34375,-0.03125 1.078125,-0.03125 1.453125,-0.03125 0.390625,0 1.125,0 1.484375,0.03125 v -0.3125 h -0.25 c -0.765625,0 -0.78125,-0.109375 -0.78125,-0.46875 z m 0,0"
   style="stroke:none;stroke-width:0"
   inkscape:connector-curvature="0" />
<path
   id="path7217"
   transform="translate(189.99911,134.765)"
   d="m 3.890625,-4 c 0.09375,-0.109375 0.09375,-0.125 0.09375,-0.171875 0,-0.125 -0.09375,-0.125 -0.265625,-0.125 H 0.53125 L 0.421875,-2.6875 h 0.25 c 0.0625,-1.015625 0.25,-1.390625 1.34375,-1.390625 H 3.15625 L 0.375,-0.3125 C 0.28125,-0.203125 0.28125,-0.1875 0.28125,-0.140625 0.28125,0 0.34375,0 0.53125,0 H 3.828125 L 4,-1.859375 H 3.75 C 3.65625,-0.6875 3.453125,-0.25 2.296875,-0.25 h -1.1875 z m 0,0"
   style="stroke:none;stroke-width:0"
   inkscape:connector-curvature="0" />
</g>
</g>
</g><g
       id="g7566"
       ns1:jacobian_sqrt="1.2"
       inkscapeversion="0.92.4"
       ns1:alignment="middle center"
       ns1:scale="0.9"
       ns1:preamble="/home/tim/.config/inkscape/extensions/textext/default_packages.tex"
       ns1:text="VIS"
       ns1:pdfconverter="pdf2svg"
       ns1:texconverter="pdflatex"
       ns1:version="0.9.1"
       transform="matrix(0.89565806,0,0,0.89565806,-86.278654,-6.0653816)"><g
   id="g7564">
<g
   id="g7562"
   style="fill:#000000;fill-opacity:1">
  <path
   id="path7556"
   transform="translate(148.712,134.765)"
   d="M 6.1875,-5.828125 C 6.328125,-6.203125 6.59375,-6.484375 7.28125,-6.5 v -0.3125 c -0.3125,0.03125 -0.71875,0.03125 -0.96875,0.03125 -0.296875,0 -0.875,-0.015625 -1.140625,-0.03125 V -6.5 C 5.6875,-6.484375 5.90625,-6.234375 5.90625,-6 c 0,0.078125 -0.03125,0.140625 -0.046875,0.203125 L 4.03125,-1 2.125,-6.03125 C 2.0625,-6.171875 2.0625,-6.1875 2.0625,-6.203125 2.0625,-6.5 2.625,-6.5 2.875,-6.5 v -0.3125 c -0.359375,0.03125 -1.046875,0.03125 -1.421875,0.03125 -0.46875,0 -0.90625,-0.015625 -1.265625,-0.03125 V -6.5 c 0.65625,0 0.84375,0 0.984375,0.375 L 3.484375,0 c 0.0625,0.1875 0.109375,0.21875 0.25,0.21875 0.15625,0 0.1875,-0.046875 0.234375,-0.1875 z m 0,0"
   style="stroke:none;stroke-width:0"
   inkscape:connector-curvature="0" />
<path
   id="path7558"
   transform="translate(156.18395,134.765)"
   d="M 2.25,-6.03125 C 2.25,-6.390625 2.265625,-6.5 3.0625,-6.5 h 0.25 v -0.3125 c -0.34375,0.03125 -1.125,0.03125 -1.515625,0.03125 -0.375,0 -1.171875,0 -1.515625,-0.03125 V -6.5 h 0.25 c 0.796875,0 0.828125,0.109375 0.828125,0.46875 v 5.25 c 0,0.359375 -0.03125,0.46875 -0.828125,0.46875 h -0.25 V 0 c 0.34375,-0.03125 1.140625,-0.03125 1.515625,-0.03125 0.390625,0 1.171875,0 1.515625,0.03125 v -0.3125 h -0.25 C 2.265625,-0.3125 2.25,-0.421875 2.25,-0.78125 Z m 0,0"
   style="stroke:none;stroke-width:0"
   inkscape:connector-curvature="0" />
<path
   id="path7560"
   transform="translate(159.78144,134.765)"
   d="m 3.484375,-3.875 -1.28125,-0.296875 c -0.625,-0.15625 -1,-0.6875 -1,-1.265625 0,-0.703125 0.53125,-1.3125 1.3125,-1.3125 1.65625,0 1.875,1.640625 1.9375,2.078125 0.015625,0.0625 0.015625,0.125 0.125,0.125 0.125,0 0.125,-0.046875 0.125,-0.234375 v -2 c 0,-0.171875 0,-0.25 -0.109375,-0.25 -0.0625,0 -0.078125,0.015625 -0.140625,0.140625 l -0.359375,0.5625 C 3.796875,-6.625 3.390625,-7.03125 2.5,-7.03125 c -1.109375,0 -1.9375,0.875 -1.9375,1.9375 0,0.828125 0.53125,1.5625 1.296875,1.828125 0.109375,0.03125 0.625,0.15625 1.328125,0.328125 0.265625,0.0625 0.5625,0.140625 0.84375,0.5 0.203125,0.265625 0.3125,0.59375 0.3125,0.921875 0,0.703125 -0.5,1.421875 -1.34375,1.421875 -0.28125,0 -1.046875,-0.046875 -1.578125,-0.53125 C 0.84375,-1.171875 0.8125,-1.796875 0.8125,-2.15625 0.796875,-2.265625 0.71875,-2.265625 0.6875,-2.265625 c -0.125,0 -0.125,0.078125 -0.125,0.25 v 2 c 0,0.171875 0,0.234375 0.109375,0.234375 0.0625,0 0.078125,-0.015625 0.140625,-0.125 0,-0.015625 0.03125,-0.046875 0.359375,-0.578125 0.3125,0.34375 0.953125,0.703125 1.84375,0.703125 1.15625,0 1.953125,-0.96875 1.953125,-2.078125 0,-0.984375 -0.65625,-1.8125 -1.484375,-2.015625 z m 0,0"
   style="stroke:none;stroke-width:0"
   inkscape:connector-curvature="0" />
</g>
</g>
</g><g
       id="g7884"
       ns1:jacobian_sqrt="1.2"
       inkscapeversion="0.92.4"
       ns1:alignment="middle center"
       ns1:scale="0.9"
       ns1:preamble="/home/tim/.config/inkscape/extensions/textext/default_packages.tex"
       ns1:text="$\\epsilon\'$"
       ns1:pdfconverter="pdf2svg"
       ns1:texconverter="pdflatex"
       ns1:version="0.9.1"
       transform="matrix(1.2,0,0,1.2,32.184957,-124.54467)"><g
   id="g7882">
<g
   id="g7876"
   style="fill:#000000;fill-opacity:1">
  <path
   id="path7874"
   transform="translate(148.712,134.765)"
   d="m 2.96875,-2.25 c 0.15625,0 0.34375,0 0.34375,-0.171875 C 3.3125,-2.5625 3.1875,-2.5625 3.015625,-2.5625 H 1.40625 c 0.234375,-0.84375 0.796875,-1.421875 1.703125,-1.421875 h 0.3125 c 0.171875,0 0.328125,0 0.328125,-0.171875 0,-0.140625 -0.125,-0.140625 -0.296875,-0.140625 H 3.09375 c -1.296875,0 -2.625,1 -2.625,2.515625 0,1.109375 0.75,1.890625 1.796875,1.890625 0.65625,0 1.296875,-0.40625 1.296875,-0.515625 0,-0.015625 0,-0.125 -0.09375,-0.125 -0.015625,0 -0.046875,0 -0.125,0.046875 -0.3125,0.203125 -0.6875,0.375 -1.046875,0.375 -0.578125,0 -1.078125,-0.421875 -1.078125,-1.296875 0,-0.34375 0.078125,-0.734375 0.109375,-0.84375 z m 0,0"
   style="stroke:none;stroke-width:0"
   inkscape:connector-curvature="0" />
</g>
<g
   id="g7880"
   style="fill:#000000;fill-opacity:1">
  <path
   id="path7878"
   transform="translate(152.756,131.149)"
   d="m 2.015625,-3.296875 c 0.0625,-0.109375 0.0625,-0.171875 0.0625,-0.21875 0,-0.21875 -0.1875,-0.375 -0.40625,-0.375 -0.265625,0 -0.34375,0.21875 -0.375,0.328125 L 0.375,-0.546875 c -0.015625,0.015625 -0.046875,0.09375 -0.046875,0.109375 0,0.078125 0.21875,0.15625 0.28125,0.15625 0.046875,0 0.046875,-0.015625 0.09375,-0.125 z m 0,0"
   style="stroke:none;stroke-width:0"
   inkscape:connector-curvature="0" />
</g>
</g>
</g><g
       id="g8222"
       ns1:jacobian_sqrt="1.2"
       inkscapeversion="0.92.4"
       ns1:alignment="middle center"
       ns1:scale="0.9"
       ns1:preamble="/home/tim/.config/inkscape/extensions/textext/default_packages.tex"
       ns1:text="$\\epsilon\'\'$"
       ns1:pdfconverter="pdf2svg"
       ns1:texconverter="pdflatex"
       ns1:version="0.9.1"
       transform="matrix(1.2,0,0,1.2,32.213842,-108.36202)"><g
   id="g8220">
<g
   id="g8212"
   style="fill:#000000;fill-opacity:1">
  <path
   id="path8210"
   transform="translate(148.712,134.765)"
   d="m 2.96875,-2.25 c 0.15625,0 0.34375,0 0.34375,-0.171875 C 3.3125,-2.5625 3.1875,-2.5625 3.015625,-2.5625 H 1.40625 c 0.234375,-0.84375 0.796875,-1.421875 1.703125,-1.421875 h 0.3125 c 0.171875,0 0.328125,0 0.328125,-0.171875 0,-0.140625 -0.125,-0.140625 -0.296875,-0.140625 H 3.09375 c -1.296875,0 -2.625,1 -2.625,2.515625 0,1.109375 0.75,1.890625 1.796875,1.890625 0.65625,0 1.296875,-0.40625 1.296875,-0.515625 0,-0.015625 0,-0.125 -0.09375,-0.125 -0.015625,0 -0.046875,0 -0.125,0.046875 -0.3125,0.203125 -0.6875,0.375 -1.046875,0.375 -0.578125,0 -1.078125,-0.421875 -1.078125,-1.296875 0,-0.34375 0.078125,-0.734375 0.109375,-0.84375 z m 0,0"
   style="stroke:none;stroke-width:0"
   inkscape:connector-curvature="0" />
</g>
<g
   id="g8218"
   style="fill:#000000;fill-opacity:1">
  <path
   id="path8214"
   transform="translate(152.756,131.149)"
   d="m 2.015625,-3.296875 c 0.0625,-0.109375 0.0625,-0.171875 0.0625,-0.21875 0,-0.21875 -0.1875,-0.375 -0.40625,-0.375 -0.265625,0 -0.34375,0.21875 -0.375,0.328125 L 0.375,-0.546875 c -0.015625,0.015625 -0.046875,0.09375 -0.046875,0.109375 0,0.078125 0.21875,0.15625 0.28125,0.15625 0.046875,0 0.046875,-0.015625 0.09375,-0.125 z m 0,0"
   style="stroke:none;stroke-width:0"
   inkscape:connector-curvature="0" />
<path
   id="path8216"
   transform="translate(155.05317,131.149)"
   d="m 2.015625,-3.296875 c 0.0625,-0.109375 0.0625,-0.171875 0.0625,-0.21875 0,-0.21875 -0.1875,-0.375 -0.40625,-0.375 -0.265625,0 -0.34375,0.21875 -0.375,0.328125 L 0.375,-0.546875 c -0.015625,0.015625 -0.046875,0.09375 -0.046875,0.109375 0,0.078125 0.21875,0.15625 0.28125,0.15625 0.046875,0 0.046875,-0.015625 0.09375,-0.125 z m 0,0"
   style="stroke:none;stroke-width:0"
   inkscape:connector-curvature="0" />
</g>
</g>
</g><g
       id="g8625"><g
         transform="matrix(1.2,0,0,1.2,-54.651524,-70.04437)"
         style="fill:#000000;fill-opacity:1"
         id="g8546">
  <path
   inkscape:connector-curvature="0"
   style="stroke:none;stroke-width:0"
   d="m 6.03125,-3.703125 c 0,-0.453125 -0.171875,-0.703125 -0.40625,-0.703125 -0.25,0 -0.515625,0.234375 -0.515625,0.46875 0,0.09375 0.046875,0.203125 0.140625,0.296875 0.171875,0.15625 0.359375,0.421875 0.359375,0.84375 0,0.390625 -0.203125,0.96875 -0.5,1.421875 C 4.8125,-0.953125 4.4375,-0.609375 3.96875,-0.609375 3.40625,-0.609375 3.09375,-0.96875 3,-1.5 c 0.109375,-0.265625 0.34375,-0.90625 0.34375,-1.1875 0,-0.109375 -0.046875,-0.21875 -0.1875,-0.21875 -0.078125,0 -0.1875,0.03125 -0.265625,0.171875 C 2.78125,-2.53125 2.65625,-1.890625 2.65625,-1.53125 2.328125,-1.0625 1.9375,-0.609375 1.3125,-0.609375 c -0.671875,0 -0.875,-0.59375 -0.875,-1.140625 0,-1.25 1.015625,-2.296875 1.015625,-2.421875 0,-0.109375 -0.078125,-0.1875 -0.1875,-0.1875 -0.125,0 -0.203125,0.125 -0.265625,0.21875 -0.5,0.734375 -0.875,1.921875 -0.875,2.828125 0,0.6875 0.21875,1.421875 1.046875,1.421875 0.703125,0 1.171875,-0.5 1.53125,-1.046875 0.09375,0.578125 0.484375,1.046875 1.09375,1.046875 0.78125,0 1.25,-0.609375 1.609375,-1.359375 0.25,-0.484375 0.625,-1.84375 0.625,-2.453125 z m 0,0"
   transform="translate(148.712,134.765)"
   id="path8544" />
</g><g
         transform="matrix(1.2,0,0,1.2,-54.651524,-70.04437)"
         style="fill:#000000;fill-opacity:1"
         id="g8550">
  <path
   inkscape:connector-curvature="0"
   style="stroke:none;stroke-width:0"
   d="M 3.515625,-1.265625 H 3.28125 c -0.015625,0.15625 -0.09375,0.5625 -0.1875,0.625 C 3.046875,-0.59375 2.515625,-0.59375 2.40625,-0.59375 H 1.125 c 0.734375,-0.640625 0.984375,-0.84375 1.390625,-1.171875 0.515625,-0.40625 1,-0.84375 1,-1.5 0,-0.84375 -0.734375,-1.359375 -1.625,-1.359375 -0.859375,0 -1.453125,0.609375 -1.453125,1.25 0,0.34375 0.296875,0.390625 0.375,0.390625 0.15625,0 0.359375,-0.125 0.359375,-0.375 0,-0.125 -0.046875,-0.375 -0.40625,-0.375 C 0.984375,-4.21875 1.453125,-4.375 1.78125,-4.375 c 0.703125,0 1.0625,0.546875 1.0625,1.109375 0,0.609375 -0.4375,1.078125 -0.65625,1.328125 L 0.515625,-0.265625 C 0.4375,-0.203125 0.4375,-0.1875 0.4375,0 h 2.875 z m 0,0"
   transform="translate(155.271,131.149)"
   id="path8548" />
</g><g
         transform="matrix(1.2,0,0,1.2,-54.651524,-70.04437)"
         style="fill:#000000;fill-opacity:1"
         id="g8554">
  <path
   inkscape:connector-curvature="0"
   style="stroke:none;stroke-width:0"
   d="m 1.9375,1.09375 c -0.453125,0 -0.515625,0 -0.515625,-0.296875 v -1.125 C 1.453125,-0.296875 1.78125,0.0625 2.359375,0.0625 3.28125,0.0625 4.0625,-0.625 4.0625,-1.5 c 0,-0.859375 -0.703125,-1.578125 -1.59375,-1.578125 -0.390625,0 -0.796875,0.15625 -1.078125,0.4375 v -0.4375 L 0.34375,-3 v 0.25 c 0.484375,0 0.515625,0.046875 0.515625,0.328125 v 3.21875 c 0,0.296875 -0.0625,0.296875 -0.515625,0.296875 v 0.265625 c 0.015625,0 0.5,-0.03125 0.796875,-0.03125 0.25,0 0.734375,0.015625 0.796875,0.03125 z M 1.421875,-2.328125 C 1.625,-2.671875 2.03125,-2.84375 2.390625,-2.84375 c 0.59375,0 1.046875,0.609375 1.046875,1.34375 0,0.796875 -0.53125,1.375 -1.109375,1.375 -0.625,0 -0.890625,-0.53125 -0.90625,-0.578125 z m 0,0"
   transform="translate(154.914,137.228)"
   id="path8552" />
</g><g
         transform="matrix(1.2,0,0,1.2,-57.139102,-70.04437)"
         style="fill:#000000;fill-opacity:1"
         id="g8558">
  <path
   inkscape:connector-curvature="0"
   style="stroke:none;stroke-width:0"
   d="m 6.5625,-2.296875 c 0.171875,0 0.359375,0 0.359375,-0.203125 0,-0.1875 -0.1875,-0.1875 -0.359375,-0.1875 H 1.171875 c -0.171875,0 -0.34375,0 -0.34375,0.1875 0,0.203125 0.171875,0.203125 0.34375,0.203125 z m 0,0"
   transform="translate(162.026,134.765)"
   id="path8556" />
</g><g
         transform="matrix(1.2,0,0,1.2,-58.631649,-70.04437)"
         style="fill:#000000;fill-opacity:1"
         id="g8562">
  <path
   inkscape:connector-curvature="0"
   style="stroke:none;stroke-width:0"
   d="M 0.40625,-2.53125 C 0.796875,-3.671875 1.890625,-3.6875 2,-3.6875 c 1.5,0 1.609375,1.75 1.609375,2.53125 0,0.609375 -0.046875,0.78125 -0.125,0.984375 -0.21875,0.71875 -0.515625,1.875 -0.515625,2.140625 0,0.109375 0.046875,0.171875 0.125,0.171875 0.140625,0 0.21875,-0.21875 0.328125,-0.59375 C 3.65625,0.703125 3.75,0.140625 3.78125,-0.171875 c 0.03125,-0.125 0.046875,-0.25 0.09375,-0.390625 0.3125,-0.984375 0.953125,-2.46875 1.34375,-3.25 0.078125,-0.125 0.1875,-0.34375 0.1875,-0.390625 0,-0.09375 -0.09375,-0.09375 -0.109375,-0.09375 -0.03125,0 -0.09375,0 -0.125,0.0625 C 4.65625,-3.28125 4.25,-2.28125 3.859375,-1.28125 3.84375,-1.578125 3.84375,-2.34375 3.453125,-3.3125 3.203125,-3.921875 2.8125,-4.40625 2.125,-4.40625 c -1.25,0 -1.953125,1.515625 -1.953125,1.828125 0,0.09375 0.09375,0.09375 0.203125,0.09375 z m 0,0"
   transform="translate(171.988,134.765)"
   id="path8560" />
</g><g
         transform="matrix(1.2,0,0,1.2,-58.631649,-70.04437)"
         style="fill:#000000;fill-opacity:1"
         id="g8566">
  <path
   inkscape:connector-curvature="0"
   style="stroke:none;stroke-width:0"
   d="M 3.515625,-1.265625 H 3.28125 c -0.015625,0.15625 -0.09375,0.5625 -0.1875,0.625 C 3.046875,-0.59375 2.515625,-0.59375 2.40625,-0.59375 H 1.125 c 0.734375,-0.640625 0.984375,-0.84375 1.390625,-1.171875 0.515625,-0.40625 1,-0.84375 1,-1.5 0,-0.84375 -0.734375,-1.359375 -1.625,-1.359375 -0.859375,0 -1.453125,0.609375 -1.453125,1.25 0,0.34375 0.296875,0.390625 0.375,0.390625 0.15625,0 0.359375,-0.125 0.359375,-0.375 0,-0.125 -0.046875,-0.375 -0.40625,-0.375 C 0.984375,-4.21875 1.453125,-4.375 1.78125,-4.375 c 0.703125,0 1.0625,0.546875 1.0625,1.109375 0,0.609375 -0.4375,1.078125 -0.65625,1.328125 L 0.515625,-0.265625 C 0.4375,-0.203125 0.4375,-0.1875 0.4375,0 h 2.875 z m 0,0"
   transform="translate(177.7,131.149)"
   id="path8564" />
</g></g></g></svg>