<?xml version="1.0" encoding="UTF-8" standalone="no"?>
<!-- Created with Inkscape (http://www.inkscape.org/) -->

<svg
   xmlns:ns1="http://www.iki.fi/pav/software/textext/"
   xmlns:dc="http://purl.org/dc/elements/1.1/"
   xmlns:cc="http://creativecommons.org/ns#"
   xmlns:rdf="http://www.w3.org/1999/02/22-rdf-syntax-ns#"
   xmlns:svg="http://www.w3.org/2000/svg"
   xmlns="http://www.w3.org/2000/svg"
   xmlns:sodipodi="http://sodipodi.sourceforge.net/DTD/sodipodi-0.dtd"
   xmlns:inkscape="http://www.inkscape.org/namespaces/inkscape"
   version="1.1"
   id="svg834"
   xml:space="preserve"
   width="40.340462"
   height="183.62695"
   viewBox="0 0 40.340462 183.62695"
   sodipodi:docname="bg_relu.svg"
   inkscape:version="0.92.4 5da689c313, 2019-01-14"><metadata
     id="metadata840"><rdf:RDF><cc:Work
         rdf:about=""><dc:format>image/svg+xml</dc:format><dc:type
           rdf:resource="http://purl.org/dc/dcmitype/StillImage" /><dc:title></dc:title></cc:Work></rdf:RDF></metadata><defs
     id="defs838"><clipPath
   clipPathUnits="userSpaceOnUse"
   id="clipPath854"><path
     d="M 54,36 H 388.8 V 253.44 H 54 Z"
     id="path852"
     inkscape:connector-curvature="0" /></clipPath><clipPath
   clipPathUnits="userSpaceOnUse"
   id="clipPath876"><path
     d="M -1021,-463 H 1794 V 1233 H -1021 Z"
     id="path874"
     inkscape:connector-curvature="0" /></clipPath><clipPath
   clipPathUnits="userSpaceOnUse"
   id="clipPath886"><path
     d="M 54,36 H 388.8 V 253.44 H 54 Z"
     id="path884"
     inkscape:connector-curvature="0" /></clipPath><clipPath
   clipPathUnits="userSpaceOnUse"
   id="clipPath908"><path
     d="M -1021,-463 H 1794 V 1233 H -1021 Z"
     id="path906"
     inkscape:connector-curvature="0" /></clipPath><clipPath
   clipPathUnits="userSpaceOnUse"
   id="clipPath918"><path
     d="M 54,36 H 388.8 V 253.44 H 54 Z"
     id="path916"
     inkscape:connector-curvature="0" /></clipPath><clipPath
   clipPathUnits="userSpaceOnUse"
   id="clipPath936"><path
     d="M 54,36 H 388.8 V 253.44 H 54 Z"
     id="path934"
     inkscape:connector-curvature="0" /></clipPath><clipPath
   clipPathUnits="userSpaceOnUse"
   id="clipPath954"><path
     d="M 54,36 H 388.8 V 253.44 H 54 Z"
     id="path952"
     inkscape:connector-curvature="0" /></clipPath><clipPath
   clipPathUnits="userSpaceOnUse"
   id="clipPath976"><path
     d="M 54,36 H 388.8 V 253.44 H 54 Z"
     id="path974"
     inkscape:connector-curvature="0" /></clipPath><clipPath
   clipPathUnits="userSpaceOnUse"
   id="clipPath994"><path
     d="M 54,36 H 388.8 V 253.44 H 54 Z"
     id="path992"
     inkscape:connector-curvature="0" /></clipPath><clipPath
   clipPathUnits="userSpaceOnUse"
   id="clipPath1012"><path
     d="M 54,36 H 388.8 V 253.44 H 54 Z"
     id="path1010"
     inkscape:connector-curvature="0" /></clipPath><clipPath
   clipPathUnits="userSpaceOnUse"
   id="clipPath1030"><path
     d="M 54,36 H 388.8 V 253.44 H 54 Z"
     id="path1028"
     inkscape:connector-curvature="0" /></clipPath><clipPath
   clipPathUnits="userSpaceOnUse"
   id="clipPath1048"><path
     d="M 54,36 H 388.8 V 253.44 H 54 Z"
     id="path1046"
     inkscape:connector-curvature="0" /></clipPath><clipPath
   clipPathUnits="userSpaceOnUse"
   id="clipPath1066"><path
     d="M 54,36 H 388.8 V 253.44 H 54 Z"
     id="path1064"
     inkscape:connector-curvature="0" /></clipPath><clipPath
   clipPathUnits="userSpaceOnUse"
   id="clipPath1088"><path
     d="M 54,36 H 388.8 V 253.44 H 54 Z"
     id="path1086"
     inkscape:connector-curvature="0" /></clipPath>



</defs><sodipodi:namedview
     pagecolor="#ffffff"
     bordercolor="#666666"
     borderopacity="1"
     objecttolerance="10"
     gridtolerance="10"
     guidetolerance="10"
     inkscape:pageopacity="0"
     inkscape:pageshadow="2"
     inkscape:window-width="1920"
     inkscape:window-height="1052"
     id="namedview836"
     showgrid="false"
     inkscape:zoom="10.712901"
     inkscape:cx="434.45022"
     inkscape:cy="-131.06392"
     inkscape:window-x="0"
     inkscape:window-y="28"
     inkscape:window-maximized="1"
     inkscape:current-layer="g842" /><g
     id="g842"
     inkscape:groupmode="layer"
     inkscape:label="bg_relu"
     transform="matrix(1.3333333,0,0,-1.3333333,-31.659537,329.39936)"><path
   d="M 8.7784292,1.3505276 H 440.77843 V 289.35053 H 8.7784292 Z"
   style="fill:#ffffff;fill-opacity:1;fill-rule:nonzero;stroke:none"
   id="path844"
   inkscape:connector-curvature="0" /><path
   d="M 54,36 H 388.8 V 253.44 H 54 Z"
   style="fill:#ffffff;fill-opacity:1;fill-rule:nonzero;stroke:none"
   id="path846"
   inkscape:connector-curvature="0" /><g
   id="g848"><g
     id="g850"
     clip-path="url(#clipPath854)"><path
       d="M 99.654545,36 V 253.44"
       style="fill:none;stroke:#b0b0b0;stroke-width:0.5;stroke-linecap:butt;stroke-linejoin:round;stroke-miterlimit:10;stroke-dasharray:1.85, 0.8;stroke-dashoffset:0;stroke-opacity:1"
       id="path856"
       inkscape:connector-curvature="0" /></g></g><g
   id="g858"><path
     d="M 99.654545,36 V 32.5"
     style="fill:#000000;fill-opacity:1;fill-rule:nonzero;stroke:#000000;stroke-width:0.80000001;stroke-linecap:butt;stroke-linejoin:round;stroke-miterlimit:10;stroke-dasharray:none;stroke-opacity:1"
     id="path860"
     inkscape:connector-curvature="0" /><g
     id="g862"
     transform="translate(92.287358,21.40625)"><text
   transform="matrix(1,0,0,-1,8.3789063,0)"
   style="font-variant:normal;font-weight:normal;font-size:10px;font-family:'DejaVu Sans';-inkscape-font-specification:DejaVuSans;writing-mode:lr-tb;fill:#000000;fill-opacity:1;fill-rule:nonzero;stroke:none"
   id="text866"><tspan
     x="0"
     y="0"
     id="tspan864">4</tspan></text>























<g
   id="g868"
   transform="scale(0.01)"><g
     id="g870"><g
       id="g872"
       clip-path="url(#clipPath876)"><path
         d="M 106,355 H 732 V 272 H 106 v 83"
         style="fill:#000000;fill-opacity:1;fill-rule:nonzero;stroke:none"
         id="path878"
         inkscape:connector-curvature="0" /></g></g></g></g></g><g
   id="g880"><g
     id="g882"
     clip-path="url(#clipPath886)"><path
       d="M 160.52727,36 V 253.44"
       style="fill:none;stroke:#b0b0b0;stroke-width:0.5;stroke-linecap:butt;stroke-linejoin:round;stroke-miterlimit:10;stroke-dasharray:1.85, 0.8;stroke-dashoffset:0;stroke-opacity:1"
       id="path888"
       inkscape:connector-curvature="0" /></g></g><g
   id="g890"><path
     d="M 160.52727,36 V 32.5"
     style="fill:#000000;fill-opacity:1;fill-rule:nonzero;stroke:#000000;stroke-width:0.80000001;stroke-linecap:butt;stroke-linejoin:round;stroke-miterlimit:10;stroke-dasharray:none;stroke-opacity:1"
     id="path892"
     inkscape:connector-curvature="0" /><g
     id="g894"
     transform="translate(153.16009,21.40625)"><text
   transform="matrix(1,0,0,-1,8.3789063,0)"
   style="font-variant:normal;font-weight:normal;font-size:10px;font-family:'DejaVu Sans';-inkscape-font-specification:DejaVuSans;writing-mode:lr-tb;fill:#000000;fill-opacity:1;fill-rule:nonzero;stroke:none"
   id="text898"><tspan
     x="0"
     y="0"
     id="tspan896">2</tspan></text>























<g
   id="g900"
   transform="scale(0.01)"><g
     id="g902"><g
       id="g904"
       clip-path="url(#clipPath908)"><path
         d="M 106,355 H 732 V 272 H 106 v 83"
         style="fill:#000000;fill-opacity:1;fill-rule:nonzero;stroke:none"
         id="path910"
         inkscape:connector-curvature="0" /></g></g></g></g></g><g
   id="g912"><g
     id="g914"
     clip-path="url(#clipPath918)"><path
       d="M 221.4,36 V 253.44"
       style="fill:none;stroke:#b0b0b0;stroke-width:0.5;stroke-linecap:butt;stroke-linejoin:round;stroke-miterlimit:10;stroke-dasharray:1.85, 0.8;stroke-dashoffset:0;stroke-opacity:1"
       id="path920"
       inkscape:connector-curvature="0" /></g></g><g
   id="g922"><path
   d="M 221.4,36 V 32.5"
   style="fill:#000000;fill-opacity:1;fill-rule:nonzero;stroke:#000000;stroke-width:0.80000001;stroke-linecap:butt;stroke-linejoin:round;stroke-miterlimit:10;stroke-dasharray:none;stroke-opacity:1"
   id="path924"
   inkscape:connector-curvature="0" /><text
   transform="matrix(1,0,0,-1,218.22031,21.40625)"
   style="font-variant:normal;font-weight:normal;font-size:10px;font-family:'DejaVu Sans';-inkscape-font-specification:DejaVuSans;writing-mode:lr-tb;fill:#000000;fill-opacity:1;fill-rule:nonzero;stroke:none"
   id="text928"><tspan
     x="0"
     y="0"
     id="tspan926">0</tspan></text>























</g><g
   id="g930"><g
     id="g932"
     clip-path="url(#clipPath936)"><path
       d="M 282.27273,36 V 253.44"
       style="fill:none;stroke:#b0b0b0;stroke-width:0.5;stroke-linecap:butt;stroke-linejoin:round;stroke-miterlimit:10;stroke-dasharray:1.85, 0.8;stroke-dashoffset:0;stroke-opacity:1"
       id="path938"
       inkscape:connector-curvature="0" /></g></g><g
   id="g940"><path
   d="M 282.27273,36 V 32.5"
   style="fill:#000000;fill-opacity:1;fill-rule:nonzero;stroke:#000000;stroke-width:0.80000001;stroke-linecap:butt;stroke-linejoin:round;stroke-miterlimit:10;stroke-dasharray:none;stroke-opacity:1"
   id="path942"
   inkscape:connector-curvature="0" /><text
   transform="matrix(1,0,0,-1,279.09304,21.40625)"
   style="font-variant:normal;font-weight:normal;font-size:10px;font-family:'DejaVu Sans';-inkscape-font-specification:DejaVuSans;writing-mode:lr-tb;fill:#000000;fill-opacity:1;fill-rule:nonzero;stroke:none"
   id="text946"><tspan
     x="0"
     y="0"
     id="tspan944">2</tspan></text>























</g><g
   id="g948"><g
     id="g950"
     clip-path="url(#clipPath954)"><path
       d="M 343.14546,36 V 253.44"
       style="fill:none;stroke:#b0b0b0;stroke-width:0.5;stroke-linecap:butt;stroke-linejoin:round;stroke-miterlimit:10;stroke-dasharray:1.85, 0.8;stroke-dashoffset:0;stroke-opacity:1"
       id="path956"
       inkscape:connector-curvature="0" /></g></g><g
   id="g970"><g
     id="g972"
     clip-path="url(#clipPath976)"><path
       d="M 54,45.883636 H 388.8"
       style="fill:none;stroke:#b0b0b0;stroke-width:0.5;stroke-linecap:butt;stroke-linejoin:round;stroke-miterlimit:10;stroke-dasharray:1.85, 0.8;stroke-dashoffset:0;stroke-opacity:1"
       id="path978"
       inkscape:connector-curvature="0" /></g></g><g
   id="g980"><path
   d="M 54,45.883636 H 50.5"
   style="fill:#000000;fill-opacity:1;fill-rule:nonzero;stroke:#000000;stroke-width:0.80000001;stroke-linecap:butt;stroke-linejoin:round;stroke-miterlimit:10;stroke-dasharray:none;stroke-opacity:1"
   id="path982"
   inkscape:connector-curvature="0" /><text
   transform="matrix(1,0,0,-1,40.640625,42.086761)"
   style="font-variant:normal;font-weight:normal;font-size:10px;font-family:'DejaVu Sans';-inkscape-font-specification:DejaVuSans;writing-mode:lr-tb;fill:#000000;fill-opacity:1;fill-rule:nonzero;stroke:none"
   id="text986"><tspan
     x="0"
     y="0"
     id="tspan984">0</tspan></text>























</g><g
   id="g988"><g
     id="g990"
     clip-path="url(#clipPath994)"><path
       d="M 54,85.418182 H 388.8"
       style="fill:none;stroke:#b0b0b0;stroke-width:0.5;stroke-linecap:butt;stroke-linejoin:round;stroke-miterlimit:10;stroke-dasharray:1.85, 0.8;stroke-dashoffset:0;stroke-opacity:1"
       id="path996"
       inkscape:connector-curvature="0" /></g></g><g
   id="g998"><path
   d="M 54,85.418182 H 50.5"
   style="fill:#000000;fill-opacity:1;fill-rule:nonzero;stroke:#000000;stroke-width:0.80000001;stroke-linecap:butt;stroke-linejoin:round;stroke-miterlimit:10;stroke-dasharray:none;stroke-opacity:1"
   id="path1000"
   inkscape:connector-curvature="0" /><text
   transform="matrix(1,0,0,-1,40.640625,81.621307)"
   style="font-variant:normal;font-weight:normal;font-size:10px;font-family:'DejaVu Sans';-inkscape-font-specification:DejaVuSans;writing-mode:lr-tb;fill:#000000;fill-opacity:1;fill-rule:nonzero;stroke:none"
   id="text1004"><tspan
     x="0"
     y="0"
     id="tspan1002">1</tspan></text>























</g><g
   id="g1006"><g
     id="g1008"
     clip-path="url(#clipPath1012)"><path
       d="M 54,124.95273 H 388.8"
       style="fill:none;stroke:#b0b0b0;stroke-width:0.5;stroke-linecap:butt;stroke-linejoin:round;stroke-miterlimit:10;stroke-dasharray:1.85, 0.8;stroke-dashoffset:0;stroke-opacity:1"
       id="path1014"
       inkscape:connector-curvature="0" /></g></g><g
   id="g1016"><path
   d="M 54,124.95273 H 50.5"
   style="fill:#000000;fill-opacity:1;fill-rule:nonzero;stroke:#000000;stroke-width:0.80000001;stroke-linecap:butt;stroke-linejoin:round;stroke-miterlimit:10;stroke-dasharray:none;stroke-opacity:1"
   id="path1018"
   inkscape:connector-curvature="0" /><text
   transform="matrix(1,0,0,-1,40.640625,121.15585)"
   style="font-variant:normal;font-weight:normal;font-size:10px;font-family:'DejaVu Sans';-inkscape-font-specification:DejaVuSans;writing-mode:lr-tb;fill:#000000;fill-opacity:1;fill-rule:nonzero;stroke:none"
   id="text1022"><tspan
     x="0"
     y="0"
     id="tspan1020">2</tspan></text>























</g><g
   id="g1024"><g
     id="g1026"
     clip-path="url(#clipPath1030)"><path
       d="M 54,164.48727 H 388.8"
       style="fill:none;stroke:#b0b0b0;stroke-width:0.5;stroke-linecap:butt;stroke-linejoin:round;stroke-miterlimit:10;stroke-dasharray:1.85, 0.8;stroke-dashoffset:0;stroke-opacity:1"
       id="path1032"
       inkscape:connector-curvature="0" /></g></g><g
   id="g1034"><path
   d="M 54,164.48727 H 50.5"
   style="fill:#000000;fill-opacity:1;fill-rule:nonzero;stroke:#000000;stroke-width:0.80000001;stroke-linecap:butt;stroke-linejoin:round;stroke-miterlimit:10;stroke-dasharray:none;stroke-opacity:1"
   id="path1036"
   inkscape:connector-curvature="0" /><text
   transform="matrix(1,0,0,-1,40.640625,160.6904)"
   style="font-variant:normal;font-weight:normal;font-size:10px;font-family:'DejaVu Sans';-inkscape-font-specification:DejaVuSans;writing-mode:lr-tb;fill:#000000;fill-opacity:1;fill-rule:nonzero;stroke:none"
   id="text1040"><tspan
     x="0"
     y="0"
     id="tspan1038">3</tspan></text>























</g><g
   id="g1042"><g
     id="g1044"
     clip-path="url(#clipPath1048)"><path
       d="M 54,204.02182 H 388.8"
       style="fill:none;stroke:#b0b0b0;stroke-width:0.5;stroke-linecap:butt;stroke-linejoin:round;stroke-miterlimit:10;stroke-dasharray:1.85, 0.8;stroke-dashoffset:0;stroke-opacity:1"
       id="path1050"
       inkscape:connector-curvature="0" /></g></g><g
   id="g1052"><path
   d="M 54,204.02182 H 50.5"
   style="fill:#000000;fill-opacity:1;fill-rule:nonzero;stroke:#000000;stroke-width:0.80000001;stroke-linecap:butt;stroke-linejoin:round;stroke-miterlimit:10;stroke-dasharray:none;stroke-opacity:1"
   id="path1054"
   inkscape:connector-curvature="0" /><text
   transform="matrix(1,0,0,-1,40.640625,200.22494)"
   style="font-variant:normal;font-weight:normal;font-size:10px;font-family:'DejaVu Sans';-inkscape-font-specification:DejaVuSans;writing-mode:lr-tb;fill:#000000;fill-opacity:1;fill-rule:nonzero;stroke:none"
   id="text1058"><tspan
     x="0"
     y="0"
     id="tspan1056">4</tspan></text>























</g><g
   id="g1060"><g
     id="g1062"
     clip-path="url(#clipPath1066)"><path
       d="M 54,243.55636 H 388.8"
       style="fill:none;stroke:#b0b0b0;stroke-width:0.5;stroke-linecap:butt;stroke-linejoin:round;stroke-miterlimit:10;stroke-dasharray:1.85, 0.8;stroke-dashoffset:0;stroke-opacity:1"
       id="path1068"
       inkscape:connector-curvature="0" /></g></g><path
   inkscape:connector-curvature="0"
   id="path1072"
   style="fill:#000000;fill-opacity:1;fill-rule:nonzero;stroke:#000000;stroke-width:0.80000001;stroke-linecap:butt;stroke-linejoin:round;stroke-miterlimit:10;stroke-dasharray:none;stroke-opacity:1"
   d="M 54,243.55636 H 50.5" /><text
   id="text1076"
   style="font-variant:normal;font-weight:normal;font-size:10px;font-family:'DejaVu Sans';-inkscape-font-specification:DejaVuSans;writing-mode:lr-tb;fill:#000000;fill-opacity:1;fill-rule:nonzero;stroke:none"
   transform="scale(1,-1)"
   x="40.640625"
   y="-239.75949"><tspan
     id="tspan1074"
     y="-239.75949"
     x="40.640625">5</tspan></text>





















<g
   id="g1082"><g
     id="g1084"
     clip-path="url(#clipPath1088)"><path
       d="m 69.218182,45.883636 h 3.07438 3.07438 3.07438 3.07438 3.074381 3.07438 3.07438 3.07438 3.07438 3.07438 3.074377 3.07438 3.07438 3.07438 3.07438 3.07438 3.07439 3.07438 3.07438 3.07437 3.07438 3.07438 3.07439 3.07438 3.07438 3.07438 3.07438 3.07438 3.07438 3.07438 3.07438 3.07438 3.07438 3.07438 3.07438 3.07438 3.07438 3.07438 3.07438 3.07438 3.07438 3.07438 3.07438 3.07438 3.07438 3.07438 3.07438 3.07438 3.07438 l 3.07438,1.996695 3.07438,3.993388 3.07438,3.993388 3.07438,3.993389 3.07438,3.993388 3.07438,3.993389 3.07438,3.993388 3.07438,3.993389 3.07438,3.993388 3.07438,3.993388 3.07438,3.993389 3.07438,3.993388 3.07438,3.993389 3.07438,3.993388 3.07438,3.99339 3.07438,3.99339 3.07438,3.99339 3.07438,3.99338 3.07438,3.99339 3.07438,3.99339 3.07438,3.99339 3.07438,3.99339 3.07438,3.99339 3.07438,3.99338 3.07438,3.99339 3.07438,3.99339 3.07438,3.99339 3.07438,3.99339 3.07438,3.99339 3.07438,3.99338 3.07438,3.99339 3.07438,3.99339 3.07438,3.99339 3.07439,3.99339 3.07438,3.99339 3.07438,3.99339 3.07438,3.99338 3.07438,3.99339 3.07438,3.99339 3.07438,3.99339 3.07438,3.99339 3.07438,3.99339 3.07438,3.99338 3.07438,3.99339 3.07438,3.99339 3.07438,3.99339 3.07438,3.99339 3.07438,3.99339 3.07438,3.99338 3.07438,3.99339"
       style="fill:none;stroke:#000000;stroke-width:0.69999999;stroke-linecap:square;stroke-linejoin:round;stroke-miterlimit:10;stroke-dasharray:none;stroke-opacity:1"
       id="path1090"
       inkscape:connector-curvature="0" /></g></g><g
   id="g1092"><path
     d="M 54,36 V 253.44"
     style="fill:none;stroke:#000000;stroke-width:0.80000001;stroke-linecap:square;stroke-linejoin:miter;stroke-miterlimit:10;stroke-dasharray:none;stroke-opacity:1"
     id="path1094"
     inkscape:connector-curvature="0" /><path
     d="M 388.8,36 V 253.44"
     style="fill:none;stroke:#000000;stroke-width:0.80000001;stroke-linecap:square;stroke-linejoin:miter;stroke-miterlimit:10;stroke-dasharray:none;stroke-opacity:1"
     id="path1096"
     inkscape:connector-curvature="0" /><path
     d="M 54,36 H 388.8"
     style="fill:none;stroke:#000000;stroke-width:0.80000001;stroke-linecap:square;stroke-linejoin:miter;stroke-miterlimit:10;stroke-dasharray:none;stroke-opacity:1"
     id="path1098"
     inkscape:connector-curvature="0" /><path
     d="M 54,253.44 H 388.8"
     style="fill:none;stroke:#000000;stroke-width:0.80000001;stroke-linecap:square;stroke-linejoin:miter;stroke-miterlimit:10;stroke-dasharray:none;stroke-opacity:1"
     id="path1100"
     inkscape:connector-curvature="0" /></g><g
   id="g2052"
   ns1:jacobian_sqrt="1.269333"
   ns1:alignment="middle center"
   ns1:scale="0.952"
   ns1:preamble="/home/tim/.config/inkscape/extensions/textext/default_packages.tex"
   ns1:text="$\\overbrace{\\qquad \\qquad \\qquad \\qquad \\qquad}$"
   ns1:pdfconverter="pdf2svg"
   ns1:texconverter="pdflatex"
   ns1:version="0.9.1"
   transform="matrix(-1.5952614,0,0,-1.5189382,617.88705,465.96452)"><g
   id="g2050">
<g
   id="g2034"
   style="fill:#000000;fill-opacity:1">
  <path
   id="path2032"
   transform="translate(148.712,131.776)"
   d="m 4.578125,-0.921875 c 0,-0.265625 0,-0.28125 -0.203125,-0.28125 -1.015625,0 -3.265625,0.484375 -4.609375,2.921875 V 1.875 c 0,0.25 0,0.265625 0.234375,0.265625 0.1875,0 0.203125,-0.015625 0.25,-0.09375 C 1.0625,0.75 2.4375,0.046875 4.46875,0 4.578125,0 4.578125,-0.0625 4.578125,-0.28125 Z m 0,0"
   style="stroke:none;stroke-width:0"
   inkscape:connector-curvature="0" />
</g>
<path
   id="path2036"
   d="m 153.19531,131.77734 h 40.84766 v -1.19531 h -40.84766 z m 0,0"
   style="fill:#000000;fill-opacity:1;fill-rule:nonzero;stroke:none;stroke-width:0"
   inkscape:connector-curvature="0" />
<g
   id="g2042"
   style="fill:#000000;fill-opacity:1">
  <path
   id="path2038"
   transform="translate(194.042,131.776)"
   d="m 4.71875,-3.078125 c 0,-0.234375 0,-0.25 -0.234375,-0.25 -0.1875,0 -0.203125,0.015625 -0.25,0.078125 -0.8125,1.3125 -2.1875,2.015625 -4.21875,2.046875 -0.109375,0 -0.109375,0.078125 -0.109375,0.28125 v 0.640625 c 0,0.265625 0,0.28125 0.203125,0.28125 C 1.125,0 3.375,-0.484375 4.71875,-2.90625 Z m 0,0"
   style="stroke:none;stroke-width:0"
   inkscape:connector-curvature="0" />
<path
   id="path2040"
   transform="translate(198.52517,131.776)"
   d="m 4.578125,-0.921875 c 0,-0.21875 0,-0.28125 -0.125,-0.28125 -0.609375,0 -1.609375,-0.078125 -2.5,-0.515625 C 0.875,-2.265625 0.46875,-2.890625 0.21875,-3.28125 0.1875,-3.328125 0.125,-3.328125 0,-3.328125 c -0.234375,0 -0.234375,0.015625 -0.234375,0.25 V -2.90625 C 1.109375,-0.46875 3.359375,0 4.375,0 4.578125,0 4.578125,-0.015625 4.578125,-0.28125 Z m 0,0"
   style="stroke:none;stroke-width:0"
   inkscape:connector-curvature="0" />
</g>
<path
   id="path2044"
   d="m 203.00781,131.77734 h 40.84766 v -1.19531 h -40.84766 z m 0,0"
   style="fill:#000000;fill-opacity:1;fill-rule:nonzero;stroke:none;stroke-width:0"
   inkscape:connector-curvature="0" />
<g
   id="g2048"
   style="fill:#000000;fill-opacity:1">
  <path
   id="path2046"
   transform="translate(243.856,131.776)"
   d="M 4.71875,1.71875 C 3.375,-0.734375 1.125,-1.203125 0.109375,-1.203125 c -0.203125,0 -0.203125,0.015625 -0.203125,0.28125 v 0.640625 c 0,0.234375 0,0.28125 0.140625,0.28125 0.59375,0.015625 1.59375,0.09375 2.484375,0.53125 1.078125,0.53125 1.484375,1.15625 1.734375,1.546875 0.03125,0.0625 0.09375,0.0625 0.21875,0.0625 C 4.71875,2.140625 4.71875,2.125 4.71875,1.875 Z m 0,0"
   style="stroke:none;stroke-width:0"
   inkscape:connector-curvature="0" />
</g>
</g>
</g><g
   id="g3772"
   ns1:jacobian_sqrt="1.600002"
   inkscapeversion="0.92.4"
   ns1:alignment="middle center"
   ns1:scale="1.2"
   ns1:preamble="/home/tim/.config/inkscape/extensions/textext/default_packages.tex"
   ns1:text="Activation"
   ns1:pdfconverter="pdf2svg"
   ns1:texconverter="pdflatex"
   ns1:version="0.9.1"
   transform="matrix(0.000000,1.600002,1.600002,0.000000,-185.183338,-126.420870)"><g
   id="surface1">
<g
   id="g3757"
   style="fill:rgb(0%,0%,0%);fill-opacity:1;">
  <path
   id="path3747"
   transform="translate(148.712,134.765)"
   d="M 3.96875 -6.9375 C 3.921875 -7.0625 3.890625 -7.140625 3.734375 -7.140625 C 3.578125 -7.140625 3.546875 -7.078125 3.5 -6.9375 L 1.4375 -0.984375 C 1.25 -0.46875 0.859375 -0.3125 0.3125 -0.3125 L 0.3125 0 C 0.546875 -0.015625 0.984375 -0.03125 1.328125 -0.03125 C 1.640625 -0.03125 2.15625 -0.015625 2.484375 0 L 2.484375 -0.3125 C 1.984375 -0.3125 1.734375 -0.5625 1.734375 -0.8125 C 1.734375 -0.84375 1.75 -0.953125 1.75 -0.96875 L 2.21875 -2.265625 L 4.671875 -2.265625 L 5.203125 -0.75 C 5.21875 -0.703125 5.234375 -0.640625 5.234375 -0.609375 C 5.234375 -0.3125 4.671875 -0.3125 4.40625 -0.3125 L 4.40625 0 C 4.765625 -0.03125 5.46875 -0.03125 5.84375 -0.03125 C 6.265625 -0.03125 6.734375 -0.015625 7.140625 0 L 7.140625 -0.3125 L 6.96875 -0.3125 C 6.375 -0.3125 6.234375 -0.375 6.125 -0.703125 Z M 3.4375 -5.828125 L 4.5625 -2.578125 L 2.328125 -2.578125 Z M 3.4375 -5.828125 "
   style="stroke:none;stroke-width:0" />
<path
   id="path3749"
   transform="translate(156.18395,134.765)"
   d="M 1.171875 -2.171875 C 1.171875 -3.796875 1.984375 -4.21875 2.515625 -4.21875 C 2.609375 -4.21875 3.234375 -4.203125 3.578125 -3.84375 C 3.171875 -3.8125 3.109375 -3.515625 3.109375 -3.390625 C 3.109375 -3.125 3.296875 -2.9375 3.5625 -2.9375 C 3.828125 -2.9375 4.03125 -3.09375 4.03125 -3.40625 C 4.03125 -4.078125 3.265625 -4.46875 2.5 -4.46875 C 1.25 -4.46875 0.34375 -3.390625 0.34375 -2.15625 C 0.34375 -0.875 1.328125 0.109375 2.484375 0.109375 C 3.8125 0.109375 4.140625 -1.09375 4.140625 -1.1875 C 4.140625 -1.28125 4.03125 -1.28125 4 -1.28125 C 3.921875 -1.28125 3.890625 -1.25 3.875 -1.1875 C 3.59375 -0.265625 2.9375 -0.140625 2.578125 -0.140625 C 2.046875 -0.140625 1.171875 -0.5625 1.171875 -2.171875 Z M 1.171875 -2.171875 "
   style="stroke:none;stroke-width:0" />
<path
   id="path3751"
   transform="translate(160.611329,134.765)"
   d="M 1.71875 -3.984375 L 3.15625 -3.984375 L 3.15625 -4.296875 L 1.71875 -4.296875 L 1.71875 -6.125 L 1.46875 -6.125 C 1.46875 -5.3125 1.171875 -4.25 0.1875 -4.203125 L 0.1875 -3.984375 L 1.03125 -3.984375 L 1.03125 -1.234375 C 1.03125 -0.015625 1.96875 0.109375 2.328125 0.109375 C 3.03125 0.109375 3.3125 -0.59375 3.3125 -1.234375 L 3.3125 -1.796875 L 3.0625 -1.796875 L 3.0625 -1.25 C 3.0625 -0.515625 2.765625 -0.140625 2.390625 -0.140625 C 1.71875 -0.140625 1.71875 -1.046875 1.71875 -1.21875 Z M 1.71875 -3.984375 "
   style="stroke:none;stroke-width:0" />
<path
   id="path3753"
   transform="translate(164.485785,134.765)"
   d="M 1.765625 -4.40625 L 0.375 -4.296875 L 0.375 -3.984375 C 1.015625 -3.984375 1.109375 -3.921875 1.109375 -3.4375 L 1.109375 -0.75 C 1.109375 -0.3125 1 -0.3125 0.328125 -0.3125 L 0.328125 0 C 0.640625 -0.015625 1.1875 -0.03125 1.421875 -0.03125 C 1.78125 -0.03125 2.125 -0.015625 2.46875 0 L 2.46875 -0.3125 C 1.796875 -0.3125 1.765625 -0.359375 1.765625 -0.75 Z M 1.796875 -6.140625 C 1.796875 -6.453125 1.5625 -6.671875 1.28125 -6.671875 C 0.96875 -6.671875 0.75 -6.40625 0.75 -6.140625 C 0.75 -5.875 0.96875 -5.609375 1.28125 -5.609375 C 1.5625 -5.609375 1.796875 -5.828125 1.796875 -6.140625 Z M 1.796875 -6.140625 "
   style="stroke:none;stroke-width:0" />
<path
   id="path3755"
   transform="translate(167.253395,134.765)"
   d="M 4.140625 -3.3125 C 4.234375 -3.546875 4.40625 -3.984375 5.0625 -3.984375 L 5.0625 -4.296875 C 4.828125 -4.28125 4.546875 -4.265625 4.3125 -4.265625 C 4.078125 -4.265625 3.625 -4.28125 3.453125 -4.296875 L 3.453125 -3.984375 C 3.8125 -3.984375 3.921875 -3.75 3.921875 -3.5625 C 3.921875 -3.46875 3.90625 -3.421875 3.875 -3.3125 L 2.84375 -0.78125 L 1.734375 -3.5625 C 1.671875 -3.6875 1.671875 -3.703125 1.671875 -3.734375 C 1.671875 -3.984375 2.0625 -3.984375 2.25 -3.984375 L 2.25 -4.296875 C 1.9375 -4.28125 1.390625 -4.265625 1.15625 -4.265625 C 0.890625 -4.265625 0.484375 -4.28125 0.1875 -4.296875 L 0.1875 -3.984375 C 0.8125 -3.984375 0.859375 -3.921875 0.984375 -3.625 L 2.421875 -0.078125 C 2.484375 0.0625 2.5 0.109375 2.625 0.109375 C 2.765625 0.109375 2.796875 0.015625 2.84375 -0.078125 Z M 4.140625 -3.3125 "
   style="stroke:none;stroke-width:0" />
</g>
<g
   id="g3769"
   style="fill:rgb(0%,0%,0%);fill-opacity:1;">
  <path
   id="path3759"
   transform="translate(171.95375,134.765)"
   d="M 3.3125 -0.75 C 3.359375 -0.359375 3.625 0.0625 4.09375 0.0625 C 4.3125 0.0625 4.921875 -0.078125 4.921875 -0.890625 L 4.921875 -1.453125 L 4.671875 -1.453125 L 4.671875 -0.890625 C 4.671875 -0.3125 4.421875 -0.25 4.3125 -0.25 C 3.984375 -0.25 3.9375 -0.703125 3.9375 -0.75 L 3.9375 -2.734375 C 3.9375 -3.15625 3.9375 -3.546875 3.578125 -3.921875 C 3.1875 -4.3125 2.6875 -4.46875 2.21875 -4.46875 C 1.390625 -4.46875 0.703125 -4 0.703125 -3.34375 C 0.703125 -3.046875 0.90625 -2.875 1.171875 -2.875 C 1.453125 -2.875 1.625 -3.078125 1.625 -3.328125 C 1.625 -3.453125 1.578125 -3.78125 1.109375 -3.78125 C 1.390625 -4.140625 1.875 -4.25 2.1875 -4.25 C 2.6875 -4.25 3.25 -3.859375 3.25 -2.96875 L 3.25 -2.609375 C 2.734375 -2.578125 2.046875 -2.546875 1.421875 -2.25 C 0.671875 -1.90625 0.421875 -1.390625 0.421875 -0.953125 C 0.421875 -0.140625 1.390625 0.109375 2.015625 0.109375 C 2.671875 0.109375 3.125 -0.296875 3.3125 -0.75 Z M 3.25 -2.390625 L 3.25 -1.390625 C 3.25 -0.453125 2.53125 -0.109375 2.078125 -0.109375 C 1.59375 -0.109375 1.1875 -0.453125 1.1875 -0.953125 C 1.1875 -1.5 1.609375 -2.328125 3.25 -2.390625 Z M 3.25 -2.390625 "
   style="stroke:none;stroke-width:0" />
<path
   id="path3761"
   transform="translate(176.93505,134.765)"
   d="M 1.71875 -3.984375 L 3.15625 -3.984375 L 3.15625 -4.296875 L 1.71875 -4.296875 L 1.71875 -6.125 L 1.46875 -6.125 C 1.46875 -5.3125 1.171875 -4.25 0.1875 -4.203125 L 0.1875 -3.984375 L 1.03125 -3.984375 L 1.03125 -1.234375 C 1.03125 -0.015625 1.96875 0.109375 2.328125 0.109375 C 3.03125 0.109375 3.3125 -0.59375 3.3125 -1.234375 L 3.3125 -1.796875 L 3.0625 -1.796875 L 3.0625 -1.25 C 3.0625 -0.515625 2.765625 -0.140625 2.390625 -0.140625 C 1.71875 -0.140625 1.71875 -1.046875 1.71875 -1.21875 Z M 1.71875 -3.984375 "
   style="stroke:none;stroke-width:0" />
<path
   id="path3763"
   transform="translate(180.809505,134.765)"
   d="M 1.765625 -4.40625 L 0.375 -4.296875 L 0.375 -3.984375 C 1.015625 -3.984375 1.109375 -3.921875 1.109375 -3.4375 L 1.109375 -0.75 C 1.109375 -0.3125 1 -0.3125 0.328125 -0.3125 L 0.328125 0 C 0.640625 -0.015625 1.1875 -0.03125 1.421875 -0.03125 C 1.78125 -0.03125 2.125 -0.015625 2.46875 0 L 2.46875 -0.3125 C 1.796875 -0.3125 1.765625 -0.359375 1.765625 -0.75 Z M 1.796875 -6.140625 C 1.796875 -6.453125 1.5625 -6.671875 1.28125 -6.671875 C 0.96875 -6.671875 0.75 -6.40625 0.75 -6.140625 C 0.75 -5.875 0.96875 -5.609375 1.28125 -5.609375 C 1.5625 -5.609375 1.796875 -5.828125 1.796875 -6.140625 Z M 1.796875 -6.140625 "
   style="stroke:none;stroke-width:0" />
<path
   id="path3765"
   transform="translate(183.577115,134.765)"
   d="M 4.6875 -2.140625 C 4.6875 -3.40625 3.703125 -4.46875 2.5 -4.46875 C 1.25 -4.46875 0.28125 -3.375 0.28125 -2.140625 C 0.28125 -0.84375 1.3125 0.109375 2.484375 0.109375 C 3.6875 0.109375 4.6875 -0.875 4.6875 -2.140625 Z M 2.5 -0.140625 C 2.0625 -0.140625 1.625 -0.34375 1.359375 -0.8125 C 1.109375 -1.25 1.109375 -1.859375 1.109375 -2.21875 C 1.109375 -2.609375 1.109375 -3.140625 1.34375 -3.578125 C 1.609375 -4.03125 2.078125 -4.25 2.484375 -4.25 C 2.921875 -4.25 3.34375 -4.03125 3.609375 -3.59375 C 3.875 -3.171875 3.875 -2.59375 3.875 -2.21875 C 3.875 -1.859375 3.875 -1.3125 3.65625 -0.875 C 3.421875 -0.421875 2.984375 -0.140625 2.5 -0.140625 Z M 2.5 -0.140625 "
   style="stroke:none;stroke-width:0" />
<path
   id="path3767"
   transform="translate(188.558415,134.765)"
   d="M 1.09375 -3.421875 L 1.09375 -0.75 C 1.09375 -0.3125 0.984375 -0.3125 0.3125 -0.3125 L 0.3125 0 C 0.671875 -0.015625 1.171875 -0.03125 1.453125 -0.03125 C 1.703125 -0.03125 2.21875 -0.015625 2.5625 0 L 2.5625 -0.3125 C 1.890625 -0.3125 1.78125 -0.3125 1.78125 -0.75 L 1.78125 -2.59375 C 1.78125 -3.625 2.5 -4.1875 3.125 -4.1875 C 3.765625 -4.1875 3.875 -3.65625 3.875 -3.078125 L 3.875 -0.75 C 3.875 -0.3125 3.765625 -0.3125 3.09375 -0.3125 L 3.09375 0 C 3.4375 -0.015625 3.953125 -0.03125 4.21875 -0.03125 C 4.46875 -0.03125 5 -0.015625 5.328125 0 L 5.328125 -0.3125 C 4.8125 -0.3125 4.5625 -0.3125 4.5625 -0.609375 L 4.5625 -2.515625 C 4.5625 -3.375 4.5625 -3.671875 4.25 -4.03125 C 4.109375 -4.203125 3.78125 -4.40625 3.203125 -4.40625 C 2.46875 -4.40625 2 -3.984375 1.71875 -3.359375 L 1.71875 -4.40625 L 0.3125 -4.296875 L 0.3125 -3.984375 C 1.015625 -3.984375 1.09375 -3.921875 1.09375 -3.421875 Z M 1.09375 -3.421875 "
   style="stroke:none;stroke-width:0" />
</g>
</g>
</g><g
   id="g3985"
   ns1:jacobian_sqrt="1.600001"
   inkscapeversion="0.92.4"
   ns1:alignment="middle center"
   ns1:scale="1.2"
   ns1:preamble="/home/tim/.config/inkscape/extensions/textext/default_packages.tex"
   ns1:text="Node active"
   ns1:pdfconverter="pdf2svg"
   ns1:texconverter="pdflatex"
   ns1:version="0.9.1"
   transform="matrix(1.600001,0.000000,0.000000,-1.600001,22.976006,490.593636)"><g
   id="g3983">
<g
   id="g3959"
   style="fill:rgb(0%,0%,0%);fill-opacity:1;">
  <path
   id="path3955"
   transform="translate(148.712,134.765)"
   d="M 2.3125 -6.671875 C 2.21875 -6.796875 2.21875 -6.8125 2.03125 -6.8125 L 0.328125 -6.8125 L 0.328125 -6.5 L 0.625 -6.5 C 0.765625 -6.5 0.96875 -6.484375 1.109375 -6.484375 C 1.34375 -6.453125 1.359375 -6.4375 1.359375 -6.25 L 1.359375 -1.046875 C 1.359375 -0.78125 1.359375 -0.3125 0.328125 -0.3125 L 0.328125 0 C 0.671875 -0.015625 1.171875 -0.03125 1.5 -0.03125 C 1.828125 -0.03125 2.3125 -0.015625 2.65625 0 L 2.65625 -0.3125 C 1.640625 -0.3125 1.640625 -0.78125 1.640625 -1.046875 L 1.640625 -6.234375 C 1.6875 -6.1875 1.6875 -6.171875 1.734375 -6.109375 L 5.796875 -0.125 C 5.890625 -0.015625 5.90625 0 5.96875 0 C 6.109375 0 6.109375 -0.0625 6.109375 -0.265625 L 6.109375 -5.765625 C 6.109375 -6.03125 6.109375 -6.5 7.140625 -6.5 L 7.140625 -6.8125 C 6.78125 -6.796875 6.296875 -6.78125 5.96875 -6.78125 C 5.640625 -6.78125 5.15625 -6.796875 4.8125 -6.8125 L 4.8125 -6.5 C 5.828125 -6.5 5.828125 -6.03125 5.828125 -5.765625 L 5.828125 -1.5 Z M 2.3125 -6.671875 "
   style="stroke:none;stroke-width:0" />
<path
   id="path3957"
   transform="translate(156.18395,134.765)"
   d="M 4.6875 -2.140625 C 4.6875 -3.40625 3.703125 -4.46875 2.5 -4.46875 C 1.25 -4.46875 0.28125 -3.375 0.28125 -2.140625 C 0.28125 -0.84375 1.3125 0.109375 2.484375 0.109375 C 3.6875 0.109375 4.6875 -0.875 4.6875 -2.140625 Z M 2.5 -0.140625 C 2.0625 -0.140625 1.625 -0.34375 1.359375 -0.8125 C 1.109375 -1.25 1.109375 -1.859375 1.109375 -2.21875 C 1.109375 -2.609375 1.109375 -3.140625 1.34375 -3.578125 C 1.609375 -4.03125 2.078125 -4.25 2.484375 -4.25 C 2.921875 -4.25 3.34375 -4.03125 3.609375 -3.59375 C 3.875 -3.171875 3.875 -2.59375 3.875 -2.21875 C 3.875 -1.859375 3.875 -1.3125 3.65625 -0.875 C 3.421875 -0.421875 2.984375 -0.140625 2.5 -0.140625 Z M 2.5 -0.140625 "
   style="stroke:none;stroke-width:0" />
</g>
<g
   id="g3965"
   style="fill:rgb(0%,0%,0%);fill-opacity:1;">
  <path
   id="path3961"
   transform="translate(161.444203,134.765)"
   d="M 3.78125 -0.546875 L 3.78125 0.109375 L 5.25 0 L 5.25 -0.3125 C 4.5625 -0.3125 4.46875 -0.375 4.46875 -0.875 L 4.46875 -6.921875 L 3.046875 -6.8125 L 3.046875 -6.5 C 3.734375 -6.5 3.8125 -6.4375 3.8125 -5.9375 L 3.8125 -3.78125 C 3.53125 -4.140625 3.09375 -4.40625 2.5625 -4.40625 C 1.390625 -4.40625 0.34375 -3.421875 0.34375 -2.140625 C 0.34375 -0.875 1.3125 0.109375 2.453125 0.109375 C 3.09375 0.109375 3.53125 -0.234375 3.78125 -0.546875 Z M 3.78125 -3.21875 L 3.78125 -1.171875 C 3.78125 -1 3.78125 -0.984375 3.671875 -0.8125 C 3.375 -0.328125 2.9375 -0.109375 2.5 -0.109375 C 2.046875 -0.109375 1.6875 -0.375 1.453125 -0.75 C 1.203125 -1.15625 1.171875 -1.71875 1.171875 -2.140625 C 1.171875 -2.5 1.1875 -3.09375 1.46875 -3.546875 C 1.6875 -3.859375 2.0625 -4.1875 2.609375 -4.1875 C 2.953125 -4.1875 3.375 -4.03125 3.671875 -3.59375 C 3.78125 -3.421875 3.78125 -3.40625 3.78125 -3.21875 Z M 3.78125 -3.21875 "
   style="stroke:none;stroke-width:0" />
<path
   id="path3963"
   transform="translate(166.979423,134.765)"
   d="M 1.109375 -2.515625 C 1.171875 -4 2.015625 -4.25 2.359375 -4.25 C 3.375 -4.25 3.484375 -2.90625 3.484375 -2.515625 Z M 1.109375 -2.296875 L 3.890625 -2.296875 C 4.109375 -2.296875 4.140625 -2.296875 4.140625 -2.515625 C 4.140625 -3.5 3.59375 -4.46875 2.359375 -4.46875 C 1.203125 -4.46875 0.28125 -3.4375 0.28125 -2.1875 C 0.28125 -0.859375 1.328125 0.109375 2.46875 0.109375 C 3.6875 0.109375 4.140625 -1 4.140625 -1.1875 C 4.140625 -1.28125 4.0625 -1.3125 4 -1.3125 C 3.921875 -1.3125 3.890625 -1.25 3.875 -1.171875 C 3.53125 -0.140625 2.625 -0.140625 2.53125 -0.140625 C 2.03125 -0.140625 1.640625 -0.4375 1.40625 -0.8125 C 1.109375 -1.28125 1.109375 -1.9375 1.109375 -2.296875 Z M 1.109375 -2.296875 "
   style="stroke:none;stroke-width:0" />
</g>
<g
   id="g3977"
   style="fill:rgb(0%,0%,0%);fill-opacity:1;">
  <path
   id="path3967"
   transform="translate(174.724349,134.765)"
   d="M 3.3125 -0.75 C 3.359375 -0.359375 3.625 0.0625 4.09375 0.0625 C 4.3125 0.0625 4.921875 -0.078125 4.921875 -0.890625 L 4.921875 -1.453125 L 4.671875 -1.453125 L 4.671875 -0.890625 C 4.671875 -0.3125 4.421875 -0.25 4.3125 -0.25 C 3.984375 -0.25 3.9375 -0.703125 3.9375 -0.75 L 3.9375 -2.734375 C 3.9375 -3.15625 3.9375 -3.546875 3.578125 -3.921875 C 3.1875 -4.3125 2.6875 -4.46875 2.21875 -4.46875 C 1.390625 -4.46875 0.703125 -4 0.703125 -3.34375 C 0.703125 -3.046875 0.90625 -2.875 1.171875 -2.875 C 1.453125 -2.875 1.625 -3.078125 1.625 -3.328125 C 1.625 -3.453125 1.578125 -3.78125 1.109375 -3.78125 C 1.390625 -4.140625 1.875 -4.25 2.1875 -4.25 C 2.6875 -4.25 3.25 -3.859375 3.25 -2.96875 L 3.25 -2.609375 C 2.734375 -2.578125 2.046875 -2.546875 1.421875 -2.25 C 0.671875 -1.90625 0.421875 -1.390625 0.421875 -0.953125 C 0.421875 -0.140625 1.390625 0.109375 2.015625 0.109375 C 2.671875 0.109375 3.125 -0.296875 3.3125 -0.75 Z M 3.25 -2.390625 L 3.25 -1.390625 C 3.25 -0.453125 2.53125 -0.109375 2.078125 -0.109375 C 1.59375 -0.109375 1.1875 -0.453125 1.1875 -0.953125 C 1.1875 -1.5 1.609375 -2.328125 3.25 -2.390625 Z M 3.25 -2.390625 "
   style="stroke:none;stroke-width:0" />
<path
   id="path3969"
   transform="translate(179.705649,134.765)"
   d="M 1.171875 -2.171875 C 1.171875 -3.796875 1.984375 -4.21875 2.515625 -4.21875 C 2.609375 -4.21875 3.234375 -4.203125 3.578125 -3.84375 C 3.171875 -3.8125 3.109375 -3.515625 3.109375 -3.390625 C 3.109375 -3.125 3.296875 -2.9375 3.5625 -2.9375 C 3.828125 -2.9375 4.03125 -3.09375 4.03125 -3.40625 C 4.03125 -4.078125 3.265625 -4.46875 2.5 -4.46875 C 1.25 -4.46875 0.34375 -3.390625 0.34375 -2.15625 C 0.34375 -0.875 1.328125 0.109375 2.484375 0.109375 C 3.8125 0.109375 4.140625 -1.09375 4.140625 -1.1875 C 4.140625 -1.28125 4.03125 -1.28125 4 -1.28125 C 3.921875 -1.28125 3.890625 -1.25 3.875 -1.1875 C 3.59375 -0.265625 2.9375 -0.140625 2.578125 -0.140625 C 2.046875 -0.140625 1.171875 -0.5625 1.171875 -2.171875 Z M 1.171875 -2.171875 "
   style="stroke:none;stroke-width:0" />
<path
   id="path3971"
   transform="translate(184.133028,134.765)"
   d="M 1.71875 -3.984375 L 3.15625 -3.984375 L 3.15625 -4.296875 L 1.71875 -4.296875 L 1.71875 -6.125 L 1.46875 -6.125 C 1.46875 -5.3125 1.171875 -4.25 0.1875 -4.203125 L 0.1875 -3.984375 L 1.03125 -3.984375 L 1.03125 -1.234375 C 1.03125 -0.015625 1.96875 0.109375 2.328125 0.109375 C 3.03125 0.109375 3.3125 -0.59375 3.3125 -1.234375 L 3.3125 -1.796875 L 3.0625 -1.796875 L 3.0625 -1.25 C 3.0625 -0.515625 2.765625 -0.140625 2.390625 -0.140625 C 1.71875 -0.140625 1.71875 -1.046875 1.71875 -1.21875 Z M 1.71875 -3.984375 "
   style="stroke:none;stroke-width:0" />
<path
   id="path3973"
   transform="translate(188.007483,134.765)"
   d="M 1.765625 -4.40625 L 0.375 -4.296875 L 0.375 -3.984375 C 1.015625 -3.984375 1.109375 -3.921875 1.109375 -3.4375 L 1.109375 -0.75 C 1.109375 -0.3125 1 -0.3125 0.328125 -0.3125 L 0.328125 0 C 0.640625 -0.015625 1.1875 -0.03125 1.421875 -0.03125 C 1.78125 -0.03125 2.125 -0.015625 2.46875 0 L 2.46875 -0.3125 C 1.796875 -0.3125 1.765625 -0.359375 1.765625 -0.75 Z M 1.796875 -6.140625 C 1.796875 -6.453125 1.5625 -6.671875 1.28125 -6.671875 C 0.96875 -6.671875 0.75 -6.40625 0.75 -6.140625 C 0.75 -5.875 0.96875 -5.609375 1.28125 -5.609375 C 1.5625 -5.609375 1.796875 -5.828125 1.796875 -6.140625 Z M 1.796875 -6.140625 "
   style="stroke:none;stroke-width:0" />
<path
   id="path3975"
   transform="translate(190.775093,134.765)"
   d="M 4.140625 -3.3125 C 4.234375 -3.546875 4.40625 -3.984375 5.0625 -3.984375 L 5.0625 -4.296875 C 4.828125 -4.28125 4.546875 -4.265625 4.3125 -4.265625 C 4.078125 -4.265625 3.625 -4.28125 3.453125 -4.296875 L 3.453125 -3.984375 C 3.8125 -3.984375 3.921875 -3.75 3.921875 -3.5625 C 3.921875 -3.46875 3.90625 -3.421875 3.875 -3.3125 L 2.84375 -0.78125 L 1.734375 -3.5625 C 1.671875 -3.6875 1.671875 -3.703125 1.671875 -3.734375 C 1.671875 -3.984375 2.0625 -3.984375 2.25 -3.984375 L 2.25 -4.296875 C 1.9375 -4.28125 1.390625 -4.265625 1.15625 -4.265625 C 0.890625 -4.265625 0.484375 -4.28125 0.1875 -4.296875 L 0.1875 -3.984375 C 0.8125 -3.984375 0.859375 -3.921875 0.984375 -3.625 L 2.421875 -0.078125 C 2.484375 0.0625 2.5 0.109375 2.625 0.109375 C 2.765625 0.109375 2.796875 0.015625 2.84375 -0.078125 Z M 4.140625 -3.3125 "
   style="stroke:none;stroke-width:0" />
</g>
<g
   id="g3981"
   style="fill:rgb(0%,0%,0%);fill-opacity:1;">
  <path
   id="path3979"
   transform="translate(195.754401,134.765)"
   d="M 1.109375 -2.515625 C 1.171875 -4 2.015625 -4.25 2.359375 -4.25 C 3.375 -4.25 3.484375 -2.90625 3.484375 -2.515625 Z M 1.109375 -2.296875 L 3.890625 -2.296875 C 4.109375 -2.296875 4.140625 -2.296875 4.140625 -2.515625 C 4.140625 -3.5 3.59375 -4.46875 2.359375 -4.46875 C 1.203125 -4.46875 0.28125 -3.4375 0.28125 -2.1875 C 0.28125 -0.859375 1.328125 0.109375 2.46875 0.109375 C 3.6875 0.109375 4.140625 -1 4.140625 -1.1875 C 4.140625 -1.28125 4.0625 -1.3125 4 -1.3125 C 3.921875 -1.3125 3.890625 -1.25 3.875 -1.171875 C 3.53125 -0.140625 2.625 -0.140625 2.53125 -0.140625 C 2.03125 -0.140625 1.640625 -0.4375 1.40625 -0.8125 C 1.109375 -1.28125 1.109375 -1.9375 1.109375 -2.296875 Z M 1.109375 -2.296875 "
   style="stroke:none;stroke-width:0" />
</g>
</g>
</g><g
   id="g4201"
   ns1:jacobian_sqrt="1.600002"
   inkscapeversion="0.92.4"
   ns1:alignment="middle center"
   ns1:scale="1.2"
   ns1:preamble="/home/tim/.config/inkscape/extensions/textext/default_packages.tex"
   ns1:text="Input to Node"
   ns1:pdfconverter="pdf2svg"
   ns1:texconverter="pdflatex"
   ns1:version="0.9.1"
   transform="matrix(1.600002,0.000000,0.000000,-1.600002,-67.613760,216.419867)"><g
   id="g4199">
<g
   id="g4179"
   style="fill:rgb(0%,0%,0%);fill-opacity:1;">
  <path
   id="path4169"
   transform="translate(148.712,134.765)"
   d="M 2.25 -6.03125 C 2.25 -6.390625 2.265625 -6.5 3.0625 -6.5 L 3.3125 -6.5 L 3.3125 -6.8125 C 2.96875 -6.78125 2.1875 -6.78125 1.796875 -6.78125 C 1.421875 -6.78125 0.625 -6.78125 0.28125 -6.8125 L 0.28125 -6.5 L 0.53125 -6.5 C 1.328125 -6.5 1.359375 -6.390625 1.359375 -6.03125 L 1.359375 -0.78125 C 1.359375 -0.421875 1.328125 -0.3125 0.53125 -0.3125 L 0.28125 -0.3125 L 0.28125 0 C 0.625 -0.03125 1.421875 -0.03125 1.796875 -0.03125 C 2.1875 -0.03125 2.96875 -0.03125 3.3125 0 L 3.3125 -0.3125 L 3.0625 -0.3125 C 2.265625 -0.3125 2.25 -0.421875 2.25 -0.78125 Z M 2.25 -6.03125 "
   style="stroke:none;stroke-width:0" />
<path
   id="path4171"
   transform="translate(152.309495,134.765)"
   d="M 1.09375 -3.421875 L 1.09375 -0.75 C 1.09375 -0.3125 0.984375 -0.3125 0.3125 -0.3125 L 0.3125 0 C 0.671875 -0.015625 1.171875 -0.03125 1.453125 -0.03125 C 1.703125 -0.03125 2.21875 -0.015625 2.5625 0 L 2.5625 -0.3125 C 1.890625 -0.3125 1.78125 -0.3125 1.78125 -0.75 L 1.78125 -2.59375 C 1.78125 -3.625 2.5 -4.1875 3.125 -4.1875 C 3.765625 -4.1875 3.875 -3.65625 3.875 -3.078125 L 3.875 -0.75 C 3.875 -0.3125 3.765625 -0.3125 3.09375 -0.3125 L 3.09375 0 C 3.4375 -0.015625 3.953125 -0.03125 4.21875 -0.03125 C 4.46875 -0.03125 5 -0.015625 5.328125 0 L 5.328125 -0.3125 C 4.8125 -0.3125 4.5625 -0.3125 4.5625 -0.609375 L 4.5625 -2.515625 C 4.5625 -3.375 4.5625 -3.671875 4.25 -4.03125 C 4.109375 -4.203125 3.78125 -4.40625 3.203125 -4.40625 C 2.46875 -4.40625 2 -3.984375 1.71875 -3.359375 L 1.71875 -4.40625 L 0.3125 -4.296875 L 0.3125 -3.984375 C 1.015625 -3.984375 1.09375 -3.921875 1.09375 -3.421875 Z M 1.09375 -3.421875 "
   style="stroke:none;stroke-width:0" />
<path
   id="path4173"
   transform="translate(157.844715,134.765)"
   d="M 1.71875 -3.75 L 1.71875 -4.40625 L 0.28125 -4.296875 L 0.28125 -3.984375 C 0.984375 -3.984375 1.0625 -3.921875 1.0625 -3.484375 L 1.0625 1.171875 C 1.0625 1.625 0.953125 1.625 0.28125 1.625 L 0.28125 1.9375 C 0.625 1.921875 1.140625 1.90625 1.390625 1.90625 C 1.671875 1.90625 2.171875 1.921875 2.515625 1.9375 L 2.515625 1.625 C 1.859375 1.625 1.75 1.625 1.75 1.171875 L 1.75 -0.59375 C 1.796875 -0.421875 2.21875 0.109375 2.96875 0.109375 C 4.15625 0.109375 5.1875 -0.875 5.1875 -2.15625 C 5.1875 -3.421875 4.234375 -4.40625 3.109375 -4.40625 C 2.328125 -4.40625 1.90625 -3.96875 1.71875 -3.75 Z M 1.75 -1.140625 L 1.75 -3.359375 C 2.03125 -3.875 2.515625 -4.15625 3.03125 -4.15625 C 3.765625 -4.15625 4.359375 -3.28125 4.359375 -2.15625 C 4.359375 -0.953125 3.671875 -0.109375 2.9375 -0.109375 C 2.53125 -0.109375 2.15625 -0.3125 1.890625 -0.71875 C 1.75 -0.921875 1.75 -0.9375 1.75 -1.140625 Z M 1.75 -1.140625 "
   style="stroke:none;stroke-width:0" />
<path
   id="path4175"
   transform="translate(163.379936,134.765)"
   d="M 3.890625 -0.78125 L 3.890625 0.109375 L 5.328125 0 L 5.328125 -0.3125 C 4.640625 -0.3125 4.5625 -0.375 4.5625 -0.875 L 4.5625 -4.40625 L 3.09375 -4.296875 L 3.09375 -3.984375 C 3.78125 -3.984375 3.875 -3.921875 3.875 -3.421875 L 3.875 -1.65625 C 3.875 -0.78125 3.390625 -0.109375 2.65625 -0.109375 C 1.828125 -0.109375 1.78125 -0.578125 1.78125 -1.09375 L 1.78125 -4.40625 L 0.3125 -4.296875 L 0.3125 -3.984375 C 1.09375 -3.984375 1.09375 -3.953125 1.09375 -3.078125 L 1.09375 -1.578125 C 1.09375 -0.796875 1.09375 0.109375 2.609375 0.109375 C 3.171875 0.109375 3.609375 -0.171875 3.890625 -0.78125 Z M 3.890625 -0.78125 "
   style="stroke:none;stroke-width:0" />
<path
   id="path4177"
   transform="translate(168.915157,134.765)"
   d="M 1.71875 -3.984375 L 3.15625 -3.984375 L 3.15625 -4.296875 L 1.71875 -4.296875 L 1.71875 -6.125 L 1.46875 -6.125 C 1.46875 -5.3125 1.171875 -4.25 0.1875 -4.203125 L 0.1875 -3.984375 L 1.03125 -3.984375 L 1.03125 -1.234375 C 1.03125 -0.015625 1.96875 0.109375 2.328125 0.109375 C 3.03125 0.109375 3.3125 -0.59375 3.3125 -1.234375 L 3.3125 -1.796875 L 3.0625 -1.796875 L 3.0625 -1.25 C 3.0625 -0.515625 2.765625 -0.140625 2.390625 -0.140625 C 1.71875 -0.140625 1.71875 -1.046875 1.71875 -1.21875 Z M 1.71875 -3.984375 "
   style="stroke:none;stroke-width:0" />
</g>
<g
   id="g4185"
   style="fill:rgb(0%,0%,0%);fill-opacity:1;">
  <path
   id="path4181"
   transform="translate(176.107157,134.765)"
   d="M 1.71875 -3.984375 L 3.15625 -3.984375 L 3.15625 -4.296875 L 1.71875 -4.296875 L 1.71875 -6.125 L 1.46875 -6.125 C 1.46875 -5.3125 1.171875 -4.25 0.1875 -4.203125 L 0.1875 -3.984375 L 1.03125 -3.984375 L 1.03125 -1.234375 C 1.03125 -0.015625 1.96875 0.109375 2.328125 0.109375 C 3.03125 0.109375 3.3125 -0.59375 3.3125 -1.234375 L 3.3125 -1.796875 L 3.0625 -1.796875 L 3.0625 -1.25 C 3.0625 -0.515625 2.765625 -0.140625 2.390625 -0.140625 C 1.71875 -0.140625 1.71875 -1.046875 1.71875 -1.21875 Z M 1.71875 -3.984375 "
   style="stroke:none;stroke-width:0" />
<path
   id="path4183"
   transform="translate(179.981613,134.765)"
   d="M 4.6875 -2.140625 C 4.6875 -3.40625 3.703125 -4.46875 2.5 -4.46875 C 1.25 -4.46875 0.28125 -3.375 0.28125 -2.140625 C 0.28125 -0.84375 1.3125 0.109375 2.484375 0.109375 C 3.6875 0.109375 4.6875 -0.875 4.6875 -2.140625 Z M 2.5 -0.140625 C 2.0625 -0.140625 1.625 -0.34375 1.359375 -0.8125 C 1.109375 -1.25 1.109375 -1.859375 1.109375 -2.21875 C 1.109375 -2.609375 1.109375 -3.140625 1.34375 -3.578125 C 1.609375 -4.03125 2.078125 -4.25 2.484375 -4.25 C 2.921875 -4.25 3.34375 -4.03125 3.609375 -3.59375 C 3.875 -3.171875 3.875 -2.59375 3.875 -2.21875 C 3.875 -1.859375 3.875 -1.3125 3.65625 -0.875 C 3.421875 -0.421875 2.984375 -0.140625 2.5 -0.140625 Z M 2.5 -0.140625 "
   style="stroke:none;stroke-width:0" />
</g>
<g
   id="g4191"
   style="fill:rgb(0%,0%,0%);fill-opacity:1;">
  <path
   id="path4187"
   transform="translate(188.290421,134.765)"
   d="M 2.3125 -6.671875 C 2.21875 -6.796875 2.21875 -6.8125 2.03125 -6.8125 L 0.328125 -6.8125 L 0.328125 -6.5 L 0.625 -6.5 C 0.765625 -6.5 0.96875 -6.484375 1.109375 -6.484375 C 1.34375 -6.453125 1.359375 -6.4375 1.359375 -6.25 L 1.359375 -1.046875 C 1.359375 -0.78125 1.359375 -0.3125 0.328125 -0.3125 L 0.328125 0 C 0.671875 -0.015625 1.171875 -0.03125 1.5 -0.03125 C 1.828125 -0.03125 2.3125 -0.015625 2.65625 0 L 2.65625 -0.3125 C 1.640625 -0.3125 1.640625 -0.78125 1.640625 -1.046875 L 1.640625 -6.234375 C 1.6875 -6.1875 1.6875 -6.171875 1.734375 -6.109375 L 5.796875 -0.125 C 5.890625 -0.015625 5.90625 0 5.96875 0 C 6.109375 0 6.109375 -0.0625 6.109375 -0.265625 L 6.109375 -5.765625 C 6.109375 -6.03125 6.109375 -6.5 7.140625 -6.5 L 7.140625 -6.8125 C 6.78125 -6.796875 6.296875 -6.78125 5.96875 -6.78125 C 5.640625 -6.78125 5.15625 -6.796875 4.8125 -6.8125 L 4.8125 -6.5 C 5.828125 -6.5 5.828125 -6.03125 5.828125 -5.765625 L 5.828125 -1.5 Z M 2.3125 -6.671875 "
   style="stroke:none;stroke-width:0" />
<path
   id="path4189"
   transform="translate(195.762371,134.765)"
   d="M 4.6875 -2.140625 C 4.6875 -3.40625 3.703125 -4.46875 2.5 -4.46875 C 1.25 -4.46875 0.28125 -3.375 0.28125 -2.140625 C 0.28125 -0.84375 1.3125 0.109375 2.484375 0.109375 C 3.6875 0.109375 4.6875 -0.875 4.6875 -2.140625 Z M 2.5 -0.140625 C 2.0625 -0.140625 1.625 -0.34375 1.359375 -0.8125 C 1.109375 -1.25 1.109375 -1.859375 1.109375 -2.21875 C 1.109375 -2.609375 1.109375 -3.140625 1.34375 -3.578125 C 1.609375 -4.03125 2.078125 -4.25 2.484375 -4.25 C 2.921875 -4.25 3.34375 -4.03125 3.609375 -3.59375 C 3.875 -3.171875 3.875 -2.59375 3.875 -2.21875 C 3.875 -1.859375 3.875 -1.3125 3.65625 -0.875 C 3.421875 -0.421875 2.984375 -0.140625 2.5 -0.140625 Z M 2.5 -0.140625 "
   style="stroke:none;stroke-width:0" />
</g>
<g
   id="g4197"
   style="fill:rgb(0%,0%,0%);fill-opacity:1;">
  <path
   id="path4193"
   transform="translate(201.012661,134.765)"
   d="M 3.78125 -0.546875 L 3.78125 0.109375 L 5.25 0 L 5.25 -0.3125 C 4.5625 -0.3125 4.46875 -0.375 4.46875 -0.875 L 4.46875 -6.921875 L 3.046875 -6.8125 L 3.046875 -6.5 C 3.734375 -6.5 3.8125 -6.4375 3.8125 -5.9375 L 3.8125 -3.78125 C 3.53125 -4.140625 3.09375 -4.40625 2.5625 -4.40625 C 1.390625 -4.40625 0.34375 -3.421875 0.34375 -2.140625 C 0.34375 -0.875 1.3125 0.109375 2.453125 0.109375 C 3.09375 0.109375 3.53125 -0.234375 3.78125 -0.546875 Z M 3.78125 -3.21875 L 3.78125 -1.171875 C 3.78125 -1 3.78125 -0.984375 3.671875 -0.8125 C 3.375 -0.328125 2.9375 -0.109375 2.5 -0.109375 C 2.046875 -0.109375 1.6875 -0.375 1.453125 -0.75 C 1.203125 -1.15625 1.171875 -1.71875 1.171875 -2.140625 C 1.171875 -2.5 1.1875 -3.09375 1.46875 -3.546875 C 1.6875 -3.859375 2.0625 -4.1875 2.609375 -4.1875 C 2.953125 -4.1875 3.375 -4.03125 3.671875 -3.59375 C 3.78125 -3.421875 3.78125 -3.40625 3.78125 -3.21875 Z M 3.78125 -3.21875 "
   style="stroke:none;stroke-width:0" />
<path
   id="path4195"
   transform="translate(206.547882,134.765)"
   d="M 1.109375 -2.515625 C 1.171875 -4 2.015625 -4.25 2.359375 -4.25 C 3.375 -4.25 3.484375 -2.90625 3.484375 -2.515625 Z M 1.109375 -2.296875 L 3.890625 -2.296875 C 4.109375 -2.296875 4.140625 -2.296875 4.140625 -2.515625 C 4.140625 -3.5 3.59375 -4.46875 2.359375 -4.46875 C 1.203125 -4.46875 0.28125 -3.4375 0.28125 -2.1875 C 0.28125 -0.859375 1.328125 0.109375 2.46875 0.109375 C 3.6875 0.109375 4.140625 -1 4.140625 -1.1875 C 4.140625 -1.28125 4.0625 -1.3125 4 -1.3125 C 3.921875 -1.3125 3.890625 -1.25 3.875 -1.171875 C 3.53125 -0.140625 2.625 -0.140625 2.53125 -0.140625 C 2.03125 -0.140625 1.640625 -0.4375 1.40625 -0.8125 C 1.109375 -1.28125 1.109375 -1.9375 1.109375 -2.296875 Z M 1.109375 -2.296875 "
   style="stroke:none;stroke-width:0" />
</g>
</g>
</g><path
   d="M 343.14546,36 V 32.5"
   style="fill:#000000;fill-opacity:1;fill-rule:nonzero;stroke:#000000;stroke-width:0.79999995;stroke-linecap:butt;stroke-linejoin:round;stroke-miterlimit:10;stroke-dasharray:none;stroke-opacity:1"
   id="path1534"
   inkscape:connector-curvature="0" /><text
   id="text1538"
   style="font-variant:normal;font-weight:normal;font-size:10px;font-family:'DejaVu Sans';-inkscape-font-specification:DejaVuSans;writing-mode:lr-tb;fill:#000000;fill-opacity:1;fill-rule:nonzero;stroke:none;stroke-width:0.99999994"
   x="340.00092"
   y="-21.406252"
   transform="scale(1,-1)"><tspan
     style="stroke-width:0.99999994"
     id="tspan1536"
     y="-21.406252"
     x="340.00092">4</tspan></text>
</g></svg>