<?xml version="1.0" encoding="UTF-8" standalone="no"?>
<!-- Created with Inkscape (http://www.inkscape.org/) -->

<svg
   xmlns:ns1="http://www.iki.fi/pav/software/textext/"
   xmlns:dc="http://purl.org/dc/elements/1.1/"
   xmlns:cc="http://creativecommons.org/ns#"
   xmlns:rdf="http://www.w3.org/1999/02/22-rdf-syntax-ns#"
   xmlns:svg="http://www.w3.org/2000/svg"
   xmlns="http://www.w3.org/2000/svg"
   xmlns:sodipodi="http://sodipodi.sourceforge.net/DTD/sodipodi-0.dtd"
   xmlns:inkscape="http://www.inkscape.org/namespaces/inkscape"
   version="1.1"
   id="svg2378"
   xml:space="preserve"
   width="576"
   height="384"
   viewBox="0 0 576 384"
   sodipodi:docname="bg_sigmoid.svg"
   inkscape:version="0.92.4 5da689c313, 2019-01-14"><metadata
     id="metadata2384"><rdf:RDF><cc:Work
         rdf:about=""><dc:format>image/svg+xml</dc:format><dc:type
           rdf:resource="http://purl.org/dc/dcmitype/StillImage" /><dc:title></dc:title></cc:Work></rdf:RDF></metadata><defs
     id="defs2382"><clipPath
   clipPathUnits="userSpaceOnUse"
   id="clipPath2398"><path
     d="M 54,36 H 388.8 V 253.44 H 54 Z"
     id="path2396"
     inkscape:connector-curvature="0" /></clipPath><clipPath
   clipPathUnits="userSpaceOnUse"
   id="clipPath2420"><path
     d="M -1021,-463 H 1794 V 1233 H -1021 Z"
     id="path2418"
     inkscape:connector-curvature="0" /></clipPath><clipPath
   clipPathUnits="userSpaceOnUse"
   id="clipPath2430"><path
     d="M 54,36 H 388.8 V 253.44 H 54 Z"
     id="path2428"
     inkscape:connector-curvature="0" /></clipPath><clipPath
   clipPathUnits="userSpaceOnUse"
   id="clipPath2452"><path
     d="M -1021,-463 H 1794 V 1233 H -1021 Z"
     id="path2450"
     inkscape:connector-curvature="0" /></clipPath><clipPath
   clipPathUnits="userSpaceOnUse"
   id="clipPath2462"><path
     d="M 54,36 H 388.8 V 253.44 H 54 Z"
     id="path2460"
     inkscape:connector-curvature="0" /></clipPath><clipPath
   clipPathUnits="userSpaceOnUse"
   id="clipPath2480"><path
     d="M 54,36 H 388.8 V 253.44 H 54 Z"
     id="path2478"
     inkscape:connector-curvature="0" /></clipPath><clipPath
   clipPathUnits="userSpaceOnUse"
   id="clipPath2498"><path
     d="M 54,36 H 388.8 V 253.44 H 54 Z"
     id="path2496"
     inkscape:connector-curvature="0" /></clipPath><clipPath
   clipPathUnits="userSpaceOnUse"
   id="clipPath2520"><path
     d="M 54,36 H 388.8 V 253.44 H 54 Z"
     id="path2518"
     inkscape:connector-curvature="0" /></clipPath><clipPath
   clipPathUnits="userSpaceOnUse"
   id="clipPath2538"><path
     d="M 54,36 H 388.8 V 253.44 H 54 Z"
     id="path2536"
     inkscape:connector-curvature="0" /></clipPath><clipPath
   clipPathUnits="userSpaceOnUse"
   id="clipPath2556"><path
     d="M 54,36 H 388.8 V 253.44 H 54 Z"
     id="path2554"
     inkscape:connector-curvature="0" /></clipPath><clipPath
   clipPathUnits="userSpaceOnUse"
   id="clipPath2574"><path
     d="M 54,36 H 388.8 V 253.44 H 54 Z"
     id="path2572"
     inkscape:connector-curvature="0" /></clipPath><clipPath
   clipPathUnits="userSpaceOnUse"
   id="clipPath2592"><path
     d="M 54,36 H 388.8 V 253.44 H 54 Z"
     id="path2590"
     inkscape:connector-curvature="0" /></clipPath><clipPath
   clipPathUnits="userSpaceOnUse"
   id="clipPath2610"><path
     d="M 54,36 H 388.8 V 253.44 H 54 Z"
     id="path2608"
     inkscape:connector-curvature="0" /></clipPath><clipPath
   clipPathUnits="userSpaceOnUse"
   id="clipPath2632"><path
     d="M 54,36 H 388.8 V 253.44 H 54 Z"
     id="path2630"
     inkscape:connector-curvature="0" /></clipPath>



</defs><sodipodi:namedview
     pagecolor="#ffffff"
     bordercolor="#666666"
     borderopacity="1"
     objecttolerance="10"
     gridtolerance="10"
     guidetolerance="10"
     inkscape:pageopacity="0"
     inkscape:pageshadow="2"
     inkscape:window-width="1920"
     inkscape:window-height="1052"
     id="namedview2380"
     showgrid="false"
     inkscape:zoom="1.847168"
     inkscape:cx="258.37774"
     inkscape:cy="98.891172"
     inkscape:window-x="0"
     inkscape:window-y="28"
     inkscape:window-maximized="1"
     inkscape:current-layer="g2386" /><g
     id="g2386"
     inkscape:groupmode="layer"
     inkscape:label="bg_sigmoid"
     transform="matrix(1.3333333,0,0,-1.3333333,0,384)"><path
       d="M 0,0 H 432 V 288 H 0 Z"
       style="fill:#ffffff;fill-opacity:1;fill-rule:nonzero;stroke:none"
       id="path2388"
       inkscape:connector-curvature="0" /><path
       d="M 54,36 H 388.8 V 253.44 H 54 Z"
       style="fill:#ffffff;fill-opacity:1;fill-rule:nonzero;stroke:none"
       id="path2390"
       inkscape:connector-curvature="0" /><g
       id="g2392"><g
         id="g2394"
         clip-path="url(#clipPath2398)"><path
           d="M 99.654545,36 V 253.44"
           style="fill:none;stroke:#b0b0b0;stroke-width:0.5;stroke-linecap:butt;stroke-linejoin:round;stroke-miterlimit:10;stroke-dasharray:1.85, 0.8;stroke-dashoffset:0;stroke-opacity:1"
           id="path2400"
           inkscape:connector-curvature="0" /></g></g><g
       id="g2402"><path
         d="M 99.654545,36 V 32.5"
         style="fill:#000000;fill-opacity:1;fill-rule:nonzero;stroke:#000000;stroke-width:0.80000001;stroke-linecap:butt;stroke-linejoin:round;stroke-miterlimit:10;stroke-dasharray:none;stroke-opacity:1"
         id="path2404"
         inkscape:connector-curvature="0" /><g
         id="g2406"
         transform="translate(92.287358,21.40625)"><text
   transform="matrix(1,0,0,-1,8.3789063,0)"
   style="font-variant:normal;font-weight:normal;font-size:10px;font-family:'DejaVu Sans';-inkscape-font-specification:DejaVuSans;writing-mode:lr-tb;fill:#000000;fill-opacity:1;fill-rule:nonzero;stroke:none"
   id="text2410"><tspan
     x="0"
     y="0"
     id="tspan2408">4</tspan></text>




<g
   id="g2412"
   transform="scale(0.01)"><g
     id="g2414"><g
       id="g2416"
       clip-path="url(#clipPath2420)"><path
         d="M 106,355 H 732 V 272 H 106 v 83"
         style="fill:#000000;fill-opacity:1;fill-rule:nonzero;stroke:none"
         id="path2422"
         inkscape:connector-curvature="0" /></g></g></g></g></g><g
       id="g2424"><g
         id="g2426"
         clip-path="url(#clipPath2430)"><path
           d="M 160.52727,36 V 253.44"
           style="fill:none;stroke:#b0b0b0;stroke-width:0.5;stroke-linecap:butt;stroke-linejoin:round;stroke-miterlimit:10;stroke-dasharray:1.85, 0.8;stroke-dashoffset:0;stroke-opacity:1"
           id="path2432"
           inkscape:connector-curvature="0" /></g></g><g
       id="g2434"><path
         d="M 160.52727,36 V 32.5"
         style="fill:#000000;fill-opacity:1;fill-rule:nonzero;stroke:#000000;stroke-width:0.80000001;stroke-linecap:butt;stroke-linejoin:round;stroke-miterlimit:10;stroke-dasharray:none;stroke-opacity:1"
         id="path2436"
         inkscape:connector-curvature="0" /><g
         id="g2438"
         transform="translate(153.16009,21.40625)"><text
   transform="matrix(1,0,0,-1,8.3789063,0)"
   style="font-variant:normal;font-weight:normal;font-size:10px;font-family:'DejaVu Sans';-inkscape-font-specification:DejaVuSans;writing-mode:lr-tb;fill:#000000;fill-opacity:1;fill-rule:nonzero;stroke:none"
   id="text2442"><tspan
     x="0"
     y="0"
     id="tspan2440">2</tspan></text>




<g
   id="g2444"
   transform="scale(0.01)"><g
     id="g2446"><g
       id="g2448"
       clip-path="url(#clipPath2452)"><path
         d="M 106,355 H 732 V 272 H 106 v 83"
         style="fill:#000000;fill-opacity:1;fill-rule:nonzero;stroke:none"
         id="path2454"
         inkscape:connector-curvature="0" /></g></g></g></g></g><g
       id="g2456"><g
         id="g2458"
         clip-path="url(#clipPath2462)"><path
           d="M 221.4,36 V 253.44"
           style="fill:none;stroke:#b0b0b0;stroke-width:0.5;stroke-linecap:butt;stroke-linejoin:round;stroke-miterlimit:10;stroke-dasharray:1.85, 0.8;stroke-dashoffset:0;stroke-opacity:1"
           id="path2464"
           inkscape:connector-curvature="0" /></g></g><g
       id="g2466"><path
   d="M 221.4,36 V 32.5"
   style="fill:#000000;fill-opacity:1;fill-rule:nonzero;stroke:#000000;stroke-width:0.80000001;stroke-linecap:butt;stroke-linejoin:round;stroke-miterlimit:10;stroke-dasharray:none;stroke-opacity:1"
   id="path2468"
   inkscape:connector-curvature="0" /><text
   transform="matrix(1,0,0,-1,218.22031,21.40625)"
   style="font-variant:normal;font-weight:normal;font-size:10px;font-family:'DejaVu Sans';-inkscape-font-specification:DejaVuSans;writing-mode:lr-tb;fill:#000000;fill-opacity:1;fill-rule:nonzero;stroke:none"
   id="text2472"><tspan
     x="0"
     y="0"
     id="tspan2470">0</tspan></text>




</g><g
       id="g2474"><g
         id="g2476"
         clip-path="url(#clipPath2480)"><path
           d="M 282.27273,36 V 253.44"
           style="fill:none;stroke:#b0b0b0;stroke-width:0.5;stroke-linecap:butt;stroke-linejoin:round;stroke-miterlimit:10;stroke-dasharray:1.85, 0.8;stroke-dashoffset:0;stroke-opacity:1"
           id="path2482"
           inkscape:connector-curvature="0" /></g></g><g
       id="g2484"><path
   d="M 282.27273,36 V 32.5"
   style="fill:#000000;fill-opacity:1;fill-rule:nonzero;stroke:#000000;stroke-width:0.80000001;stroke-linecap:butt;stroke-linejoin:round;stroke-miterlimit:10;stroke-dasharray:none;stroke-opacity:1"
   id="path2486"
   inkscape:connector-curvature="0" /><text
   transform="matrix(1,0,0,-1,279.09304,21.40625)"
   style="font-variant:normal;font-weight:normal;font-size:10px;font-family:'DejaVu Sans';-inkscape-font-specification:DejaVuSans;writing-mode:lr-tb;fill:#000000;fill-opacity:1;fill-rule:nonzero;stroke:none"
   id="text2490"><tspan
     x="0"
     y="0"
     id="tspan2488">2</tspan></text>




</g><g
       id="g2492"><g
         id="g2494"
         clip-path="url(#clipPath2498)"><path
           d="M 343.14546,36 V 253.44"
           style="fill:none;stroke:#b0b0b0;stroke-width:0.5;stroke-linecap:butt;stroke-linejoin:round;stroke-miterlimit:10;stroke-dasharray:1.85, 0.8;stroke-dashoffset:0;stroke-opacity:1"
           id="path2500"
           inkscape:connector-curvature="0" /></g></g><g
       id="g2514"><g
         id="g2516"
         clip-path="url(#clipPath2520)"><path
           d="M 54,44.542693 H 388.8"
           style="fill:none;stroke:#b0b0b0;stroke-width:0.5;stroke-linecap:butt;stroke-linejoin:round;stroke-miterlimit:10;stroke-dasharray:1.85, 0.8;stroke-dashoffset:0;stroke-opacity:1"
           id="path2522"
           inkscape:connector-curvature="0" /></g></g><g
       id="g2524"><path
   d="M 54,44.542693 H 50.5"
   style="fill:#000000;fill-opacity:1;fill-rule:nonzero;stroke:#000000;stroke-width:0.80000001;stroke-linecap:butt;stroke-linejoin:round;stroke-miterlimit:10;stroke-dasharray:none;stroke-opacity:1"
   id="path2526"
   inkscape:connector-curvature="0" /><text
   transform="matrix(1,0,0,-1,31.09375,40.745818)"
   style="font-variant:normal;font-weight:normal;font-size:10px;font-family:'DejaVu Sans';-inkscape-font-specification:DejaVuSans;writing-mode:lr-tb;fill:#000000;fill-opacity:1;fill-rule:nonzero;stroke:none"
   id="text2530"><tspan
     x="0 6.3600001 9.54"
     y="0"
     sodipodi:role="line"
     id="tspan2528">0.0</tspan></text>




</g><g
       id="g2532"><g
         id="g2534"
         clip-path="url(#clipPath2538)"><path
           d="M 54,84.613616 H 388.8"
           style="fill:none;stroke:#b0b0b0;stroke-width:0.5;stroke-linecap:butt;stroke-linejoin:round;stroke-miterlimit:10;stroke-dasharray:1.85, 0.8;stroke-dashoffset:0;stroke-opacity:1"
           id="path2540"
           inkscape:connector-curvature="0" /></g></g><g
       id="g2542"><path
   d="M 54,84.613616 H 50.5"
   style="fill:#000000;fill-opacity:1;fill-rule:nonzero;stroke:#000000;stroke-width:0.80000001;stroke-linecap:butt;stroke-linejoin:round;stroke-miterlimit:10;stroke-dasharray:none;stroke-opacity:1"
   id="path2544"
   inkscape:connector-curvature="0" /><text
   transform="matrix(1,0,0,-1,31.09375,80.816741)"
   style="font-variant:normal;font-weight:normal;font-size:10px;font-family:'DejaVu Sans';-inkscape-font-specification:DejaVuSans;writing-mode:lr-tb;fill:#000000;fill-opacity:1;fill-rule:nonzero;stroke:none"
   id="text2548"><tspan
     x="0 6.3600001 9.54"
     y="0"
     sodipodi:role="line"
     id="tspan2546">0.2</tspan></text>




</g><g
       id="g2550"><g
         id="g2552"
         clip-path="url(#clipPath2556)"><path
           d="M 54,124.68454 H 388.8"
           style="fill:none;stroke:#b0b0b0;stroke-width:0.5;stroke-linecap:butt;stroke-linejoin:round;stroke-miterlimit:10;stroke-dasharray:1.85, 0.8;stroke-dashoffset:0;stroke-opacity:1"
           id="path2558"
           inkscape:connector-curvature="0" /></g></g><g
       id="g2560"><path
   d="M 54,124.68454 H 50.5"
   style="fill:#000000;fill-opacity:1;fill-rule:nonzero;stroke:#000000;stroke-width:0.80000001;stroke-linecap:butt;stroke-linejoin:round;stroke-miterlimit:10;stroke-dasharray:none;stroke-opacity:1"
   id="path2562"
   inkscape:connector-curvature="0" /><text
   transform="matrix(1,0,0,-1,31.09375,120.88766)"
   style="font-variant:normal;font-weight:normal;font-size:10px;font-family:'DejaVu Sans';-inkscape-font-specification:DejaVuSans;writing-mode:lr-tb;fill:#000000;fill-opacity:1;fill-rule:nonzero;stroke:none"
   id="text2566"><tspan
     x="0 6.3600001 9.54"
     y="0"
     sodipodi:role="line"
     id="tspan2564">0.4</tspan></text>




</g><g
       id="g2568"><g
         id="g2570"
         clip-path="url(#clipPath2574)"><path
           d="M 54,164.75546 H 388.8"
           style="fill:none;stroke:#b0b0b0;stroke-width:0.5;stroke-linecap:butt;stroke-linejoin:round;stroke-miterlimit:10;stroke-dasharray:1.85, 0.8;stroke-dashoffset:0;stroke-opacity:1"
           id="path2576"
           inkscape:connector-curvature="0" /></g></g><g
       id="g2578"><path
   d="M 54,164.75546 H 50.5"
   style="fill:#000000;fill-opacity:1;fill-rule:nonzero;stroke:#000000;stroke-width:0.80000001;stroke-linecap:butt;stroke-linejoin:round;stroke-miterlimit:10;stroke-dasharray:none;stroke-opacity:1"
   id="path2580"
   inkscape:connector-curvature="0" /><text
   transform="matrix(1,0,0,-1,31.09375,160.95859)"
   style="font-variant:normal;font-weight:normal;font-size:10px;font-family:'DejaVu Sans';-inkscape-font-specification:DejaVuSans;writing-mode:lr-tb;fill:#000000;fill-opacity:1;fill-rule:nonzero;stroke:none"
   id="text2584"><tspan
     x="0 6.3600001 9.54"
     y="0"
     sodipodi:role="line"
     id="tspan2582">0.6</tspan></text>




</g><g
       id="g2586"><g
         id="g2588"
         clip-path="url(#clipPath2592)"><path
           d="M 54,204.82638 H 388.8"
           style="fill:none;stroke:#b0b0b0;stroke-width:0.5;stroke-linecap:butt;stroke-linejoin:round;stroke-miterlimit:10;stroke-dasharray:1.85, 0.8;stroke-dashoffset:0;stroke-opacity:1"
           id="path2594"
           inkscape:connector-curvature="0" /></g></g><g
       id="g2596"><path
   d="M 54,204.82638 H 50.5"
   style="fill:#000000;fill-opacity:1;fill-rule:nonzero;stroke:#000000;stroke-width:0.80000001;stroke-linecap:butt;stroke-linejoin:round;stroke-miterlimit:10;stroke-dasharray:none;stroke-opacity:1"
   id="path2598"
   inkscape:connector-curvature="0" /><text
   transform="matrix(1,0,0,-1,31.09375,201.02951)"
   style="font-variant:normal;font-weight:normal;font-size:10px;font-family:'DejaVu Sans';-inkscape-font-specification:DejaVuSans;writing-mode:lr-tb;fill:#000000;fill-opacity:1;fill-rule:nonzero;stroke:none"
   id="text2602"><tspan
     x="0 6.3600001 9.54"
     y="0"
     sodipodi:role="line"
     id="tspan2600">0.8</tspan></text>




</g><g
       id="g2604"><g
         id="g2606"
         clip-path="url(#clipPath2610)"><path
           d="M 54,244.89731 H 388.8"
           style="fill:none;stroke:#b0b0b0;stroke-width:0.5;stroke-linecap:butt;stroke-linejoin:round;stroke-miterlimit:10;stroke-dasharray:1.85, 0.8;stroke-dashoffset:0;stroke-opacity:1"
           id="path2612"
           inkscape:connector-curvature="0" /></g></g><g
       id="g2626"><g
         id="g2628"
         clip-path="url(#clipPath2632)"><path
           d="m 69.218182,45.883636 3.07438,0.141472 3.07438,0.156274 3.07438,0.172598 3.07438,0.190594 3.074381,0.210426 3.07438,0.232272 3.07438,0.256327 3.07438,0.282798 3.07438,0.311915 3.07438,0.343921 3.074377,0.37908 3.07438,0.417673 3.07438,0.46 3.07438,0.506383 3.07438,0.557157 3.07438,0.612678 3.07439,0.673314 3.07438,0.739448 3.07438,0.811473 3.07437,0.889783 3.07438,0.974775 3.07438,1.066834 3.07439,1.166332 3.07438,1.273609 3.07438,1.388965 3.07438,1.512648 3.07438,1.644832 3.07438,1.7856 3.07438,1.934926 3.07438,2.09265 3.07438,2.258457 3.07438,2.431853 3.07438,2.612148 3.07438,2.798425 3.07438,2.989536 3.07438,3.184085 3.07438,3.380422 3.07438,3.576653 3.07438,3.770656 3.07438,3.960102 3.07438,4.14248 3.07438,4.31523 3.07438,4.47566 3.07438,4.62117 3.07438,4.74923 3.07438,4.85755 3.07438,4.94409 3.07438,5.00715 3.07438,5.04552 3.07438,5.05838 3.07438,5.04551 3.07438,5.00716 3.07438,4.94409 3.07438,4.85755 3.07438,4.74924 3.07438,4.62116 3.07438,4.47566 3.07438,4.31522 3.07438,4.14249 3.07438,3.9601 3.07438,3.77066 3.07438,3.57665 3.07438,3.38042 3.07438,3.18409 3.07438,2.98953 3.07438,2.79843 3.07438,2.61215 3.07438,2.43185 3.07438,2.25846 3.07438,2.09265 3.07438,1.93492 3.07438,1.7856 3.07438,1.64483 3.07438,1.51265 3.07438,1.38897 3.07438,1.27361 3.07438,1.16633 3.07438,1.06683 3.07438,0.97478 3.07438,0.88978 3.07438,0.81147 3.07438,0.73945 3.07439,0.67332 3.07438,0.61267 3.07438,0.55716 3.07438,0.50638 3.07438,0.46 3.07438,0.41768 3.07438,0.37908 3.07438,0.34392 3.07438,0.31191 3.07438,0.2828 3.07438,0.25633 3.07438,0.23227 3.07438,0.21043 3.07438,0.19059 3.07438,0.1726 3.07438,0.15627 3.07438,0.14147"
           style="fill:none;stroke:#000000;stroke-width:0.69999999;stroke-linecap:square;stroke-linejoin:round;stroke-miterlimit:10;stroke-dasharray:none;stroke-opacity:1"
           id="path2634"
           inkscape:connector-curvature="0" /></g></g><g
       id="g2636"><path
         d="M 54,36 V 253.44"
         style="fill:none;stroke:#000000;stroke-width:0.80000001;stroke-linecap:square;stroke-linejoin:miter;stroke-miterlimit:10;stroke-dasharray:none;stroke-opacity:1"
         id="path2638"
         inkscape:connector-curvature="0" /><path
         d="M 388.8,36 V 253.44"
         style="fill:none;stroke:#000000;stroke-width:0.80000001;stroke-linecap:square;stroke-linejoin:miter;stroke-miterlimit:10;stroke-dasharray:none;stroke-opacity:1"
         id="path2640"
         inkscape:connector-curvature="0" /><path
         d="M 54,36 H 388.8"
         style="fill:none;stroke:#000000;stroke-width:0.80000001;stroke-linecap:square;stroke-linejoin:miter;stroke-miterlimit:10;stroke-dasharray:none;stroke-opacity:1"
         id="path2642"
         inkscape:connector-curvature="0" /><path
         d="M 54,253.44 H 388.8"
         style="fill:none;stroke:#000000;stroke-width:0.80000001;stroke-linecap:square;stroke-linejoin:miter;stroke-miterlimit:10;stroke-dasharray:none;stroke-opacity:1"
         id="path2644"
         inkscape:connector-curvature="0" /></g><g
       id="g1310"
       ns1:jacobian_sqrt="1.600001"
       inkscapeversion="0.92.4"
       ns1:alignment="middle center"
       ns1:scale="1.2"
       ns1:preamble="/home/tim/.config/inkscape/extensions/textext/default_packages.tex"
       ns1:text="Activation"
       ns1:pdfconverter="pdf2svg"
       ns1:texconverter="pdflatex"
       ns1:version="0.9.1"
       transform="matrix(0.000000,1.600001,1.600001,0.000000,-193.369748,-129.275551)"><g
   id="surface1">
<g
   id="g1295"
   style="fill:rgb(0%,0%,0%);fill-opacity:1;">
  <path
   id="path1285"
   transform="translate(148.712,134.765)"
   d="M 3.96875 -6.9375 C 3.921875 -7.0625 3.890625 -7.140625 3.734375 -7.140625 C 3.578125 -7.140625 3.546875 -7.078125 3.5 -6.9375 L 1.4375 -0.984375 C 1.25 -0.46875 0.859375 -0.3125 0.3125 -0.3125 L 0.3125 0 C 0.546875 -0.015625 0.984375 -0.03125 1.328125 -0.03125 C 1.640625 -0.03125 2.15625 -0.015625 2.484375 0 L 2.484375 -0.3125 C 1.984375 -0.3125 1.734375 -0.5625 1.734375 -0.8125 C 1.734375 -0.84375 1.75 -0.953125 1.75 -0.96875 L 2.21875 -2.265625 L 4.671875 -2.265625 L 5.203125 -0.75 C 5.21875 -0.703125 5.234375 -0.640625 5.234375 -0.609375 C 5.234375 -0.3125 4.671875 -0.3125 4.40625 -0.3125 L 4.40625 0 C 4.765625 -0.03125 5.46875 -0.03125 5.84375 -0.03125 C 6.265625 -0.03125 6.734375 -0.015625 7.140625 0 L 7.140625 -0.3125 L 6.96875 -0.3125 C 6.375 -0.3125 6.234375 -0.375 6.125 -0.703125 Z M 3.4375 -5.828125 L 4.5625 -2.578125 L 2.328125 -2.578125 Z M 3.4375 -5.828125 "
   style="stroke:none;stroke-width:0" />
<path
   id="path1287"
   transform="translate(156.18395,134.765)"
   d="M 1.171875 -2.171875 C 1.171875 -3.796875 1.984375 -4.21875 2.515625 -4.21875 C 2.609375 -4.21875 3.234375 -4.203125 3.578125 -3.84375 C 3.171875 -3.8125 3.109375 -3.515625 3.109375 -3.390625 C 3.109375 -3.125 3.296875 -2.9375 3.5625 -2.9375 C 3.828125 -2.9375 4.03125 -3.09375 4.03125 -3.40625 C 4.03125 -4.078125 3.265625 -4.46875 2.5 -4.46875 C 1.25 -4.46875 0.34375 -3.390625 0.34375 -2.15625 C 0.34375 -0.875 1.328125 0.109375 2.484375 0.109375 C 3.8125 0.109375 4.140625 -1.09375 4.140625 -1.1875 C 4.140625 -1.28125 4.03125 -1.28125 4 -1.28125 C 3.921875 -1.28125 3.890625 -1.25 3.875 -1.1875 C 3.59375 -0.265625 2.9375 -0.140625 2.578125 -0.140625 C 2.046875 -0.140625 1.171875 -0.5625 1.171875 -2.171875 Z M 1.171875 -2.171875 "
   style="stroke:none;stroke-width:0" />
<path
   id="path1289"
   transform="translate(160.611329,134.765)"
   d="M 1.71875 -3.984375 L 3.15625 -3.984375 L 3.15625 -4.296875 L 1.71875 -4.296875 L 1.71875 -6.125 L 1.46875 -6.125 C 1.46875 -5.3125 1.171875 -4.25 0.1875 -4.203125 L 0.1875 -3.984375 L 1.03125 -3.984375 L 1.03125 -1.234375 C 1.03125 -0.015625 1.96875 0.109375 2.328125 0.109375 C 3.03125 0.109375 3.3125 -0.59375 3.3125 -1.234375 L 3.3125 -1.796875 L 3.0625 -1.796875 L 3.0625 -1.25 C 3.0625 -0.515625 2.765625 -0.140625 2.390625 -0.140625 C 1.71875 -0.140625 1.71875 -1.046875 1.71875 -1.21875 Z M 1.71875 -3.984375 "
   style="stroke:none;stroke-width:0" />
<path
   id="path1291"
   transform="translate(164.485785,134.765)"
   d="M 1.765625 -4.40625 L 0.375 -4.296875 L 0.375 -3.984375 C 1.015625 -3.984375 1.109375 -3.921875 1.109375 -3.4375 L 1.109375 -0.75 C 1.109375 -0.3125 1 -0.3125 0.328125 -0.3125 L 0.328125 0 C 0.640625 -0.015625 1.1875 -0.03125 1.421875 -0.03125 C 1.78125 -0.03125 2.125 -0.015625 2.46875 0 L 2.46875 -0.3125 C 1.796875 -0.3125 1.765625 -0.359375 1.765625 -0.75 Z M 1.796875 -6.140625 C 1.796875 -6.453125 1.5625 -6.671875 1.28125 -6.671875 C 0.96875 -6.671875 0.75 -6.40625 0.75 -6.140625 C 0.75 -5.875 0.96875 -5.609375 1.28125 -5.609375 C 1.5625 -5.609375 1.796875 -5.828125 1.796875 -6.140625 Z M 1.796875 -6.140625 "
   style="stroke:none;stroke-width:0" />
<path
   id="path1293"
   transform="translate(167.253395,134.765)"
   d="M 4.140625 -3.3125 C 4.234375 -3.546875 4.40625 -3.984375 5.0625 -3.984375 L 5.0625 -4.296875 C 4.828125 -4.28125 4.546875 -4.265625 4.3125 -4.265625 C 4.078125 -4.265625 3.625 -4.28125 3.453125 -4.296875 L 3.453125 -3.984375 C 3.8125 -3.984375 3.921875 -3.75 3.921875 -3.5625 C 3.921875 -3.46875 3.90625 -3.421875 3.875 -3.3125 L 2.84375 -0.78125 L 1.734375 -3.5625 C 1.671875 -3.6875 1.671875 -3.703125 1.671875 -3.734375 C 1.671875 -3.984375 2.0625 -3.984375 2.25 -3.984375 L 2.25 -4.296875 C 1.9375 -4.28125 1.390625 -4.265625 1.15625 -4.265625 C 0.890625 -4.265625 0.484375 -4.28125 0.1875 -4.296875 L 0.1875 -3.984375 C 0.8125 -3.984375 0.859375 -3.921875 0.984375 -3.625 L 2.421875 -0.078125 C 2.484375 0.0625 2.5 0.109375 2.625 0.109375 C 2.765625 0.109375 2.796875 0.015625 2.84375 -0.078125 Z M 4.140625 -3.3125 "
   style="stroke:none;stroke-width:0" />
</g>
<g
   id="g1307"
   style="fill:rgb(0%,0%,0%);fill-opacity:1;">
  <path
   id="path1297"
   transform="translate(171.95375,134.765)"
   d="M 3.3125 -0.75 C 3.359375 -0.359375 3.625 0.0625 4.09375 0.0625 C 4.3125 0.0625 4.921875 -0.078125 4.921875 -0.890625 L 4.921875 -1.453125 L 4.671875 -1.453125 L 4.671875 -0.890625 C 4.671875 -0.3125 4.421875 -0.25 4.3125 -0.25 C 3.984375 -0.25 3.9375 -0.703125 3.9375 -0.75 L 3.9375 -2.734375 C 3.9375 -3.15625 3.9375 -3.546875 3.578125 -3.921875 C 3.1875 -4.3125 2.6875 -4.46875 2.21875 -4.46875 C 1.390625 -4.46875 0.703125 -4 0.703125 -3.34375 C 0.703125 -3.046875 0.90625 -2.875 1.171875 -2.875 C 1.453125 -2.875 1.625 -3.078125 1.625 -3.328125 C 1.625 -3.453125 1.578125 -3.78125 1.109375 -3.78125 C 1.390625 -4.140625 1.875 -4.25 2.1875 -4.25 C 2.6875 -4.25 3.25 -3.859375 3.25 -2.96875 L 3.25 -2.609375 C 2.734375 -2.578125 2.046875 -2.546875 1.421875 -2.25 C 0.671875 -1.90625 0.421875 -1.390625 0.421875 -0.953125 C 0.421875 -0.140625 1.390625 0.109375 2.015625 0.109375 C 2.671875 0.109375 3.125 -0.296875 3.3125 -0.75 Z M 3.25 -2.390625 L 3.25 -1.390625 C 3.25 -0.453125 2.53125 -0.109375 2.078125 -0.109375 C 1.59375 -0.109375 1.1875 -0.453125 1.1875 -0.953125 C 1.1875 -1.5 1.609375 -2.328125 3.25 -2.390625 Z M 3.25 -2.390625 "
   style="stroke:none;stroke-width:0" />
<path
   id="path1299"
   transform="translate(176.93505,134.765)"
   d="M 1.71875 -3.984375 L 3.15625 -3.984375 L 3.15625 -4.296875 L 1.71875 -4.296875 L 1.71875 -6.125 L 1.46875 -6.125 C 1.46875 -5.3125 1.171875 -4.25 0.1875 -4.203125 L 0.1875 -3.984375 L 1.03125 -3.984375 L 1.03125 -1.234375 C 1.03125 -0.015625 1.96875 0.109375 2.328125 0.109375 C 3.03125 0.109375 3.3125 -0.59375 3.3125 -1.234375 L 3.3125 -1.796875 L 3.0625 -1.796875 L 3.0625 -1.25 C 3.0625 -0.515625 2.765625 -0.140625 2.390625 -0.140625 C 1.71875 -0.140625 1.71875 -1.046875 1.71875 -1.21875 Z M 1.71875 -3.984375 "
   style="stroke:none;stroke-width:0" />
<path
   id="path1301"
   transform="translate(180.809505,134.765)"
   d="M 1.765625 -4.40625 L 0.375 -4.296875 L 0.375 -3.984375 C 1.015625 -3.984375 1.109375 -3.921875 1.109375 -3.4375 L 1.109375 -0.75 C 1.109375 -0.3125 1 -0.3125 0.328125 -0.3125 L 0.328125 0 C 0.640625 -0.015625 1.1875 -0.03125 1.421875 -0.03125 C 1.78125 -0.03125 2.125 -0.015625 2.46875 0 L 2.46875 -0.3125 C 1.796875 -0.3125 1.765625 -0.359375 1.765625 -0.75 Z M 1.796875 -6.140625 C 1.796875 -6.453125 1.5625 -6.671875 1.28125 -6.671875 C 0.96875 -6.671875 0.75 -6.40625 0.75 -6.140625 C 0.75 -5.875 0.96875 -5.609375 1.28125 -5.609375 C 1.5625 -5.609375 1.796875 -5.828125 1.796875 -6.140625 Z M 1.796875 -6.140625 "
   style="stroke:none;stroke-width:0" />
<path
   id="path1303"
   transform="translate(183.577115,134.765)"
   d="M 4.6875 -2.140625 C 4.6875 -3.40625 3.703125 -4.46875 2.5 -4.46875 C 1.25 -4.46875 0.28125 -3.375 0.28125 -2.140625 C 0.28125 -0.84375 1.3125 0.109375 2.484375 0.109375 C 3.6875 0.109375 4.6875 -0.875 4.6875 -2.140625 Z M 2.5 -0.140625 C 2.0625 -0.140625 1.625 -0.34375 1.359375 -0.8125 C 1.109375 -1.25 1.109375 -1.859375 1.109375 -2.21875 C 1.109375 -2.609375 1.109375 -3.140625 1.34375 -3.578125 C 1.609375 -4.03125 2.078125 -4.25 2.484375 -4.25 C 2.921875 -4.25 3.34375 -4.03125 3.609375 -3.59375 C 3.875 -3.171875 3.875 -2.59375 3.875 -2.21875 C 3.875 -1.859375 3.875 -1.3125 3.65625 -0.875 C 3.421875 -0.421875 2.984375 -0.140625 2.5 -0.140625 Z M 2.5 -0.140625 "
   style="stroke:none;stroke-width:0" />
<path
   id="path1305"
   transform="translate(188.558415,134.765)"
   d="M 1.09375 -3.421875 L 1.09375 -0.75 C 1.09375 -0.3125 0.984375 -0.3125 0.3125 -0.3125 L 0.3125 0 C 0.671875 -0.015625 1.171875 -0.03125 1.453125 -0.03125 C 1.703125 -0.03125 2.21875 -0.015625 2.5625 0 L 2.5625 -0.3125 C 1.890625 -0.3125 1.78125 -0.3125 1.78125 -0.75 L 1.78125 -2.59375 C 1.78125 -3.625 2.5 -4.1875 3.125 -4.1875 C 3.765625 -4.1875 3.875 -3.65625 3.875 -3.078125 L 3.875 -0.75 C 3.875 -0.3125 3.765625 -0.3125 3.09375 -0.3125 L 3.09375 0 C 3.4375 -0.015625 3.953125 -0.03125 4.21875 -0.03125 C 4.46875 -0.03125 5 -0.015625 5.328125 0 L 5.328125 -0.3125 C 4.8125 -0.3125 4.5625 -0.3125 4.5625 -0.609375 L 4.5625 -2.515625 C 4.5625 -3.375 4.5625 -3.671875 4.25 -4.03125 C 4.109375 -4.203125 3.78125 -4.40625 3.203125 -4.40625 C 2.46875 -4.40625 2 -3.984375 1.71875 -3.359375 L 1.71875 -4.40625 L 0.3125 -4.296875 L 0.3125 -3.984375 C 1.015625 -3.984375 1.09375 -3.921875 1.09375 -3.421875 Z M 1.09375 -3.421875 "
   style="stroke:none;stroke-width:0" />
</g>
</g>
</g><g
       id="g1494"
       ns1:jacobian_sqrt="1.6"
       inkscapeversion="0.92.4"
       ns1:alignment="middle center"
       ns1:scale="1.2"
       ns1:preamble="/home/tim/.config/inkscape/extensions/textext/default_packages.tex"
       ns1:text="Input to Node"
       ns1:pdfconverter="pdf2svg"
       ns1:texconverter="pdflatex"
       ns1:version="0.9.1"
       transform="matrix(1.600000,0.000000,0.000000,-1.600000,-67.894193,221.736848)"><g
   id="g1492">
<g
   id="g1472"
   style="fill:rgb(0%,0%,0%);fill-opacity:1;">
  <path
   id="path1462"
   transform="translate(148.712,134.765)"
   d="M 2.25 -6.03125 C 2.25 -6.390625 2.265625 -6.5 3.0625 -6.5 L 3.3125 -6.5 L 3.3125 -6.8125 C 2.96875 -6.78125 2.1875 -6.78125 1.796875 -6.78125 C 1.421875 -6.78125 0.625 -6.78125 0.28125 -6.8125 L 0.28125 -6.5 L 0.53125 -6.5 C 1.328125 -6.5 1.359375 -6.390625 1.359375 -6.03125 L 1.359375 -0.78125 C 1.359375 -0.421875 1.328125 -0.3125 0.53125 -0.3125 L 0.28125 -0.3125 L 0.28125 0 C 0.625 -0.03125 1.421875 -0.03125 1.796875 -0.03125 C 2.1875 -0.03125 2.96875 -0.03125 3.3125 0 L 3.3125 -0.3125 L 3.0625 -0.3125 C 2.265625 -0.3125 2.25 -0.421875 2.25 -0.78125 Z M 2.25 -6.03125 "
   style="stroke:none;stroke-width:0" />
<path
   id="path1464"
   transform="translate(152.309495,134.765)"
   d="M 1.09375 -3.421875 L 1.09375 -0.75 C 1.09375 -0.3125 0.984375 -0.3125 0.3125 -0.3125 L 0.3125 0 C 0.671875 -0.015625 1.171875 -0.03125 1.453125 -0.03125 C 1.703125 -0.03125 2.21875 -0.015625 2.5625 0 L 2.5625 -0.3125 C 1.890625 -0.3125 1.78125 -0.3125 1.78125 -0.75 L 1.78125 -2.59375 C 1.78125 -3.625 2.5 -4.1875 3.125 -4.1875 C 3.765625 -4.1875 3.875 -3.65625 3.875 -3.078125 L 3.875 -0.75 C 3.875 -0.3125 3.765625 -0.3125 3.09375 -0.3125 L 3.09375 0 C 3.4375 -0.015625 3.953125 -0.03125 4.21875 -0.03125 C 4.46875 -0.03125 5 -0.015625 5.328125 0 L 5.328125 -0.3125 C 4.8125 -0.3125 4.5625 -0.3125 4.5625 -0.609375 L 4.5625 -2.515625 C 4.5625 -3.375 4.5625 -3.671875 4.25 -4.03125 C 4.109375 -4.203125 3.78125 -4.40625 3.203125 -4.40625 C 2.46875 -4.40625 2 -3.984375 1.71875 -3.359375 L 1.71875 -4.40625 L 0.3125 -4.296875 L 0.3125 -3.984375 C 1.015625 -3.984375 1.09375 -3.921875 1.09375 -3.421875 Z M 1.09375 -3.421875 "
   style="stroke:none;stroke-width:0" />
<path
   id="path1466"
   transform="translate(157.844715,134.765)"
   d="M 1.71875 -3.75 L 1.71875 -4.40625 L 0.28125 -4.296875 L 0.28125 -3.984375 C 0.984375 -3.984375 1.0625 -3.921875 1.0625 -3.484375 L 1.0625 1.171875 C 1.0625 1.625 0.953125 1.625 0.28125 1.625 L 0.28125 1.9375 C 0.625 1.921875 1.140625 1.90625 1.390625 1.90625 C 1.671875 1.90625 2.171875 1.921875 2.515625 1.9375 L 2.515625 1.625 C 1.859375 1.625 1.75 1.625 1.75 1.171875 L 1.75 -0.59375 C 1.796875 -0.421875 2.21875 0.109375 2.96875 0.109375 C 4.15625 0.109375 5.1875 -0.875 5.1875 -2.15625 C 5.1875 -3.421875 4.234375 -4.40625 3.109375 -4.40625 C 2.328125 -4.40625 1.90625 -3.96875 1.71875 -3.75 Z M 1.75 -1.140625 L 1.75 -3.359375 C 2.03125 -3.875 2.515625 -4.15625 3.03125 -4.15625 C 3.765625 -4.15625 4.359375 -3.28125 4.359375 -2.15625 C 4.359375 -0.953125 3.671875 -0.109375 2.9375 -0.109375 C 2.53125 -0.109375 2.15625 -0.3125 1.890625 -0.71875 C 1.75 -0.921875 1.75 -0.9375 1.75 -1.140625 Z M 1.75 -1.140625 "
   style="stroke:none;stroke-width:0" />
<path
   id="path1468"
   transform="translate(163.379936,134.765)"
   d="M 3.890625 -0.78125 L 3.890625 0.109375 L 5.328125 0 L 5.328125 -0.3125 C 4.640625 -0.3125 4.5625 -0.375 4.5625 -0.875 L 4.5625 -4.40625 L 3.09375 -4.296875 L 3.09375 -3.984375 C 3.78125 -3.984375 3.875 -3.921875 3.875 -3.421875 L 3.875 -1.65625 C 3.875 -0.78125 3.390625 -0.109375 2.65625 -0.109375 C 1.828125 -0.109375 1.78125 -0.578125 1.78125 -1.09375 L 1.78125 -4.40625 L 0.3125 -4.296875 L 0.3125 -3.984375 C 1.09375 -3.984375 1.09375 -3.953125 1.09375 -3.078125 L 1.09375 -1.578125 C 1.09375 -0.796875 1.09375 0.109375 2.609375 0.109375 C 3.171875 0.109375 3.609375 -0.171875 3.890625 -0.78125 Z M 3.890625 -0.78125 "
   style="stroke:none;stroke-width:0" />
<path
   id="path1470"
   transform="translate(168.915157,134.765)"
   d="M 1.71875 -3.984375 L 3.15625 -3.984375 L 3.15625 -4.296875 L 1.71875 -4.296875 L 1.71875 -6.125 L 1.46875 -6.125 C 1.46875 -5.3125 1.171875 -4.25 0.1875 -4.203125 L 0.1875 -3.984375 L 1.03125 -3.984375 L 1.03125 -1.234375 C 1.03125 -0.015625 1.96875 0.109375 2.328125 0.109375 C 3.03125 0.109375 3.3125 -0.59375 3.3125 -1.234375 L 3.3125 -1.796875 L 3.0625 -1.796875 L 3.0625 -1.25 C 3.0625 -0.515625 2.765625 -0.140625 2.390625 -0.140625 C 1.71875 -0.140625 1.71875 -1.046875 1.71875 -1.21875 Z M 1.71875 -3.984375 "
   style="stroke:none;stroke-width:0" />
</g>
<g
   id="g1478"
   style="fill:rgb(0%,0%,0%);fill-opacity:1;">
  <path
   id="path1474"
   transform="translate(176.107157,134.765)"
   d="M 1.71875 -3.984375 L 3.15625 -3.984375 L 3.15625 -4.296875 L 1.71875 -4.296875 L 1.71875 -6.125 L 1.46875 -6.125 C 1.46875 -5.3125 1.171875 -4.25 0.1875 -4.203125 L 0.1875 -3.984375 L 1.03125 -3.984375 L 1.03125 -1.234375 C 1.03125 -0.015625 1.96875 0.109375 2.328125 0.109375 C 3.03125 0.109375 3.3125 -0.59375 3.3125 -1.234375 L 3.3125 -1.796875 L 3.0625 -1.796875 L 3.0625 -1.25 C 3.0625 -0.515625 2.765625 -0.140625 2.390625 -0.140625 C 1.71875 -0.140625 1.71875 -1.046875 1.71875 -1.21875 Z M 1.71875 -3.984375 "
   style="stroke:none;stroke-width:0" />
<path
   id="path1476"
   transform="translate(179.981613,134.765)"
   d="M 4.6875 -2.140625 C 4.6875 -3.40625 3.703125 -4.46875 2.5 -4.46875 C 1.25 -4.46875 0.28125 -3.375 0.28125 -2.140625 C 0.28125 -0.84375 1.3125 0.109375 2.484375 0.109375 C 3.6875 0.109375 4.6875 -0.875 4.6875 -2.140625 Z M 2.5 -0.140625 C 2.0625 -0.140625 1.625 -0.34375 1.359375 -0.8125 C 1.109375 -1.25 1.109375 -1.859375 1.109375 -2.21875 C 1.109375 -2.609375 1.109375 -3.140625 1.34375 -3.578125 C 1.609375 -4.03125 2.078125 -4.25 2.484375 -4.25 C 2.921875 -4.25 3.34375 -4.03125 3.609375 -3.59375 C 3.875 -3.171875 3.875 -2.59375 3.875 -2.21875 C 3.875 -1.859375 3.875 -1.3125 3.65625 -0.875 C 3.421875 -0.421875 2.984375 -0.140625 2.5 -0.140625 Z M 2.5 -0.140625 "
   style="stroke:none;stroke-width:0" />
</g>
<g
   id="g1484"
   style="fill:rgb(0%,0%,0%);fill-opacity:1;">
  <path
   id="path1480"
   transform="translate(188.290421,134.765)"
   d="M 2.3125 -6.671875 C 2.21875 -6.796875 2.21875 -6.8125 2.03125 -6.8125 L 0.328125 -6.8125 L 0.328125 -6.5 L 0.625 -6.5 C 0.765625 -6.5 0.96875 -6.484375 1.109375 -6.484375 C 1.34375 -6.453125 1.359375 -6.4375 1.359375 -6.25 L 1.359375 -1.046875 C 1.359375 -0.78125 1.359375 -0.3125 0.328125 -0.3125 L 0.328125 0 C 0.671875 -0.015625 1.171875 -0.03125 1.5 -0.03125 C 1.828125 -0.03125 2.3125 -0.015625 2.65625 0 L 2.65625 -0.3125 C 1.640625 -0.3125 1.640625 -0.78125 1.640625 -1.046875 L 1.640625 -6.234375 C 1.6875 -6.1875 1.6875 -6.171875 1.734375 -6.109375 L 5.796875 -0.125 C 5.890625 -0.015625 5.90625 0 5.96875 0 C 6.109375 0 6.109375 -0.0625 6.109375 -0.265625 L 6.109375 -5.765625 C 6.109375 -6.03125 6.109375 -6.5 7.140625 -6.5 L 7.140625 -6.8125 C 6.78125 -6.796875 6.296875 -6.78125 5.96875 -6.78125 C 5.640625 -6.78125 5.15625 -6.796875 4.8125 -6.8125 L 4.8125 -6.5 C 5.828125 -6.5 5.828125 -6.03125 5.828125 -5.765625 L 5.828125 -1.5 Z M 2.3125 -6.671875 "
   style="stroke:none;stroke-width:0" />
<path
   id="path1482"
   transform="translate(195.762371,134.765)"
   d="M 4.6875 -2.140625 C 4.6875 -3.40625 3.703125 -4.46875 2.5 -4.46875 C 1.25 -4.46875 0.28125 -3.375 0.28125 -2.140625 C 0.28125 -0.84375 1.3125 0.109375 2.484375 0.109375 C 3.6875 0.109375 4.6875 -0.875 4.6875 -2.140625 Z M 2.5 -0.140625 C 2.0625 -0.140625 1.625 -0.34375 1.359375 -0.8125 C 1.109375 -1.25 1.109375 -1.859375 1.109375 -2.21875 C 1.109375 -2.609375 1.109375 -3.140625 1.34375 -3.578125 C 1.609375 -4.03125 2.078125 -4.25 2.484375 -4.25 C 2.921875 -4.25 3.34375 -4.03125 3.609375 -3.59375 C 3.875 -3.171875 3.875 -2.59375 3.875 -2.21875 C 3.875 -1.859375 3.875 -1.3125 3.65625 -0.875 C 3.421875 -0.421875 2.984375 -0.140625 2.5 -0.140625 Z M 2.5 -0.140625 "
   style="stroke:none;stroke-width:0" />
</g>
<g
   id="g1490"
   style="fill:rgb(0%,0%,0%);fill-opacity:1;">
  <path
   id="path1486"
   transform="translate(201.012661,134.765)"
   d="M 3.78125 -0.546875 L 3.78125 0.109375 L 5.25 0 L 5.25 -0.3125 C 4.5625 -0.3125 4.46875 -0.375 4.46875 -0.875 L 4.46875 -6.921875 L 3.046875 -6.8125 L 3.046875 -6.5 C 3.734375 -6.5 3.8125 -6.4375 3.8125 -5.9375 L 3.8125 -3.78125 C 3.53125 -4.140625 3.09375 -4.40625 2.5625 -4.40625 C 1.390625 -4.40625 0.34375 -3.421875 0.34375 -2.140625 C 0.34375 -0.875 1.3125 0.109375 2.453125 0.109375 C 3.09375 0.109375 3.53125 -0.234375 3.78125 -0.546875 Z M 3.78125 -3.21875 L 3.78125 -1.171875 C 3.78125 -1 3.78125 -0.984375 3.671875 -0.8125 C 3.375 -0.328125 2.9375 -0.109375 2.5 -0.109375 C 2.046875 -0.109375 1.6875 -0.375 1.453125 -0.75 C 1.203125 -1.15625 1.171875 -1.71875 1.171875 -2.140625 C 1.171875 -2.5 1.1875 -3.09375 1.46875 -3.546875 C 1.6875 -3.859375 2.0625 -4.1875 2.609375 -4.1875 C 2.953125 -4.1875 3.375 -4.03125 3.671875 -3.59375 C 3.78125 -3.421875 3.78125 -3.40625 3.78125 -3.21875 Z M 3.78125 -3.21875 "
   style="stroke:none;stroke-width:0" />
<path
   id="path1488"
   transform="translate(206.547882,134.765)"
   d="M 1.109375 -2.515625 C 1.171875 -4 2.015625 -4.25 2.359375 -4.25 C 3.375 -4.25 3.484375 -2.90625 3.484375 -2.515625 Z M 1.109375 -2.296875 L 3.890625 -2.296875 C 4.109375 -2.296875 4.140625 -2.296875 4.140625 -2.515625 C 4.140625 -3.5 3.59375 -4.46875 2.359375 -4.46875 C 1.203125 -4.46875 0.28125 -3.4375 0.28125 -2.1875 C 0.28125 -0.859375 1.328125 0.109375 2.46875 0.109375 C 3.6875 0.109375 4.140625 -1 4.140625 -1.1875 C 4.140625 -1.28125 4.0625 -1.3125 4 -1.3125 C 3.921875 -1.3125 3.890625 -1.25 3.875 -1.171875 C 3.53125 -0.140625 2.625 -0.140625 2.53125 -0.140625 C 2.03125 -0.140625 1.640625 -0.4375 1.40625 -0.8125 C 1.109375 -1.28125 1.109375 -1.9375 1.109375 -2.296875 Z M 1.109375 -2.296875 "
   style="stroke:none;stroke-width:0" />
</g>
</g>
</g><path
       d="M 343.14546,36 V 32.5"
       style="fill:#000000;fill-opacity:1;fill-rule:nonzero;stroke:#000000;stroke-width:0.80000001;stroke-linecap:butt;stroke-linejoin:round;stroke-miterlimit:10;stroke-dasharray:none;stroke-opacity:1"
       id="path1534"
       inkscape:connector-curvature="0" /><text
       id="text1538"
       style="font-variant:normal;font-weight:normal;font-size:10px;font-family:'DejaVu Sans';-inkscape-font-specification:DejaVuSans;writing-mode:lr-tb;fill:#000000;fill-opacity:1;fill-rule:nonzero;stroke:none"
       transform="scale(1,-1)"
       x="340.00092"
       y="-21.40625"><tspan
         id="tspan1536"
         y="-21.40625"
         x="340.00092">4</tspan></text>
</g></svg>