<?xml version="1.0" encoding="UTF-8" standalone="no"?>
<!-- Created with Inkscape (http://www.inkscape.org/) -->

<svg
   xmlns:ns1="http://www.iki.fi/pav/software/textext/"
   xmlns:dc="http://purl.org/dc/elements/1.1/"
   xmlns:cc="http://creativecommons.org/ns#"
   xmlns:rdf="http://www.w3.org/1999/02/22-rdf-syntax-ns#"
   xmlns:svg="http://www.w3.org/2000/svg"
   xmlns="http://www.w3.org/2000/svg"
   xmlns:sodipodi="http://sodipodi.sourceforge.net/DTD/sodipodi-0.dtd"
   xmlns:inkscape="http://www.inkscape.org/namespaces/inkscape"
   width="210mm"
   height="297mm"
   viewBox="0 0 210 297"
   version="1.1"
   id="svg986"
   inkscape:version="0.92.4 5da689c313, 2019-01-14"
   sodipodi:docname="bg_starprod.svg">
  <defs
     id="defs980">
    <marker
       inkscape:stockid="Arrow2Mend"
       orient="auto"
       refY="0.0"
       refX="0.0"
       id="marker1739"
       style="overflow:visible;"
       inkscape:isstock="true">
      <path
         id="path1737"
         style="fill-rule:evenodd;stroke-width:0.625;stroke-linejoin:round;stroke:#ffffff;stroke-opacity:1;fill:#ffffff;fill-opacity:1"
         d="M 8.7185878,4.0337352 L -2.2072895,0.016013256 L 8.7185884,-4.0017078 C 6.9730900,-1.6296469 6.9831476,1.6157441 8.7185878,4.0337352 z "
         transform="scale(0.6) rotate(180) translate(0,0)" />
    </marker>
    <marker
       inkscape:isstock="true"
       style="overflow:visible;"
       id="marker1731"
       refX="0.0"
       refY="0.0"
       orient="auto"
       inkscape:stockid="Arrow2Mend">
      <path
         transform="scale(0.6) rotate(180) translate(0,0)"
         d="M 8.7185878,4.0337352 L -2.2072895,0.016013256 L 8.7185884,-4.0017078 C 6.9730900,-1.6296469 6.9831476,1.6157441 8.7185878,4.0337352 z "
         style="fill-rule:evenodd;stroke-width:0.625;stroke-linejoin:round;stroke:#ffffff;stroke-opacity:1;fill:#ffffff;fill-opacity:1"
         id="path1729" />
    </marker>
    <marker
       inkscape:stockid="Arrow2Mend"
       orient="auto"
       refY="0.0"
       refX="0.0"
       id="marker1211"
       style="overflow:visible;"
       inkscape:isstock="true"
       inkscape:collect="always">
      <path
         id="path1209"
         style="fill-rule:evenodd;stroke-width:0.625;stroke-linejoin:round;stroke:#000000;stroke-opacity:1;fill:#000000;fill-opacity:1"
         d="M 8.7185878,4.0337352 L -2.2072895,0.016013256 L 8.7185884,-4.0017078 C 6.9730900,-1.6296469 6.9831476,1.6157441 8.7185878,4.0337352 z "
         transform="scale(0.6) rotate(180) translate(0,0)" />
    </marker>
    <marker
       inkscape:stockid="Arrow2Mend"
       orient="auto"
       refY="0.0"
       refX="0.0"
       id="marker1075"
       style="overflow:visible;"
       inkscape:isstock="true">
      <path
         id="path1073"
         style="fill-rule:evenodd;stroke-width:0.625;stroke-linejoin:round;stroke:#000000;stroke-opacity:1;fill:#000000;fill-opacity:1"
         d="M 8.7185878,4.0337352 L -2.2072895,0.016013256 L 8.7185884,-4.0017078 C 6.9730900,-1.6296469 6.9831476,1.6157441 8.7185878,4.0337352 z "
         transform="scale(0.6) rotate(180) translate(0,0)" />
    </marker>
    <marker
       inkscape:isstock="true"
       style="overflow:visible;"
       id="marker1015"
       refX="0.0"
       refY="0.0"
       orient="auto"
       inkscape:stockid="Arrow2Mend"
       inkscape:collect="always">
      <path
         transform="scale(0.6) rotate(180) translate(0,0)"
         d="M 8.7185878,4.0337352 L -2.2072895,0.016013256 L 8.7185884,-4.0017078 C 6.9730900,-1.6296469 6.9831476,1.6157441 8.7185878,4.0337352 z "
         style="fill-rule:evenodd;stroke-width:0.625;stroke-linejoin:round;stroke:#000000;stroke-opacity:1;fill:#000000;fill-opacity:1"
         id="path1013" />
    </marker>
    <marker
       inkscape:stockid="Arrow2Mend"
       orient="auto"
       refY="0.0"
       refX="0.0"
       id="marker4975"
       style="overflow:visible;"
       inkscape:isstock="true">
      <path
         id="path4973"
         style="fill-rule:evenodd;stroke-width:0.625;stroke-linejoin:round;stroke:#000000;stroke-opacity:1;fill:#000000;fill-opacity:1"
         d="M 8.7185878,4.0337352 L -2.2072895,0.016013256 L 8.7185884,-4.0017078 C 6.9730900,-1.6296469 6.9831476,1.6157441 8.7185878,4.0337352 z "
         transform="scale(0.6) rotate(180) translate(0,0)" />
    </marker>
    <marker
       inkscape:isstock="true"
       style="overflow:visible"
       id="marker2071"
       refX="0"
       refY="0"
       orient="auto"
       inkscape:stockid="TriangleInM">
      <path
         transform="scale(-0.4)"
         style="fill:#000000;fill-opacity:1;fill-rule:evenodd;stroke:#000000;stroke-width:1.00000003pt;stroke-opacity:1"
         d="M 5.77,0 -2.88,5 V -5 Z"
         id="path2069"
         inkscape:connector-curvature="0" />
    </marker>
    <marker
       inkscape:stockid="TriangleInM"
       orient="auto"
       refY="0"
       refX="0"
       id="marker1725"
       style="overflow:visible"
       inkscape:isstock="true">
      <path
         inkscape:connector-curvature="0"
         id="path1723"
         d="M 5.77,0 -2.88,5 V -5 Z"
         style="fill:#000000;fill-opacity:1;fill-rule:evenodd;stroke:#000000;stroke-width:1.00000003pt;stroke-opacity:1"
         transform="scale(-0.4)" />
    </marker>
    <marker
       inkscape:isstock="true"
       style="overflow:visible"
       id="marker4337"
       refX="0"
       refY="0"
       orient="auto"
       inkscape:stockid="TriangleInM">
      <path
         transform="scale(-0.4)"
         style="fill:#000000;fill-opacity:1;fill-rule:evenodd;stroke:#000000;stroke-width:1.00000003pt;stroke-opacity:1"
         d="M 5.77,0 -2.88,5 V -5 Z"
         id="path4335"
         inkscape:connector-curvature="0" />
    </marker>
    <marker
       inkscape:stockid="TriangleInM"
       orient="auto"
       refY="0"
       refX="0"
       id="marker2487"
       style="overflow:visible"
       inkscape:isstock="true"
       inkscape:collect="always">
      <path
         inkscape:connector-curvature="0"
         id="path2485"
         d="M 5.77,0 -2.88,5 V -5 Z"
         style="fill:#000000;fill-opacity:1;fill-rule:evenodd;stroke:#000000;stroke-width:1.00000003pt;stroke-opacity:1"
         transform="scale(-0.4)" />
    </marker>
    <marker
       inkscape:stockid="TriangleInM"
       orient="auto"
       refY="0"
       refX="0"
       id="marker3545"
       style="overflow:visible"
       inkscape:isstock="true">
      <path
         inkscape:connector-curvature="0"
         id="path3543"
         d="M 5.77,0 -2.88,5 V -5 Z"
         style="fill:#000000;fill-opacity:1;fill-rule:evenodd;stroke:#000000;stroke-width:1.00000003pt;stroke-opacity:1"
         transform="scale(-0.4)" />
    </marker>
    <marker
       inkscape:isstock="true"
       style="overflow:visible"
       id="marker3173"
       refX="0"
       refY="0"
       orient="auto"
       inkscape:stockid="TriangleInM"
       inkscape:collect="always">
      <path
         transform="scale(-0.4)"
         style="fill:#000000;fill-opacity:1;fill-rule:evenodd;stroke:#000000;stroke-width:1.00000003pt;stroke-opacity:1"
         d="M 5.77,0 -2.88,5 V -5 Z"
         id="path3171"
         inkscape:connector-curvature="0" />
    </marker>
    <marker
       inkscape:stockid="Arrow2Mend"
       orient="auto"
       refY="0"
       refX="0"
       id="Arrow2Mend-3"
       style="overflow:visible"
       inkscape:isstock="true">
      <path
         inkscape:connector-curvature="0"
         id="path4682-6"
         style="fill:#000000;fill-opacity:1;fill-rule:evenodd;stroke:#000000;stroke-width:0.625;stroke-linejoin:round;stroke-opacity:1"
         d="M 8.7185878,4.0337352 -2.2072895,0.01601326 8.7185884,-4.0017078 c -1.7454984,2.3720609 -1.7354408,5.6174519 -6e-7,8.035443 z"
         transform="scale(-0.6)" />
    </marker>
  </defs>
  <sodipodi:namedview
     id="base"
     pagecolor="#ffffff"
     bordercolor="#666666"
     borderopacity="1.0"
     inkscape:pageopacity="0.0"
     inkscape:pageshadow="2"
     inkscape:zoom="3.959798"
     inkscape:cx="395.70606"
     inkscape:cy="672.08156"
     inkscape:document-units="mm"
     inkscape:current-layer="layer1"
     showgrid="false"
     inkscape:window-width="1920"
     inkscape:window-height="1052"
     inkscape:window-x="0"
     inkscape:window-y="28"
     inkscape:window-maximized="1"
     inkscape:snap-global="true" />
  <metadata
     id="metadata983">
    <rdf:RDF>
      <cc:Work
         rdf:about="">
        <dc:format>image/svg+xml</dc:format>
        <dc:type
           rdf:resource="http://purl.org/dc/dcmitype/StillImage" />
        <dc:title></dc:title>
      </cc:Work>
    </rdf:RDF>
  </metadata>
  <g
     inkscape:label="Layer 1"
     inkscape:groupmode="layer"
     id="layer1">
    <path
       style="fill:none;stroke:#000000;stroke-width:0.26458332px;stroke-linecap:butt;stroke-linejoin:miter;stroke-opacity:1"
       d="M 81.500708,132.1326 H 120.90473"
       id="path1366"
       inkscape:connector-curvature="0"
       sodipodi:nodetypes="cc" />
    <path
       inkscape:connector-curvature="0"
       id="path3169"
       d="m 99.630135,96.56309 v 17.74655"
       style="opacity:1;vector-effect:none;fill:none;fill-opacity:1;stroke:#000000;stroke-width:0.26414955px;stroke-linecap:butt;stroke-linejoin:miter;stroke-miterlimit:4;stroke-dasharray:none;stroke-dashoffset:0;stroke-opacity:1;marker-start:url(#marker3173)" />
    <path
       style="opacity:1;vector-effect:none;fill:none;fill-opacity:1;stroke:#000000;stroke-width:0.26414955px;stroke-linecap:butt;stroke-linejoin:miter;stroke-miterlimit:4;stroke-dasharray:none;stroke-dashoffset:0;stroke-opacity:1;marker-start:url(#marker3545)"
       d="m 99.630135,132.88301 v 17.74656"
       id="path3541"
       inkscape:connector-curvature="0" />
    <path
       style="opacity:1;vector-effect:none;fill:none;fill-opacity:1;stroke:#000000;stroke-width:0.26414955px;stroke-linecap:butt;stroke-linejoin:miter;stroke-miterlimit:4;stroke-dasharray:none;stroke-dashoffset:0;stroke-opacity:1;marker-start:url(#marker2487)"
       d="M 103.43873,113.55923 V 95.812679"
       id="path2415"
       inkscape:connector-curvature="0" />
    <path
       inkscape:connector-curvature="0"
       id="path4333"
       d="M 103.43873,149.91504 V 132.1326"
       style="opacity:1;vector-effect:none;fill:none;fill-opacity:1;stroke:#000000;stroke-width:0.26468378px;stroke-linecap:butt;stroke-linejoin:miter;stroke-miterlimit:4;stroke-dasharray:none;stroke-dashoffset:0;stroke-opacity:1;marker-start:url(#marker4337)" />
    <g
       id="g1027"
       ns1:jacobian_sqrt="0.402039"
       inkscapeversion="0.92.4"
       ns1:alignment="middle center"
       ns1:scale="1.13963800219"
       ns1:preamble="/home/tim/Desktop/bachlor-arbeit/tex/preamble.tex"
       ns1:text="$\\vb E_\\s{in}^f$"
       ns1:pdfconverter="pdf2svg"
       ns1:texconverter="pdflatex"
       ns1:version="0.9.1"
       transform="matrix(0.40203901,0,0,0.40203901,63.042677,122.92606)">
      <g
         id="g1025">
        <g
           id="g1013"
           style="fill:#000000;fill-opacity:1">
          <path
             id="path1011"
             transform="translate(71.637,66.656)"
             d="m 7.203125,-2.734375 h -0.46875 c -0.21875,1.375 -0.5,2.265625 -2.34375,2.265625 H 2.875 v -2.8125 h 0.546875 c 0.96875,0 1.0625,0.4375 1.0625,1.171875 h 0.46875 v -2.8125 h -0.46875 c 0,0.75 -0.09375,1.171875 -1.0625,1.171875 H 2.875 v -2.5625 h 1.515625 c 1.609375,0 1.875,0.734375 2.03125,1.9375 h 0.46875 l -0.3125,-2.40625 h -6.1875 V -6.3125 H 1.46875 v 5.84375 H 0.390625 V 0 H 6.75 Z m 0,0"
             style="stroke:none;stroke-width:0"
             inkscape:connector-curvature="0" />
        </g>
        <g
           id="g1017"
           style="fill:#000000;fill-opacity:1">
          <path
             id="path1015"
             transform="translate(79.164,61.868)"
             d="M 2.84375,-2.75 H 3.515625 C 3.65625,-2.75 3.75,-2.75 3.75,-2.90625 3.75,-3 3.65625,-3 3.53125,-3 H 2.890625 c 0.15625,-0.890625 0.203125,-1.203125 0.265625,-1.40625 0.03125,-0.15625 0.1875,-0.296875 0.359375,-0.296875 0,0 0.1875,0 0.328125,0.078125 -0.296875,0.09375 -0.3125,0.34375 -0.3125,0.375 0,0.15625 0.125,0.265625 0.28125,0.265625 0.1875,0 0.390625,-0.15625 0.390625,-0.421875 0,-0.328125 -0.328125,-0.5 -0.6875,-0.5 -0.3125,0 -0.65625,0.171875 -0.84375,0.515625 C 2.53125,-4.125 2.484375,-3.8125 2.328125,-3 H 1.78125 c -0.140625,0 -0.234375,0 -0.234375,0.15625 0,0.09375 0.09375,0.09375 0.21875,0.09375 H 2.28125 c 0,0.046875 -0.4375,2.546875 -0.609375,3.296875 -0.03125,0.15625 -0.15625,0.671875 -0.484375,0.671875 -0.015625,0 -0.171875,0 -0.3125,-0.078125 0.28125,-0.09375 0.3125,-0.34375 0.3125,-0.375 C 1.1875,0.609375 1.0625,0.5 0.90625,0.5 c -0.1875,0 -0.390625,0.15625 -0.390625,0.421875 0,0.3125 0.328125,0.5 0.671875,0.5 0.4375,0 0.75,-0.453125 0.828125,-0.609375 0.25,-0.46875 0.421875,-1.328125 0.4375,-1.40625 z m 0,0"
             style="stroke:none;stroke-width:0"
             inkscape:connector-curvature="0" />
        </g>
        <g
           id="g1023"
           style="fill:#000000;fill-opacity:1">
          <path
             id="path1019"
             transform="translate(79.164,69.509)"
             d="m 1.46875,-4.296875 c 0,-0.203125 -0.171875,-0.40625 -0.40625,-0.40625 -0.203125,0 -0.390625,0.171875 -0.390625,0.40625 0,0.25 0.203125,0.40625 0.390625,0.40625 0.234375,0 0.40625,-0.171875 0.40625,-0.40625 z M 0.40625,-3 v 0.25 c 0.4375,0 0.5,0.046875 0.5,0.390625 v 1.8125 C 0.90625,-0.25 0.84375,-0.25 0.390625,-0.25 V 0 c 0.015625,0 0.5,-0.03125 0.78125,-0.03125 0.25,0 0.5,0.015625 0.734375,0.03125 V -0.25 C 1.5,-0.25 1.4375,-0.25 1.4375,-0.546875 v -2.53125 z m 0,0"
             style="stroke:none;stroke-width:0"
             inkscape:connector-curvature="0" />
          <path
             id="path1021"
             transform="translate(81.419327,69.509)"
             d="m 3.59375,-2.109375 c 0,-0.609375 -0.296875,-0.96875 -1.046875,-0.96875 -0.578125,0 -0.9375,0.3125 -1.140625,0.6875 v -0.6875 L 0.375,-3 v 0.25 c 0.46875,0 0.53125,0.046875 0.53125,0.390625 v 1.8125 C 0.90625,-0.25 0.828125,-0.25 0.375,-0.25 V 0 C 0.390625,0 0.875,-0.03125 1.171875,-0.03125 1.421875,-0.03125 1.90625,0 1.96875,0 v -0.25 c -0.453125,0 -0.515625,0 -0.515625,-0.296875 V -1.8125 c 0,-0.71875 0.578125,-1.0625 1.03125,-1.0625 0.484375,0 0.546875,0.375 0.546875,0.734375 v 1.59375 C 3.03125,-0.25 2.96875,-0.25 2.515625,-0.25 V 0 C 2.53125,0 3.015625,-0.03125 3.3125,-0.03125 3.5625,-0.03125 4.046875,0 4.109375,0 v -0.25 c -0.453125,0 -0.515625,0 -0.515625,-0.296875 z m 0,0"
             style="stroke:none;stroke-width:0"
             inkscape:connector-curvature="0" />
        </g>
      </g>
    </g>
    <g
       id="g1133"
       ns1:jacobian_sqrt="0.402039"
       inkscapeversion="0.92.4"
       ns1:alignment="middle center"
       ns1:scale="1.13963800219"
       ns1:preamble="/home/tim/Desktop/bachlor-arbeit/tex/preamble.tex"
       ns1:text="$\\vb E_\\s{out}^f$"
       ns1:pdfconverter="pdf2svg"
       ns1:texconverter="pdflatex"
       ns1:version="0.9.1"
       transform="matrix(0.40203901,0,0,0.40203901,76.059312,123.27946)">
      <g
         id="g1131">
        <g
           id="g1117"
           style="fill:#000000;fill-opacity:1">
          <path
             id="path1115"
             transform="translate(71.637,66.656)"
             d="m 7.203125,-2.734375 h -0.46875 c -0.21875,1.375 -0.5,2.265625 -2.34375,2.265625 H 2.875 v -2.8125 h 0.546875 c 0.96875,0 1.0625,0.4375 1.0625,1.171875 h 0.46875 v -2.8125 h -0.46875 c 0,0.75 -0.09375,1.171875 -1.0625,1.171875 H 2.875 v -2.5625 h 1.515625 c 1.609375,0 1.875,0.734375 2.03125,1.9375 h 0.46875 l -0.3125,-2.40625 h -6.1875 V -6.3125 H 1.46875 v 5.84375 H 0.390625 V 0 H 6.75 Z m 0,0"
             style="stroke:none;stroke-width:0"
             inkscape:connector-curvature="0" />
        </g>
        <g
           id="g1121"
           style="fill:#000000;fill-opacity:1">
          <path
             id="path1119"
             transform="translate(79.164,61.868)"
             d="M 2.84375,-2.75 H 3.515625 C 3.65625,-2.75 3.75,-2.75 3.75,-2.90625 3.75,-3 3.65625,-3 3.53125,-3 H 2.890625 c 0.15625,-0.890625 0.203125,-1.203125 0.265625,-1.40625 0.03125,-0.15625 0.1875,-0.296875 0.359375,-0.296875 0,0 0.1875,0 0.328125,0.078125 -0.296875,0.09375 -0.3125,0.34375 -0.3125,0.375 0,0.15625 0.125,0.265625 0.28125,0.265625 0.1875,0 0.390625,-0.15625 0.390625,-0.421875 0,-0.328125 -0.328125,-0.5 -0.6875,-0.5 -0.3125,0 -0.65625,0.171875 -0.84375,0.515625 C 2.53125,-4.125 2.484375,-3.8125 2.328125,-3 H 1.78125 c -0.140625,0 -0.234375,0 -0.234375,0.15625 0,0.09375 0.09375,0.09375 0.21875,0.09375 H 2.28125 c 0,0.046875 -0.4375,2.546875 -0.609375,3.296875 -0.03125,0.15625 -0.15625,0.671875 -0.484375,0.671875 -0.015625,0 -0.171875,0 -0.3125,-0.078125 0.28125,-0.09375 0.3125,-0.34375 0.3125,-0.375 C 1.1875,0.609375 1.0625,0.5 0.90625,0.5 c -0.1875,0 -0.390625,0.15625 -0.390625,0.421875 0,0.3125 0.328125,0.5 0.671875,0.5 0.4375,0 0.75,-0.453125 0.828125,-0.609375 0.25,-0.46875 0.421875,-1.328125 0.4375,-1.40625 z m 0,0"
             style="stroke:none;stroke-width:0"
             inkscape:connector-curvature="0" />
        </g>
        <g
           id="g1129"
           style="fill:#000000;fill-opacity:1">
          <path
             id="path1123"
             transform="translate(79.164,69.107)"
             d="m 3.6875,-1.484375 c 0,-0.875 -0.75,-1.625 -1.703125,-1.625 -0.96875,0 -1.71875,0.75 -1.71875,1.625 0,0.859375 0.765625,1.546875 1.71875,1.546875 0.9375,0 1.703125,-0.6875 1.703125,-1.546875 z M 1.984375,-0.15625 c -0.265625,0 -0.640625,-0.078125 -0.875,-0.421875 -0.1875,-0.28125 -0.203125,-0.640625 -0.203125,-0.96875 0,-0.296875 0,-0.71875 0.25,-1.015625 0.171875,-0.203125 0.46875,-0.34375 0.828125,-0.34375 0.40625,0 0.703125,0.1875 0.859375,0.40625 0.1875,0.265625 0.203125,0.625 0.203125,0.953125 0,0.328125 -0.015625,0.703125 -0.21875,0.984375 -0.1875,0.265625 -0.5,0.40625 -0.84375,0.40625 z m 0,0"
             style="stroke:none;stroke-width:0"
             inkscape:connector-curvature="0" />
          <path
             id="path1125"
             transform="translate(83.135579,69.107)"
             d="m 2.515625,-3 v 0.25 c 0.46875,0 0.515625,0.046875 0.515625,0.390625 v 1.203125 c 0,0.609375 -0.390625,1.03125 -0.921875,1.03125 -0.625,0 -0.65625,-0.296875 -0.65625,-0.65625 V -3.078125 L 0.375,-3 v 0.25 c 0.53125,0 0.53125,0.03125 0.53125,0.640625 V -1.0625 c 0,0.484375 0,1.125 1.15625,1.125 0.15625,0 0.65625,0 1,-0.578125 V 0.0625 L 4.109375,0 v -0.25 c -0.46875,0 -0.515625,-0.046875 -0.515625,-0.390625 v -2.4375 z m 0,0"
             style="stroke:none;stroke-width:0"
             inkscape:connector-curvature="0" />
          <path
             id="path1127"
             transform="translate(87.536047,69.107)"
             d="M 1.40625,-2.75 H 2.484375 V -3 H 1.40625 v -1.28125 h -0.25 c 0,0.625 -0.28125,1.3125 -0.953125,1.328125 V -2.75 H 0.84375 v 1.875 c 0,0.78125 0.59375,0.9375 0.984375,0.9375 0.46875,0 0.78125,-0.390625 0.78125,-0.9375 V -1.265625 H 2.375 v 0.375 c 0,0.484375 -0.21875,0.734375 -0.5,0.734375 -0.46875,0 -0.46875,-0.578125 -0.46875,-0.703125 z m 0,0"
             style="stroke:none;stroke-width:0"
             inkscape:connector-curvature="0" />
        </g>
      </g>
    </g>
    <g
       id="g1240"
       ns1:jacobian_sqrt="0.402039"
       inkscapeversion="0.92.4"
       ns1:alignment="middle center"
       ns1:scale="1.13963800219"
       ns1:preamble="/home/tim/Desktop/bachlor-arbeit/tex/preamble.tex"
       ns1:text="$\\vb E_\\s{in}^b$"
       ns1:pdfconverter="pdf2svg"
       ns1:texconverter="pdflatex"
       ns1:version="0.9.1"
       transform="matrix(0.40203901,0,0,0.40203901,76.059312,72.971092)">
      <g
         id="g1238">
        <g
           id="g1226"
           style="fill:#000000;fill-opacity:1">
          <path
             id="path1224"
             transform="translate(71.637,66.656)"
             d="m 7.203125,-2.734375 h -0.46875 c -0.21875,1.375 -0.5,2.265625 -2.34375,2.265625 H 2.875 v -2.8125 h 0.546875 c 0.96875,0 1.0625,0.4375 1.0625,1.171875 h 0.46875 v -2.8125 h -0.46875 c 0,0.75 -0.09375,1.171875 -1.0625,1.171875 H 2.875 v -2.5625 h 1.515625 c 1.609375,0 1.875,0.734375 2.03125,1.9375 h 0.46875 l -0.3125,-2.40625 h -6.1875 V -6.3125 H 1.46875 v 5.84375 H 0.390625 V 0 H 6.75 Z m 0,0"
             style="stroke:none;stroke-width:0"
             inkscape:connector-curvature="0" />
        </g>
        <g
           id="g1230"
           style="fill:#000000;fill-opacity:1">
          <path
             id="path1228"
             transform="translate(79.164,63.04)"
             d="m 1.84375,-4.625 c 0,-0.015625 0.03125,-0.109375 0.03125,-0.109375 0,-0.046875 -0.03125,-0.109375 -0.125,-0.109375 -0.140625,0 -0.71875,0.0625 -0.890625,0.078125 -0.046875,0 -0.15625,0.015625 -0.15625,0.15625 0,0.09375 0.109375,0.09375 0.1875,0.09375 0.328125,0 0.328125,0.0625 0.328125,0.109375 0,0.046875 -0.0625,0.328125 -0.109375,0.484375 l -0.15625,0.640625 c -0.0625,0.25 -0.4375,1.765625 -0.453125,1.859375 -0.046875,0.171875 -0.046875,0.265625 -0.046875,0.34375 0,0.703125 0.453125,1.140625 1.03125,1.140625 0.875,0 1.796875,-0.9375 1.796875,-1.96875 0,-0.8125 -0.5625,-1.171875 -1.046875,-1.171875 -0.359375,0 -0.671875,0.203125 -0.875,0.390625 z m -0.359375,4.5 c -0.328125,0 -0.53125,-0.296875 -0.53125,-0.71875 0,-0.25 0.0625,-0.484375 0.265625,-1.28125 C 1.25,-2.25 1.25,-2.265625 1.390625,-2.421875 1.65625,-2.71875 1.96875,-2.875 2.21875,-2.875 c 0.265625,0 0.5,0.203125 0.5,0.671875 0,0.28125 -0.140625,1 -0.359375,1.40625 C 2.1875,-0.453125 1.84375,-0.125 1.484375,-0.125 Z m 0,0"
             style="stroke:none;stroke-width:0"
             inkscape:connector-curvature="0" />
        </g>
        <g
           id="g1236"
           style="fill:#000000;fill-opacity:1">
          <path
             id="path1232"
             transform="translate(79.164,69.325)"
             d="m 1.46875,-4.296875 c 0,-0.203125 -0.171875,-0.40625 -0.40625,-0.40625 -0.203125,0 -0.390625,0.171875 -0.390625,0.40625 0,0.25 0.203125,0.40625 0.390625,0.40625 0.234375,0 0.40625,-0.171875 0.40625,-0.40625 z M 0.40625,-3 v 0.25 c 0.4375,0 0.5,0.046875 0.5,0.390625 v 1.8125 C 0.90625,-0.25 0.84375,-0.25 0.390625,-0.25 V 0 c 0.015625,0 0.5,-0.03125 0.78125,-0.03125 0.25,0 0.5,0.015625 0.734375,0.03125 V -0.25 C 1.5,-0.25 1.4375,-0.25 1.4375,-0.546875 v -2.53125 z m 0,0"
             style="stroke:none;stroke-width:0"
             inkscape:connector-curvature="0" />
          <path
             id="path1234"
             transform="translate(81.419327,69.325)"
             d="m 3.59375,-2.109375 c 0,-0.609375 -0.296875,-0.96875 -1.046875,-0.96875 -0.578125,0 -0.9375,0.3125 -1.140625,0.6875 v -0.6875 L 0.375,-3 v 0.25 c 0.46875,0 0.53125,0.046875 0.53125,0.390625 v 1.8125 C 0.90625,-0.25 0.828125,-0.25 0.375,-0.25 V 0 C 0.390625,0 0.875,-0.03125 1.171875,-0.03125 1.421875,-0.03125 1.90625,0 1.96875,0 v -0.25 c -0.453125,0 -0.515625,0 -0.515625,-0.296875 V -1.8125 c 0,-0.71875 0.578125,-1.0625 1.03125,-1.0625 0.484375,0 0.546875,0.375 0.546875,0.734375 v 1.59375 C 3.03125,-0.25 2.96875,-0.25 2.515625,-0.25 V 0 C 2.53125,0 3.015625,-0.03125 3.3125,-0.03125 3.5625,-0.03125 4.046875,0 4.109375,0 v -0.25 c -0.453125,0 -0.515625,0 -0.515625,-0.296875 z m 0,0"
             style="stroke:none;stroke-width:0"
             inkscape:connector-curvature="0" />
        </g>
      </g>
    </g>
    <g
       id="g1349"
       ns1:jacobian_sqrt="0.402039"
       inkscapeversion="0.92.4"
       ns1:alignment="middle center"
       ns1:scale="1.13963800219"
       ns1:preamble="/home/tim/Desktop/bachlor-arbeit/tex/preamble.tex"
       ns1:text="$\\vb E_\\s{out}^b$"
       ns1:pdfconverter="pdf2svg"
       ns1:texconverter="pdflatex"
       ns1:version="0.9.1"
       transform="matrix(0.40203901,0,0,0.40203901,62.114625,72.714994)">
      <g
         id="g1347">
        <g
           id="g1333"
           style="fill:#000000;fill-opacity:1">
          <path
             id="path1331"
             transform="translate(71.637,66.656)"
             d="m 7.203125,-2.734375 h -0.46875 c -0.21875,1.375 -0.5,2.265625 -2.34375,2.265625 H 2.875 v -2.8125 h 0.546875 c 0.96875,0 1.0625,0.4375 1.0625,1.171875 h 0.46875 v -2.8125 h -0.46875 c 0,0.75 -0.09375,1.171875 -1.0625,1.171875 H 2.875 v -2.5625 h 1.515625 c 1.609375,0 1.875,0.734375 2.03125,1.9375 h 0.46875 l -0.3125,-2.40625 h -6.1875 V -6.3125 H 1.46875 v 5.84375 H 0.390625 V 0 H 6.75 Z m 0,0"
             style="stroke:none;stroke-width:0"
             inkscape:connector-curvature="0" />
        </g>
        <g
           id="g1337"
           style="fill:#000000;fill-opacity:1">
          <path
             id="path1335"
             transform="translate(79.164,63.04)"
             d="m 1.84375,-4.625 c 0,-0.015625 0.03125,-0.109375 0.03125,-0.109375 0,-0.046875 -0.03125,-0.109375 -0.125,-0.109375 -0.140625,0 -0.71875,0.0625 -0.890625,0.078125 -0.046875,0 -0.15625,0.015625 -0.15625,0.15625 0,0.09375 0.109375,0.09375 0.1875,0.09375 0.328125,0 0.328125,0.0625 0.328125,0.109375 0,0.046875 -0.0625,0.328125 -0.109375,0.484375 l -0.15625,0.640625 c -0.0625,0.25 -0.4375,1.765625 -0.453125,1.859375 -0.046875,0.171875 -0.046875,0.265625 -0.046875,0.34375 0,0.703125 0.453125,1.140625 1.03125,1.140625 0.875,0 1.796875,-0.9375 1.796875,-1.96875 0,-0.8125 -0.5625,-1.171875 -1.046875,-1.171875 -0.359375,0 -0.671875,0.203125 -0.875,0.390625 z m -0.359375,4.5 c -0.328125,0 -0.53125,-0.296875 -0.53125,-0.71875 0,-0.25 0.0625,-0.484375 0.265625,-1.28125 C 1.25,-2.25 1.25,-2.265625 1.390625,-2.421875 1.65625,-2.71875 1.96875,-2.875 2.21875,-2.875 c 0.265625,0 0.5,0.203125 0.5,0.671875 0,0.28125 -0.140625,1 -0.359375,1.40625 C 2.1875,-0.453125 1.84375,-0.125 1.484375,-0.125 Z m 0,0"
             style="stroke:none;stroke-width:0"
             inkscape:connector-curvature="0" />
        </g>
        <g
           id="g1345"
           style="fill:#000000;fill-opacity:1">
          <path
             id="path1339"
             transform="translate(79.164,69.118)"
             d="m 3.6875,-1.484375 c 0,-0.875 -0.75,-1.625 -1.703125,-1.625 -0.96875,0 -1.71875,0.75 -1.71875,1.625 0,0.859375 0.765625,1.546875 1.71875,1.546875 0.9375,0 1.703125,-0.6875 1.703125,-1.546875 z M 1.984375,-0.15625 c -0.265625,0 -0.640625,-0.078125 -0.875,-0.421875 -0.1875,-0.28125 -0.203125,-0.640625 -0.203125,-0.96875 0,-0.296875 0,-0.71875 0.25,-1.015625 0.171875,-0.203125 0.46875,-0.34375 0.828125,-0.34375 0.40625,0 0.703125,0.1875 0.859375,0.40625 0.1875,0.265625 0.203125,0.625 0.203125,0.953125 0,0.328125 -0.015625,0.703125 -0.21875,0.984375 -0.1875,0.265625 -0.5,0.40625 -0.84375,0.40625 z m 0,0"
             style="stroke:none;stroke-width:0"
             inkscape:connector-curvature="0" />
          <path
             id="path1341"
             transform="translate(83.135579,69.118)"
             d="m 2.515625,-3 v 0.25 c 0.46875,0 0.515625,0.046875 0.515625,0.390625 v 1.203125 c 0,0.609375 -0.390625,1.03125 -0.921875,1.03125 -0.625,0 -0.65625,-0.296875 -0.65625,-0.65625 V -3.078125 L 0.375,-3 v 0.25 c 0.53125,0 0.53125,0.03125 0.53125,0.640625 V -1.0625 c 0,0.484375 0,1.125 1.15625,1.125 0.15625,0 0.65625,0 1,-0.578125 V 0.0625 L 4.109375,0 v -0.25 c -0.46875,0 -0.515625,-0.046875 -0.515625,-0.390625 v -2.4375 z m 0,0"
             style="stroke:none;stroke-width:0"
             inkscape:connector-curvature="0" />
          <path
             id="path1343"
             transform="translate(87.536047,69.118)"
             d="M 1.40625,-2.75 H 2.484375 V -3 H 1.40625 v -1.28125 h -0.25 c 0,0.625 -0.28125,1.3125 -0.953125,1.328125 V -2.75 H 0.84375 v 1.875 c 0,0.78125 0.59375,0.9375 0.984375,0.9375 0.46875,0 0.78125,-0.390625 0.78125,-0.9375 V -1.265625 H 2.375 v 0.375 c 0,0.484375 -0.21875,0.734375 -0.5,0.734375 -0.46875,0 -0.46875,-0.578125 -0.46875,-0.703125 z m 0,0"
             style="stroke:none;stroke-width:0"
             inkscape:connector-curvature="0" />
        </g>
      </g>
    </g>
    <path
       style="opacity:1;vector-effect:none;fill:none;fill-opacity:1;stroke:#000000;stroke-width:0.26414955px;stroke-linecap:butt;stroke-linejoin:miter;stroke-miterlimit:4;stroke-dasharray:none;stroke-dashoffset:0;stroke-opacity:1;marker-start:url(#marker1725)"
       d="m 99.630135,115.13646 v 17.74655"
       id="path1719"
       inkscape:connector-curvature="0" />
    <path
       inkscape:connector-curvature="0"
       id="path1721"
       d="m 103.43873,131.31319 0,-16.92714"
       style="opacity:1;vector-effect:none;fill:none;fill-opacity:1;stroke:#000000;stroke-width:0.26414955px;stroke-linecap:butt;stroke-linejoin:miter;stroke-miterlimit:4;stroke-dasharray:none;stroke-dashoffset:0;stroke-opacity:1;marker-start:url(#marker2071)"
       sodipodi:nodetypes="cc" />
    <g
       id="g5665"
       ns1:jacobian_sqrt="0.439691"
       inkscapeversion="0.92.4"
       ns1:alignment="middle center"
       ns1:scale="1.24636596795"
       ns1:preamble="/home/tim/.config/inkscape/extensions/textext/default_packages.tex"
       ns1:text="$n_0$"
       ns1:pdfconverter="pdf2svg"
       ns1:texconverter="pdflatex"
       ns1:version="0.9.1"
       transform="matrix(0.439691,0.000000,0.000000,0.439691,51.340980,79.845724)" />
    <g
       id="g989"
       transform="translate(-1.3229167)">
      <g
         transform="matrix(0.439691,0,0,0.439691,51.340979,50.067269)"
         ns1:version="0.9.1"
         ns1:texconverter="pdflatex"
         ns1:pdfconverter="pdf2svg"
         ns1:text="$n_0$"
         ns1:preamble="/home/tim/.config/inkscape/extensions/textext/default_packages.tex"
         ns1:scale="1.24636597049"
         ns1:alignment="middle center"
         inkscapeversion="0.92.4"
         ns1:jacobian_sqrt="0.439691"
         id="g5496">
        <g
           id="g5494">
          <g
             style="fill:#000000;fill-opacity:1"
             id="g5488">
            <path
               style="stroke:none;stroke-width:0"
               d="m 0.875,-0.59375 c -0.03125,0.15625 -0.09375,0.390625 -0.09375,0.4375 0,0.171875 0.140625,0.265625 0.296875,0.265625 0.125,0 0.296875,-0.078125 0.375,-0.28125 0,-0.015625 0.125,-0.484375 0.1875,-0.734375 l 0.21875,-0.890625 C 1.90625,-2.03125 1.96875,-2.25 2.03125,-2.46875 c 0.03125,-0.171875 0.109375,-0.46875 0.125,-0.5 0.140625,-0.3125 0.671875,-1.21875 1.625,-1.21875 0.453125,0 0.53125,0.375 0.53125,0.703125 0,0.609375 -0.484375,1.890625 -0.640625,2.3125 C 3.578125,-0.9375 3.5625,-0.8125 3.5625,-0.703125 c 0,0.46875 0.359375,0.8125 0.828125,0.8125 0.9375,0 1.296875,-1.453125 1.296875,-1.53125 0,-0.109375 -0.078125,-0.109375 -0.109375,-0.109375 -0.109375,0 -0.109375,0.03125 -0.15625,0.1875 -0.203125,0.671875 -0.53125,1.234375 -1.015625,1.234375 -0.171875,0 -0.234375,-0.09375 -0.234375,-0.328125 0,-0.25 0.078125,-0.484375 0.171875,-0.703125 0.1875,-0.53125 0.609375,-1.625 0.609375,-2.203125 0,-0.65625 -0.421875,-1.0625 -1.140625,-1.0625 -0.90625,0 -1.390625,0.640625 -1.5625,0.875 -0.046875,-0.5625 -0.453125,-0.875 -0.921875,-0.875 -0.453125,0 -0.640625,0.390625 -0.734375,0.5625 C 0.421875,-3.5 0.296875,-2.90625 0.296875,-2.875 c 0,0.109375 0.09375,0.109375 0.109375,0.109375 0.109375,0 0.109375,-0.015625 0.171875,-0.234375 0.171875,-0.703125 0.375,-1.1875 0.734375,-1.1875 0.1875,0 0.296875,0.125 0.296875,0.453125 0,0.21875 -0.03125,0.328125 -0.15625,0.84375 z m 0,0"
               transform="translate(148.712,134.765)"
               id="path5486"
               inkscape:connector-curvature="0" />
          </g>
          <g
             style="fill:#000000;fill-opacity:1"
             id="g5492">
            <path
               style="stroke:none;stroke-width:0"
               d="M 3.59375,-2.21875 C 3.59375,-2.984375 3.5,-3.546875 3.1875,-4.03125 2.96875,-4.34375 2.53125,-4.625 1.984375,-4.625 c -1.625,0 -1.625,1.90625 -1.625,2.40625 0,0.5 0,2.359375 1.625,2.359375 1.609375,0 1.609375,-1.859375 1.609375,-2.359375 z M 1.984375,-0.0625 c -0.328125,0 -0.75,-0.1875 -0.890625,-0.75 C 1,-1.21875 1,-1.796875 1,-2.3125 1,-2.828125 1,-3.359375 1.09375,-3.734375 1.25,-4.28125 1.6875,-4.4375 1.984375,-4.4375 c 0.375,0 0.734375,0.234375 0.859375,0.640625 0.109375,0.375 0.125,0.875 0.125,1.484375 0,0.515625 0,1.03125 -0.09375,1.46875 -0.140625,0.640625 -0.609375,0.78125 -0.890625,0.78125 z m 0,0"
               transform="translate(154.692,136.259)"
               id="path5490"
               inkscape:connector-curvature="0" />
          </g>
        </g>
      </g>
      <g
         id="surface1"
         transform="matrix(0.43969101,0,0,0.43969101,51.34098,79.845723)">
        <g
           style="fill:#000000;fill-opacity:1"
           id="g5658">
          <path
             style="stroke:none;stroke-width:0"
             d="m 0.875,-0.59375 c -0.03125,0.15625 -0.09375,0.390625 -0.09375,0.4375 0,0.171875 0.140625,0.265625 0.296875,0.265625 0.125,0 0.296875,-0.078125 0.375,-0.28125 0,-0.015625 0.125,-0.484375 0.1875,-0.734375 l 0.21875,-0.890625 C 1.90625,-2.03125 1.96875,-2.25 2.03125,-2.46875 c 0.03125,-0.171875 0.109375,-0.46875 0.125,-0.5 0.140625,-0.3125 0.671875,-1.21875 1.625,-1.21875 0.453125,0 0.53125,0.375 0.53125,0.703125 0,0.609375 -0.484375,1.890625 -0.640625,2.3125 C 3.578125,-0.9375 3.5625,-0.8125 3.5625,-0.703125 c 0,0.46875 0.359375,0.8125 0.828125,0.8125 0.9375,0 1.296875,-1.453125 1.296875,-1.53125 0,-0.109375 -0.078125,-0.109375 -0.109375,-0.109375 -0.109375,0 -0.109375,0.03125 -0.15625,0.1875 -0.203125,0.671875 -0.53125,1.234375 -1.015625,1.234375 -0.171875,0 -0.234375,-0.09375 -0.234375,-0.328125 0,-0.25 0.078125,-0.484375 0.171875,-0.703125 0.1875,-0.53125 0.609375,-1.625 0.609375,-2.203125 0,-0.65625 -0.421875,-1.0625 -1.140625,-1.0625 -0.90625,0 -1.390625,0.640625 -1.5625,0.875 -0.046875,-0.5625 -0.453125,-0.875 -0.921875,-0.875 -0.453125,0 -0.640625,0.390625 -0.734375,0.5625 C 0.421875,-3.5 0.296875,-2.90625 0.296875,-2.875 c 0,0.109375 0.09375,0.109375 0.109375,0.109375 0.109375,0 0.109375,-0.015625 0.171875,-0.234375 0.171875,-0.703125 0.375,-1.1875 0.734375,-1.1875 0.1875,0 0.296875,0.125 0.296875,0.453125 0,0.21875 -0.03125,0.328125 -0.15625,0.84375 z m 0,0"
             transform="translate(148.712,134.765)"
             id="path5656"
             inkscape:connector-curvature="0" />
        </g>
        <g
           style="fill:#000000;fill-opacity:1"
           id="g5662">
          <path
             style="stroke:none;stroke-width:0"
             d="M 3.59375,-2.21875 C 3.59375,-2.984375 3.5,-3.546875 3.1875,-4.03125 2.96875,-4.34375 2.53125,-4.625 1.984375,-4.625 c -1.625,0 -1.625,1.90625 -1.625,2.40625 0,0.5 0,2.359375 1.625,2.359375 1.609375,0 1.609375,-1.859375 1.609375,-2.359375 z M 1.984375,-0.0625 c -0.328125,0 -0.75,-0.1875 -0.890625,-0.75 C 1,-1.21875 1,-1.796875 1,-2.3125 1,-2.828125 1,-3.359375 1.09375,-3.734375 1.25,-4.28125 1.6875,-4.4375 1.984375,-4.4375 c 0.375,0 0.734375,0.234375 0.859375,0.640625 0.109375,0.375 0.125,0.875 0.125,1.484375 0,0.515625 0,1.03125 -0.09375,1.46875 -0.140625,0.640625 -0.609375,0.78125 -0.890625,0.78125 z m 0,0"
             transform="translate(154.692,136.259)"
             id="path5660"
             inkscape:connector-curvature="0" />
        </g>
      </g>
      <g
         transform="matrix(0.439691,0,0,0.439691,52.195354,64.791386)"
         ns1:version="0.9.1"
         ns1:texconverter="pdflatex"
         ns1:pdfconverter="pdf2svg"
         ns1:text="$n$"
         ns1:preamble="/home/tim/.config/inkscape/extensions/textext/default_packages.tex"
         ns1:scale="1.24636597049"
         ns1:alignment="middle center"
         inkscapeversion="0.92.4"
         ns1:jacobian_sqrt="0.439691"
         id="g5831">
        <g
           id="g5829">
          <g
             style="fill:#000000;fill-opacity:1"
             id="g5827">
            <path
               style="stroke:none;stroke-width:0"
               d="m 0.875,-0.59375 c -0.03125,0.15625 -0.09375,0.390625 -0.09375,0.4375 0,0.171875 0.140625,0.265625 0.296875,0.265625 0.125,0 0.296875,-0.078125 0.375,-0.28125 0,-0.015625 0.125,-0.484375 0.1875,-0.734375 l 0.21875,-0.890625 C 1.90625,-2.03125 1.96875,-2.25 2.03125,-2.46875 c 0.03125,-0.171875 0.109375,-0.46875 0.125,-0.5 0.140625,-0.3125 0.671875,-1.21875 1.625,-1.21875 0.453125,0 0.53125,0.375 0.53125,0.703125 0,0.609375 -0.484375,1.890625 -0.640625,2.3125 C 3.578125,-0.9375 3.5625,-0.8125 3.5625,-0.703125 c 0,0.46875 0.359375,0.8125 0.828125,0.8125 0.9375,0 1.296875,-1.453125 1.296875,-1.53125 0,-0.109375 -0.078125,-0.109375 -0.109375,-0.109375 -0.109375,0 -0.109375,0.03125 -0.15625,0.1875 -0.203125,0.671875 -0.53125,1.234375 -1.015625,1.234375 -0.171875,0 -0.234375,-0.09375 -0.234375,-0.328125 0,-0.25 0.078125,-0.484375 0.171875,-0.703125 0.1875,-0.53125 0.609375,-1.625 0.609375,-2.203125 0,-0.65625 -0.421875,-1.0625 -1.140625,-1.0625 -0.90625,0 -1.390625,0.640625 -1.5625,0.875 -0.046875,-0.5625 -0.453125,-0.875 -0.921875,-0.875 -0.453125,0 -0.640625,0.390625 -0.734375,0.5625 C 0.421875,-3.5 0.296875,-2.90625 0.296875,-2.875 c 0,0.109375 0.09375,0.109375 0.109375,0.109375 0.109375,0 0.109375,-0.015625 0.171875,-0.234375 0.171875,-0.703125 0.375,-1.1875 0.734375,-1.1875 0.1875,0 0.296875,0.125 0.296875,0.453125 0,0.21875 -0.03125,0.328125 -0.15625,0.84375 z m 0,0"
               transform="translate(148.712,134.765)"
               id="path5825"
               inkscape:connector-curvature="0" />
          </g>
        </g>
      </g>
    </g>
    <g
       id="g5998"
       ns1:jacobian_sqrt="0.482979"
       inkscapeversion="0.92.4"
       ns1:alignment="middle center"
       ns1:scale="1.36907301475"
       ns1:preamble="/home/tim/Desktop/bachlor-arbeit/tex/preamble.tex"
       ns1:text="$\\hat S_{\\scaleto{n, d}{5pt}}$"
       ns1:pdfconverter="pdf2svg"
       ns1:texconverter="pdflatex"
       ns1:version="0.9.1"
       transform="matrix(0.482979,0,0,0.482979,48.9593,92.467469)">
      <g
         id="g5996">
        <g
           id="g5982"
           style="fill:#000000;fill-opacity:1">
          <path
             id="path5980"
             transform="translate(73.318,64.137)"
             d="M 2.5,-6.921875 1.15625,-5.5625 1.328125,-5.390625 2.5,-6.40625 3.640625,-5.390625 3.8125,-5.5625 Z m 0,0"
             style="stroke:none;stroke-width:0"
             inkscape:connector-curvature="0" />
        </g>
        <g
           id="g5986"
           style="fill:#000000;fill-opacity:1">
          <path
             id="path5984"
             transform="translate(71.637,66.656)"
             d="m 6.4375,-6.921875 c 0,-0.03125 -0.03125,-0.109375 -0.125,-0.109375 -0.046875,0 -0.046875,0.015625 -0.171875,0.15625 L 5.65625,-6.3125 c -0.25,-0.46875 -0.765625,-0.71875 -1.421875,-0.71875 -1.265625,0 -2.453125,1.15625 -2.453125,2.359375 0,0.796875 0.515625,1.265625 1.03125,1.40625 l 1.0625,0.28125 c 0.375,0.09375 0.921875,0.25 0.921875,1.0625 0,0.890625 -0.8125,1.828125 -1.796875,1.828125 -0.640625,0 -1.75,-0.21875 -1.75,-1.453125 0,-0.234375 0.0625,-0.484375 0.0625,-0.53125 0.015625,-0.046875 0.015625,-0.0625 0.015625,-0.078125 0,-0.09375 -0.0625,-0.109375 -0.109375,-0.109375 -0.046875,0 -0.078125,0.015625 -0.109375,0.046875 -0.03125,0.03125 -0.59375,2.3125 -0.59375,2.34375 0,0.046875 0.046875,0.09375 0.109375,0.09375 0.046875,0 0.0625,-0.015625 0.1875,-0.15625 L 1.296875,-0.5 c 0.421875,0.578125 1.109375,0.71875 1.6875,0.71875 1.359375,0 2.53125,-1.328125 2.53125,-2.5625 0,-0.6875 -0.34375,-1.03125 -0.484375,-1.171875 C 4.796875,-3.734375 4.640625,-3.78125 3.765625,-4 3.53125,-4.0625 3.1875,-4.171875 3.09375,-4.1875 2.828125,-4.28125 2.484375,-4.5625 2.484375,-5.09375 c 0,-0.8125 0.796875,-1.65625 1.75,-1.65625 0.8125,0 1.421875,0.4375 1.421875,1.546875 0,0.3125 -0.03125,0.5 -0.03125,0.5625 0,0 0,0.09375 0.109375,0.09375 0.109375,0 0.125,-0.03125 0.15625,-0.203125 z m 0,0"
             style="stroke:none;stroke-width:0"
             inkscape:connector-curvature="0" />
        </g>
        <g
           id="g5994"
           style="fill:#000000;fill-opacity:1">
          <path
             id="path5988"
             transform="translate(77.746,68.150359)"
             d="M 0.6875,-0.359375 C 0.65625,-0.28125 0.625,-0.140625 0.625,-0.125 c 0,0.125 0.109375,0.1875 0.1875,0.1875 0.109375,0 0.203125,-0.078125 0.21875,-0.125 0.03125,-0.0625 0.078125,-0.234375 0.109375,-0.359375 0.03125,-0.09375 0.09375,-0.359375 0.125,-0.5 0.03125,-0.125 0.0625,-0.25 0.09375,-0.375 0.0625,-0.234375 0.078125,-0.28125 0.234375,-0.5 C 1.75,-2.03125 2.015625,-2.3125 2.4375,-2.3125 c 0.328125,0 0.328125,0.28125 0.328125,0.390625 0,0.328125 -0.234375,0.953125 -0.328125,1.1875 -0.0625,0.15625 -0.09375,0.21875 -0.09375,0.3125 0,0.296875 0.25,0.484375 0.546875,0.484375 C 3.4375,0.0625 3.6875,-0.71875 3.6875,-0.796875 3.6875,-0.875 3.625,-0.875 3.59375,-0.875 c -0.078125,0 -0.078125,0.03125 -0.09375,0.09375 -0.140625,0.453125 -0.375,0.6875 -0.59375,0.6875 -0.125,0 -0.140625,-0.078125 -0.140625,-0.203125 0,-0.125 0.015625,-0.203125 0.125,-0.453125 C 2.953125,-0.921875 3.1875,-1.515625 3.1875,-1.828125 3.1875,-2.375 2.75,-2.46875 2.453125,-2.46875 c -0.46875,0 -0.78125,0.28125 -0.9375,0.5 -0.046875,-0.375 -0.375,-0.5 -0.609375,-0.5 -0.234375,0 -0.375,0.171875 -0.4375,0.296875 -0.125,0.203125 -0.203125,0.53125 -0.203125,0.5625 0,0.0625 0.078125,0.0625 0.09375,0.0625 0.078125,0 0.078125,-0.015625 0.125,-0.15625 0.078125,-0.34375 0.1875,-0.609375 0.40625,-0.609375 0.140625,0 0.1875,0.125 0.1875,0.265625 0,0.109375 -0.046875,0.3125 -0.09375,0.46875 -0.03125,0.15625 -0.09375,0.390625 -0.125,0.5 z m 0,0"
             style="stroke:none;stroke-width:0"
             inkscape:connector-curvature="0" />
          <path
             id="path5990"
             transform="translate(81.703746,68.150359)"
             d="M 1.1875,-0.09375 C 1.1875,0.21875 1.125,0.578125 0.75,0.9375 0.71875,0.953125 0.703125,0.96875 0.703125,1 c 0,0.046875 0.046875,0.078125 0.078125,0.078125 0.078125,0 0.5625,-0.4375 0.5625,-1.109375 0,-0.34375 -0.140625,-0.609375 -0.390625,-0.609375 C 0.765625,-0.640625 0.625,-0.5 0.625,-0.328125 0.625,-0.140625 0.75,0 0.953125,0 1.09375,0 1.171875,-0.09375 1.1875,-0.09375 Z m 0,0"
             style="stroke:none;stroke-width:0"
             inkscape:connector-curvature="0" />
          <path
             id="path5992"
             transform="translate(83.60528,68.150359)"
             d="m 3.203125,-3.71875 c 0,-0.015625 0.015625,-0.09375 0.015625,-0.09375 0,-0.03125 -0.015625,-0.078125 -0.078125,-0.078125 -0.125,0 -0.578125,0.046875 -0.71875,0.046875 -0.046875,0.015625 -0.125,0.015625 -0.125,0.140625 0,0.078125 0.078125,0.078125 0.140625,0.078125 0.265625,0 0.265625,0.03125 0.265625,0.078125 0,0.046875 0,0.078125 -0.015625,0.125 l -0.328125,1.28125 C 2.25,-2.328125 2.0625,-2.46875 1.796875,-2.46875 c -0.71875,0 -1.453125,0.78125 -1.453125,1.59375 0,0.546875 0.359375,0.9375 0.84375,0.9375 0.296875,0 0.578125,-0.1875 0.796875,-0.40625 C 2.09375,0 2.421875,0.0625 2.5625,0.0625 2.765625,0.0625 2.90625,-0.0625 3,-0.234375 3.125,-0.453125 3.203125,-0.78125 3.203125,-0.796875 3.203125,-0.875 3.125,-0.875 3.109375,-0.875 c -0.078125,0 -0.078125,0.015625 -0.125,0.171875 -0.0625,0.265625 -0.171875,0.609375 -0.40625,0.609375 -0.140625,0 -0.1875,-0.125 -0.1875,-0.28125 0,-0.109375 0.015625,-0.15625 0.03125,-0.234375 z m -1.1875,3.015625 C 1.96875,-0.546875 1.84375,-0.4375 1.71875,-0.328125 1.671875,-0.28125 1.453125,-0.09375 1.203125,-0.09375 1,-0.09375 0.796875,-0.25 0.796875,-0.640625 c 0,-0.296875 0.15625,-0.921875 0.296875,-1.140625 0.25,-0.453125 0.53125,-0.53125 0.703125,-0.53125 0.390625,0 0.484375,0.421875 0.484375,0.484375 0,0.015625 0,0.0625 -0.015625,0.078125 z m 0,0"
             style="stroke:none;stroke-width:0"
             inkscape:connector-curvature="0" />
        </g>
      </g>
    </g>
    <path
       style="fill:none;stroke:#000000;stroke-width:0.26458332px;stroke-linecap:butt;stroke-linejoin:miter;stroke-opacity:1"
       d="M 81.500706,114.35918 V 132.1326"
       id="path963"
       inkscape:connector-curvature="0" />
    <path
       style="fill:none;stroke:#000000;stroke-width:0.26458332px;stroke-linecap:butt;stroke-linejoin:miter;stroke-opacity:1"
       d="M 120.90473,114.35918 V 132.1326"
       id="path965"
       inkscape:connector-curvature="0" />
    <path
       style="fill:none;stroke:#000000;stroke-width:0.26458332px;stroke-linecap:butt;stroke-linejoin:miter;stroke-opacity:1"
       d="m 81.500706,114.35918 -2e-6,17.77342 H 120.90473 V 114.35918 H 81.500706 v -0.12543"
       id="path967"
       inkscape:connector-curvature="0" />
    <g
       id="g1642">
      <g
         transform="matrix(0.482979,0,0,0.482979,29.462671,83.724724)"
         ns1:version="0.9.1"
         ns1:texconverter="pdflatex"
         ns1:pdfconverter="pdf2svg"
         ns1:text="$\\hat S_{\\scaleto{n_0, n}{3pt}}$"
         ns1:preamble="/home/tim/Desktop/bachlor-arbeit/tex/preamble.tex"
         ns1:scale="1.36907301475"
         ns1:alignment="middle center"
         inkscapeversion="0.92.4"
         ns1:jacobian_sqrt="0.482979"
         id="g6172">
        <g
           id="g6170">
          <g
             style="fill:#000000;fill-opacity:1"
             id="g6150">
            <path
               inkscape:connector-curvature="0"
               style="stroke:none;stroke-width:0"
               d="M 2.5,-6.921875 1.15625,-5.5625 1.328125,-5.390625 2.5,-6.40625 3.640625,-5.390625 3.8125,-5.5625 Z m 0,0"
               transform="translate(73.318,64.137)"
               id="path6148" />
          </g>
          <g
             style="fill:#000000;fill-opacity:1"
             id="g6154">
            <path
               inkscape:connector-curvature="0"
               style="stroke:none;stroke-width:0"
               d="m 6.4375,-6.921875 c 0,-0.03125 -0.03125,-0.109375 -0.125,-0.109375 -0.046875,0 -0.046875,0.015625 -0.171875,0.15625 L 5.65625,-6.3125 c -0.25,-0.46875 -0.765625,-0.71875 -1.421875,-0.71875 -1.265625,0 -2.453125,1.15625 -2.453125,2.359375 0,0.796875 0.515625,1.265625 1.03125,1.40625 l 1.0625,0.28125 c 0.375,0.09375 0.921875,0.25 0.921875,1.0625 0,0.890625 -0.8125,1.828125 -1.796875,1.828125 -0.640625,0 -1.75,-0.21875 -1.75,-1.453125 0,-0.234375 0.0625,-0.484375 0.0625,-0.53125 0.015625,-0.046875 0.015625,-0.0625 0.015625,-0.078125 0,-0.09375 -0.0625,-0.109375 -0.109375,-0.109375 -0.046875,0 -0.078125,0.015625 -0.109375,0.046875 -0.03125,0.03125 -0.59375,2.3125 -0.59375,2.34375 0,0.046875 0.046875,0.09375 0.109375,0.09375 0.046875,0 0.0625,-0.015625 0.1875,-0.15625 L 1.296875,-0.5 c 0.421875,0.578125 1.109375,0.71875 1.6875,0.71875 1.359375,0 2.53125,-1.328125 2.53125,-2.5625 0,-0.6875 -0.34375,-1.03125 -0.484375,-1.171875 C 4.796875,-3.734375 4.640625,-3.78125 3.765625,-4 3.53125,-4.0625 3.1875,-4.171875 3.09375,-4.1875 2.828125,-4.28125 2.484375,-4.5625 2.484375,-5.09375 c 0,-0.8125 0.796875,-1.65625 1.75,-1.65625 0.8125,0 1.421875,0.4375 1.421875,1.546875 0,0.3125 -0.03125,0.5 -0.03125,0.5625 0,0 0,0.09375 0.109375,0.09375 0.109375,0 0.125,-0.03125 0.15625,-0.203125 z m 0,0"
               transform="translate(71.637,66.656)"
               id="path6152" />
          </g>
          <g
             style="fill:#000000;fill-opacity:1"
             id="g6158">
            <path
               inkscape:connector-curvature="0"
               style="stroke:none;stroke-width:0"
               d="M 0.578125,-0.296875 C 0.5625,-0.234375 0.53125,-0.125 0.53125,-0.109375 0.53125,0 0.625,0.046875 0.703125,0.046875 c 0.078125,0 0.15625,-0.0625 0.1875,-0.109375 C 0.90625,-0.09375 0.953125,-0.25 0.96875,-0.359375 1,-0.4375 1.046875,-0.671875 1.078125,-0.78125 1.109375,-0.890625 1.140625,-1 1.15625,-1.109375 c 0.046875,-0.1875 0.0625,-0.234375 0.203125,-0.421875 0.125,-0.1875 0.359375,-0.4375 0.71875,-0.4375 0.28125,0 0.28125,0.234375 0.28125,0.328125 0,0.28125 -0.203125,0.8125 -0.28125,1.015625 C 2.015625,-0.484375 2,-0.4375 2,-0.359375 c 0,0.25 0.21875,0.40625 0.453125,0.40625 0.484375,0 0.6875,-0.65625 0.6875,-0.734375 C 3.140625,-0.75 3.078125,-0.75 3.0625,-0.75 3,-0.75 3,-0.71875 2.984375,-0.671875 2.875,-0.28125 2.65625,-0.09375 2.46875,-0.09375 c -0.09375,0 -0.109375,-0.0625 -0.109375,-0.15625 0,-0.109375 0.015625,-0.171875 0.109375,-0.390625 0.046875,-0.140625 0.25,-0.65625 0.25,-0.921875 0,-0.46875 -0.375,-0.546875 -0.625,-0.546875 -0.390625,0 -0.671875,0.25 -0.8125,0.4375 -0.03125,-0.328125 -0.3125,-0.4375 -0.5,-0.4375 -0.21875,0 -0.328125,0.15625 -0.390625,0.265625 -0.09375,0.171875 -0.171875,0.4375 -0.171875,0.46875 0,0.0625 0.078125,0.0625 0.09375,0.0625 0.0625,0 0.0625,-0.015625 0.09375,-0.140625 0.078125,-0.28125 0.171875,-0.515625 0.359375,-0.515625 0.125,0 0.15625,0.09375 0.15625,0.234375 0,0.078125 -0.046875,0.265625 -0.078125,0.390625 -0.03125,0.125 -0.078125,0.328125 -0.109375,0.4375 z m 0,0"
               transform="translate(77.746,68.150123)"
               id="path6156" />
          </g>
          <g
             style="fill:#000000;fill-opacity:1"
             id="g6162">
            <path
               inkscape:connector-curvature="0"
               style="stroke:none;stroke-width:0"
               d="m 2.0625,-1.09375 c 0,-0.25 0,-1.1875 -0.90625,-1.1875 -0.890625,0 -0.890625,0.9375 -0.890625,1.1875 0,0.25 0,1.171875 0.890625,1.171875 0.90625,0 0.90625,-0.921875 0.90625,-1.171875 z m -0.90625,1.0625 c -0.125,0 -0.40625,-0.046875 -0.5,-0.390625 -0.046875,-0.1875 -0.046875,-0.4375 -0.046875,-0.71875 0,-0.25 0,-0.484375 0.0625,-0.6875 0.078125,-0.28125 0.34375,-0.34375 0.484375,-0.34375 0.265625,0 0.4375,0.140625 0.515625,0.375 0.046875,0.171875 0.046875,0.453125 0.046875,0.65625 0,0.234375 0,0.515625 -0.0625,0.71875 -0.078125,0.328125 -0.359375,0.390625 -0.5,0.390625 z m 0,0"
               transform="translate(81.12322,68.83313)"
               id="path6160" />
          </g>
          <g
             style="fill:#000000;fill-opacity:1"
             id="g6168">
            <path
               inkscape:connector-curvature="0"
               style="stroke:none;stroke-width:0"
               d="m 1.015625,-0.078125 c 0,0.265625 -0.046875,0.578125 -0.375,0.875 -0.03125,0.015625 -0.03125,0.03125 -0.03125,0.0625 0,0.03125 0.03125,0.0625 0.0625,0.0625 0.0625,0 0.46875,-0.375 0.46875,-0.953125 0,-0.296875 -0.109375,-0.515625 -0.328125,-0.515625 -0.15625,0 -0.28125,0.125 -0.28125,0.265625 C 0.53125,-0.125 0.640625,0 0.8125,0 0.921875,0 1,-0.078125 1.015625,-0.078125 Z m 0,0"
               transform="translate(83.789338,68.150123)"
               id="path6164" />
            <path
               inkscape:connector-curvature="0"
               style="stroke:none;stroke-width:0"
               d="M 0.578125,-0.296875 C 0.5625,-0.234375 0.53125,-0.125 0.53125,-0.109375 0.53125,0 0.625,0.046875 0.703125,0.046875 c 0.078125,0 0.15625,-0.0625 0.1875,-0.109375 C 0.90625,-0.09375 0.953125,-0.25 0.96875,-0.359375 1,-0.4375 1.046875,-0.671875 1.078125,-0.78125 1.109375,-0.890625 1.140625,-1 1.15625,-1.109375 c 0.046875,-0.1875 0.0625,-0.234375 0.203125,-0.421875 0.125,-0.1875 0.359375,-0.4375 0.71875,-0.4375 0.28125,0 0.28125,0.234375 0.28125,0.328125 0,0.28125 -0.203125,0.8125 -0.28125,1.015625 C 2.015625,-0.484375 2,-0.4375 2,-0.359375 c 0,0.25 0.21875,0.40625 0.453125,0.40625 0.484375,0 0.6875,-0.65625 0.6875,-0.734375 C 3.140625,-0.75 3.078125,-0.75 3.0625,-0.75 3,-0.75 3,-0.71875 2.984375,-0.671875 2.875,-0.28125 2.65625,-0.09375 2.46875,-0.09375 c -0.09375,0 -0.109375,-0.0625 -0.109375,-0.15625 0,-0.109375 0.015625,-0.171875 0.109375,-0.390625 0.046875,-0.140625 0.25,-0.65625 0.25,-0.921875 0,-0.46875 -0.375,-0.546875 -0.625,-0.546875 -0.390625,0 -0.671875,0.25 -0.8125,0.4375 -0.03125,-0.328125 -0.3125,-0.4375 -0.5,-0.4375 -0.21875,0 -0.328125,0.15625 -0.390625,0.265625 -0.09375,0.171875 -0.171875,0.4375 -0.171875,0.46875 0,0.0625 0.078125,0.0625 0.09375,0.0625 0.0625,0 0.0625,-0.015625 0.09375,-0.140625 0.078125,-0.28125 0.171875,-0.515625 0.359375,-0.515625 0.125,0 0.15625,0.09375 0.15625,0.234375 0,0.078125 -0.046875,0.265625 -0.078125,0.390625 -0.03125,0.125 -0.078125,0.328125 -0.109375,0.4375 z m 0,0"
               transform="translate(85.41192,68.150123)"
               id="path6166" />
          </g>
        </g>
      </g>
      <g
         transform="matrix(0.482979,0,0,0.482979,29.462671,101.63134)"
         ns1:version="0.9.1"
         ns1:texconverter="pdflatex"
         ns1:pdfconverter="pdf2svg"
         ns1:text="$\\hat S_{\\scaleto{n, n_0}{3pt}}$"
         ns1:preamble="/home/tim/Desktop/bachlor-arbeit/tex/preamble.tex"
         ns1:scale="1.36907301475"
         ns1:alignment="middle center"
         inkscapeversion="0.92.4"
         ns1:jacobian_sqrt="0.482979"
         id="g6345">
        <g
           id="g6343">
          <g
             style="fill:#000000;fill-opacity:1"
             id="g6325">
            <path
               inkscape:connector-curvature="0"
               style="stroke:none;stroke-width:0"
               d="M 2.5,-6.921875 1.15625,-5.5625 1.328125,-5.390625 2.5,-6.40625 3.640625,-5.390625 3.8125,-5.5625 Z m 0,0"
               transform="translate(73.318,64.137)"
               id="path6323" />
          </g>
          <g
             style="fill:#000000;fill-opacity:1"
             id="g6329">
            <path
               inkscape:connector-curvature="0"
               style="stroke:none;stroke-width:0"
               d="m 6.4375,-6.921875 c 0,-0.03125 -0.03125,-0.109375 -0.125,-0.109375 -0.046875,0 -0.046875,0.015625 -0.171875,0.15625 L 5.65625,-6.3125 c -0.25,-0.46875 -0.765625,-0.71875 -1.421875,-0.71875 -1.265625,0 -2.453125,1.15625 -2.453125,2.359375 0,0.796875 0.515625,1.265625 1.03125,1.40625 l 1.0625,0.28125 c 0.375,0.09375 0.921875,0.25 0.921875,1.0625 0,0.890625 -0.8125,1.828125 -1.796875,1.828125 -0.640625,0 -1.75,-0.21875 -1.75,-1.453125 0,-0.234375 0.0625,-0.484375 0.0625,-0.53125 0.015625,-0.046875 0.015625,-0.0625 0.015625,-0.078125 0,-0.09375 -0.0625,-0.109375 -0.109375,-0.109375 -0.046875,0 -0.078125,0.015625 -0.109375,0.046875 -0.03125,0.03125 -0.59375,2.3125 -0.59375,2.34375 0,0.046875 0.046875,0.09375 0.109375,0.09375 0.046875,0 0.0625,-0.015625 0.1875,-0.15625 L 1.296875,-0.5 c 0.421875,0.578125 1.109375,0.71875 1.6875,0.71875 1.359375,0 2.53125,-1.328125 2.53125,-2.5625 0,-0.6875 -0.34375,-1.03125 -0.484375,-1.171875 C 4.796875,-3.734375 4.640625,-3.78125 3.765625,-4 3.53125,-4.0625 3.1875,-4.171875 3.09375,-4.1875 2.828125,-4.28125 2.484375,-4.5625 2.484375,-5.09375 c 0,-0.8125 0.796875,-1.65625 1.75,-1.65625 0.8125,0 1.421875,0.4375 1.421875,1.546875 0,0.3125 -0.03125,0.5 -0.03125,0.5625 0,0 0,0.09375 0.109375,0.09375 0.109375,0 0.125,-0.03125 0.15625,-0.203125 z m 0,0"
               transform="translate(71.637,66.656)"
               id="path6327" />
          </g>
          <g
             style="fill:#000000;fill-opacity:1"
             id="g6337">
            <path
               inkscape:connector-curvature="0"
               style="stroke:none;stroke-width:0"
               d="M 0.578125,-0.296875 C 0.5625,-0.234375 0.53125,-0.125 0.53125,-0.109375 0.53125,0 0.625,0.046875 0.703125,0.046875 c 0.078125,0 0.15625,-0.0625 0.1875,-0.109375 C 0.90625,-0.09375 0.953125,-0.25 0.96875,-0.359375 1,-0.4375 1.046875,-0.671875 1.078125,-0.78125 1.109375,-0.890625 1.140625,-1 1.15625,-1.109375 c 0.046875,-0.1875 0.0625,-0.234375 0.203125,-0.421875 0.125,-0.1875 0.359375,-0.4375 0.71875,-0.4375 0.28125,0 0.28125,0.234375 0.28125,0.328125 0,0.28125 -0.203125,0.8125 -0.28125,1.015625 C 2.015625,-0.484375 2,-0.4375 2,-0.359375 c 0,0.25 0.21875,0.40625 0.453125,0.40625 0.484375,0 0.6875,-0.65625 0.6875,-0.734375 C 3.140625,-0.75 3.078125,-0.75 3.0625,-0.75 3,-0.75 3,-0.71875 2.984375,-0.671875 2.875,-0.28125 2.65625,-0.09375 2.46875,-0.09375 c -0.09375,0 -0.109375,-0.0625 -0.109375,-0.15625 0,-0.109375 0.015625,-0.171875 0.109375,-0.390625 0.046875,-0.140625 0.25,-0.65625 0.25,-0.921875 0,-0.46875 -0.375,-0.546875 -0.625,-0.546875 -0.390625,0 -0.671875,0.25 -0.8125,0.4375 -0.03125,-0.328125 -0.3125,-0.4375 -0.5,-0.4375 -0.21875,0 -0.328125,0.15625 -0.390625,0.265625 -0.09375,0.171875 -0.171875,0.4375 -0.171875,0.46875 0,0.0625 0.078125,0.0625 0.09375,0.0625 0.0625,0 0.0625,-0.015625 0.09375,-0.140625 0.078125,-0.28125 0.171875,-0.515625 0.359375,-0.515625 0.125,0 0.15625,0.09375 0.15625,0.234375 0,0.078125 -0.046875,0.265625 -0.078125,0.390625 -0.03125,0.125 -0.078125,0.328125 -0.109375,0.4375 z m 0,0"
               transform="translate(77.746,68.150123)"
               id="path6331" />
            <path
               inkscape:connector-curvature="0"
               style="stroke:none;stroke-width:0"
               d="m 1.015625,-0.078125 c 0,0.265625 -0.046875,0.578125 -0.375,0.875 -0.03125,0.015625 -0.03125,0.03125 -0.03125,0.0625 0,0.03125 0.03125,0.0625 0.0625,0.0625 0.0625,0 0.46875,-0.375 0.46875,-0.953125 0,-0.296875 -0.109375,-0.515625 -0.328125,-0.515625 -0.15625,0 -0.28125,0.125 -0.28125,0.265625 C 0.53125,-0.125 0.640625,0 0.8125,0 0.921875,0 1,-0.078125 1.015625,-0.078125 Z m 0,0"
               transform="translate(81.12315,68.150123)"
               id="path6333" />
            <path
               inkscape:connector-curvature="0"
               style="stroke:none;stroke-width:0"
               d="M 0.578125,-0.296875 C 0.5625,-0.234375 0.53125,-0.125 0.53125,-0.109375 0.53125,0 0.625,0.046875 0.703125,0.046875 c 0.078125,0 0.15625,-0.0625 0.1875,-0.109375 C 0.90625,-0.09375 0.953125,-0.25 0.96875,-0.359375 1,-0.4375 1.046875,-0.671875 1.078125,-0.78125 1.109375,-0.890625 1.140625,-1 1.15625,-1.109375 c 0.046875,-0.1875 0.0625,-0.234375 0.203125,-0.421875 0.125,-0.1875 0.359375,-0.4375 0.71875,-0.4375 0.28125,0 0.28125,0.234375 0.28125,0.328125 0,0.28125 -0.203125,0.8125 -0.28125,1.015625 C 2.015625,-0.484375 2,-0.4375 2,-0.359375 c 0,0.25 0.21875,0.40625 0.453125,0.40625 0.484375,0 0.6875,-0.65625 0.6875,-0.734375 C 3.140625,-0.75 3.078125,-0.75 3.0625,-0.75 3,-0.75 3,-0.71875 2.984375,-0.671875 2.875,-0.28125 2.65625,-0.09375 2.46875,-0.09375 c -0.09375,0 -0.109375,-0.0625 -0.109375,-0.15625 0,-0.109375 0.015625,-0.171875 0.109375,-0.390625 0.046875,-0.140625 0.25,-0.65625 0.25,-0.921875 0,-0.46875 -0.375,-0.546875 -0.625,-0.546875 -0.390625,0 -0.671875,0.25 -0.8125,0.4375 -0.03125,-0.328125 -0.3125,-0.4375 -0.5,-0.4375 -0.21875,0 -0.328125,0.15625 -0.390625,0.265625 -0.09375,0.171875 -0.171875,0.4375 -0.171875,0.46875 0,0.0625 0.078125,0.0625 0.09375,0.0625 0.0625,0 0.0625,-0.015625 0.09375,-0.140625 0.078125,-0.28125 0.171875,-0.515625 0.359375,-0.515625 0.125,0 0.15625,0.09375 0.15625,0.234375 0,0.078125 -0.046875,0.265625 -0.078125,0.390625 -0.03125,0.125 -0.078125,0.328125 -0.109375,0.4375 z m 0,0"
               transform="translate(82.745731,68.150123)"
               id="path6335" />
          </g>
          <g
             style="fill:#000000;fill-opacity:1"
             id="g6341">
            <path
               inkscape:connector-curvature="0"
               style="stroke:none;stroke-width:0"
               d="m 2.0625,-1.09375 c 0,-0.25 0,-1.1875 -0.90625,-1.1875 -0.890625,0 -0.890625,0.9375 -0.890625,1.1875 0,0.25 0,1.171875 0.890625,1.171875 0.90625,0 0.90625,-0.921875 0.90625,-1.171875 z m -0.90625,1.0625 c -0.125,0 -0.40625,-0.046875 -0.5,-0.390625 -0.046875,-0.1875 -0.046875,-0.4375 -0.046875,-0.71875 0,-0.25 0,-0.484375 0.0625,-0.6875 0.078125,-0.28125 0.34375,-0.34375 0.484375,-0.34375 0.265625,0 0.4375,0.140625 0.515625,0.375 0.046875,0.171875 0.046875,0.453125 0.046875,0.65625 0,0.234375 0,0.515625 -0.0625,0.71875 -0.078125,0.328125 -0.359375,0.390625 -0.5,0.390625 z m 0,0"
               transform="translate(86.122878,68.83313)"
               id="path6339" />
          </g>
        </g>
      </g>
      <path
         sodipodi:nodetypes="cc"
         inkscape:connector-curvature="0"
         id="path991"
         d="m 72.336154,114.36427 h 7.26382"
         style="opacity:1;vector-effect:none;fill:none;fill-opacity:1;stroke:#000000;stroke-width:0.26499999;stroke-linecap:butt;stroke-linejoin:miter;stroke-miterlimit:4;stroke-dasharray:none;stroke-dashoffset:0;stroke-opacity:1;marker-end:url(#marker1015)" />
      <path
         style="opacity:1;vector-effect:none;fill:none;fill-opacity:1;stroke:#000000;stroke-width:0.26499999;stroke-linecap:butt;stroke-linejoin:miter;stroke-miterlimit:4;stroke-dasharray:none;stroke-dashoffset:0;stroke-opacity:1;marker-end:url(#marker1211)"
         d="m 72.336154,132.0819 h 7.26382"
         id="path1205"
         inkscape:connector-curvature="0"
         sodipodi:nodetypes="cc" />
    </g>
    <rect
       style="opacity:1;vector-effect:none;fill:#ffffff;fill-opacity:1;stroke:#ffffff;stroke-width:0.26499999;stroke-linecap:butt;stroke-linejoin:miter;stroke-miterlimit:4;stroke-dasharray:none;stroke-dashoffset:0;stroke-opacity:1;marker-end:url(#Arrow2Mend)"
       id="rect1795"
       width="11.492589"
       height="23.853804"
       x="123.81261"
       y="111.51495" />
  </g>
</svg>
