<?xml version="1.0" encoding="UTF-8" standalone="no"?>
<!-- Created with Inkscape (http://www.inkscape.org/) -->

<svg
   xmlns:ns1="http://www.iki.fi/pav/software/textext/"
   xmlns:dc="http://purl.org/dc/elements/1.1/"
   xmlns:cc="http://creativecommons.org/ns#"
   xmlns:rdf="http://www.w3.org/1999/02/22-rdf-syntax-ns#"
   xmlns:svg="http://www.w3.org/2000/svg"
   xmlns="http://www.w3.org/2000/svg"
   xmlns:sodipodi="http://sodipodi.sourceforge.net/DTD/sodipodi-0.dtd"
   xmlns:inkscape="http://www.inkscape.org/namespaces/inkscape"
   width="210mm"
   height="297mm"
   viewBox="0 0 210 297"
   version="1.1"
   id="svg986"
   inkscape:version="0.92.4 5da689c313, 2019-01-14"
   sodipodi:docname="bg_starprod.svg">
  <defs
     id="defs980">
    <marker
       inkscape:stockid="Arrow2Mend"
       orient="auto"
       refY="0.0"
       refX="0.0"
       id="marker4975"
       style="overflow:visible;"
       inkscape:isstock="true">
      <path
         id="path4973"
         style="fill-rule:evenodd;stroke-width:0.625;stroke-linejoin:round;stroke:#000000;stroke-opacity:1;fill:#000000;fill-opacity:1"
         d="M 8.7185878,4.0337352 L -2.2072895,0.016013256 L 8.7185884,-4.0017078 C 6.9730900,-1.6296469 6.9831476,1.6157441 8.7185878,4.0337352 z "
         transform="scale(0.6) rotate(180) translate(0,0)" />
    </marker>
    <marker
       inkscape:stockid="Arrow2Mend"
       orient="auto"
       refY="0.0"
       refX="0.0"
       id="Arrow2Mend"
       style="overflow:visible;"
       inkscape:isstock="true">
      <path
         id="path4682"
         style="fill-rule:evenodd;stroke-width:0.625;stroke-linejoin:round;stroke:#000000;stroke-opacity:1;fill:#000000;fill-opacity:1"
         d="M 8.7185878,4.0337352 L -2.2072895,0.016013256 L 8.7185884,-4.0017078 C 6.9730900,-1.6296469 6.9831476,1.6157441 8.7185878,4.0337352 z "
         transform="scale(0.6) rotate(180) translate(0,0)" />
    </marker>
    <marker
       inkscape:isstock="true"
       style="overflow:visible"
       id="marker2071"
       refX="0"
       refY="0"
       orient="auto"
       inkscape:stockid="TriangleInM">
      <path
         transform="scale(-0.4)"
         style="fill:#000000;fill-opacity:1;fill-rule:evenodd;stroke:#000000;stroke-width:1.00000003pt;stroke-opacity:1"
         d="M 5.77,0 -2.88,5 V -5 Z"
         id="path2069"
         inkscape:connector-curvature="0" />
    </marker>
    <marker
       inkscape:stockid="TriangleInM"
       orient="auto"
       refY="0"
       refX="0"
       id="marker1725"
       style="overflow:visible"
       inkscape:isstock="true">
      <path
         inkscape:connector-curvature="0"
         id="path1723"
         d="M 5.77,0 -2.88,5 V -5 Z"
         style="fill:#000000;fill-opacity:1;fill-rule:evenodd;stroke:#000000;stroke-width:1.00000003pt;stroke-opacity:1"
         transform="scale(-0.4)" />
    </marker>
    <marker
       inkscape:isstock="true"
       style="overflow:visible"
       id="marker4337"
       refX="0"
       refY="0"
       orient="auto"
       inkscape:stockid="TriangleInM">
      <path
         transform="scale(-0.4)"
         style="fill:#000000;fill-opacity:1;fill-rule:evenodd;stroke:#000000;stroke-width:1.00000003pt;stroke-opacity:1"
         d="M 5.77,0 -2.88,5 V -5 Z"
         id="path4335"
         inkscape:connector-curvature="0" />
    </marker>
    <marker
       inkscape:stockid="TriangleInM"
       orient="auto"
       refY="0"
       refX="0"
       id="marker2487"
       style="overflow:visible"
       inkscape:isstock="true"
       inkscape:collect="always">
      <path
         inkscape:connector-curvature="0"
         id="path2485"
         d="M 5.77,0 -2.88,5 V -5 Z"
         style="fill:#000000;fill-opacity:1;fill-rule:evenodd;stroke:#000000;stroke-width:1.00000003pt;stroke-opacity:1"
         transform="scale(-0.4)" />
    </marker>
    <marker
       inkscape:stockid="TriangleInM"
       orient="auto"
       refY="0"
       refX="0"
       id="marker3545"
       style="overflow:visible"
       inkscape:isstock="true">
      <path
         inkscape:connector-curvature="0"
         id="path3543"
         d="M 5.77,0 -2.88,5 V -5 Z"
         style="fill:#000000;fill-opacity:1;fill-rule:evenodd;stroke:#000000;stroke-width:1.00000003pt;stroke-opacity:1"
         transform="scale(-0.4)" />
    </marker>
    <marker
       inkscape:isstock="true"
       style="overflow:visible"
       id="marker3173"
       refX="0"
       refY="0"
       orient="auto"
       inkscape:stockid="TriangleInM"
       inkscape:collect="always">
      <path
         transform="scale(-0.4)"
         style="fill:#000000;fill-opacity:1;fill-rule:evenodd;stroke:#000000;stroke-width:1.00000003pt;stroke-opacity:1"
         d="M 5.77,0 -2.88,5 V -5 Z"
         id="path3171"
         inkscape:connector-curvature="0" />
    </marker>
  </defs>
  <sodipodi:namedview
     id="base"
     pagecolor="#ffffff"
     bordercolor="#666666"
     borderopacity="1.0"
     inkscape:pageopacity="0.0"
     inkscape:pageshadow="2"
     inkscape:zoom="2.8"
     inkscape:cx="390.00388"
     inkscape:cy="652.69907"
     inkscape:document-units="mm"
     inkscape:current-layer="layer1"
     showgrid="false"
     inkscape:window-width="1920"
     inkscape:window-height="1052"
     inkscape:window-x="0"
     inkscape:window-y="28"
     inkscape:window-maximized="1"
     inkscape:snap-global="false" />
  <metadata
     id="metadata983">
    <rdf:RDF>
      <cc:Work
         rdf:about="">
        <dc:format>image/svg+xml</dc:format>
        <dc:type
           rdf:resource="http://purl.org/dc/dcmitype/StillImage" />
        <dc:title></dc:title>
      </cc:Work>
    </rdf:RDF>
  </metadata>
  <g
     inkscape:label="Layer 1"
     inkscape:groupmode="layer"
     id="layer1">
    <path
       style="fill:none;stroke:#000000;stroke-width:0.26458332px;stroke-linecap:butt;stroke-linejoin:miter;stroke-opacity:1"
       d="M 81.500708,132.1326 H 120.90473"
       id="path1366"
       inkscape:connector-curvature="0"
       sodipodi:nodetypes="cc" />
    <g
       style="fill:#ffffff;stroke:#ffffff"
       id="g3454"
       ns1:jacobian_sqrt="0.482979"
       ns1:alignment="middle center"
       ns1:scale="1.3690730431"
       ns1:preamble="/home/tim/.config/inkscape/extensions/textext/default_packages.tex"
       ns1:text="$x$"
       ns1:pdfconverter="pdf2svg"
       ns1:texconverter="pdflatex"
       ns1:version="0.9.1"
       transform="matrix(0.40203932,0,0,0.40203932,4.3403019,81.242948)">
      <g
         style="fill:#ffffff;stroke:#ffffff"
         id="g3452">
        <g
           id="g3450"
           style="fill:#ffffff;fill-opacity:1;stroke:#ffffff">
          <path
             id="path3448"
             transform="translate(148.712,134.765)"
             d="M 3.328125,-3.015625 C 3.390625,-3.265625 3.625,-4.1875 4.3125,-4.1875 c 0.046875,0 0.296875,0 0.5,0.125 C 4.53125,-4 4.34375,-3.765625 4.34375,-3.515625 c 0,0.15625 0.109375,0.34375 0.375,0.34375 0.21875,0 0.53125,-0.171875 0.53125,-0.578125 0,-0.515625 -0.578125,-0.65625 -0.921875,-0.65625 -0.578125,0 -0.921875,0.53125 -1.046875,0.75 -0.25,-0.65625 -0.78125,-0.75 -1.078125,-0.75 -1.03125,0 -1.609375,1.28125 -1.609375,1.53125 0,0.109375 0.109375,0.109375 0.125,0.109375 0.078125,0 0.109375,-0.03125 0.125,-0.109375 0.34375,-1.0625 1,-1.3125 1.34375,-1.3125 0.1875,0 0.53125,0.09375 0.53125,0.671875 0,0.3125 -0.171875,0.96875 -0.53125,2.375 -0.15625,0.609375 -0.515625,1.03125 -0.953125,1.03125 -0.0625,0 -0.28125,0 -0.5,-0.125 0.25,-0.0625 0.46875,-0.265625 0.46875,-0.546875 0,-0.265625 -0.21875,-0.34375 -0.359375,-0.34375 -0.3125,0 -0.546875,0.25 -0.546875,0.578125 0,0.453125 0.484375,0.65625 0.921875,0.65625 0.671875,0 1.03125,-0.703125 1.046875,-0.75 0.125,0.359375 0.484375,0.75 1.078125,0.75 1.03125,0 1.59375,-1.28125 1.59375,-1.53125 0,-0.109375 -0.078125,-0.109375 -0.109375,-0.109375 -0.09375,0 -0.109375,0.046875 -0.140625,0.109375 -0.328125,1.078125 -1,1.3125 -1.3125,1.3125 -0.390625,0 -0.546875,-0.3125 -0.546875,-0.65625 0,-0.21875 0.046875,-0.4375 0.15625,-0.875 z m 0,0"
             style="fill:#ffffff;stroke:#ffffff;stroke-width:0"
             inkscape:connector-curvature="0" />
        </g>
      </g>
    </g>
    <path
       inkscape:connector-curvature="0"
       id="path3169"
       d="m 99.630135,96.56309 v 17.74655"
       style="opacity:1;vector-effect:none;fill:none;fill-opacity:1;stroke:#000000;stroke-width:0.26414955px;stroke-linecap:butt;stroke-linejoin:miter;stroke-miterlimit:4;stroke-dasharray:none;stroke-dashoffset:0;stroke-opacity:1;marker-start:url(#marker3173)" />
    <path
       style="opacity:1;vector-effect:none;fill:none;fill-opacity:1;stroke:#000000;stroke-width:0.26414955px;stroke-linecap:butt;stroke-linejoin:miter;stroke-miterlimit:4;stroke-dasharray:none;stroke-dashoffset:0;stroke-opacity:1;marker-start:url(#marker3545)"
       d="m 99.630135,132.88301 v 17.74656"
       id="path3541"
       inkscape:connector-curvature="0" />
    <path
       style="opacity:1;vector-effect:none;fill:none;fill-opacity:1;stroke:#000000;stroke-width:0.26414955px;stroke-linecap:butt;stroke-linejoin:miter;stroke-miterlimit:4;stroke-dasharray:none;stroke-dashoffset:0;stroke-opacity:1;marker-start:url(#marker2487)"
       d="M 103.43873,113.55923 V 95.812679"
       id="path2415"
       inkscape:connector-curvature="0" />
    <path
       inkscape:connector-curvature="0"
       id="path4333"
       d="M 103.43873,149.91504 V 132.1326"
       style="opacity:1;vector-effect:none;fill:none;fill-opacity:1;stroke:#000000;stroke-width:0.26468378px;stroke-linecap:butt;stroke-linejoin:miter;stroke-miterlimit:4;stroke-dasharray:none;stroke-dashoffset:0;stroke-opacity:1;marker-start:url(#marker4337)" />
    <g
       id="g1027"
       ns1:jacobian_sqrt="0.402039"
       inkscapeversion="0.92.4"
       ns1:alignment="middle center"
       ns1:scale="1.13963800219"
       ns1:preamble="/home/tim/Desktop/bachlor-arbeit/tex/preamble.tex"
       ns1:text="$\\vb E_\\s{in}^f$"
       ns1:pdfconverter="pdf2svg"
       ns1:texconverter="pdflatex"
       ns1:version="0.9.1"
       transform="matrix(0.40203901,0,0,0.40203901,63.042677,122.92606)">
      <g
         id="g1025">
        <g
           id="g1013"
           style="fill:#000000;fill-opacity:1">
          <path
             id="path1011"
             transform="translate(71.637,66.656)"
             d="m 7.203125,-2.734375 h -0.46875 c -0.21875,1.375 -0.5,2.265625 -2.34375,2.265625 H 2.875 v -2.8125 h 0.546875 c 0.96875,0 1.0625,0.4375 1.0625,1.171875 h 0.46875 v -2.8125 h -0.46875 c 0,0.75 -0.09375,1.171875 -1.0625,1.171875 H 2.875 v -2.5625 h 1.515625 c 1.609375,0 1.875,0.734375 2.03125,1.9375 h 0.46875 l -0.3125,-2.40625 h -6.1875 V -6.3125 H 1.46875 v 5.84375 H 0.390625 V 0 H 6.75 Z m 0,0"
             style="stroke:none;stroke-width:0"
             inkscape:connector-curvature="0" />
        </g>
        <g
           id="g1017"
           style="fill:#000000;fill-opacity:1">
          <path
             id="path1015"
             transform="translate(79.164,61.868)"
             d="M 2.84375,-2.75 H 3.515625 C 3.65625,-2.75 3.75,-2.75 3.75,-2.90625 3.75,-3 3.65625,-3 3.53125,-3 H 2.890625 c 0.15625,-0.890625 0.203125,-1.203125 0.265625,-1.40625 0.03125,-0.15625 0.1875,-0.296875 0.359375,-0.296875 0,0 0.1875,0 0.328125,0.078125 -0.296875,0.09375 -0.3125,0.34375 -0.3125,0.375 0,0.15625 0.125,0.265625 0.28125,0.265625 0.1875,0 0.390625,-0.15625 0.390625,-0.421875 0,-0.328125 -0.328125,-0.5 -0.6875,-0.5 -0.3125,0 -0.65625,0.171875 -0.84375,0.515625 C 2.53125,-4.125 2.484375,-3.8125 2.328125,-3 H 1.78125 c -0.140625,0 -0.234375,0 -0.234375,0.15625 0,0.09375 0.09375,0.09375 0.21875,0.09375 H 2.28125 c 0,0.046875 -0.4375,2.546875 -0.609375,3.296875 -0.03125,0.15625 -0.15625,0.671875 -0.484375,0.671875 -0.015625,0 -0.171875,0 -0.3125,-0.078125 0.28125,-0.09375 0.3125,-0.34375 0.3125,-0.375 C 1.1875,0.609375 1.0625,0.5 0.90625,0.5 c -0.1875,0 -0.390625,0.15625 -0.390625,0.421875 0,0.3125 0.328125,0.5 0.671875,0.5 0.4375,0 0.75,-0.453125 0.828125,-0.609375 0.25,-0.46875 0.421875,-1.328125 0.4375,-1.40625 z m 0,0"
             style="stroke:none;stroke-width:0"
             inkscape:connector-curvature="0" />
        </g>
        <g
           id="g1023"
           style="fill:#000000;fill-opacity:1">
          <path
             id="path1019"
             transform="translate(79.164,69.509)"
             d="m 1.46875,-4.296875 c 0,-0.203125 -0.171875,-0.40625 -0.40625,-0.40625 -0.203125,0 -0.390625,0.171875 -0.390625,0.40625 0,0.25 0.203125,0.40625 0.390625,0.40625 0.234375,0 0.40625,-0.171875 0.40625,-0.40625 z M 0.40625,-3 v 0.25 c 0.4375,0 0.5,0.046875 0.5,0.390625 v 1.8125 C 0.90625,-0.25 0.84375,-0.25 0.390625,-0.25 V 0 c 0.015625,0 0.5,-0.03125 0.78125,-0.03125 0.25,0 0.5,0.015625 0.734375,0.03125 V -0.25 C 1.5,-0.25 1.4375,-0.25 1.4375,-0.546875 v -2.53125 z m 0,0"
             style="stroke:none;stroke-width:0"
             inkscape:connector-curvature="0" />
          <path
             id="path1021"
             transform="translate(81.419327,69.509)"
             d="m 3.59375,-2.109375 c 0,-0.609375 -0.296875,-0.96875 -1.046875,-0.96875 -0.578125,0 -0.9375,0.3125 -1.140625,0.6875 v -0.6875 L 0.375,-3 v 0.25 c 0.46875,0 0.53125,0.046875 0.53125,0.390625 v 1.8125 C 0.90625,-0.25 0.828125,-0.25 0.375,-0.25 V 0 C 0.390625,0 0.875,-0.03125 1.171875,-0.03125 1.421875,-0.03125 1.90625,0 1.96875,0 v -0.25 c -0.453125,0 -0.515625,0 -0.515625,-0.296875 V -1.8125 c 0,-0.71875 0.578125,-1.0625 1.03125,-1.0625 0.484375,0 0.546875,0.375 0.546875,0.734375 v 1.59375 C 3.03125,-0.25 2.96875,-0.25 2.515625,-0.25 V 0 C 2.53125,0 3.015625,-0.03125 3.3125,-0.03125 3.5625,-0.03125 4.046875,0 4.109375,0 v -0.25 c -0.453125,0 -0.515625,0 -0.515625,-0.296875 z m 0,0"
             style="stroke:none;stroke-width:0"
             inkscape:connector-curvature="0" />
        </g>
      </g>
    </g>
    <g
       id="g1133"
       ns1:jacobian_sqrt="0.402039"
       inkscapeversion="0.92.4"
       ns1:alignment="middle center"
       ns1:scale="1.13963800219"
       ns1:preamble="/home/tim/Desktop/bachlor-arbeit/tex/preamble.tex"
       ns1:text="$\\vb E_\\s{out}^f$"
       ns1:pdfconverter="pdf2svg"
       ns1:texconverter="pdflatex"
       ns1:version="0.9.1"
       transform="matrix(0.40203901,0,0,0.40203901,76.059312,123.27946)">
      <g
         id="g1131">
        <g
           id="g1117"
           style="fill:#000000;fill-opacity:1">
          <path
             id="path1115"
             transform="translate(71.637,66.656)"
             d="m 7.203125,-2.734375 h -0.46875 c -0.21875,1.375 -0.5,2.265625 -2.34375,2.265625 H 2.875 v -2.8125 h 0.546875 c 0.96875,0 1.0625,0.4375 1.0625,1.171875 h 0.46875 v -2.8125 h -0.46875 c 0,0.75 -0.09375,1.171875 -1.0625,1.171875 H 2.875 v -2.5625 h 1.515625 c 1.609375,0 1.875,0.734375 2.03125,1.9375 h 0.46875 l -0.3125,-2.40625 h -6.1875 V -6.3125 H 1.46875 v 5.84375 H 0.390625 V 0 H 6.75 Z m 0,0"
             style="stroke:none;stroke-width:0"
             inkscape:connector-curvature="0" />
        </g>
        <g
           id="g1121"
           style="fill:#000000;fill-opacity:1">
          <path
             id="path1119"
             transform="translate(79.164,61.868)"
             d="M 2.84375,-2.75 H 3.515625 C 3.65625,-2.75 3.75,-2.75 3.75,-2.90625 3.75,-3 3.65625,-3 3.53125,-3 H 2.890625 c 0.15625,-0.890625 0.203125,-1.203125 0.265625,-1.40625 0.03125,-0.15625 0.1875,-0.296875 0.359375,-0.296875 0,0 0.1875,0 0.328125,0.078125 -0.296875,0.09375 -0.3125,0.34375 -0.3125,0.375 0,0.15625 0.125,0.265625 0.28125,0.265625 0.1875,0 0.390625,-0.15625 0.390625,-0.421875 0,-0.328125 -0.328125,-0.5 -0.6875,-0.5 -0.3125,0 -0.65625,0.171875 -0.84375,0.515625 C 2.53125,-4.125 2.484375,-3.8125 2.328125,-3 H 1.78125 c -0.140625,0 -0.234375,0 -0.234375,0.15625 0,0.09375 0.09375,0.09375 0.21875,0.09375 H 2.28125 c 0,0.046875 -0.4375,2.546875 -0.609375,3.296875 -0.03125,0.15625 -0.15625,0.671875 -0.484375,0.671875 -0.015625,0 -0.171875,0 -0.3125,-0.078125 0.28125,-0.09375 0.3125,-0.34375 0.3125,-0.375 C 1.1875,0.609375 1.0625,0.5 0.90625,0.5 c -0.1875,0 -0.390625,0.15625 -0.390625,0.421875 0,0.3125 0.328125,0.5 0.671875,0.5 0.4375,0 0.75,-0.453125 0.828125,-0.609375 0.25,-0.46875 0.421875,-1.328125 0.4375,-1.40625 z m 0,0"
             style="stroke:none;stroke-width:0"
             inkscape:connector-curvature="0" />
        </g>
        <g
           id="g1129"
           style="fill:#000000;fill-opacity:1">
          <path
             id="path1123"
             transform="translate(79.164,69.107)"
             d="m 3.6875,-1.484375 c 0,-0.875 -0.75,-1.625 -1.703125,-1.625 -0.96875,0 -1.71875,0.75 -1.71875,1.625 0,0.859375 0.765625,1.546875 1.71875,1.546875 0.9375,0 1.703125,-0.6875 1.703125,-1.546875 z M 1.984375,-0.15625 c -0.265625,0 -0.640625,-0.078125 -0.875,-0.421875 -0.1875,-0.28125 -0.203125,-0.640625 -0.203125,-0.96875 0,-0.296875 0,-0.71875 0.25,-1.015625 0.171875,-0.203125 0.46875,-0.34375 0.828125,-0.34375 0.40625,0 0.703125,0.1875 0.859375,0.40625 0.1875,0.265625 0.203125,0.625 0.203125,0.953125 0,0.328125 -0.015625,0.703125 -0.21875,0.984375 -0.1875,0.265625 -0.5,0.40625 -0.84375,0.40625 z m 0,0"
             style="stroke:none;stroke-width:0"
             inkscape:connector-curvature="0" />
          <path
             id="path1125"
             transform="translate(83.135579,69.107)"
             d="m 2.515625,-3 v 0.25 c 0.46875,0 0.515625,0.046875 0.515625,0.390625 v 1.203125 c 0,0.609375 -0.390625,1.03125 -0.921875,1.03125 -0.625,0 -0.65625,-0.296875 -0.65625,-0.65625 V -3.078125 L 0.375,-3 v 0.25 c 0.53125,0 0.53125,0.03125 0.53125,0.640625 V -1.0625 c 0,0.484375 0,1.125 1.15625,1.125 0.15625,0 0.65625,0 1,-0.578125 V 0.0625 L 4.109375,0 v -0.25 c -0.46875,0 -0.515625,-0.046875 -0.515625,-0.390625 v -2.4375 z m 0,0"
             style="stroke:none;stroke-width:0"
             inkscape:connector-curvature="0" />
          <path
             id="path1127"
             transform="translate(87.536047,69.107)"
             d="M 1.40625,-2.75 H 2.484375 V -3 H 1.40625 v -1.28125 h -0.25 c 0,0.625 -0.28125,1.3125 -0.953125,1.328125 V -2.75 H 0.84375 v 1.875 c 0,0.78125 0.59375,0.9375 0.984375,0.9375 0.46875,0 0.78125,-0.390625 0.78125,-0.9375 V -1.265625 H 2.375 v 0.375 c 0,0.484375 -0.21875,0.734375 -0.5,0.734375 -0.46875,0 -0.46875,-0.578125 -0.46875,-0.703125 z m 0,0"
             style="stroke:none;stroke-width:0"
             inkscape:connector-curvature="0" />
        </g>
      </g>
    </g>
    <g
       id="g1240"
       ns1:jacobian_sqrt="0.402039"
       inkscapeversion="0.92.4"
       ns1:alignment="middle center"
       ns1:scale="1.13963800219"
       ns1:preamble="/home/tim/Desktop/bachlor-arbeit/tex/preamble.tex"
       ns1:text="$\\vb E_\\s{in}^b$"
       ns1:pdfconverter="pdf2svg"
       ns1:texconverter="pdflatex"
       ns1:version="0.9.1"
       transform="matrix(0.40203901,0,0,0.40203901,76.059312,72.971092)">
      <g
         id="g1238">
        <g
           id="g1226"
           style="fill:#000000;fill-opacity:1">
          <path
             id="path1224"
             transform="translate(71.637,66.656)"
             d="m 7.203125,-2.734375 h -0.46875 c -0.21875,1.375 -0.5,2.265625 -2.34375,2.265625 H 2.875 v -2.8125 h 0.546875 c 0.96875,0 1.0625,0.4375 1.0625,1.171875 h 0.46875 v -2.8125 h -0.46875 c 0,0.75 -0.09375,1.171875 -1.0625,1.171875 H 2.875 v -2.5625 h 1.515625 c 1.609375,0 1.875,0.734375 2.03125,1.9375 h 0.46875 l -0.3125,-2.40625 h -6.1875 V -6.3125 H 1.46875 v 5.84375 H 0.390625 V 0 H 6.75 Z m 0,0"
             style="stroke:none;stroke-width:0"
             inkscape:connector-curvature="0" />
        </g>
        <g
           id="g1230"
           style="fill:#000000;fill-opacity:1">
          <path
             id="path1228"
             transform="translate(79.164,63.04)"
             d="m 1.84375,-4.625 c 0,-0.015625 0.03125,-0.109375 0.03125,-0.109375 0,-0.046875 -0.03125,-0.109375 -0.125,-0.109375 -0.140625,0 -0.71875,0.0625 -0.890625,0.078125 -0.046875,0 -0.15625,0.015625 -0.15625,0.15625 0,0.09375 0.109375,0.09375 0.1875,0.09375 0.328125,0 0.328125,0.0625 0.328125,0.109375 0,0.046875 -0.0625,0.328125 -0.109375,0.484375 l -0.15625,0.640625 c -0.0625,0.25 -0.4375,1.765625 -0.453125,1.859375 -0.046875,0.171875 -0.046875,0.265625 -0.046875,0.34375 0,0.703125 0.453125,1.140625 1.03125,1.140625 0.875,0 1.796875,-0.9375 1.796875,-1.96875 0,-0.8125 -0.5625,-1.171875 -1.046875,-1.171875 -0.359375,0 -0.671875,0.203125 -0.875,0.390625 z m -0.359375,4.5 c -0.328125,0 -0.53125,-0.296875 -0.53125,-0.71875 0,-0.25 0.0625,-0.484375 0.265625,-1.28125 C 1.25,-2.25 1.25,-2.265625 1.390625,-2.421875 1.65625,-2.71875 1.96875,-2.875 2.21875,-2.875 c 0.265625,0 0.5,0.203125 0.5,0.671875 0,0.28125 -0.140625,1 -0.359375,1.40625 C 2.1875,-0.453125 1.84375,-0.125 1.484375,-0.125 Z m 0,0"
             style="stroke:none;stroke-width:0"
             inkscape:connector-curvature="0" />
        </g>
        <g
           id="g1236"
           style="fill:#000000;fill-opacity:1">
          <path
             id="path1232"
             transform="translate(79.164,69.325)"
             d="m 1.46875,-4.296875 c 0,-0.203125 -0.171875,-0.40625 -0.40625,-0.40625 -0.203125,0 -0.390625,0.171875 -0.390625,0.40625 0,0.25 0.203125,0.40625 0.390625,0.40625 0.234375,0 0.40625,-0.171875 0.40625,-0.40625 z M 0.40625,-3 v 0.25 c 0.4375,0 0.5,0.046875 0.5,0.390625 v 1.8125 C 0.90625,-0.25 0.84375,-0.25 0.390625,-0.25 V 0 c 0.015625,0 0.5,-0.03125 0.78125,-0.03125 0.25,0 0.5,0.015625 0.734375,0.03125 V -0.25 C 1.5,-0.25 1.4375,-0.25 1.4375,-0.546875 v -2.53125 z m 0,0"
             style="stroke:none;stroke-width:0"
             inkscape:connector-curvature="0" />
          <path
             id="path1234"
             transform="translate(81.419327,69.325)"
             d="m 3.59375,-2.109375 c 0,-0.609375 -0.296875,-0.96875 -1.046875,-0.96875 -0.578125,0 -0.9375,0.3125 -1.140625,0.6875 v -0.6875 L 0.375,-3 v 0.25 c 0.46875,0 0.53125,0.046875 0.53125,0.390625 v 1.8125 C 0.90625,-0.25 0.828125,-0.25 0.375,-0.25 V 0 C 0.390625,0 0.875,-0.03125 1.171875,-0.03125 1.421875,-0.03125 1.90625,0 1.96875,0 v -0.25 c -0.453125,0 -0.515625,0 -0.515625,-0.296875 V -1.8125 c 0,-0.71875 0.578125,-1.0625 1.03125,-1.0625 0.484375,0 0.546875,0.375 0.546875,0.734375 v 1.59375 C 3.03125,-0.25 2.96875,-0.25 2.515625,-0.25 V 0 C 2.53125,0 3.015625,-0.03125 3.3125,-0.03125 3.5625,-0.03125 4.046875,0 4.109375,0 v -0.25 c -0.453125,0 -0.515625,0 -0.515625,-0.296875 z m 0,0"
             style="stroke:none;stroke-width:0"
             inkscape:connector-curvature="0" />
        </g>
      </g>
    </g>
    <g
       id="g1349"
       ns1:jacobian_sqrt="0.402039"
       inkscapeversion="0.92.4"
       ns1:alignment="middle center"
       ns1:scale="1.13963800219"
       ns1:preamble="/home/tim/Desktop/bachlor-arbeit/tex/preamble.tex"
       ns1:text="$\\vb E_\\s{out}^b$"
       ns1:pdfconverter="pdf2svg"
       ns1:texconverter="pdflatex"
       ns1:version="0.9.1"
       transform="matrix(0.40203901,0,0,0.40203901,62.114625,72.714994)">
      <g
         id="g1347">
        <g
           id="g1333"
           style="fill:#000000;fill-opacity:1">
          <path
             id="path1331"
             transform="translate(71.637,66.656)"
             d="m 7.203125,-2.734375 h -0.46875 c -0.21875,1.375 -0.5,2.265625 -2.34375,2.265625 H 2.875 v -2.8125 h 0.546875 c 0.96875,0 1.0625,0.4375 1.0625,1.171875 h 0.46875 v -2.8125 h -0.46875 c 0,0.75 -0.09375,1.171875 -1.0625,1.171875 H 2.875 v -2.5625 h 1.515625 c 1.609375,0 1.875,0.734375 2.03125,1.9375 h 0.46875 l -0.3125,-2.40625 h -6.1875 V -6.3125 H 1.46875 v 5.84375 H 0.390625 V 0 H 6.75 Z m 0,0"
             style="stroke:none;stroke-width:0"
             inkscape:connector-curvature="0" />
        </g>
        <g
           id="g1337"
           style="fill:#000000;fill-opacity:1">
          <path
             id="path1335"
             transform="translate(79.164,63.04)"
             d="m 1.84375,-4.625 c 0,-0.015625 0.03125,-0.109375 0.03125,-0.109375 0,-0.046875 -0.03125,-0.109375 -0.125,-0.109375 -0.140625,0 -0.71875,0.0625 -0.890625,0.078125 -0.046875,0 -0.15625,0.015625 -0.15625,0.15625 0,0.09375 0.109375,0.09375 0.1875,0.09375 0.328125,0 0.328125,0.0625 0.328125,0.109375 0,0.046875 -0.0625,0.328125 -0.109375,0.484375 l -0.15625,0.640625 c -0.0625,0.25 -0.4375,1.765625 -0.453125,1.859375 -0.046875,0.171875 -0.046875,0.265625 -0.046875,0.34375 0,0.703125 0.453125,1.140625 1.03125,1.140625 0.875,0 1.796875,-0.9375 1.796875,-1.96875 0,-0.8125 -0.5625,-1.171875 -1.046875,-1.171875 -0.359375,0 -0.671875,0.203125 -0.875,0.390625 z m -0.359375,4.5 c -0.328125,0 -0.53125,-0.296875 -0.53125,-0.71875 0,-0.25 0.0625,-0.484375 0.265625,-1.28125 C 1.25,-2.25 1.25,-2.265625 1.390625,-2.421875 1.65625,-2.71875 1.96875,-2.875 2.21875,-2.875 c 0.265625,0 0.5,0.203125 0.5,0.671875 0,0.28125 -0.140625,1 -0.359375,1.40625 C 2.1875,-0.453125 1.84375,-0.125 1.484375,-0.125 Z m 0,0"
             style="stroke:none;stroke-width:0"
             inkscape:connector-curvature="0" />
        </g>
        <g
           id="g1345"
           style="fill:#000000;fill-opacity:1">
          <path
             id="path1339"
             transform="translate(79.164,69.118)"
             d="m 3.6875,-1.484375 c 0,-0.875 -0.75,-1.625 -1.703125,-1.625 -0.96875,0 -1.71875,0.75 -1.71875,1.625 0,0.859375 0.765625,1.546875 1.71875,1.546875 0.9375,0 1.703125,-0.6875 1.703125,-1.546875 z M 1.984375,-0.15625 c -0.265625,0 -0.640625,-0.078125 -0.875,-0.421875 -0.1875,-0.28125 -0.203125,-0.640625 -0.203125,-0.96875 0,-0.296875 0,-0.71875 0.25,-1.015625 0.171875,-0.203125 0.46875,-0.34375 0.828125,-0.34375 0.40625,0 0.703125,0.1875 0.859375,0.40625 0.1875,0.265625 0.203125,0.625 0.203125,0.953125 0,0.328125 -0.015625,0.703125 -0.21875,0.984375 -0.1875,0.265625 -0.5,0.40625 -0.84375,0.40625 z m 0,0"
             style="stroke:none;stroke-width:0"
             inkscape:connector-curvature="0" />
          <path
             id="path1341"
             transform="translate(83.135579,69.118)"
             d="m 2.515625,-3 v 0.25 c 0.46875,0 0.515625,0.046875 0.515625,0.390625 v 1.203125 c 0,0.609375 -0.390625,1.03125 -0.921875,1.03125 -0.625,0 -0.65625,-0.296875 -0.65625,-0.65625 V -3.078125 L 0.375,-3 v 0.25 c 0.53125,0 0.53125,0.03125 0.53125,0.640625 V -1.0625 c 0,0.484375 0,1.125 1.15625,1.125 0.15625,0 0.65625,0 1,-0.578125 V 0.0625 L 4.109375,0 v -0.25 c -0.46875,0 -0.515625,-0.046875 -0.515625,-0.390625 v -2.4375 z m 0,0"
             style="stroke:none;stroke-width:0"
             inkscape:connector-curvature="0" />
          <path
             id="path1343"
             transform="translate(87.536047,69.118)"
             d="M 1.40625,-2.75 H 2.484375 V -3 H 1.40625 v -1.28125 h -0.25 c 0,0.625 -0.28125,1.3125 -0.953125,1.328125 V -2.75 H 0.84375 v 1.875 c 0,0.78125 0.59375,0.9375 0.984375,0.9375 0.46875,0 0.78125,-0.390625 0.78125,-0.9375 V -1.265625 H 2.375 v 0.375 c 0,0.484375 -0.21875,0.734375 -0.5,0.734375 -0.46875,0 -0.46875,-0.578125 -0.46875,-0.703125 z m 0,0"
             style="stroke:none;stroke-width:0"
             inkscape:connector-curvature="0" />
        </g>
      </g>
    </g>
    <path
       inkscape:connector-curvature="0"
       id="path1705"
       d="M 81.500708,114.35918 H 120.90473"
       style="fill:none;stroke:#000000;stroke-width:0.26458332px;stroke-linecap:butt;stroke-linejoin:miter;stroke-opacity:1"
       sodipodi:nodetypes="cc" />
    <path
       style="opacity:1;vector-effect:none;fill:none;fill-opacity:1;stroke:#000000;stroke-width:0.26414955px;stroke-linecap:butt;stroke-linejoin:miter;stroke-miterlimit:4;stroke-dasharray:none;stroke-dashoffset:0;stroke-opacity:1;marker-start:url(#marker1725)"
       d="m 99.630135,115.13646 v 17.74655"
       id="path1719"
       inkscape:connector-curvature="0" />
    <path
       inkscape:connector-curvature="0"
       id="path1721"
       d="M 103.43873,132.1326 V 114.38605"
       style="opacity:1;vector-effect:none;fill:none;fill-opacity:1;stroke:#000000;stroke-width:0.26414955px;stroke-linecap:butt;stroke-linejoin:miter;stroke-miterlimit:4;stroke-dasharray:none;stroke-dashoffset:0;stroke-opacity:1;marker-start:url(#marker2071)" />
    <g
       id="g2548"
       ns1:jacobian_sqrt="0.482979"
       ns1:alignment="middle center"
       ns1:scale="1.36907301475"
       ns1:preamble="/home/tim/.config/inkscape/extensions/textext/default_packages.tex"
       ns1:text="$\n\\underbrace{\\qquad \\qquad \\qquad}\n$"
       ns1:pdfconverter="pdf2svg"
       ns1:texconverter="pdflatex"
       ns1:version="0.9.1"
       transform="matrix(0,0.26346625,-0.2410315,0,113.41727,76.114405)">
      <g
         id="g2546">
        <g
           id="g2530"
           style="fill:#000000;fill-opacity:1">
          <path
             id="path2528"
             transform="translate(148.712,138.949)"
             d="m 4.578125,-0.921875 c 0,-0.21875 0,-0.28125 -0.125,-0.28125 -0.609375,0 -1.609375,-0.078125 -2.5,-0.515625 C 0.875,-2.265625 0.46875,-2.890625 0.21875,-3.28125 0.1875,-3.328125 0.125,-3.328125 0,-3.328125 c -0.234375,0 -0.234375,0.015625 -0.234375,0.25 V -2.90625 C 1.109375,-0.46875 3.359375,0 4.375,0 4.578125,0 4.578125,-0.015625 4.578125,-0.28125 Z m 0,0"
             style="stroke:none;stroke-width:0"
             inkscape:connector-curvature="0" />
        </g>
        <path
           id="path2532"
           d="m 153.19531,138.94922 h 20.92188 v -1.19531 h -20.92188 z m 0,0"
           style="fill:#000000;fill-opacity:1;fill-rule:nonzero;stroke:none;stroke-width:0"
           inkscape:connector-curvature="0" />
        <g
           id="g2538"
           style="fill:#000000;fill-opacity:1">
          <path
             id="path2534"
             transform="translate(174.117,138.949)"
             d="M 4.71875,1.71875 C 3.375,-0.734375 1.125,-1.203125 0.109375,-1.203125 c -0.203125,0 -0.203125,0.015625 -0.203125,0.28125 v 0.640625 c 0,0.234375 0,0.28125 0.140625,0.28125 0.59375,0.015625 1.59375,0.09375 2.484375,0.53125 1.078125,0.53125 1.484375,1.15625 1.734375,1.546875 0.03125,0.0625 0.09375,0.0625 0.21875,0.0625 C 4.71875,2.140625 4.71875,2.125 4.71875,1.875 Z m 0,0"
             style="stroke:none;stroke-width:0"
             inkscape:connector-curvature="0" />
          <path
             id="path2536"
             transform="translate(178.60017,138.949)"
             d="m 4.578125,-0.921875 c 0,-0.265625 0,-0.28125 -0.203125,-0.28125 -1.015625,0 -3.265625,0.484375 -4.609375,2.921875 V 1.875 c 0,0.25 0,0.265625 0.234375,0.265625 0.1875,0 0.203125,-0.015625 0.25,-0.09375 C 1.0625,0.75 2.4375,0.046875 4.46875,0 4.578125,0 4.578125,-0.0625 4.578125,-0.28125 Z m 0,0"
             style="stroke:none;stroke-width:0"
             inkscape:connector-curvature="0" />
        </g>
        <path
           id="path2540"
           d="m 183.08594,138.94922 h 20.91797 v -1.19531 h -20.91797 z m 0,0"
           style="fill:#000000;fill-opacity:1;fill-rule:nonzero;stroke:none;stroke-width:0"
           inkscape:connector-curvature="0" />
        <g
           id="g2544"
           style="fill:#000000;fill-opacity:1">
          <path
             id="path2542"
             transform="translate(204.005,138.949)"
             d="m 4.71875,-3.078125 c 0,-0.234375 0,-0.25 -0.234375,-0.25 -0.1875,0 -0.203125,0.015625 -0.25,0.078125 -0.8125,1.3125 -2.1875,2.015625 -4.21875,2.046875 -0.109375,0 -0.109375,0.078125 -0.109375,0.28125 v 0.640625 c 0,0.265625 0,0.28125 0.203125,0.28125 C 1.125,0 3.375,-0.484375 4.71875,-2.90625 Z m 0,0"
             style="stroke:none;stroke-width:0"
             inkscape:connector-curvature="0" />
        </g>
      </g>
    </g>
    <path
       style="fill:none;stroke:#000000;stroke-width:0.265;stroke-linecap:butt;stroke-linejoin:miter;stroke-opacity:1;stroke-miterlimit:4;stroke-dasharray:none;marker-end:url(#Arrow2Mend)"
       d="m 78.335565,109.99627 10.48884,3.49628"
       id="path4651"
       inkscape:connector-curvature="0" />
    <path
       style="fill:none;stroke:#000000;stroke-width:0.26458332px;stroke-linecap:butt;stroke-linejoin:miter;stroke-opacity:1;marker-end:url(#marker4975)"
       d="m 78.146576,139.6674 11.150298,-6.52009"
       id="path4653"
       inkscape:connector-curvature="0" />
    <g
       transform="matrix(0.482979,0,0,0.482979,93.023813,92.601104)"
       ns1:version="0.9.1"
       ns1:texconverter="pdflatex"
       ns1:pdfconverter="pdf2svg"
       ns1:text="$\\hat S_{\\scaleto{n_2, d}{5pt}}$"
       ns1:preamble="/home/tim/Desktop/bachlor-arbeit/tex/preamble.tex"
       ns1:scale="1.36907301475"
       ns1:alignment="middle center"
       ns1:jacobian_sqrt="0.482979"
       id="g5132"
       style="fill:#ffffff">
      <g
         id="g5130"
         style="fill:#ffffff">
        <g
           style="fill:#ffffff;fill-opacity:1"
           id="g5110">
          <path
             style="stroke:none;stroke-width:0;fill:#ffffff"
             d="M 2.5,-6.921875 1.15625,-5.5625 1.328125,-5.390625 2.5,-6.40625 3.640625,-5.390625 3.8125,-5.5625 Z m 0,0"
             transform="translate(73.318,64.137)"
             id="path5108"
             inkscape:connector-curvature="0" />
        </g>
        <g
           style="fill:#ffffff;fill-opacity:1"
           id="g5114">
          <path
             style="stroke:none;stroke-width:0;fill:#ffffff"
             d="m 6.4375,-6.921875 c 0,-0.03125 -0.03125,-0.109375 -0.125,-0.109375 -0.046875,0 -0.046875,0.015625 -0.171875,0.15625 L 5.65625,-6.3125 c -0.25,-0.46875 -0.765625,-0.71875 -1.421875,-0.71875 -1.265625,0 -2.453125,1.15625 -2.453125,2.359375 0,0.796875 0.515625,1.265625 1.03125,1.40625 l 1.0625,0.28125 c 0.375,0.09375 0.921875,0.25 0.921875,1.0625 0,0.890625 -0.8125,1.828125 -1.796875,1.828125 -0.640625,0 -1.75,-0.21875 -1.75,-1.453125 0,-0.234375 0.0625,-0.484375 0.0625,-0.53125 0.015625,-0.046875 0.015625,-0.0625 0.015625,-0.078125 0,-0.09375 -0.0625,-0.109375 -0.109375,-0.109375 -0.046875,0 -0.078125,0.015625 -0.109375,0.046875 -0.03125,0.03125 -0.59375,2.3125 -0.59375,2.34375 0,0.046875 0.046875,0.09375 0.109375,0.09375 0.046875,0 0.0625,-0.015625 0.1875,-0.15625 L 1.296875,-0.5 c 0.421875,0.578125 1.109375,0.71875 1.6875,0.71875 1.359375,0 2.53125,-1.328125 2.53125,-2.5625 0,-0.6875 -0.34375,-1.03125 -0.484375,-1.171875 C 4.796875,-3.734375 4.640625,-3.78125 3.765625,-4 3.53125,-4.0625 3.1875,-4.171875 3.09375,-4.1875 2.828125,-4.28125 2.484375,-4.5625 2.484375,-5.09375 c 0,-0.8125 0.796875,-1.65625 1.75,-1.65625 0.8125,0 1.421875,0.4375 1.421875,1.546875 0,0.3125 -0.03125,0.5 -0.03125,0.5625 0,0 0,0.09375 0.109375,0.09375 0.109375,0 0.125,-0.03125 0.15625,-0.203125 z m 0,0"
             transform="translate(71.637,66.656)"
             id="path5112"
             inkscape:connector-curvature="0" />
        </g>
        <g
           style="fill:#ffffff;fill-opacity:1"
           id="g5118">
          <path
             style="stroke:none;stroke-width:0;fill:#ffffff"
             d="M 0.6875,-0.359375 C 0.65625,-0.28125 0.625,-0.140625 0.625,-0.125 c 0,0.125 0.109375,0.1875 0.1875,0.1875 0.109375,0 0.203125,-0.078125 0.21875,-0.125 0.03125,-0.0625 0.078125,-0.234375 0.109375,-0.359375 0.03125,-0.09375 0.09375,-0.359375 0.125,-0.5 0.03125,-0.125 0.0625,-0.25 0.09375,-0.375 0.0625,-0.234375 0.078125,-0.28125 0.234375,-0.5 C 1.75,-2.03125 2.015625,-2.3125 2.4375,-2.3125 c 0.328125,0 0.328125,0.28125 0.328125,0.390625 0,0.328125 -0.234375,0.953125 -0.328125,1.1875 -0.0625,0.15625 -0.09375,0.21875 -0.09375,0.3125 0,0.296875 0.25,0.484375 0.546875,0.484375 C 3.4375,0.0625 3.6875,-0.71875 3.6875,-0.796875 3.6875,-0.875 3.625,-0.875 3.59375,-0.875 c -0.078125,0 -0.078125,0.03125 -0.09375,0.09375 -0.140625,0.453125 -0.375,0.6875 -0.59375,0.6875 -0.125,0 -0.140625,-0.078125 -0.140625,-0.203125 0,-0.125 0.015625,-0.203125 0.125,-0.453125 C 2.953125,-0.921875 3.1875,-1.515625 3.1875,-1.828125 3.1875,-2.375 2.75,-2.46875 2.453125,-2.46875 c -0.46875,0 -0.78125,0.28125 -0.9375,0.5 -0.046875,-0.375 -0.375,-0.5 -0.609375,-0.5 -0.234375,0 -0.375,0.171875 -0.4375,0.296875 -0.125,0.203125 -0.203125,0.53125 -0.203125,0.5625 0,0.0625 0.078125,0.0625 0.09375,0.0625 0.078125,0 0.078125,-0.015625 0.125,-0.15625 0.078125,-0.34375 0.1875,-0.609375 0.40625,-0.609375 0.140625,0 0.1875,0.125 0.1875,0.265625 0,0.109375 -0.046875,0.3125 -0.09375,0.46875 -0.03125,0.15625 -0.09375,0.390625 -0.125,0.5 z m 0,0"
             transform="translate(77.746,68.150359)"
             id="path5116"
             inkscape:connector-curvature="0" />
        </g>
        <g
           style="fill:#ffffff;fill-opacity:1"
           id="g5122">
          <path
             style="stroke:none;stroke-width:0;fill:#ffffff"
             d="M 2.359375,-0.765625 H 2.1875 c -0.015625,0.0625 -0.046875,0.3125 -0.109375,0.359375 -0.03125,0.015625 -0.375,0.015625 -0.4375,0.015625 h -0.78125 c 0.265625,-0.1875 0.5625,-0.40625 0.796875,-0.578125 0.359375,-0.25 0.703125,-0.46875 0.703125,-0.90625 0,-0.5 -0.484375,-0.78125 -1.0625,-0.78125 -0.53125,0 -0.9375,0.296875 -0.9375,0.703125 0,0.203125 0.1875,0.234375 0.234375,0.234375 0.109375,0 0.234375,-0.0625 0.234375,-0.234375 0,-0.140625 -0.09375,-0.21875 -0.21875,-0.234375 0.109375,-0.1875 0.34375,-0.296875 0.609375,-0.296875 0.390625,0 0.703125,0.234375 0.703125,0.625 0,0.328125 -0.21875,0.59375 -0.53125,0.84375 L 0.40625,-0.1875 C 0.375,-0.140625 0.375,-0.140625 0.359375,-0.125 V 0 H 2.21875 Z m 0,0"
             transform="translate(81.703582,68.950715)"
             id="path5120"
             inkscape:connector-curvature="0" />
        </g>
        <g
           style="fill:#ffffff;fill-opacity:1"
           id="g5128">
          <path
             style="stroke:none;stroke-width:0;fill:#ffffff"
             d="M 1.1875,-0.09375 C 1.1875,0.21875 1.125,0.578125 0.75,0.9375 0.71875,0.953125 0.703125,0.96875 0.703125,1 c 0,0.046875 0.046875,0.078125 0.078125,0.078125 0.078125,0 0.5625,-0.4375 0.5625,-1.109375 0,-0.34375 -0.140625,-0.609375 -0.390625,-0.609375 C 0.765625,-0.640625 0.625,-0.5 0.625,-0.328125 0.625,-0.140625 0.75,0 0.953125,0 1.09375,0 1.171875,-0.09375 1.1875,-0.09375 Z m 0,0"
             transform="translate(84.827862,68.150359)"
             id="path5124"
             inkscape:connector-curvature="0" />
          <path
             style="stroke:none;stroke-width:0;fill:#ffffff"
             d="m 3.203125,-3.71875 c 0,-0.015625 0.015625,-0.09375 0.015625,-0.09375 0,-0.03125 -0.015625,-0.078125 -0.078125,-0.078125 -0.125,0 -0.578125,0.046875 -0.71875,0.046875 -0.046875,0.015625 -0.125,0.015625 -0.125,0.140625 0,0.078125 0.078125,0.078125 0.140625,0.078125 0.265625,0 0.265625,0.03125 0.265625,0.078125 0,0.046875 0,0.078125 -0.015625,0.125 l -0.328125,1.28125 C 2.25,-2.328125 2.0625,-2.46875 1.796875,-2.46875 c -0.71875,0 -1.453125,0.78125 -1.453125,1.59375 0,0.546875 0.359375,0.9375 0.84375,0.9375 0.296875,0 0.578125,-0.1875 0.796875,-0.40625 C 2.09375,0 2.421875,0.0625 2.5625,0.0625 2.765625,0.0625 2.90625,-0.0625 3,-0.234375 3.125,-0.453125 3.203125,-0.78125 3.203125,-0.796875 3.203125,-0.875 3.125,-0.875 3.109375,-0.875 c -0.078125,0 -0.078125,0.015625 -0.125,0.171875 -0.0625,0.265625 -0.171875,0.609375 -0.40625,0.609375 -0.140625,0 -0.1875,-0.125 -0.1875,-0.28125 0,-0.109375 0.015625,-0.15625 0.03125,-0.234375 z m -1.1875,3.015625 C 1.96875,-0.546875 1.84375,-0.4375 1.71875,-0.328125 1.671875,-0.28125 1.453125,-0.09375 1.203125,-0.09375 1,-0.09375 0.796875,-0.25 0.796875,-0.640625 c 0,-0.296875 0.15625,-0.921875 0.296875,-1.140625 0.25,-0.453125 0.53125,-0.53125 0.703125,-0.53125 0.390625,0 0.484375,0.421875 0.484375,0.484375 0,0.015625 0,0.0625 -0.015625,0.078125 z m 0,0"
             transform="translate(86.729278,68.150359)"
             id="path5126"
             inkscape:connector-curvature="0" />
        </g>
      </g>
    </g>
    <g
       id="g5496"
       ns1:jacobian_sqrt="0.439691"
       inkscapeversion="0.92.4"
       ns1:alignment="middle center"
       ns1:scale="1.24636597049"
       ns1:preamble="/home/tim/.config/inkscape/extensions/textext/default_packages.tex"
       ns1:text="$n_0$"
       ns1:pdfconverter="pdf2svg"
       ns1:texconverter="pdflatex"
       ns1:version="0.9.1"
       transform="matrix(0.439691,0.000000,0.000000,0.439691,51.340979,50.067269)">
      <g
         id="g5494">
        <g
           id="g5488"
           style="fill:rgb(0%,0%,0%);fill-opacity:1;">
          <path
             id="path5486"
             transform="translate(148.712,134.765)"
             d="M 0.875 -0.59375 C 0.84375 -0.4375 0.78125 -0.203125 0.78125 -0.15625 C 0.78125 0.015625 0.921875 0.109375 1.078125 0.109375 C 1.203125 0.109375 1.375 0.03125 1.453125 -0.171875 C 1.453125 -0.1875 1.578125 -0.65625 1.640625 -0.90625 L 1.859375 -1.796875 C 1.90625 -2.03125 1.96875 -2.25 2.03125 -2.46875 C 2.0625 -2.640625 2.140625 -2.9375 2.15625 -2.96875 C 2.296875 -3.28125 2.828125 -4.1875 3.78125 -4.1875 C 4.234375 -4.1875 4.3125 -3.8125 4.3125 -3.484375 C 4.3125 -2.875 3.828125 -1.59375 3.671875 -1.171875 C 3.578125 -0.9375 3.5625 -0.8125 3.5625 -0.703125 C 3.5625 -0.234375 3.921875 0.109375 4.390625 0.109375 C 5.328125 0.109375 5.6875 -1.34375 5.6875 -1.421875 C 5.6875 -1.53125 5.609375 -1.53125 5.578125 -1.53125 C 5.46875 -1.53125 5.46875 -1.5 5.421875 -1.34375 C 5.21875 -0.671875 4.890625 -0.109375 4.40625 -0.109375 C 4.234375 -0.109375 4.171875 -0.203125 4.171875 -0.4375 C 4.171875 -0.6875 4.25 -0.921875 4.34375 -1.140625 C 4.53125 -1.671875 4.953125 -2.765625 4.953125 -3.34375 C 4.953125 -4 4.53125 -4.40625 3.8125 -4.40625 C 2.90625 -4.40625 2.421875 -3.765625 2.25 -3.53125 C 2.203125 -4.09375 1.796875 -4.40625 1.328125 -4.40625 C 0.875 -4.40625 0.6875 -4.015625 0.59375 -3.84375 C 0.421875 -3.5 0.296875 -2.90625 0.296875 -2.875 C 0.296875 -2.765625 0.390625 -2.765625 0.40625 -2.765625 C 0.515625 -2.765625 0.515625 -2.78125 0.578125 -3 C 0.75 -3.703125 0.953125 -4.1875 1.3125 -4.1875 C 1.5 -4.1875 1.609375 -4.0625 1.609375 -3.734375 C 1.609375 -3.515625 1.578125 -3.40625 1.453125 -2.890625 Z M 0.875 -0.59375 "
             style="stroke:none;stroke-width:0" />
        </g>
        <g
           id="g5492"
           style="fill:rgb(0%,0%,0%);fill-opacity:1;">
          <path
             id="path5490"
             transform="translate(154.692,136.259)"
             d="M 3.59375 -2.21875 C 3.59375 -2.984375 3.5 -3.546875 3.1875 -4.03125 C 2.96875 -4.34375 2.53125 -4.625 1.984375 -4.625 C 0.359375 -4.625 0.359375 -2.71875 0.359375 -2.21875 C 0.359375 -1.71875 0.359375 0.140625 1.984375 0.140625 C 3.59375 0.140625 3.59375 -1.71875 3.59375 -2.21875 Z M 1.984375 -0.0625 C 1.65625 -0.0625 1.234375 -0.25 1.09375 -0.8125 C 1 -1.21875 1 -1.796875 1 -2.3125 C 1 -2.828125 1 -3.359375 1.09375 -3.734375 C 1.25 -4.28125 1.6875 -4.4375 1.984375 -4.4375 C 2.359375 -4.4375 2.71875 -4.203125 2.84375 -3.796875 C 2.953125 -3.421875 2.96875 -2.921875 2.96875 -2.3125 C 2.96875 -1.796875 2.96875 -1.28125 2.875 -0.84375 C 2.734375 -0.203125 2.265625 -0.0625 1.984375 -0.0625 Z M 1.984375 -0.0625 "
             style="stroke:none;stroke-width:0" />
        </g>
      </g>
    </g>
    <g
       id="g5665"
       ns1:jacobian_sqrt="0.439691"
       inkscapeversion="0.92.4"
       ns1:alignment="middle center"
       ns1:scale="1.24636596795"
       ns1:preamble="/home/tim/.config/inkscape/extensions/textext/default_packages.tex"
       ns1:text="$n_0$"
       ns1:pdfconverter="pdf2svg"
       ns1:texconverter="pdflatex"
       ns1:version="0.9.1"
       transform="matrix(0.439691,0.000000,0.000000,0.439691,51.340980,79.845724)">
      <g
         id="surface1">
        <g
           id="g5658"
           style="fill:rgb(0%,0%,0%);fill-opacity:1;">
          <path
             id="path5656"
             transform="translate(148.712,134.765)"
             d="M 0.875 -0.59375 C 0.84375 -0.4375 0.78125 -0.203125 0.78125 -0.15625 C 0.78125 0.015625 0.921875 0.109375 1.078125 0.109375 C 1.203125 0.109375 1.375 0.03125 1.453125 -0.171875 C 1.453125 -0.1875 1.578125 -0.65625 1.640625 -0.90625 L 1.859375 -1.796875 C 1.90625 -2.03125 1.96875 -2.25 2.03125 -2.46875 C 2.0625 -2.640625 2.140625 -2.9375 2.15625 -2.96875 C 2.296875 -3.28125 2.828125 -4.1875 3.78125 -4.1875 C 4.234375 -4.1875 4.3125 -3.8125 4.3125 -3.484375 C 4.3125 -2.875 3.828125 -1.59375 3.671875 -1.171875 C 3.578125 -0.9375 3.5625 -0.8125 3.5625 -0.703125 C 3.5625 -0.234375 3.921875 0.109375 4.390625 0.109375 C 5.328125 0.109375 5.6875 -1.34375 5.6875 -1.421875 C 5.6875 -1.53125 5.609375 -1.53125 5.578125 -1.53125 C 5.46875 -1.53125 5.46875 -1.5 5.421875 -1.34375 C 5.21875 -0.671875 4.890625 -0.109375 4.40625 -0.109375 C 4.234375 -0.109375 4.171875 -0.203125 4.171875 -0.4375 C 4.171875 -0.6875 4.25 -0.921875 4.34375 -1.140625 C 4.53125 -1.671875 4.953125 -2.765625 4.953125 -3.34375 C 4.953125 -4 4.53125 -4.40625 3.8125 -4.40625 C 2.90625 -4.40625 2.421875 -3.765625 2.25 -3.53125 C 2.203125 -4.09375 1.796875 -4.40625 1.328125 -4.40625 C 0.875 -4.40625 0.6875 -4.015625 0.59375 -3.84375 C 0.421875 -3.5 0.296875 -2.90625 0.296875 -2.875 C 0.296875 -2.765625 0.390625 -2.765625 0.40625 -2.765625 C 0.515625 -2.765625 0.515625 -2.78125 0.578125 -3 C 0.75 -3.703125 0.953125 -4.1875 1.3125 -4.1875 C 1.5 -4.1875 1.609375 -4.0625 1.609375 -3.734375 C 1.609375 -3.515625 1.578125 -3.40625 1.453125 -2.890625 Z M 0.875 -0.59375 "
             style="stroke:none;stroke-width:0" />
        </g>
        <g
           id="g5662"
           style="fill:rgb(0%,0%,0%);fill-opacity:1;">
          <path
             id="path5660"
             transform="translate(154.692,136.259)"
             d="M 3.59375 -2.21875 C 3.59375 -2.984375 3.5 -3.546875 3.1875 -4.03125 C 2.96875 -4.34375 2.53125 -4.625 1.984375 -4.625 C 0.359375 -4.625 0.359375 -2.71875 0.359375 -2.21875 C 0.359375 -1.71875 0.359375 0.140625 1.984375 0.140625 C 3.59375 0.140625 3.59375 -1.71875 3.59375 -2.21875 Z M 1.984375 -0.0625 C 1.65625 -0.0625 1.234375 -0.25 1.09375 -0.8125 C 1 -1.21875 1 -1.796875 1 -2.3125 C 1 -2.828125 1 -3.359375 1.09375 -3.734375 C 1.25 -4.28125 1.6875 -4.4375 1.984375 -4.4375 C 2.359375 -4.4375 2.71875 -4.203125 2.84375 -3.796875 C 2.953125 -3.421875 2.96875 -2.921875 2.96875 -2.3125 C 2.96875 -1.796875 2.96875 -1.28125 2.875 -0.84375 C 2.734375 -0.203125 2.265625 -0.0625 1.984375 -0.0625 Z M 1.984375 -0.0625 "
             style="stroke:none;stroke-width:0" />
        </g>
      </g>
    </g>
    <g
       id="g5831"
       ns1:jacobian_sqrt="0.439691"
       inkscapeversion="0.92.4"
       ns1:alignment="middle center"
       ns1:scale="1.24636597049"
       ns1:preamble="/home/tim/.config/inkscape/extensions/textext/default_packages.tex"
       ns1:text="$n$"
       ns1:pdfconverter="pdf2svg"
       ns1:texconverter="pdflatex"
       ns1:version="0.9.1"
       transform="matrix(0.439691,0.000000,0.000000,0.439691,52.195354,64.791386)">
      <g
         id="g5829">
        <g
           id="g5827"
           style="fill:rgb(0%,0%,0%);fill-opacity:1;">
          <path
             id="path5825"
             transform="translate(148.712,134.765)"
             d="M 0.875 -0.59375 C 0.84375 -0.4375 0.78125 -0.203125 0.78125 -0.15625 C 0.78125 0.015625 0.921875 0.109375 1.078125 0.109375 C 1.203125 0.109375 1.375 0.03125 1.453125 -0.171875 C 1.453125 -0.1875 1.578125 -0.65625 1.640625 -0.90625 L 1.859375 -1.796875 C 1.90625 -2.03125 1.96875 -2.25 2.03125 -2.46875 C 2.0625 -2.640625 2.140625 -2.9375 2.15625 -2.96875 C 2.296875 -3.28125 2.828125 -4.1875 3.78125 -4.1875 C 4.234375 -4.1875 4.3125 -3.8125 4.3125 -3.484375 C 4.3125 -2.875 3.828125 -1.59375 3.671875 -1.171875 C 3.578125 -0.9375 3.5625 -0.8125 3.5625 -0.703125 C 3.5625 -0.234375 3.921875 0.109375 4.390625 0.109375 C 5.328125 0.109375 5.6875 -1.34375 5.6875 -1.421875 C 5.6875 -1.53125 5.609375 -1.53125 5.578125 -1.53125 C 5.46875 -1.53125 5.46875 -1.5 5.421875 -1.34375 C 5.21875 -0.671875 4.890625 -0.109375 4.40625 -0.109375 C 4.234375 -0.109375 4.171875 -0.203125 4.171875 -0.4375 C 4.171875 -0.6875 4.25 -0.921875 4.34375 -1.140625 C 4.53125 -1.671875 4.953125 -2.765625 4.953125 -3.34375 C 4.953125 -4 4.53125 -4.40625 3.8125 -4.40625 C 2.90625 -4.40625 2.421875 -3.765625 2.25 -3.53125 C 2.203125 -4.09375 1.796875 -4.40625 1.328125 -4.40625 C 0.875 -4.40625 0.6875 -4.015625 0.59375 -3.84375 C 0.421875 -3.5 0.296875 -2.90625 0.296875 -2.875 C 0.296875 -2.765625 0.390625 -2.765625 0.40625 -2.765625 C 0.515625 -2.765625 0.515625 -2.78125 0.578125 -3 C 0.75 -3.703125 0.953125 -4.1875 1.3125 -4.1875 C 1.5 -4.1875 1.609375 -4.0625 1.609375 -3.734375 C 1.609375 -3.515625 1.578125 -3.40625 1.453125 -2.890625 Z M 0.875 -0.59375 "
             style="stroke:none;stroke-width:0" />
        </g>
      </g>
    </g>
    <g
       id="g5998"
       ns1:jacobian_sqrt="0.482979"
       inkscapeversion="0.92.4"
       ns1:alignment="middle center"
       ns1:scale="1.36907301475"
       ns1:preamble="/home/tim/Desktop/bachlor-arbeit/tex/preamble.tex"
       ns1:text="$\\hat S_{\\scaleto{n, d}{5pt}}$"
       ns1:pdfconverter="pdf2svg"
       ns1:texconverter="pdflatex"
       ns1:version="0.9.1"
       transform="matrix(0.482979,0.000000,0.000000,0.482979,34.578026,92.601104)">
      <g
         id="g5996">
        <g
           id="g5982"
           style="fill:rgb(0%,0%,0%);fill-opacity:1;">
          <path
             id="path5980"
             transform="translate(73.318,64.137)"
             d="M 2.5 -6.921875 L 1.15625 -5.5625 L 1.328125 -5.390625 L 2.5 -6.40625 L 3.640625 -5.390625 L 3.8125 -5.5625 Z M 2.5 -6.921875 "
             style="stroke:none;stroke-width:0" />
        </g>
        <g
           id="g5986"
           style="fill:rgb(0%,0%,0%);fill-opacity:1;">
          <path
             id="path5984"
             transform="translate(71.637,66.656)"
             d="M 6.4375 -6.921875 C 6.4375 -6.953125 6.40625 -7.03125 6.3125 -7.03125 C 6.265625 -7.03125 6.265625 -7.015625 6.140625 -6.875 L 5.65625 -6.3125 C 5.40625 -6.78125 4.890625 -7.03125 4.234375 -7.03125 C 2.96875 -7.03125 1.78125 -5.875 1.78125 -4.671875 C 1.78125 -3.875 2.296875 -3.40625 2.8125 -3.265625 L 3.875 -2.984375 C 4.25 -2.890625 4.796875 -2.734375 4.796875 -1.921875 C 4.796875 -1.03125 3.984375 -0.09375 3 -0.09375 C 2.359375 -0.09375 1.25 -0.3125 1.25 -1.546875 C 1.25 -1.78125 1.3125 -2.03125 1.3125 -2.078125 C 1.328125 -2.125 1.328125 -2.140625 1.328125 -2.15625 C 1.328125 -2.25 1.265625 -2.265625 1.21875 -2.265625 C 1.171875 -2.265625 1.140625 -2.25 1.109375 -2.21875 C 1.078125 -2.1875 0.515625 0.09375 0.515625 0.125 C 0.515625 0.171875 0.5625 0.21875 0.625 0.21875 C 0.671875 0.21875 0.6875 0.203125 0.8125 0.0625 L 1.296875 -0.5 C 1.71875 0.078125 2.40625 0.21875 2.984375 0.21875 C 4.34375 0.21875 5.515625 -1.109375 5.515625 -2.34375 C 5.515625 -3.03125 5.171875 -3.375 5.03125 -3.515625 C 4.796875 -3.734375 4.640625 -3.78125 3.765625 -4 C 3.53125 -4.0625 3.1875 -4.171875 3.09375 -4.1875 C 2.828125 -4.28125 2.484375 -4.5625 2.484375 -5.09375 C 2.484375 -5.90625 3.28125 -6.75 4.234375 -6.75 C 5.046875 -6.75 5.65625 -6.3125 5.65625 -5.203125 C 5.65625 -4.890625 5.625 -4.703125 5.625 -4.640625 C 5.625 -4.640625 5.625 -4.546875 5.734375 -4.546875 C 5.84375 -4.546875 5.859375 -4.578125 5.890625 -4.75 Z M 6.4375 -6.921875 "
             style="stroke:none;stroke-width:0" />
        </g>
        <g
           id="g5994"
           style="fill:rgb(0%,0%,0%);fill-opacity:1;">
          <path
             id="path5988"
             transform="translate(77.746,68.150359)"
             d="M 0.6875 -0.359375 C 0.65625 -0.28125 0.625 -0.140625 0.625 -0.125 C 0.625 0 0.734375 0.0625 0.8125 0.0625 C 0.921875 0.0625 1.015625 -0.015625 1.03125 -0.0625 C 1.0625 -0.125 1.109375 -0.296875 1.140625 -0.421875 C 1.171875 -0.515625 1.234375 -0.78125 1.265625 -0.921875 C 1.296875 -1.046875 1.328125 -1.171875 1.359375 -1.296875 C 1.421875 -1.53125 1.4375 -1.578125 1.59375 -1.796875 C 1.75 -2.03125 2.015625 -2.3125 2.4375 -2.3125 C 2.765625 -2.3125 2.765625 -2.03125 2.765625 -1.921875 C 2.765625 -1.59375 2.53125 -0.96875 2.4375 -0.734375 C 2.375 -0.578125 2.34375 -0.515625 2.34375 -0.421875 C 2.34375 -0.125 2.59375 0.0625 2.890625 0.0625 C 3.4375 0.0625 3.6875 -0.71875 3.6875 -0.796875 C 3.6875 -0.875 3.625 -0.875 3.59375 -0.875 C 3.515625 -0.875 3.515625 -0.84375 3.5 -0.78125 C 3.359375 -0.328125 3.125 -0.09375 2.90625 -0.09375 C 2.78125 -0.09375 2.765625 -0.171875 2.765625 -0.296875 C 2.765625 -0.421875 2.78125 -0.5 2.890625 -0.75 C 2.953125 -0.921875 3.1875 -1.515625 3.1875 -1.828125 C 3.1875 -2.375 2.75 -2.46875 2.453125 -2.46875 C 1.984375 -2.46875 1.671875 -2.1875 1.515625 -1.96875 C 1.46875 -2.34375 1.140625 -2.46875 0.90625 -2.46875 C 0.671875 -2.46875 0.53125 -2.296875 0.46875 -2.171875 C 0.34375 -1.96875 0.265625 -1.640625 0.265625 -1.609375 C 0.265625 -1.546875 0.34375 -1.546875 0.359375 -1.546875 C 0.4375 -1.546875 0.4375 -1.5625 0.484375 -1.703125 C 0.5625 -2.046875 0.671875 -2.3125 0.890625 -2.3125 C 1.03125 -2.3125 1.078125 -2.1875 1.078125 -2.046875 C 1.078125 -1.9375 1.03125 -1.734375 0.984375 -1.578125 C 0.953125 -1.421875 0.890625 -1.1875 0.859375 -1.078125 Z M 0.6875 -0.359375 "
             style="stroke:none;stroke-width:0" />
          <path
             id="path5990"
             transform="translate(81.703746,68.150359)"
             d="M 1.1875 -0.09375 C 1.1875 0.21875 1.125 0.578125 0.75 0.9375 C 0.71875 0.953125 0.703125 0.96875 0.703125 1 C 0.703125 1.046875 0.75 1.078125 0.78125 1.078125 C 0.859375 1.078125 1.34375 0.640625 1.34375 -0.03125 C 1.34375 -0.375 1.203125 -0.640625 0.953125 -0.640625 C 0.765625 -0.640625 0.625 -0.5 0.625 -0.328125 C 0.625 -0.140625 0.75 0 0.953125 0 C 1.09375 0 1.171875 -0.09375 1.1875 -0.09375 Z M 1.1875 -0.09375 "
             style="stroke:none;stroke-width:0" />
          <path
             id="path5992"
             transform="translate(83.60528,68.150359)"
             d="M 3.203125 -3.71875 C 3.203125 -3.734375 3.21875 -3.8125 3.21875 -3.8125 C 3.21875 -3.84375 3.203125 -3.890625 3.140625 -3.890625 C 3.015625 -3.890625 2.5625 -3.84375 2.421875 -3.84375 C 2.375 -3.828125 2.296875 -3.828125 2.296875 -3.703125 C 2.296875 -3.625 2.375 -3.625 2.4375 -3.625 C 2.703125 -3.625 2.703125 -3.59375 2.703125 -3.546875 C 2.703125 -3.5 2.703125 -3.46875 2.6875 -3.421875 L 2.359375 -2.140625 C 2.25 -2.328125 2.0625 -2.46875 1.796875 -2.46875 C 1.078125 -2.46875 0.34375 -1.6875 0.34375 -0.875 C 0.34375 -0.328125 0.703125 0.0625 1.1875 0.0625 C 1.484375 0.0625 1.765625 -0.125 1.984375 -0.34375 C 2.09375 0 2.421875 0.0625 2.5625 0.0625 C 2.765625 0.0625 2.90625 -0.0625 3 -0.234375 C 3.125 -0.453125 3.203125 -0.78125 3.203125 -0.796875 C 3.203125 -0.875 3.125 -0.875 3.109375 -0.875 C 3.03125 -0.875 3.03125 -0.859375 2.984375 -0.703125 C 2.921875 -0.4375 2.8125 -0.09375 2.578125 -0.09375 C 2.4375 -0.09375 2.390625 -0.21875 2.390625 -0.375 C 2.390625 -0.484375 2.40625 -0.53125 2.421875 -0.609375 Z M 2.015625 -0.703125 C 1.96875 -0.546875 1.84375 -0.4375 1.71875 -0.328125 C 1.671875 -0.28125 1.453125 -0.09375 1.203125 -0.09375 C 1 -0.09375 0.796875 -0.25 0.796875 -0.640625 C 0.796875 -0.9375 0.953125 -1.5625 1.09375 -1.78125 C 1.34375 -2.234375 1.625 -2.3125 1.796875 -2.3125 C 2.1875 -2.3125 2.28125 -1.890625 2.28125 -1.828125 C 2.28125 -1.8125 2.28125 -1.765625 2.265625 -1.75 Z M 2.015625 -0.703125 "
             style="stroke:none;stroke-width:0" />
        </g>
      </g>
    </g>
    <g
       id="g6172"
       ns1:jacobian_sqrt="0.482979"
       inkscapeversion="0.92.4"
       ns1:alignment="middle center"
       ns1:scale="1.36907301475"
       ns1:preamble="/home/tim/Desktop/bachlor-arbeit/tex/preamble.tex"
       ns1:text="$\\hat S_{\\scaleto{n_0, n}{3pt}}$"
       ns1:pdfconverter="pdf2svg"
       ns1:texconverter="pdflatex"
       ns1:version="0.9.1"
       transform="matrix(0.482979,0.000000,0.000000,0.482979,34.160608,106.907500)">
      <g
         id="g6170">
        <g
           id="g6150"
           style="fill:rgb(0%,0%,0%);fill-opacity:1;">
          <path
             id="path6148"
             transform="translate(73.318,64.137)"
             d="M 2.5 -6.921875 L 1.15625 -5.5625 L 1.328125 -5.390625 L 2.5 -6.40625 L 3.640625 -5.390625 L 3.8125 -5.5625 Z M 2.5 -6.921875 "
             style="stroke:none;stroke-width:0" />
        </g>
        <g
           id="g6154"
           style="fill:rgb(0%,0%,0%);fill-opacity:1;">
          <path
             id="path6152"
             transform="translate(71.637,66.656)"
             d="M 6.4375 -6.921875 C 6.4375 -6.953125 6.40625 -7.03125 6.3125 -7.03125 C 6.265625 -7.03125 6.265625 -7.015625 6.140625 -6.875 L 5.65625 -6.3125 C 5.40625 -6.78125 4.890625 -7.03125 4.234375 -7.03125 C 2.96875 -7.03125 1.78125 -5.875 1.78125 -4.671875 C 1.78125 -3.875 2.296875 -3.40625 2.8125 -3.265625 L 3.875 -2.984375 C 4.25 -2.890625 4.796875 -2.734375 4.796875 -1.921875 C 4.796875 -1.03125 3.984375 -0.09375 3 -0.09375 C 2.359375 -0.09375 1.25 -0.3125 1.25 -1.546875 C 1.25 -1.78125 1.3125 -2.03125 1.3125 -2.078125 C 1.328125 -2.125 1.328125 -2.140625 1.328125 -2.15625 C 1.328125 -2.25 1.265625 -2.265625 1.21875 -2.265625 C 1.171875 -2.265625 1.140625 -2.25 1.109375 -2.21875 C 1.078125 -2.1875 0.515625 0.09375 0.515625 0.125 C 0.515625 0.171875 0.5625 0.21875 0.625 0.21875 C 0.671875 0.21875 0.6875 0.203125 0.8125 0.0625 L 1.296875 -0.5 C 1.71875 0.078125 2.40625 0.21875 2.984375 0.21875 C 4.34375 0.21875 5.515625 -1.109375 5.515625 -2.34375 C 5.515625 -3.03125 5.171875 -3.375 5.03125 -3.515625 C 4.796875 -3.734375 4.640625 -3.78125 3.765625 -4 C 3.53125 -4.0625 3.1875 -4.171875 3.09375 -4.1875 C 2.828125 -4.28125 2.484375 -4.5625 2.484375 -5.09375 C 2.484375 -5.90625 3.28125 -6.75 4.234375 -6.75 C 5.046875 -6.75 5.65625 -6.3125 5.65625 -5.203125 C 5.65625 -4.890625 5.625 -4.703125 5.625 -4.640625 C 5.625 -4.640625 5.625 -4.546875 5.734375 -4.546875 C 5.84375 -4.546875 5.859375 -4.578125 5.890625 -4.75 Z M 6.4375 -6.921875 "
             style="stroke:none;stroke-width:0" />
        </g>
        <g
           id="g6158"
           style="fill:rgb(0%,0%,0%);fill-opacity:1;">
          <path
             id="path6156"
             transform="translate(77.746,68.150123)"
             d="M 0.578125 -0.296875 C 0.5625 -0.234375 0.53125 -0.125 0.53125 -0.109375 C 0.53125 0 0.625 0.046875 0.703125 0.046875 C 0.78125 0.046875 0.859375 -0.015625 0.890625 -0.0625 C 0.90625 -0.09375 0.953125 -0.25 0.96875 -0.359375 C 1 -0.4375 1.046875 -0.671875 1.078125 -0.78125 C 1.109375 -0.890625 1.140625 -1 1.15625 -1.109375 C 1.203125 -1.296875 1.21875 -1.34375 1.359375 -1.53125 C 1.484375 -1.71875 1.71875 -1.96875 2.078125 -1.96875 C 2.359375 -1.96875 2.359375 -1.734375 2.359375 -1.640625 C 2.359375 -1.359375 2.15625 -0.828125 2.078125 -0.625 C 2.015625 -0.484375 2 -0.4375 2 -0.359375 C 2 -0.109375 2.21875 0.046875 2.453125 0.046875 C 2.9375 0.046875 3.140625 -0.609375 3.140625 -0.6875 C 3.140625 -0.75 3.078125 -0.75 3.0625 -0.75 C 3 -0.75 3 -0.71875 2.984375 -0.671875 C 2.875 -0.28125 2.65625 -0.09375 2.46875 -0.09375 C 2.375 -0.09375 2.359375 -0.15625 2.359375 -0.25 C 2.359375 -0.359375 2.375 -0.421875 2.46875 -0.640625 C 2.515625 -0.78125 2.71875 -1.296875 2.71875 -1.5625 C 2.71875 -2.03125 2.34375 -2.109375 2.09375 -2.109375 C 1.703125 -2.109375 1.421875 -1.859375 1.28125 -1.671875 C 1.25 -2 0.96875 -2.109375 0.78125 -2.109375 C 0.5625 -2.109375 0.453125 -1.953125 0.390625 -1.84375 C 0.296875 -1.671875 0.21875 -1.40625 0.21875 -1.375 C 0.21875 -1.3125 0.296875 -1.3125 0.3125 -1.3125 C 0.375 -1.3125 0.375 -1.328125 0.40625 -1.453125 C 0.484375 -1.734375 0.578125 -1.96875 0.765625 -1.96875 C 0.890625 -1.96875 0.921875 -1.875 0.921875 -1.734375 C 0.921875 -1.65625 0.875 -1.46875 0.84375 -1.34375 C 0.8125 -1.21875 0.765625 -1.015625 0.734375 -0.90625 Z M 0.578125 -0.296875 "
             style="stroke:none;stroke-width:0" />
        </g>
        <g
           id="g6162"
           style="fill:rgb(0%,0%,0%);fill-opacity:1;">
          <path
             id="path6160"
             transform="translate(81.12322,68.83313)"
             d="M 2.0625 -1.09375 C 2.0625 -1.34375 2.0625 -2.28125 1.15625 -2.28125 C 0.265625 -2.28125 0.265625 -1.34375 0.265625 -1.09375 C 0.265625 -0.84375 0.265625 0.078125 1.15625 0.078125 C 2.0625 0.078125 2.0625 -0.84375 2.0625 -1.09375 Z M 1.15625 -0.03125 C 1.03125 -0.03125 0.75 -0.078125 0.65625 -0.421875 C 0.609375 -0.609375 0.609375 -0.859375 0.609375 -1.140625 C 0.609375 -1.390625 0.609375 -1.625 0.671875 -1.828125 C 0.75 -2.109375 1.015625 -2.171875 1.15625 -2.171875 C 1.421875 -2.171875 1.59375 -2.03125 1.671875 -1.796875 C 1.71875 -1.625 1.71875 -1.34375 1.71875 -1.140625 C 1.71875 -0.90625 1.71875 -0.625 1.65625 -0.421875 C 1.578125 -0.09375 1.296875 -0.03125 1.15625 -0.03125 Z M 1.15625 -0.03125 "
             style="stroke:none;stroke-width:0" />
        </g>
        <g
           id="g6168"
           style="fill:rgb(0%,0%,0%);fill-opacity:1;">
          <path
             id="path6164"
             transform="translate(83.789338,68.150123)"
             d="M 1.015625 -0.078125 C 1.015625 0.1875 0.96875 0.5 0.640625 0.796875 C 0.609375 0.8125 0.609375 0.828125 0.609375 0.859375 C 0.609375 0.890625 0.640625 0.921875 0.671875 0.921875 C 0.734375 0.921875 1.140625 0.546875 1.140625 -0.03125 C 1.140625 -0.328125 1.03125 -0.546875 0.8125 -0.546875 C 0.65625 -0.546875 0.53125 -0.421875 0.53125 -0.28125 C 0.53125 -0.125 0.640625 0 0.8125 0 C 0.921875 0 1 -0.078125 1.015625 -0.078125 Z M 1.015625 -0.078125 "
             style="stroke:none;stroke-width:0" />
          <path
             id="path6166"
             transform="translate(85.41192,68.150123)"
             d="M 0.578125 -0.296875 C 0.5625 -0.234375 0.53125 -0.125 0.53125 -0.109375 C 0.53125 0 0.625 0.046875 0.703125 0.046875 C 0.78125 0.046875 0.859375 -0.015625 0.890625 -0.0625 C 0.90625 -0.09375 0.953125 -0.25 0.96875 -0.359375 C 1 -0.4375 1.046875 -0.671875 1.078125 -0.78125 C 1.109375 -0.890625 1.140625 -1 1.15625 -1.109375 C 1.203125 -1.296875 1.21875 -1.34375 1.359375 -1.53125 C 1.484375 -1.71875 1.71875 -1.96875 2.078125 -1.96875 C 2.359375 -1.96875 2.359375 -1.734375 2.359375 -1.640625 C 2.359375 -1.359375 2.15625 -0.828125 2.078125 -0.625 C 2.015625 -0.484375 2 -0.4375 2 -0.359375 C 2 -0.109375 2.21875 0.046875 2.453125 0.046875 C 2.9375 0.046875 3.140625 -0.609375 3.140625 -0.6875 C 3.140625 -0.75 3.078125 -0.75 3.0625 -0.75 C 3 -0.75 3 -0.71875 2.984375 -0.671875 C 2.875 -0.28125 2.65625 -0.09375 2.46875 -0.09375 C 2.375 -0.09375 2.359375 -0.15625 2.359375 -0.25 C 2.359375 -0.359375 2.375 -0.421875 2.46875 -0.640625 C 2.515625 -0.78125 2.71875 -1.296875 2.71875 -1.5625 C 2.71875 -2.03125 2.34375 -2.109375 2.09375 -2.109375 C 1.703125 -2.109375 1.421875 -1.859375 1.28125 -1.671875 C 1.25 -2 0.96875 -2.109375 0.78125 -2.109375 C 0.5625 -2.109375 0.453125 -1.953125 0.390625 -1.84375 C 0.296875 -1.671875 0.21875 -1.40625 0.21875 -1.375 C 0.21875 -1.3125 0.296875 -1.3125 0.3125 -1.3125 C 0.375 -1.3125 0.375 -1.328125 0.40625 -1.453125 C 0.484375 -1.734375 0.578125 -1.96875 0.765625 -1.96875 C 0.890625 -1.96875 0.921875 -1.875 0.921875 -1.734375 C 0.921875 -1.65625 0.875 -1.46875 0.84375 -1.34375 C 0.8125 -1.21875 0.765625 -1.015625 0.734375 -0.90625 Z M 0.578125 -0.296875 "
             style="stroke:none;stroke-width:0" />
        </g>
      </g>
    </g>
    <g
       id="g6345"
       ns1:jacobian_sqrt="0.482979"
       inkscapeversion="0.92.4"
       ns1:alignment="middle center"
       ns1:scale="1.36907301475"
       ns1:preamble="/home/tim/Desktop/bachlor-arbeit/tex/preamble.tex"
       ns1:text="$\\hat S_{\\scaleto{n, n_0}{3pt}}$"
       ns1:pdfconverter="pdf2svg"
       ns1:texconverter="pdflatex"
       ns1:version="0.9.1"
       transform="matrix(0.482979,0.000000,0.000000,0.482979,34.249274,77.519846)">
      <g
         id="g6343">
        <g
           id="g6325"
           style="fill:rgb(0%,0%,0%);fill-opacity:1;">
          <path
             id="path6323"
             transform="translate(73.318,64.137)"
             d="M 2.5 -6.921875 L 1.15625 -5.5625 L 1.328125 -5.390625 L 2.5 -6.40625 L 3.640625 -5.390625 L 3.8125 -5.5625 Z M 2.5 -6.921875 "
             style="stroke:none;stroke-width:0" />
        </g>
        <g
           id="g6329"
           style="fill:rgb(0%,0%,0%);fill-opacity:1;">
          <path
             id="path6327"
             transform="translate(71.637,66.656)"
             d="M 6.4375 -6.921875 C 6.4375 -6.953125 6.40625 -7.03125 6.3125 -7.03125 C 6.265625 -7.03125 6.265625 -7.015625 6.140625 -6.875 L 5.65625 -6.3125 C 5.40625 -6.78125 4.890625 -7.03125 4.234375 -7.03125 C 2.96875 -7.03125 1.78125 -5.875 1.78125 -4.671875 C 1.78125 -3.875 2.296875 -3.40625 2.8125 -3.265625 L 3.875 -2.984375 C 4.25 -2.890625 4.796875 -2.734375 4.796875 -1.921875 C 4.796875 -1.03125 3.984375 -0.09375 3 -0.09375 C 2.359375 -0.09375 1.25 -0.3125 1.25 -1.546875 C 1.25 -1.78125 1.3125 -2.03125 1.3125 -2.078125 C 1.328125 -2.125 1.328125 -2.140625 1.328125 -2.15625 C 1.328125 -2.25 1.265625 -2.265625 1.21875 -2.265625 C 1.171875 -2.265625 1.140625 -2.25 1.109375 -2.21875 C 1.078125 -2.1875 0.515625 0.09375 0.515625 0.125 C 0.515625 0.171875 0.5625 0.21875 0.625 0.21875 C 0.671875 0.21875 0.6875 0.203125 0.8125 0.0625 L 1.296875 -0.5 C 1.71875 0.078125 2.40625 0.21875 2.984375 0.21875 C 4.34375 0.21875 5.515625 -1.109375 5.515625 -2.34375 C 5.515625 -3.03125 5.171875 -3.375 5.03125 -3.515625 C 4.796875 -3.734375 4.640625 -3.78125 3.765625 -4 C 3.53125 -4.0625 3.1875 -4.171875 3.09375 -4.1875 C 2.828125 -4.28125 2.484375 -4.5625 2.484375 -5.09375 C 2.484375 -5.90625 3.28125 -6.75 4.234375 -6.75 C 5.046875 -6.75 5.65625 -6.3125 5.65625 -5.203125 C 5.65625 -4.890625 5.625 -4.703125 5.625 -4.640625 C 5.625 -4.640625 5.625 -4.546875 5.734375 -4.546875 C 5.84375 -4.546875 5.859375 -4.578125 5.890625 -4.75 Z M 6.4375 -6.921875 "
             style="stroke:none;stroke-width:0" />
        </g>
        <g
           id="g6337"
           style="fill:rgb(0%,0%,0%);fill-opacity:1;">
          <path
             id="path6331"
             transform="translate(77.746,68.150123)"
             d="M 0.578125 -0.296875 C 0.5625 -0.234375 0.53125 -0.125 0.53125 -0.109375 C 0.53125 0 0.625 0.046875 0.703125 0.046875 C 0.78125 0.046875 0.859375 -0.015625 0.890625 -0.0625 C 0.90625 -0.09375 0.953125 -0.25 0.96875 -0.359375 C 1 -0.4375 1.046875 -0.671875 1.078125 -0.78125 C 1.109375 -0.890625 1.140625 -1 1.15625 -1.109375 C 1.203125 -1.296875 1.21875 -1.34375 1.359375 -1.53125 C 1.484375 -1.71875 1.71875 -1.96875 2.078125 -1.96875 C 2.359375 -1.96875 2.359375 -1.734375 2.359375 -1.640625 C 2.359375 -1.359375 2.15625 -0.828125 2.078125 -0.625 C 2.015625 -0.484375 2 -0.4375 2 -0.359375 C 2 -0.109375 2.21875 0.046875 2.453125 0.046875 C 2.9375 0.046875 3.140625 -0.609375 3.140625 -0.6875 C 3.140625 -0.75 3.078125 -0.75 3.0625 -0.75 C 3 -0.75 3 -0.71875 2.984375 -0.671875 C 2.875 -0.28125 2.65625 -0.09375 2.46875 -0.09375 C 2.375 -0.09375 2.359375 -0.15625 2.359375 -0.25 C 2.359375 -0.359375 2.375 -0.421875 2.46875 -0.640625 C 2.515625 -0.78125 2.71875 -1.296875 2.71875 -1.5625 C 2.71875 -2.03125 2.34375 -2.109375 2.09375 -2.109375 C 1.703125 -2.109375 1.421875 -1.859375 1.28125 -1.671875 C 1.25 -2 0.96875 -2.109375 0.78125 -2.109375 C 0.5625 -2.109375 0.453125 -1.953125 0.390625 -1.84375 C 0.296875 -1.671875 0.21875 -1.40625 0.21875 -1.375 C 0.21875 -1.3125 0.296875 -1.3125 0.3125 -1.3125 C 0.375 -1.3125 0.375 -1.328125 0.40625 -1.453125 C 0.484375 -1.734375 0.578125 -1.96875 0.765625 -1.96875 C 0.890625 -1.96875 0.921875 -1.875 0.921875 -1.734375 C 0.921875 -1.65625 0.875 -1.46875 0.84375 -1.34375 C 0.8125 -1.21875 0.765625 -1.015625 0.734375 -0.90625 Z M 0.578125 -0.296875 "
             style="stroke:none;stroke-width:0" />
          <path
             id="path6333"
             transform="translate(81.12315,68.150123)"
             d="M 1.015625 -0.078125 C 1.015625 0.1875 0.96875 0.5 0.640625 0.796875 C 0.609375 0.8125 0.609375 0.828125 0.609375 0.859375 C 0.609375 0.890625 0.640625 0.921875 0.671875 0.921875 C 0.734375 0.921875 1.140625 0.546875 1.140625 -0.03125 C 1.140625 -0.328125 1.03125 -0.546875 0.8125 -0.546875 C 0.65625 -0.546875 0.53125 -0.421875 0.53125 -0.28125 C 0.53125 -0.125 0.640625 0 0.8125 0 C 0.921875 0 1 -0.078125 1.015625 -0.078125 Z M 1.015625 -0.078125 "
             style="stroke:none;stroke-width:0" />
          <path
             id="path6335"
             transform="translate(82.745731,68.150123)"
             d="M 0.578125 -0.296875 C 0.5625 -0.234375 0.53125 -0.125 0.53125 -0.109375 C 0.53125 0 0.625 0.046875 0.703125 0.046875 C 0.78125 0.046875 0.859375 -0.015625 0.890625 -0.0625 C 0.90625 -0.09375 0.953125 -0.25 0.96875 -0.359375 C 1 -0.4375 1.046875 -0.671875 1.078125 -0.78125 C 1.109375 -0.890625 1.140625 -1 1.15625 -1.109375 C 1.203125 -1.296875 1.21875 -1.34375 1.359375 -1.53125 C 1.484375 -1.71875 1.71875 -1.96875 2.078125 -1.96875 C 2.359375 -1.96875 2.359375 -1.734375 2.359375 -1.640625 C 2.359375 -1.359375 2.15625 -0.828125 2.078125 -0.625 C 2.015625 -0.484375 2 -0.4375 2 -0.359375 C 2 -0.109375 2.21875 0.046875 2.453125 0.046875 C 2.9375 0.046875 3.140625 -0.609375 3.140625 -0.6875 C 3.140625 -0.75 3.078125 -0.75 3.0625 -0.75 C 3 -0.75 3 -0.71875 2.984375 -0.671875 C 2.875 -0.28125 2.65625 -0.09375 2.46875 -0.09375 C 2.375 -0.09375 2.359375 -0.15625 2.359375 -0.25 C 2.359375 -0.359375 2.375 -0.421875 2.46875 -0.640625 C 2.515625 -0.78125 2.71875 -1.296875 2.71875 -1.5625 C 2.71875 -2.03125 2.34375 -2.109375 2.09375 -2.109375 C 1.703125 -2.109375 1.421875 -1.859375 1.28125 -1.671875 C 1.25 -2 0.96875 -2.109375 0.78125 -2.109375 C 0.5625 -2.109375 0.453125 -1.953125 0.390625 -1.84375 C 0.296875 -1.671875 0.21875 -1.40625 0.21875 -1.375 C 0.21875 -1.3125 0.296875 -1.3125 0.3125 -1.3125 C 0.375 -1.3125 0.375 -1.328125 0.40625 -1.453125 C 0.484375 -1.734375 0.578125 -1.96875 0.765625 -1.96875 C 0.890625 -1.96875 0.921875 -1.875 0.921875 -1.734375 C 0.921875 -1.65625 0.875 -1.46875 0.84375 -1.34375 C 0.8125 -1.21875 0.765625 -1.015625 0.734375 -0.90625 Z M 0.578125 -0.296875 "
             style="stroke:none;stroke-width:0" />
        </g>
        <g
           id="g6341"
           style="fill:rgb(0%,0%,0%);fill-opacity:1;">
          <path
             id="path6339"
             transform="translate(86.122878,68.83313)"
             d="M 2.0625 -1.09375 C 2.0625 -1.34375 2.0625 -2.28125 1.15625 -2.28125 C 0.265625 -2.28125 0.265625 -1.34375 0.265625 -1.09375 C 0.265625 -0.84375 0.265625 0.078125 1.15625 0.078125 C 2.0625 0.078125 2.0625 -0.84375 2.0625 -1.09375 Z M 1.15625 -0.03125 C 1.03125 -0.03125 0.75 -0.078125 0.65625 -0.421875 C 0.609375 -0.609375 0.609375 -0.859375 0.609375 -1.140625 C 0.609375 -1.390625 0.609375 -1.625 0.671875 -1.828125 C 0.75 -2.109375 1.015625 -2.171875 1.15625 -2.171875 C 1.421875 -2.171875 1.59375 -2.03125 1.671875 -1.796875 C 1.71875 -1.625 1.71875 -1.34375 1.71875 -1.140625 C 1.71875 -0.90625 1.71875 -0.625 1.65625 -0.421875 C 1.578125 -0.09375 1.296875 -0.03125 1.15625 -0.03125 Z M 1.15625 -0.03125 "
             style="stroke:none;stroke-width:0" />
        </g>
      </g>
    </g>
  </g>
</svg>
