<?xml version="1.0" encoding="UTF-8" standalone="no"?>
<!-- Created with Inkscape (http://www.inkscape.org/) -->

<svg
   xmlns:ns1="http://www.iki.fi/pav/software/textext/"
   xmlns:dc="http://purl.org/dc/elements/1.1/"
   xmlns:cc="http://creativecommons.org/ns#"
   xmlns:rdf="http://www.w3.org/1999/02/22-rdf-syntax-ns#"
   xmlns:svg="http://www.w3.org/2000/svg"
   xmlns="http://www.w3.org/2000/svg"
   xmlns:sodipodi="http://sodipodi.sourceforge.net/DTD/sodipodi-0.dtd"
   xmlns:inkscape="http://www.inkscape.org/namespaces/inkscape"
   sodipodi:docname="bg_two_layers.svg"
   inkscape:version="0.92.4 5da689c313, 2019-01-14"
   width="210mm"
   height="297mm"
   viewBox="0 0 210 297"
   version="1.1"
   id="svg8">
  <defs
     id="defs2">
    <marker
       inkscape:stockid="DotS"
       orient="auto"
       refY="0.0"
       refX="0.0"
       id="DotS"
       style="overflow:visible"
       inkscape:isstock="true">
      <path
         id="path2767"
         d="M -2.5,-1.0 C -2.5,1.7600000 -4.7400000,4.0 -7.5,4.0 C -10.260000,4.0 -12.5,1.7600000 -12.5,-1.0 C -12.5,-3.7600000 -10.260000,-6.0 -7.5,-6.0 C -4.7400000,-6.0 -2.5,-3.7600000 -2.5,-1.0 z "
         style="fill-rule:evenodd;stroke:#000000;stroke-width:1pt;stroke-opacity:1;fill:#000000;fill-opacity:1"
         transform="scale(0.2) translate(7.4, 1)" />
    </marker>
    <marker
       inkscape:stockid="DotM"
       orient="auto"
       refY="0.0"
       refX="0.0"
       id="DotM"
       style="overflow:visible"
       inkscape:isstock="true">
      <path
         id="path2764"
         d="M -2.5,-1.0 C -2.5,1.7600000 -4.7400000,4.0 -7.5,4.0 C -10.260000,4.0 -12.5,1.7600000 -12.5,-1.0 C -12.5,-3.7600000 -10.260000,-6.0 -7.5,-6.0 C -4.7400000,-6.0 -2.5,-3.7600000 -2.5,-1.0 z "
         style="fill-rule:evenodd;stroke:#000000;stroke-width:1pt;stroke-opacity:1;fill:#000000;fill-opacity:1"
         transform="scale(0.4) translate(7.4, 1)" />
    </marker>
  </defs>
  <sodipodi:namedview
     id="base"
     pagecolor="#ffffff"
     bordercolor="#666666"
     borderopacity="1.0"
     inkscape:pageopacity="0.0"
     inkscape:pageshadow="2"
     inkscape:zoom="1.1935547"
     inkscape:cx="230.48511"
     inkscape:cy="556.40953"
     inkscape:document-units="mm"
     inkscape:current-layer="layer1"
     showgrid="false"
     inkscape:snap-bbox="true"
     inkscape:object-paths="false"
     inkscape:window-width="1920"
     inkscape:window-height="1052"
     inkscape:window-x="0"
     inkscape:window-y="28"
     inkscape:window-maximized="1"
     inkscape:snap-global="true"
     inkscape:snap-center="false"
     inkscape:snap-object-midpoints="true" />
  <metadata
     id="metadata5">
    <rdf:RDF>
      <cc:Work
         rdf:about="">
        <dc:format>image/svg+xml</dc:format>
        <dc:type
           rdf:resource="http://purl.org/dc/dcmitype/StillImage" />
        <dc:title />
      </cc:Work>
    </rdf:RDF>
  </metadata>
  <g
     inkscape:label="Layer 1"
     inkscape:groupmode="layer"
     id="layer1">
    <path
       style="fill:none;stroke:#000000;stroke-width:0.26458332px;stroke-linecap:butt;stroke-linejoin:miter;stroke-opacity:1"
       d="m 66.946382,121.43201 22.943544,-20.5051"
       id="path28"
       inkscape:connector-curvature="0"
       sodipodi:nodetypes="cc" />
    <path
       inkscape:connector-curvature="0"
       id="path30"
       d="m 121.03551,121.43201 22.94355,-20.5051"
       style="fill:none;stroke:#000000;stroke-width:0.26458332px;stroke-linecap:butt;stroke-linejoin:miter;stroke-opacity:1"
       sodipodi:nodetypes="cc" />
    <path
       style="fill:none;stroke:#000000;stroke-width:0.26458332px;stroke-linecap:butt;stroke-linejoin:miter;stroke-opacity:1"
       d="M 89.889926,100.92691 H 143.97906"
       id="path32"
       inkscape:connector-curvature="0" />
    <path
       style="fill:none;stroke:#000000;stroke-width:0.26458332px;stroke-linecap:butt;stroke-linejoin:miter;stroke-opacity:1"
       d="m 143.97906,100.92691 v 85.56723"
       id="path34"
       inkscape:connector-curvature="0"
       sodipodi:nodetypes="cc" />
    <path
       style="fill:none;stroke:#000000;stroke-width:0.26458332px;stroke-linecap:butt;stroke-linejoin:miter;stroke-opacity:1"
       d="m 121.0355,209.43768 22.94356,-22.94354"
       id="path36"
       inkscape:connector-curvature="0" />
    <path
       style="fill:none;stroke:#000000;stroke-width:0.26458332px;stroke-linecap:butt;stroke-linejoin:miter;stroke-opacity:1"
       d="M 66.946381,148.22423 H 121.0355"
       id="path38"
       inkscape:connector-curvature="0" />
    <path
       style="fill:none;stroke:#000000;stroke-width:0.26458332px;stroke-linecap:butt;stroke-linejoin:miter;stroke-opacity:1"
       d="M 121.0355,182.64546 H 66.946381"
       id="path44"
       inkscape:connector-curvature="0" />
    <path
       inkscape:connector-curvature="0"
       id="path46"
       d="M 66.946381,148.22423 89.889926,125.28069"
       style="fill:none;stroke:#000000;stroke-width:0.26499999;stroke-linecap:butt;stroke-linejoin:miter;stroke-miterlimit:4;stroke-dasharray:0.52999997, 0.26499999;stroke-dashoffset:0;stroke-opacity:1" />
    <path
       style="fill:none;stroke:#000000;stroke-width:0.26458332px;stroke-linecap:butt;stroke-linejoin:miter;stroke-opacity:1"
       d="m 121.0355,148.22423 22.94354,-22.94354"
       id="path48"
       inkscape:connector-curvature="0" />
    <path
       inkscape:connector-curvature="0"
       id="path50"
       d="m 121.0355,182.64546 22.94354,-22.94354"
       style="fill:none;stroke:#000000;stroke-width:0.26458332px;stroke-linecap:butt;stroke-linejoin:miter;stroke-opacity:1" />
    <path
       style="fill:none;stroke:#000000;stroke-width:0.26499999;stroke-linecap:butt;stroke-linejoin:miter;stroke-miterlimit:4;stroke-dasharray:0.52999997, 0.26499999;stroke-dashoffset:0;stroke-opacity:1"
       d="M 89.889926,125.28069 H 143.97904"
       id="path188"
       inkscape:connector-curvature="0" />
    <path
       inkscape:connector-curvature="0"
       id="rect865"
       d="m 72.947981,144.18442 c 0,0 2.997454,0 2.997454,0 0,0 -3.138527,3.13853 -3.138527,3.13853 0,0 -2.997454,0 -2.997454,0 0,0 3.138527,-3.13853 3.138527,-3.13853"
       style="opacity:1;fill:#ffcc00;fill-opacity:1;stroke:none;stroke-width:0.06714407;stroke-miterlimit:4;stroke-dasharray:none;stroke-dashoffset:0;stroke-opacity:1" />
    <path
       inkscape:connector-curvature="0"
       id="rect867"
       d="m 82.255283,144.18442 c 0,0 2.997453,0 2.997453,0 0,0 -3.138527,3.13853 -3.138527,3.13853 0,0 -2.997453,0 -2.997453,0 0,0 3.138527,-3.13853 3.138527,-3.13853"
       style="opacity:1;fill:#ffcc00;fill-opacity:1;stroke:none;stroke-width:0.06714407;stroke-miterlimit:4;stroke-dasharray:none;stroke-dashoffset:0;stroke-opacity:1" />
    <path
       inkscape:connector-curvature="0"
       id="rect869"
       d="m 91.562583,144.18442 c 0,0 2.997454,0 2.997454,0 0,0 -3.138527,3.13853 -3.138527,3.13853 0,0 -2.997454,0 -2.997454,0 0,0 3.138527,-3.13853 3.138527,-3.13853"
       style="opacity:1;fill:#ffcc00;fill-opacity:1;stroke:none;stroke-width:0.06714407;stroke-miterlimit:4;stroke-dasharray:none;stroke-dashoffset:0;stroke-opacity:1" />
    <path
       inkscape:connector-curvature="0"
       id="rect871"
       d="m 100.86988,144.18442 c 0,0 2.99746,0 2.99746,0 0,0 -3.13853,3.13853 -3.13853,3.13853 0,0 -2.997454,0 -2.997454,0 0,0 3.138524,-3.13853 3.138524,-3.13853"
       style="opacity:1;fill:#ffcc00;fill-opacity:1;stroke:none;stroke-width:0.06714407;stroke-miterlimit:4;stroke-dasharray:none;stroke-dashoffset:0;stroke-opacity:1" />
    <path
       inkscape:connector-curvature="0"
       id="rect2262"
       d="m 110.32543,144.18442 c 0,0 2.99745,0 2.99745,0 0,0 -3.13852,3.13853 -3.13852,3.13853 0,0 -2.99746,0 -2.99746,0 0,0 3.13853,-3.13853 3.13853,-3.13853"
       style="opacity:1;fill:#ffcc00;fill-opacity:1;stroke:none;stroke-width:0.06714407;stroke-miterlimit:4;stroke-dasharray:none;stroke-dashoffset:0;stroke-opacity:1" />
    <path
       inkscape:connector-curvature="0"
       id="rect2438"
       d="m 77.429289,139.70311 c 0,0 2.997454,0 2.997454,0 0,0 -3.138525,3.13853 -3.138525,3.13853 0,0 -2.997454,0 -2.997454,0 0,0 3.138525,-3.13853 3.138525,-3.13853"
       style="opacity:1;fill:#ffcc00;fill-opacity:1;stroke:none;stroke-width:0.06714407;stroke-miterlimit:4;stroke-dasharray:none;stroke-dashoffset:0;stroke-opacity:1" />
    <path
       inkscape:connector-curvature="0"
       id="rect2440"
       d="m 86.736591,139.70311 c 0,0 2.997453,0 2.997453,0 0,0 -3.138525,3.13853 -3.138525,3.13853 0,0 -2.997453,0 -2.997453,0 0,0 3.138525,-3.13853 3.138525,-3.13853"
       style="opacity:1;fill:#ffcc00;fill-opacity:1;stroke:none;stroke-width:0.06714407;stroke-miterlimit:4;stroke-dasharray:none;stroke-dashoffset:0;stroke-opacity:1" />
    <path
       inkscape:connector-curvature="0"
       id="rect2442"
       d="m 96.043891,139.70311 c 0,0 2.997456,0 2.997456,0 0,0 -3.138528,3.13853 -3.138528,3.13853 0,0 -2.997453,0 -2.997453,0 0,0 3.138525,-3.13853 3.138525,-3.13853"
       style="opacity:1;fill:#ffcc00;fill-opacity:1;stroke:none;stroke-width:0.06714407;stroke-miterlimit:4;stroke-dasharray:none;stroke-dashoffset:0;stroke-opacity:1" />
    <path
       inkscape:connector-curvature="0"
       id="rect2444"
       d="m 105.35119,139.70311 c 0,0 2.99745,0 2.99745,0 0,0 -3.13852,3.13853 -3.13852,3.13853 0,0 -2.99746,0 -2.99746,0 0,0 3.13853,-3.13853 3.13853,-3.13853"
       style="opacity:1;fill:#ffcc00;fill-opacity:1;stroke:none;stroke-width:0.06714407;stroke-miterlimit:4;stroke-dasharray:none;stroke-dashoffset:0;stroke-opacity:1" />
    <path
       inkscape:connector-curvature="0"
       id="rect2446"
       d="m 114.80674,139.70311 c 0,0 2.99745,0 2.99745,0 0,0 -3.13852,3.13853 -3.13852,3.13853 0,0 -2.99745,0 -2.99745,0 0,0 3.13852,-3.13853 3.13852,-3.13853"
       style="opacity:1;fill:#ffcc00;fill-opacity:1;stroke:none;stroke-width:0.06714407;stroke-miterlimit:4;stroke-dasharray:none;stroke-dashoffset:0;stroke-opacity:1" />
    <path
       inkscape:connector-curvature="0"
       id="rect2450"
       d="m 81.910598,135.2218 c 0,0 2.997454,0 2.997454,0 0,0 -3.138526,3.13853 -3.138526,3.13853 0,0 -2.997454,0 -2.997454,0 0,0 3.138526,-3.13853 3.138526,-3.13853"
       style="opacity:1;fill:#ffcc00;fill-opacity:1;stroke:none;stroke-width:0.06714407;stroke-miterlimit:4;stroke-dasharray:none;stroke-dashoffset:0;stroke-opacity:1" />
    <path
       inkscape:connector-curvature="0"
       id="rect2452"
       d="m 91.2179,135.2218 c 0,0 2.997453,0 2.997453,0 0,0 -3.138526,3.13853 -3.138526,3.13853 0,0 -2.997453,0 -2.997453,0 0,0 3.138526,-3.13853 3.138526,-3.13853"
       style="opacity:1;fill:#ffcc00;fill-opacity:1;stroke:none;stroke-width:0.06714407;stroke-miterlimit:4;stroke-dasharray:none;stroke-dashoffset:0;stroke-opacity:1" />
    <path
       inkscape:connector-curvature="0"
       id="rect2454"
       d="m 100.5252,135.2218 c 0,0 2.99745,0 2.99745,0 0,0 -3.13852,3.13853 -3.13852,3.13853 0,0 -2.99746,0 -2.99746,0 0,0 3.13853,-3.13853 3.13853,-3.13853"
       style="opacity:1;fill:#ffcc00;fill-opacity:1;stroke:none;stroke-width:0.06714407;stroke-miterlimit:4;stroke-dasharray:none;stroke-dashoffset:0;stroke-opacity:1" />
    <path
       inkscape:connector-curvature="0"
       id="rect2456"
       d="m 109.8325,135.2218 c 0,0 2.99745,0 2.99745,0 0,0 -3.13852,3.13853 -3.13852,3.13853 0,0 -2.99745,0 -2.99745,0 0,0 3.13852,-3.13853 3.13852,-3.13853"
       style="opacity:1;fill:#ffcc00;fill-opacity:1;stroke:none;stroke-width:0.06714407;stroke-miterlimit:4;stroke-dasharray:none;stroke-dashoffset:0;stroke-opacity:1" />
    <path
       inkscape:connector-curvature="0"
       id="rect2458"
       d="m 119.28805,135.2218 c 0,0 2.99745,0 2.99745,0 0,0 -3.13852,3.13853 -3.13852,3.13853 0,0 -2.99746,0 -2.99746,0 0,0 3.13853,-3.13853 3.13853,-3.13853"
       style="opacity:1;fill:#ffcc00;fill-opacity:1;stroke:none;stroke-width:0.06714407;stroke-miterlimit:4;stroke-dasharray:none;stroke-dashoffset:0;stroke-opacity:1" />
    <path
       inkscape:connector-curvature="0"
       id="rect2462"
       d="m 86.391907,130.74049 c 0,0 2.997454,0 2.997454,0 0,0 -3.138526,3.13853 -3.138526,3.13853 0,0 -2.997454,0 -2.997454,0 0,0 3.138526,-3.13853 3.138526,-3.13853"
       style="opacity:1;fill:#ffcc00;fill-opacity:1;stroke:none;stroke-width:0.06714407;stroke-miterlimit:4;stroke-dasharray:none;stroke-dashoffset:0;stroke-opacity:1" />
    <path
       inkscape:connector-curvature="0"
       id="rect2464"
       d="m 95.699209,130.74049 c 0,0 2.997452,0 2.997452,0 0,0 -3.138525,3.13853 -3.138525,3.13853 0,0 -2.997453,0 -2.997453,0 0,0 3.138526,-3.13853 3.138526,-3.13853"
       style="opacity:1;fill:#ffcc00;fill-opacity:1;stroke:none;stroke-width:0.06714407;stroke-miterlimit:4;stroke-dasharray:none;stroke-dashoffset:0;stroke-opacity:1" />
    <path
       inkscape:connector-curvature="0"
       id="rect2466"
       d="m 105.00651,130.74049 c 0,0 2.99746,0 2.99746,0 0,0 -3.13854,3.13853 -3.13854,3.13853 0,0 -2.99745,0 -2.99745,0 0,0 3.13853,-3.13853 3.13853,-3.13853"
       style="opacity:1;fill:#ffcc00;fill-opacity:1;stroke:none;stroke-width:0.06714407;stroke-miterlimit:4;stroke-dasharray:none;stroke-dashoffset:0;stroke-opacity:1" />
    <path
       inkscape:connector-curvature="0"
       id="rect2468"
       d="m 114.31381,130.74049 c 0,0 2.99745,0 2.99745,0 0,0 -3.13852,3.13853 -3.13852,3.13853 0,0 -2.99746,0 -2.99746,0 0,0 3.13853,-3.13853 3.13853,-3.13853"
       style="opacity:1;fill:#ffcc00;fill-opacity:1;stroke:none;stroke-width:0.06714407;stroke-miterlimit:4;stroke-dasharray:none;stroke-dashoffset:0;stroke-opacity:1" />
    <path
       inkscape:connector-curvature="0"
       id="rect2470"
       d="m 123.76936,130.74049 c 0,0 2.99745,0 2.99745,0 0,0 -3.13852,3.13853 -3.13852,3.13853 0,0 -2.99746,0 -2.99746,0 0,0 3.13853,-3.13853 3.13853,-3.13853"
       style="opacity:1;fill:#ffcc00;fill-opacity:1;stroke:none;stroke-width:0.06714407;stroke-miterlimit:4;stroke-dasharray:none;stroke-dashoffset:0;stroke-opacity:1" />
    <path
       style="opacity:1;fill:#ffcc00;fill-opacity:1;stroke:none;stroke-width:0.06714407;stroke-miterlimit:4;stroke-dasharray:none;stroke-dashoffset:0;stroke-opacity:1"
       d="m 119.66124,144.22358 c 0,0 2.99745,0 2.99745,0 0,0 -3.13853,3.13853 -3.13853,3.13853 0,0 -2.99746,0 -2.99746,0 0,0 3.13854,-3.13853 3.13854,-3.13853"
       id="path299"
       inkscape:connector-curvature="0" />
    <path
       style="opacity:1;fill:#ffcc00;fill-opacity:1;stroke:none;stroke-width:0.06714407;stroke-miterlimit:4;stroke-dasharray:none;stroke-dashoffset:0;stroke-opacity:1"
       d="m 124.14254,139.74228 c 0,0 2.99746,0 2.99746,0 0,0 -3.13852,3.13852 -3.13852,3.13852 0,0 -2.99746,0 -2.99746,0 0,0 3.13852,-3.13852 3.13852,-3.13852"
       id="path301"
       inkscape:connector-curvature="0" />
    <path
       style="opacity:1;fill:#ffcc00;fill-opacity:1;stroke:none;stroke-width:0.06714407;stroke-miterlimit:4;stroke-dasharray:none;stroke-dashoffset:0;stroke-opacity:1"
       d="m 128.62385,135.26097 c 0,0 2.99746,0 2.99746,0 0,0 -3.13853,3.13852 -3.13853,3.13852 0,0 -2.99746,0 -2.99746,0 0,0 3.13853,-3.13852 3.13853,-3.13852"
       id="path303"
       inkscape:connector-curvature="0" />
    <path
       style="opacity:1;fill:#ffcc00;fill-opacity:1;stroke:none;stroke-width:0.06714407;stroke-miterlimit:4;stroke-dasharray:none;stroke-dashoffset:0;stroke-opacity:1"
       d="m 133.10516,130.77966 c 0,0 2.99746,0 2.99746,0 0,0 -3.13853,3.13852 -3.13853,3.13852 0,0 -2.99745,0 -2.99745,0 0,0 3.13852,-3.13852 3.13852,-3.13852"
       id="path305"
       inkscape:connector-curvature="0" />
    <path
       style="opacity:1;fill:#ffcc00;fill-opacity:1;stroke:none;stroke-width:0.06714407;stroke-miterlimit:4;stroke-dasharray:none;stroke-dashoffset:0;stroke-opacity:1"
       d="m 90.873216,126.25919 c 0,0 2.997454,0 2.997454,0 0,0 -3.138526,3.13852 -3.138526,3.13852 0,0 -2.997454,0 -2.997454,0 0,0 3.138526,-3.13852 3.138526,-3.13852"
       id="path311"
       inkscape:connector-curvature="0" />
    <path
       style="opacity:1;fill:#ffcc00;fill-opacity:1;stroke:none;stroke-width:0.06714407;stroke-miterlimit:4;stroke-dasharray:none;stroke-dashoffset:0;stroke-opacity:1"
       d="m 100.18052,126.25919 c 0,0 2.99746,0 2.99746,0 0,0 -3.13854,3.13852 -3.13854,3.13852 0,0 -2.997447,0 -2.997447,0 0,0 3.138527,-3.13852 3.138527,-3.13852"
       id="path313"
       inkscape:connector-curvature="0" />
    <path
       style="opacity:1;fill:#ffcc00;fill-opacity:1;stroke:none;stroke-width:0.06714407;stroke-miterlimit:4;stroke-dasharray:none;stroke-dashoffset:0;stroke-opacity:1"
       d="m 109.48781,126.25919 c 0,0 2.99746,0 2.99746,0 0,0 -3.13852,3.13852 -3.13852,3.13852 0,0 -2.99746,0 -2.99746,0 0,0 3.13852,-3.13852 3.13852,-3.13852"
       id="path315"
       inkscape:connector-curvature="0" />
    <path
       style="opacity:1;fill:#ffcc00;fill-opacity:1;stroke:none;stroke-width:0.06714407;stroke-miterlimit:4;stroke-dasharray:none;stroke-dashoffset:0;stroke-opacity:1"
       d="m 118.79512,126.25919 c 0,0 2.99745,0 2.99745,0 0,0 -3.13853,3.13852 -3.13853,3.13852 0,0 -2.99744,0 -2.99744,0 0,0 3.13852,-3.13852 3.13852,-3.13852"
       id="path317"
       inkscape:connector-curvature="0" />
    <path
       style="opacity:1;fill:#ffcc00;fill-opacity:1;stroke:none;stroke-width:0.06714407;stroke-miterlimit:4;stroke-dasharray:none;stroke-dashoffset:0;stroke-opacity:1"
       d="m 128.25067,126.25919 c 0,0 2.99745,0 2.99745,0 0,0 -3.13852,3.13852 -3.13852,3.13852 0,0 -2.99746,0 -2.99746,0 0,0 3.13853,-3.13852 3.13853,-3.13852"
       id="path319"
       inkscape:connector-curvature="0" />
    <path
       inkscape:connector-curvature="0"
       id="path321"
       d="m 137.58647,126.29835 c 0,0 2.99745,0 2.99745,0 0,0 -3.13852,3.13853 -3.13852,3.13853 0,0 -2.99746,0 -2.99746,0 0,0 3.13853,-3.13853 3.13853,-3.13853"
       style="opacity:1;fill:#ffcc00;fill-opacity:1;stroke:none;stroke-width:0.06714407;stroke-miterlimit:4;stroke-dasharray:none;stroke-dashoffset:0;stroke-opacity:1" />
    <path
       style="fill:none;stroke:#000000;stroke-width:0.26499999;stroke-linecap:butt;stroke-linejoin:miter;stroke-miterlimit:4;stroke-dasharray:0.52999997, 0.26499999;stroke-dashoffset:0;stroke-opacity:1"
       d="M 66.946381,182.64546 89.889926,159.70191"
       id="path1239"
       inkscape:connector-curvature="0" />
    <path
       inkscape:connector-curvature="0"
       id="path1241"
       d="M 89.889926,159.70191 H 143.97904"
       style="fill:none;stroke:#000000;stroke-width:0.26499999;stroke-linecap:butt;stroke-linejoin:miter;stroke-miterlimit:4;stroke-dasharray:0.52999997, 0.26499999;stroke-dashoffset:0;stroke-opacity:1" />
    <path
       inkscape:connector-curvature="0"
       id="path1245"
       d="M 66.946401,209.43769 89.889946,186.49414"
       style="fill:none;stroke:#000000;stroke-width:0.26499999;stroke-linecap:butt;stroke-linejoin:miter;stroke-miterlimit:4;stroke-dasharray:0.52999997, 0.26499999;stroke-dashoffset:0;stroke-opacity:1" />
    <path
       inkscape:connector-curvature="0"
       id="path1247"
       d="M 89.889946,186.49414 H 143.97906"
       style="fill:none;stroke:#000000;stroke-width:0.26499999;stroke-linecap:butt;stroke-linejoin:miter;stroke-miterlimit:4;stroke-dasharray:0.52999997, 0.26499999;stroke-dashoffset:0;stroke-opacity:1" />
    <path
       style="opacity:1;vector-effect:none;fill:none;fill-opacity:1;stroke:#000000;stroke-width:0.26499999;stroke-linecap:butt;stroke-linejoin:miter;stroke-miterlimit:4;stroke-dasharray:0.52999997, 0.26499999;stroke-dashoffset:0;stroke-opacity:1"
       d="m 89.889944,186.49414 v -3.84868"
       id="path1269"
       inkscape:connector-curvature="0" />
    <path
       style="opacity:1;vector-effect:none;fill:none;fill-opacity:1;stroke:#000000;stroke-width:0.26499999;stroke-linecap:butt;stroke-linejoin:miter;stroke-miterlimit:4;stroke-dasharray:0.52999997, 0.26499999;stroke-dashoffset:0;stroke-opacity:1"
       d="M 89.889926,159.70191 V 148.22423"
       id="path1285"
       inkscape:connector-curvature="0" />
    <path
       style="opacity:1;vector-effect:none;fill:none;fill-opacity:1;stroke:#000000;stroke-width:0.26499999;stroke-linecap:butt;stroke-linejoin:miter;stroke-miterlimit:4;stroke-dasharray:0.52999997, 0.26499999;stroke-dashoffset:0;stroke-opacity:1"
       d="m 89.889926,125.28069 v -3.84868"
       id="path1292"
       inkscape:connector-curvature="0" />
    <path
       style="opacity:1;fill:#ffcc00;fill-opacity:1;stroke:none;stroke-width:1.69714403;stroke-miterlimit:4;stroke-dasharray:none;stroke-dashoffset:0;stroke-opacity:1"
       d="m 89.889927,159.70191 c 0,0 54.089113,1e-5 54.089113,1e-5 0,0 -22.94354,22.94354 -22.94354,22.94354 0,0 -54.089118,0 -54.089118,0 0,0 22.943545,-22.94355 22.943545,-22.94355"
       id="rect2349"
       inkscape:connector-curvature="0" />
    <path
       style="opacity:1;fill:#ffffff;fill-opacity:1;stroke:none;stroke-width:0.07300045;stroke-miterlimit:4;stroke-dasharray:none;stroke-dashoffset:0;stroke-opacity:1"
       d="m 88.834334,165.04675 c 0,0 2.054964,0.60996 2.054964,0.60996 0,0 -5.635326,2.88988 -5.635326,2.88988 0,0 -2.054964,-0.60995 -2.054964,-0.60995 0,0 5.635326,-2.88989 5.635326,-2.88989"
       id="rect2462-5"
       inkscape:connector-curvature="0" />
    <path
       style="opacity:1;fill:#ffffff;fill-opacity:1;stroke:none;stroke-width:0.07300045;stroke-miterlimit:4;stroke-dasharray:none;stroke-dashoffset:0;stroke-opacity:1"
       d="m 97.964522,165.04675 c 0,0 2.054958,0.60996 2.054958,0.60996 0,0 -5.635318,2.88988 -5.635318,2.88988 0,0 -2.054965,-0.60995 -2.054965,-0.60995 0,0 5.635325,-2.88989 5.635325,-2.88989"
       id="rect2464-3"
       inkscape:connector-curvature="0" />
    <path
       style="opacity:1;fill:#ffffff;fill-opacity:1;stroke:none;stroke-width:0.07300045;stroke-miterlimit:4;stroke-dasharray:none;stroke-dashoffset:0;stroke-opacity:1"
       d="m 107.09471,165.04675 c 0,0 2.05496,0.60996 2.05496,0.60996 0,0 -5.63532,2.88988 -5.63532,2.88988 0,0 -2.05497,-0.60995 -2.05497,-0.60995 0,0 5.63533,-2.88989 5.63533,-2.88989"
       id="rect2466-5"
       inkscape:connector-curvature="0" />
    <path
       style="opacity:1;fill:#ffffff;fill-opacity:1;stroke:none;stroke-width:0.07300045;stroke-miterlimit:4;stroke-dasharray:none;stroke-dashoffset:0;stroke-opacity:1"
       d="m 116.22489,165.04675 c 0,0 2.05497,0.60996 2.05497,0.60996 0,0 -5.63533,2.88989 -5.63533,2.88989 0,0 -2.05496,-0.60996 -2.05496,-0.60996 0,0 5.63532,-2.88989 5.63532,-2.88989"
       id="rect2468-6"
       inkscape:connector-curvature="0" />
    <path
       style="opacity:1;fill:#ffffff;fill-opacity:1;stroke:none;stroke-width:0.07300045;stroke-miterlimit:4;stroke-dasharray:none;stroke-dashoffset:0;stroke-opacity:1"
       d="m 79.728616,174.15247 c 0,0 2.054967,0.60995 2.054967,0.60995 0,0 -5.63533,2.88989 -5.63533,2.88989 0,0 -2.054967,-0.60995 -2.054967,-0.60995 0,0 5.63533,-2.88989 5.63533,-2.88989"
       id="rect2438-9"
       inkscape:connector-curvature="0" />
    <path
       style="opacity:1;fill:#ffffff;fill-opacity:1;stroke:none;stroke-width:0.07300045;stroke-miterlimit:4;stroke-dasharray:none;stroke-dashoffset:0;stroke-opacity:1"
       d="m 88.858806,174.15247 c 0,0 2.054964,0.60996 2.054964,0.60996 0,0 -5.635327,2.88988 -5.635327,2.88988 0,0 -2.054964,-0.60995 -2.054964,-0.60995 0,0 5.635327,-2.88989 5.635327,-2.88989"
       id="rect2440-1"
       inkscape:connector-curvature="0" />
    <path
       style="opacity:1;fill:#ffffff;fill-opacity:1;stroke:none;stroke-width:0.07300045;stroke-miterlimit:4;stroke-dasharray:none;stroke-dashoffset:0;stroke-opacity:1"
       d="m 97.988992,174.15247 c 0,0 2.054968,0.60995 2.054968,0.60995 0,0 -5.635329,2.88989 -5.635329,2.88989 0,0 -2.054966,-0.60995 -2.054966,-0.60995 0,0 5.635327,-2.88989 5.635327,-2.88989"
       id="rect2442-2"
       inkscape:connector-curvature="0" />
    <path
       style="opacity:1;fill:#ffffff;fill-opacity:1;stroke:none;stroke-width:0.07300045;stroke-miterlimit:4;stroke-dasharray:none;stroke-dashoffset:0;stroke-opacity:1"
       d="m 107.11918,174.15247 c 0,0 2.05496,0.60996 2.05496,0.60996 0,0 -5.63533,2.88988 -5.63533,2.88988 0,0 -2.05496,-0.60995 -2.05496,-0.60995 0,0 5.63533,-2.88989 5.63533,-2.88989"
       id="rect2444-7"
       inkscape:connector-curvature="0" />
    <path
       style="opacity:1;fill:#ffffff;fill-opacity:1;stroke:none;stroke-width:0.07300045;stroke-miterlimit:4;stroke-dasharray:none;stroke-dashoffset:0;stroke-opacity:1"
       d="m 84.281472,169.59961 c 0,0 2.054967,0.60996 2.054967,0.60996 0,0 -5.635325,2.88988 -5.635325,2.88988 0,0 -2.054967,-0.60995 -2.054967,-0.60995 0,0 5.635325,-2.88989 5.635325,-2.88989"
       id="rect2450-9"
       inkscape:connector-curvature="0" />
    <path
       style="opacity:1;fill:#ffffff;fill-opacity:1;stroke:none;stroke-width:0.07300045;stroke-miterlimit:4;stroke-dasharray:none;stroke-dashoffset:0;stroke-opacity:1"
       d="m 93.411661,169.59961 c 0,0 2.054967,0.60996 2.054967,0.60996 0,0 -5.635324,2.88988 -5.635324,2.88988 0,0 -2.054967,-0.60995 -2.054967,-0.60995 0,0 5.635324,-2.88989 5.635324,-2.88989"
       id="rect2452-3"
       inkscape:connector-curvature="0" />
    <path
       style="opacity:1;fill:#ffffff;fill-opacity:1;stroke:none;stroke-width:0.07300045;stroke-miterlimit:4;stroke-dasharray:none;stroke-dashoffset:0;stroke-opacity:1"
       d="m 102.54185,169.59961 c 0,0 2.05496,0.60996 2.05496,0.60996 0,0 -5.635318,2.88988 -5.635318,2.88988 0,0 -2.05497,-0.60995 -2.05497,-0.60995 0,0 5.635328,-2.88989 5.635328,-2.88989"
       id="rect2454-6"
       inkscape:connector-curvature="0" />
    <path
       style="opacity:1;fill:#ffffff;fill-opacity:1;stroke:none;stroke-width:0.07300045;stroke-miterlimit:4;stroke-dasharray:none;stroke-dashoffset:0;stroke-opacity:1"
       d="m 111.67203,169.59962 c 0,0 2.05497,0.60995 2.05497,0.60995 0,0 -5.63532,2.88988 -5.63532,2.88988 0,0 -2.05497,-0.60995 -2.05497,-0.60995 0,0 5.63532,-2.88988 5.63532,-2.88988"
       id="rect2456-0"
       inkscape:connector-curvature="0" />
    <path
       style="opacity:1;fill:#ffffff;fill-opacity:1;stroke:none;stroke-width:0.07300045;stroke-miterlimit:4;stroke-dasharray:none;stroke-dashoffset:0;stroke-opacity:1"
       d="m 75.175759,178.70533 c 0,0 2.054967,0.60995 2.054967,0.60995 0,0 -5.635325,2.88989 -5.635325,2.88989 0,0 -2.054967,-0.60996 -2.054967,-0.60996 0,0 5.635325,-2.88988 5.635325,-2.88988"
       id="rect865-2"
       inkscape:connector-curvature="0" />
    <path
       style="opacity:1;fill:#ffffff;fill-opacity:1;stroke:none;stroke-width:0.07300045;stroke-miterlimit:4;stroke-dasharray:none;stroke-dashoffset:0;stroke-opacity:1"
       d="m 84.305948,178.70533 c 0,0 2.054967,0.60995 2.054967,0.60995 0,0 -5.635323,2.88989 -5.635323,2.88989 0,0 -2.054968,-0.60996 -2.054968,-0.60996 0,0 5.635324,-2.88988 5.635324,-2.88988"
       id="rect867-6"
       inkscape:connector-curvature="0" />
    <path
       style="opacity:1;fill:#ffffff;fill-opacity:1;stroke:none;stroke-width:0.07300045;stroke-miterlimit:4;stroke-dasharray:none;stroke-dashoffset:0;stroke-opacity:1"
       d="m 93.436136,178.70533 c 0,0 2.054967,0.60995 2.054967,0.60995 0,0 -5.635324,2.88989 -5.635324,2.88989 0,0 -2.054966,-0.60996 -2.054966,-0.60996 0,0 5.635323,-2.88988 5.635323,-2.88988"
       id="rect869-1"
       inkscape:connector-curvature="0" />
    <path
       style="opacity:1;fill:#ffffff;fill-opacity:1;stroke:none;stroke-width:0.07300045;stroke-miterlimit:4;stroke-dasharray:none;stroke-dashoffset:0;stroke-opacity:1"
       d="m 102.56632,178.70533 c 0,0 2.05497,0.60995 2.05497,0.60995 0,0 -5.635328,2.88989 -5.635328,2.88989 0,0 -2.05496,-0.60996 -2.05496,-0.60996 0,0 5.635318,-2.88988 5.635318,-2.88988"
       id="rect871-8"
       inkscape:connector-curvature="0" />
    <path
       style="fill:none;stroke:#000000;stroke-width:0.15000001;stroke-linecap:butt;stroke-linejoin:miter;stroke-miterlimit:4;stroke-dasharray:none;stroke-opacity:1;marker-start:url(#DotS)"
       d="m 100.77614,180.45524 0,5.35551"
       id="path2665"
       inkscape:connector-curvature="0"
       sodipodi:nodetypes="cc" />
    <path
       style="opacity:1;fill:#ffffff;fill-opacity:1;stroke:none;stroke-width:0.07300045;stroke-miterlimit:4;stroke-dasharray:none;stroke-dashoffset:0;stroke-opacity:1"
       d="m 125.50051,165.04676 c 0,0 2.05496,0.60995 2.05496,0.60995 0,0 -5.63532,2.88989 -5.63532,2.88989 0,0 -2.05497,-0.60996 -2.05497,-0.60996 0,0 5.63533,-2.88988 5.63533,-2.88988"
       id="rect2470-2"
       inkscape:connector-curvature="0" />
    <path
       style="opacity:1;fill:#ffffff;fill-opacity:1;stroke:none;stroke-width:0.07300045;stroke-miterlimit:4;stroke-dasharray:none;stroke-dashoffset:0;stroke-opacity:1"
       d="m 116.39479,174.15247 c 0,0 2.05496,0.60996 2.05496,0.60996 0,0 -5.63532,2.88988 -5.63532,2.88988 0,0 -2.05497,-0.60995 -2.05497,-0.60995 0,0 5.63533,-2.88989 5.63533,-2.88989"
       id="rect2446-0"
       inkscape:connector-curvature="0" />
    <path
       style="opacity:1;fill:#ffffff;fill-opacity:1;stroke:none;stroke-width:0.07300045;stroke-miterlimit:4;stroke-dasharray:none;stroke-dashoffset:0;stroke-opacity:1"
       d="m 120.94764,169.59962 c 0,0 2.05497,0.60995 2.05497,0.60995 0,0 -5.63532,2.88988 -5.63532,2.88988 0,0 -2.05497,-0.60995 -2.05497,-0.60995 0,0 5.63532,-2.88988 5.63532,-2.88988"
       id="rect2458-6"
       inkscape:connector-curvature="0" />
    <path
       style="opacity:1;fill:#ffffff;fill-opacity:1;stroke:none;stroke-width:0.07300045;stroke-miterlimit:4;stroke-dasharray:none;stroke-dashoffset:0;stroke-opacity:1"
       d="m 111.84193,178.70533 c 0,0 2.05497,0.60995 2.05497,0.60995 0,0 -5.63532,2.88989 -5.63532,2.88989 0,0 -2.05497,-0.60996 -2.05497,-0.60996 0,0 5.63532,-2.88988 5.63532,-2.88988"
       id="rect2262-7"
       inkscape:connector-curvature="0" />
    <path
       style="opacity:1;fill:#ffffff;fill-opacity:1;stroke:none;stroke-width:0.07300045;stroke-miterlimit:4;stroke-dasharray:none;stroke-dashoffset:0;stroke-opacity:1"
       d="m 134.77612,165.04676 c 0,0 2.05496,0.60995 2.05496,0.60995 0,0 -5.63532,2.88989 -5.63532,2.88989 0,0 -2.05496,-0.60996 -2.05496,-0.60996 0,0 5.63532,-2.88988 5.63532,-2.88988"
       id="rect1430"
       inkscape:connector-curvature="0" />
    <path
       style="opacity:1;fill:#ffffff;fill-opacity:1;stroke:none;stroke-width:0.07300045;stroke-miterlimit:4;stroke-dasharray:none;stroke-dashoffset:0;stroke-opacity:1"
       d="m 125.6704,174.15247 c 0,0 2.05497,0.60996 2.05497,0.60996 0,0 -5.63533,2.88988 -5.63533,2.88988 0,0 -2.05497,-0.60995 -2.05497,-0.60995 0,0 5.63533,-2.88989 5.63533,-2.88989"
       id="rect1432"
       inkscape:connector-curvature="0" />
    <path
       style="opacity:1;fill:#ffffff;fill-opacity:1;stroke:none;stroke-width:0.07300045;stroke-miterlimit:4;stroke-dasharray:none;stroke-dashoffset:0;stroke-opacity:1"
       d="m 130.22326,169.59962 c 0,0 2.05496,0.60995 2.05496,0.60995 0,0 -5.63532,2.88989 -5.63532,2.88989 0,0 -2.05497,-0.60996 -2.05497,-0.60996 0,0 5.63533,-2.88988 5.63533,-2.88988"
       id="rect1434"
       inkscape:connector-curvature="0" />
    <path
       style="opacity:1;fill:#ffffff;fill-opacity:1;stroke:none;stroke-width:0.07300045;stroke-miterlimit:4;stroke-dasharray:none;stroke-dashoffset:0;stroke-opacity:1"
       d="m 121.11754,178.70533 c 0,0 2.05497,0.60995 2.05497,0.60995 0,0 -5.63532,2.88989 -5.63532,2.88989 0,0 -2.05497,-0.60996 -2.05497,-0.60996 0,0 5.63532,-2.88988 5.63532,-2.88988"
       id="rect1436"
       inkscape:connector-curvature="0" />
    <path
       style="opacity:1;fill:#ffffff;fill-opacity:1;stroke:none;stroke-width:0.07300045;stroke-miterlimit:4;stroke-dasharray:none;stroke-dashoffset:0;stroke-opacity:1"
       d="m 93.387199,160.49389 c 0,0 2.054964,0.60996 2.054964,0.60996 0,0 -5.635326,2.88988 -5.635326,2.88988 0,0 -2.054964,-0.60995 -2.054964,-0.60995 0,0 5.635326,-2.88989 5.635326,-2.88989"
       id="rect1452"
       inkscape:connector-curvature="0" />
    <path
       style="opacity:1;fill:#ffffff;fill-opacity:1;stroke:none;stroke-width:0.07300045;stroke-miterlimit:4;stroke-dasharray:none;stroke-dashoffset:0;stroke-opacity:1"
       d="m 102.51739,160.49389 c 0,0 2.05496,0.60996 2.05496,0.60996 0,0 -5.635328,2.88988 -5.635328,2.88988 0,0 -2.05496,-0.60995 -2.05496,-0.60995 0,0 5.635328,-2.88989 5.635328,-2.88989"
       id="rect1454"
       inkscape:connector-curvature="0" />
    <path
       style="opacity:1;fill:#ffffff;fill-opacity:1;stroke:none;stroke-width:0.07300045;stroke-miterlimit:4;stroke-dasharray:none;stroke-dashoffset:0;stroke-opacity:1"
       d="m 111.64757,160.49389 c 0,0 2.05497,0.60996 2.05497,0.60996 0,0 -5.63533,2.88988 -5.63533,2.88988 0,0 -2.05496,-0.60995 -2.05496,-0.60995 0,0 5.63532,-2.88989 5.63532,-2.88989"
       id="rect1456"
       inkscape:connector-curvature="0" />
    <path
       style="opacity:1;fill:#ffffff;fill-opacity:1;stroke:none;stroke-width:0.07300045;stroke-miterlimit:4;stroke-dasharray:none;stroke-dashoffset:0;stroke-opacity:1"
       d="m 120.77776,160.49389 c 0,0 2.05496,0.60996 2.05496,0.60996 0,0 -5.63532,2.88989 -5.63532,2.88989 0,0 -2.05497,-0.60996 -2.05497,-0.60996 0,0 5.63533,-2.88989 5.63533,-2.88989"
       id="rect1458"
       inkscape:connector-curvature="0" />
    <path
       style="opacity:1;fill:#ffffff;fill-opacity:1;stroke:none;stroke-width:0.07300045;stroke-miterlimit:4;stroke-dasharray:none;stroke-dashoffset:0;stroke-opacity:1"
       d="m 130.05337,160.4939 c 0,0 2.05496,0.60995 2.05496,0.60995 0,0 -5.63532,2.88989 -5.63532,2.88989 0,0 -2.05496,-0.60996 -2.05496,-0.60996 0,0 5.63532,-2.88988 5.63532,-2.88988"
       id="rect1460"
       inkscape:connector-curvature="0" />
    <path
       style="opacity:1;fill:#ffffff;fill-opacity:1;stroke:none;stroke-width:0.07300045;stroke-miterlimit:4;stroke-dasharray:none;stroke-dashoffset:0;stroke-opacity:1"
       d="m 139.32898,160.4939 c 0,0 2.05496,0.60995 2.05496,0.60995 0,0 -5.63532,2.88989 -5.63532,2.88989 0,0 -2.05496,-0.60996 -2.05496,-0.60996 0,0 5.63532,-2.88988 5.63532,-2.88988"
       id="rect1462"
       inkscape:connector-curvature="0" />
    <path
       style="opacity:1;vector-effect:none;fill:none;fill-opacity:1;stroke:#000000;stroke-width:0.26499999;stroke-linecap:butt;stroke-linejoin:miter;stroke-miterlimit:4;stroke-dasharray:none;stroke-dashoffset:0;stroke-opacity:1"
       d="m 66.946382,121.43201 54.089128,0 -1e-5,88.00567 -54.089099,1.6e-4 z"
       id="rect26"
       inkscape:connector-curvature="0"
       sodipodi:nodetypes="ccccc" />
    <path
       id="path1868"
       style="fill:none;stroke:#000000;stroke-width:0.26458332px;stroke-linecap:butt;stroke-linejoin:miter;stroke-opacity:1"
       d="m 146.45032,159.70192 h 1.36907 m 0,0 h 1.36907 m -2.73814,-34.42123 h 1.36907 m 0,0 h 1.36907 m -1.36907,0 h 1.36907 m -1.36907,34.42123 v -34.42123" />
    <path
       d="m 71.112607,149.21382 v 1.36907 m 0,0 v 1.36907 m 9.870532,-2.73814 v 1.36907 m 0,0 v 1.36907 m -9.870532,-1.36907 9.870532,0"
       style="fill:none;stroke:#000000;stroke-width:0.26458332px;stroke-linecap:butt;stroke-linejoin:miter;stroke-opacity:1"
       id="path1909"
       inkscape:connector-curvature="0"
       sodipodi:nodetypes="cccccccccc" />
    <path
       d="m 69.133109,144.65618 h -1.48228 m 0,0 -0.737722,0.0196 m 6.57827,-4.38392 H 72.02259 m 0,0 h -1.468787 m -2.902974,4.36433 4.371761,-4.36433"
       style="fill:none;stroke:#000000;stroke-width:0.26458332px;stroke-linecap:butt;stroke-linejoin:miter;stroke-opacity:1"
       id="path2231"
       inkscape:connector-curvature="0"
       sodipodi:nodetypes="cccccccccc" />
    <g
       id="g2509"
       ns1:jacobian_sqrt="0.60802"
       inkscapeversion="0.92.4"
       ns1:alignment="middle center"
       ns1:scale="1.7235208381"
       ns1:preamble="/home/tim/.config/inkscape/extensions/textext/default_packages.tex"
       ns1:text="$\\Lambda$"
       ns1:pdfconverter="pdf2svg"
       ns1:texconverter="pdflatex"
       ns1:version="0.9.1"
       transform="matrix(0.48384221,0,0,0.48384221,2.278954,90.010198)">
      <g
         id="surface1">
        <g
           id="g2506"
           style="fill:#000000;fill-opacity:1">
          <path
             id="path2504"
             transform="translate(148.712,134.765)"
             d="M 3.6875,-6.921875 C 3.625,-7.125 3.5625,-7.140625 3.453125,-7.140625 c -0.15625,0 -0.171875,0.046875 -0.21875,0.21875 L 1.3125,-1 c -0.09375,0.296875 -0.296875,0.6875 -1,0.6875 V 0 c 0.328125,-0.015625 0.84375,-0.03125 0.9375,-0.03125 0.28125,0 0.8125,0.015625 1.125,0.03125 v -0.3125 c -0.546875,0 -0.765625,-0.28125 -0.765625,-0.515625 0,-0.046875 0,-0.078125 0.046875,-0.21875 l 1.5,-4.640625 1.5625,4.90625 c 0.0625,0.140625 0.0625,0.15625 0.0625,0.171875 0,0.296875 -0.59375,0.296875 -0.859375,0.296875 V 0 c 0.359375,-0.03125 1.0625,-0.03125 1.4375,-0.03125 0.390625,0 0.84375,0.015625 1.234375,0.03125 v -0.3125 c -0.765625,0 -0.796875,-0.0625 -0.90625,-0.421875 z m 0,0"
             style="stroke:none;stroke-width:0"
             inkscape:connector-curvature="0" />
        </g>
      </g>
    </g>
    <g
       transform="matrix(0.48384221,0,0,0.48384221,-4.7038639,75.933724)"
       ns1:version="0.9.1"
       ns1:texconverter="pdflatex"
       ns1:pdfconverter="pdf2svg"
       ns1:text="$\\Lambda$"
       ns1:preamble="/home/tim/.config/inkscape/extensions/textext/default_packages.tex"
       ns1:scale="1.7235208381"
       ns1:alignment="middle center"
       inkscapeversion="0.92.4"
       ns1:jacobian_sqrt="0.60802"
       id="g2523">
      <g
         id="g2521">
        <g
           style="fill:#000000;fill-opacity:1"
           id="g2519">
          <path
             inkscape:connector-curvature="0"
             style="stroke:none;stroke-width:0"
             d="M 3.6875,-6.921875 C 3.625,-7.125 3.5625,-7.140625 3.453125,-7.140625 c -0.15625,0 -0.171875,0.046875 -0.21875,0.21875 L 1.3125,-1 c -0.09375,0.296875 -0.296875,0.6875 -1,0.6875 V 0 c 0.328125,-0.015625 0.84375,-0.03125 0.9375,-0.03125 0.28125,0 0.8125,0.015625 1.125,0.03125 v -0.3125 c -0.546875,0 -0.765625,-0.28125 -0.765625,-0.515625 0,-0.046875 0,-0.078125 0.046875,-0.21875 l 1.5,-4.640625 1.5625,4.90625 c 0.0625,0.140625 0.0625,0.15625 0.0625,0.171875 0,0.296875 -0.59375,0.296875 -0.859375,0.296875 V 0 c 0.359375,-0.03125 1.0625,-0.03125 1.4375,-0.03125 0.390625,0 0.84375,0.015625 1.234375,0.03125 v -0.3125 c -0.765625,0 -0.796875,-0.0625 -0.90625,-0.421875 z m 0,0"
             transform="translate(148.712,134.765)"
             id="path2517" />
        </g>
      </g>
    </g>
    <g
       id="g2626"
       ns1:jacobian_sqrt="0.60802"
       inkscapeversion="0.92.4"
       ns1:alignment="middle center"
       ns1:scale="1.7235208381"
       ns1:preamble="/home/tim/.config/inkscape/extensions/textext/default_packages.tex"
       ns1:text="$h$"
       ns1:pdfconverter="pdf2svg"
       ns1:texconverter="pdflatex"
       ns1:version="0.9.1"
       transform="matrix(0.60802,0,0,0.60802,59.550437,61.185669)">
      <g
         id="g2624">
        <g
           id="g2622"
           style="fill:#000000;fill-opacity:1">
          <path
             id="path2620"
             transform="translate(148.712,134.765)"
             d="m 2.859375,-6.8125 c 0,0 0,-0.109375 -0.125,-0.109375 -0.234375,0 -0.953125,0.078125 -1.21875,0.109375 -0.078125,0 -0.1875,0.015625 -0.1875,0.1875 0,0.125 0.09375,0.125 0.234375,0.125 0.484375,0 0.5,0.0625 0.5,0.171875 L 2.03125,-6.125 0.59375,-0.390625 c -0.046875,0.140625 -0.046875,0.15625 -0.046875,0.21875 0,0.234375 0.203125,0.28125 0.296875,0.28125 0.15625,0 0.3125,-0.125 0.359375,-0.265625 l 0.1875,-0.75 0.21875,-0.890625 C 1.671875,-2.03125 1.734375,-2.25 1.78125,-2.46875 1.796875,-2.53125 1.890625,-2.859375 1.890625,-2.921875 1.921875,-3.015625 2.234375,-3.5625 2.578125,-3.84375 2.796875,-4 3.09375,-4.1875 3.53125,-4.1875 c 0.421875,0 0.53125,0.34375 0.53125,0.703125 0,0.53125 -0.375,1.625 -0.609375,2.234375 C 3.375,-1.03125 3.3125,-0.90625 3.3125,-0.703125 c 0,0.46875 0.359375,0.8125 0.828125,0.8125 0.9375,0 1.296875,-1.453125 1.296875,-1.53125 0,-0.109375 -0.078125,-0.109375 -0.109375,-0.109375 -0.109375,0 -0.109375,0.03125 -0.15625,0.1875 -0.140625,0.53125 -0.46875,1.234375 -1.015625,1.234375 -0.171875,0 -0.234375,-0.09375 -0.234375,-0.328125 0,-0.25 0.078125,-0.484375 0.171875,-0.703125 0.15625,-0.4375 0.609375,-1.625 0.609375,-2.203125 0,-0.640625 -0.390625,-1.0625 -1.140625,-1.0625 -0.625,0 -1.109375,0.3125 -1.484375,0.765625 z m 0,0"
             style="stroke:none;stroke-width:0"
             inkscape:connector-curvature="0" />
        </g>
      </g>
    </g>
    <g
       id="g3117"
       ns1:jacobian_sqrt="0.60802"
       inkscapeversion="0.92.4"
       ns1:alignment="middle center"
       ns1:scale="1.7235208381"
       ns1:preamble="/home/tim/.config/inkscape/extensions/textext/default_packages.tex"
       ns1:text="$\\varphi$"
       ns1:pdfconverter="pdf2svg"
       ns1:texconverter="pdflatex"
       ns1:version="0.9.1"
       transform="matrix(0.60802,0,0,0.60802,8.3195863,107.99423)">
      <g
         id="g3115">
        <g
           id="g3113"
           style="fill:#000000;fill-opacity:1">
          <path
             id="path3111"
             transform="translate(148.712,134.765)"
             d="M 1.6875,1.6875 C 1.65625,1.828125 1.640625,1.84375 1.640625,1.890625 c 0,0.21875 0.1875,0.28125 0.296875,0.28125 0.046875,0 0.265625,-0.03125 0.359375,-0.265625 C 2.328125,1.828125 2.375,1.5 2.65625,0.09375 c 0.078125,0 0.15625,0.015625 0.328125,0.015625 1.65625,0 3.1875,-1.5625 3.1875,-3.140625 0,-0.78125 -0.390625,-1.375 -1.140625,-1.375 -1.4375,0 -2.046875,1.9375 -2.640625,3.875 C 1.3125,-0.734375 0.75,-1.28125 0.75,-2 c 0,-0.28125 0.234375,-1.375 0.828125,-2.0625 0.09375,-0.09375 0.09375,-0.109375 0.09375,-0.140625 0,-0.03125 -0.03125,-0.09375 -0.125,-0.09375 -0.28125,0 -1.046875,1.453125 -1.046875,2.40625 0,0.9375 0.65625,1.65625 1.71875,1.90625 z m 1.390625,-2.15625 c -0.09375,0 -0.109375,0 -0.1875,-0.015625 -0.125,0 -0.125,0 -0.125,-0.03125 0,-0.015625 0.171875,-0.9375 0.1875,-1.078125 0.3125,-1.28125 1.09375,-2.234375 1.984375,-2.234375 0.6875,0 0.953125,0.53125 0.953125,1.015625 0,1.125 -1.28125,2.34375 -2.8125,2.34375 z m 0,0"
             style="stroke:none;stroke-width:0"
             inkscape:connector-curvature="0" />
        </g>
      </g>
    </g>
  </g>
</svg>
